ply
format ascii 1.0
element vertex 752
property float x
property float y
property float z
element face 1500
property list uchar int vertex_indices
property uchar red
property uchar green
property uchar blue
end_header
-0.240658 0.778428 0.30163
-0.258732 0.773253 0.31818
-0.233793 0.768752 0.300715
-0.260012 0.812163 0.320658
-0.260712 0.765359 0.327933
-0.274439 0.780864 0.328746
-0.266857 0.797538 0.317468
-0.316428 0.765275 0.353211
-0.305182 0.724773 0.349293
-0.296196 0.76134 0.339354
-0.28003 0.758411 0.341704
-0.30646 0.736232 0.345287
-0.257378 0.742762 0.324843
-0.259036 0.73103 0.303095
-0.246874 0.713534 0.307766
-0.272084 0.718025 0.343447
-0.287609 0.720836 0.323248
-0.324731 0.718124 0.348476
-0.235375 0.690893 0.287822
-0.215001 0.692705 0.269075
-0.296524 0.670284 0.335064
-0.210039 0.698693 0.28226
0.43081 0.690768 -0.148811
-0.32448 0.680168 0.351488
-0.264314 0.684226 0.308886
-0.306726 0.677889 0.35833
-0.244283 0.685719 0.303225
0.400121 0.67626 -0.146506
0.477638 0.658983 -0.124269
0.418 0.688455 -0.127144
0.402848 0.677233 -0.114276
-0.224977 0.668105 0.298727
0.378757 0.661112 -0.088717
0.069452 0.658609 0.125409
0.122455 0.67496 0.127835
-0.248914 0.652085 0.339241
0.402567 0.635614 -0.149677
0.46367 0.677244 -0.172325
0.383225 0.65743 -0.124867
-0.306535 0.639116 0.337046
0.484344 0.657642 -0.18923
0.417205 0.638406 -0.11102
-0.261312 0.652353 0.356253
0.111162 0.656919 0.093537
0.44153 0.650678 -0.100863
-0.258334 0.627901 0.320201
0.402784 0.643975 -0.120187
0.493486 0.660716 -0.15538
-0.282739 0.621085 0.376324
0.073997 0.633805 0.084456
-0.267567 0.64765 0.302184
0.090477 0.623379 0.082789
0.484383 0.635467 -0.194432
0.455935 0.616906 -0.173799
-0.308938 0.633086 0.363725
0.077053 0.612165 0.046969
0.165757 0.657373 0.164472
0.14026 0.62621 0.228168
0.043048 0.622473 0.056994
0.404026 0.633149 -0.135891
0.206654 0.596618 0.201171
-0.27286 0.602597 0.333366
0.058011 0.620648 0.096785
0.495626 0.63671 -0.173305
0.065807 0.643755 0.177961
0.114749 0.619872 0.063218
0.04023 0.61502 0.130716
0.155532 0.602647 0.072281
-0.24637 0.592746 0.363238
0.018961 0.592974 0.100442
0.109769 0.598639 0.031507
0.040531 0.599596 0.034775
-0.307465 0.567875 0.354533
0.48712 0.596968 -0.156118
0.20177 0.607114 0.125175
0.432196 0.573672 -0.148738
0.484953 0.564138 -0.177904
0.455382 0.593353 -0.130954
0.431522 0.599895 -0.166912
0.453485 0.55524 -0.131544
0.184092 0.561231 0.083548
0.009518 0.572281 0.061739
0.051332 0.580633 0.009226
0.055697 0.582634 0.207367
0.224863 0.563754 0.150481
0.021466 0.54577 -0.014952
0.113257 0.573382 0.254111
0.443068 0.52015 -0.169013
0.152056 0.549765 0.054228
0.164012 0.580408 0.249362
0.005429 0.552439 0.00518
0.039123 0.542949 0.169101
0.219521 0.551492 0.203313
-0.251465 0.600094 0.340503
0.490886 0.545302 -0.157456
-0.30368 0.573214 0.374204
0.012697 0.540907 0.103533
0.042205 0.5028 0.031523
0.089693 0.541687 -0.001779
0.001814 0.530622 0.059006
0.182209 0.538328 0.241249
0.14027 0.516977 0.046869
0.464291 0.489659 -0.128972
0.112345 0.513648 0.030598
0.19279 0.523872 0.089692
0.465863 0.483827 -0.187457
0.028414 0.50229 0.1596
0.04716 0.504007 0.188615
0.02759 0.505717 0.106918
0.098055 0.490675 0.032416
-0.242297 0.518787 0.373374
0.433183 0.505024 -0.144045
0.130779 0.513833 0.253472
0.135137 0.470311 0.041967
0.052225 0.490607 0.157692
0.497498 0.455963 -0.178187
-0.236998 0.512791 0.356771
-0.284557 0.52376 0.386699
0.036459 0.487224 0.056687
-0.278972 0.449626 0.329118
0.154861 0.434249 0.067634
0.198407 0.467186 0.201833
-0.301351 0.455899 0.381237
0.215822 0.497268 0.168675
0.196073 0.474112 0.264453
0.139054 0.461274 0.220662
0.032375 0.473481 0.105045
-0.251258 0.495798 0.33123
0.038404 0.448046 0.127659
0.164564 0.438718 0.161386
-0.239603 0.468299 0.387382
0.10791 0.449064 0.188932
-0.26208 0.413473 0.392806
0.438415 0.393878 -0.186219
0.213377 0.451914 0.221761
-0.048854 0.432124 0.211623
0.498676 0.427859 -0.143701
0.425243 0.428226 -0.152512
0.190924 0.442447 0.284403
-0.057934 0.433131 0.249582
-0.036711 0.426576 0.177575
0.004879 0.436576 0.185548
0.156299 0.440838 0.268944
0.045966 0.42516 0.057957
0.030056 0.42453 0.112165
0.119847 0.397388 0.029451
-0.09625 0.415611 0.236637
0.094431 0.430028 0.17176
0.03209 0.422031 0.159228
-0.211874 0.426751 0.372784
0.043847 0.433224 0.208308
0.209536 0.419001 0.016029
-0.205809 0.415232 0.344513
-0.045198 0.419061 0.269035
-0.21937 0.374035 0.381379
-0.012004 0.395411 0.126798
0.231003 0.410636 -0.016884
-0.11433 0.409976 0.285198
-0.292503 0.38574 0.380226
-0.301382 0.442769 0.351267
0.042492 0.382427 0.05968
-0.190743 0.410004 0.319256
0.076883 0.421407 0.038365
0.197683 0.421075 0.092736
-0.157365 0.398225 0.320631
0.274771 0.405555 0.019144
0.140078 0.391036 0.149411
0.473245 0.398402 -0.192725
-0.088694 0.383547 0.298213
0.015161 0.399345 0.117773
0.166218 0.421889 0.113964
0.159501 0.40008 0.027142
0.076231 0.358464 0.242639
0.443578 0.34329 -0.097219
-0.243737 0.392129 0.314047
-0.13888 0.396938 0.243381
-0.139319 0.371355 0.233498
0.069835 0.361934 0.022228
0.324965 0.372017 -0.011698
0.241891 0.408903 0.046349
0.011549 0.402526 0.243366
0.461669 0.413894 -0.110482
-0.082444 0.394003 0.195906
0.312836 0.390859 -0.035016
0.411717 0.361618 -0.1233
0.246155 0.365964 0.090968
-0.185786 0.391365 0.273409
0.346806 0.365782 -0.05582
0.426812 0.414687 -0.128252
0.29246 0.378004 -0.062981
0.267411 0.375411 0.043235
-0.271455 0.361611 0.322292
0.356524 0.370573 -0.095318
-0.192679 0.344961 0.26774
0.126759 0.351243 -0.014985
-0.071947 0.343173 0.165036
0.242993 0.368812 -0.051072
0.357054 0.336792 -0.040355
-0.18453 0.380763 0.358186
0.206795 0.33571 -0.047015
0.28755 0.353586 -0.082892
0.40655 0.346066 -0.148359
0.40323 0.353198 -0.091035
-0.135821 0.369008 0.324945
0.374757 0.322276 -0.146131
-0.043596 0.360041 0.278599
-0.293129 0.3528 0.353471
-0.077044 0.331483 0.2824
0.493301 0.360996 -0.135525
-0.225998 0.327581 0.302031
0.040908 0.291342 0.249552
-0.136239 0.330898 0.31929
-0.259378 0.350541 0.379689
0.49608 0.362996 -0.177453
-0.103381 0.35626 0.213253
0.160103 0.324063 -0.047254
-0.246498 0.322211 0.338884
0.308365 0.322262 -0.101143
-0.17739 0.322855 0.330741
-0.060352 0.331922 0.203993
-0.026747 0.322284 0.25126
-0.007606 0.347759 0.07889
0.068246 0.296832 -0.028681
0.445643 0.337942 -0.190199
0.474759 0.322183 -0.118709
0.419463 0.317219 -0.083248
0.317388 0.34319 0.010444
-0.154611 0.312309 0.264529
-0.094733 0.3096 0.246702
0.235251 0.325328 -0.037073
0.275992 0.298742 0.029191
-0.105259 0.309863 0.283017
-0.055358 0.356345 0.134685
-0.182646 0.30676 0.301725
0.063132 0.31255 -0.004516
0.039573 0.282047 -0.004874
0.479713 0.292689 -0.178382
0.393974 0.297131 -0.06744
0.342446 0.294683 -0.033455
0.372348 0.304265 -0.145941
0.203471 0.353795 0.129774
0.205066 0.272626 -0.020924
0.446876 0.296414 -0.186542
-0.056002 0.308831 0.236936
0.237981 0.307528 0.115611
-0.082507 0.276314 0.116712
0.481354 0.291259 -0.154049
0.42248 0.284077 -0.105789
0.145504 0.341955 0.163179
-0.058312 0.302133 0.167933
-0.070151 0.297132 0.094414
0.433808 0.274972 -0.153804
-0.007614 0.27223 0.241153
0.181061 0.302541 -0.047198
0.359978 0.272637 -0.062935
-0.049298 0.28256 0.220651
-0.072352 0.248395 0.154358
0.273668 0.281807 -0.041875
0.320965 0.282626 -0.096931
0.370732 0.27762 -0.128342
0.255995 0.27504 -0.013887
0.114396 0.281801 0.209519
0.315843 0.266502 -0.045645
0.289578 0.278898 -0.010115
-0.054619 0.263839 0.197584
0.219694 0.269383 0.128075
0.174447 0.286044 -0.05152
0.165894 0.249019 0.171031
0.133042 0.247728 0.204488
0.267922 0.273298 0.009773
0.180134 0.242572 0.169057
0.044028 0.2328 0.234945
0.007982 0.248622 -0.013267
0.097883 0.246568 0.224452
0.044823 0.210309 -0.081192
0.255095 0.26504 0.08197
-0.068033 0.245526 0.026291
0.131542 0.195848 -0.096997
-0.100578 0.220083 0.041747
0.234052 0.207357 0.081269
0.157349 0.18684 -0.080615
-0.006159 0.218986 0.226606
0.084439 0.174855 -0.103784
0.211347 0.242483 0.136168
0.087292 0.226123 -0.091606
0.228344 0.225884 -0.00369
-0.108164 0.209054 0.093204
0.245279 0.222962 0.039741
0.000237 0.203852 -0.026904
-0.099901 0.172736 0.050149
0.049878 0.170829 -0.086568
-0.079628 0.177167 0.018763
-0.040876 0.220397 0.196965
-0.095613 0.173884 0.099341
0.116346 0.188263 0.218759
-0.044575 0.195186 -0.001553
0.026863 0.162463 -0.048312
0.204614 0.175775 -0.015916
0.023816 0.155602 0.230983
0.203867 0.161057 0.145347
-0.075054 0.176203 0.128432
-0.014063 0.165992 -0.014274
0.127888 0.152596 -0.08174
-0.014325 0.143575 0.20968
-0.028599 0.15129 0.026166
0.075065 0.144679 -0.071139
-0.05938 0.146617 0.077756
0.050138 0.141049 -0.036705
0.130815 0.134925 0.203297
0.133026 0.138878 -0.048623
0.09755 0.134884 0.221559
-0.05964 0.139539 0.124206
-0.047612 0.140769 0.178793
0.105402 0.13159 -0.041529
0.169554 0.126868 -0.025254
0.203764 0.114018 0.012732
0.174243 0.125768 0.167287
0.201424 0.092601 0.128097
0.09428 0.034852 0.215963
-0.047158 0.093459 0.174484
0.007192 0.121729 0.006504
0.143372 0.10588 0.18045
0.014395 0.09092 0.222827
-0.057765 0.085107 0.133889
-0.044446 0.101258 0.038969
0.17436 0.023641 0.158056
0.216842 0.106622 0.075979
-0.021554 0.036112 0.035617
0.050151 0.09191 -0.030338
0.191817 0.049269 0.020507
0.119222 0.062787 0.203039
0.106332 0.002977 -0.022347
0.158532 0.058503 -0.018386
-0.041949 -0.014489 0.152128
-0.001924 -0.005003 0.205519
0.195151 0.001273 0.132935
-0.046243 0.008816 0.109792
-0.030434 0.024716 0.186433
0.199223 0.001873 0.070325
0.058233 0.002691 0.223996
-0.026573 -0.047028 0.201032
-0.029244 -0.019922 0.062125
0.149172 -0.042323 -0.011033
-0.045832 -0.057597 0.121754
0.037006 -0.01768 -0.002664
0.037231 -0.072149 -0.013924
-0.0029 -0.052496 0.027696
0.228787 -0.075424 0.056894
0.119889 -0.025536 0.208441
0.193091 -0.097512 0.155845
0.042269 -0.095087 0.255857
-0.003522 -0.086343 0.005731
0.195216 -0.082571 -0.001721
0.15059 -0.103644 -0.026421
-0.04232 -0.074825 0.056862
0.086464 -0.063447 -0.019332
0.259447 -0.132054 0.046056
0.158281 -0.095955 0.181503
0.075981 -0.107776 -0.024883
-0.061037 -0.115307 0.13984
0.118782 -0.100991 0.216808
0.118805 -0.122119 0.23342
-0.049327 -0.094249 0.193268
-0.011012 -0.092277 0.236622
-0.053897 -0.114196 0.092471
0.088066 -0.105125 0.243019
0.119981 -0.117021 -0.036085
-0.032724 -0.113082 0.039772
0.013962 -0.118593 -0.008011
0.230176 -0.090703 0.114162
0.169956 -0.127653 -0.038329
-0.056275 -0.118681 0.208746
-0.026636 -0.130421 0.012844
0.06546 -0.119867 -0.029807
0.154069 -0.124449 0.205194
0.121229 -0.1419 -0.044619
0.233374 -0.112134 0.004794
-0.024331 -0.129822 0.255529
-0.076344 -0.144885 0.17667
0.20131 -0.110017 -0.021899
0.246378 -0.169335 -0.009279
-0.054344 -0.147127 0.071212
0.088187 -0.14628 -0.037631
0.201306 -0.158046 -0.044599
-0.069218 -0.143802 0.12409
-0.014967 -0.161082 0.012758
0.265556 -0.204594 0.031328
0.054119 -0.14699 0.270739
0.028709 -0.157245 -0.01619
-0.081582 -0.1687 0.112128
0.180049 -0.167486 -0.062418
0.021381 -0.176015 -0.020297
0.155547 -0.159799 -0.056849
-0.092432 -0.171679 0.149946
-0.090971 -0.175237 0.1792
-0.032941 -0.160322 0.031545
0.05185 -0.167773 -0.034412
0.231036 -0.183119 -0.04384
-0.075085 -0.181649 0.222651
-0.077233 -0.182382 0.079053
0.129167 -0.178936 -0.094525
0.09045 -0.176338 -0.050765
-0.101572 -0.197864 0.211273
-0.125508 -0.190416 0.139344
0.08092 -0.188842 -0.067875
0.0433 -0.20358 -0.116774
0.081636 -0.19587 -0.159085
-0.127922 -0.212085 -0.000969
-0.077707 -0.196337 0.048938
-0.061019 -0.180223 0.069931
-0.016709 -0.193853 0.006055
0.133643 -0.209936 -0.161988
0.261349 -0.163632 0.092813
-0.056059 -0.201427 0.251773
-0.045365 -0.205167 0.0393
0.047764 -0.200987 -0.172961
0.207091 -0.208805 -0.090209
-0.160775 -0.203129 0.119546
-0.149786 -0.225987 0.170185
0.057564 -0.203527 -0.031175
0.003898 -0.200331 0.275448
0.038006 -0.221463 -0.044255
-0.017073 -0.230188 -0.195133
0.212838 -0.160916 0.160889
-0.209506 -0.209121 0.038165
-0.194096 -0.214201 -0.022282
0.176857 -0.248552 0.18978
0.108266 -0.178767 0.247223
0.072476 -0.212683 -0.218336
-0.069667 -0.242152 0.255131
0.249967 -0.232043 -0.045906
-0.265105 -0.235537 0.009407
-0.104745 -0.258521 -0.051648
0.054995 -0.209166 0.274396
-0.263296 -0.229693 -0.03976
0.031163 -0.282514 0.272326
-0.216007 -0.237078 0.089245
0.267411 -0.275974 0.059511
0.100627 -0.231965 -0.226829
-0.030429 -0.269854 0.268452
-0.236878 -0.242272 -0.087942
-0.306446 -0.251197 -0.098025
0.046332 -0.259696 -0.304948
0.145157 -0.253683 -0.194062
-0.165815 -0.272314 0.176934
0.028763 -0.245403 -0.019512
-0.013181 -0.240393 -0.112121
-0.017176 -0.23113 -0.244813
-0.284089 -0.255736 -0.12901
-0.093751 -0.274492 -0.314072
-0.061439 -0.285393 -0.391102
-0.115982 -0.242739 0.22168
0.246725 -0.254264 -0.061972
-0.322594 -0.265272 -0.061639
-0.062097 -0.273871 -0.225167
-0.000736 -0.248166 -0.315871
-0.363605 -0.282187 -0.11365
0.003384 -0.252978 -0.059487
-0.043753 -0.271271 -0.136561
-0.070602 -0.261912 -0.336522
-0.32297 -0.305933 -0.02687
-0.292292 -0.261176 0.000228
0.208586 -0.264104 -0.12818
0.105223 -0.282132 0.249852
-0.259237 -0.274153 0.053516
0.064648 -0.292658 -0.299495
0.266781 -0.274382 -0.022913
0.246702 -0.269596 0.125696
-0.355762 -0.283864 -0.163242
-0.202934 -0.264149 -0.096038
0.210427 -0.300766 -0.127391
-0.140625 -0.302494 -0.084284
-0.224941 -0.321896 -0.132475
-0.336871 -0.297021 -0.050554
-0.073316 -0.312924 -0.219461
0.243526 -0.323695 0.077346
0.227711 -0.286502 0.14716
-0.093526 -0.297159 0.235827
-0.103678 -0.297631 -0.390259
-0.007677 -0.302302 -0.377273
-0.03154 -0.318049 0.25283
-0.042374 -0.312889 -0.108948
-0.180685 -0.320814 0.142628
0.081175 -0.320288 0.242931
-0.221397 -0.288778 0.101433
-0.118682 -0.296794 -0.353371
-0.273664 -0.301242 0.034275
-0.254134 -0.334408 0.040921
-0.378882 -0.325303 -0.180017
0.138643 -0.305126 -0.207066
0.009769 -0.334551 0.235569
-0.126167 -0.317989 -0.342332
-0.341616 -0.340641 -0.068955
-0.114822 -0.345919 -0.406489
-0.221853 -0.325989 0.087291
0.198754 -0.326511 -0.116989
-0.00162 -0.336285 -0.36975
0.086921 -0.321149 -0.262767
-0.280136 -0.33591 0.005136
-0.065666 -0.328799 0.226109
-0.06053 -0.33917 -0.42543
-0.384218 -0.356056 -0.111857
-0.318237 -0.299004 -0.191453
-0.066739 -0.328683 -0.197592
-0.398361 -0.337329 -0.157006
0.024257 -0.346203 -0.326286
-0.042621 -0.36003 -0.200719
-0.283093 -0.315013 -0.179179
-0.082934 -0.357676 -0.258882
-0.216097 -0.3667 -0.088503
-0.115281 -0.410576 -0.385055
-0.016457 -0.379746 -0.284031
-0.113187 -0.386734 -0.349729
-0.321869 -0.357318 -0.068063
-0.295904 -0.395547 -0.103589
-0.353183 -0.37791 -0.090816
-0.240025 -0.376016 -0.112402
-0.053054 -0.371089 -0.236173
-0.228922 -0.352903 -0.126178
-0.010956 -0.374891 -0.350233
-0.035362 -0.400029 -0.318474
-0.098065 -0.400637 -0.323872
-0.027697 -0.373723 -0.400545
-0.01539 -0.393874 -0.368881
-0.386585 -0.415903 -0.099409
-0.102082 -0.392929 -0.418317
-0.369827 -0.393189 -0.18754
-0.311538 -0.399742 -0.178807
-0.397216 -0.445938 -0.123104
-0.286989 -0.40266 -0.140516
-0.10674 -0.455865 -0.371471
-0.092729 -0.458839 -0.401046
-0.351327 -0.451134 -0.175861
-0.035493 -0.418182 -0.317166
-0.101402 -0.466176 -0.331158
-0.359303 -0.468365 -0.070554
-0.31222 -0.459601 -0.068998
-0.38899 -0.422946 -0.157337
0.00357 -0.459031 -0.366645
-0.070855 -0.449332 -0.313548
-0.286566 -0.49288 -0.084231
-0.069469 -0.422334 -0.423932
-0.32063 -0.525725 -0.173489
-0.279916 -0.452215 -0.132812
-0.024889 -0.536779 -0.303657
-0.304189 -0.460798 -0.166367
-0.007481 -0.489168 -0.398537
-0.037953 -0.450824 -0.420278
-0.000819 -0.461021 -0.328671
-0.383429 -0.521816 -0.089995
0.006061 -0.548213 -0.340389
-0.10149 -0.562884 -0.353732
-0.093843 -0.532893 -0.31585
-0.298986 -0.597687 -0.087997
-0.274929 -0.535077 -0.128191
-0.329146 -0.54847 -0.065197
-0.282221 -0.584483 -0.111955
-0.058499 -0.534039 -0.301212
-0.063302 -0.557596 -0.410708
-0.286484 -0.546417 -0.155435
-0.019594 -0.593199 -0.39616
-0.046637 -0.623084 -0.401234
-0.375912 -0.602856 -0.099878
-0.38896 -0.558035 -0.139314
-0.090945 -0.59438 -0.324766
-0.053948 -0.640108 -0.315309
-0.369534 -0.560829 -0.159641
-0.023186 -0.683482 -0.388925
-0.31839 -0.614269 -0.165328
-0.087486 -0.647368 -0.341197
-0.078694 -0.69663 -0.368175
-0.003482 -0.618684 -0.358064
-0.374372 -0.672692 -0.147023
-0.294309 -0.668082 -0.136217
-0.011649 -0.65737 -0.327786
-0.303603 -0.685752 -0.097306
-0.015836 -0.716766 -0.346387
-0.371926 -0.662913 -0.107973
-0.024695 -0.714721 -0.322697
-0.333197 -0.688131 -0.164414
-0.367483 -0.733201 -0.112995
-0.075789 -0.718327 -0.340067
-0.318958 -0.754254 -0.169322
-0.332484 -0.675545 -0.087783
-0.296333 -0.719861 -0.131295
-0.066346 -0.676658 -0.38537
-0.376402 -0.738686 -0.161818
-0.384565 -0.764914 -0.141507
-0.341196 -0.790667 -0.103488
-0.053809 -0.741922 -0.397714
-0.030963 -0.754196 -0.39725
-0.311944 -0.758762 -0.098346
-0.393102 -0.766618 -0.181583
-0.087301 -0.75834 -0.401097
-0.011727 -0.760607 -0.349629
-0.03211 -0.762585 -0.323558
-0.364453 -0.763452 -0.188617
-0.085858 -0.757701 -0.355735
-0.099813 -0.77716 -0.407368
-0.024438 -0.794742 -0.375366
-0.428025 -0.803539 -0.18537
-0.376315 -0.805931 -0.222517
-0.062293 -0.779134 -0.3357
-0.419082 -0.802369 -0.235381
-0.336672 -0.812065 -0.175797
-0.113865 -0.795256 -0.460915
-0.147959 -0.810596 -0.45294
-0.426075 -0.818608 -0.273617
-0.068178 -0.803707 -0.462552
-0.109277 -0.825072 -0.515323
-0.024331 -0.795157 -0.319881
-0.045117 -0.813184 -0.441229
-0.41508 -0.821694 -0.151178
-0.344764 -0.833963 -0.096665
-0.164228 -0.83291 -0.471664
-0.061963 -0.83244 -0.490392
-0.040775 -0.83463 -0.431161
-0.148008 -0.821815 -0.508009
-0.468905 -0.820229 -0.260143
-0.387425 -0.832621 -0.134967
-0.47351 -0.845624 -0.207831
-0.465229 -0.825958 -0.214467
-0.29654 -0.812355 -0.100516
-0.451526 -0.829698 -0.292426
-0.402609 -0.823813 -0.265497
-0.012367 -0.836643 -0.346379
-0.172785 -0.845335 -0.504456
-0.066119 -0.834768 -0.33556
-0.081132 -0.832353 -0.414023
-0.048689 -0.844143 -0.387328
-0.090093 -0.846567 -0.494467
-0.240036 0.78396 0.308632
-0.319538 0.744528 0.355911
0.444063 0.644735 -0.176786
0.176943 0.478779 0.097089
-0.135443 0.412243 0.274505
0.222702 0.418529 0.057897
0.163652 0.373712 -0.017465
0.006977 0.278022 0.005579
0.003004 0.28979 0.030883
0.086571 0.29102 0.229897
0.366747 0.263048 -0.097754
-0.167618 -0.199148 0.030909
0.016458 -0.223655 -0.249947
0.366827 0.673409 -0.096043
0.078944 0.556269 0.236361
0.105774 0.671142 0.177234
0.156383 0.658445 0.115465
0.095729 0.610822 0.230615
0.169319 0.511376 0.074045
0.172907 0.534659 0.069343
0.083674 0.498485 0.225628
0.049227 0.534073 0.202444
0.172375 0.444025 0.203984
0.199673 0.421638 0.252258
0.178845 0.477808 0.227763
0.176051 0.477266 0.258008
0.081712 0.445221 0.15884
0.152615 0.450325 0.113124
0.083646 0.455159 0.177079
-0.004737 0.431736 0.2325
0.13158 0.427927 0.149019
-0.127875 0.302852 0.276472
-0.284361 0.343342 0.370885
-0.113636 -0.193113 0.173896
-0.125764 -0.183961 0.081362
-0.058638 -0.713759 -0.320811
-0.04747 -0.845702 -0.335777
-0.0979 -0.805184 -0.397672
-0.142769 -0.844649 -0.511259
-0.043673 -0.821094 -0.308549
-0.145562 -0.842991 -0.452593
-0.064968 -0.843984 -0.466703
-0.452453 -0.831551 -0.172467
-0.457416 -0.844985 -0.276962
-0.372721 -0.82744 -0.191336
-0.300551 -0.772461 -0.120005
-0.321343 -0.838262 -0.107451
-0.399169 -0.834358 -0.170965
-0.405214 -0.846343 -0.251888
-0.299552 -0.841461 -0.138186
-0.351285 -0.845438 -0.150917
-0.442867 -0.845017 -0.174022
-0.263433 -0.372308 -0.080346
-0.054925 -0.301078 0.1366
-0.038031 -0.335064 -0.125851
0.082389 -0.338787 0.204918
-0.184294 -0.339288 0.034105
0.149997 -0.320778 0.17712
0.042875 -0.354394 -0.232979
-0.049242 -0.380962 -0.260351
-0.024999 -0.225748 0.038412
-0.250531 -0.357329 -0.035248
-0.02595 -0.285594 -0.081492
0.004471 -0.361322 -0.209586
-0.158028 -0.345963 -0.068817
0.160318 -0.292755 0.189476
-0.062865 -0.326672 0.178317
-0.209216 -0.333871 0.074559
-0.154147 -0.322311 0.173564
-0.076013 -0.334311 0.201775
0.104141 -0.338652 -0.214976
-0.014832 -0.334446 -0.092979
0.248888 -0.326035 -0.006017
0.091759 -0.345768 -0.16198
0.208318 -0.334962 -0.058003
0.164646 -0.334209 0.143087
-0.040276 -0.232539 0.016043
-0.230699 -0.34485 0.024143
-0.15189 -0.320529 0.134524
0.139916 -0.339151 -0.118596
0.043627 -0.351804 -0.144091
-0.082619 -0.290775 0.105579
-0.039456 -0.255817 0.072344
0.203303 -0.329122 0.140041
-0.171063 -0.352164 -0.036618
0.017055 -0.24936 -0.004839
-0.118171 -0.299834 0.070402
-0.203909 -0.356665 -0.023158
-0.008684 -0.242282 0.068302
0.202537 -0.338202 -0.023982
0.115929 -0.337641 -0.090103
-0.123398 -0.323997 0.164586
-0.074461 -0.271532 0.056274
0.076163 -0.295341 0.055096
-0.173525 -0.323781 0.096592
0.070417 -0.336198 -0.089574
0.128492 -0.323001 0.018154
0.048474 -0.278096 -0.001414
0.159705 -0.335236 -0.035948
-0.089985 -0.275753 0.015949
0.142234 -0.333727 -0.17024
-0.132015 -0.311045 0.023879
0.015481 -0.285939 -0.04593
0.052348 -0.347094 -0.272543
-0.074242 -0.249456 -0.018822
0.118362 -0.328806 0.155678
0.005166 -0.337177 0.201565
-0.000561 -0.343493 -0.105206
0.104928 -0.3261 -0.049929
0.011053 -0.292135 0.126799
0.08995 -0.307755 -0.004252
0.049819 -0.28874 0.098688
0.206939 -0.340314 0.055835
0.011022 -0.327154 0.17513
0.093017 -0.319141 0.129984
0.138006 -0.33102 0.100602
-0.112855 -0.291515 -0.036046
0.1597 -0.334206 0.039961
0.058662 -0.31386 -0.051402
0.061096 -0.321867 0.155323
0.181928 -0.020672 0.01567
3 628 629 667 56 48 242
3 667 629 625 56 48 242
3 625 629 616 56 48 242
3 616 629 628 56 48 242
3 616 628 672 56 48 242
3 672 628 671 56 48 242
3 671 628 668 56 48 242
3 668 628 627 56 48 242
3 627 628 667 56 48 242
3 627 667 670 56 48 242
3 670 667 625 56 48 242
3 670 625 610 56 48 242
3 610 625 599 56 48 242
3 599 625 616 56 48 242
3 599 616 611 56 48 242
3 611 616 615 56 48 242
3 615 616 672 56 48 242
3 615 672 630 56 48 242
3 630 672 671 56 48 242
3 630 671 669 56 48 242
3 669 671 614 56 48 242
3 614 671 606 56 48 242
3 606 671 668 56 48 242
3 606 668 598 56 48 242
3 598 668 597 56 48 242
3 597 668 602 56 48 242
3 602 668 627 56 48 242
3 602 627 670 56 48 242
3 602 670 595 56 48 242
3 595 670 610 56 48 242
3 595 610 594 56 48 242
3 594 610 599 56 48 242
3 594 599 590 56 48 242
3 590 599 611 56 48 242
3 590 611 608 56 48 242
3 608 611 615 56 48 242
3 608 615 609 56 48 242
3 609 615 630 56 48 242
3 609 630 669 56 48 242
3 609 669 617 56 48 242
3 617 669 626 56 48 242
3 626 669 614 56 48 242
3 626 614 617 56 48 242
3 617 614 606 56 48 242
3 617 606 605 56 48 242
3 605 606 598 56 48 242
3 605 598 593 56 48 242
3 593 598 597 56 48 242
3 593 597 570 56 48 242
3 570 597 581 56 48 242
3 581 597 602 56 48 242
3 581 602 666 56 48 242
3 666 602 595 56 48 242
3 666 595 578 56 48 242
3 578 595 576 56 48 242
3 576 595 594 56 48 242
3 576 594 590 56 48 242
3 576 590 567 56 48 242
3 567 590 589 56 48 242
3 589 590 608 56 48 242
3 589 608 605 56 48 242
3 605 608 609 56 48 242
3 605 609 617 56 48 242
3 589 605 593 56 48 242
3 589 593 585 56 48 242
3 585 593 570 56 48 242
3 585 570 551 96 204 61
3 551 570 569 96 204 61
3 569 570 581 96 204 61
3 569 581 666 96 204 61
3 569 666 565 96 204 61
3 565 666 574 96 204 61
3 574 666 578 96 204 61
3 574 578 576 96 204 61
3 574 576 571 96 204 61
3 571 576 567 56 48 242
3 571 567 560 96 204 61
3 560 567 561 96 204 61
3 561 567 589 56 48 242
3 561 589 585 96 204 61
3 561 585 558 96 204 61
3 558 585 551 96 204 61
3 558 551 531 96 204 61
3 531 551 530 96 204 61
3 530 551 534 96 204 61
3 534 551 552 96 204 61
3 552 551 564 96 204 61
3 564 551 569 96 204 61
3 564 569 565 96 204 61
3 564 565 557 96 204 61
3 557 565 544 96 204 61
3 544 565 574 96 204 61
3 544 574 550 96 204 61
3 550 574 571 96 204 61
3 550 571 546 96 204 61
3 546 571 560 96 204 61
3 546 560 547 96 204 61
3 547 560 558 96 204 61
3 558 560 561 96 204 61
3 547 558 541 96 204 61
3 541 558 531 96 204 61
3 541 531 525 96 204 61
3 525 531 510 96 204 61
3 510 531 530 96 204 61
3 510 530 512 96 204 61
3 512 530 534 96 204 61
3 512 534 521 96 204 61
3 521 534 539 96 204 61
3 539 534 552 96 204 61
3 539 552 557 96 204 61
3 557 552 564 96 204 61
3 539 557 533 96 204 61
3 533 557 544 96 204 61
3 533 544 548 96 204 61
3 548 544 550 96 204 61
3 548 550 538 96 204 61
3 538 550 546 96 204 61
3 538 546 522 96 204 61
3 522 546 547 96 204 61
3 522 547 500 96 204 61
3 500 547 541 96 204 61
3 500 541 525 96 204 61
3 500 525 493 96 204 61
3 493 525 510 96 204 61
3 493 510 491 96 204 61
3 491 510 512 96 204 61
3 491 512 508 242 24 142
3 508 512 521 96 204 61
3 508 521 690 242 24 142
3 690 521 520 242 24 142
3 520 521 533 96 204 61
3 533 521 539 96 204 61
3 520 533 523 96 204 61
3 523 533 548 96 204 61
3 523 548 538 96 204 61
3 523 538 522 96 204 61
3 523 522 519 96 204 61
3 519 522 496 242 24 142
3 496 522 500 96 204 61
3 496 500 479 242 24 142
3 479 500 450 242 24 142
3 450 500 478 242 24 142
3 478 500 493 96 204 61
3 478 493 485 242 24 142
3 485 493 491 242 24 142
3 485 491 449 242 24 142
3 449 491 474 242 24 142
3 474 491 508 242 24 142
3 474 508 503 242 24 142
3 503 508 506 242 24 142
3 506 508 517 242 24 142
3 517 508 690 242 24 142
3 517 690 694 242 24 142
3 694 690 511 242 24 142
3 511 690 520 242 24 142
3 511 520 519 242 24 142
3 519 520 523 96 204 61
3 511 519 505 242 24 142
3 505 519 496 242 24 142
3 505 496 479 242 24 142
3 505 479 465 242 24 142
3 465 479 442 242 24 142
3 442 479 455 242 24 142
3 455 479 450 242 24 142
3 455 450 459 242 24 142
3 459 450 478 242 24 142
3 459 478 485 242 24 142
3 459 485 449 242 24 142
3 459 449 447 242 24 142
3 447 449 422 242 24 142
3 422 449 454 242 24 142
3 454 449 474 242 24 142
3 454 474 458 242 24 142
3 458 474 481 242 24 142
3 481 474 503 242 24 142
3 481 503 685 242 24 142
3 685 503 506 242 24 142
3 685 506 738 242 24 142
3 738 506 711 242 24 142
3 711 506 694 242 24 142
3 694 506 517 242 24 142
3 711 694 689 242 24 142
3 689 694 511 242 24 142
3 689 511 734 242 24 142
3 734 511 505 242 24 142
3 734 505 497 242 24 142
3 497 505 465 242 24 142
3 497 465 489 242 24 142
3 489 465 443 242 24 142
3 443 465 442 242 24 142
3 443 442 438 242 24 142
3 438 442 428 242 24 142
3 428 442 455 242 24 142
3 428 455 643 242 24 142
3 643 455 459 242 24 142
3 643 459 447 242 24 142
3 643 447 415 242 24 142
3 415 447 422 242 24 142
3 415 422 405 242 24 142
3 405 422 446 242 24 142
3 446 422 458 242 24 142
3 458 422 454 242 24 142
3 446 458 693 242 24 142
3 693 458 481 242 24 142
3 693 481 702 242 24 142
3 702 481 685 242 24 142
3 702 685 738 242 24 142
3 702 738 749 242 24 142
3 749 738 726 242 24 142
3 726 738 711 242 24 142
3 726 711 721 242 24 142
3 721 711 710 242 24 142
3 710 711 704 242 24 142
3 704 711 689 242 24 142
3 704 689 701 242 24 142
3 701 689 734 242 24 142
3 701 734 497 242 24 142
3 701 497 489 242 24 142
3 701 489 731 242 24 142
3 731 489 470 242 24 142
3 470 489 443 242 24 142
3 470 443 462 242 24 142
3 462 443 416 242 24 142
3 416 443 411 242 24 142
3 411 443 438 242 24 142
3 411 438 428 242 24 142
3 411 428 406 242 24 142
3 406 428 415 242 24 142
3 415 428 643 242 24 142
3 406 415 405 242 24 142
3 406 405 404 242 24 142
3 404 405 421 242 24 142
3 421 405 446 242 24 142
3 421 446 457 242 24 142
3 457 446 693 242 24 142
3 457 693 733 242 24 142
3 733 693 702 242 24 142
3 733 702 749 242 24 142
3 733 749 728 242 24 142
3 728 749 741 40 176 204
3 741 749 739 242 24 142
3 739 749 726 242 24 142
3 739 726 721 242 24 142
3 739 721 729 242 24 142
3 729 721 710 242 24 142
3 729 710 705 242 24 142
3 705 710 495 242 24 142
3 495 710 731 242 24 142
3 731 710 704 242 24 142
3 731 704 701 242 24 142
3 495 731 470 242 24 142
3 495 470 466 242 24 142
3 466 470 452 242 24 142
3 452 470 462 242 24 142
3 452 462 416 242 24 142
3 452 416 430 242 24 142
3 430 416 397 242 24 142
3 397 416 390 242 24 142
3 390 416 400 242 24 142
3 400 416 411 242 24 142
3 400 411 406 242 24 142
3 400 406 404 242 24 142
3 400 404 401 242 24 142
3 401 404 419 242 24 142
3 419 404 421 242 24 142
3 419 421 445 242 24 142
3 445 421 457 242 24 142
3 445 457 733 242 24 142
3 445 733 728 40 176 204
3 445 728 716 40 176 204
3 716 728 724 40 176 204
3 724 728 741 40 176 204
3 724 741 727 40 176 204
3 727 741 739 242 24 142
3 727 739 729 242 24 142
3 727 729 748 242 24 142
3 748 729 720 242 24 142
3 720 729 705 242 24 142
3 720 705 703 242 24 142
3 703 705 495 242 24 142
3 703 495 466 242 24 142
3 703 466 437 242 24 142
3 437 466 386 242 24 142
3 386 466 430 242 24 142
3 430 466 452 242 24 142
3 386 430 397 242 24 142
3 386 397 380 40 176 204
3 380 397 383 40 176 204
3 383 397 390 242 24 142
3 383 390 392 242 24 142
3 392 390 400 242 24 142
3 392 400 401 242 24 142
3 392 401 375 40 176 204
3 375 401 382 40 176 204
3 382 401 396 40 176 204
3 396 401 419 40 176 204
3 396 419 391 40 176 204
3 391 419 410 40 176 204
3 410 419 716 40 176 204
3 716 419 445 40 176 204
3 410 716 691 40 176 204
3 691 716 719 40 176 204
3 719 716 724 40 176 204
3 719 724 742 40 176 204
3 742 724 745 40 176 204
3 745 724 746 40 176 204
3 746 724 727 40 176 204
3 746 727 748 40 176 204
3 746 748 743 242 24 142
3 743 748 720 242 24 142
3 743 720 703 242 24 142
3 743 703 475 242 24 142
3 475 703 437 242 24 142
3 475 437 467 242 24 142
3 467 437 412 40 176 204
3 412 437 386 40 176 204
3 412 386 356 40 176 204
3 356 386 380 40 176 204
3 356 380 376 40 176 204
3 376 380 379 40 176 204
3 379 380 383 40 176 204
3 379 383 370 40 176 204
3 370 383 392 40 176 204
3 370 392 375 40 176 204
3 370 375 366 40 176 204
3 366 375 382 40 176 204
3 366 382 373 40 176 204
3 373 382 388 40 176 204
3 388 382 396 40 176 204
3 388 396 391 40 176 204
3 388 391 385 40 176 204
3 385 391 410 40 176 204
3 385 410 395 40 176 204
3 395 410 409 40 176 204
3 409 410 414 40 176 204
3 414 410 691 40 176 204
3 414 691 707 40 176 204
3 707 691 723 40 176 204
3 723 691 713 40 176 204
3 713 691 719 40 176 204
3 713 719 684 40 176 204
3 684 719 740 40 176 204
3 740 719 742 40 176 204
3 740 742 750 40 176 204
3 750 742 745 40 176 204
3 750 745 736 40 176 204
3 736 745 746 40 176 204
3 736 746 706 40 176 204
3 706 746 743 40 176 204
3 706 743 714 40 176 204
3 714 743 475 242 24 142
3 714 475 467 40 176 204
3 714 467 476 40 176 204
3 476 467 423 40 176 204
3 423 467 412 40 176 204
3 423 412 369 40 176 204
3 369 412 356 40 176 204
3 369 356 347 40 176 204
3 347 356 376 40 176 204
3 347 376 352 40 176 204
3 352 376 379 40 176 204
3 352 379 353 40 176 204
3 353 379 370 40 176 204
3 353 370 366 40 176 204
3 353 366 358 40 176 204
3 358 366 373 40 176 204
3 358 373 368 40 176 204
3 368 373 388 40 176 204
3 368 388 372 40 176 204
3 372 388 385 40 176 204
3 372 385 395 40 176 204
3 372 395 381 40 176 204
3 381 395 409 40 176 204
3 381 409 389 40 176 204
3 389 409 399 40 176 204
3 399 409 408 40 176 204
3 408 409 414 40 176 204
3 408 414 707 242 24 142
3 408 707 407 242 24 142
3 407 707 735 242 24 142
3 735 707 730 242 24 142
3 730 707 723 242 24 142
3 730 723 717 242 24 142
3 717 723 712 242 24 142
3 712 723 713 40 176 204
3 712 713 684 40 176 204
3 712 684 709 242 24 142
3 709 684 722 242 24 142
3 722 684 697 242 24 142
3 697 684 740 242 24 142
3 697 740 744 242 24 142
3 744 740 750 40 176 204
3 744 750 686 40 176 204
3 686 750 736 40 176 204
3 686 736 688 40 176 204
3 688 736 706 40 176 204
3 688 706 714 40 176 204
3 688 714 696 40 176 204
3 696 714 476 40 176 204
3 696 476 426 40 176 204
3 426 476 423 40 176 204
3 426 423 427 40 176 204
3 427 423 374 40 176 204
3 374 423 349 40 176 204
3 349 423 369 40 176 204
3 349 369 335 40 176 204
3 335 369 347 40 176 204
3 335 347 338 40 176 204
3 338 347 751 40 176 204
3 751 347 352 40 176 204
3 751 352 342 40 176 204
3 342 352 353 40 176 204
3 342 353 355 40 176 204
3 355 353 358 40 176 204
3 355 358 345 40 176 204
3 345 358 368 40 176 204
3 345 368 351 40 176 204
3 351 368 367 40 176 204
3 367 368 372 40 176 204
3 367 372 381 40 176 204
3 367 381 364 40 176 204
3 364 381 384 40 176 204
3 384 381 389 40 176 204
3 384 389 393 40 176 204
3 393 389 403 40 176 204
3 403 389 665 242 24 142
3 665 389 399 40 176 204
3 665 399 408 242 24 142
3 665 408 642 242 24 142
3 642 408 407 242 24 142
3 642 407 425 242 24 142
3 425 407 440 242 24 142
3 440 407 432 242 24 142
3 432 407 735 242 24 142
3 432 735 747 242 24 142
3 747 735 730 242 24 142
3 747 730 732 242 24 142
3 732 730 717 242 24 142
3 732 717 725 242 24 142
3 725 717 709 242 24 142
3 709 717 712 242 24 142
3 725 709 482 242 24 142
3 482 709 699 242 24 142
3 699 709 722 242 24 142
3 699 722 700 242 24 142
3 700 722 697 242 24 142
3 700 697 737 242 24 142
3 737 697 744 242 24 142
3 737 744 686 40 176 204
3 737 686 490 40 176 204
3 490 686 483 40 176 204
3 483 686 688 40 176 204
3 483 688 463 40 176 204
3 463 688 696 40 176 204
3 463 696 426 40 176 204
3 463 426 427 40 176 204
3 463 427 433 40 176 204
3 433 427 387 40 176 204
3 387 427 361 40 176 204
3 361 427 374 40 176 204
3 361 374 360 40 176 204
3 360 374 357 40 176 204
3 357 374 349 40 176 204
3 357 349 348 40 176 204
3 348 349 325 40 176 204
3 325 349 335 40 176 204
3 325 335 317 40 176 204
3 317 335 326 40 176 204
3 326 335 338 40 176 204
3 326 338 329 40 176 204
3 329 338 751 40 176 204
3 329 751 332 40 176 204
3 332 751 342 40 176 204
3 332 342 331 40 176 204
3 331 342 355 40 176 204
3 331 355 344 40 176 204
3 344 355 345 40 176 204
3 344 345 351 40 176 204
3 344 351 346 40 176 204
3 346 351 354 40 176 204
3 354 351 367 40 176 204
3 354 367 364 40 176 204
3 354 364 359 40 176 204
3 359 364 384 40 176 204
3 359 384 378 40 176 204
3 378 384 393 40 176 204
3 378 393 394 40 176 204
3 394 393 664 40 176 204
3 664 393 403 40 176 204
3 664 403 418 242 24 142
3 418 403 417 242 24 142
3 417 403 665 242 24 142
3 417 665 424 242 24 142
3 424 665 642 242 24 142
3 424 642 434 242 24 142
3 434 642 425 242 24 142
3 434 425 440 242 24 142
3 434 440 448 242 24 142
3 448 440 469 242 24 142
3 469 440 432 242 24 142
3 469 432 471 242 24 142
3 471 432 747 242 24 142
3 471 747 695 242 24 142
3 695 747 732 242 24 142
3 695 732 715 242 24 142
3 715 732 687 242 24 142
3 687 732 725 242 24 142
3 687 725 698 242 24 142
3 698 725 494 242 24 142
3 494 725 482 242 24 142
3 494 482 484 242 24 142
3 484 482 444 242 24 142
3 444 482 699 242 24 142
3 444 699 477 242 24 142
3 477 699 700 242 24 142
3 477 700 499 242 24 142
3 499 700 490 242 24 142
3 490 700 737 40 176 204
3 499 490 480 242 24 142
3 480 490 435 242 24 142
3 435 490 483 40 176 204
3 435 483 463 40 176 204
3 435 463 433 40 176 204
3 435 433 420 40 176 204
3 420 433 387 40 176 204
3 420 387 377 40 176 204
3 377 387 363 40 176 204
3 363 387 350 40 176 204
3 350 387 365 40 176 204
3 365 387 361 40 176 204
3 365 361 360 40 176 204
3 365 360 348 40 176 204
3 348 360 357 40 176 204
3 365 348 350 40 176 204
3 350 348 339 40 176 204
3 339 348 318 40 176 204
3 318 348 330 40 176 204
3 330 348 325 40 176 204
3 330 325 321 40 176 204
3 321 325 316 40 176 204
3 316 325 317 40 176 204
3 316 317 299 40 176 204
3 299 317 326 40 176 204
3 299 326 279 40 176 204
3 279 326 287 40 176 204
3 287 326 315 40 176 204
3 315 326 329 40 176 204
3 315 329 332 40 176 204
3 315 332 314 40 176 204
3 314 332 313 40 176 204
3 313 332 331 40 176 204
3 313 331 328 40 176 204
3 328 331 344 40 176 204
3 328 344 327 40 176 204
3 327 344 341 40 176 204
3 341 344 346 40 176 204
3 341 346 354 40 176 204
3 341 354 343 40 176 204
3 343 354 359 40 176 204
3 343 359 362 40 176 204
3 362 359 378 40 176 204
3 362 378 371 40 176 204
3 371 378 394 40 176 204
3 371 394 398 40 176 204
3 398 394 402 242 24 142
3 402 394 664 40 176 204
3 402 664 451 242 24 142
3 451 664 418 242 24 142
3 451 418 444 242 24 142
3 444 418 436 242 24 142
3 436 418 417 242 24 142
3 436 417 424 242 24 142
3 436 424 431 242 24 142
3 431 424 434 242 24 142
3 431 434 453 242 24 142
3 453 434 441 242 24 142
3 441 434 448 242 24 142
3 441 448 468 242 24 142
3 468 448 502 242 24 142
3 502 448 507 242 24 142
3 507 448 469 242 24 142
3 507 469 472 242 24 142
3 472 469 471 242 24 142
3 472 471 518 242 24 142
3 518 471 695 242 24 142
3 518 695 509 242 24 142
3 509 695 715 242 24 142
3 509 715 718 242 24 142
3 718 715 687 242 24 142
3 718 687 708 242 24 142
3 708 687 698 242 24 142
3 708 698 494 242 24 142
3 708 494 487 242 24 142
3 487 494 484 242 24 142
3 487 484 486 242 24 142
3 486 484 464 242 24 142
3 464 484 436 242 24 142
3 436 484 444 242 24 142
3 464 436 461 242 24 142
3 461 436 431 242 24 142
3 461 431 453 242 24 142
3 461 453 473 242 24 142
3 473 453 456 242 24 142
3 456 453 441 242 24 142
3 456 441 468 242 24 142
3 456 468 504 96 204 61
3 504 468 488 96 204 61
3 488 468 502 96 204 61
3 488 502 526 96 204 61
3 526 502 527 96 204 61
3 527 502 507 96 204 61
3 527 507 518 242 24 142
3 518 507 472 242 24 142
3 527 518 529 96 204 61
3 529 518 516 242 24 142
3 516 518 509 242 24 142
3 516 509 683 242 24 142
3 683 509 692 242 24 142
3 692 509 718 242 24 142
3 692 718 708 242 24 142
3 692 708 498 242 24 142
3 498 708 487 242 24 142
3 498 487 486 242 24 142
3 498 486 460 242 24 142
3 460 486 461 242 24 142
3 461 486 464 242 24 142
3 460 461 473 242 24 142
3 460 473 492 242 24 142
3 492 473 501 242 24 142
3 501 473 456 242 24 142
3 501 456 504 127 20 204
3 501 504 528 96 204 61
3 528 504 537 96 204 61
3 537 504 526 96 204 61
3 526 504 488 96 204 61
3 537 526 532 96 204 61
3 532 526 527 96 204 61
3 532 527 545 96 204 61
3 545 527 543 96 204 61
3 543 527 529 96 204 61
3 543 529 514 96 204 61
3 514 529 516 242 24 142
3 514 516 683 242 24 142
3 514 683 513 242 24 142
3 513 683 692 242 24 142
3 513 692 498 242 24 142
3 513 498 460 242 24 142
3 513 460 492 242 24 142
3 513 492 515 242 24 142
3 515 492 501 96 204 61
3 515 501 524 96 204 61
3 524 501 528 96 204 61
3 524 528 549 96 204 61
3 549 528 563 96 204 61
3 563 528 537 96 204 61
3 563 537 566 96 204 61
3 566 537 532 96 204 61
3 566 532 542 96 204 61
3 542 532 545 96 204 61
3 542 545 559 96 204 61
3 559 545 543 96 204 61
3 559 543 554 96 204 61
3 554 543 540 96 204 61
3 540 543 514 96 204 61
3 540 514 536 96 204 61
3 536 514 515 96 204 61
3 515 514 513 242 24 142
3 536 515 535 96 204 61
3 535 515 524 96 204 61
3 535 524 549 96 204 61
3 535 549 555 96 204 61
3 555 549 562 96 204 61
3 562 549 563 96 204 61
3 562 563 577 96 204 61
3 577 563 572 96 204 61
3 572 563 566 96 204 61
3 572 566 579 96 204 61
3 579 566 568 96 204 61
3 568 566 542 96 204 61
3 568 542 559 96 204 61
3 568 559 573 96 204 61
3 573 559 556 96 204 61
3 556 559 554 96 204 61
3 556 554 540 96 204 61
3 556 540 553 96 204 61
3 553 540 555 96 204 61
3 555 540 536 96 204 61
3 555 536 535 96 204 61
3 553 555 583 96 204 61
3 583 555 562 96 204 61
3 583 562 577 96 204 61
3 583 577 580 96 204 61
3 580 577 572 56 48 242
3 580 572 586 56 48 242
3 586 572 579 56 48 242
3 586 579 596 56 48 242
3 596 579 582 56 48 242
3 582 579 584 56 48 242
3 584 579 573 96 204 61
3 573 579 568 96 204 61
3 584 573 575 96 204 61
3 575 573 553 96 204 61
3 553 573 556 96 204 61
3 575 553 583 96 204 61
3 575 583 591 96 204 61
3 591 583 580 56 48 242
3 591 580 588 56 48 242
3 588 580 587 56 48 242
3 587 580 586 56 48 242
3 587 586 592 56 48 242
3 592 586 596 56 48 242
3 592 596 603 56 48 242
3 603 596 601 56 48 242
3 601 596 582 56 48 242
3 601 582 604 56 48 242
3 604 582 676 56 48 242
3 676 582 584 56 48 242
3 676 584 591 56 48 242
3 591 584 575 96 204 61
3 676 591 622 56 48 242
3 622 591 613 56 48 242
3 613 591 588 56 48 242
3 613 588 587 56 48 242
3 613 587 619 56 48 242
3 619 587 612 56 48 242
3 612 587 600 56 48 242
3 600 587 592 56 48 242
3 600 592 603 56 48 242
3 600 603 621 56 48 242
3 621 603 618 56 48 242
3 618 603 607 56 48 242
3 607 603 624 56 48 242
3 624 603 601 56 48 242
3 624 601 675 56 48 242
3 675 601 604 56 48 242
3 675 604 681 56 48 242
3 681 604 680 56 48 242
3 680 604 676 56 48 242
3 680 676 622 56 48 242
3 680 622 677 56 48 242
3 677 622 613 56 48 242
3 677 613 681 56 48 242
3 681 613 619 56 48 242
3 681 619 678 56 48 242
3 678 619 612 56 48 242
3 678 612 682 56 48 242
3 682 612 673 56 48 242
3 673 612 600 56 48 242
3 673 600 621 56 48 242
3 673 621 620 56 48 242
3 620 621 618 56 48 242
3 620 618 674 56 48 242
3 674 618 623 56 48 242
3 623 618 607 56 48 242
3 623 607 624 56 48 242
3 623 624 674 56 48 242
3 674 624 679 56 48 242
3 679 624 675 56 48 242
3 679 675 678 56 48 242
3 678 675 681 56 48 242
3 679 678 682 56 48 242
3 679 682 620 56 48 242
3 620 682 673 56 48 242
3 679 620 674 56 48 242
3 677 681 680 56 48 242
3 451 444 477 242 24 142
3 451 477 429 242 24 142
3 429 477 439 242 24 142
3 439 477 480 242 24 142
3 480 477 499 242 24 142
3 439 480 435 242 24 142
3 439 435 420 242 24 142
3 439 420 413 242 24 142
3 413 420 377 40 176 204
3 413 377 398 242 24 142
3 398 377 371 40 176 204
3 371 377 362 40 176 204
3 362 377 363 40 176 204
3 362 363 340 40 176 204
3 340 363 334 40 176 204
3 334 363 350 40 176 204
3 334 350 339 40 176 204
3 334 339 322 40 176 204
3 322 339 318 40 176 204
3 322 318 310 40 176 204
3 310 318 330 40 176 204
3 310 330 308 40 176 204
3 308 330 321 40 176 204
3 308 321 316 40 176 204
3 308 316 294 40 176 204
3 294 316 299 40 176 204
3 294 299 270 40 176 204
3 270 299 283 40 176 204
3 283 299 279 40 176 204
3 283 279 275 40 176 204
3 275 279 287 40 176 204
3 275 287 269 40 176 204
3 269 287 285 40 176 204
3 285 287 297 40 176 204
3 297 287 315 40 176 204
3 297 315 314 40 176 204
3 297 314 309 40 176 204
3 309 314 313 40 176 204
3 309 313 305 40 176 204
3 305 313 307 40 176 204
3 307 313 328 40 176 204
3 307 328 320 40 176 204
3 320 328 327 40 176 204
3 320 327 324 40 176 204
3 324 327 336 40 176 204
3 336 327 341 40 176 204
3 336 341 343 40 176 204
3 336 343 333 40 176 204
3 333 343 362 40 176 204
3 333 362 340 40 176 204
3 333 340 337 40 176 204
3 337 340 334 40 176 204
3 337 334 322 40 176 204
3 337 322 319 40 176 204
3 319 322 303 40 176 204
3 303 322 298 40 176 204
3 298 322 310 40 176 204
3 298 310 271 40 176 204
3 271 310 294 40 176 204
3 294 310 308 40 176 204
3 271 294 273 40 176 204
3 273 294 268 40 176 204
3 268 294 270 40 176 204
3 268 270 267 40 176 204
3 267 270 265 40 176 204
3 265 270 283 40 176 204
3 265 283 275 40 176 204
3 265 275 244 40 176 204
3 244 275 185 40 176 204
3 185 275 190 40 176 204
3 190 275 230 40 176 204
3 230 275 269 40 176 204
3 230 269 263 40 176 204
3 263 269 260 40 176 204
3 260 269 285 40 176 204
3 260 285 241 40 176 204
3 241 285 266 40 176 204
3 266 285 280 40 176 204
3 280 285 297 40 176 204
3 280 297 309 40 176 204
3 280 309 302 40 176 204
3 302 309 305 40 176 204
3 302 305 282 40 176 204
3 282 305 290 40 176 204
3 290 305 296 40 176 204
3 296 305 307 40 176 204
3 296 307 301 40 176 204
3 301 307 304 40 176 204
3 304 307 320 40 176 204
3 304 320 324 40 176 204
3 304 324 306 40 176 204
3 306 324 323 40 176 204
3 323 324 336 40 176 204
3 323 336 333 40 176 204
3 323 333 319 40 176 204
3 319 333 337 40 176 204
3 323 319 312 40 176 204
3 312 319 303 40 176 204
3 312 303 292 40 176 204
3 292 303 281 40 176 204
3 281 303 298 40 176 204
3 281 298 271 40 176 204
3 281 271 252 40 176 204
3 252 271 210 40 176 204
3 210 271 273 40 176 204
3 210 273 640 40 176 204
3 640 273 268 40 176 204
3 640 268 261 40 176 204
3 261 268 267 40 176 204
3 261 267 248 40 176 204
3 248 267 240 40 176 204
3 240 267 265 40 176 204
3 240 265 244 40 176 204
3 240 244 185 40 176 204
3 240 185 163 40 176 204
3 163 185 636 40 176 204
3 636 185 179 40 176 204
3 179 185 190 40 176 204
3 179 190 165 40 176 204
3 165 190 226 242 221 72
3 226 190 230 242 221 72
3 226 230 238 242 221 72
3 238 230 263 242 221 72
3 238 263 262 242 221 72
3 262 263 257 242 221 72
3 257 263 260 242 221 72
3 257 260 229 242 221 72
3 229 260 241 40 176 204
3 229 241 253 40 176 204
3 253 241 266 40 176 204
3 253 266 215 40 176 204
3 215 266 284 40 176 204
3 284 266 277 40 176 204
3 277 266 280 40 176 204
3 277 280 302 40 176 204
3 277 302 282 40 176 204
3 277 282 284 40 176 204
3 284 282 274 40 176 204
3 274 282 290 40 176 204
3 274 290 288 40 176 204
3 288 290 296 40 176 204
3 288 296 301 40 176 204
3 288 301 295 40 176 204
3 295 301 304 40 176 204
3 295 304 291 40 176 204
3 291 304 289 40 176 204
3 289 304 306 40 176 204
3 289 306 293 40 176 204
3 293 306 300 40 176 204
3 300 306 311 40 176 204
3 311 306 323 40 176 204
3 311 323 312 40 176 204
3 311 312 300 40 176 204
3 300 312 292 40 176 204
3 300 292 256 40 176 204
3 256 292 264 40 176 204
3 264 292 255 40 176 204
3 255 292 252 40 176 204
3 252 292 281 40 176 204
3 255 252 220 40 176 204
3 220 252 210 40 176 204
3 220 210 180 40 176 204
3 180 210 172 40 176 204
3 172 210 640 40 176 204
3 172 640 261 40 176 204
3 172 261 248 40 176 204
3 172 248 166 40 176 204
3 166 248 240 40 176 204
3 166 240 170 40 176 204
3 170 240 163 40 176 204
3 170 163 120 40 176 204
3 120 163 171 40 176 204
3 171 163 151 40 176 204
3 151 163 636 40 176 204
3 151 636 179 40 176 204
3 151 179 165 40 176 204
3 151 165 156 242 221 72
3 156 165 183 242 221 72
3 183 165 178 242 221 72
3 178 165 226 242 221 72
3 178 226 197 242 221 72
3 197 226 238 242 221 72
3 197 238 237 242 221 72
3 237 238 254 242 221 72
3 254 238 262 242 221 72
3 254 262 641 242 221 72
3 641 262 258 242 221 72
3 258 262 257 242 221 72
3 258 257 229 242 221 72
3 258 229 217 242 221 72
3 217 229 200 242 221 72
3 200 229 196 242 221 72
3 196 229 199 242 221 72
3 199 229 253 40 176 204
3 199 253 215 40 176 204
3 199 215 637 40 176 204
3 637 215 194 40 176 204
3 194 215 284 40 176 204
3 194 284 222 40 176 204
3 222 284 274 40 176 204
3 222 274 272 40 176 204
3 272 274 288 40 176 204
3 272 288 295 40 176 204
3 272 295 276 40 176 204
3 276 295 278 40 176 204
3 278 295 291 40 176 204
3 278 291 289 40 176 204
3 278 289 286 40 176 204
3 286 289 293 40 176 204
3 286 293 300 40 176 204
3 286 300 256 40 176 204
3 286 256 245 40 176 204
3 245 256 249 40 176 204
3 249 256 264 40 176 204
3 249 264 255 40 176 204
3 249 255 219 40 176 204
3 219 255 243 40 176 204
3 243 255 220 40 176 204
3 243 220 207 242 221 72
3 207 220 205 242 221 72
3 205 220 180 40 176 204
3 205 180 168 40 176 204
3 168 180 153 40 176 204
3 153 180 660 40 176 204
3 660 180 141 40 176 204
3 141 180 150 40 176 204
3 150 180 172 40 176 204
3 150 172 147 40 176 204
3 147 172 166 40 176 204
3 147 166 661 40 176 204
3 661 166 170 40 176 204
3 661 170 658 204 61 61
3 658 170 120 204 61 61
3 658 120 634 204 61 61
3 634 120 113 204 61 61
3 113 120 145 204 61 61
3 145 120 171 40 176 204
3 145 171 194 40 176 204
3 194 171 637 40 176 204
3 637 171 151 40 176 204
3 637 151 156 40 176 204
3 637 156 196 242 221 72
3 196 156 189 242 221 72
3 189 156 183 242 221 72
3 189 183 192 242 221 72
3 192 183 187 242 221 72
3 187 183 178 242 221 72
3 187 178 197 242 221 72
3 187 197 202 242 221 72
3 202 197 225 242 221 72
3 225 197 237 242 221 72
3 225 237 247 242 221 72
3 247 237 254 242 221 72
3 247 254 641 242 221 72
3 247 641 251 242 221 72
3 251 641 259 242 221 72
3 259 641 258 242 221 72
3 259 258 239 242 221 72
3 239 258 217 242 221 72
3 239 217 204 242 221 72
3 204 217 200 242 221 72
3 204 200 201 242 221 72
3 201 200 192 242 221 72
3 192 200 189 242 221 72
3 189 200 196 242 221 72
3 201 192 184 242 221 72
3 184 192 202 242 221 72
3 202 192 187 242 221 72
3 184 202 173 242 221 72
3 173 202 225 242 221 72
3 173 225 224 242 221 72
3 224 225 247 242 221 72
3 224 247 246 242 221 72
3 246 247 251 242 221 72
3 246 251 236 242 221 72
3 236 251 242 242 221 72
3 242 251 259 242 221 72
3 242 259 239 242 221 72
3 242 239 223 242 221 72
3 223 239 204 242 221 72
3 223 204 201 242 221 72
3 223 201 133 127 20 204
3 133 201 137 127 20 204
3 137 201 188 127 20 204
3 188 201 184 127 20 204
3 188 184 173 127 20 204
3 188 173 181 127 20 204
3 181 173 208 127 20 204
3 208 173 224 127 20 204
3 208 224 246 127 20 204
3 208 246 213 127 20 204
3 213 246 236 127 20 204
3 213 236 242 127 20 204
3 213 242 223 127 20 204
3 213 223 167 127 20 204
3 167 223 133 127 20 204
3 167 133 105 127 20 204
3 105 133 87 127 20 204
3 87 133 137 127 20 204
3 87 137 111 127 20 204
3 111 137 188 127 20 204
3 111 188 102 127 20 204
3 102 188 181 127 20 204
3 102 181 136 127 20 204
3 136 181 208 127 20 204
3 136 208 213 127 20 204
3 136 213 115 127 20 204
3 115 213 167 127 20 204
3 115 167 105 127 20 204
3 115 105 76 127 20 204
3 76 105 87 127 20 204
3 76 87 78 127 20 204
3 78 87 75 127 20 204
3 75 87 111 127 20 204
3 75 111 79 127 20 204
3 79 111 102 127 20 204
3 79 102 94 127 20 204
3 94 102 136 127 20 204
3 94 136 115 127 20 204
3 94 115 76 127 20 204
3 94 76 73 127 20 204
3 73 76 63 48 242 105
3 63 76 53 48 242 105
3 53 76 78 48 242 105
3 53 78 36 48 242 105
3 36 78 75 48 242 105
3 36 75 59 48 242 105
3 59 75 77 48 242 105
3 77 75 79 48 242 105
3 77 79 73 48 242 105
3 73 79 94 127 20 204
3 77 73 28 48 242 105
3 28 73 47 48 242 105
3 47 73 63 48 242 105
3 47 63 40 48 242 105
3 40 63 52 48 242 105
3 52 63 53 48 242 105
3 52 53 633 48 242 105
3 633 53 36 48 242 105
3 633 36 27 48 242 105
3 27 36 38 48 242 105
3 38 36 59 48 242 105
3 38 59 46 48 242 105
3 46 59 41 48 242 105
3 41 59 77 48 242 105
3 41 77 44 48 242 105
3 44 77 28 48 242 105
3 44 28 29 48 242 105
3 29 28 22 48 242 105
3 22 28 37 48 242 105
3 37 28 47 48 242 105
3 37 47 633 48 242 105
3 633 47 40 48 242 105
3 633 40 52 48 242 105
3 37 633 27 48 242 105
3 37 27 22 48 242 105
3 22 27 29 48 242 105
3 29 27 38 48 242 105
3 29 38 30 48 242 105
3 30 38 644 48 242 105
3 644 38 46 48 242 105
3 644 46 32 48 242 105
3 32 46 41 48 242 105
3 32 41 30 48 242 105
3 30 41 44 48 242 105
3 30 44 29 48 242 105
3 32 30 644 48 242 105
3 637 196 199 40 176 204
3 145 194 177 40 176 204
3 177 194 234 40 176 204
3 234 194 222 40 176 204
3 234 222 235 40 176 204
3 235 222 272 40 176 204
3 235 272 638 40 176 204
3 638 272 276 40 176 204
3 638 276 639 40 176 204
3 639 276 221 40 176 204
3 221 276 250 40 176 204
3 250 276 278 40 176 204
3 250 278 245 40 176 204
3 245 278 286 40 176 204
3 250 245 232 40 176 204
3 232 245 249 40 176 204
3 232 249 195 40 176 204
3 195 249 219 40 176 204
3 195 219 182 242 221 72
3 182 219 214 242 221 72
3 214 219 227 242 221 72
3 227 219 228 242 221 72
3 228 219 243 242 221 72
3 228 243 231 242 221 72
3 231 243 207 242 221 72
3 231 207 211 242 221 72
3 211 207 203 242 221 72
3 203 207 168 242 221 72
3 168 207 205 242 221 72
3 203 168 157 242 221 72
3 157 168 153 242 221 72
3 157 153 139 242 221 72
3 139 153 660 242 221 72
3 139 660 135 40 176 204
3 135 660 141 40 176 204
3 135 141 140 40 176 204
3 140 141 155 40 176 204
3 155 141 148 40 176 204
3 148 141 150 40 176 204
3 148 150 657 40 176 204
3 657 150 147 40 176 204
3 657 147 661 204 61 61
3 657 661 131 204 61 61
3 131 661 129 204 61 61
3 129 661 658 204 61 61
3 129 658 634 204 61 61
3 129 634 123 204 61 61
3 123 634 104 204 61 61
3 104 634 649 204 61 61
3 649 634 113 204 61 61
3 649 113 101 204 61 61
3 101 113 103 204 61 61
3 103 113 109 204 61 61
3 109 113 162 204 61 61
3 162 113 145 204 61 61
3 162 145 177 40 176 204
3 162 177 160 40 176 204
3 160 177 234 40 176 204
3 160 234 221 40 176 204
3 221 234 639 40 176 204
3 639 234 235 40 176 204
3 639 235 638 40 176 204
3 160 221 169 40 176 204
3 169 221 155 40 176 204
3 155 221 232 40 176 204
3 232 221 250 40 176 204
3 155 232 182 40 176 204
3 182 232 195 40 176 204
3 155 182 140 40 176 204
3 140 182 146 242 221 72
3 146 182 175 242 221 72
3 175 182 176 242 221 72
3 176 182 214 242 221 72
3 176 214 193 242 221 72
3 193 214 227 242 221 72
3 193 227 209 242 221 72
3 209 227 233 242 221 72
3 233 227 662 242 221 72
3 662 227 228 242 221 72
3 662 228 231 242 221 72
3 662 231 218 242 221 72
3 218 231 211 242 221 72
3 218 211 198 242 221 72
3 198 211 203 242 221 72
3 198 203 164 242 221 72
3 164 203 157 242 221 72
3 164 157 635 242 221 72
3 635 157 146 242 221 72
3 146 157 139 242 221 72
3 146 139 135 242 221 72
3 146 135 140 242 221 72
3 635 146 175 242 221 72
3 635 175 186 242 221 72
3 186 175 193 242 221 72
3 193 175 176 242 221 72
3 186 193 191 242 221 72
3 191 193 209 242 221 72
3 191 209 206 242 221 72
3 206 209 216 242 221 72
3 216 209 233 242 221 72
3 216 233 218 242 221 72
3 218 233 662 242 221 72
3 216 218 212 242 221 72
3 212 218 154 242 221 72
3 154 218 198 242 221 72
3 154 198 149 242 221 72
3 149 198 152 242 221 72
3 152 198 161 242 221 72
3 161 198 164 242 221 72
3 161 164 635 242 221 72
3 161 635 186 242 221 72
3 161 186 174 242 221 72
3 174 186 191 242 221 72
3 174 191 119 127 20 204
3 119 191 159 127 20 204
3 159 191 206 127 20 204
3 159 206 158 127 20 204
3 158 206 663 127 20 204
3 663 206 216 242 221 72
3 663 216 212 242 221 72
3 663 212 158 127 20 204
3 158 212 132 127 20 204
3 132 212 154 127 20 204
3 132 154 130 127 20 204
3 130 154 149 127 20 204
3 130 149 110 127 20 204
3 110 149 116 127 20 204
3 116 149 152 127 20 204
3 116 152 127 127 20 204
3 127 152 174 127 20 204
3 174 152 161 242 221 72
3 127 174 119 127 20 204
3 127 119 72 127 20 204
3 72 119 159 127 20 204
3 72 159 122 127 20 204
3 122 159 158 127 20 204
3 122 158 132 127 20 204
3 122 132 117 127 20 204
3 117 132 130 127 20 204
3 117 130 110 127 20 204
3 117 110 48 127 20 204
3 48 110 68 127 20 204
3 68 110 116 127 20 204
3 68 116 93 127 20 204
3 93 116 127 127 20 204
3 93 127 61 127 20 204
3 61 127 72 127 20 204
3 61 72 39 127 20 204
3 39 72 54 127 20 204
3 54 72 95 127 20 204
3 95 72 117 127 20 204
3 117 72 122 127 20 204
3 95 117 48 127 20 204
3 95 48 54 127 20 204
3 54 48 25 48 242 105
3 25 48 42 48 242 105
3 42 48 68 127 20 204
3 42 68 35 127 20 204
3 35 68 93 127 20 204
3 35 93 45 127 20 204
3 45 93 61 127 20 204
3 45 61 39 127 20 204
3 45 39 50 48 242 105
3 50 39 20 48 242 105
3 20 39 23 48 242 105
3 23 39 54 127 20 204
3 23 54 25 48 242 105
3 23 25 17 48 242 105
3 17 25 8 48 242 105
3 8 25 15 48 242 105
3 15 25 42 48 242 105
3 15 42 35 48 242 105
3 15 35 12 48 242 105
3 12 35 14 48 242 105
3 14 35 26 48 242 105
3 26 35 31 48 242 105
3 31 35 45 48 242 105
3 31 45 50 48 242 105
3 31 50 18 48 242 105
3 18 50 24 48 242 105
3 24 50 20 48 242 105
3 24 20 16 48 242 105
3 16 20 23 48 242 105
3 16 23 17 48 242 105
3 16 17 11 48 242 105
3 11 17 632 48 242 105
3 632 17 8 48 242 105
3 632 8 7 48 242 105
3 7 8 11 48 242 105
3 11 8 9 48 242 105
3 9 8 10 48 242 105
3 10 8 15 48 242 105
3 10 15 12 48 242 105
3 10 12 4 48 242 105
3 4 12 631 48 242 105
3 631 12 2 48 242 105
3 2 12 14 48 242 105
3 2 14 13 48 242 105
3 13 14 24 48 242 105
3 24 14 26 48 242 105
3 24 26 18 48 242 105
3 18 26 21 48 242 105
3 21 26 31 48 242 105
3 21 31 19 48 242 105
3 19 31 18 48 242 105
3 19 18 21 48 242 105
3 13 24 16 48 242 105
3 13 16 1 48 242 105
3 1 16 6 48 242 105
3 6 16 5 48 242 105
3 5 16 10 48 242 105
3 10 16 9 48 242 105
3 9 16 11 48 242 105
3 5 10 4 48 242 105
3 5 4 3 48 242 105
3 3 4 1 48 242 105
3 1 4 0 48 242 105
3 0 4 631 48 242 105
3 0 631 2 48 242 105
3 0 2 13 48 242 105
3 0 13 1 48 242 105
3 3 1 6 48 242 105
3 3 6 5 48 242 105
3 7 11 632 48 242 105
3 169 155 148 40 176 204
3 169 148 144 40 176 204
3 144 148 128 204 61 61
3 128 148 657 204 61 61
3 128 657 114 204 61 61
3 114 657 659 204 61 61
3 659 657 131 204 61 61
3 659 131 651 204 61 61
3 651 131 125 204 61 61
3 125 131 129 204 61 61
3 125 129 653 204 61 61
3 653 129 121 204 61 61
3 121 129 123 204 61 61
3 121 123 92 204 61 61
3 92 123 84 204 61 61
3 84 123 104 204 61 61
3 84 104 80 204 61 61
3 80 104 650 204 61 61
3 650 104 649 204 61 61
3 650 649 101 204 61 61
3 650 101 88 204 61 61
3 88 101 103 204 61 61
3 88 103 98 204 61 61
3 98 103 97 204 61 61
3 97 103 109 204 61 61
3 97 109 162 204 61 61
3 97 162 143 204 61 61
3 143 162 160 204 61 61
3 143 160 144 204 61 61
3 144 160 169 40 176 204
3 143 144 126 204 61 61
3 126 144 128 204 61 61
3 126 128 108 204 61 61
3 108 128 114 204 61 61
3 108 114 106 204 61 61
3 106 114 107 204 61 61
3 107 114 659 204 61 61
3 107 659 651 204 61 61
3 107 651 652 204 61 61
3 652 651 645 204 61 61
3 645 651 112 204 61 61
3 112 651 125 204 61 61
3 112 125 655 204 61 61
3 655 125 653 204 61 61
3 655 653 142 204 61 61
3 142 653 654 204 61 61
3 654 653 134 204 61 61
3 134 653 121 204 61 61
3 134 121 655 204 61 61
3 655 121 100 204 61 61
3 100 121 92 204 61 61
3 100 92 89 204 61 61
3 89 92 60 204 61 61
3 60 92 84 204 61 61
3 60 84 56 204 61 61
3 56 84 74 204 61 61
3 74 84 80 204 61 61
3 74 80 67 204 61 61
3 67 80 88 204 61 61
3 88 80 650 204 61 61
3 67 88 70 204 61 61
3 70 88 98 204 61 61
3 70 98 82 204 61 61
3 82 98 85 204 61 61
3 85 98 97 204 61 61
3 85 97 90 204 61 61
3 90 97 99 204 61 61
3 99 97 118 204 61 61
3 118 97 143 204 61 61
3 118 143 126 204 61 61
3 118 126 108 204 61 61
3 118 108 99 204 61 61
3 99 108 96 204 61 61
3 96 108 91 204 61 61
3 91 108 106 204 61 61
3 91 106 107 204 61 61
3 91 107 652 204 61 61
3 91 652 83 204 61 61
3 83 652 645 204 61 61
3 83 645 648 204 61 61
3 648 645 86 204 61 61
3 86 645 112 204 61 61
3 86 112 89 204 61 61
3 89 112 100 204 61 61
3 100 112 655 204 61 61
3 86 89 57 204 61 61
3 57 89 60 204 61 61
3 57 60 56 204 61 61
3 57 56 646 204 61 61
3 646 56 34 204 61 61
3 34 56 647 204 61 61
3 647 56 74 204 61 61
3 647 74 67 204 61 61
3 647 67 65 204 61 61
3 65 67 70 204 61 61
3 65 70 55 204 61 61
3 55 70 82 204 61 61
3 55 82 71 204 61 61
3 71 82 90 204 61 61
3 90 82 85 204 61 61
3 71 90 81 204 61 61
3 81 90 99 204 61 61
3 81 99 96 204 61 61
3 81 96 69 204 61 61
3 69 96 91 204 61 61
3 69 91 66 204 61 61
3 66 91 83 204 61 61
3 66 83 64 204 61 61
3 64 83 648 204 61 61
3 64 648 646 204 61 61
3 646 648 57 204 61 61
3 57 648 86 204 61 61
3 64 646 33 204 61 61
3 33 646 34 204 61 61
3 33 34 43 204 61 61
3 43 34 647 204 61 61
3 43 647 65 204 61 61
3 43 65 51 204 61 61
3 51 65 55 204 61 61
3 51 55 49 204 61 61
3 49 55 58 204 61 61
3 58 55 71 204 61 61
3 58 71 81 204 61 61
3 58 81 69 204 61 61
3 58 69 62 204 61 61
3 62 69 66 204 61 61
3 62 66 33 204 61 61
3 33 66 64 204 61 61
3 62 33 49 204 61 61
3 49 33 43 204 61 61
3 49 43 51 204 61 61
3 62 49 58 204 61 61
3 134 655 124 204 61 61
3 124 655 656 204 61 61
3 656 655 142 204 61 61
3 656 142 138 204 61 61
3 138 142 654 204 61 61
3 138 654 134 204 61 61
3 138 134 124 204 61 61
3 138 124 656 204 61 61
3 413 398 402 242 24 142
3 413 402 429 242 24 142
3 429 402 451 242 24 142
3 413 429 439 242 24 142
