ply
format ascii 1.0
element vertex 752
property float x
property float y
property float z
element face 1500
property list uchar int vertex_indices
property uchar red
property uchar green
property uchar blue
end_header
0.295671 0.356512 0.061639
-0.003097 -0.099838 0.681827
-0.063943 0.038598 0.830263
0.050404 -0.038042 0.822635
0.013277 0.084917 0.810926
-0.093647 0.025182 0.805863
0.077999 -0.0112 0.803947
-0.026867 -0.081844 0.792005
-0.095217 -0.03067 0.745034
-0.098408 0.07243 0.738901
-0.060926 -0.07235 0.742606
0.086708 -0.02343 0.71513
0.078374 -0.050774 0.717017
-0.061303 0.103216 0.708668
0.082729 0.016769 0.735205
0.071404 0.024325 0.701181
-0.113448 0.005228 0.703665
0.07609 -0.086794 0.674361
-0.109912 -0.010462 0.642814
0.08611 -0.034948 0.670563
-0.108631 0.034869 0.627082
0.066563 0.032748 0.600401
-0.059997 -0.059638 0.635453
0.070674 -0.06242 0.610605
-0.10267 -0.03725 0.579463
0.032845 -0.020285 0.54838
-0.086349 -0.028345 0.530542
-0.091029 0.04839 0.527336
0.154813 0.067909 0.5198
-0.195833 -0.008774 0.496299
0.165205 0.09723 0.486475
0.169913 0.015444 0.487553
0.139593 -0.022348 0.472991
0.108243 0.128009 0.425199
-0.182978 0.034731 0.447087
-0.199371 -0.054938 0.429179
-0.199829 -0.03939 0.393162
0.117002 -0.060109 0.443276
0.182931 0.063392 0.461066
0.134322 0.043731 0.416569
-0.046732 -0.113137 0.42693
0.142018 -0.000572 0.417202
0.138196 -0.031054 0.434491
0.132979 0.186931 0.362998
0.120955 0.150026 0.369878
0.153239 0.071908 0.400221
-0.187345 -0.006019 0.405161
-0.152748 0.005121 0.380075
0.16885 0.176965 0.401917
0.090324 -0.15246 0.377118
-0.132471 -0.098117 0.371267
-0.10462 -0.144592 0.375728
-0.120091 0.060061 0.387923
-0.189747 -0.035779 0.354294
0.137895 0.12803 0.347952
0.118786 -0.114572 0.367257
0.138335 -0.013375 0.353459
0.118021 -0.089921 0.349357
-0.12103 -0.080773 0.344755
0.136872 0.178133 0.331254
-0.127935 0.006938 0.322255
-0.136377 -0.105463 0.343419
-0.203341 -0.074113 0.352417
-0.10854 0.029735 0.304773
-0.089912 -0.129613 0.325068
-0.203048 -0.071362 0.297137
-0.127894 -0.075505 0.325345
0.203719 0.210979 0.33975
0.162927 0.146444 0.323438
0.149507 0.228573 0.312694
-0.212557 -0.122693 0.273514
-0.115683 -0.04507 0.242049
-0.137055 -0.100463 0.293759
0.177012 0.241256 0.244342
0.159572 0.211833 0.270949
-0.2032 -0.086314 0.265686
-0.100524 0.011546 0.24456
-0.145792 -0.107786 0.255353
0.079943 -0.122055 0.247865
0.117956 -0.031304 0.258568
0.245344 0.230965 0.256696
0.244456 0.213656 0.232365
-0.092917 0.007874 0.205401
0.19965 0.247699 0.205222
-0.110151 -0.023257 0.224281
0.237092 0.210447 0.202589
-0.146854 -0.136673 0.230332
0.256641 0.227084 0.206743
-0.221199 -0.112373 0.233214
-0.235253 -0.14858 0.161504
0.105782 -0.085414 0.224309
-0.218847 -0.119182 0.18519
-0.111409 -0.020678 0.15078
-0.234744 -0.161597 0.187404
-0.16638 -0.184572 0.191078
-0.103693 0.006519 0.153707
0.2461 0.230999 0.159229
0.108966 -0.087583 0.164205
-0.23749 -0.190906 0.142198
0.08516 -0.131 0.156408
-0.087564 -0.06827 0.134851
0.048824 0.024043 0.106396
-0.179758 -0.194049 0.136584
0.30644 0.263298 0.108992
0.09645 -0.006368 0.130104
-0.23579 -0.180429 0.113493
0.099209 -0.136923 0.092199
-0.212992 -0.23926 0.107354
0.316023 0.321067 0.099724
0.26679 0.305822 0.08354
-0.114953 -0.007241 0.087459
0.147531 -0.036675 0.081435
0.263236 0.317953 0.065786
-0.200146 -0.220413 0.079985
-0.273746 -0.308743 0.067389
0.330512 0.323801 0.054521
-0.121453 0.009746 0.020794
-0.207423 -0.250494 0.073582
0.05775 0.031241 0.0594
0.155988 -0.047322 0.031514
-0.299376 -0.287399 0.048018
-0.309614 -0.330344 0.044513
-0.229005 -0.306937 0.033483
0.154854 0.004322 -0.004187
0.147039 -0.089067 0.028351
0.089269 0.055378 -0.017419
-0.149816 0.034113 -0.067764
0.063746 0.041034 -0.023401
0.04802 0.01723 -0.032102
0.167525 -0.031437 -0.038962
0.030048 -0.105916 -0.027749
0.141796 -0.111509 -0.015819
-0.017149 -0.074936 -0.052777
0.018667 -0.031134 -0.05939
-0.151447 -0.01515 -0.044473
0.13705 0.026795 -0.031025
0.011289 -0.001199 -0.069599
-0.163562 -0.051166 -0.09775
0.168653 -0.074565 -0.057529
0.034925 -0.033541 -0.078601
0.035719 -0.10341 -0.095387
-0.083149 -0.080475 -0.103739
0.029146 -0.077153 -0.066684
-0.009676 0.035119 -0.096662
0.027588 -0.045705 -0.136818
-0.023144 -0.042398 -0.082908
-0.031622 0.04717 -0.122179
-0.176013 -0.014376 -0.105189
-0.016608 -0.000902 -0.11137
-0.194846 -0.040754 -0.184434
0.050434 -0.005532 -0.149447
-0.031535 -0.028625 -0.141178
-0.037845 0.010953 -0.191113
0.050736 -0.105768 -0.23103
0.173353 -0.028861 -0.200933
-0.15648 0.034211 -0.227257
0.173043 -0.065367 -0.177928
-0.066759 0.032692 -0.236517
0.155425 -0.104101 -0.155002
-0.188351 -0.004924 -0.261915
0.034969 -0.047155 -0.211717
0.131011 -0.10924 -0.246674
-0.054361 -0.029081 -0.227091
0.050863 -0.006063 -0.220451
0.035659 -0.073149 -0.220302
-0.057112 0.012623 -0.237894
-0.208492 -0.068719 -0.272922
0.166267 -0.04311 -0.276303
0.158821 0.00035 -0.261156
-0.086894 -0.05893 -0.29982
0.157176 -0.078162 -0.263288
-0.210539 -0.096281 -0.339389
-0.209073 -0.039382 -0.340807
0.145354 0.012292 -0.315329
0.158441 -0.01294 -0.336946
-0.088379 -0.033795 -0.311705
0.15869 -0.048921 -0.334404
-0.218087 -0.064673 -0.346533
0.320412 0.288866 0.095521
0.335057 0.301504 0.069201
0.044306 -0.023412 -0.318465
0.327371 0.345091 0.080707
0.303222 0.354185 0.084405
0.298266 0.290827 0.115331
-0.113156 -0.086356 -0.366364
0.30522 0.331932 0.063793
0.308412 0.298807 0.062216
0.057818 0.002704 -0.322008
-0.121586 -0.103144 -0.350905
0.2762 0.236434 0.148568
0.273915 0.250849 0.116308
0.299379 0.273165 0.079856
0.048755 -0.016492 -0.370472
-0.112235 -0.053808 -0.368527
-0.142771 -0.120587 -0.392421
0.297265 0.257686 0.132959
-0.20836 -0.036029 -0.374574
0.284465 0.345291 0.081026
0.280074 0.283074 0.073356
0.266943 0.348658 0.053353
0.271203 0.259487 0.177305
0.149204 -0.045915 -0.395314
-0.233455 -0.09953 -0.426163
0.277074 0.282892 0.118107
0.260232 0.269258 0.107674
0.245928 0.267614 0.14179
-0.230155 -0.063998 -0.454616
0.252558 0.257876 0.213743
0.154414 -0.018465 -0.393288
0.261444 0.270932 0.176001
0.218373 0.192583 0.245804
0.214086 0.206712 0.208113
0.225675 0.266204 0.183596
0.066939 0.023557 -0.425573
-0.127336 -0.078429 -0.423395
0.22618 0.245466 0.164449
0.229229 0.263673 0.244622
0.231401 0.248814 0.270536
0.206966 0.193581 0.326582
0.190929 0.217854 0.218982
0.203701 0.164863 0.360814
0.19739 0.162717 0.332684
0.211091 0.261444 0.268308
0.216937 0.266809 0.228468
0.19023 0.175615 0.382917
0.150728 0.010583 -0.433689
0.184713 0.110826 0.42891
0.190809 0.230343 0.336437
-0.128731 -0.064126 -0.462761
-0.142098 -0.111722 -0.43836
0.181968 0.118551 0.357541
0.166355 0.024571 0.520652
0.183891 0.172724 0.298042
0.184258 0.190014 0.249268
0.067242 -0.036519 -0.488963
0.184002 0.25589 0.283439
0.159288 -0.014382 -0.45735
0.147197 -0.041849 -0.458764
-0.123294 -0.062311 -0.49498
0.173952 0.136941 0.432414
0.158116 -0.100569 -0.085118
0.172022 0.064502 -0.646328
0.177018 0.087157 0.402176
0.134266 0.027198 0.533609
0.157198 0.003076 -0.192556
0.169995 -0.042801 -0.103613
0.171943 0.053103 -0.744755
0.169193 0.232953 0.338134
0.158428 0.016345 0.460513
0.150786 0.177313 0.304964
0.159116 -0.013918 -0.061017
0.142219 0.074642 -0.907942
0.161381 0.060572 -0.563274
-0.091341 -0.018477 -0.508946
0.139411 -0.030317 -0.628014
0.160417 0.015647 -0.788
0.065515 -0.001299 -0.498365
0.15027 0.078024 -0.665495
0.139684 -0.006889 -0.751667
0.130713 0.001289 -0.807305
0.152523 0.197363 0.378796
0.133589 -0.125605 -0.127148
0.144176 0.147488 0.446926
0.15205 0.033758 -0.486549
0.146018 0.041482 -0.988265
0.137424 -0.076906 -0.339846
0.142265 0.012841 -0.384938
0.12253 -0.06331 -0.427931
-0.101633 0.060323 -0.509891
0.114524 -0.043925 -0.55223
0.125659 0.054953 -0.515622
-0.1733 0.040282 -0.520352
-0.174248 0.033813 -0.562525
0.133709 -0.012527 -0.971265
0.154145 -0.034908 -0.519281
0.081197 -0.026227 -0.546136
0.111521 -0.007175 -0.746349
0.14567 0.068877 -0.870227
0.127485 -0.070588 0.303916
0.119454 -0.11204 0.109293
0.122581 0.101859 0.497563
0.130386 0.007284 0.068006
0.144753 0.003669 -0.134469
0.136589 -0.072792 0.108108
0.115079 -0.096049 -0.324971
0.143558 0.068383 -0.819616
0.146436 0.079413 -0.955964
0.142448 0.067203 -0.987322
0.121673 0.142954 0.438735
0.124923 0.100391 0.385108
0.100922 -0.132171 -0.1713
0.118927 0.028479 -0.375802
0.130942 0.034112 -0.445135
0.107024 -0.060244 -0.498784
0.139189 0.075043 -0.596602
0.11389 0.058747 -0.985798
0.168447 0.016124 -0.506317
0.135593 -0.02374 -0.688607
0.117208 0.004913 -0.847376
0.129768 -0.009943 0.509535
0.106327 -0.060106 0.181988
0.126285 -0.037382 0.125988
0.121082 -0.127682 0.021972
0.102707 -0.134964 -0.032873
0.141753 -0.001008 -0.079921
0.124322 0.015288 -0.132565
0.076318 0.018386 -0.542315
0.120324 -0.07721 0.417692
0.124963 0.067529 -0.868802
0.109677 0.093674 0.415844
0.124214 0.050525 0.388361
0.111963 -0.134028 -0.119426
0.092004 -0.115337 -0.268865
0.089009 -0.078507 -0.392202
0.11723 0.045795 -0.000835
-0.181054 -0.005027 -0.554991
-0.142327 -0.048053 -0.550669
0.093402 -0.053535 0.466182
0.096232 -0.00703 -0.692018
0.107355 0.008057 -0.806129
0.121384 0.075012 -0.958508
0.116503 -0.02118 -0.978129
0.120399 0.075573 0.404578
0.121162 0.009694 0.308024
0.114532 0.037635 -0.03846
0.127418 0.021694 -0.22553
0.122569 0.024188 -0.291756
0.093119 -0.067642 -0.440622
-0.099612 0.097051 -0.548999
0.099354 0.019844 -0.763131
0.089321 -0.036584 -0.920352
0.10743 -0.141991 0.371579
0.094175 0.066653 0.374308
0.107921 0.022805 -0.198321
0.076927 -0.095893 -0.326488
0.085564 0.04801 0.532155
0.144759 -0.036685 -0.572175
0.098657 0.054788 -0.713969
0.08614 -0.01929 0.513466
0.095781 0.098542 0.44425
0.073745 -0.143731 -0.002724
0.086169 -0.137222 -0.078544
0.105001 0.042962 -0.474916
0.098859 -0.02091 -0.635365
0.080721 -0.047536 0.754817
0.088638 -0.118798 0.209377
0.095299 -0.026132 0.205696
0.102912 0.044021 0.036222
0.100845 0.013601 -0.082631
0.097087 0.031111 -0.383868
0.086219 0.0321 -0.505462
0.105381 0.067111 -0.589194
0.082986 -0.015293 0.16534
0.086031 -0.041661 -0.5271
0.096296 -0.113289 0.31349
0.101815 0.078789 0.507483
0.093976 0.080728 0.411039
0.08303 0.028259 0.761326
0.093297 -0.000353 -0.973271
0.076735 0.095697 0.444796
0.09831 0.03899 0.327328
0.075657 -0.146936 0.082433
0.076266 0.038354 0.061287
0.05857 -0.127829 -0.089851
0.095139 0.023084 -0.255565
0.071935 -0.058574 -0.436836
0.056683 0.047482 0.547026
0.183053 0.035654 -0.589678
0.077826 0.010345 -0.077754
0.083345 0.006313 -0.626041
0.080934 -0.006608 -0.911629
0.083332 -0.060177 -0.486902
0.089434 -0.07585 -0.979642
0.057522 -0.082372 0.720288
0.053156 0.091926 0.401763
0.073169 -0.128623 -0.184532
0.078479 0.014762 -0.195059
0.079437 0.019143 -0.307057
0.063381 0.059414 0.766228
0.067402 -0.008326 -0.94833
0.172159 -0.013636 -0.543475
0.063385 -0.050049 -0.929071
0.076186 -0.105912 -0.975824
0.063533 -0.048989 0.805209
0.075755 0.047071 0.697638
0.072435 -0.028179 0.631305
0.065826 0.062046 -0.015866
-0.150389 0.043222 -0.605473
0.085851 0.048316 -0.616158
0.058884 0.02762 0.8106
0.066105 0.040608 0.003232
0.065507 0.064197 0.017399
0.042897 0.060066 0.083649
0.064201 0.016047 0.536323
0.051854 -0.019869 -0.43361
0.051179 -0.080606 -0.310753
0.078626 -0.153741 0.343465
0.037794 0.094197 0.684778
0.061686 0.065441 0.590567
0.09329 -0.104706 0.421087
0.045942 -0.142414 0.105083
-0.059118 0.021904 -0.564077
0.046002 -0.026333 0.522722
0.055264 -0.04525 -0.402709
0.062046 -0.062456 -0.981994
0.046898 -0.146025 0.341835
0.03318 -0.089994 0.758631
0.05649 -0.102667 0.669767
0.05532 -0.126132 0.298836
0.032794 -0.130587 0.261239
0.057298 0.0078 0.230156
0.044796 0.070267 0.527407
0.042187 0.01479 0.563865
0.042269 -0.056372 -0.315956
0.013262 -0.102669 0.700147
0.038735 0.059478 0.340228
0.039659 -0.131714 0.207287
0.052751 -0.004745 -0.072004
0.047886 0.048721 -0.058739
0.038696 -0.074971 -0.946306
0.040589 -0.121542 -0.037129
0.028168 -0.096919 -0.963111
0.042449 -0.101486 0.624545
0.055901 0.070182 0.651076
0.052247 0.016753 0.620732
0.037488 -0.049241 0.496116
0.056306 -0.151389 0.370012
0.080022 0.029748 0.282387
0.02 0.008091 0.836308
0.035482 -0.103448 -0.149476
0.042301 -0.063798 -0.976674
0.030497 -0.024252 0.575594
0.042376 0.098383 0.47195
0.03712 0.100276 0.427869
0.046105 0.086402 -0.003763
0.042483 0.068445 -0.057869
0.041719 0.087381 0.570099
0.03637 0.006427 -0.04712
0.052783 -0.092571 0.606612
0.010156 -0.090709 0.439278
0.027626 -0.122996 0.015442
0.039175 -0.044073 0.593887
0.011663 -0.124091 0.322004
0.064857 -0.005448 0.197311
0.013132 0.088925 0.073548
0.015225 0.032844 -0.080259
-0.019761 -0.046203 0.597264
0.006652 -0.045769 0.568448
0.003244 0.192736 -0.831798
0.183654 0.007068 -0.623828
0.033812 0.008046 0.164623
0.014882 0.264424 -0.785242
0.025005 -0.074453 0.799001
0.00141 0.105259 0.785845
0.032109 0.095933 0.736544
0.009102 0.033694 0.281559
0.183939 0.040278 -0.652334
0.002389 -0.055756 0.825619
0.004525 -0.093362 0.750925
-0.000668 -0.042611 0.509117
-0.002254 -0.114581 0.384246
0.013096 0.029051 0.150541
-0.029421 -0.102793 -0.009967
0.011847 -0.071058 -0.054081
-0.114172 0.105615 -0.653479
0.082373 0.037435 -0.660232
0.004181 0.256441 -0.817174
0.001287 -0.118723 0.355958
-0.041936 -0.114063 0.21116
-0.01503 -0.127449 0.13397
-0.008567 -0.124296 0.053789
0.009245 0.102084 0.009035
-0.002427 -0.033346 -0.062393
-0.029342 -0.081472 0.740699
0.007455 0.108063 0.668644
-0.025145 0.142863 -0.661948
0.097881 0.064881 -0.653984
0.166232 -0.013095 -0.654965
0.004062 0.17255 -0.783621
0.009714 -0.088279 0.616886
-0.024763 0.110744 0.717458
-0.02861 -0.010537 0.835517
0.00569 0.229766 -0.752494
0.001077 0.093996 0.544228
-0.002742 0.080152 0.391984
-0.040484 0.064272 0.343953
-0.005578 0.09797 -0.058992
-0.014039 0.064005 0.831586
0.008393 0.072111 0.5175
-0.035535 -0.070207 0.477024
-0.041551 0.145741 -0.642817
-0.027756 -0.127722 0.348616
-0.035612 0.211065 -0.757223
-0.030182 0.161734 -0.809764
-0.026626 0.244403 -0.810519
-0.02984 -0.04151 0.530233
-0.02371 0.031954 0.175281
0.122502 0.077553 -0.663944
-0.04084 0.075963 -0.092885
-0.043812 0.097507 -0.673804
-0.057796 -0.117066 0.30757
-0.034432 0.143538 -0.753291
-0.006983 0.226019 -0.846841
-0.042563 0.157565 -0.87261
-0.045969 -0.068529 0.709026
-0.015881 0.109221 0.572227
-0.021067 0.026779 0.236363
-0.041524 -0.064805 -0.033506
-0.044822 0.120916 -0.615452
-0.036321 0.124831 -0.718854
-0.027787 0.209789 -0.883008
-0.046089 0.106506 0.592799
-0.014333 0.149926 -0.703581
-0.08141 0.130016 -0.704869
-0.020358 0.07589 0.524795
0.181211 0.020548 -0.68212
-0.03842 -0.057525 0.635612
-0.026116 0.197514 -0.721318
-0.042086 0.227846 -0.872235
-0.042439 -0.062878 0.805994
-0.05906 -0.033157 0.533432
-0.014769 0.085683 0.451982
-0.050842 -0.143661 0.382961
-0.029775 0.074266 0.117476
-0.030927 0.097719 0.06456
-0.023397 0.176013 -0.690653
-0.040619 -0.115542 0.096478
-0.066344 -0.063883 0.663583
-0.074502 -0.058486 0.578942
-0.059696 0.092819 0.41007
-0.08197 -0.051784 -0.004081
-0.086135 -0.065649 -0.051513
-0.059187 0.055347 -0.173659
-0.043432 0.08063 -0.593742
-0.038812 0.090904 -0.642534
-0.053694 0.134542 -0.737376
-0.031338 0.090915 0.811475
-0.049756 0.108525 0.751563
-0.046477 0.102762 0.642889
-0.064096 -0.149885 0.348605
-0.030448 0.107146 -0.042724
-0.057219 -0.054802 -0.186744
-0.061926 0.160864 -0.738575
-0.062433 0.099434 -0.569243
-0.055568 0.169224 -0.676891
-0.093577 -0.05428 0.506766
-0.053537 0.231512 -0.847662
-0.082637 0.078984 0.656177
-0.055061 0.092786 0.539411
-0.050897 0.064052 0.508789
-0.066844 0.038217 0.160601
-0.068231 0.162101 -0.708123
-0.060093 -0.090022 0.050629
-0.066635 0.097625 -0.693474
-0.078924 0.066285 0.804038
-0.065299 0.03658 0.247446
-0.060408 0.029397 0.205015
-0.060219 0.206385 -0.911402
-0.003166 0.160625 -0.761187
0.164551 -0.003351 -0.700369
-0.101543 -0.091561 0.441771
-0.086696 -0.051619 0.624251
-0.066408 0.083842 0.053506
-0.068254 0.136348 -0.613576
-0.081423 0.194274 -0.924609
-0.077782 -0.002234 0.813663
-0.08052 0.085805 0.460045
-0.065948 0.062797 0.125975
-0.077466 -0.078682 -0.165262
0.141971 0.070371 -0.778386
-0.074325 0.038494 -0.517757
-0.079928 -0.055272 0.701753
-0.103215 -0.032638 0.070923
-0.090114 0.051807 0.329977
-0.087448 -0.152836 0.377074
0.014661 0.208053 -0.742607
-0.074318 0.150291 -0.652233
-0.100614 0.044724 0.778895
-0.092247 0.049464 -0.237137
-0.094232 -0.083198 -0.272446
-0.092041 0.103095 -0.686485
0.113532 0.060595 -0.770829
-0.074454 0.055572 -0.649429
-0.098345 0.071234 0.577678
-0.089716 -0.099307 0.250561
-0.123491 -0.091455 -0.130237
0.038238 0.249623 -0.774047
0.013325 0.187921 -0.75602
-0.076391 0.072383 -0.109175
-0.108205 0.05393 -0.649006
-0.103407 0.000956 0.545344
-0.125393 -0.074936 0.469608
-0.110056 0.036573 0.049477
-0.112558 -0.047923 -0.023755
-0.081432 0.002402 -0.58611
-0.115002 -0.005069 0.578027
-0.123293 0.073242 -0.645485
-0.105086 -0.040047 0.126246
-0.103133 -0.061845 0.190676
-0.108168 -0.07684 0.24712
-0.10707 -0.0959 0.316948
-0.112557 -0.023086 0.022917
-0.076342 0.094559 -0.042592
-0.11339 0.042731 0.576487
-0.114455 -0.021256 0.531253
-0.105792 -0.141331 0.346249
-0.126109 -0.079986 0.427396
-0.09316 0.011191 -0.29194
-0.110343 -0.011807 -0.332995
0.031282 0.219539 -0.766858
-0.045986 0.164557 -0.77916
0.132282 0.069235 -0.795669
-0.085775 -0.014294 -0.556655
-0.113032 0.117554 -0.613548
-0.110582 -0.098142 -0.247418
-0.148756 -0.121194 -0.348787
-0.109358 0.023074 -0.482637
-0.107158 0.112117 -0.577919
-0.124263 -0.063106 0.305322
-0.143293 0.057845 0.444684
-0.137594 -0.11061 -0.25638
-0.13412 -0.035558 -0.448408
-0.129641 -0.063364 -0.517353
0.1021 0.036247 -0.789807
-0.137292 0.087424 -0.613178
-0.128756 0.023717 0.525787
-0.111913 0.051986 0.504175
-0.133369 -0.064117 -0.067159
-0.110437 0.069016 -0.095152
-0.126479 -0.101236 -0.194032
-0.046781 0.199545 -0.789733
-0.097464 0.064039 0.032366
-0.117277 0.059959 -0.189343
-0.153375 -0.019148 -0.442188
0.112522 0.052249 -0.830114
-0.129557 0.059839 -0.50345
-0.157828 -0.097847 0.404224
-0.141317 -0.045715 0.333496
-0.169152 -0.120064 0.351432
-0.160945 -0.104162 -0.221191
-0.125502 0.009281 -0.31197
0.044079 0.234011 -0.797977
0.165273 0.053343 -0.783435
-0.153727 -0.009459 -0.581599
-0.124792 0.013927 -0.61331
-0.139294 0.053075 -0.09255
-0.136932 -0.053908 -0.435557
-0.050496 0.17755 -0.812041
-0.155807 0.034508 0.401841
-0.142069 -0.024183 0.360799
-0.150528 -0.134839 0.261085
-0.18229 -0.12 -0.345216
-0.143724 -0.027036 -0.385476
-0.171844 -0.131066 -0.396359
-0.152001 0.076274 -0.554858
0.162415 0.037232 -0.810343
-0.1699 -0.047884 0.52187
-0.170445 -0.14428 0.267232
-0.158929 -0.083785 -0.144548
-0.139735 0.025885 -0.27649
0.039734 0.253177 -0.80523
-0.069665 0.201058 -0.855077
-0.154642 -0.104036 -0.497501
-0.163903 0.034216 -0.489933
-0.152491 -0.074795 0.286505
-0.15527 -0.136407 0.199778
-0.180332 0.010194 0.515609
-0.167699 -0.035634 0.338944
-0.167759 -0.019847 0.534306
-0.165017 -0.16307 0.233349
-0.160839 0.04421 0.474354
-0.18024 -0.063823 0.283709
-0.197794 -0.138196 0.28281
-0.180825 0.00953 -0.171318
-0.186112 -0.076425 -0.191467
-0.175181 -0.017673 -0.368626
-0.193275 -0.178 0.2242
-0.19076 -0.030693 0.509908
-0.172208 0.005701 -0.290839
-0.18296 -0.136545 -0.465513
-0.172166 -0.036549 -0.554056
-0.182062 -0.074616 0.460004
-0.191068 -0.222494 0.11494
-0.182291 -0.106967 -0.26684
-0.195082 -0.107846 -0.319972
-0.202152 -0.134208 -0.420493
-0.178978 -0.02694 -0.431631
-0.175694 -0.089634 -0.523232
-0.185122 -0.090066 0.394101
-0.175092 -0.154889 0.154389
-0.19385 -0.214629 0.149985
-0.01912 0.168428 -0.853223
-0.201377 -0.073249 -0.522959
-0.204954 -0.106662 0.318168
-0.170587 -0.099071 0.224677
-0.19942 -0.13201 0.15844
-0.20831 -0.178046 0.103436
-0.187199 -0.089049 0.238567
-0.198569 -0.0236 -0.235436
-0.200675 -0.032641 -0.417869
-0.208787 -0.031343 -0.45484
-0.223612 -0.122194 -0.427036
0.156036 0.035664 -0.857076
0.102029 0.022552 -0.8616
-0.205163 -0.12585 -0.478234
-0.21751 -0.167635 0.221359
-0.218964 -0.264753 0.057887
-0.211791 -0.239775 0.039425
-0.075709 0.218057 -0.881784
-0.200794 -0.009833 -0.50913
-0.220651 -0.20988 0.150138
-0.220838 -0.282445 0.040291
-0.220574 -0.144923 0.141841
-0.016959 0.183961 -0.876178
-0.070817 0.176795 -0.892864
0.106621 0.055907 -0.88326
0.150316 0.018957 -0.936445
0.137946 0.012692 -0.86225
-0.222239 -0.105477 -0.476304
-0.241477 -0.214227 0.095114
-0.230992 -0.239488 0.089329
-0.228542 -0.209984 0.056348
0.083067 0.024829 -0.924935
-0.026644 0.174925 -0.910713
-0.224524 -0.238725 0.022633
-0.245931 -0.30339 0.060997
-0.244368 -0.23021 0.02332
-0.058784 0.157873 -0.912997
-0.239112 -0.254102 0.06244
-0.232287 -0.291464 0.019467
-0.246079 -0.229247 0.047341
-0.253807 -0.30969 0.028075
-0.032078 0.155396 -0.902638
0.114122 -0.004562 -0.894423
-0.245011 -0.326462 0.020466
-0.061456 0.172563 -0.926075
-0.055832 0.15783 -0.942155
0.134505 -0.001662 -0.918289
0.156827 0.048929 -0.917151
0.040421 -0.045457 -0.951152
-0.27322 -0.253557 0.034294
-0.263984 -0.327598 0.059308
-0.265866 -0.271061 0.020469
-0.267805 -0.267814 0.05483
-0.28967 -0.320924 0.060459
-0.284978 -0.308547 0.043226
0.119652 -0.050919 -0.967548
0.063518 -0.026778 -0.968454
0.072769 -0.083636 -0.949863
0.158455 0.05267 -0.970286
0.103408 -0.070563 -0.956884
-0.302167 -0.281657 0.026137
3 185 0 181 48 242 105
3 181 0 182 48 242 105
3 182 0 197 48 242 105
3 197 0 199 48 242 105
3 199 0 185 48 242 105
3 199 185 112 48 242 105
3 112 185 198 48 242 105
3 198 185 186 48 242 105
3 186 185 115 48 242 105
3 115 185 181 48 242 105
3 115 181 179 48 242 105
3 179 181 108 48 242 105
3 108 181 182 48 242 105
3 108 182 197 48 242 105
3 108 197 183 48 242 105
3 183 197 203 48 242 105
3 203 197 109 48 242 105
3 109 197 112 48 242 105
3 112 197 199 48 242 105
3 109 112 198 48 242 105
3 109 198 204 48 242 105
3 204 198 190 127 20 204
3 190 198 191 48 242 105
3 191 198 186 48 242 105
3 191 186 178 48 242 105
3 178 186 179 48 242 105
3 179 186 115 48 242 105
3 178 179 108 48 242 105
3 178 108 183 48 242 105
3 178 183 103 48 242 105
3 103 183 195 48 242 105
3 195 183 203 48 242 105
3 195 203 209 127 20 204
3 209 203 205 127 20 204
3 205 203 204 127 20 204
3 204 203 109 48 242 105
3 205 204 190 127 20 204
3 205 190 96 127 20 204
3 96 190 189 127 20 204
3 189 190 195 48 242 105
3 195 190 103 48 242 105
3 103 190 191 48 242 105
3 103 191 178 48 242 105
3 189 195 200 127 20 204
3 200 195 209 127 20 204
3 200 209 207 127 20 204
3 207 209 212 127 20 204
3 212 209 205 127 20 204
3 212 205 215 127 20 204
3 215 205 96 127 20 204
3 215 96 211 127 20 204
3 211 96 85 127 20 204
3 85 96 87 127 20 204
3 87 96 189 127 20 204
3 87 189 200 127 20 204
3 87 200 207 127 20 204
3 87 207 80 127 20 204
3 80 207 216 127 20 204
3 216 207 223 127 20 204
3 223 207 212 127 20 204
3 223 212 83 127 20 204
3 83 212 215 127 20 204
3 83 215 211 127 20 204
3 83 211 219 127 20 204
3 219 211 233 127 20 204
3 233 211 210 127 20 204
3 210 211 81 127 20 204
3 81 211 85 127 20 204
3 81 85 87 127 20 204
3 81 87 80 127 20 204
3 81 80 218 127 20 204
3 218 80 67 127 20 204
3 67 80 217 127 20 204
3 217 80 216 127 20 204
3 217 216 222 127 20 204
3 222 216 223 127 20 204
3 222 223 73 127 20 204
3 73 223 83 127 20 204
3 73 83 219 127 20 204
3 73 219 74 127 20 204
3 74 219 233 127 20 204
3 74 233 249 127 20 204
3 249 233 232 127 20 204
3 232 233 210 127 20 204
3 232 210 218 127 20 204
3 218 210 81 127 20 204
3 232 218 221 127 20 204
3 221 218 220 127 20 204
3 220 218 67 127 20 204
3 220 67 224 242 221 72
3 224 67 227 242 221 72
3 227 67 217 127 20 204
3 227 217 222 127 20 204
3 227 222 235 127 20 204
3 235 222 73 127 20 204
3 235 73 69 127 20 204
3 69 73 74 127 20 204
3 69 74 249 127 20 204
3 69 249 59 242 221 72
3 59 249 68 242 221 72
3 68 249 232 242 221 72
3 68 232 221 242 221 72
3 68 221 230 242 221 72
3 230 221 220 242 221 72
3 230 220 242 242 221 72
3 242 220 226 242 221 72
3 226 220 224 242 221 72
3 226 224 239 242 221 72
3 239 224 48 242 221 72
3 48 224 227 242 221 72
3 48 227 260 242 221 72
3 260 227 247 242 221 72
3 247 227 235 127 20 204
3 247 235 69 127 20 204
3 247 69 43 242 221 72
3 43 69 59 242 221 72
3 43 59 44 242 221 72
3 44 59 54 242 221 72
3 54 59 68 242 221 72
3 54 68 230 242 221 72
3 54 230 45 242 221 72
3 45 230 242 242 221 72
3 45 242 39 242 221 72
3 39 242 248 242 221 72
3 248 242 38 242 221 72
3 38 242 226 242 221 72
3 38 226 30 242 221 72
3 30 226 239 242 221 72
3 30 239 262 242 221 72
3 262 239 48 242 221 72
3 262 48 260 242 221 72
3 262 260 288 242 221 72
3 288 260 43 242 221 72
3 43 260 247 242 221 72
3 288 43 33 242 221 72
3 33 43 44 242 221 72
3 33 44 309 242 221 72
3 309 44 289 242 221 72
3 289 44 54 242 221 72
3 289 54 45 242 221 72
3 289 45 322 242 221 72
3 322 45 39 242 221 72
3 322 39 310 242 221 72
3 310 39 41 242 221 72
3 41 39 248 242 221 72
3 41 248 42 242 221 72
3 42 248 32 242 221 72
3 32 248 31 242 221 72
3 31 248 38 242 221 72
3 31 38 231 242 221 72
3 231 38 30 242 221 72
3 231 30 28 242 221 72
3 28 30 280 242 221 72
3 280 30 262 242 221 72
3 280 262 288 242 221 72
3 280 288 339 242 221 72
3 339 288 33 242 221 72
3 339 33 309 242 221 72
3 339 309 356 242 221 72
3 356 309 322 242 221 72
3 322 309 289 242 221 72
3 356 322 332 40 176 204
3 332 322 310 40 176 204
3 332 310 360 40 176 204
3 360 310 323 40 176 204
3 323 310 56 40 176 204
3 56 310 41 40 176 204
3 56 41 42 242 221 72
3 56 42 307 40 176 204
3 307 42 37 40 176 204
3 37 42 32 242 221 72
3 37 32 317 40 176 204
3 317 32 299 40 176 204
3 299 32 231 242 221 72
3 231 32 31 242 221 72
3 299 231 243 242 221 72
3 243 231 28 242 221 72
3 243 28 335 40 176 204
3 335 28 355 40 176 204
3 355 28 280 242 221 72
3 355 280 339 242 221 72
3 355 339 359 40 176 204
3 359 339 374 40 176 204
3 374 339 356 40 176 204
3 374 356 332 40 176 204
3 374 332 415 40 176 204
3 415 332 360 40 176 204
3 415 360 427 40 176 204
3 427 360 323 40 176 204
3 427 323 346 40 176 204
3 346 323 79 40 176 204
3 79 323 56 40 176 204
3 79 56 278 40 176 204
3 278 56 307 40 176 204
3 278 307 57 40 176 204
3 57 307 55 40 176 204
3 55 307 331 40 176 204
3 331 307 399 40 176 204
3 399 307 37 40 176 204
3 399 37 317 40 176 204
3 399 317 425 40 176 204
3 425 317 338 40 176 204
3 338 317 299 40 176 204
3 338 299 243 40 176 204
3 338 243 393 40 176 204
3 393 243 335 40 176 204
3 393 335 366 40 176 204
3 366 335 411 40 176 204
3 411 335 355 40 176 204
3 411 355 432 40 176 204
3 432 355 359 40 176 204
3 432 359 433 40 176 204
3 433 359 374 40 176 204
3 433 374 484 40 176 204
3 484 374 415 40 176 204
3 484 415 485 40 176 204
3 485 415 455 40 176 204
3 455 415 427 40 176 204
3 455 427 410 40 176 204
3 410 427 346 40 176 204
3 410 346 443 40 176 204
3 443 346 352 40 176 204
3 352 346 300 40 176 204
3 300 346 79 40 176 204
3 300 79 90 40 176 204
3 90 79 278 40 176 204
3 90 278 78 40 176 204
3 78 278 354 40 176 204
3 354 278 57 40 176 204
3 354 57 55 40 176 204
3 354 55 331 40 176 204
3 354 331 396 40 176 204
3 396 331 49 40 176 204
3 49 331 399 40 176 204
3 49 399 439 40 176 204
3 439 399 425 40 176 204
3 439 425 459 40 176 204
3 459 425 402 40 176 204
3 402 425 338 40 176 204
3 402 338 393 40 176 204
3 402 393 412 40 176 204
3 412 393 366 40 176 204
3 412 366 21 204 61 61
3 21 366 398 204 61 61
3 398 366 436 204 61 61
3 436 366 411 204 61 61
3 436 411 488 40 176 204
3 488 411 432 40 176 204
3 488 432 521 40 176 204
3 521 432 433 40 176 204
3 521 433 484 40 176 204
3 521 484 529 40 176 204
3 529 484 485 40 176 204
3 529 485 573 40 176 204
3 573 485 555 40 176 204
3 555 485 455 40 176 204
3 555 455 506 40 176 204
3 506 455 410 40 176 204
3 506 410 443 40 176 204
3 506 443 450 40 176 204
3 450 443 352 40 176 204
3 450 352 101 40 176 204
3 101 352 104 40 176 204
3 104 352 300 40 176 204
3 104 300 301 40 176 204
3 301 300 283 40 176 204
3 283 300 97 40 176 204
3 97 300 90 40 176 204
3 97 90 345 40 176 204
3 345 90 78 40 176 204
3 345 78 416 40 176 204
3 416 78 409 40 176 204
3 409 78 408 40 176 204
3 408 78 354 40 176 204
3 408 354 396 40 176 204
3 408 396 405 40 176 204
3 405 396 426 40 176 204
3 426 396 49 40 176 204
3 426 49 439 40 176 204
3 426 439 460 40 176 204
3 460 439 522 40 176 204
3 522 439 40 40 176 204
3 40 439 489 40 176 204
3 489 439 459 40 176 204
3 489 459 495 40 176 204
3 495 459 447 40 176 204
3 447 459 25 40 176 204
3 25 459 402 40 176 204
3 25 402 412 40 176 204
3 25 412 431 204 61 61
3 431 412 424 204 61 61
3 424 412 21 204 61 61
3 424 21 15 204 61 61
3 15 21 384 204 61 61
3 384 21 423 204 61 61
3 423 21 398 204 61 61
3 423 398 436 204 61 61
3 423 436 474 204 61 61
3 474 436 505 204 61 61
3 505 436 483 204 61 61
3 483 436 488 204 61 61
3 483 488 514 40 176 204
3 514 488 549 40 176 204
3 549 488 521 40 176 204
3 549 521 566 40 176 204
3 566 521 529 40 176 204
3 566 529 619 40 176 204
3 619 529 52 40 176 204
3 52 529 573 40 176 204
3 52 573 63 40 176 204
3 63 573 555 40 176 204
3 63 555 76 40 176 204
3 76 555 556 40 176 204
3 556 555 506 40 176 204
3 556 506 496 40 176 204
3 496 506 450 40 176 204
3 496 450 461 40 176 204
3 461 450 101 40 176 204
3 461 101 392 40 176 204
3 392 101 118 40 176 204
3 118 101 362 40 176 204
3 362 101 104 40 176 204
3 362 104 347 40 176 204
3 347 104 281 40 176 204
3 281 104 301 40 176 204
3 281 301 111 40 176 204
3 111 301 283 40 176 204
3 111 283 119 40 176 204
3 119 283 124 40 176 204
3 124 283 279 40 176 204
3 279 283 97 40 176 204
3 279 97 99 40 176 204
3 99 97 345 40 176 204
3 99 345 416 40 176 204
3 99 416 400 40 176 204
3 400 416 469 40 176 204
3 469 416 468 40 176 204
3 468 416 409 40 176 204
3 468 409 500 40 176 204
3 500 409 442 40 176 204
3 442 409 408 40 176 204
3 442 408 405 40 176 204
3 442 405 467 40 176 204
3 467 405 426 40 176 204
3 467 426 460 40 176 204
3 467 460 522 40 176 204
3 467 522 491 40 176 204
3 491 522 539 40 176 204
3 539 522 574 40 176 204
3 574 522 40 40 176 204
3 574 40 560 40 176 204
3 560 40 489 40 176 204
3 560 489 545 40 176 204
3 545 489 495 40 176 204
3 545 495 520 40 176 204
3 520 495 447 40 176 204
3 520 447 446 204 61 61
3 446 447 441 204 61 61
3 441 447 431 204 61 61
3 431 447 25 40 176 204
3 441 431 424 204 61 61
3 441 424 385 204 61 61
3 385 424 15 204 61 61
3 385 15 19 204 61 61
3 19 15 11 204 61 61
3 11 15 14 204 61 61
3 14 15 384 204 61 61
3 14 384 378 204 61 61
3 378 384 397 204 61 61
3 397 384 423 204 61 61
3 397 423 474 204 61 61
3 397 474 454 204 61 61
3 454 474 480 204 61 61
3 480 474 538 204 61 61
3 538 474 505 204 61 61
3 538 505 511 204 61 61
3 511 505 548 204 61 61
3 548 505 483 204 61 61
3 548 483 514 204 61 61
3 548 514 549 40 176 204
3 548 549 27 40 176 204
3 27 549 566 40 176 204
3 27 566 626 40 176 204
3 626 566 619 40 176 204
3 626 619 670 40 176 204
3 670 619 34 40 176 204
3 34 619 648 40 176 204
3 648 619 52 40 176 204
3 648 52 47 40 176 204
3 47 52 60 40 176 204
3 60 52 63 40 176 204
3 60 63 76 40 176 204
3 60 76 71 40 176 204
3 71 76 84 40 176 204
3 84 76 82 40 176 204
3 82 76 556 40 176 204
3 82 556 550 40 176 204
3 550 556 496 40 176 204
3 550 496 523 40 176 204
3 523 496 461 40 176 204
3 523 461 444 40 176 204
3 444 461 392 40 176 204
3 444 392 391 40 176 204
3 391 392 118 40 176 204
3 391 118 390 40 176 204
3 390 118 362 40 176 204
3 390 362 125 40 176 204
3 125 362 347 40 176 204
3 125 347 314 40 176 204
3 314 347 281 40 176 204
3 314 281 123 40 176 204
3 123 281 111 40 176 204
3 123 111 119 40 176 204
3 123 119 129 40 176 204
3 129 119 138 242 24 142
3 138 119 124 242 24 142
3 138 124 131 242 24 142
3 131 124 302 40 176 204
3 302 124 279 40 176 204
3 302 279 106 40 176 204
3 106 279 99 40 176 204
3 106 99 361 40 176 204
3 361 99 400 40 176 204
3 361 400 440 40 176 204
3 440 400 470 40 176 204
3 470 400 469 40 176 204
3 470 469 526 40 176 204
3 526 469 468 40 176 204
3 526 468 100 40 176 204
3 100 468 598 40 176 204
3 598 468 584 40 176 204
3 584 468 500 40 176 204
3 584 500 600 40 176 204
3 600 500 64 40 176 204
3 64 500 539 40 176 204
3 539 500 491 40 176 204
3 491 500 442 40 176 204
3 491 442 467 40 176 204
3 64 539 605 40 176 204
3 605 539 574 40 176 204
3 605 574 51 40 176 204
3 51 574 560 40 176 204
3 51 560 50 40 176 204
3 50 560 606 40 176 204
3 606 560 591 40 176 204
3 591 560 545 40 176 204
3 591 545 656 40 176 204
3 656 545 604 40 176 204
3 604 545 26 40 176 204
3 26 545 520 40 176 204
3 26 520 528 204 61 61
3 528 520 446 204 61 61
3 528 446 22 204 61 61
3 22 446 516 204 61 61
3 516 446 479 204 61 61
3 479 446 441 204 61 61
3 479 441 438 204 61 61
3 438 441 23 204 61 61
3 23 441 385 204 61 61
3 23 385 19 204 61 61
3 23 19 17 204 61 61
3 17 19 11 204 61 61
3 17 11 12 204 61 61
3 12 11 344 204 61 61
3 344 11 6 204 61 61
3 6 11 14 204 61 61
3 6 14 357 204 61 61
3 357 14 378 204 61 61
3 357 378 389 204 61 61
3 389 378 4 204 61 61
3 4 378 454 204 61 61
3 454 378 397 204 61 61
3 4 454 453 204 61 61
3 453 454 480 204 61 61
3 453 480 537 204 61 61
3 537 480 13 204 61 61
3 13 480 538 204 61 61
3 13 538 547 204 61 61
3 547 538 583 204 61 61
3 583 538 511 204 61 61
3 583 511 548 204 61 61
3 583 548 27 204 61 61
3 583 27 603 204 61 61
3 603 27 590 204 61 61
3 590 27 625 204 61 61
3 625 27 626 40 176 204
3 625 626 666 40 176 204
3 666 626 670 40 176 204
3 666 670 34 40 176 204
3 666 34 29 40 176 204
3 29 34 36 40 176 204
3 36 34 46 40 176 204
3 46 34 648 40 176 204
3 46 648 47 40 176 204
3 46 47 53 40 176 204
3 53 47 667 242 221 72
3 667 47 649 242 221 72
3 649 47 60 40 176 204
3 649 60 637 40 176 204
3 637 60 618 40 176 204
3 618 60 71 40 176 204
3 618 71 599 40 176 204
3 599 71 598 40 176 204
3 598 71 92 40 176 204
3 92 71 84 40 176 204
3 92 84 95 40 176 204
3 95 84 82 40 176 204
3 95 82 550 40 176 204
3 95 550 567 40 176 204
3 567 550 523 40 176 204
3 567 523 524 40 176 204
3 524 523 444 40 176 204
3 524 444 471 40 176 204
3 471 444 434 40 176 204
3 434 444 391 40 176 204
3 434 391 386 40 176 204
3 386 391 390 40 176 204
3 386 390 127 40 176 204
3 127 390 125 40 176 204
3 127 125 128 40 176 204
3 128 125 368 40 176 204
3 368 125 324 40 176 204
3 324 125 314 40 176 204
3 324 314 135 40 176 204
3 135 314 123 40 176 204
3 135 123 250 40 176 204
3 250 123 129 242 24 142
3 250 129 245 242 24 142
3 245 129 138 242 24 142
3 245 138 156 242 24 142
3 156 138 240 242 24 142
3 240 138 131 242 24 142
3 240 131 261 242 24 142
3 261 131 303 242 24 142
3 303 131 302 242 24 142
3 303 302 340 40 176 204
3 340 302 361 40 176 204
3 361 302 106 40 176 204
3 340 361 440 40 176 204
3 340 440 420 40 176 204
3 420 440 130 40 176 204
3 130 440 462 40 176 204
3 462 440 470 40 176 204
3 462 470 526 40 176 204
3 462 526 552 40 176 204
3 552 526 100 40 176 204
3 552 100 572 40 176 204
3 572 100 597 40 176 204
3 597 100 598 40 176 204
3 597 598 92 40 176 204
3 597 92 110 40 176 204
3 110 92 592 40 176 204
3 592 92 95 40 176 204
3 592 95 567 40 176 204
3 592 567 631 40 176 204
3 631 567 562 40 176 204
3 562 567 524 40 176 204
3 562 524 602 40 176 204
3 602 524 540 40 176 204
3 540 524 471 40 176 204
3 540 471 486 40 176 204
3 486 471 434 40 176 204
3 486 434 435 40 176 204
3 435 434 386 40 176 204
3 435 386 418 40 176 204
3 418 386 127 40 176 204
3 418 127 128 40 176 204
3 418 128 437 40 176 204
3 437 128 417 40 176 204
3 417 128 368 40 176 204
3 417 368 150 242 24 142
3 150 368 376 242 24 142
3 376 368 348 242 24 142
3 348 368 324 242 24 142
3 348 324 304 242 24 142
3 304 324 135 242 24 142
3 304 135 250 242 24 142
3 304 250 245 242 24 142
3 304 245 282 242 24 142
3 282 245 244 242 24 142
3 244 245 154 242 24 142
3 154 245 156 242 24 142
3 154 156 167 242 24 142
3 167 156 170 242 24 142
3 170 156 158 242 24 142
3 158 156 240 242 24 142
3 158 240 261 242 24 142
3 158 261 161 242 24 142
3 161 261 290 242 24 142
3 290 261 311 242 24 142
3 311 261 303 242 24 142
3 311 303 341 242 24 142
3 341 303 340 242 24 142
3 341 340 363 242 24 142
3 363 340 420 242 24 142
3 363 420 140 242 24 142
3 140 420 142 242 24 142
3 142 420 130 40 176 204
3 142 130 463 40 176 204
3 463 130 132 40 176 204
3 132 130 462 40 176 204
3 132 462 507 40 176 204
3 507 462 530 40 176 204
3 530 462 552 40 176 204
3 530 552 572 40 176 204
3 530 572 601 40 176 204
3 601 572 116 40 176 204
3 116 572 110 40 176 204
3 110 572 597 40 176 204
3 116 110 592 40 176 204
3 116 592 631 40 176 204
3 116 631 126 242 24 142
3 126 631 645 242 24 142
3 645 631 602 242 24 142
3 602 631 562 242 24 142
3 645 602 628 242 24 142
3 628 602 540 242 24 142
3 628 540 588 242 24 142
3 588 540 498 242 24 142
3 498 540 486 40 176 204
3 498 486 435 40 176 204
3 498 435 143 40 176 204
3 143 435 445 40 176 204
3 445 435 418 40 176 204
3 445 418 437 40 176 204
3 445 437 136 40 176 204
3 136 437 133 40 176 204
3 133 437 417 40 176 204
3 133 417 139 40 176 204
3 139 417 144 242 24 142
3 144 417 150 242 24 142
3 144 150 163 242 24 142
3 163 150 376 242 24 142
3 163 376 364 242 24 142
3 364 376 333 242 24 142
3 333 376 348 242 24 142
3 333 348 305 242 24 142
3 305 348 304 242 24 142
3 305 304 282 242 24 142
3 305 282 244 242 24 142
3 305 244 325 242 24 142
3 325 244 168 242 24 142
3 168 244 154 242 24 142
3 168 154 167 242 24 142
3 168 167 174 242 24 142
3 174 167 176 242 24 142
3 176 167 170 242 24 142
3 176 170 265 242 24 142
3 265 170 161 242 24 142
3 161 170 158 242 24 142
3 265 161 284 242 24 142
3 284 161 312 242 24 142
3 312 161 290 242 24 142
3 312 290 375 242 24 142
3 375 290 341 242 24 142
3 341 290 311 242 24 142
3 375 341 363 242 24 142
3 375 363 429 242 24 142
3 429 363 140 242 24 142
3 429 140 142 242 24 142
3 429 142 144 242 24 142
3 144 142 139 242 24 142
3 139 142 133 40 176 204
3 133 142 463 40 176 204
3 133 463 472 40 176 204
3 472 463 132 40 176 204
3 472 132 507 40 176 204
3 472 507 145 40 176 204
3 145 507 531 242 24 142
3 531 507 530 40 176 204
3 531 530 593 242 24 142
3 593 530 601 40 176 204
3 593 601 134 242 24 142
3 134 601 116 242 24 142
3 134 116 126 242 24 142
3 134 126 147 242 24 142
3 147 126 673 242 24 142
3 673 126 645 242 24 142
3 673 645 155 242 24 142
3 155 645 632 242 24 142
3 632 645 628 242 24 142
3 632 628 588 242 24 142
3 632 588 532 242 24 142
3 532 588 146 242 24 142
3 146 588 498 242 24 142
3 146 498 143 242 24 142
3 146 143 148 242 24 142
3 148 143 136 242 24 142
3 136 143 445 242 24 142
3 148 136 145 242 24 142
3 145 136 472 242 24 142
3 472 136 133 40 176 204
3 148 145 151 242 24 142
3 151 145 541 242 24 142
3 541 145 568 242 24 142
3 568 145 141 242 24 142
3 141 145 531 242 24 142
3 141 531 585 242 24 142
3 585 531 627 242 24 142
3 627 531 593 242 24 142
3 627 593 134 242 24 142
3 627 134 137 242 24 142
3 137 134 147 242 24 142
3 137 147 149 242 24 142
3 149 147 673 242 24 142
3 149 673 698 242 24 142
3 698 673 159 242 24 142
3 159 673 155 242 24 142
3 159 155 678 242 24 142
3 678 155 659 242 24 142
3 659 155 578 242 24 142
3 578 155 632 242 24 142
3 578 632 532 242 24 142
3 578 532 157 242 24 142
3 157 532 152 242 24 142
3 152 532 146 242 24 142
3 152 146 148 242 24 142
3 152 148 151 242 24 142
3 152 151 162 242 24 142
3 162 151 541 242 24 142
3 162 541 579 242 24 142
3 579 541 614 242 24 142
3 614 541 568 242 24 142
3 614 568 629 242 24 142
3 629 568 585 242 24 142
3 585 568 141 242 24 142
3 629 585 658 242 24 142
3 658 585 627 242 24 142
3 658 627 137 242 24 142
3 658 137 674 242 24 142
3 674 137 149 242 24 142
3 674 149 166 242 24 142
3 166 149 698 242 24 142
3 166 698 172 242 24 142
3 172 698 159 242 24 142
3 172 159 196 242 24 142
3 196 159 678 242 24 142
3 196 678 675 242 24 142
3 675 678 659 242 24 142
3 675 659 640 242 24 142
3 640 659 607 242 24 142
3 607 659 578 242 24 142
3 607 578 157 242 24 142
3 607 157 165 242 24 142
3 165 157 152 242 24 142
3 165 152 162 242 24 142
3 165 162 175 242 24 142
3 175 162 169 242 24 142
3 169 162 579 242 24 142
3 169 579 188 242 24 142
3 188 579 615 242 24 142
3 615 579 614 242 24 142
3 615 614 620 242 24 142
3 620 614 629 242 24 142
3 620 629 639 242 24 142
3 639 629 658 242 24 142
3 639 658 674 242 24 142
3 639 674 683 242 24 142
3 683 674 166 242 24 142
3 683 166 171 242 24 142
3 171 166 177 242 24 142
3 177 166 172 242 24 142
3 177 172 196 242 24 142
3 177 196 206 242 24 142
3 206 196 699 242 24 142
3 699 196 675 242 24 142
3 699 675 686 242 24 142
3 686 675 652 242 24 142
3 652 675 640 242 24 142
3 652 640 608 242 24 142
3 608 640 607 242 24 142
3 608 607 175 242 24 142
3 175 607 165 242 24 142
3 608 175 193 242 24 142
3 193 175 169 242 24 142
3 193 169 184 242 24 142
3 184 169 188 242 24 142
3 184 188 194 242 24 142
3 194 188 615 242 24 142
3 194 615 653 242 24 142
3 653 615 651 242 24 142
3 651 615 683 242 24 142
3 683 615 620 242 24 142
3 683 620 639 242 24 142
3 651 683 684 242 24 142
3 684 683 171 242 24 142
3 684 171 651 242 24 142
3 651 171 701 242 24 142
3 701 171 202 242 24 142
3 202 171 177 242 24 142
3 202 177 206 242 24 142
3 202 206 718 242 24 142
3 718 206 692 96 204 61
3 692 206 709 96 204 61
3 709 206 700 96 204 61
3 700 206 699 96 204 61
3 700 699 686 96 204 61
3 700 686 663 96 204 61
3 663 686 633 96 204 61
3 633 686 646 96 204 61
3 646 686 652 242 24 142
3 646 652 193 242 24 142
3 193 652 608 242 24 142
3 646 193 214 242 24 142
3 214 193 184 242 24 142
3 214 184 229 96 204 61
3 229 184 194 242 24 142
3 229 194 679 96 204 61
3 679 194 653 242 24 142
3 679 653 685 242 24 142
3 685 653 651 242 24 142
3 685 651 701 242 24 142
3 685 701 679 242 24 142
3 679 701 704 96 204 61
3 704 701 718 242 24 142
3 718 701 202 242 24 142
3 704 718 692 96 204 61
3 704 692 687 96 204 61
3 687 692 680 96 204 61
3 680 692 315 96 204 61
3 315 692 709 96 204 61
3 315 709 272 96 204 61
3 272 709 271 96 204 61
3 271 709 700 96 204 61
3 271 700 663 96 204 61
3 271 663 635 96 204 61
3 635 663 633 96 204 61
3 635 633 616 96 204 61
3 616 633 621 96 204 61
3 621 633 646 96 204 61
3 621 646 228 96 204 61
3 228 646 214 96 204 61
3 228 214 229 96 204 61
3 228 229 238 96 204 61
3 238 229 662 96 204 61
3 662 229 679 96 204 61
3 662 679 687 96 204 61
3 687 679 704 96 204 61
3 662 687 622 96 204 61
3 622 687 316 96 204 61
3 316 687 680 96 204 61
3 316 680 643 96 204 61
3 643 680 315 96 204 61
3 643 315 387 96 204 61
3 387 315 272 96 204 61
3 387 272 624 96 204 61
3 624 272 654 96 204 61
3 654 272 271 96 204 61
3 654 271 635 96 204 61
3 654 635 328 96 204 61
3 328 635 268 96 204 61
3 268 635 616 96 204 61
3 268 616 570 96 204 61
3 570 616 621 96 204 61
3 570 621 228 96 204 61
3 570 228 253 96 204 61
3 253 228 238 96 204 61
3 253 238 622 96 204 61
3 622 238 662 96 204 61
3 253 622 612 96 204 61
3 612 622 316 96 204 61
3 612 316 594 96 204 61
3 594 316 644 96 204 61
3 644 316 643 96 204 61
3 644 643 387 96 204 61
3 644 387 596 96 204 61
3 596 387 624 96 204 61
3 596 624 464 96 204 61
3 464 624 613 96 204 61
3 613 624 654 96 204 61
3 613 654 617 96 204 61
3 617 654 328 96 204 61
3 617 328 543 96 204 61
3 543 328 268 96 204 61
3 543 268 570 96 204 61
3 543 570 533 96 204 61
3 533 570 401 96 204 61
3 401 570 253 96 204 61
3 401 253 612 96 204 61
3 401 612 594 96 204 61
3 401 594 582 96 204 61
3 582 594 644 96 204 61
3 582 644 589 96 204 61
3 589 644 596 96 204 61
3 589 596 553 96 204 61
3 553 596 580 96 204 61
3 580 596 464 96 204 61
3 580 464 513 96 204 61
3 513 464 551 96 204 61
3 551 464 613 96 204 61
3 551 613 576 96 204 61
3 576 613 617 96 204 61
3 576 617 563 96 204 61
3 563 617 543 96 204 61
3 563 543 508 96 204 61
3 508 543 533 96 204 61
3 508 533 534 96 204 61
3 534 533 401 96 204 61
3 534 401 582 96 204 61
3 534 582 499 96 204 61
3 499 582 553 96 204 61
3 553 582 589 96 204 61
3 499 553 509 96 204 61
3 509 553 535 96 204 61
3 535 553 513 96 204 61
3 513 553 580 96 204 61
3 535 513 542 96 204 61
3 542 513 551 96 204 61
3 542 551 630 56 48 242
3 630 551 492 56 48 242
3 492 551 517 56 48 242
3 517 551 544 96 204 61
3 544 551 576 96 204 61
3 544 576 490 96 204 61
3 490 576 563 96 204 61
3 490 563 508 96 204 61
3 490 508 475 96 204 61
3 475 508 534 96 204 61
3 475 534 499 96 204 61
3 475 499 512 96 204 61
3 512 499 509 96 204 61
3 512 509 558 96 204 61
3 558 509 501 56 48 242
3 501 509 535 96 204 61
3 501 535 542 96 204 61
3 501 542 610 56 48 242
3 610 542 630 56 48 242
3 610 630 647 56 48 242
3 647 630 661 56 48 242
3 661 630 546 56 48 242
3 546 630 494 56 48 242
3 494 630 492 56 48 242
3 494 492 451 56 48 242
3 451 492 482 56 48 242
3 482 492 517 56 48 242
3 482 517 575 56 48 242
3 575 517 525 56 48 242
3 525 517 544 96 204 61
3 525 544 475 96 204 61
3 475 544 490 96 204 61
3 525 475 512 96 204 61
3 525 512 587 56 48 242
3 587 512 558 56 48 242
3 587 558 478 56 48 242
3 478 558 493 56 48 242
3 493 558 501 56 48 242
3 493 501 610 56 48 242
3 493 610 647 56 48 242
3 493 647 714 56 48 242
3 714 647 661 56 48 242
3 714 661 708 56 48 242
3 708 661 546 56 48 242
3 708 546 518 56 48 242
3 518 546 502 56 48 242
3 502 546 466 56 48 242
3 466 546 494 56 48 242
3 466 494 451 56 48 242
3 466 451 660 56 48 242
3 660 451 586 56 48 242
3 586 451 482 56 48 242
3 586 482 609 56 48 242
3 609 482 575 56 48 242
3 609 575 587 56 48 242
3 587 575 525 56 48 242
3 609 587 478 56 48 242
3 609 478 641 56 48 242
3 641 478 448 56 48 242
3 448 478 691 56 48 242
3 691 478 493 56 48 242
3 691 493 503 56 48 242
3 503 493 714 56 48 242
3 503 714 727 56 48 242
3 727 714 735 56 48 242
3 735 714 564 56 48 242
3 564 714 708 56 48 242
3 564 708 557 56 48 242
3 557 708 518 56 48 242
3 557 518 510 56 48 242
3 510 518 502 56 48 242
3 510 502 713 56 48 242
3 713 502 448 56 48 242
3 448 502 660 56 48 242
3 660 502 466 56 48 242
3 448 660 641 56 48 242
3 641 660 586 56 48 242
3 641 586 609 56 48 242
3 713 448 691 56 48 242
3 713 691 503 56 48 242
3 713 503 732 56 48 242
3 732 503 727 56 48 242
3 732 727 736 56 48 242
3 736 727 735 56 48 242
3 736 735 723 56 48 242
3 723 735 557 56 48 242
3 557 735 564 56 48 242
3 723 557 510 56 48 242
3 723 510 713 56 48 242
3 723 713 732 56 48 242
3 723 732 736 56 48 242
3 429 144 164 242 24 142
3 164 144 160 242 24 142
3 160 144 163 242 24 142
3 160 163 180 242 24 142
3 180 163 187 242 24 142
3 187 163 377 242 24 142
3 377 163 364 242 24 142
3 377 364 326 242 24 142
3 326 364 325 242 24 142
3 325 364 333 242 24 142
3 325 333 305 242 24 142
3 326 325 168 242 24 142
3 326 168 173 242 24 142
3 173 168 174 242 24 142
3 173 174 266 242 24 142
3 266 174 208 242 24 142
3 208 174 176 242 24 142
3 208 176 201 242 24 142
3 201 176 265 242 24 142
3 201 265 267 242 24 142
3 267 265 313 242 24 142
3 313 265 284 242 24 142
3 313 284 334 242 24 142
3 334 284 312 242 24 142
3 334 312 153 242 24 142
3 153 312 375 242 24 142
3 153 375 429 242 24 142
3 153 429 164 242 24 142
3 153 164 395 242 24 142
3 395 164 413 242 24 142
3 413 164 160 242 24 142
3 413 160 180 242 24 142
3 413 180 192 242 24 142
3 192 180 187 242 24 142
3 192 187 213 242 24 142
3 213 187 377 242 24 142
3 213 377 349 242 24 142
3 349 377 326 242 24 142
3 349 326 291 242 24 142
3 291 326 173 242 24 142
3 291 173 266 242 24 142
3 291 266 292 242 24 142
3 292 266 225 242 24 142
3 225 266 208 242 24 142
3 225 208 236 242 24 142
3 236 208 237 242 24 142
3 237 208 201 242 24 142
3 237 201 267 242 24 142
3 237 267 293 242 24 142
3 293 267 327 242 24 142
3 327 267 313 242 24 142
3 327 313 365 242 24 142
3 365 313 403 242 24 142
3 403 313 334 242 24 142
3 403 334 395 242 24 142
3 395 334 153 242 24 142
3 403 395 413 242 24 142
3 403 413 192 242 24 142
3 403 192 394 242 24 142
3 394 192 213 242 24 142
3 394 213 256 242 24 142
3 256 213 350 96 204 61
3 350 213 342 96 204 61
3 342 213 349 242 24 142
3 342 349 292 242 24 142
3 292 349 291 242 24 142
3 342 292 270 96 204 61
3 270 292 263 96 204 61
3 263 292 225 96 204 61
3 263 225 296 96 204 61
3 296 225 236 96 204 61
3 296 236 274 96 204 61
3 274 236 237 96 204 61
3 274 237 293 96 204 61
3 274 293 269 96 204 61
3 269 293 353 96 204 61
3 353 293 371 96 204 61
3 371 293 327 242 24 142
3 371 327 365 242 24 142
3 371 365 234 242 24 142
3 234 365 394 242 24 142
3 394 365 403 242 24 142
3 234 394 256 242 24 142
3 234 256 353 96 204 61
3 353 256 275 96 204 61
3 275 256 306 96 204 61
3 306 256 350 96 204 61
3 306 350 351 96 204 61
3 351 350 270 96 204 61
3 270 350 342 96 204 61
3 351 270 294 96 204 61
3 294 270 252 96 204 61
3 252 270 263 96 204 61
3 252 263 296 96 204 61
3 252 296 367 96 204 61
3 367 296 380 96 204 61
3 380 296 274 96 204 61
3 380 274 336 96 204 61
3 336 274 269 96 204 61
3 336 269 254 96 204 61
3 254 269 343 96 204 61
3 343 269 275 96 204 61
3 275 269 353 96 204 61
3 343 275 369 96 204 61
3 369 275 306 96 204 61
3 369 306 388 96 204 61
3 388 306 351 96 204 61
3 388 351 476 96 204 61
3 476 351 497 96 204 61
3 497 351 294 96 204 61
3 497 294 257 96 204 61
3 257 294 241 96 204 61
3 241 294 252 96 204 61
3 241 252 367 96 204 61
3 241 367 456 96 204 61
3 456 367 449 96 204 61
3 449 367 380 96 204 61
3 449 380 477 96 204 61
3 477 380 336 96 204 61
3 477 336 254 96 204 61
3 477 254 297 96 204 61
3 297 254 343 96 204 61
3 297 343 318 96 204 61
3 318 343 465 96 204 61
3 465 343 369 96 204 61
3 465 369 388 96 204 61
3 465 388 476 96 204 61
3 465 476 337 96 204 61
3 337 476 497 96 204 61
3 337 497 569 96 204 61
3 569 497 257 96 204 61
3 569 257 246 96 204 61
3 246 257 241 96 204 61
3 246 241 456 96 204 61
3 246 456 515 96 204 61
3 515 456 449 96 204 61
3 515 449 477 96 204 61
3 515 477 559 96 204 61
3 559 477 297 96 204 61
3 559 297 258 96 204 61
3 258 297 276 96 204 61
3 276 297 318 96 204 61
3 276 318 329 96 204 61
3 329 318 465 96 204 61
3 329 465 337 96 204 61
3 329 337 623 96 204 61
3 623 337 581 96 204 61
3 581 337 569 96 204 61
3 581 569 611 96 204 61
3 611 569 642 96 204 61
3 642 569 246 96 204 61
3 642 246 255 96 204 61
3 255 246 515 96 204 61
3 255 515 559 96 204 61
3 255 559 258 96 204 61
3 255 258 259 96 204 61
3 259 258 276 96 204 61
3 259 276 319 96 204 61
3 319 276 329 96 204 61
3 319 329 623 96 204 61
3 319 623 703 96 204 61
3 703 623 634 96 204 61
3 634 623 581 96 204 61
3 634 581 611 96 204 61
3 634 611 285 96 204 61
3 285 611 642 96 204 61
3 285 642 655 96 204 61
3 655 642 255 96 204 61
3 655 255 717 96 204 61
3 717 255 259 96 204 61
3 717 259 298 96 204 61
3 298 259 319 96 204 61
3 298 319 703 96 204 61
3 298 703 733 96 204 61
3 733 703 370 56 48 242
3 370 703 722 56 48 242
3 722 703 715 56 48 242
3 715 703 634 96 204 61
3 715 634 308 56 48 242
3 308 634 285 96 204 61
3 308 285 277 56 48 242
3 277 285 702 56 48 242
3 702 285 655 96 204 61
3 702 655 717 56 48 242
3 702 717 716 56 48 242
3 716 717 737 56 48 242
3 737 717 733 56 48 242
3 733 717 298 96 204 61
3 737 733 750 56 48 242
3 750 733 330 56 48 242
3 330 733 370 56 48 242
3 330 370 381 56 48 242
3 381 370 739 56 48 242
3 739 370 379 56 48 242
3 379 370 722 56 48 242
3 379 722 358 56 48 242
3 358 722 295 56 48 242
3 295 722 320 56 48 242
3 320 722 715 56 48 242
3 320 715 251 56 48 242
3 251 715 308 56 48 242
3 251 308 277 56 48 242
3 251 277 738 56 48 242
3 738 277 702 56 48 242
3 738 702 716 56 48 242
3 738 716 749 56 48 242
3 749 716 273 56 48 242
3 273 716 737 56 48 242
3 273 737 746 56 48 242
3 746 737 750 56 48 242
3 746 750 372 56 48 242
3 372 750 748 56 48 242
3 748 750 330 56 48 242
3 748 330 381 56 48 242
3 748 381 419 56 48 242
3 419 381 739 56 48 242
3 419 739 430 56 48 242
3 430 739 404 56 48 242
3 404 739 747 56 48 242
3 747 739 379 56 48 242
3 747 379 358 56 48 242
3 747 358 404 56 48 242
3 404 358 321 56 48 242
3 321 358 295 56 48 242
3 321 295 264 56 48 242
3 264 295 287 56 48 242
3 287 295 320 56 48 242
3 287 320 286 56 48 242
3 286 320 251 56 48 242
3 286 251 738 56 48 242
3 286 738 749 56 48 242
3 286 749 287 56 48 242
3 287 749 264 56 48 242
3 264 749 273 56 48 242
3 264 273 321 56 48 242
3 321 273 746 56 48 242
3 321 746 372 56 48 242
3 321 372 404 56 48 242
3 404 372 382 56 48 242
3 382 372 748 56 48 242
3 382 748 421 56 48 242
3 421 748 419 56 48 242
3 421 419 430 56 48 242
3 421 430 404 56 48 242
3 421 404 382 56 48 242
3 234 353 371 242 24 142
3 599 598 584 40 176 204
3 599 584 618 40 176 204
3 618 584 600 40 176 204
3 618 600 66 40 176 204
3 66 600 58 40 176 204
3 58 600 50 40 176 204
3 50 600 605 40 176 204
3 605 600 64 40 176 204
3 50 605 51 40 176 204
3 58 50 61 40 176 204
3 61 50 638 40 176 204
3 638 50 636 40 176 204
3 636 50 606 40 176 204
3 636 606 591 40 176 204
3 636 591 681 40 176 204
3 681 591 656 40 176 204
3 681 656 677 40 176 204
3 677 656 668 40 176 204
3 668 656 604 40 176 204
3 668 604 625 40 176 204
3 625 604 590 40 176 204
3 590 604 26 40 176 204
3 590 26 24 204 61 61
3 24 26 528 204 61 61
3 24 528 561 204 61 61
3 561 528 22 204 61 61
3 561 22 527 204 61 61
3 527 22 516 204 61 61
3 527 516 504 204 61 61
3 504 516 1 204 61 61
3 1 516 479 204 61 61
3 1 479 422 204 61 61
3 422 479 438 204 61 61
3 422 438 17 204 61 61
3 17 438 23 204 61 61
3 422 17 407 204 61 61
3 407 17 373 204 61 61
3 373 17 12 204 61 61
3 373 12 344 204 61 61
3 373 344 406 204 61 61
3 406 344 452 204 61 61
3 452 344 383 204 61 61
3 383 344 6 204 61 61
3 383 6 3 204 61 61
3 3 6 428 204 61 61
3 428 6 389 204 61 61
3 389 6 357 204 61 61
3 428 389 4 204 61 61
3 428 4 487 204 61 61
3 487 4 536 204 61 61
3 536 4 453 204 61 61
3 536 453 537 204 61 61
3 536 537 554 204 61 61
3 554 537 9 204 61 61
3 9 537 13 204 61 61
3 9 13 547 204 61 61
3 9 547 20 204 61 61
3 20 547 583 204 61 61
3 20 583 603 204 61 61
3 20 603 595 204 61 61
3 595 603 590 204 61 61
3 595 590 24 204 61 61
3 595 24 18 204 61 61
3 18 24 561 204 61 61
3 18 561 571 204 61 61
3 571 561 527 204 61 61
3 571 527 504 204 61 61
3 571 504 10 204 61 61
3 10 504 473 204 61 61
3 473 504 1 204 61 61
3 473 1 414 204 61 61
3 414 1 407 204 61 61
3 407 1 422 204 61 61
3 414 407 373 204 61 61
3 414 373 458 204 61 61
3 458 373 406 204 61 61
3 458 406 452 204 61 61
3 458 452 7 204 61 61
3 7 452 457 204 61 61
3 457 452 3 204 61 61
3 3 452 383 204 61 61
3 457 3 428 204 61 61
3 457 428 481 204 61 61
3 481 428 487 204 61 61
3 481 487 2 204 61 61
3 2 487 536 204 61 61
3 2 536 554 204 61 61
3 2 554 5 204 61 61
3 5 554 577 204 61 61
3 577 554 9 204 61 61
3 577 9 16 204 61 61
3 16 9 20 204 61 61
3 16 20 18 204 61 61
3 18 20 595 204 61 61
3 16 18 8 204 61 61
3 8 18 571 204 61 61
3 8 571 10 204 61 61
3 8 10 519 204 61 61
3 519 10 7 204 61 61
3 7 10 473 204 61 61
3 7 473 458 204 61 61
3 458 473 414 204 61 61
3 519 7 457 204 61 61
3 519 457 481 204 61 61
3 519 481 565 204 61 61
3 565 481 2 204 61 61
3 565 2 5 204 61 61
3 565 5 8 204 61 61
3 8 5 16 204 61 61
3 16 5 577 204 61 61
3 565 8 519 204 61 61
3 668 625 666 40 176 204
3 668 666 29 40 176 204
3 668 29 677 40 176 204
3 677 29 35 40 176 204
3 35 29 36 40 176 204
3 35 36 62 40 176 204
3 62 36 53 242 221 72
3 53 36 46 40 176 204
3 62 53 65 242 221 72
3 65 53 667 242 221 72
3 65 667 671 242 221 72
3 671 667 664 242 221 72
3 664 667 637 242 221 72
3 637 667 649 242 221 72
3 664 637 66 242 221 72
3 66 637 618 40 176 204
3 664 66 72 242 221 72
3 72 66 61 242 221 72
3 61 66 58 242 221 72
3 72 61 650 242 221 72
3 650 61 657 242 221 72
3 657 61 638 242 221 72
3 657 638 672 242 221 72
3 672 638 693 242 221 72
3 693 638 688 242 221 72
3 688 638 636 40 176 204
3 688 636 681 40 176 204
3 688 681 35 40 176 204
3 35 681 677 40 176 204
3 688 35 62 242 221 72
3 688 62 693 242 221 72
3 693 62 65 242 221 72
3 693 65 70 242 221 72
3 70 65 75 242 221 72
3 75 65 671 242 221 72
3 75 671 697 242 221 72
3 697 671 664 242 221 72
3 697 664 694 242 221 72
3 694 664 77 242 221 72
3 77 664 72 242 221 72
3 77 72 650 242 221 72
3 77 650 86 242 221 72
3 86 650 669 242 221 72
3 669 650 657 242 221 72
3 669 657 676 242 221 72
3 676 657 672 242 221 72
3 676 672 705 242 221 72
3 705 672 70 242 221 72
3 70 672 693 242 221 72
3 705 70 93 242 221 72
3 93 70 88 242 221 72
3 88 70 75 242 221 72
3 88 75 697 242 221 72
3 88 697 91 242 221 72
3 91 697 694 242 221 72
3 91 694 695 242 221 72
3 695 694 665 242 221 72
3 665 694 86 242 221 72
3 86 694 77 242 221 72
3 665 86 94 242 221 72
3 94 86 669 242 221 72
3 94 669 676 242 221 72
3 94 676 690 127 20 204
3 690 676 710 127 20 204
3 710 676 705 127 20 204
3 710 705 93 127 20 204
3 710 93 98 127 20 204
3 98 93 89 127 20 204
3 89 93 88 127 20 204
3 89 88 91 127 20 204
3 89 91 712 127 20 204
3 712 91 695 127 20 204
3 712 695 696 127 20 204
3 696 695 689 127 20 204
3 689 695 665 127 20 204
3 689 665 94 242 221 72
3 689 94 102 127 20 204
3 102 94 690 127 20 204
3 102 690 682 127 20 204
3 682 690 107 127 20 204
3 107 690 710 127 20 204
3 107 710 720 127 20 204
3 720 710 719 127 20 204
3 719 710 98 127 20 204
3 719 98 105 127 20 204
3 105 98 89 127 20 204
3 105 89 712 127 20 204
3 105 712 696 127 20 204
3 105 696 721 127 20 204
3 721 696 113 127 20 204
3 113 696 102 127 20 204
3 102 696 689 127 20 204
3 113 102 682 127 20 204
3 113 682 107 127 20 204
3 113 107 117 127 20 204
3 117 107 720 127 20 204
3 117 720 706 127 20 204
3 706 720 728 127 20 204
3 728 720 730 127 20 204
3 730 720 719 127 20 204
3 730 719 721 127 20 204
3 721 719 105 127 20 204
3 730 721 726 127 20 204
3 726 721 724 127 20 204
3 724 721 707 127 20 204
3 707 721 113 127 20 204
3 707 113 117 127 20 204
3 707 117 706 127 20 204
3 707 706 711 127 20 204
3 711 706 725 48 242 105
3 725 706 728 127 20 204
3 725 728 114 48 242 105
3 114 728 743 48 242 105
3 743 728 730 127 20 204
3 743 730 740 48 242 105
3 740 730 726 127 20 204
3 740 726 742 48 242 105
3 742 726 724 48 242 105
3 742 724 729 48 242 105
3 729 724 711 48 242 105
3 711 724 707 127 20 204
3 729 711 122 48 242 105
3 122 711 725 48 242 105
3 122 725 734 48 242 105
3 734 725 741 48 242 105
3 741 725 114 48 242 105
3 741 114 744 48 242 105
3 744 114 120 48 242 105
3 120 114 743 48 242 105
3 120 743 740 48 242 105
3 120 740 751 48 242 105
3 751 740 742 48 242 105
3 751 742 745 48 242 105
3 745 742 731 48 242 105
3 731 742 729 48 242 105
3 731 729 122 48 242 105
3 731 122 734 48 242 105
3 731 734 741 48 242 105
3 731 741 745 48 242 105
3 745 741 744 48 242 105
3 745 744 121 48 242 105
3 121 744 120 48 242 105
3 121 120 751 48 242 105
3 121 751 745 48 242 105
