ply
format ascii 1.0
element vertex 752
property float x
property float y
property float z
element face 1500
property list uchar int vertex_indices
property uchar red
property uchar green
property uchar blue
end_header
-0.176121 -0.345614 0.312571
-0.132994 -0.569829 0.245231
-0.112576 -0.727785 0.359572
-0.134045 -0.698413 0.303872
-0.073993 -0.649136 0.303707
-0.21748 -0.228844 0.038492
-0.211291 0.145477 -0.088057
-0.191765 0.181259 -0.16158
-0.214825 -0.007893 0.000897
-0.21392 -0.086384 0.020305
-0.169362 -0.25135 -0.216672
-0.124637 -0.327735 -0.219135
-0.036984 -0.348342 -0.158261
-0.203266 -0.35497 -0.059923
-0.178307 0.218588 -0.223551
-0.124696 0.115065 -0.025815
-0.177312 0.169605 -0.210888
-0.146943 0.187189 -0.081361
0.181485 -0.356853 0.188505
0.162838 -0.386451 0.279601
0.080707 -0.338819 0.290899
0.17991 -0.356314 0.350746
0.063506 -0.556837 0.230782
0.04386 -0.501738 0.243705
0.04129 -0.708533 0.320178
0.162511 -0.222601 0.051233
0.205233 0.205934 -0.077852
0.169568 0.16975 -0.161942
0.231969 -0.083585 -0.004424
0.200981 -0.106655 0.000438
0.212996 -0.209015 0.036148
0.092784 0.050166 -0.024463
0.179317 -0.260701 -0.071284
0.100351 -0.327171 -0.214452
-0.00647 -0.348548 -0.159484
0.165042 -0.350351 -0.049566
0.197499 -0.30807 0.004575
0.107121 -0.217531 -0.000453
-0.180879 -0.232514 0.112904
-0.22875 -0.247302 0.124261
-0.251147 -0.268003 0.064059
-0.263544 -0.337718 0.177686
-0.227248 -0.397125 0.217873
-0.138061 -0.383116 0.162007
-0.116607 -0.297106 0.168771
-0.10618 -0.341584 0.160442
-0.23774 -0.292164 0.287805
-0.25932 -0.298175 0.27337
-0.269678 -0.315099 0.230006
-0.286574 -0.346916 0.294103
-0.217974 -0.398642 0.236338
-0.188283 -0.307526 0.281825
-0.165732 -0.367182 0.259533
-0.242895 -0.353437 0.34251
-0.27395 -0.368302 0.328381
-0.277983 -0.404921 0.324695
-0.285902 -0.379822 0.293311
-0.194295 -0.380352 0.264913
-0.178431 -0.373727 0.335581
-0.191441 -0.400866 0.348571
-0.266544 -0.448051 0.31753
-0.244606 -0.425814 0.260356
-0.169996 -0.362154 0.293497
-0.142748 -0.473761 0.3346
-0.244762 -0.497808 0.282148
-0.234849 -0.487242 0.256189
-0.19955 -0.475512 0.232649
-0.174626 -0.461808 0.234208
-0.151467 -0.446936 0.247178
-0.14333 -0.423897 0.313606
-0.12833 -0.450748 0.277169
-0.210153 -0.541036 0.253116
-0.152812 -0.5149 0.23384
-0.107087 -0.573231 0.260726
-0.127574 -0.504369 0.247403
-0.093809 -0.636353 0.340729
-0.162793 -0.590901 0.346442
-0.097093 -0.685422 0.358693
-0.08875 -0.75006 0.374889
-0.141347 -0.661144 0.34825
-0.195842 -0.575625 0.336029
-0.143261 -0.689779 0.317682
-0.141383 -0.688802 0.335763
-0.180005 -0.598078 0.263794
-0.088172 -0.698602 0.283862
-0.109439 -0.508857 0.313798
-0.105767 -0.507133 0.291388
-0.052534 -0.720169 0.317614
-0.247322 -0.36559 0.162622
-0.177238 -0.397895 0.17841
-0.088156 -0.28273 0.097437
-0.186906 0.144804 -0.117714
-0.220149 0.211557 -0.176842
-0.194156 0.186724 -0.085091
-0.211991 0.187745 -0.173831
-0.208027 0.073019 -0.130722
-0.253294 0.070739 -0.090833
-0.283352 0.056339 -0.15214
-0.261105 0.046227 -0.167492
-0.230437 0.049244 -0.16164
-0.276647 0.036718 -0.097221
-0.284887 -0.004833 -0.105243
-0.269894 -0.019254 -0.128267
-0.272228 0.011753 -0.158279
-0.243133 -0.018532 -0.137915
-0.226663 0.022709 -0.08765
-0.238283 0.020397 -0.049527
-0.221958 -0.00868 -0.125202
-0.198039 -0.003721 -0.023975
-0.152265 -0.073935 0.073982
-0.172553 -0.084147 0.086463
-0.224402 -0.039293 0.016216
-0.201333 -0.096508 0.002292
-0.177812 -0.117832 0.072451
-0.181001 -0.089153 -0.006603
-0.179992 -0.031042 -0.021041
-0.149342 -0.109467 0.069797
0.003853 0.359334 -0.061005
-0.172739 -0.219889 -0.158145
-0.062257 -0.195966 -0.070861
-0.092338 -0.273476 -0.283246
-0.06369 -0.220842 -0.288153
-0.165109 -0.188069 -0.225034
-0.09634 -0.096137 -0.246132
-0.128052 -0.046563 -0.225278
-0.131697 0.049096 -0.232402
-0.142433 0.093865 -0.223242
-0.105753 0.10036 -0.2423
-0.102331 -0.223012 -0.090843
-0.050376 -0.244298 -0.069735
-0.020201 -0.237924 -0.064565
-0.203351 -0.269097 -0.115765
-0.089228 -0.317648 -0.255282
-0.189531 -0.383838 0.054992
-0.161084 -0.380117 -0.039822
-0.117637 -0.373783 -0.124631
-0.130929 -0.384887 -0.019692
-0.146803 -0.38585 0.034695
-0.06348 -0.326503 0.027489
-0.085914 -0.367683 -0.151626
-0.091742 -0.373916 -0.026811
-0.095666 -0.364213 0.038743
-0.06268 -0.349622 -0.026592
-0.053864 -0.355328 -0.166891
-0.034888 -0.337349 -0.084189
-0.021041 -0.330586 -0.231427
-0.123891 -0.050036 -0.102951
-0.159229 -0.178192 -0.150493
-0.069865 -0.02913 -0.054035
-0.156408 -0.370146 -0.100478
-0.229161 -0.357742 0.040737
-0.19518 -0.303331 -0.139236
-0.229803 -0.314952 -0.05951
-0.252387 -0.311003 0.027182
-0.241102 -0.251424 0.01807
-0.1851 -0.236578 -0.097716
-0.189881 -0.221058 -0.027449
-0.03119 -0.3092 -0.017822
-0.057042 -0.280424 0.010842
-0.123322 -0.229168 -0.068759
-0.078105 -0.254095 -0.060308
-0.11048 -0.242098 0.045355
-0.035273 -0.28981 -0.041806
-0.163262 0.081528 -0.19199
-0.158772 0.057882 -0.078331
-0.128566 0.048699 -0.035195
-0.08881 0.075146 -0.008536
-0.171067 0.240625 -0.088891
-0.195977 0.306569 -0.094344
-0.099163 0.14745 -0.245086
-0.219995 0.254517 -0.193175
-0.183996 0.265085 -0.212376
-0.099479 0.240028 -0.231644
-0.004425 0.211424 -0.221692
-0.168371 0.322086 -0.171547
-0.103691 0.290629 -0.202185
-0.015033 0.289085 -0.196554
-0.018525 0.111799 -0.029693
-0.167241 0.207907 -0.095618
-0.184294 0.15515 -0.184774
-0.151652 0.149327 -0.072211
-0.092013 0.187947 -0.063287
-0.243344 0.228122 -0.091619
-0.166657 0.337162 -0.140186
-0.212404 0.315645 -0.159116
-0.103792 0.316166 -0.156993
-0.080772 0.295179 -0.10284
-0.024848 0.263192 -0.073015
0.116213 -0.227285 0.121566
0.162621 -0.239751 0.138645
0.193758 -0.259435 0.082178
0.193743 -0.328049 0.198089
0.154744 -0.388849 0.235436
0.104764 -0.391193 0.190384
0.031337 -0.282215 0.116134
0.03922 -0.339063 0.161719
0.151713 -0.283114 0.302871
0.158108 -0.26782 0.257425
0.191715 -0.304555 0.250496
0.201155 -0.335831 0.316585
0.142817 -0.390201 0.249384
0.072676 -0.314439 0.251037
0.104255 -0.300262 0.291108
0.085807 -0.35901 0.265914
0.145464 -0.348414 0.356424
0.201619 -0.37143 0.321966
0.115526 -0.369992 0.275087
0.104985 -0.352889 0.345607
0.164651 -0.41105 0.273408
0.086889 -0.388298 0.345349
0.086241 -0.3541 0.299692
0.142987 -0.507771 0.333697
0.144958 -0.539486 0.297694
0.166032 -0.485987 0.290339
0.16046 -0.472994 0.263995
0.132624 -0.45743 0.237916
0.104476 -0.446809 0.234249
0.079091 -0.432533 0.24434
0.034171 -0.494998 0.259202
0.056215 -0.426004 0.274409
0.137426 -0.528086 0.253154
0.109649 -0.512938 0.228443
0.080059 -0.565967 0.231515
0.072174 -0.499186 0.228196
0.04665 -0.548224 0.236292
-0.016219 -0.729502 0.329911
0.076154 -0.585381 0.333817
0.021093 -0.722997 0.332036
0.046574 -0.643601 0.330754
0.030902 -0.739726 0.299583
0.096145 -0.568814 0.237723
0.028736 -0.700247 0.258133
-0.004122 -0.704036 0.25732
0.002575 -0.638985 0.307022
0.027525 -0.497972 0.275839
-0.023529 -0.711757 0.277973
0.197461 -0.31819 0.113696
0.179802 -0.351174 0.075056
0.247436 0.116908 -0.120492
0.179409 0.106674 -0.141853
0.202746 0.125964 -0.066821
0.183222 0.116401 -0.068692
0.218676 0.070378 -0.140144
0.165444 0.089273 -0.11421
0.204751 -0.033146 -0.107939
0.204972 0.005497 -0.053332
0.25785 0.018455 -0.090846
0.236475 -0.006485 -0.123362
0.220638 0.015089 -0.049219
0.249115 -0.073186 -0.023055
0.259995 -0.056824 -0.050176
0.231826 -0.066517 -0.102746
0.199346 -0.176809 -0.027036
0.218704 -0.192348 -0.034544
0.201656 -0.228577 0.001415
0.050991 0.05285 -0.01636
0.047197 -0.186549 -0.078734
0.131491 -0.180196 -0.148171
0.063489 -0.273792 -0.283685
-0.046221 -0.249536 -0.291388
0.144692 -0.187065 -0.177149
0.134152 -0.181993 -0.228375
0.033938 -0.147502 -0.264873
0.103021 -0.189697 -0.260914
0.068711 -0.097774 -0.245965
0.106857 0.026645 -0.226091
0.069935 0.029805 -0.248166
-0.018583 0.051685 -0.251804
0.107284 0.11789 -0.229409
0.128431 -0.215166 -0.134256
0.022962 -0.245685 -0.072308
-0.018371 -0.276977 -0.07293
0.144425 -0.3406 -0.128955
0.045513 -0.315782 -0.264314
-0.030985 -0.306025 -0.268356
0.138016 -0.378444 0.06619
0.083423 -0.373328 -0.123894
0.098181 -0.382469 0.041186
0.087711 -0.382691 -0.016901
0.012628 -0.325007 0.028405
0.052518 -0.367625 -0.153817
0.045019 -0.362913 0.03817
0.048284 -0.373144 -0.027974
0.011245 -0.344577 -0.031705
-0.009603 -0.337555 -0.085833
0.019808 -0.355739 -0.168935
-0.024085 -0.342486 -0.143426
0.113256 -0.06335 -0.138547
0.119231 -0.04863 -0.181014
0.122079 -0.368015 -0.095017
0.171054 -0.311215 -0.111314
0.186016 -0.322953 -0.049864
0.181868 -0.34273 0.013647
0.184452 -0.244714 -0.01851
0.19976 -0.282386 0.007965
0.144269 -0.216823 -0.018772
0.082566 -0.22803 -0.072519
0.002484 -0.305332 0.013184
0.028238 -0.259749 -0.063638
0.054912 -0.239769 0.034254
-0.002597 -0.289106 -0.049431
-0.018949 -0.292022 -0.070533
0.135868 0.038919 -0.163666
0.12134 0.050894 -0.056562
-0.06748 0.019504 -0.048659
0.137457 0.269076 -0.086804
0.075904 0.280735 -0.099363
0.152598 0.175782 -0.202667
0.191422 0.19229 -0.174993
0.144947 0.242386 -0.209211
0.213156 0.240503 -0.162745
0.156054 0.132686 -0.171356
0.146184 0.076186 -0.111485
0.139892 0.209317 -0.086474
0.119779 0.237854 -0.080022
0.036593 0.187956 -0.053408
0.093958 0.11774 -0.019444
-0.01858 0.16253 -0.049856
0.169123 0.298612 -0.099771
0.205291 0.275103 -0.126239
0.137142 0.319681 -0.134104
0.179568 0.309138 -0.131059
-0.002469 0.329667 -0.16959
0.044473 0.322754 -0.155192
0.073048 0.313994 -0.139331
0.052641 0.302243 -0.101372
-0.072627 0.468471 -0.047967
-0.067005 0.56607 -0.097565
-0.086671 0.547447 -0.125143
-0.04273 0.553952 -0.034323
-0.012551 0.514652 -0.003577
-0.035464 0.39198 -0.159194
-0.099462 0.514153 -0.144616
-0.09104 0.447882 -0.156747
-0.055432 0.376754 -0.127875
-0.099233 0.451061 -0.132935
-0.056826 0.369143 -0.104152
0.028307 0.356132 -0.025359
-0.017238 0.432545 -0.007301
-0.107944 0.500247 -0.114216
-0.091397 0.527189 -0.071274
-0.057179 0.426501 -0.046409
0.009841 0.45313 -0.005401
-0.093967 0.441867 -0.11237
-0.039891 0.373576 -0.072109
-0.029784 0.378258 -0.037853
-0.087045 0.456472 -0.077565
0.046782 0.490978 -0.155028
-0.018517 0.583905 -0.089294
0.003348 0.571265 -0.139114
-0.012403 0.555217 -0.169223
0.02437 0.546827 -0.160286
0.051478 0.561187 -0.086102
0.035631 0.544793 -0.027716
-0.067409 0.518534 -0.178662
-0.066427 0.467925 -0.185091
-0.060544 0.436696 -0.182848
-0.01987 0.459184 -0.198664
0.002422 0.411645 -0.176389
0.031715 0.359989 -0.130782
0.081829 0.464821 -0.072538
0.040683 0.384608 -0.002355
-0.015329 0.521667 -0.194433
0.009171 0.573142 -0.047274
0.081123 0.416754 -0.048648
0.072964 0.490923 -0.045135
0.044756 0.472696 -0.01808
0.019497 0.482577 -0.184627
0.051979 0.537187 -0.124463
0.049702 0.361797 -0.057273
0.046392 0.399964 -0.125484
0.026055 0.386432 -0.149108
0.064303 0.401454 -0.111217
0.055319 0.469287 -0.142952
-0.041988 0.567212 -0.150062
0.268312 -0.284033 0.052305
0.264733 -0.242432 0.002334
0.256742 -0.258927 -0.004421
0.240796 -0.290923 0.038397
0.208766 -0.285647 0.024248
0.275998 -0.350293 0.023132
0.280079 -0.337739 0.040956
0.287518 -0.274141 0.023442
0.265484 -0.308788 0.049733
0.274949 -0.325493 0.062531
0.250967 -0.347067 0.081032
0.261324 -0.338113 0.085431
0.263945 -0.349354 0.074299
0.266376 -0.362851 0.043444
0.265977 -0.328295 0.06616
0.26364 -0.360238 0.026007
0.190102 -0.250538 0.03519
0.200266 -0.261145 0.055536
0.208771 -0.308667 0.0509
0.204585 -0.294758 0.059651
0.267569 -0.322211 0.035932
0.257792 -0.290637 0.067761
0.24517 -0.284795 0.07174
0.227993 -0.284319 0.074093
0.225893 -0.301399 0.066212
0.288978 -0.299369 0.016561
0.279948 -0.309357 0.033944
0.255334 -0.31576 0.058615
0.262514 -0.301225 0.044143
0.276169 -0.274071 0.034402
0.28457 -0.300057 0.027971
-0.180149 -0.1044 0.166016
-0.138768 -0.075682 0.099211
-0.193027 -0.104794 0.105705
-0.18513 -0.127304 0.113622
-0.136968 -0.10509 0.140865
-0.143231 -0.118727 0.094735
-0.175439 -0.122263 0.169293
-0.138124 -0.14035 0.201278
-0.097115 -0.088474 0.201317
-0.107785 -0.096757 0.202935
-0.095653 -0.106854 0.209677
-0.111353 -0.131978 0.20831
-0.123072 -0.095738 0.190914
-0.114447 -0.113292 0.191983
-0.140461 -0.114395 0.195087
-0.133424 -0.129124 0.188285
-0.109217 -0.112222 0.097732
-0.118301 -0.11676 0.111558
-0.106878 -0.085419 0.144389
-0.112865 -0.082403 0.105336
-0.109492 -0.095763 0.09137
-0.077891 -0.103555 0.155651
-0.15843 -0.085367 0.152659
-0.160897 -0.104289 0.169422
-0.132134 -0.102962 0.197139
-0.137827 -0.078077 0.160782
-0.117503 -0.080634 0.181857
-0.125473 -0.069668 0.142036
-0.14162 -0.101541 0.16472
-0.163645 -0.113598 0.161582
0.003309 -0.828733 0.3285
-0.023728 -0.821337 0.316788
-0.036489 -0.807311 0.353578
-0.033233 -0.768346 0.333445
-0.04293 -0.840458 0.358676
-0.035298 -0.867064 0.427091
-0.031636 -0.849309 0.432121
-0.037869 -0.834677 0.39663
-0.020751 -0.784352 0.362916
-0.013437 -0.857435 0.445478
-0.005771 -0.780225 0.361728
-0.015194 -0.867983 0.445788
-0.00846 -0.869966 0.421545
0.047559 -0.862031 0.41277
0.047477 -0.841443 0.40031
-0.005423 -0.838813 0.416196
0.027616 -0.811885 0.381203
0.043075 -0.836002 0.360425
0.043523 -0.824646 0.352456
0.032054 -0.800687 0.355314
0.020629 -0.779261 0.347107
0.036641 -0.812219 0.304948
0.037937 -0.794347 0.308476
0.028068 -0.763907 0.312268
0.025715 -0.801124 0.250627
0.035372 -0.78697 0.265024
0.028014 -0.762449 0.277031
0.019836 -0.766652 0.233352
-0.002664 -0.774756 0.220708
-0.009728 -0.73193 0.253362
-0.023235 -0.803435 0.265317
-0.031035 -0.785237 0.239036
-0.033118 -0.808788 0.319399
-0.03291 -0.782866 0.282468
-0.090931 -0.834178 0.367026
-0.061377 -0.825479 0.365603
-0.055765 -0.809803 0.372266
-0.058528 -0.840985 0.411048
-0.062981 -0.810611 0.403526
-0.060753 -0.76684 0.378292
-0.067908 -0.85827 0.446183
-0.08686 -0.86536 0.475039
-0.093337 -0.847836 0.477357
-0.076042 -0.834251 0.445434
-0.082804 -0.786715 0.404627
-0.110225 -0.870589 0.460744
-0.114675 -0.856716 0.484183
-0.104535 -0.8364 0.451185
-0.096826 -0.783851 0.398096
-0.112425 -0.867031 0.48577
-0.158442 -0.864663 0.4335
-0.142982 -0.845752 0.436356
-0.138897 -0.825541 0.411452
-0.13904 -0.843093 0.383716
-0.137158 -0.832035 0.375304
-0.128891 -0.807262 0.380278
-0.114788 -0.821131 0.332506
-0.118324 -0.802214 0.335622
-0.109205 -0.760136 0.334132
-0.098502 -0.814196 0.297679
-0.099243 -0.79434 0.291875
-0.101236 -0.754704 0.308539
-0.073854 -0.808807 0.272826
-0.078707 -0.775554 0.269552
-0.080995 -0.750906 0.29559
-0.056978 -0.760861 0.272225
-0.042278 -0.80957 0.313625
-0.050618 -0.797067 0.270521
-0.036636 -0.777925 0.292824
-0.045539 -0.772379 0.329957
-0.053486 -0.729088 0.35122
-0.108307 -0.765938 0.365813
-0.097374 -0.738222 0.299002
-0.064501 -0.723532 0.296757
-0.138815 -0.240809 0.105624
-0.243955 -0.337298 0.039607
-0.228031 -0.378752 0.129245
-0.196017 -0.399275 0.174794
-0.111319 -0.265321 0.120563
-0.159416 -0.255892 0.16496
-0.20485 -0.232855 0.103416
-0.241752 -0.25265 0.092931
-0.117647 -0.363284 0.165635
-0.094548 -0.312435 0.137134
-0.205777 -0.269902 0.226522
-0.231779 -0.271938 0.231033
-0.269381 -0.371606 0.242297
-0.252292 -0.391472 0.244021
-0.154173 -0.379665 0.233472
-0.152446 -0.345085 0.262219
-0.199423 -0.331251 0.322088
-0.255218 -0.31239 0.316319
-0.26344 -0.401256 0.270452
-0.239409 -0.407751 0.354576
-0.208493 -0.411864 0.250413
-0.167421 -0.392158 0.27006
-0.180851 -0.467832 0.347001
-0.211757 -0.479279 0.348153
-0.250712 -0.447336 0.341748
-0.21349 -0.566121 0.315628
-0.222734 -0.553469 0.291741
-0.178493 -0.528872 0.232671
-0.106128 -0.518038 0.275798
-0.12861 -0.618553 0.348008
-0.150501 -0.596536 0.248686
-0.078384 -0.645609 0.327152
-0.076715 -0.265743 0.022935
-0.14975 -0.221753 0.02667
-0.193377 -0.220546 0.034285
-0.255265 -0.28675 0.0479
-0.195498 -0.370357 -0.019398
-0.114079 -0.376553 0.03687
-0.079601 -0.345955 0.041512
-0.057661 -0.304633 0.028175
-0.254738 0.113901 -0.170121
-0.260939 0.217326 -0.113095
-0.201317 0.130826 -0.157036
-0.274214 0.162577 -0.144829
-0.182907 0.149309 -0.140262
-0.240357 0.227286 -0.169159
-0.238254 0.27779 -0.152248
-0.227687 0.298812 -0.11735
-0.216357 0.239672 -0.078258
-0.216023 0.078662 -0.099189
-0.291657 0.024517 -0.110164
-0.233175 0.035314 -0.112298
-0.25738 0.03632 -0.093687
-0.295453 0.028042 -0.128007
-0.239575 0.011988 -0.158149
-0.225407 0.025716 -0.138908
-0.218808 0.008875 -0.110088
-0.26841 6.5e-05 -0.055666
-0.266737 -0.033592 -0.06551
-0.253131 -0.049414 -0.087745
-0.229902 -0.04411 -0.104506
-0.187273 -0.105323 0.078031
-0.173355 -0.066297 -0.014068
-0.145216 -0.090534 0.065225
-0.165798 -0.117155 0.063739
-0.06775 0.340583 -0.126561
-0.043568 0.334249 -0.070233
-0.093135 0.045777 -0.249593
-0.174945 0.100041 -0.10761
-0.126215 0.078582 -0.019007
-0.127322 -0.132637 -0.106941
-0.0801 -0.122811 -0.062725
-0.146084 -0.073172 -0.146836
-0.135809 -0.216756 -0.115359
-0.175827 -0.320305 -0.161049
-0.132362 -0.283669 -0.252681
-0.185098 -0.256037 -0.164923
-0.141272 -0.204091 -0.258829
-0.099219 -0.218208 -0.281238
-0.17415 -0.194108 -0.187094
-0.060551 -0.142976 -0.263737
-0.136258 -0.086726 -0.21978
-0.147515 -0.072593 -0.185255
-0.012244 -0.090685 -0.25651
-0.04218 0.092946 -0.247471
-0.1457 0.147354 -0.233246
-0.184945 -0.247041 -0.130672
-0.237052 -0.29061 -0.049423
-0.15137 -0.223917 -0.086539
-0.173258 -0.348513 -0.127042
-0.134797 -0.35676 -0.161419
-0.09985 -0.348904 -0.208629
-0.06777 -0.339361 -0.233199
-0.118645 -0.382027 -0.064585
-0.086954 -0.374748 -0.082917
-0.0575 -0.358102 -0.093435
-0.160317 0.029727 -0.158439
-0.027325 -0.015951 -0.043142
-0.219103 -0.335677 -0.066438
-0.228245 -0.253515 -0.04085
-0.149968 0.019809 -0.120839
-0.119604 0.013155 -0.074017
-0.161828 0.325843 -0.110622
-0.117019 0.295869 -0.106453
-0.146359 0.245598 -0.095017
-0.198666 0.205748 -0.190908
-0.078835 0.30628 -0.181472
-0.154452 0.091509 -0.04557
-0.087975 0.123918 -0.022217
-0.175333 0.155146 -0.116048
-0.201172 0.329365 -0.123
-0.07146 0.32241 -0.154592
-0.092227 0.3117 -0.130666
-0.030064 -0.724384 0.308679
-0.004272 -0.745464 0.338106
0.017739 -0.74962 0.328157
0.0087 -0.739329 0.258174
0.042677 -0.260848 0.100096
0.075532 -0.237025 0.108118
0.166462 -0.373601 0.174194
0.130041 -0.392759 0.191163
0.057326 -0.27156 0.159487
0.088929 -0.251253 0.17142
0.141133 -0.22645 0.114244
0.179917 -0.245103 0.111194
0.197539 -0.284506 0.116237
0.06045 -0.369405 0.18884
0.02879 -0.309936 0.13448
0.127272 -0.262232 0.237154
0.177876 -0.292395 0.29557
0.189708 -0.372031 0.273422
0.076962 -0.371004 0.24328
0.066083 -0.339852 0.253043
0.098776 -0.329807 0.329847
0.165494 -0.303036 0.333827
0.189617 -0.391458 0.301146
0.13478 -0.405483 0.364567
0.161986 -0.397494 0.361837
0.180661 -0.415676 0.347633
0.187804 -0.424571 0.321231
0.132842 -0.400706 0.258277
0.088345 -0.38377 0.271823
0.054235 -0.472928 0.325797
0.092057 -0.460645 0.345821
0.123046 -0.472232 0.35104
0.074958 -0.375531 0.315892
0.156667 -0.439032 0.354242
0.140254 -0.538692 0.315978
0.127056 -0.565243 0.267087
0.027945 -0.617442 0.322459
0.078295 -0.618871 0.327058
0.073325 -0.657998 0.312433
0.001603 -0.633849 0.268326
0.027446 -0.501874 0.298348
0.031504 -0.734965 0.280618
0.10512 -0.581009 0.249589
-0.004547 -0.642678 0.285772
0.015535 -0.274895 0.024091
0.100307 -0.219456 0.057009
0.138908 -0.215362 0.043966
0.180329 -0.235078 0.03601
0.159231 -0.367554 0.056815
0.064497 -0.374542 0.039106
0.026962 -0.345687 0.030134
0.194392 0.127679 -0.15453
0.233297 0.199411 -0.124179
0.229927 0.189366 -0.094698
0.17269 0.189726 -0.071584
0.155332 0.127523 -0.126455
0.208236 0.178292 -0.16297
0.167138 0.10165 -0.083973
0.251414 0.042117 -0.077051
0.236084 0.090175 -0.135386
0.212547 -0.010828 -0.121772
0.193222 -0.006075 -0.068905
0.237372 0.029686 -0.057831
0.254008 0.007742 -0.108446
0.191948 -0.01642 -0.094439
0.247637 -0.055342 -0.099867
0.190568 -0.11475 -0.031722
0.258927 -0.059295 -0.081138
0.237499 -0.169802 -0.045246
0.216135 -0.078901 -0.09511
0.196832 -0.215264 0.02581
0.235251 -0.230925 0.033662
0.243901 -0.225808 0.015447
0.247727 -0.176769 -0.028774
0.2347 -0.232816 -0.005152
0.219174 -0.260469 0.007933
0.034878 0.364668 -0.097046
0.122997 0.0793 -0.041816
0.092071 0.087647 -0.012462
0.051185 -0.129368 -0.065086
0.05285 -0.018143 -0.06136
0.158115 -0.255693 -0.140173
0.13896 -0.295062 -0.19626
0.098066 -0.289489 -0.252432
0.024279 -0.268068 -0.291817
0.150634 -0.229928 -0.193791
0.138015 -0.252863 -0.22064
0.102414 -0.250638 -0.264282
0.047678 -0.222062 -0.289114
0.120875 -0.094143 -0.195343
0.090906 -0.079838 -0.231209
0.108564 -0.046104 -0.211471
0.130874 0.077692 -0.202005
0.073358 0.144814 -0.235834
0.161741 -0.284376 -0.148023
0.063889 -0.22168 -0.090094
0.191316 -0.28545 -0.055556
0.142984 -0.233659 -0.111625
0.108809 -0.222549 -0.098133
0.104003 -0.356293 -0.159281
0.069525 -0.349438 -0.208942
0.032971 -0.338877 -0.235443
0.134709 -0.373476 -0.026268
0.080237 -0.380862 -0.062645
0.048742 -0.374593 -0.084129
0.018832 -0.35841 -0.096209
0.123521 0.024539 -0.115345
0.087017 -0.039987 -0.094115
0.093811 -0.130218 -0.101588
0.078683 -0.228603 -0.020909
0.091944 0.015813 -0.068697
0.029094 0.016803 -0.047644
0.164073 0.252471 -0.081496
0.19667 0.237458 -0.19123
0.084647 0.250359 -0.214889
0.185853 0.295388 -0.163605
0.139886 0.311501 -0.169087
0.068307 0.295767 -0.18734
0.13643 0.139044 -0.076049
0.051277 0.103025 -0.00611
0.144153 0.169584 -0.087281
0.102023 0.170296 -0.054587
0.031219 0.278053 -0.082212
-0.016095 0.367601 -0.157644
-0.015909 0.067155 -0.029349
0.005522 -0.130059 -0.047124
-0.025609 -0.133327 -0.046309
-0.035531 -0.272179 -0.288364
-0.020481 -0.317316 -0.063744
3 371 359 746 204 61 61
3 746 359 322 204 61 61
3 322 359 323 40 176 204
3 323 359 324 40 176 204
3 324 359 325 204 61 61
3 325 359 699 204 61 61
3 699 359 370 204 61 61
3 370 359 371 204 61 61
3 370 371 367 204 61 61
3 367 371 358 204 61 61
3 358 371 746 204 61 61
3 358 746 331 204 61 61
3 331 746 334 204 61 61
3 334 746 575 204 61 61
3 575 746 621 204 61 61
3 621 746 322 40 176 204
3 621 322 616 40 176 204
3 616 322 176 40 176 204
3 176 322 740 40 176 204
3 740 322 323 40 176 204
3 740 323 324 40 176 204
3 740 324 739 40 176 204
3 739 324 320 40 176 204
3 320 324 318 40 176 204
3 318 324 306 40 176 204
3 306 324 325 40 176 204
3 306 325 745 40 176 204
3 745 325 117 204 61 61
3 117 325 699 204 61 61
3 117 699 369 204 61 61
3 369 699 370 204 61 61
3 369 370 372 204 61 61
3 372 370 373 204 61 61
3 373 370 347 204 61 61
3 347 370 367 204 61 61
3 347 367 351 204 61 61
3 351 367 362 204 61 61
3 362 367 357 204 61 61
3 357 367 358 204 61 61
3 357 358 356 204 61 61
3 356 358 331 204 61 61
3 356 331 334 204 61 61
3 356 334 333 204 61 61
3 333 334 336 204 61 61
3 336 334 575 204 61 61
3 336 575 186 204 61 61
3 186 575 622 204 61 61
3 622 575 621 40 176 204
3 622 621 185 40 176 204
3 185 621 616 40 176 204
3 185 616 174 40 176 204
3 174 616 175 40 176 204
3 175 616 176 40 176 204
3 175 176 172 40 176 204
3 172 176 173 40 176 204
3 173 176 737 40 176 204
3 737 176 740 40 176 204
3 737 740 309 40 176 204
3 309 740 739 40 176 204
3 309 739 738 40 176 204
3 738 739 321 40 176 204
3 321 739 320 40 176 204
3 321 320 318 40 176 204
3 321 318 319 40 176 204
3 319 318 26 40 176 204
3 26 318 735 40 176 204
3 735 318 305 40 176 204
3 305 318 306 40 176 204
3 305 306 314 40 176 204
3 314 306 744 40 176 204
3 744 306 745 40 176 204
3 744 745 315 40 176 204
3 315 745 187 40 176 204
3 187 745 117 204 61 61
3 187 117 576 204 61 61
3 576 117 344 204 61 61
3 344 117 345 204 61 61
3 345 117 337 204 61 61
3 337 117 369 204 61 61
3 337 369 361 204 61 61
3 361 369 364 204 61 61
3 364 369 372 204 61 61
3 364 372 360 204 61 61
3 360 372 373 204 61 61
3 360 373 368 204 61 61
3 368 373 347 204 61 61
3 368 347 351 204 61 61
3 368 351 352 204 61 61
3 352 351 349 204 61 61
3 349 351 350 204 61 61
3 350 351 362 204 61 61
3 350 362 374 204 61 61
3 374 362 354 204 61 61
3 354 362 357 204 61 61
3 354 357 355 204 61 61
3 355 357 356 204 61 61
3 355 356 333 204 61 61
3 355 333 354 204 61 61
3 354 333 332 204 61 61
3 332 333 335 204 61 61
3 335 333 336 204 61 61
3 335 336 343 204 61 61
3 343 336 346 204 61 61
3 346 336 344 204 61 61
3 344 336 576 204 61 61
3 576 336 186 204 61 61
3 576 186 187 204 61 61
3 187 186 181 40 176 204
3 181 186 17 40 176 204
3 17 186 614 40 176 204
3 614 186 613 40 176 204
3 613 186 622 204 61 61
3 613 622 612 40 176 204
3 612 622 183 40 176 204
3 183 622 185 40 176 204
3 183 185 174 40 176 204
3 183 174 184 40 176 204
3 184 174 171 40 176 204
3 171 174 175 40 176 204
3 171 175 172 40 176 204
3 171 172 14 40 176 204
3 14 172 169 40 176 204
3 169 172 594 40 176 204
3 594 172 173 40 176 204
3 594 173 716 40 176 204
3 716 173 737 40 176 204
3 716 737 309 40 176 204
3 716 309 307 40 176 204
3 307 309 736 40 176 204
3 736 309 738 40 176 204
3 736 738 310 40 176 204
3 310 738 319 40 176 204
3 319 738 321 40 176 204
3 310 319 675 242 221 72
3 675 319 676 242 221 72
3 676 319 26 242 221 72
3 676 26 685 242 221 72
3 685 26 240 242 221 72
3 240 26 677 242 221 72
3 677 26 735 242 221 72
3 677 735 313 242 221 72
3 313 735 305 40 176 204
3 313 305 314 40 176 204
3 313 314 744 40 176 204
3 313 744 743 40 176 204
3 743 744 741 40 176 204
3 741 744 316 40 176 204
3 316 744 315 40 176 204
3 316 315 742 40 176 204
3 742 315 317 40 176 204
3 317 315 187 40 176 204
3 317 187 181 40 176 204
3 317 181 618 40 176 204
3 618 181 15 40 176 204
3 15 181 180 40 176 204
3 180 181 17 40 176 204
3 180 17 619 40 176 204
3 619 17 93 40 176 204
3 93 17 178 40 176 204
3 178 17 614 40 176 204
3 178 614 167 40 176 204
3 167 614 168 40 176 204
3 168 614 613 40 176 204
3 168 613 612 40 176 204
3 168 612 620 40 176 204
3 620 612 183 40 176 204
3 620 183 184 40 176 204
3 620 184 557 40 176 204
3 557 184 556 40 176 204
3 556 184 170 40 176 204
3 170 184 171 40 176 204
3 170 171 14 40 176 204
3 170 14 615 40 176 204
3 615 14 16 40 176 204
3 16 14 595 40 176 204
3 595 14 169 40 176 204
3 595 169 127 40 176 204
3 127 169 594 40 176 204
3 127 594 577 40 176 204
3 577 594 267 40 176 204
3 267 594 716 40 176 204
3 267 716 266 40 176 204
3 266 716 268 40 176 204
3 268 716 307 40 176 204
3 268 307 715 40 176 204
3 715 307 311 40 176 204
3 311 307 27 40 176 204
3 27 307 308 242 221 72
3 308 307 736 40 176 204
3 308 736 679 242 221 72
3 679 736 310 242 221 72
3 679 310 238 242 221 72
3 238 310 675 242 221 72
3 238 675 676 242 221 72
3 238 676 681 242 221 72
3 681 676 685 242 221 72
3 681 685 28 242 221 72
3 28 685 248 242 221 72
3 248 685 240 242 221 72
3 248 240 241 242 221 72
3 241 240 677 242 221 72
3 241 677 743 242 221 72
3 743 677 313 242 221 72
3 241 743 680 242 221 72
3 680 743 678 242 221 72
3 678 743 741 40 176 204
3 678 741 312 40 176 204
3 312 741 700 40 176 204
3 700 741 316 40 176 204
3 700 316 701 40 176 204
3 701 316 742 40 176 204
3 701 742 255 40 176 204
3 255 742 747 40 176 204
3 747 742 177 40 176 204
3 177 742 317 40 176 204
3 177 317 618 40 176 204
3 177 618 166 40 176 204
3 166 618 15 40 176 204
3 166 15 579 40 176 204
3 579 15 617 40 176 204
3 617 15 180 40 176 204
3 617 180 578 40 176 204
3 578 180 619 40 176 204
3 578 619 554 40 176 204
3 554 619 91 242 221 72
3 91 619 6 242 221 72
3 6 619 93 242 221 72
3 6 93 558 242 221 72
3 558 93 167 40 176 204
3 167 93 178 40 176 204
3 558 167 168 40 176 204
3 558 168 182 242 221 72
3 182 168 557 242 221 72
3 557 168 620 40 176 204
3 182 557 551 242 221 72
3 551 557 556 242 221 72
3 551 556 553 242 221 72
3 553 556 555 242 221 72
3 555 556 170 242 221 72
3 555 170 92 242 221 72
3 92 170 615 242 221 72
3 92 615 94 242 221 72
3 94 615 7 242 221 72
3 7 615 179 40 176 204
3 179 615 16 40 176 204
3 179 16 163 40 176 204
3 163 16 126 40 176 204
3 126 16 595 40 176 204
3 126 595 127 40 176 204
3 126 127 125 40 176 204
3 125 127 577 40 176 204
3 125 577 123 40 176 204
3 123 577 593 40 176 204
3 593 577 267 40 176 204
3 593 267 266 40 176 204
3 593 266 264 40 176 204
3 264 266 713 40 176 204
3 713 266 265 40 176 204
3 265 266 268 40 176 204
3 265 268 715 40 176 204
3 265 715 714 40 176 204
3 714 715 302 40 176 204
3 302 715 311 40 176 204
3 302 311 312 40 176 204
3 312 311 678 40 176 204
3 678 311 27 40 176 204
3 678 27 239 242 221 72
3 239 27 674 242 221 72
3 674 27 308 242 221 72
3 674 308 679 242 221 72
3 674 679 242 242 221 72
3 242 679 682 242 221 72
3 682 679 238 242 221 72
3 682 238 246 242 221 72
3 246 238 681 242 221 72
3 246 681 250 127 20 204
3 250 681 249 127 20 204
3 249 681 28 127 20 204
3 249 28 694 127 20 204
3 694 28 30 127 20 204
3 30 28 29 127 20 204
3 29 28 248 127 20 204
3 29 248 245 242 221 72
3 245 248 241 242 221 72
3 245 241 680 242 221 72
3 245 680 684 242 221 72
3 684 680 243 242 221 72
3 243 680 678 242 221 72
3 243 678 239 242 221 72
3 243 239 244 242 221 72
3 244 239 683 242 221 72
3 683 239 674 242 221 72
3 683 674 242 242 221 72
3 683 242 247 242 221 72
3 247 242 682 242 221 72
3 247 682 686 242 221 72
3 686 682 246 242 221 72
3 686 246 690 242 221 72
3 690 246 250 127 20 204
3 690 250 696 127 20 204
3 696 250 695 127 20 204
3 695 250 694 127 20 204
3 694 250 249 127 20 204
3 695 694 376 127 20 204
3 376 694 382 48 242 105
3 382 694 404 48 242 105
3 404 694 375 48 242 105
3 375 694 397 48 242 105
3 397 694 398 48 242 105
3 398 694 30 127 20 204
3 398 30 392 127 20 204
3 392 30 693 127 20 204
3 693 30 29 127 20 204
3 693 29 689 127 20 204
3 689 29 684 127 20 204
3 684 29 245 242 221 72
3 689 684 687 127 20 204
3 687 684 243 242 221 72
3 687 243 244 242 221 72
3 687 244 252 127 20 204
3 252 244 692 127 20 204
3 692 244 683 242 221 72
3 692 683 251 242 221 72
3 251 683 247 242 221 72
3 251 247 688 242 221 72
3 688 247 690 242 221 72
3 690 247 686 242 221 72
3 688 690 691 127 20 204
3 691 690 696 127 20 204
3 691 696 697 127 20 204
3 697 696 695 127 20 204
3 697 695 376 127 20 204
3 697 376 377 127 20 204
3 377 376 382 48 242 105
3 377 382 400 48 242 105
3 400 382 405 48 242 105
3 405 382 404 48 242 105
3 405 404 401 48 242 105
3 401 404 375 48 242 105
3 401 375 381 48 242 105
3 381 375 403 48 242 105
3 403 375 383 48 242 105
3 383 375 384 48 242 105
3 384 375 396 48 242 105
3 396 375 397 48 242 105
3 396 397 378 48 242 105
3 378 397 387 48 242 105
3 387 397 386 48 242 105
3 386 397 398 48 242 105
3 386 398 385 48 242 105
3 385 398 399 48 242 105
3 399 398 394 48 242 105
3 394 398 392 48 242 105
3 394 392 379 48 242 105
3 379 392 391 127 20 204
3 391 392 693 127 20 204
3 391 693 254 127 20 204
3 254 693 252 127 20 204
3 252 693 689 127 20 204
3 252 689 687 127 20 204
3 254 252 698 127 20 204
3 698 252 253 127 20 204
3 253 252 692 127 20 204
3 253 692 251 127 20 204
3 253 251 691 127 20 204
3 691 251 688 127 20 204
3 253 691 697 127 20 204
3 253 697 698 127 20 204
3 698 697 377 127 20 204
3 698 377 378 48 242 105
3 378 377 405 48 242 105
3 405 377 400 48 242 105
3 378 405 403 48 242 105
3 403 405 401 48 242 105
3 403 401 395 48 242 105
3 395 401 380 48 242 105
3 380 401 381 48 242 105
3 380 381 390 48 242 105
3 390 381 395 48 242 105
3 395 381 403 48 242 105
3 390 395 380 48 242 105
3 378 403 402 48 242 105
3 402 403 383 48 242 105
3 402 383 388 48 242 105
3 388 383 384 48 242 105
3 388 384 389 48 242 105
3 389 384 396 48 242 105
3 389 396 402 48 242 105
3 402 396 378 48 242 105
3 389 402 388 48 242 105
3 698 378 379 48 242 105
3 379 378 393 48 242 105
3 393 378 399 48 242 105
3 399 378 387 48 242 105
3 399 387 385 48 242 105
3 385 387 386 48 242 105
3 393 399 394 48 242 105
3 393 394 379 48 242 105
3 698 379 254 127 20 204
3 254 379 391 127 20 204
3 302 312 729 40 176 204
3 729 312 303 40 176 204
3 303 312 700 40 176 204
3 303 700 31 40 176 204
3 31 700 701 40 176 204
3 31 701 255 40 176 204
3 31 255 734 40 176 204
3 734 255 747 40 176 204
3 734 747 304 40 176 204
3 304 747 166 40 176 204
3 166 747 177 40 176 204
3 304 166 165 40 176 204
3 165 166 579 40 176 204
3 165 579 617 40 176 204
3 165 617 164 40 176 204
3 164 617 578 40 176 204
3 164 578 610 40 176 204
3 610 578 606 40 176 204
3 606 578 179 40 176 204
3 179 578 554 40 176 204
3 179 554 7 40 176 204
3 7 554 552 242 221 72
3 552 554 91 242 221 72
3 552 91 95 242 221 72
3 95 91 559 242 221 72
3 559 91 6 242 221 72
3 559 6 96 242 221 72
3 96 6 182 242 221 72
3 182 6 558 242 221 72
3 96 182 560 242 221 72
3 560 182 551 242 221 72
3 560 551 563 242 221 72
3 563 551 553 242 221 72
3 563 553 97 242 221 72
3 97 553 550 242 221 72
3 550 553 555 242 221 72
3 550 555 92 242 221 72
3 550 92 94 242 221 72
3 550 94 99 242 221 72
3 99 94 552 242 221 72
3 552 94 7 242 221 72
3 99 552 95 242 221 72
3 99 95 565 242 221 72
3 565 95 561 242 221 72
3 561 95 559 242 221 72
3 561 559 96 242 221 72
3 561 96 562 242 221 72
3 562 96 100 242 221 72
3 100 96 560 242 221 72
3 100 560 567 242 221 72
3 567 560 568 127 20 204
3 568 560 101 242 221 72
3 101 560 563 242 221 72
3 101 563 102 242 221 72
3 102 563 103 242 221 72
3 103 563 97 242 221 72
3 103 97 98 242 221 72
3 98 97 550 242 221 72
3 98 550 99 242 221 72
3 98 99 564 242 221 72
3 564 99 565 242 221 72
3 564 565 107 242 221 72
3 107 565 566 242 221 72
3 566 565 561 242 221 72
3 566 561 105 242 221 72
3 105 561 562 242 221 72
3 105 562 106 127 20 204
3 106 562 567 127 20 204
3 567 562 100 127 20 204
3 106 567 8 127 20 204
3 8 567 111 127 20 204
3 111 567 571 127 20 204
3 571 567 568 127 20 204
3 571 568 9 127 20 204
3 9 568 569 127 20 204
3 569 568 101 127 20 204
3 569 101 102 242 221 72
3 569 102 570 127 20 204
3 570 102 104 242 221 72
3 104 102 103 242 221 72
3 104 103 564 242 221 72
3 564 103 98 242 221 72
3 104 564 107 242 221 72
3 104 107 570 127 20 204
3 570 107 572 127 20 204
3 572 107 566 127 20 204
3 572 566 115 127 20 204
3 115 566 108 127 20 204
3 108 566 105 127 20 204
3 108 105 106 127 20 204
3 108 106 8 127 20 204
3 108 8 109 127 20 204
3 109 8 110 127 20 204
3 110 8 111 127 20 204
3 110 111 571 127 20 204
3 110 571 408 127 20 204
3 408 571 409 127 20 204
3 409 571 113 127 20 204
3 113 571 9 127 20 204
3 113 9 112 127 20 204
3 112 9 569 127 20 204
3 112 569 570 127 20 204
3 112 570 114 127 20 204
3 114 570 572 127 20 204
3 114 572 116 127 20 204
3 116 572 573 127 20 204
3 573 572 115 127 20 204
3 573 115 109 127 20 204
3 109 115 108 127 20 204
3 573 109 425 127 20 204
3 425 109 407 127 20 204
3 407 109 110 127 20 204
3 407 110 408 127 20 204
3 407 408 428 48 242 105
3 428 408 406 48 242 105
3 406 408 409 48 242 105
3 406 409 412 48 242 105
3 412 409 435 48 242 105
3 435 409 410 48 242 105
3 410 409 411 48 242 105
3 411 409 574 127 20 204
3 574 409 113 127 20 204
3 574 113 112 127 20 204
3 574 112 114 127 20 204
3 574 114 116 127 20 204
3 574 116 411 127 20 204
3 411 116 422 127 20 204
3 422 116 426 127 20 204
3 426 116 573 127 20 204
3 426 573 425 127 20 204
3 426 425 427 48 242 105
3 427 425 424 48 242 105
3 424 425 433 48 242 105
3 433 425 407 48 242 105
3 433 407 428 48 242 105
3 433 428 431 48 242 105
3 431 428 430 48 242 105
3 430 428 434 48 242 105
3 434 428 420 48 242 105
3 420 428 429 48 242 105
3 429 428 406 48 242 105
3 429 406 435 48 242 105
3 435 406 412 48 242 105
3 429 435 413 48 242 105
3 413 435 421 48 242 105
3 421 435 434 48 242 105
3 434 435 410 48 242 105
3 434 410 431 48 242 105
3 431 410 433 48 242 105
3 433 410 432 48 242 105
3 432 410 415 48 242 105
3 415 410 424 48 242 105
3 424 410 423 48 242 105
3 423 410 411 48 242 105
3 423 411 422 48 242 105
3 423 422 426 48 242 105
3 423 426 427 48 242 105
3 423 427 424 48 242 105
3 415 424 416 48 242 105
3 416 424 414 48 242 105
3 414 424 433 48 242 105
3 414 433 432 48 242 105
3 414 432 415 48 242 105
3 414 415 416 48 242 105
3 434 431 418 48 242 105
3 418 431 430 48 242 105
3 418 430 417 48 242 105
3 417 430 434 48 242 105
3 417 434 419 48 242 105
3 419 434 418 48 242 105
3 419 418 417 48 242 105
3 421 434 420 48 242 105
3 421 420 413 48 242 105
3 413 420 429 48 242 105
3 606 179 163 40 176 204
3 606 163 592 40 176 204
3 592 163 124 40 176 204
3 124 163 125 40 176 204
3 125 163 126 40 176 204
3 124 125 123 40 176 204
3 124 123 591 40 176 204
3 591 123 587 40 176 204
3 587 123 588 40 176 204
3 588 123 590 40 176 204
3 590 123 593 40 176 204
3 590 593 262 40 176 204
3 262 593 264 40 176 204
3 262 264 711 40 176 204
3 711 264 263 40 176 204
3 263 264 713 40 176 204
3 263 713 261 40 176 204
3 261 713 712 40 176 204
3 712 713 714 40 176 204
3 714 713 265 40 176 204
3 712 714 288 40 176 204
3 288 714 302 40 176 204
3 288 302 287 40 176 204
3 287 302 729 40 176 204
3 287 729 730 40 176 204
3 730 729 733 40 176 204
3 733 729 303 40 176 204
3 733 303 31 40 176 204
3 733 31 734 40 176 204
3 733 734 703 40 176 204
3 703 734 748 40 176 204
3 748 734 749 40 176 204
3 749 734 607 40 176 204
3 607 734 304 40 176 204
3 607 304 148 40 176 204
3 148 304 611 40 176 204
3 611 304 165 40 176 204
3 611 165 164 40 176 204
3 611 164 610 40 176 204
3 611 610 146 40 176 204
3 146 610 582 40 176 204
3 582 610 606 40 176 204
3 582 606 592 40 176 204
3 582 592 589 40 176 204
3 589 592 122 40 176 204
3 122 592 591 40 176 204
3 591 592 124 40 176 204
3 122 591 587 40 176 204
3 122 587 10 40 176 204
3 10 587 585 40 176 204
3 585 587 120 40 176 204
3 120 587 588 40 176 204
3 120 588 121 40 176 204
3 121 588 590 40 176 204
3 121 590 262 40 176 204
3 121 262 711 40 176 204
3 121 711 259 40 176 204
3 259 711 707 40 176 204
3 707 711 258 40 176 204
3 258 711 710 40 176 204
3 710 711 263 40 176 204
3 710 263 261 40 176 204
3 710 261 709 40 176 204
3 709 261 708 40 176 204
3 708 261 260 40 176 204
3 260 261 712 40 176 204
3 260 712 287 40 176 204
3 287 712 288 40 176 204
3 260 287 257 40 176 204
3 257 287 731 40 176 204
3 731 287 730 40 176 204
3 731 730 703 40 176 204
3 703 730 733 40 176 204
3 731 703 702 40 176 204
3 702 703 748 40 176 204
3 702 748 256 40 176 204
3 256 748 718 40 176 204
3 718 748 270 40 176 204
3 270 748 130 40 176 204
3 130 748 119 40 176 204
3 119 748 749 40 176 204
3 119 749 581 40 176 204
3 581 749 148 40 176 204
3 148 749 607 40 176 204
3 581 148 146 40 176 204
3 146 148 611 40 176 204
3 581 146 580 40 176 204
3 580 146 147 40 176 204
3 147 146 582 40 176 204
3 147 582 589 40 176 204
3 147 589 118 40 176 204
3 118 589 586 40 176 204
3 586 589 10 40 176 204
3 10 589 122 40 176 204
3 586 10 584 40 176 204
3 584 10 585 40 176 204
3 584 585 11 40 176 204
3 11 585 132 40 176 204
3 132 585 120 40 176 204
3 132 120 274 40 176 204
3 274 120 750 40 176 204
3 750 120 259 40 176 204
3 259 120 121 40 176 204
3 750 259 707 40 176 204
3 750 707 273 40 176 204
3 273 707 258 40 176 204
3 273 258 706 40 176 204
3 706 258 710 40 176 204
3 706 710 709 40 176 204
3 706 709 705 40 176 204
3 705 709 708 40 176 204
3 705 708 717 40 176 204
3 717 708 704 40 176 204
3 704 708 260 40 176 204
3 704 260 269 40 176 204
3 269 260 257 40 176 204
3 269 257 721 40 176 204
3 721 257 718 40 176 204
3 718 257 256 40 176 204
3 256 257 731 40 176 204
3 256 731 702 40 176 204
3 721 718 296 40 176 204
3 296 718 270 40 176 204
3 296 270 298 40 176 204
3 298 270 271 40 176 204
3 271 270 130 40 176 204
3 271 130 129 40 176 204
3 129 130 119 40 176 204
3 129 119 128 40 176 204
3 128 119 583 40 176 204
3 583 119 147 40 176 204
3 147 119 581 40 176 204
3 147 581 580 40 176 204
3 583 147 118 40 176 204
3 583 118 596 40 176 204
3 596 118 586 40 176 204
3 596 586 151 40 176 204
3 151 586 584 40 176 204
3 151 584 599 40 176 204
3 599 584 600 40 176 204
3 600 584 11 40 176 204
3 600 11 601 40 176 204
3 601 11 602 40 176 204
3 602 11 132 40 176 204
3 602 132 274 40 176 204
3 602 274 145 40 176 204
3 145 274 273 40 176 204
3 273 274 750 40 176 204
3 145 273 724 40 176 204
3 724 273 723 40 176 204
3 723 273 33 40 176 204
3 33 273 706 40 176 204
3 33 706 705 40 176 204
3 33 705 272 40 176 204
3 272 705 717 40 176 204
3 272 717 290 40 176 204
3 290 717 704 40 176 204
3 290 704 719 242 24 142
3 719 704 32 242 24 142
3 32 704 720 40 176 204
3 720 704 269 40 176 204
3 720 269 721 40 176 204
3 720 721 295 242 24 142
3 295 721 37 242 24 142
3 37 721 296 40 176 204
3 37 296 732 242 24 142
3 732 296 298 40 176 204
3 732 298 300 40 176 204
3 300 298 271 40 176 204
3 300 271 301 40 176 204
3 301 271 160 40 176 204
3 160 271 129 40 176 204
3 160 129 128 40 176 204
3 160 128 159 242 24 142
3 159 128 583 242 24 142
3 159 583 598 242 24 142
3 598 583 155 40 176 204
3 155 583 596 40 176 204
3 155 596 131 242 24 142
3 131 596 151 242 24 142
3 131 151 597 242 24 142
3 597 151 152 242 24 142
3 152 151 608 242 24 142
3 608 151 599 242 24 142
3 608 599 13 242 24 142
3 13 599 149 242 24 142
3 149 599 135 40 176 204
3 135 599 600 40 176 204
3 135 600 139 40 176 204
3 139 600 601 40 176 204
3 139 601 143 40 176 204
3 143 601 602 40 176 204
3 143 602 145 40 176 204
3 143 145 12 40 176 204
3 12 145 34 40 176 204
3 34 145 285 40 176 204
3 285 145 724 40 176 204
3 285 724 723 40 176 204
3 285 723 280 40 176 204
3 280 723 722 40 176 204
3 722 723 33 40 176 204
3 722 33 272 40 176 204
3 722 272 276 40 176 204
3 276 272 289 40 176 204
3 289 272 35 242 24 142
3 35 272 290 242 24 142
3 35 290 291 242 24 142
3 291 290 719 242 24 142
3 291 719 36 242 24 142
3 36 719 294 242 24 142
3 294 719 293 242 24 142
3 293 719 32 242 24 142
3 293 32 720 242 24 142
3 293 720 295 242 24 142
3 293 295 670 242 24 142
3 670 295 25 242 24 142
3 25 295 669 242 24 142
3 669 295 37 242 24 142
3 669 37 668 242 24 142
3 668 37 732 242 24 142
3 668 732 299 242 24 142
3 299 732 300 242 24 142
3 299 300 667 242 24 142
3 667 300 297 242 24 142
3 297 300 751 40 176 204
3 751 300 301 40 176 204
3 751 301 162 40 176 204
3 162 301 160 40 176 204
3 162 160 542 242 24 142
3 542 160 161 242 24 142
3 161 160 543 242 24 142
3 543 160 159 242 24 142
3 543 159 156 242 24 142
3 156 159 598 242 24 142
3 156 598 155 242 24 142
3 156 155 609 242 24 142
3 609 155 131 242 24 142
3 609 131 597 242 24 142
3 609 597 154 242 24 142
3 154 597 545 242 24 142
3 545 597 153 242 24 142
3 153 597 152 242 24 142
3 153 152 608 242 24 142
3 153 608 511 242 24 142
3 511 608 150 242 24 142
3 150 608 13 242 24 142
3 150 13 546 242 24 142
3 546 13 149 242 24 142
3 546 149 134 242 24 142
3 134 149 603 242 24 142
3 603 149 135 242 24 142
3 603 135 604 40 176 204
3 604 135 139 40 176 204
3 604 139 605 40 176 204
3 605 139 12 40 176 204
3 12 139 143 40 176 204
3 605 12 286 40 176 204
3 286 12 34 40 176 204
3 286 34 728 40 176 204
3 728 34 285 40 176 204
3 728 285 280 40 176 204
3 728 280 727 40 176 204
3 727 280 276 40 176 204
3 276 280 722 40 176 204
3 727 276 726 40 176 204
3 726 276 289 242 24 142
3 726 289 725 242 24 142
3 725 289 35 242 24 142
3 725 35 671 242 24 142
3 671 35 292 242 24 142
3 292 35 291 242 24 142
3 292 291 36 242 24 142
3 292 36 237 242 24 142
3 237 36 190 242 24 142
3 190 36 294 242 24 142
3 190 294 670 242 24 142
3 670 294 293 242 24 142
3 190 670 634 242 24 142
3 634 670 25 242 24 142
3 634 25 189 242 24 142
3 189 25 633 242 24 142
3 633 25 669 242 24 142
3 633 669 188 242 24 142
3 188 669 668 242 24 142
3 188 668 628 242 24 142
3 628 668 299 242 24 142
3 628 299 627 242 24 142
3 627 299 667 242 24 142
3 627 667 194 242 24 142
3 194 667 297 242 24 142
3 194 297 637 242 24 142
3 637 297 279 242 24 142
3 279 297 283 242 24 142
3 283 297 751 242 24 142
3 283 751 284 40 176 204
3 284 751 144 40 176 204
3 144 751 142 40 176 204
3 142 751 157 40 176 204
3 157 751 162 40 176 204
3 157 162 158 242 24 142
3 158 162 542 242 24 142
3 158 542 90 242 24 142
3 90 542 514 242 24 142
3 514 542 161 242 24 142
3 514 161 510 242 24 142
3 510 161 543 242 24 142
3 510 543 38 242 24 142
3 38 543 544 242 24 142
3 544 543 156 242 24 142
3 544 156 5 242 24 142
3 5 156 154 242 24 142
3 154 156 609 242 24 142
3 5 154 517 242 24 142
3 517 154 40 242 24 142
3 40 154 545 242 24 142
3 40 545 48 242 24 142
3 48 545 41 242 24 142
3 41 545 153 242 24 142
3 41 153 511 242 24 142
3 41 511 88 242 24 142
3 88 511 150 242 24 142
3 88 150 512 242 24 142
3 512 150 546 242 24 142
3 512 546 133 242 24 142
3 133 546 134 242 24 142
3 133 134 137 242 24 142
3 137 134 136 242 24 142
3 136 134 603 242 24 142
3 136 603 140 242 24 142
3 140 603 604 242 24 142
3 140 604 142 242 24 142
3 142 604 605 40 176 204
3 142 605 144 40 176 204
3 144 605 286 40 176 204
3 144 286 284 40 176 204
3 284 286 728 40 176 204
3 284 728 283 40 176 204
3 283 728 727 40 176 204
3 283 727 282 242 24 142
3 282 727 726 242 24 142
3 282 726 278 242 24 142
3 278 726 725 242 24 142
3 278 725 277 242 24 142
3 277 725 275 242 24 142
3 275 725 671 242 24 142
3 275 671 629 242 24 142
3 629 671 237 242 24 142
3 237 671 292 242 24 142
3 629 237 18 242 24 142
3 18 237 236 242 24 142
3 236 237 190 242 24 142
3 236 190 635 242 24 142
3 635 190 198 242 24 142
3 198 190 639 242 24 142
3 639 190 634 242 24 142
3 639 634 197 242 24 142
3 197 634 189 242 24 142
3 197 189 633 242 24 142
3 197 633 638 242 24 142
3 638 633 188 242 24 142
3 638 188 632 242 24 142
3 632 188 628 242 24 142
3 632 628 631 242 24 142
3 631 628 627 242 24 142
3 631 627 194 242 24 142
3 631 194 201 242 24 142
3 201 194 637 242 24 142
3 201 637 642 242 24 142
3 642 637 195 242 24 142
3 195 637 279 242 24 142
3 195 279 673 242 24 142
3 673 279 283 242 24 142
3 673 283 282 242 24 142
3 673 282 281 242 24 142
3 281 282 672 242 24 142
3 672 282 278 242 24 142
3 672 278 277 242 24 142
3 672 277 193 242 24 142
3 193 277 630 242 24 142
3 630 277 275 242 24 142
3 630 275 192 242 24 142
3 192 275 629 242 24 142
3 192 629 640 242 24 142
3 640 629 18 242 24 142
3 640 18 191 242 24 142
3 191 18 236 242 24 142
3 191 236 635 242 24 142
3 191 635 198 242 24 142
3 191 198 199 242 24 142
3 199 198 639 242 24 142
3 199 639 644 242 24 142
3 644 639 196 242 24 142
3 196 639 197 242 24 142
3 196 197 638 242 24 142
3 196 638 202 242 24 142
3 202 638 632 242 24 142
3 202 632 631 242 24 142
3 202 631 201 242 24 142
3 202 201 643 242 24 142
3 643 201 20 242 24 142
3 20 201 642 242 24 142
3 20 642 203 242 24 142
3 203 642 641 242 24 142
3 641 642 195 242 24 142
3 641 195 636 242 24 142
3 636 195 673 242 24 142
3 636 673 281 242 24 142
3 636 281 672 242 24 142
3 636 672 193 242 24 142
3 636 193 641 242 24 142
3 641 193 200 242 24 142
3 200 193 630 242 24 142
3 200 630 192 242 24 142
3 200 192 19 242 24 142
3 19 192 640 242 24 142
3 19 640 645 96 204 61
3 645 640 205 242 24 142
3 205 640 199 242 24 142
3 199 640 191 242 24 142
3 205 199 21 242 24 142
3 21 199 644 242 24 142
3 21 644 204 242 24 142
3 204 644 643 242 24 142
3 643 644 196 242 24 142
3 643 196 202 242 24 142
3 204 643 207 96 204 61
3 207 643 209 96 204 61
3 209 643 655 96 204 61
3 655 643 20 96 204 61
3 655 20 210 96 204 61
3 210 20 203 96 204 61
3 210 203 206 96 204 61
3 206 203 200 242 24 142
3 200 203 641 242 24 142
3 206 200 19 96 204 61
3 206 19 650 96 204 61
3 650 19 208 96 204 61
3 208 19 645 96 204 61
3 208 645 214 96 204 61
3 214 645 213 96 204 61
3 213 645 649 96 204 61
3 649 645 205 96 204 61
3 649 205 648 96 204 61
3 648 205 21 96 204 61
3 648 21 647 96 204 61
3 647 21 204 96 204 61
3 647 204 646 96 204 61
3 646 204 207 96 204 61
3 646 207 209 96 204 61
3 646 209 653 96 204 61
3 653 209 652 96 204 61
3 652 209 663 96 204 61
3 663 209 655 96 204 61
3 663 655 219 96 204 61
3 219 655 210 96 204 61
3 219 210 651 96 204 61
3 651 210 206 96 204 61
3 651 206 650 96 204 61
3 651 650 217 96 204 61
3 217 650 216 96 204 61
3 216 650 215 96 204 61
3 215 650 208 96 204 61
3 215 208 214 96 204 61
3 215 214 220 96 204 61
3 220 214 213 96 204 61
3 220 213 658 96 204 61
3 658 213 212 96 204 61
3 212 213 649 96 204 61
3 212 649 657 96 204 61
3 657 649 648 96 204 61
3 657 648 211 96 204 61
3 211 648 656 96 204 61
3 656 648 647 96 204 61
3 656 647 646 96 204 61
3 656 646 654 96 204 61
3 654 646 653 96 204 61
3 654 653 226 96 204 61
3 226 653 659 96 204 61
3 659 653 652 96 204 61
3 659 652 233 96 204 61
3 233 652 663 96 204 61
3 233 663 666 96 204 61
3 666 663 234 96 204 61
3 234 663 219 96 204 61
3 234 219 218 96 204 61
3 218 219 217 96 204 61
3 217 219 651 96 204 61
3 218 217 23 96 204 61
3 23 217 223 96 204 61
3 223 217 216 96 204 61
3 223 216 221 96 204 61
3 221 216 215 96 204 61
3 221 215 220 96 204 61
3 221 220 230 96 204 61
3 230 220 665 96 204 61
3 665 220 658 96 204 61
3 665 658 664 96 204 61
3 664 658 212 96 204 61
3 664 212 229 96 204 61
3 229 212 661 96 204 61
3 661 212 657 96 204 61
3 661 657 211 96 204 61
3 661 211 660 96 204 61
3 660 211 656 96 204 61
3 660 656 226 96 204 61
3 226 656 654 96 204 61
3 660 226 228 96 204 61
3 228 226 659 96 204 61
3 228 659 225 96 204 61
3 225 659 623 96 204 61
3 623 659 233 96 204 61
3 623 233 666 96 204 61
3 623 666 235 96 204 61
3 235 666 662 96 204 61
3 662 666 234 96 204 61
3 662 234 218 96 204 61
3 662 218 23 96 204 61
3 662 23 232 96 204 61
3 232 23 224 96 204 61
3 224 23 223 96 204 61
3 224 223 22 96 204 61
3 22 223 221 96 204 61
3 22 221 222 96 204 61
3 222 221 230 96 204 61
3 222 230 231 96 204 61
3 231 230 665 96 204 61
3 231 665 664 96 204 61
3 231 664 626 96 204 61
3 626 664 462 56 48 242
3 462 664 229 96 204 61
3 462 229 459 56 48 242
3 459 229 625 56 48 242
3 625 229 24 96 204 61
3 24 229 661 96 204 61
3 24 661 660 96 204 61
3 24 660 228 96 204 61
3 24 228 227 96 204 61
3 227 228 225 96 204 61
3 227 225 624 56 48 242
3 624 225 439 56 48 242
3 439 225 623 56 48 242
3 439 623 469 56 48 242
3 469 623 235 56 48 242
3 469 235 465 56 48 242
3 465 235 232 56 48 242
3 232 235 662 96 204 61
3 465 232 626 56 48 242
3 626 232 231 96 204 61
3 231 232 222 96 204 61
3 222 232 22 96 204 61
3 22 232 224 96 204 61
3 465 626 463 56 48 242
3 463 626 462 56 48 242
3 463 462 461 56 48 242
3 461 462 458 56 48 242
3 458 462 459 56 48 242
3 458 459 456 56 48 242
3 456 459 625 56 48 242
3 456 625 624 56 48 242
3 624 625 227 56 48 242
3 227 625 24 96 204 61
3 456 624 446 56 48 242
3 446 624 444 56 48 242
3 444 624 439 56 48 242
3 444 439 438 56 48 242
3 438 439 468 56 48 242
3 468 439 469 56 48 242
3 468 469 466 56 48 242
3 466 469 467 56 48 242
3 467 469 465 56 48 242
3 467 465 464 56 48 242
3 464 465 463 56 48 242
3 464 463 460 56 48 242
3 460 463 461 56 48 242
3 460 461 458 56 48 242
3 460 458 457 56 48 242
3 457 458 455 56 48 242
3 455 458 456 56 48 242
3 455 456 446 56 48 242
3 455 446 452 56 48 242
3 452 446 451 56 48 242
3 451 446 443 56 48 242
3 443 446 438 56 48 242
3 438 446 444 56 48 242
3 443 438 440 56 48 242
3 440 438 437 56 48 242
3 437 438 468 56 48 242
3 437 468 466 56 48 242
3 437 466 457 56 48 242
3 457 466 460 56 48 242
3 460 466 467 56 48 242
3 460 467 464 56 48 242
3 437 457 436 56 48 242
3 436 457 454 56 48 242
3 454 457 455 56 48 242
3 454 455 452 56 48 242
3 454 452 453 56 48 242
3 453 452 450 56 48 242
3 450 452 451 56 48 242
3 450 451 445 56 48 242
3 445 451 442 56 48 242
3 442 451 443 56 48 242
3 442 443 441 56 48 242
3 441 443 440 56 48 242
3 441 440 448 56 48 242
3 448 440 453 56 48 242
3 453 440 436 56 48 242
3 436 440 437 56 48 242
3 453 436 454 56 48 242
3 448 453 449 56 48 242
3 449 453 450 56 48 242
3 449 450 445 56 48 242
3 449 445 447 56 48 242
3 447 445 442 56 48 242
3 447 442 441 56 48 242
3 447 441 448 56 48 242
3 447 448 449 56 48 242
3 140 142 548 242 24 142
3 548 142 138 242 24 142
3 138 142 157 242 24 142
3 138 157 549 242 24 142
3 549 157 158 242 24 142
3 549 158 90 242 24 142
3 549 90 519 242 24 142
3 519 90 44 242 24 142
3 44 90 514 242 24 142
3 44 514 51 242 24 142
3 51 514 515 242 24 142
3 515 514 510 242 24 142
3 515 510 38 242 24 142
3 515 38 520 242 24 142
3 520 38 516 242 24 142
3 516 38 544 242 24 142
3 516 544 5 242 24 142
3 516 5 39 242 24 142
3 39 5 517 242 24 142
3 39 517 47 242 24 142
3 47 517 40 242 24 142
3 47 40 48 242 24 142
3 47 48 49 242 24 142
3 49 48 41 242 24 142
3 49 41 522 242 24 142
3 522 41 88 242 24 142
3 522 88 523 242 24 142
3 523 88 512 242 24 142
3 523 512 42 242 24 142
3 42 512 133 242 24 142
3 42 133 513 242 24 142
3 513 133 137 242 24 142
3 513 137 89 242 24 142
3 89 137 547 242 24 142
3 547 137 136 242 24 142
3 547 136 140 242 24 142
3 547 140 141 242 24 142
3 141 140 548 242 24 142
3 141 548 518 242 24 142
3 518 548 45 242 24 142
3 45 548 138 242 24 142
3 45 138 519 242 24 142
3 519 138 549 242 24 142
3 45 519 525 242 24 142
3 525 519 44 242 24 142
3 525 44 0 242 24 142
3 0 44 51 242 24 142
3 0 51 526 242 24 142
3 526 51 46 242 24 142
3 46 51 520 242 24 142
3 520 51 515 242 24 142
3 46 520 521 242 24 142
3 521 520 516 242 24 142
3 521 516 39 242 24 142
3 521 39 47 242 24 142
3 521 47 46 242 24 142
3 46 47 527 242 24 142
3 527 47 49 242 24 142
3 527 49 54 242 24 142
3 54 49 56 242 24 142
3 56 49 522 242 24 142
3 56 522 528 242 24 142
3 528 522 523 242 24 142
3 528 523 50 242 24 142
3 50 523 42 242 24 142
3 50 42 513 242 24 142
3 50 513 89 242 24 142
3 50 89 524 242 24 142
3 524 89 43 242 24 142
3 43 89 547 242 24 142
3 43 547 141 242 24 142
3 43 141 518 242 24 142
3 43 518 524 242 24 142
3 524 518 45 242 24 142
3 524 45 525 242 24 142
3 524 525 52 242 24 142
3 52 525 62 242 24 142
3 62 525 0 242 24 142
3 62 0 69 96 204 61
3 69 0 58 96 204 61
3 58 0 526 96 204 61
3 58 526 53 96 204 61
3 53 526 527 242 24 142
3 527 526 46 242 24 142
3 53 527 54 242 24 142
3 53 54 529 96 204 61
3 529 54 55 96 204 61
3 55 54 56 96 204 61
3 55 56 60 96 204 61
3 60 56 64 96 204 61
3 64 56 65 96 204 61
3 65 56 61 96 204 61
3 61 56 528 96 204 61
3 61 528 530 96 204 61
3 530 528 57 96 204 61
3 57 528 50 242 24 142
3 57 50 52 242 24 142
3 52 50 524 242 24 142
3 57 52 62 242 24 142
3 57 62 531 96 204 61
3 531 62 70 96 204 61
3 70 62 69 96 204 61
3 70 69 85 96 204 61
3 85 69 63 96 204 61
3 63 69 58 96 204 61
3 63 58 59 96 204 61
3 59 58 53 96 204 61
3 59 53 529 96 204 61
3 59 529 532 96 204 61
3 532 529 533 96 204 61
3 533 529 534 96 204 61
3 534 529 55 96 204 61
3 534 55 60 96 204 61
3 534 60 80 96 204 61
3 80 60 535 96 204 61
3 535 60 536 96 204 61
3 536 60 64 96 204 61
3 536 64 71 96 204 61
3 71 64 65 96 204 61
3 71 65 66 96 204 61
3 66 65 61 96 204 61
3 66 61 530 96 204 61
3 66 530 67 96 204 61
3 67 530 68 96 204 61
3 68 530 531 96 204 61
3 531 530 57 96 204 61
3 68 531 70 96 204 61
3 68 70 74 96 204 61
3 74 70 538 96 204 61
3 538 70 86 96 204 61
3 86 70 85 96 204 61
3 86 85 4 96 204 61
3 4 85 541 96 204 61
3 541 85 63 96 204 61
3 541 63 75 96 204 61
3 75 63 539 96 204 61
3 539 63 532 96 204 61
3 532 63 59 96 204 61
3 539 532 533 96 204 61
3 539 533 76 96 204 61
3 76 533 80 96 204 61
3 80 533 534 96 204 61
3 76 80 79 96 204 61
3 79 80 82 96 204 61
3 82 80 535 96 204 61
3 82 535 81 96 204 61
3 81 535 536 96 204 61
3 81 536 3 96 204 61
3 3 536 83 96 204 61
3 83 536 71 96 204 61
3 83 71 540 96 204 61
3 540 71 537 96 204 61
3 537 71 66 96 204 61
3 537 66 72 96 204 61
3 72 66 67 96 204 61
3 72 67 74 96 204 61
3 74 67 68 96 204 61
3 72 74 73 96 204 61
3 73 74 538 96 204 61
3 73 538 4 96 204 61
3 4 538 86 96 204 61
3 73 4 509 96 204 61
3 509 4 87 96 204 61
3 87 4 506 56 48 242
3 506 4 541 96 204 61
3 506 541 75 96 204 61
3 506 75 77 96 204 61
3 77 75 539 96 204 61
3 77 539 2 96 204 61
3 2 539 79 96 204 61
3 79 539 76 96 204 61
3 2 79 82 96 204 61
3 2 82 494 96 204 61
3 494 82 81 96 204 61
3 494 81 497 56 48 242
3 497 81 3 96 204 61
3 497 3 508 96 204 61
3 508 3 83 96 204 61
3 508 83 540 96 204 61
3 508 540 84 96 204 61
3 84 540 1 96 204 61
3 1 540 537 96 204 61
3 1 537 72 96 204 61
3 1 72 73 96 204 61
3 1 73 509 96 204 61
3 1 509 84 96 204 61
3 84 509 500 56 48 242
3 500 509 501 56 48 242
3 501 509 505 56 48 242
3 505 509 87 56 48 242
3 505 87 506 56 48 242
3 505 506 475 56 48 242
3 475 506 77 56 48 242
3 475 77 78 56 48 242
3 78 77 507 56 48 242
3 507 77 2 56 48 242
3 507 2 494 56 48 242
3 507 494 493 56 48 242
3 493 494 497 56 48 242
3 493 497 496 56 48 242
3 496 497 500 56 48 242
3 500 497 508 56 48 242
3 500 508 84 96 204 61
3 496 500 499 56 48 242
3 499 500 501 56 48 242
3 499 501 498 56 48 242
3 498 501 503 56 48 242
3 503 501 504 56 48 242
3 504 501 505 56 48 242
3 504 505 502 56 48 242
3 502 505 472 56 48 242
3 472 505 475 56 48 242
3 472 475 474 56 48 242
3 474 475 480 56 48 242
3 480 475 78 56 48 242
3 480 78 484 56 48 242
3 484 78 507 56 48 242
3 484 507 491 56 48 242
3 491 507 493 56 48 242
3 491 493 492 56 48 242
3 492 493 495 56 48 242
3 495 493 496 56 48 242
3 495 496 498 56 48 242
3 498 496 499 56 48 242
3 495 498 502 56 48 242
3 502 498 503 56 48 242
3 502 503 504 56 48 242
3 495 502 492 56 48 242
3 492 502 471 56 48 242
3 471 502 472 56 48 242
3 471 472 474 56 48 242
3 471 474 473 56 48 242
3 473 474 479 56 48 242
3 479 474 484 56 48 242
3 484 474 480 56 48 242
3 479 484 483 56 48 242
3 483 484 487 56 48 242
3 487 484 488 56 48 242
3 488 484 491 56 48 242
3 488 491 490 56 48 242
3 490 491 492 56 48 242
3 490 492 470 56 48 242
3 470 492 471 56 48 242
3 470 471 473 56 48 242
3 470 473 489 56 48 242
3 489 473 481 56 48 242
3 481 473 476 56 48 242
3 476 473 479 56 48 242
3 476 479 477 56 48 242
3 477 479 478 56 48 242
3 478 479 483 56 48 242
3 478 483 482 56 48 242
3 482 483 487 56 48 242
3 482 487 486 56 48 242
3 486 487 488 56 48 242
3 486 488 489 56 48 242
3 489 488 490 56 48 242
3 489 490 470 56 48 242
3 486 489 481 56 48 242
3 486 481 485 56 48 242
3 485 481 477 56 48 242
3 477 481 476 56 48 242
3 485 477 478 56 48 242
3 485 478 482 56 48 242
3 485 482 486 56 48 242
3 346 344 345 204 61 61
3 346 345 341 204 61 61
3 341 345 338 204 61 61
3 338 345 361 204 61 61
3 361 345 337 204 61 61
3 338 361 342 204 61 61
3 342 361 366 204 61 61
3 366 361 364 204 61 61
3 366 364 360 204 61 61
3 366 360 365 204 61 61
3 365 360 352 204 61 61
3 352 360 368 204 61 61
3 365 352 353 204 61 61
3 353 352 363 204 61 61
3 363 352 348 204 61 61
3 348 352 349 204 61 61
3 348 349 374 204 61 61
3 374 349 350 204 61 61
3 348 374 327 204 61 61
3 327 374 328 204 61 61
3 328 374 354 204 61 61
3 328 354 332 204 61 61
3 328 332 339 204 61 61
3 339 332 335 204 61 61
3 339 335 343 204 61 61
3 339 343 346 204 61 61
3 339 346 340 204 61 61
3 340 346 326 204 61 61
3 326 346 341 204 61 61
3 326 341 338 204 61 61
3 326 338 330 204 61 61
3 330 338 342 204 61 61
3 330 342 366 204 61 61
3 330 366 353 204 61 61
3 353 366 365 204 61 61
3 330 353 363 204 61 61
3 330 363 329 204 61 61
3 329 363 348 204 61 61
3 329 348 327 204 61 61
3 329 327 340 204 61 61
3 340 327 328 204 61 61
3 340 328 339 204 61 61
3 329 340 326 204 61 61
3 329 326 330 204 61 61
