ply
format ascii 1.0
element vertex 752
property float x
property float y
property float z
element face 1500
property list uchar int vertex_indices
property uchar red
property uchar green
property uchar blue
end_header
-0.235922 0.051455 0.018408
-0.235091 -0.190054 -0.038889
-0.223967 0.105046 0.030696
-0.211481 0.17276 0.018516
-0.205438 0.008323 -0.048054
-0.184785 -0.046666 -0.030051
-0.168437 -0.168224 0.036367
-0.185827 0.396122 -0.100558
-0.158546 0.007777 -0.024936
0.122355 0.68486 -0.117906
-0.145522 0.055671 -0.009609
-0.137737 0.351619 -0.076692
-0.131832 0.63881 -0.137539
-0.139911 -0.153009 0.082706
0.169604 0.480366 -0.06878
-0.094637 -0.178384 -0.09433
0.154942 -0.646104 -0.067805
-0.119999 -0.98475 0.014945
0.120129 -0.54611 -0.095692
-0.0392 -0.763855 -0.062153
-0.118663 -0.605413 -0.10872
-0.025694 -0.601288 -0.088708
-0.076808 -0.488769 -0.074039
-0.067679 -0.532576 -0.0913
-0.058024 0.641292 -0.212636
-0.100786 0.191887 0.081134
0.047079 -0.814095 -0.061131
-0.076834 -0.486821 0.054836
-0.085875 0.736147 -0.012912
-0.047603 -0.497104 -0.04543
-0.038558 0.266205 -0.088911
-0.070967 -0.279336 0.088251
-0.17049 0.054133 -0.04528
0.201851 0.170896 -0.054847
0.223331 0.137768 -0.006286
-0.116262 -0.819624 -0.028506
-0.16765 -0.154443 -0.036451
-0.160119 -0.088118 -0.031806
-0.06762 0.215996 -0.05745
-0.059521 -0.14097 -0.127996
0.05119 -0.855836 -0.021151
0.161863 -0.371048 0.009767
-0.059625 0.421683 -0.002204
-0.06439 0.728543 0.041305
-0.054193 -0.97409 0.154577
-0.13765 -7.9e-05 -0.018705
-0.063673 0.633333 0.09641
0.135221 0.585877 -0.005512
-0.131167 -0.768548 -0.024542
-0.032373 -0.94173 0.04354
0.026385 -0.425381 0.000265
-0.036266 -0.501897 -0.018186
-0.037314 -0.411631 0.050983
-0.017629 -0.242086 -0.02873
0.16065 0.376128 0.007938
-0.235731 -0.114245 -0.008269
0.12821 -0.683563 0.003909
0.136345 -0.542999 0.000117
-0.237978 -0.246375 0.012863
-0.012706 -0.200942 -0.043108
0.237216 0.032851 0.018461
-0.168587 0.017153 0.023722
0.003642 0.323594 -0.205352
0.119485 0.684644 0.053033
0.000693 0.654695 0.111535
-0.22741 -0.0913 0.018449
-0.185248 -0.059391 0.026817
0.000906 0.094289 0.116101
0.050711 0.358023 -0.210284
0.14788 -0.176707 0.072661
-0.210717 -0.020211 0.038052
0.016885 -0.96324 0.111098
-0.07616 -0.450038 0.050408
-0.218228 -0.181537 0.052766
0.066439 0.449721 0.061926
0.032198 0.636777 0.105921
0.034499 0.746939 0.07683
0.038531 0.394077 0.027525
0.017797 -0.988946 0.14492
0.126108 0.292612 0.097897
0.074695 0.526072 0.083357
0.07517 -0.984063 0.017638
0.09371 0.558521 -0.18146
0.080041 -0.426956 -0.080433
-0.064015 0.061537 0.11251
0.080738 -0.909644 -0.071781
0.077384 0.044628 0.107798
0.087386 0.258081 0.16524
0.105172 0.722653 -0.054447
0.099526 0.113805 -0.000997
0.136735 -0.276942 -0.079265
0.121211 -0.476946 0.052625
0.110506 0.339814 -0.183154
0.138808 0.243637 0.048438
0.156129 0.322169 -0.076671
0.12562 0.526497 -0.15336
0.151178 0.226124 0.03486
0.14251 -0.365956 -0.071982
0.162016 -0.291717 -0.054867
0.172835 0.313355 0.035484
0.185066 -0.134704 0.048192
0.175879 -0.198963 0.060785
0.186028 -0.223582 0.045622
0.180028 -0.173923 0.035229
0.191996 -0.095189 0.035096
0.195905 0.096975 0.039899
0.221325 -0.26007 0.019274
0.246788 -0.182598 0.020149
0.144254 -0.140478 -0.078566
-0.244168 -0.185201 -0.007595
-0.239137 0.012331 0.003157
-0.2325 -0.271299 0.03619
-0.239759 -0.22947 0.040858
-0.227388 -0.258312 0.026308
-0.241039 -0.180256 0.029835
-0.231691 -0.082133 -0.027372
-0.233858 -0.031466 -0.019643
-0.22966 0.029361 -0.032317
-0.221236 0.141255 -0.007712
-0.22775 -0.24231 0.023887
-0.220181 -0.23495 -0.031284
-0.217633 -0.209976 0.001563
-0.219584 -0.244731 -0.023158
-0.222618 -0.042571 0.030537
-0.21252 0.114169 -0.03041
-0.220306 -0.227497 0.039706
-0.224004 -0.246933 0.001641
-0.217793 -0.240694 -0.006356
-0.228859 -0.236134 0.050758
-0.214001 -0.109547 -0.031864
-0.203427 0.060352 -0.051865
-0.217778 0.227877 -0.030555
-0.196965 0.24185 -0.064866
-0.211503 -0.169255 -0.037276
-0.213874 -0.180847 -0.007913
-0.206451 -0.239024 -0.034249
-0.195337 -0.160244 0.059053
-0.19605 -0.132014 -0.026219
-0.219067 -0.124345 0.037709
-0.216588 -0.043992 -0.036003
-0.200792 0.01871 0.03959
-0.203295 0.163003 -0.047579
-0.20736 0.244304 -0.004635
-0.206523 0.313481 -0.031526
-0.229848 -0.239121 -0.014929
-0.210526 -0.073773 0.033434
-0.196454 -0.277592 0.012832
-0.2029 -0.253336 -0.018284
-0.187839 0.314797 -0.067
-0.191022 -0.108989 0.037184
-0.188153 0.127552 -0.059083
-0.186561 0.436146 -0.129864
-0.183705 -0.106027 0.005143
-0.171176 0.200906 -0.066902
-0.176799 0.451499 -0.050941
-0.172501 -0.296649 -0.033542
-0.171886 -0.226575 -0.035482
-0.194768 -0.187469 0.035928
-0.173464 -0.045646 -0.005253
-0.167005 0.156291 0.028824
-0.194538 0.316671 0.006614
-0.170657 -0.299019 0.015534
-0.182125 -0.209234 0.055635
-0.172427 -0.182292 0.058484
-0.172732 -0.239513 0.015794
-0.168616 -0.184889 -0.035478
-0.162692 0.072537 0.032983
-0.203423 0.047842 0.040591
-0.182762 0.240398 0.025342
-0.167873 0.291507 -0.074813
-0.171227 0.377245 -0.032359
-0.1605 0.430954 -0.024984
-0.168984 0.486985 -0.105702
-0.160966 -0.26825 -0.055895
-0.165379 -0.013116 0.008165
-0.147704 0.078898 -0.034948
-0.159093 0.375348 0.008364
-0.175859 0.373042 -0.128208
-0.157867 0.405993 -0.19313
-0.151664 -0.674581 -0.067497
-0.114204 -0.669307 -0.10935
-0.155898 -0.606469 -0.072289
-0.14531 -0.543339 -0.05859
-0.156785 -0.390934 -0.032453
-0.153846 -0.398268 0.011889
-0.152007 -0.226804 -0.076268
-0.142265 -0.128318 -0.075362
-0.169705 0.320486 0.035141
-0.154158 0.368114 -0.069974
-0.15041 0.393959 -0.04268
-0.145219 -0.684026 -0.020362
-0.145169 -0.491466 -0.034591
-0.150566 -0.308325 -0.073229
-0.142753 -0.224919 0.075774
-0.12903 -0.277184 -0.080067
-0.133033 0.345728 -0.174723
-0.144817 0.485031 -0.005569
-0.147669 0.634312 -0.037194
-0.144501 -0.597327 -0.011642
-0.142677 -0.454192 0.014972
-0.137541 0.149139 -0.015568
-0.135215 0.221773 -0.059708
-0.141104 0.438127 -0.198511
-0.142702 0.536141 -0.107748
-0.14814 0.541451 -0.030883
-0.139578 0.615474 -0.017037
-0.143232 0.596685 -0.057387
-0.138211 0.662597 0.000974
-0.142858 0.684551 -0.016926
-0.100355 -0.141697 0.098113
-0.153047 -0.031372 0.023511
-0.154407 0.161571 -0.051189
-0.141516 0.254005 -0.067549
-0.139307 0.587662 -0.124079
-0.130345 0.667321 -0.075963
-0.130816 -0.036072 -0.06723
-0.128754 -0.043757 0.077828
-0.142924 0.14246 0.006225
-0.136445 0.241446 0.052688
-0.148589 0.232835 0.035601
-0.140181 0.334491 -0.120724
-0.122751 0.309709 -0.071453
-0.134625 0.675616 0.01885
-0.122111 -0.981213 -0.033268
-0.12061 -0.92864 -0.001114
-0.119862 -0.933644 -0.069746
-0.142485 -0.734714 -0.064968
-0.11839 -0.608559 0.016993
-0.117455 -0.493252 -0.072653
-0.140127 -0.483468 0.023284
-0.120445 -0.437438 0.049483
-0.115481 0.216127 -0.017583
-0.120947 0.214162 0.013137
-0.119803 0.268197 -0.050727
-0.13175 0.269877 0.100288
-0.136598 0.283504 0.038867
-0.136765 0.530461 -0.0004
-0.100399 0.702135 -0.151212
-0.124078 0.688846 -0.025787
-0.119894 -0.666452 0.013497
-0.115774 -0.571489 -0.103867
-0.108351 -0.54548 0.028836
-0.119112 -0.499309 0.04714
-0.116013 0.025055 0.078728
-0.12334 0.216965 0.109183
-0.107758 0.339896 -0.077366
-0.115101 0.395166 -0.212749
-0.115771 0.640544 -0.0074
-0.120574 -0.96394 0.06883
-0.105398 -0.877866 -0.000744
-0.1087 -0.782286 0.005576
-0.133695 -0.540968 0.002339
-0.100588 -0.095462 0.0961
-0.091858 0.004572 -0.068681
-0.096947 0.053881 -0.030858
-0.102494 0.089786 -0.001916
-0.11594 0.062634 0.029068
-0.124207 0.345773 0.038106
-0.05827 0.415955 -0.22047
-0.107559 0.466147 -0.191882
-0.108745 0.550859 0.007479
-0.123428 -0.98551 0.091001
-0.107647 -0.946781 0.070418
-0.099856 -0.786207 -0.080334
-0.140623 -0.284925 0.072933
-0.106599 -0.239791 0.090775
-0.102683 0.129915 0.037542
-0.108082 0.388453 0.033773
-0.098157 0.55469 0.032511
-0.106699 0.601721 0.038589
-0.102746 -0.741047 -0.091487
-0.09658 -0.329078 -0.086059
-0.133079 -0.345772 0.063568
-0.097108 -0.291536 0.088109
-0.108848 -0.0771 -0.105949
-0.105537 0.166427 0.002467
-0.120639 0.474793 0.01211
-0.146607 0.481899 -0.154131
-0.067122 0.728325 0.1026
-0.103599 -0.983468 -0.080479
-0.085368 -0.914579 0.039622
-0.104751 -0.841893 -0.058009
-0.089965 -0.866332 -0.06568
-0.105229 -0.826854 0.005523
-0.114733 -0.731315 0.009446
-0.089813 -0.035409 0.110797
-0.105843 0.499521 0.010482
-0.097921 0.514097 0.060842
-0.122326 0.538555 -0.155911
-0.067308 0.556713 -0.190903
-0.103255 0.722676 -0.057872
-0.125566 -0.422918 -0.071041
-0.092665 0.017456 0.098775
-0.081041 0.134212 0.085601
-0.116012 0.251845 0.148076
-0.105327 0.294666 0.125421
-0.099576 0.636796 0.063287
-0.114929 0.677554 0.066567
-0.085097 0.727576 -0.127847
-0.099567 -0.984101 -0.027559
-0.09496 -0.974657 0.136459
-0.080304 -0.837909 0.00894
-0.090729 -0.752301 0.011112
-0.079162 -0.545784 0.030957
-0.075608 -0.433611 -0.078802
-0.108829 0.211498 0.139421
-0.061118 0.318248 -0.104276
-0.078179 0.293807 0.148989
-0.05163 -0.98541 0.045864
-0.072216 -0.919787 -0.073997
-0.084844 -0.402641 0.068143
-0.100034 -0.182561 0.096599
-0.057839 -0.171838 -0.112781
-0.076187 0.116537 -0.022619
-0.107983 0.340416 0.068298
-0.059497 0.597353 0.08808
-0.108382 0.590861 -0.178705
-0.044668 0.757761 -0.05201
-0.064757 -0.983568 -0.074225
-0.070629 -0.877223 -0.065363
-0.06885 -0.58824 -0.109544
-0.061211 0.450452 0.042843
-0.070564 0.46531 0.006254
-0.079635 0.507073 -0.183323
-0.099813 0.646306 -0.188449
-0.06832 -0.985973 0.151392
-0.068029 -0.7545 -0.002515
-0.06229 -0.779853 -0.083079
-0.060259 -0.71944 -0.094873
-0.093059 -0.679866 0.014913
-0.060075 -0.656815 -0.108913
-0.09073 -0.608148 0.018672
-0.067699 -0.203958 0.091089
-0.072171 -0.158817 0.092891
-0.071661 -0.089707 -0.125091
-0.047501 0.032808 -0.058884
-0.073766 0.160345 -0.030273
-0.061201 0.182686 0.109677
-0.111822 0.320296 -0.137255
-0.049212 0.331434 -0.198892
-0.051936 -0.881994 0.007713
-0.061153 -0.672508 0.000741
-0.057565 -0.571916 0.003395
-0.058308 -0.055379 0.117064
-0.06287 -0.0226 -0.096365
-0.053367 0.114854 0.110948
-0.06973 0.194213 0.149799
-0.040217 0.330656 0.102075
-0.065604 0.37983 0.042578
-0.062444 0.699989 -0.190442
-0.056333 -0.344144 -0.068162
-0.100108 -0.230508 -0.092381
0.005374 -0.117762 0.098226
-0.071587 0.382357 -0.216106
-0.07966 0.675741 0.118072
-0.048974 0.73496 -0.153571
-0.046264 -0.832536 -0.05378
-0.041751 -0.87032 -0.010466
-0.059263 -0.836463 -0.004229
-0.043489 -0.801521 -0.026102
-0.043402 -0.743306 -0.028764
-0.05064 -0.255623 -0.07084
-0.043124 -0.199541 -0.072265
-0.057333 0.313484 -0.163548
-0.077126 0.518041 0.084167
-0.037291 0.533032 0.099147
-0.036501 0.555046 0.086771
-0.042554 0.746626 0.07294
-0.062492 -0.98218 0.006117
-0.033903 -0.917347 0.004364
-0.043072 -0.508716 0.024371
-0.042595 -0.409771 -0.054477
-0.041665 0.703485 0.148009
-0.067241 0.748791 -0.086699
-0.017136 -0.971785 0.143846
-0.033595 -0.588054 -0.034889
-0.040001 -0.451051 0.033334
-0.041059 -0.002215 0.121335
-0.053192 0.272234 0.165832
-0.034146 0.448423 0.023488
-0.056449 0.451429 0.082073
-0.017032 -0.968669 0.077442
-0.050977 -0.918502 0.042379
-0.026565 -0.681382 -0.08306
-0.032236 -0.68621 -0.038352
-0.068792 -0.356945 0.069977
-0.033803 0.089228 0.119709
-0.017685 0.195945 0.13184
-0.023379 0.208335 -0.062397
-0.045217 0.648323 0.127723
0.003996 0.733451 -0.174007
-0.054579 -0.987144 0.084151
-0.059583 -0.950866 0.102129
-0.020744 -0.397394 0.0061
-0.026712 -0.3535 0.040532
-0.024799 -0.362217 -0.041092
-0.020724 -0.230843 0.056902
-0.024752 0.135653 -0.031278
-0.028015 0.238563 0.156181
-0.017793 0.343668 0.072115
-0.031257 0.404758 0.022653
-0.015395 -0.987484 0.096899
-0.021118 -0.987639 0.150434
-0.016508 -0.289428 -0.042914
-0.009612 0.47863 0.119135
-0.005163 0.723473 0.054243
-0.021042 -0.301497 0.047112
-0.010349 -0.198908 0.010092
-0.007676 -0.277118 0.005056
0.024761 0.302237 -0.132058
-0.003904 0.570351 0.104455
-0.043475 0.736211 0.022875
-0.011894 0.069513 -0.042687
0.002947 0.154906 -0.027285
-0.024471 0.302352 -0.135634
0.039257 0.413084 -0.224139
0.003532 0.659694 -0.216118
-0.003918 0.760332 -0.114945
-0.002156 -0.178056 -0.099743
-0.007736 -0.093305 -0.127356
0.001838 0.171315 0.12707
0.000241 0.382782 0.027779
0.036456 0.757013 -0.044419
0.001405 -0.019712 -0.105022
0.005257 -0.01248 0.115683
0.001511 0.284127 0.120094
0.005817 0.357029 0.049954
0.006172 0.377936 -0.224455
0.008658 0.451208 -0.207052
0.014964 0.503233 0.118715
0.011634 -0.305173 0.002432
0.011712 -0.204716 0.009352
0.001098 0.0486 0.113082
0.022725 0.443656 0.027988
0.001431 0.604385 0.108704
0.002061 0.702847 0.133902
0.022271 -0.970264 0.152441
0.021136 -0.285599 0.050501
0.025308 0.059391 -0.046761
0.0201 0.130188 0.119968
0.009017 0.533076 0.133884
0.02473 -0.355286 -0.041611
0.018434 -0.281167 -0.040438
0.024449 -0.2106 -0.047621
0.017098 0.191463 0.123574
-0.00364 0.430284 0.089598
0.061872 0.612669 -0.207441
0.017194 0.701048 -0.198767
0.031128 0.727004 0.050984
0.05544 -0.970638 0.015819
0.033467 -0.709545 -0.076569
0.027741 -0.601173 -0.089465
0.068676 -0.135718 -0.128192
0.034854 -0.089197 -0.128702
0.000498 0.234519 0.13107
0.032587 0.314799 0.120571
0.037603 0.601191 0.099917
0.024228 -0.985927 0.074234
0.034315 -0.942263 0.041787
0.034889 -0.590434 -0.035107
0.038524 -0.525978 -0.028475
0.029899 -0.366069 0.041336
-0.002351 0.316348 -0.105545
0.004611 0.547099 -0.196969
0.050811 0.736283 -0.152087
0.003653 0.739293 0.10169
0.033968 -0.685955 -0.04026
0.043166 -0.460725 0.030731
0.039342 -0.411002 0.051289
0.044367 -0.41433 -0.053432
0.020894 0.139502 -0.030608
0.044687 0.475066 0.100006
0.047262 -0.939264 -0.021127
0.041955 -0.880536 -0.006586
0.045723 -0.795499 -0.028882
0.052845 -0.546372 0.008663
0.05071 -0.48968 -0.047452
0.049505 -0.354926 -0.064346
0.051681 -0.254118 -0.070427
0.040935 0.65738 0.1368
0.063166 -0.976791 0.156941
0.045997 -0.082728 0.109066
0.081861 -0.038907 0.11583
0.027801 0.195616 -0.055264
0.039664 0.238025 0.1651
0.005152 0.30179 -0.171325
0.061136 0.419872 -0.003679
0.089853 0.701883 -0.170593
0.084494 0.739052 -0.012646
0.070805 -0.979583 -0.080219
0.066466 -0.93165 -0.064815
0.067196 -0.949121 0.09773
0.05775 -0.914981 0.040435
0.056087 -0.887968 0.013197
0.061013 -0.819158 -0.005988
0.060036 -0.673923 -0.108021
0.054108 -0.681644 -0.012636
0.071647 0.182684 0.107493
0.076961 0.162857 -0.028932
0.081009 0.296369 -0.085456
0.046025 0.715047 0.140538
0.062787 -0.763969 -0.084373
0.058787 -0.605269 -0.002526
0.068082 -0.355983 0.069128
0.021496 -0.237729 0.055754
0.0231 -0.177984 0.060964
0.035312 0.051403 0.120463
0.051372 0.130413 0.111464
0.000254 0.498914 -0.193006
0.057889 0.548182 -0.192026
0.101593 0.59227 -0.184203
0.072079 0.72571 0.105823
0.072361 -0.873093 -0.068578
0.06589 -0.587201 -0.108786
0.069868 -0.530125 -0.090485
0.076083 -0.49187 0.053687
0.068679 -0.289391 0.084068
0.072853 -0.223519 0.091579
0.061416 0.297539 0.149623
0.033619 0.315875 -0.107464
0.070207 0.355275 0.073768
0.074165 0.513504 -0.184055
0.073971 0.586186 0.065212
0.073677 0.724 0.036482
0.082639 -0.562327 0.025066
0.079742 -0.489166 -0.074526
0.065719 -0.130713 0.093865
0.041356 0.245935 -0.080424
0.082167 0.327808 0.104427
0.079699 0.46237 -0.196435
0.09107 -0.731057 0.014079
0.085119 -0.404534 0.067751
0.048239 -0.179047 -0.106822
0.060114 0.115398 -0.027524
0.068385 0.652003 -0.208075
0.083866 0.654473 0.111175
0.123039 -0.984828 0.108594
0.109513 -0.971732 0.123246
0.084017 -0.879231 0.009082
0.089335 -0.823428 -0.074647
0.083005 -0.702394 0.011421
0.084014 -0.640798 0.014959
0.096438 -0.180468 -0.095617
0.102411 -0.097825 0.095443
0.078083 -0.08567 -0.121998
0.090988 0.070303 -0.029565
0.043355 0.555564 0.082258
0.080333 0.742826 -0.093974
0.098284 -0.356498 0.073629
0.079476 -0.02288 -0.09347
0.093493 0.033382 -0.050871
0.093122 0.207782 -0.040165
0.108143 0.402209 0.001394
0.107733 0.502456 0.009478
0.099614 0.552408 0.030288
0.08689 0.63334 0.078234
0.107127 0.67213 0.081932
0.065399 -0.983479 -0.05156
0.120605 -0.95701 0.064402
0.092838 -0.919456 0.043255
0.09004 -0.807662 0.008225
0.100218 -0.331854 -0.08631
0.103322 -0.252935 0.091283
0.086477 0.156246 0.084259
0.103836 0.131326 0.035513
0.11678 0.224533 0.142682
0.08037 0.194561 0.145523
0.10746 0.341867 0.068641
0.097378 0.512551 0.067926
0.108144 -0.821968 0.004151
0.099989 -0.776903 -0.083123
0.117426 0.062997 0.027164
0.105386 0.191596 0.101856
0.101049 0.292569 0.139085
0.104081 0.390006 -0.214085
0.096482 0.427479 -0.212239
0.129312 0.660608 0.040003
0.10576 0.648361 -0.183211
0.107259 -0.845468 -0.058172
0.116246 -0.669778 -0.109415
0.080588 -0.450171 0.050841
0.119464 0.022152 0.077464
0.088833 0.114123 0.083216
0.107839 0.165087 0.000806
0.10407 0.551293 0.007222
0.106739 0.594696 0.039522
0.117443 0.641121 -0.007428
0.113108 -0.960674 -0.079599
0.122391 -0.983508 -0.043632
0.120925 -0.985023 0.027844
0.078916 -0.986187 0.084765
0.118297 -0.905598 -0.013165
0.116159 -0.835165 -0.024662
0.117724 -0.648989 0.016461
0.111508 -0.534163 0.032338
0.116813 -0.505001 -0.077436
0.112913 -0.076202 -0.103508
0.116643 0.20919 -0.010209
0.120667 0.274313 -0.053324
0.138177 0.541922 -0.001995
0.123775 -0.96241 0.004801
0.122339 -0.92336 -0.060543
0.138514 -0.760858 -0.065672
0.119116 -0.604719 0.018738
0.153188 -0.417476 -0.03491
0.127867 -0.418638 0.05038
0.121805 0.041528 -0.011843
0.125781 0.22167 0.015865
0.136595 0.237643 0.097316
0.104291 0.394119 0.027322
0.115365 0.691793 0.017346
0.118677 -0.141428 -0.101958
0.129429 -0.045584 0.081849
0.128057 -0.01706 -0.060794
0.135426 0.179464 0.011037
0.139453 0.202684 -0.055903
0.137418 0.28314 0.039724
0.12521 0.46258 0.007971
0.14694 0.681622 -0.025884
0.129699 -0.782352 -0.021945
0.117297 -0.728863 0.009599
0.123534 -0.441914 -0.072478
0.135719 -0.345623 0.061483
0.110445 0.198912 0.040236
0.119622 0.322769 -0.138733
0.152877 0.352605 -0.158816
0.115849 0.34237 -0.077193
0.138668 0.595187 -0.137095
0.133304 0.6379 -0.136977
0.135362 0.661812 -0.065734
0.119707 -0.599853 -0.108024
0.141658 -0.487124 0.023096
0.142241 -0.295974 0.070741
0.144708 -0.232773 0.074907
0.112542 -0.188451 0.095456
0.142956 -0.143686 0.080896
0.139847 -0.067248 -0.067829
0.12921 0.178974 -0.01587
0.142106 0.143214 -0.023796
0.107988 0.328995 -0.098948
0.142271 0.547378 -0.116036
0.144157 0.657272 -0.014362
0.147684 -0.676207 -0.019607
0.146235 -0.602022 -0.011906
0.144015 -0.509105 -0.042792
0.149808 -0.312577 -0.073964
0.10559 -0.226512 -0.093074
0.13967 0.011334 0.026046
0.144815 0.138763 0.006878
0.12727 0.341405 0.038099
0.151989 0.352365 0.032969
0.143666 0.442128 -0.196754
0.149904 0.542565 -0.035279
0.146338 0.585984 -0.040573
0.150209 -0.701667 -0.069307
0.152538 -0.239299 -0.077196
0.150951 -0.180815 -0.078063
0.15516 -0.049323 -0.025928
0.149168 0.084932 -0.034607
0.145406 0.074578 -0.00905
0.155167 0.403269 -0.195794
0.119633 0.477897 -0.182138
0.1578 -0.600583 -0.072524
0.147173 -0.437612 0.012699
0.171697 -0.158711 -0.033035
0.159601 0.020959 0.008712
0.137039 0.262976 -0.067111
0.156117 0.367809 -0.071762
0.14296 0.507957 -0.001594
0.178863 0.451898 -0.052142
0.160482 -0.204614 -0.063471
0.168414 0.0783 0.035113
0.165713 0.4634 -0.137985
0.163899 0.502025 -0.10611
0.17362 -0.291872 0.015673
0.155975 -0.278874 0.0503
0.172738 -0.167654 0.046907
0.172076 -0.199407 0.017956
0.160187 0.007586 -0.023768
0.171978 0.141786 -0.054904
0.14797 0.346622 -0.101125
0.176127 0.373523 -0.033396
0.162114 0.430823 -0.022277
0.167195 -0.340946 -0.033775
0.175097 -0.251666 -0.033512
0.180477 -0.139019 0.011558
0.17268 0.041534 -0.044192
0.180435 0.234537 0.027362
0.178273 0.375191 -0.127733
0.151831 0.395317 -0.042066
0.174218 -0.047881 -0.002669
0.19097 -0.068729 -0.027316
0.190852 0.132441 -0.058953
0.174596 0.222551 -0.068186
0.187193 0.39862 -0.100953
0.185608 -0.094158 -0.004528
0.184795 -0.031944 0.026936
0.16043 0.154008 0.023265
0.188627 0.431214 -0.136502
0.193881 0.160941 0.0269
0.188107 0.317767 -0.067405
0.209535 -0.263186 0.012091
0.210014 -0.280852 0.00746
0.210826 -0.163833 0.055072
0.204668 -0.031923 0.035698
0.23172 -0.23758 -0.007823
0.221887 -0.21275 -0.022905
0.207415 0.019784 -0.04943
0.214718 0.170279 0.013647
0.204448 0.239797 -0.059905
0.196544 0.315686 0.006564
0.205551 0.321629 -0.032419
0.222851 -0.205101 -0.038492
0.221429 -0.231074 0.04252
0.203355 -0.142511 -0.029888
0.210117 -0.051611 -0.035882
0.219062 0.233582 -0.032256
0.219855 -0.226461 -0.00708
0.217259 -0.116572 -0.031493
0.228986 -0.106908 0.023313
0.208213 0.242077 -0.000911
0.232961 -0.241139 0.027132
0.199504 -0.262514 -0.019205
0.222903 -0.236954 0.007278
0.218128 -0.077069 0.033226
0.222687 0.079595 -0.030541
0.207595 0.029306 0.03924
0.234742 -0.231622 0.049672
0.234634 -0.249197 0.005992
0.230955 -0.217525 -0.033916
0.225696 -0.020224 0.026717
0.233019 -0.047547 -0.025288
0.226121 0.091162 0.034602
0.238252 -0.235093 0.017064
0.227267 -0.22496 -0.022425
0.235742 -0.131318 -0.021289
0.236553 -0.054673 -0.003071
0.233446 0.020411 -0.030478
0.241513 0.01848 -0.004503
0.234987 0.077839 0.01128
0.243308 -0.248784 0.042964
0.248333 -0.191606 -0.008548
0.23657 -0.189665 -0.040787
0.039962 -0.545598 -0.06489
0.064165 0.461335 0.004574
-0.110526 0.402801 0.002021
0.162367 -0.078946 0.019903
-0.022041 -0.178202 0.057581
-0.063071 -0.12631 0.094748
-0.16231 -0.097912 0.02066
0.171061 -0.149099 0.022193
-0.171219 -0.148282 0.019014
3 112 113 111 48 242 105
3 111 113 125 48 242 105
3 125 113 112 48 242 105
3 125 112 119 48 242 105
3 119 112 114 48 242 105
3 114 112 73 48 242 105
3 73 112 128 48 242 105
3 128 112 111 48 242 105
3 128 111 125 48 242 105
3 128 125 73 48 242 105
3 73 125 157 48 242 105
3 157 125 134 48 242 105
3 134 125 121 48 242 105
3 121 125 119 48 242 105
3 121 119 126 48 242 105
3 126 119 146 48 242 105
3 146 119 58 48 242 105
3 58 119 114 48 242 105
3 58 114 109 48 242 105
3 109 114 55 48 242 105
3 55 114 138 127 20 204
3 138 114 136 127 20 204
3 136 114 73 48 242 105
3 136 73 162 48 242 105
3 162 73 157 48 242 105
3 162 157 6 48 242 105
3 6 157 137 48 242 105
3 137 157 134 48 242 105
3 137 134 133 48 242 105
3 133 134 135 48 242 105
3 135 134 120 48 242 105
3 120 134 1 48 242 105
3 1 134 144 48 242 105
3 144 134 122 48 242 105
3 122 134 127 48 242 105
3 127 134 121 48 242 105
3 127 121 144 48 242 105
3 144 121 58 48 242 105
3 58 121 126 48 242 105
3 58 126 146 48 242 105
3 144 58 109 48 242 105
3 144 109 1 48 242 105
3 1 109 55 48 242 105
3 1 55 129 48 242 105
3 129 55 115 127 20 204
3 115 55 116 127 20 204
3 116 55 110 127 20 204
3 110 55 123 127 20 204
3 123 55 65 127 20 204
3 65 55 138 127 20 204
3 65 138 145 127 20 204
3 145 138 149 127 20 204
3 149 138 136 127 20 204
3 149 136 6 127 20 204
3 6 136 163 48 242 105
3 163 136 162 48 242 105
3 163 162 6 48 242 105
3 149 6 152 127 20 204
3 152 6 137 127 20 204
3 152 137 5 127 20 204
3 5 137 129 127 20 204
3 129 137 133 48 242 105
3 129 133 1 48 242 105
3 1 133 135 48 242 105
3 1 135 120 48 242 105
3 5 129 139 127 20 204
3 139 129 115 127 20 204
3 139 115 116 127 20 204
3 139 116 117 127 20 204
3 117 116 110 127 20 204
3 117 110 0 127 20 204
3 0 110 70 127 20 204
3 70 110 123 127 20 204
3 70 123 66 127 20 204
3 66 123 145 127 20 204
3 145 123 65 127 20 204
3 66 145 149 127 20 204
3 66 149 158 127 20 204
3 158 149 152 127 20 204
3 158 152 5 127 20 204
3 158 5 8 127 20 204
3 8 5 32 127 20 204
3 32 5 4 127 20 204
3 4 5 139 127 20 204
3 4 139 117 127 20 204
3 4 117 130 127 20 204
3 130 117 124 127 20 204
3 124 117 118 242 221 72
3 118 117 0 127 20 204
3 118 0 2 242 221 72
3 2 0 167 242 221 72
3 167 0 140 127 20 204
3 140 0 70 127 20 204
3 140 70 61 127 20 204
3 61 70 174 127 20 204
3 174 70 66 127 20 204
3 174 66 158 127 20 204
3 174 158 8 127 20 204
3 174 8 10 127 20 204
3 10 8 175 242 221 72
3 175 8 32 127 20 204
3 175 32 150 242 221 72
3 150 32 130 127 20 204
3 130 32 4 127 20 204
3 150 130 124 242 221 72
3 150 124 141 242 221 72
3 141 124 118 242 221 72
3 141 118 131 242 221 72
3 131 118 3 242 221 72
3 3 118 2 242 221 72
3 3 2 159 242 221 72
3 159 2 167 242 221 72
3 159 167 166 242 221 72
3 166 167 140 242 221 72
3 166 140 61 242 221 72
3 166 61 10 242 221 72
3 10 61 174 127 20 204
3 166 10 217 242 221 72
3 217 10 200 242 221 72
3 200 10 175 242 221 72
3 200 175 211 242 221 72
3 211 175 150 242 221 72
3 211 150 153 242 221 72
3 153 150 141 242 221 72
3 153 141 132 242 221 72
3 132 141 131 242 221 72
3 132 131 143 242 221 72
3 143 131 142 242 221 72
3 142 131 3 242 221 72
3 142 3 168 242 221 72
3 168 3 159 242 221 72
3 168 159 219 242 221 72
3 219 159 217 242 221 72
3 217 159 166 242 221 72
3 219 217 232 242 221 72
3 232 217 231 242 221 72
3 231 217 200 242 221 72
3 231 200 211 242 221 72
3 231 211 201 242 221 72
3 201 211 153 242 221 72
3 201 153 132 242 221 72
3 201 132 212 242 221 72
3 212 132 169 242 221 72
3 169 132 148 242 221 72
3 148 132 143 242 221 72
3 148 143 170 242 221 72
3 170 143 160 242 221 72
3 160 143 142 242 221 72
3 160 142 168 242 221 72
3 160 168 187 242 221 72
3 187 168 235 242 221 72
3 235 168 219 242 221 72
3 235 219 218 242 221 72
3 218 219 232 242 221 72
3 218 232 25 40 176 204
3 25 232 275 40 176 204
3 275 232 231 242 221 72
3 275 231 336 40 176 204
3 336 231 38 40 176 204
3 38 231 233 242 221 72
3 233 231 201 242 221 72
3 233 201 212 242 221 72
3 233 212 221 242 221 72
3 221 212 169 242 221 72
3 221 169 11 242 221 72
3 11 169 148 242 221 72
3 11 148 188 242 221 72
3 188 148 170 242 221 72
3 188 170 189 242 221 72
3 189 170 176 242 221 72
3 176 170 160 242 221 72
3 176 160 187 242 221 72
3 176 187 257 242 221 72
3 257 187 235 242 221 72
3 257 235 314 242 221 72
3 314 235 234 40 176 204
3 234 235 218 40 176 204
3 234 218 244 40 176 204
3 244 218 25 40 176 204
3 244 25 305 40 176 204
3 305 25 346 40 176 204
3 346 25 337 40 176 204
3 337 25 293 40 176 204
3 293 25 266 40 176 204
3 266 25 275 40 176 204
3 266 275 255 40 176 204
3 255 275 313 40 176 204
3 313 275 336 40 176 204
3 313 336 397 40 176 204
3 397 336 388 40 176 204
3 388 336 38 40 176 204
3 388 38 30 40 176 204
3 30 38 233 40 176 204
3 30 233 221 40 176 204
3 30 221 306 40 176 204
3 306 221 245 242 221 72
3 245 221 11 242 221 72
3 245 11 220 242 221 72
3 220 11 188 242 221 72
3 220 188 177 242 221 72
3 177 188 7 242 221 72
3 7 188 189 242 221 72
3 7 189 171 40 176 204
3 171 189 745 40 176 204
3 745 189 176 40 176 204
3 745 176 267 40 176 204
3 267 176 257 242 221 72
3 267 257 314 40 176 204
3 267 314 348 40 176 204
3 348 314 307 40 176 204
3 307 314 295 40 176 204
3 295 314 234 40 176 204
3 295 234 294 40 176 204
3 294 234 244 40 176 204
3 294 244 305 40 176 204
3 294 305 346 40 176 204
3 294 346 378 40 176 204
3 378 346 398 40 176 204
3 398 346 387 40 176 204
3 387 346 337 40 176 204
3 387 337 420 40 176 204
3 420 337 345 40 176 204
3 345 337 293 40 176 204
3 345 293 84 40 176 204
3 84 293 243 40 176 204
3 243 293 256 40 176 204
3 256 293 266 40 176 204
3 256 266 255 40 176 204
3 256 255 45 40 176 204
3 45 255 254 40 176 204
3 254 255 313 40 176 204
3 254 313 335 40 176 204
3 335 313 412 40 176 204
3 412 313 397 40 176 204
3 412 397 470 40 176 204
3 470 397 413 40 176 204
3 413 397 388 40 176 204
3 413 388 483 40 176 204
3 483 388 527 40 176 204
3 527 388 519 40 176 204
3 519 388 30 40 176 204
3 519 30 462 40 176 204
3 462 30 306 40 176 204
3 462 306 414 242 221 72
3 414 306 363 242 221 72
3 363 306 338 242 221 72
3 338 306 245 242 221 72
3 338 245 220 242 221 72
3 338 220 195 242 221 72
3 195 220 177 242 221 72
3 195 177 178 242 221 72
3 178 177 151 242 221 72
3 151 177 7 242 221 72
3 151 7 172 242 221 72
3 172 7 154 40 176 204
3 154 7 171 40 176 204
3 154 171 196 40 176 204
3 196 171 276 40 176 204
3 276 171 745 40 176 204
3 276 745 42 40 176 204
3 42 745 267 40 176 204
3 42 267 348 40 176 204
3 42 348 400 40 176 204
3 400 348 399 40 176 204
3 399 348 347 40 176 204
3 347 348 307 40 176 204
3 347 307 378 40 176 204
3 378 307 294 40 176 204
3 294 307 295 40 176 204
3 347 378 425 40 176 204
3 425 378 398 40 176 204
3 425 398 454 40 176 204
3 454 398 387 40 176 204
3 454 387 444 40 176 204
3 444 387 420 40 176 204
3 444 420 507 40 176 204
3 507 420 439 40 176 204
3 439 420 67 40 176 204
3 67 420 386 40 176 204
3 386 420 345 40 176 204
3 386 345 84 40 176 204
3 386 84 377 40 176 204
3 377 84 292 40 176 204
3 292 84 243 40 176 204
3 292 243 285 40 176 204
3 285 243 216 40 176 204
3 216 243 210 40 176 204
3 210 243 256 40 176 204
3 210 256 45 40 176 204
3 210 45 37 40 176 204
3 37 45 215 40 176 204
3 215 45 254 40 176 204
3 215 254 253 40 176 204
3 253 254 335 40 176 204
3 253 335 344 40 176 204
3 344 335 423 40 176 204
3 423 335 438 40 176 204
3 438 335 412 40 176 204
3 438 412 470 40 176 204
3 438 470 533 40 176 204
3 533 470 498 40 176 204
3 498 470 483 40 176 204
3 483 470 413 40 176 204
3 498 483 527 40 176 204
3 498 527 551 40 176 204
3 551 527 499 40 176 204
3 499 527 519 40 176 204
3 499 519 626 40 176 204
3 626 519 639 242 221 72
3 639 519 409 242 221 72
3 409 519 462 242 221 72
3 409 462 414 242 221 72
3 409 414 485 242 221 72
3 485 414 363 242 221 72
3 485 363 62 242 221 72
3 62 363 339 40 176 204
3 339 363 195 242 221 72
3 195 363 338 242 221 72
3 339 195 353 242 221 72
3 353 195 246 242 221 72
3 246 195 178 242 221 72
3 246 178 202 204 61 61
3 202 178 277 204 61 61
3 277 178 151 204 61 61
3 277 151 172 204 61 61
3 277 172 203 204 61 61
3 203 172 204 204 61 61
3 204 172 154 204 61 61
3 204 154 196 40 176 204
3 204 196 236 40 176 204
3 236 196 276 40 176 204
3 236 276 286 204 61 61
3 286 276 322 204 61 61
3 322 276 42 40 176 204
3 322 42 379 204 61 61
3 379 42 400 40 176 204
3 379 400 433 204 61 61
3 433 400 421 40 176 204
3 421 400 399 40 176 204
3 421 399 426 40 176 204
3 426 399 425 40 176 204
3 425 399 347 40 176 204
3 426 425 455 40 176 204
3 455 425 484 40 176 204
3 484 425 454 40 176 204
3 484 454 444 40 176 204
3 484 444 566 40 176 204
3 566 444 497 40 176 204
3 497 444 507 40 176 204
3 497 507 563 40 176 204
3 563 507 582 40 176 204
3 582 507 86 40 176 204
3 86 507 506 40 176 204
3 506 507 439 40 176 204
3 506 439 67 40 176 204
3 506 67 432 40 176 204
3 432 67 386 40 176 204
3 432 386 377 40 176 204
3 432 377 424 40 176 204
3 424 377 343 40 176 204
3 343 377 285 40 176 204
3 285 377 292 40 176 204
3 343 285 252 40 176 204
3 252 285 216 40 176 204
3 252 216 13 40 176 204
3 13 216 749 40 176 204
3 749 216 210 40 176 204
3 749 210 37 40 176 204
3 749 37 751 242 24 142
3 751 37 36 242 24 142
3 36 37 186 242 24 142
3 186 37 215 40 176 204
3 186 215 274 40 176 204
3 274 215 253 40 176 204
3 274 253 344 40 176 204
3 274 344 334 40 176 204
3 334 344 423 40 176 204
3 334 423 419 40 176 204
3 419 423 453 40 176 204
3 453 423 549 40 176 204
3 549 423 550 40 176 204
3 550 423 438 40 176 204
3 550 438 545 40 176 204
3 545 438 533 40 176 204
3 545 533 89 40 176 204
3 89 533 498 40 176 204
3 89 498 583 40 176 204
3 583 498 551 40 176 204
3 583 551 597 40 176 204
3 597 551 598 242 221 72
3 598 551 499 40 176 204
3 598 499 94 242 221 72
3 94 499 626 242 221 72
3 94 626 700 242 221 72
3 700 626 667 242 221 72
3 667 626 680 40 176 204
3 680 626 639 242 221 72
3 680 639 624 242 221 72
3 624 639 409 242 221 72
3 624 409 485 242 221 72
3 624 485 92 40 176 204
3 92 485 62 40 176 204
3 92 62 68 40 176 204
3 68 62 427 40 176 204
3 427 62 339 40 176 204
3 427 339 353 242 221 72
3 427 353 258 204 61 61
3 258 353 246 204 61 61
3 258 246 259 204 61 61
3 259 246 202 204 61 61
3 259 202 277 204 61 61
3 259 277 323 204 61 61
3 323 277 288 204 61 61
3 288 277 203 204 61 61
3 288 203 213 204 61 61
3 213 203 206 204 61 61
3 206 203 204 204 61 61
3 206 204 205 204 61 61
3 205 204 236 204 61 61
3 205 236 260 204 61 61
3 260 236 286 204 61 61
3 260 286 268 204 61 61
3 268 286 287 204 61 61
3 287 286 380 204 61 61
3 380 286 321 204 61 61
3 321 286 322 204 61 61
3 321 322 379 204 61 61
3 321 379 445 204 61 61
3 445 379 433 204 61 61
3 445 433 74 204 61 61
3 74 433 744 204 61 61
3 744 433 486 204 61 61
3 486 433 77 40 176 204
3 77 433 421 40 176 204
3 77 421 426 40 176 204
3 77 426 520 40 176 204
3 520 426 455 40 176 204
3 520 455 528 40 176 204
3 528 455 518 40 176 204
3 518 455 484 40 176 204
3 518 484 87 40 176 204
3 87 484 566 40 176 204
3 87 566 565 40 176 204
3 565 566 572 40 176 204
3 572 566 497 40 176 204
3 572 497 563 40 176 204
3 572 563 564 40 176 204
3 564 563 582 40 176 204
3 564 582 571 40 176 204
3 571 582 581 40 176 204
3 581 582 86 40 176 204
3 581 86 482 40 176 204
3 482 86 506 40 176 204
3 482 506 424 40 176 204
3 424 506 432 40 176 204
3 482 424 481 40 176 204
3 481 424 352 40 176 204
3 352 424 343 40 176 204
3 352 343 748 40 176 204
3 748 343 252 40 176 204
3 748 252 209 40 176 204
3 209 252 13 40 176 204
3 209 13 311 242 24 142
3 311 13 193 242 24 142
3 193 13 751 242 24 142
3 751 13 749 242 24 142
3 193 751 164 242 24 142
3 164 751 165 242 24 142
3 165 751 36 242 24 142
3 165 36 186 242 24 142
3 165 186 185 242 24 142
3 185 186 15 242 24 142
3 15 186 274 242 24 142
3 15 274 312 40 176 204
3 312 274 39 40 176 204
3 39 274 334 40 176 204
3 39 334 419 40 176 204
3 39 419 418 40 176 204
3 418 419 452 40 176 204
3 452 419 453 40 176 204
3 452 453 544 40 176 204
3 544 453 549 40 176 204
3 544 549 596 40 176 204
3 596 549 613 40 176 204
3 613 549 550 40 176 204
3 613 550 606 40 176 204
3 606 550 545 40 176 204
3 606 545 89 40 176 204
3 606 89 571 40 176 204
3 571 89 564 40 176 204
3 564 89 583 40 176 204
3 564 583 623 40 176 204
3 623 583 597 40 176 204
3 623 597 607 40 176 204
3 607 597 614 242 221 72
3 614 597 637 242 221 72
3 637 597 615 242 221 72
3 615 597 598 242 221 72
3 615 598 666 242 221 72
3 666 598 94 242 221 72
3 666 94 693 242 221 72
3 693 94 709 242 221 72
3 709 94 700 242 221 72
3 709 700 711 242 221 72
3 711 700 681 242 221 72
3 681 700 667 242 221 72
3 681 667 689 40 176 204
3 689 667 694 40 176 204
3 694 667 688 40 176 204
3 688 667 680 242 221 72
3 688 680 625 242 221 72
3 625 680 624 40 176 204
3 625 624 92 40 176 204
3 625 92 660 40 176 204
3 660 92 574 40 176 204
3 574 92 68 40 176 204
3 574 68 415 40 176 204
3 415 68 427 40 176 204
3 415 427 258 204 61 61
3 415 258 428 204 61 61
3 428 258 259 204 61 61
3 428 259 508 204 61 61
3 508 259 323 204 61 61
3 508 323 463 204 61 61
3 463 323 289 204 61 61
3 289 323 288 204 61 61
3 289 288 316 204 61 61
3 316 288 213 204 61 61
3 316 213 12 204 61 61
3 12 213 206 204 61 61
3 12 206 214 204 61 61
3 214 206 197 204 61 61
3 197 206 205 204 61 61
3 197 205 207 204 61 61
3 207 205 247 204 61 61
3 247 205 260 204 61 61
3 247 260 268 204 61 61
3 247 268 269 204 61 61
3 269 268 315 204 61 61
3 315 268 366 204 61 61
3 366 268 364 204 61 61
3 364 268 287 204 61 61
3 364 287 380 204 61 61
3 364 380 404 204 61 61
3 404 380 445 204 61 61
3 445 380 321 204 61 61
3 404 445 471 204 61 61
3 471 445 74 204 61 61
3 471 74 568 204 61 61
3 568 74 553 204 61 61
3 553 74 744 204 61 61
3 553 744 617 204 61 61
3 617 744 486 40 176 204
3 617 486 552 40 176 204
3 552 486 609 40 176 204
3 609 486 77 40 176 204
3 609 77 520 40 176 204
3 609 520 567 40 176 204
3 567 520 528 40 176 204
3 567 528 79 40 176 204
3 79 528 573 40 176 204
3 573 528 518 40 176 204
3 573 518 87 40 176 204
3 573 87 565 40 176 204
3 573 565 79 40 176 204
3 79 565 608 40 176 204
3 608 565 572 40 176 204
3 608 572 623 40 176 204
3 623 572 564 40 176 204
3 608 623 93 40 176 204
3 93 623 607 40 176 204
3 93 607 96 242 221 72
3 96 607 614 242 221 72
3 96 614 697 242 221 72
3 697 614 637 242 221 72
3 697 637 648 242 221 72
3 648 637 638 242 221 72
3 638 637 615 242 221 72
3 638 615 679 242 221 72
3 679 615 692 242 221 72
3 692 615 693 242 221 72
3 693 615 666 242 221 72
3 692 693 33 242 221 72
3 33 693 709 242 221 72
3 33 709 716 242 221 72
3 716 709 711 242 221 72
3 716 711 710 242 221 72
3 710 711 54 242 221 72
3 54 711 681 242 221 72
3 54 681 689 40 176 204
3 54 689 552 40 176 204
3 552 689 617 40 176 204
3 617 689 682 40 176 204
3 682 689 669 40 176 204
3 669 689 694 40 176 204
3 669 694 698 40 176 204
3 698 694 688 242 221 72
3 698 688 660 242 221 72
3 660 688 625 40 176 204
3 698 660 651 242 221 72
3 651 660 574 204 61 61
3 651 574 575 204 61 61
3 575 574 415 204 61 61
3 575 415 529 204 61 61
3 529 415 428 204 61 61
3 529 428 521 204 61 61
3 521 428 508 204 61 61
3 521 508 463 204 61 61
3 521 463 509 204 61 61
3 509 463 446 204 61 61
3 446 463 416 204 61 61
3 416 463 24 204 61 61
3 24 463 289 204 61 61
3 24 289 316 204 61 61
3 24 316 324 204 61 61
3 324 316 12 204 61 61
3 324 12 237 204 61 61
3 237 12 214 204 61 61
3 237 214 290 204 61 61
3 290 214 238 204 61 61
3 238 214 197 204 61 61
3 238 197 208 204 61 61
3 208 197 207 204 61 61
3 208 207 222 204 61 61
3 222 207 296 204 61 61
3 296 207 247 204 61 61
3 296 247 269 204 61 61
3 296 269 46 204 61 61
3 46 269 315 204 61 61
3 46 315 434 204 61 61
3 434 315 366 204 61 61
3 434 366 410 204 61 61
3 410 366 365 204 61 61
3 365 366 364 204 61 61
3 365 364 404 204 61 61
3 365 404 429 204 61 61
3 429 404 471 204 61 61
3 429 471 80 204 61 61
3 80 471 568 204 61 61
3 80 568 554 204 61 61
3 554 568 553 204 61 61
3 554 553 584 204 61 61
3 584 553 599 204 61 61
3 599 553 668 204 61 61
3 668 553 617 204 61 61
3 668 617 682 40 176 204
3 668 682 669 40 176 204
3 668 669 652 204 61 61
3 652 669 14 40 176 204
3 14 669 698 40 176 204
3 14 698 672 40 176 204
3 672 698 651 204 61 61
3 672 651 661 204 61 61
3 661 651 575 204 61 61
3 661 575 529 204 61 61
3 661 529 521 204 61 61
3 661 521 95 204 61 61
3 95 521 82 204 61 61
3 82 521 509 204 61 61
3 82 509 446 204 61 61
3 82 446 510 204 61 61
3 510 446 534 204 61 61
3 534 446 416 204 61 61
3 534 416 447 204 61 61
3 447 416 349 204 61 61
3 349 416 24 204 61 61
3 349 24 324 204 61 61
3 349 324 237 204 61 61
3 349 237 355 204 61 61
3 355 237 298 204 61 61
3 298 237 290 204 61 61
3 298 290 373 204 61 61
3 373 290 317 204 61 61
3 317 290 28 204 61 61
3 28 290 238 204 61 61
3 28 238 222 204 61 61
3 222 238 208 204 61 61
3 28 222 43 204 61 61
3 43 222 278 204 61 61
3 278 222 297 204 61 61
3 297 222 296 204 61 61
3 297 296 354 204 61 61
3 354 296 389 204 61 61
3 389 296 46 204 61 61
3 389 46 64 204 61 61
3 64 46 434 204 61 61
3 64 434 75 204 61 61
3 75 434 456 204 61 61
3 456 434 410 204 61 61
3 456 410 546 204 61 61
3 546 410 440 204 61 61
3 440 410 365 204 61 61
3 440 365 429 204 61 61
3 440 429 546 204 61 61
3 546 429 80 204 61 61
3 546 80 554 204 61 61
3 546 554 522 204 61 61
3 522 554 585 204 61 61
3 585 554 584 204 61 61
3 585 584 586 204 61 61
3 586 584 47 204 61 61
3 47 584 599 204 61 61
3 47 599 653 204 61 61
3 653 599 652 204 61 61
3 652 599 668 204 61 61
3 653 652 640 204 61 61
3 640 652 14 204 61 61
3 640 14 673 204 61 61
3 673 14 672 204 61 61
3 673 672 95 204 61 61
3 95 672 661 204 61 61
3 673 95 640 204 61 61
3 640 95 627 204 61 61
3 627 95 82 204 61 61
3 627 82 510 204 61 61
3 627 510 628 204 61 61
3 628 510 577 204 61 61
3 577 510 534 204 61 61
3 577 534 487 204 61 61
3 487 534 447 204 61 61
3 487 447 464 204 61 61
3 464 447 390 204 61 61
3 390 447 349 204 61 61
3 390 349 355 204 61 61
3 390 355 417 204 61 61
3 417 355 373 204 61 61
3 373 355 298 204 61 61
3 417 373 317 204 61 61
3 417 317 422 204 61 61
3 422 317 411 204 61 61
3 411 317 28 204 61 61
3 411 28 43 204 61 61
3 411 43 405 204 61 61
3 405 43 367 204 61 61
3 367 43 278 204 61 61
3 367 278 465 204 61 61
3 465 278 372 204 61 61
3 372 278 354 204 61 61
3 354 278 297 204 61 61
3 372 354 389 204 61 61
3 372 389 64 204 61 61
3 372 64 435 204 61 61
3 435 64 479 204 61 61
3 479 64 75 204 61 61
3 479 75 535 204 61 61
3 535 75 555 204 61 61
3 555 75 456 204 61 61
3 555 456 522 204 61 61
3 522 456 546 204 61 61
3 555 522 585 204 61 61
3 555 585 586 204 61 61
3 555 586 576 204 61 61
3 576 586 641 204 61 61
3 641 586 47 204 61 61
3 641 47 618 204 61 61
3 618 47 653 204 61 61
3 618 653 629 204 61 61
3 629 653 627 204 61 61
3 627 653 640 204 61 61
3 629 627 628 204 61 61
3 629 628 9 204 61 61
3 9 628 487 204 61 61
3 487 628 577 204 61 61
3 9 487 547 204 61 61
3 547 487 464 204 61 61
3 547 464 417 204 61 61
3 417 464 390 204 61 61
3 547 417 422 204 61 61
3 547 422 488 204 61 61
3 488 422 448 204 61 61
3 448 422 405 204 61 61
3 405 422 411 204 61 61
3 448 405 76 204 61 61
3 76 405 465 204 61 61
3 465 405 367 204 61 61
3 76 465 511 204 61 61
3 511 465 500 204 61 61
3 500 465 435 204 61 61
3 435 465 372 204 61 61
3 500 435 479 204 61 61
3 500 479 535 204 61 61
3 500 535 511 204 61 61
3 511 535 556 204 61 61
3 556 535 576 204 61 61
3 576 535 555 204 61 61
3 556 576 63 204 61 61
3 63 576 618 204 61 61
3 618 576 641 204 61 61
3 63 618 610 204 61 61
3 610 618 629 204 61 61
3 610 629 88 204 61 61
3 88 629 9 204 61 61
3 88 9 547 204 61 61
3 88 547 488 204 61 61
3 88 488 610 204 61 61
3 610 488 523 204 61 61
3 523 488 448 204 61 61
3 523 448 76 204 61 61
3 523 76 511 204 61 61
3 523 511 63 204 61 61
3 63 511 556 204 61 61
3 523 63 610 204 61 61
3 54 552 609 40 176 204
3 54 609 650 40 176 204
3 650 609 649 40 176 204
3 649 609 567 40 176 204
3 649 567 616 40 176 204
3 616 567 79 40 176 204
3 616 79 608 40 176 204
3 616 608 93 40 176 204
3 616 93 96 242 221 72
3 616 96 687 242 221 72
3 687 96 699 242 221 72
3 699 96 697 242 221 72
3 699 697 105 242 221 72
3 105 697 671 242 221 72
3 671 697 648 242 221 72
3 671 648 659 242 221 72
3 659 648 638 242 221 72
3 659 638 658 242 221 72
3 658 638 679 242 221 72
3 658 679 686 242 221 72
3 686 679 692 242 221 72
3 686 692 707 127 20 204
3 707 692 725 127 20 204
3 725 692 33 242 221 72
3 725 33 34 242 221 72
3 34 33 716 242 221 72
3 34 716 708 242 221 72
3 708 716 720 242 221 72
3 720 716 710 242 221 72
3 720 710 687 242 221 72
3 687 710 99 242 221 72
3 99 710 650 242 221 72
3 650 710 54 242 221 72
3 99 650 649 40 176 204
3 99 649 616 40 176 204
3 99 616 687 242 221 72
3 720 687 708 242 221 72
3 708 687 699 242 221 72
3 708 699 732 242 221 72
3 732 699 105 242 221 72
3 732 105 726 242 221 72
3 726 105 671 242 221 72
3 726 671 696 127 20 204
3 696 671 665 127 20 204
3 665 671 659 127 20 204
3 665 659 678 127 20 204
3 678 659 658 127 20 204
3 678 658 686 127 20 204
3 678 686 691 127 20 204
3 691 686 707 127 20 204
3 691 707 715 127 20 204
3 715 707 731 127 20 204
3 731 707 737 127 20 204
3 737 707 725 127 20 204
3 737 725 738 127 20 204
3 738 725 739 127 20 204
3 739 725 34 242 221 72
3 739 34 732 242 221 72
3 732 34 708 242 221 72
3 739 732 60 127 20 204
3 60 732 726 127 20 204
3 60 726 730 127 20 204
3 730 726 704 127 20 204
3 704 726 696 127 20 204
3 704 696 724 127 20 204
3 724 696 104 127 20 204
3 104 696 690 127 20 204
3 690 696 665 127 20 204
3 690 665 678 127 20 204
3 690 678 691 127 20 204
3 690 691 695 127 20 204
3 695 691 685 127 20 204
3 685 691 714 127 20 204
3 714 691 718 127 20 204
3 718 691 715 127 20 204
3 718 715 731 127 20 204
3 718 731 735 127 20 204
3 735 731 719 127 20 204
3 719 731 736 127 20 204
3 736 731 738 127 20 204
3 738 731 737 127 20 204
3 736 738 730 127 20 204
3 730 738 60 127 20 204
3 60 738 739 127 20 204
3 736 730 724 127 20 204
3 724 730 704 127 20 204
3 736 724 719 127 20 204
3 719 724 100 127 20 204
3 100 724 104 127 20 204
3 100 104 695 127 20 204
3 695 104 690 127 20 204
3 100 695 685 127 20 204
3 100 685 676 48 242 105
3 676 685 103 48 242 105
3 103 685 714 48 242 105
3 103 714 713 48 242 105
3 713 714 706 48 242 105
3 706 714 712 48 242 105
3 712 714 718 127 20 204
3 712 718 742 127 20 204
3 742 718 735 127 20 204
3 742 735 107 48 242 105
3 107 735 719 48 242 105
3 107 719 703 48 242 105
3 703 719 100 48 242 105
3 703 100 101 48 242 105
3 101 100 676 48 242 105
3 101 676 103 48 242 105
3 101 103 102 48 242 105
3 102 103 703 48 242 105
3 703 103 713 48 242 105
3 703 713 727 48 242 105
3 727 713 721 48 242 105
3 721 713 706 48 242 105
3 721 706 723 48 242 105
3 723 706 705 48 242 105
3 705 706 717 48 242 105
3 717 706 734 48 242 105
3 734 706 729 48 242 105
3 729 706 712 48 242 105
3 729 712 742 48 242 105
3 729 742 741 48 242 105
3 741 742 107 48 242 105
3 741 107 705 48 242 105
3 705 107 733 48 242 105
3 733 107 727 48 242 105
3 727 107 703 48 242 105
3 733 727 740 48 242 105
3 740 727 721 48 242 105
3 740 721 733 48 242 105
3 733 721 701 48 242 105
3 701 721 723 48 242 105
3 701 723 702 48 242 105
3 702 723 728 48 242 105
3 728 723 705 48 242 105
3 728 705 733 48 242 105
3 728 733 106 48 242 105
3 106 733 701 48 242 105
3 106 701 702 48 242 105
3 106 702 728 48 242 105
3 741 705 734 48 242 105
3 734 705 722 48 242 105
3 722 705 717 48 242 105
3 722 717 734 48 242 105
3 741 734 729 48 242 105
3 102 703 101 48 242 105
3 606 571 647 40 176 204
3 647 571 581 40 176 204
3 647 581 612 40 176 204
3 612 581 482 40 176 204
3 612 482 543 40 176 204
3 543 482 481 40 176 204
3 543 481 526 40 176 204
3 526 481 352 40 176 204
3 526 352 505 40 176 204
3 505 352 747 40 176 204
3 747 352 748 40 176 204
3 747 748 333 40 176 204
3 333 748 209 40 176 204
3 333 209 311 242 24 142
3 333 311 332 242 24 142
3 332 311 265 242 24 142
3 265 311 193 242 24 142
3 265 193 264 242 24 142
3 264 193 164 242 24 142
3 264 164 161 242 24 142
3 161 164 155 242 24 142
3 155 164 156 242 24 142
3 156 164 165 242 24 142
3 156 165 185 242 24 142
3 156 185 173 242 24 142
3 173 185 194 242 24 142
3 194 185 351 242 24 142
3 351 185 15 242 24 142
3 351 15 362 242 24 142
3 362 15 312 40 176 204
3 362 312 418 40 176 204
3 418 312 39 40 176 204
3 362 418 59 40 176 204
3 59 418 443 40 176 204
3 443 418 532 40 176 204
3 532 418 452 40 176 204
3 532 452 542 40 176 204
3 542 452 611 40 176 204
3 611 452 544 40 176 204
3 611 544 596 40 176 204
3 611 596 636 40 176 204
3 636 596 613 40 176 204
3 636 613 657 40 176 204
3 657 613 606 40 176 204
3 657 606 647 40 176 204
3 657 647 746 242 24 142
3 746 647 612 40 176 204
3 746 612 635 242 24 142
3 635 612 543 242 24 142
3 635 543 634 242 24 142
3 634 543 526 242 24 142
3 634 526 517 242 24 142
3 517 526 505 242 24 142
3 517 505 504 242 24 142
3 504 505 431 40 176 204
3 431 505 407 40 176 204
3 407 505 747 40 176 204
3 407 747 396 242 24 142
3 396 747 332 242 24 142
3 332 747 333 242 24 142
3 396 332 31 242 24 142
3 31 332 265 242 24 142
3 31 265 273 242 24 142
3 273 265 264 242 24 142
3 273 264 272 242 24 142
3 272 264 161 242 24 142
3 272 161 184 242 24 142
3 184 161 183 242 24 142
3 183 161 155 242 24 142
3 183 155 192 242 24 142
3 192 155 173 242 24 142
3 173 155 156 242 24 142
3 192 173 194 242 24 142
3 192 194 271 242 24 142
3 271 194 351 242 24 142
3 271 351 361 242 24 142
3 361 351 362 242 24 142
3 361 362 59 242 24 142
3 361 59 53 242 24 142
3 53 59 407 242 24 142
3 407 59 431 40 176 204
3 431 59 443 40 176 204
3 431 443 442 242 24 142
3 442 443 478 242 24 142
3 478 443 542 242 24 142
3 542 443 532 40 176 204
3 478 542 646 242 24 142
3 646 542 656 242 24 142
3 656 542 108 242 24 142
3 108 542 611 242 24 142
3 108 611 636 242 24 142
3 108 636 664 242 24 142
3 664 636 657 242 24 142
3 664 657 746 242 24 142
3 664 746 750 242 24 142
3 750 746 635 242 24 142
3 750 635 69 242 24 142
3 69 635 634 242 24 142
3 69 634 633 242 24 142
3 633 634 562 242 24 142
3 562 634 517 242 24 142
3 562 517 516 242 24 142
3 516 517 437 242 24 142
3 437 517 504 242 24 142
3 437 504 431 242 24 142
3 437 431 430 242 24 142
3 430 431 442 242 24 142
3 430 442 441 242 24 142
3 441 442 477 242 24 142
3 477 442 478 242 24 142
3 477 478 561 242 24 142
3 561 478 646 242 24 142
3 561 646 90 242 24 142
3 90 646 655 242 24 142
3 655 646 670 242 24 142
3 670 646 656 242 24 142
3 670 656 664 242 24 142
3 664 656 108 242 24 142
3 670 664 684 242 24 142
3 684 664 677 242 24 142
3 677 664 750 242 24 142
3 677 750 69 242 24 142
3 677 69 633 242 24 142
3 677 633 675 242 24 142
3 675 633 632 242 24 142
3 632 633 562 242 24 142
3 632 562 548 242 24 142
3 548 562 516 242 24 142
3 548 516 503 242 24 142
3 503 516 437 242 24 142
3 503 437 461 242 24 142
3 461 437 430 242 24 142
3 461 430 50 242 24 142
3 50 430 441 242 24 142
3 50 441 469 242 24 142
3 469 441 477 242 24 142
3 469 477 83 242 24 142
3 83 477 561 242 24 142
3 83 561 97 242 24 142
3 97 561 645 242 24 142
3 645 561 90 242 24 142
3 645 90 98 242 24 142
3 98 90 655 242 24 142
3 98 655 684 242 24 142
3 684 655 670 242 24 142
3 98 684 683 242 24 142
3 683 684 674 242 24 142
3 674 684 677 242 24 142
3 674 677 675 242 24 142
3 674 675 632 242 24 142
3 674 632 622 242 24 142
3 622 632 548 242 24 142
3 622 548 605 242 24 142
3 605 548 531 242 24 142
3 531 548 503 242 24 142
3 531 503 468 242 24 142
3 468 503 461 242 24 142
3 468 461 50 242 24 142
3 468 50 467 242 24 142
3 467 50 460 242 24 142
3 460 50 476 242 24 142
3 476 50 469 242 24 142
3 476 469 83 242 24 142
3 476 83 525 242 24 142
3 525 83 621 242 24 142
3 621 83 97 242 24 142
3 621 97 604 242 24 142
3 604 97 683 242 24 142
3 683 97 645 242 24 142
3 683 645 98 242 24 142
3 604 683 41 242 24 142
3 41 683 674 242 24 142
3 41 674 622 242 24 142
3 41 622 605 242 24 142
3 41 605 663 242 24 142
3 663 605 631 242 24 142
3 631 605 91 242 24 142
3 91 605 580 242 24 142
3 580 605 531 242 24 142
3 580 531 468 242 24 142
3 580 468 467 242 24 142
3 580 467 515 242 24 142
3 515 467 475 96 204 61
3 475 467 460 96 204 61
3 475 460 459 96 204 61
3 459 460 743 96 204 61
3 743 460 476 96 204 61
3 743 476 514 96 204 61
3 514 476 525 96 204 61
3 514 525 595 96 204 61
3 595 525 621 242 24 142
3 595 621 644 242 24 142
3 644 621 604 242 24 142
3 644 604 663 242 24 142
3 663 604 41 242 24 142
3 644 663 631 242 24 142
3 644 631 57 96 204 61
3 57 631 594 96 204 61
3 594 631 91 242 24 142
3 594 91 515 242 24 142
3 515 91 580 242 24 142
3 594 515 524 96 204 61
3 524 515 475 96 204 61
3 524 475 502 96 204 61
3 502 475 459 96 204 61
3 502 459 466 96 204 61
3 466 459 451 96 204 61
3 451 459 743 96 204 61
3 451 743 513 96 204 61
3 513 743 514 96 204 61
3 513 514 18 96 204 61
3 18 514 595 96 204 61
3 18 595 644 96 204 61
3 18 644 662 96 204 61
3 662 644 57 96 204 61
3 662 57 643 96 204 61
3 643 57 603 96 204 61
3 603 57 594 96 204 61
3 603 594 524 96 204 61
3 603 524 541 96 204 61
3 541 524 502 96 204 61
3 541 502 496 96 204 61
3 496 502 466 96 204 61
3 496 466 474 96 204 61
3 474 466 450 96 204 61
3 450 466 451 96 204 61
3 450 451 495 96 204 61
3 495 451 513 96 204 61
3 495 513 630 96 204 61
3 630 513 18 96 204 61
3 630 18 662 96 204 61
3 630 662 16 96 204 61
3 16 662 643 96 204 61
3 16 643 642 96 204 61
3 642 643 603 96 204 61
3 642 603 593 96 204 61
3 593 603 541 96 204 61
3 593 541 540 96 204 61
3 540 541 496 96 204 61
3 540 496 530 96 204 61
3 530 496 474 96 204 61
3 530 474 494 96 204 61
3 494 474 40 96 204 61
3 40 474 26 96 204 61
3 26 474 450 96 204 61
3 26 450 501 96 204 61
3 501 450 495 96 204 61
3 501 495 579 96 204 61
3 579 495 630 96 204 61
3 579 630 16 96 204 61
3 579 16 654 96 204 61
3 654 16 642 96 204 61
3 654 642 619 96 204 61
3 619 642 620 96 204 61
3 620 642 56 96 204 61
3 56 642 593 96 204 61
3 56 593 530 96 204 61
3 530 593 540 96 204 61
3 56 530 620 96 204 61
3 620 530 569 96 204 61
3 569 530 560 96 204 61
3 560 530 494 96 204 61
3 560 494 538 96 204 61
3 538 494 493 96 204 61
3 493 494 473 96 204 61
3 473 494 40 96 204 61
3 473 40 512 96 204 61
3 512 40 26 96 204 61
3 512 26 501 96 204 61
3 512 501 539 96 204 61
3 539 501 570 96 204 61
3 570 501 579 96 204 61
3 570 579 602 96 204 61
3 602 579 654 96 204 61
3 602 654 619 96 204 61
3 602 619 592 96 204 61
3 592 619 569 96 204 61
3 569 619 620 96 204 61
3 592 569 591 96 204 61
3 591 569 538 96 204 61
3 538 569 560 96 204 61
3 591 538 559 56 48 242
3 559 538 493 56 48 242
3 559 493 492 56 48 242
3 492 493 458 56 48 242
3 458 493 473 56 48 242
3 458 473 472 56 48 242
3 472 473 490 56 48 242
3 490 473 512 56 48 242
3 490 512 85 56 48 242
3 85 512 539 96 204 61
3 85 539 578 56 48 242
3 578 539 602 96 204 61
3 602 539 570 96 204 61
3 578 602 592 96 204 61
3 578 592 591 56 48 242
3 578 591 601 56 48 242
3 601 591 600 56 48 242
3 600 591 558 56 48 242
3 558 591 559 56 48 242
3 558 559 491 56 48 242
3 491 559 492 56 48 242
3 491 492 71 56 48 242
3 71 492 458 56 48 242
3 71 458 457 56 48 242
3 457 458 449 56 48 242
3 449 458 472 56 48 242
3 449 472 557 56 48 242
3 557 472 490 56 48 242
3 557 490 489 56 48 242
3 489 490 85 56 48 242
3 489 85 587 56 48 242
3 587 85 578 56 48 242
3 587 578 601 56 48 242
3 587 601 588 56 48 242
3 588 601 600 56 48 242
3 588 600 589 56 48 242
3 589 600 558 56 48 242
3 589 558 536 56 48 242
3 536 558 537 56 48 242
3 537 558 491 56 48 242
3 537 491 480 56 48 242
3 480 491 436 56 48 242
3 436 491 71 56 48 242
3 436 71 78 56 48 242
3 78 71 457 56 48 242
3 78 457 590 56 48 242
3 590 457 81 56 48 242
3 81 457 449 56 48 242
3 81 449 557 56 48 242
3 81 557 588 56 48 242
3 588 557 489 56 48 242
3 588 489 587 56 48 242
3 81 588 589 56 48 242
3 81 589 590 56 48 242
3 590 589 536 56 48 242
3 590 536 78 56 48 242
3 78 536 480 56 48 242
3 480 536 537 56 48 242
3 78 480 436 56 48 242
3 53 407 408 242 24 142
3 408 407 396 242 24 142
3 408 396 406 242 24 142
3 406 396 31 242 24 142
3 406 31 394 242 24 142
3 394 31 385 242 24 142
3 385 31 273 242 24 142
3 385 273 272 242 24 142
3 385 272 310 242 24 142
3 310 272 230 242 24 142
3 230 272 184 242 24 142
3 230 184 199 242 24 142
3 199 184 183 242 24 142
3 199 183 191 242 24 142
3 191 183 291 242 24 142
3 291 183 192 242 24 142
3 291 192 271 242 24 142
3 291 271 304 242 24 142
3 304 271 371 242 24 142
3 371 271 350 242 24 142
3 350 271 361 242 24 142
3 350 361 403 242 24 142
3 403 361 53 242 24 142
3 403 53 408 242 24 142
3 403 408 393 242 24 142
3 393 408 406 242 24 142
3 393 406 394 242 24 142
3 393 394 52 242 24 142
3 52 394 385 242 24 142
3 52 385 310 242 24 142
3 52 310 72 242 24 142
3 72 310 230 242 24 142
3 72 230 27 242 24 142
3 27 230 242 242 24 142
3 242 230 229 242 24 142
3 229 230 199 242 24 142
3 229 199 191 242 24 142
3 229 191 251 242 24 142
3 251 191 182 96 204 61
3 182 191 228 96 204 61
3 228 191 291 242 24 142
3 228 291 304 242 24 142
3 228 304 22 242 24 142
3 22 304 29 242 24 142
3 29 304 371 242 24 142
3 29 371 51 242 24 142
3 51 371 393 242 24 142
3 393 371 395 242 24 142
3 395 371 350 242 24 142
3 395 350 403 242 24 142
3 395 403 393 242 24 142
3 51 393 376 242 24 142
3 376 393 52 242 24 142
3 376 52 72 242 24 142
3 376 72 27 242 24 142
3 376 27 370 242 24 142
3 370 27 303 242 24 142
3 303 27 241 96 204 61
3 241 27 242 242 24 142
3 241 242 229 242 24 142
3 241 229 251 242 24 142
3 241 251 227 96 204 61
3 227 251 198 96 204 61
3 198 251 182 96 204 61
3 198 182 181 96 204 61
3 181 182 240 96 204 61
3 240 182 228 96 204 61
3 240 228 23 96 204 61
3 23 228 22 96 204 61
3 23 22 29 96 204 61
3 23 29 21 96 204 61
3 21 29 375 96 204 61
3 375 29 51 96 204 61
3 375 51 342 96 204 61
3 342 51 370 96 204 61
3 370 51 376 242 24 142
3 342 370 303 96 204 61
3 342 303 331 96 204 61
3 331 303 227 96 204 61
3 227 303 241 96 204 61
3 331 227 239 96 204 61
3 239 227 190 96 204 61
3 190 227 198 96 204 61
3 190 198 181 96 204 61
3 190 181 179 96 204 61
3 179 181 180 96 204 61
3 180 181 20 96 204 61
3 20 181 240 96 204 61
3 20 240 320 96 204 61
3 320 240 23 96 204 61
3 320 23 21 96 204 61
3 320 21 330 96 204 61
3 330 21 383 96 204 61
3 383 21 384 96 204 61
3 384 21 375 96 204 61
3 384 375 341 96 204 61
3 341 375 342 96 204 61
3 341 342 331 96 204 61
3 341 331 329 96 204 61
3 329 331 239 96 204 61
3 329 239 284 96 204 61
3 284 239 190 96 204 61
3 284 190 48 96 204 61
3 48 190 226 96 204 61
3 226 190 179 96 204 61
3 226 179 180 96 204 61
3 226 180 270 96 204 61
3 270 180 328 96 204 61
3 328 180 330 96 204 61
3 330 180 20 96 204 61
3 330 20 320 96 204 61
3 328 330 383 96 204 61
3 328 383 19 96 204 61
3 19 383 384 96 204 61
3 19 384 360 96 204 61
3 360 384 341 96 204 61
3 360 341 326 96 204 61
3 326 341 302 96 204 61
3 302 341 329 96 204 61
3 302 329 284 96 204 61
3 302 284 250 96 204 61
3 250 284 48 96 204 61
3 250 48 35 96 204 61
3 35 48 281 96 204 61
3 281 48 226 96 204 61
3 281 226 263 96 204 61
3 263 226 270 96 204 61
3 263 270 327 96 204 61
3 327 270 328 96 204 61
3 327 328 19 96 204 61
3 327 19 356 96 204 61
3 356 19 359 96 204 61
3 359 19 360 96 204 61
3 359 360 326 96 204 61
3 359 326 301 96 204 61
3 301 326 302 96 204 61
3 301 302 283 96 204 61
3 283 302 250 96 204 61
3 283 250 35 96 204 61
3 283 35 249 96 204 61
3 249 35 281 96 204 61
3 249 281 225 56 48 242
3 225 281 282 56 48 242
3 282 281 263 96 204 61
3 282 263 319 96 204 61
3 319 263 327 96 204 61
3 319 327 356 96 204 61
3 319 356 357 96 204 61
3 357 356 359 96 204 61
3 357 359 358 96 204 61
3 358 359 301 96 204 61
3 358 301 340 96 204 61
3 340 301 249 96 204 61
3 249 301 283 96 204 61
3 340 249 280 56 48 242
3 280 249 224 56 48 242
3 224 249 225 56 48 242
3 224 225 223 56 48 242
3 223 225 279 56 48 242
3 279 225 309 56 48 242
3 309 225 282 56 48 242
3 309 282 319 56 48 242
3 309 319 357 56 48 242
3 309 357 369 56 48 242
3 369 357 340 56 48 242
3 340 357 358 96 204 61
3 369 340 382 56 48 242
3 382 340 280 56 48 242
3 382 280 392 56 48 242
3 392 280 262 56 48 242
3 262 280 224 56 48 242
3 262 224 248 56 48 242
3 248 224 17 56 48 242
3 17 224 223 56 48 242
3 17 223 299 56 48 242
3 299 223 279 56 48 242
3 299 279 318 56 48 242
3 318 279 309 56 48 242
3 318 309 369 56 48 242
3 318 369 368 56 48 242
3 368 369 49 56 48 242
3 49 369 382 56 48 242
3 49 382 381 56 48 242
3 381 382 374 56 48 242
3 374 382 392 56 48 242
3 374 392 44 56 48 242
3 44 392 300 56 48 242
3 300 392 262 56 48 242
3 300 262 248 56 48 242
3 300 248 261 56 48 242
3 261 248 17 56 48 242
3 261 17 308 56 48 242
3 308 17 299 56 48 242
3 308 299 368 56 48 242
3 368 299 318 56 48 242
3 308 368 49 56 48 242
3 308 49 381 56 48 242
3 308 381 401 56 48 242
3 401 381 374 56 48 242
3 401 374 402 56 48 242
3 402 374 44 56 48 242
3 402 44 325 56 48 242
3 325 44 300 56 48 242
3 325 300 261 56 48 242
3 325 261 391 56 48 242
3 391 261 308 56 48 242
3 391 308 401 56 48 242
3 391 401 402 56 48 242
3 391 402 325 56 48 242
3 127 144 147 48 242 105
3 147 144 122 48 242 105
3 147 122 127 48 242 105
