ply
format ascii 1.0
element vertex 752
property float x
property float y
property float z
element face 1500
property list uchar int vertex_indices
property uchar red
property uchar green
property uchar blue
end_header
0.041193 -0.100383 -0.954985
0.0211 0.0723 0.817556
-0.081925 0.020983 0.825817
0.070784 0.010877 0.810503
0.066089 -0.046702 0.803367
-0.083548 0.063329 0.807175
0.050509 0.040191 0.81273
0.049724 -0.058456 0.796092
-0.104179 0.024865 0.787123
0.082714 -0.013528 0.804402
-0.092444 -0.010978 0.787675
0.075049 -0.061127 0.759786
0.087962 0.006347 0.777927
0.080861 -0.011771 0.778307
0.089543 -0.034051 0.730321
-0.104468 -0.018068 0.721632
-0.086567 -0.04282 0.747563
0.070821 0.060164 0.727197
0.067973 -0.058435 0.726245
-0.115803 0.008499 0.691337
0.089017 -0.020614 0.691115
0.0724 -0.086395 0.677998
0.070434 0.036004 0.656194
0.091357 -0.039165 0.700915
0.064839 0.00157 0.639845
0.044772 0.013872 0.618174
0.078283 -0.049269 0.637209
0.075829 -0.085815 0.655381
0.047966 -0.101342 0.62541
0.050308 -0.026455 0.608397
0.065672 0.056522 0.654391
0.072076 0.048514 0.607979
0.009274 -0.05671 0.599582
0.058184 0.021903 0.588828
-0.11262 -0.019229 0.593622
0.021537 -0.047069 0.589451
0.042004 0.087943 0.57206
0.053861 0.047548 0.553581
-0.091539 -0.052458 0.58589
0.039266 0.013513 0.56418
-0.089847 0.077796 0.56283
0.05525 0.066152 0.558567
-0.114515 0.043551 0.57292
-0.114561 0.014185 0.569193
0.169649 0.01612 0.516895
0.17891 0.060281 0.494401
0.162728 0.10285 0.4906
0.177527 0.034691 0.482053
0.145274 -0.017403 0.469577
-0.191452 -0.040997 0.510491
-0.198724 -0.0153 0.452832
-0.14717 -0.078788 0.463244
-0.179665 0.036879 0.4434
0.111433 -0.061764 0.452243
-0.116586 -0.101436 0.408587
0.14194 -0.007207 0.410164
0.17046 0.054744 0.437679
0.135556 0.038889 0.435134
0.161282 0.165653 0.42239
0.12832 0.057579 0.418216
0.122749 0.129674 0.370826
-0.146229 0.028621 0.386187
-0.12206 -0.079088 0.420695
0.144699 0.084741 0.38836
0.120284 0.164213 0.393084
-0.200739 -0.056242 0.419965
0.185479 0.099117 0.424549
-0.196521 -0.04414 0.351651
0.000455 -0.10959 0.389053
0.122162 -0.08549 0.371982
-0.205089 -0.073966 0.339853
0.146219 0.217527 0.311909
-0.118879 -0.12281 0.352743
-0.124115 -0.077412 0.345855
-0.10199 0.046158 0.33437
-0.126941 -0.09476 0.372983
0.063381 -0.156214 0.342719
-0.197874 -0.115641 0.331699
0.205686 0.190587 0.328623
-0.146043 -0.130816 0.276509
0.153047 0.181317 0.302595
-0.120929 0.016218 0.312302
-0.216474 -0.116242 0.273839
0.131597 -0.05725 0.313351
0.129166 -0.007475 0.31052
0.10681 -0.001497 0.265278
-0.138186 -0.089309 0.294399
0.107976 -0.041336 0.222511
-0.104534 -0.064371 0.209096
-0.190738 -0.091005 0.236178
-0.206504 -0.092331 0.257855
0.184188 0.1911 0.250508
0.105725 -0.089884 0.232393
0.086871 -0.117166 0.222546
0.168403 0.232036 0.253949
-0.107925 -0.014028 0.237818
-0.215402 -0.168199 0.233854
-0.084216 0.027515 0.249415
-0.120289 -0.043859 0.267104
-0.146303 -0.146789 0.231627
-0.144073 -0.11558 0.24577
0.267773 0.232079 0.185732
0.109384 -0.066738 0.183862
0.254606 0.243018 0.231163
-0.227784 -0.127566 0.228587
-0.034692 -0.118776 0.173986
-0.235493 -0.174461 0.176311
-0.163502 -0.183026 0.179515
-0.240507 -0.178734 0.133626
-0.015251 0.046849 0.15432
0.028215 0.00656 0.178495
-0.111813 -0.013381 0.149327
0.252045 0.269715 0.124892
0.024915 0.074528 0.091413
-0.064204 -0.094399 0.153634
-0.226147 -0.159515 0.129351
-0.189781 -0.219385 0.109323
0.115818 -0.116658 0.119021
0.095492 -0.140234 0.100139
-0.242358 -0.212974 0.079975
0.331897 0.348332 0.082462
0.262049 0.340231 0.068701
0.331552 0.324234 0.06852
-0.262866 -0.323043 0.075867
0.263479 0.324461 0.060654
-0.239004 -0.307424 0.059245
-0.29615 -0.331865 0.066361
-0.208423 -0.25612 0.065313
-0.291719 -0.358562 0.051788
0.262517 0.349617 0.053023
-0.215443 -0.251573 0.0319
-0.229302 -0.320892 0.036561
0.326278 0.321523 0.052895
0.062102 0.05823 0.056809
-0.234138 -0.218705 0.033829
-0.316171 -0.337363 0.037655
0.284742 0.373783 0.045556
-0.248968 -0.310195 0.030236
0.15073 -0.097202 0.005043
-0.118575 0.004881 0.034032
0.072568 -0.147591 0.049121
0.069091 0.05216 -0.000884
-0.130597 0.020384 -0.000658
-0.04169 -0.062053 -0.027859
0.170935 -0.040298 -0.038491
0.080951 0.049503 -0.019467
0.055097 0.013361 -0.034573
0.162977 -0.000981 -0.028814
0.039578 -0.115329 -0.049632
0.065245 0.068242 -0.026617
-0.131948 -0.026759 -0.015623
0.131861 0.00446 -0.075654
0.027199 -0.061749 -0.052306
0.051386 -0.005956 -0.071709
0.154661 -0.015831 -0.078521
0.03456 -0.033805 -0.070425
0.172026 -0.064368 -0.085977
-0.100551 -0.08667 -0.103079
0.15769 -0.104286 -0.092495
-0.076653 0.075615 -0.095423
-0.165124 -0.002774 -0.069589
0.027344 -0.080697 -0.113656
0.04564 -0.115477 -0.169607
-0.035182 0.021507 -0.169105
-0.183716 -0.028871 -0.133496
-0.049568 0.052959 -0.156715
0.033533 -0.069054 -0.207325
0.030297 -0.037078 -0.130447
-0.200343 -0.034179 -0.214361
0.164464 -0.008997 -0.154699
0.160792 -0.094411 -0.173666
-0.182376 0.008947 -0.202378
0.175939 -0.046218 -0.175618
0.066416 0.010257 -0.255999
0.061671 0.009825 -0.332517
-0.044133 -0.010314 -0.204737
-0.055018 0.015835 -0.231409
-0.110775 -0.09558 -0.198529
0.040937 -0.026955 -0.230629
-0.082859 -0.032304 -0.299399
0.164098 -0.067677 -0.24539
-0.064548 -0.046159 -0.234448
-0.203224 -0.029715 -0.340939
0.164641 -0.035884 -0.288285
0.340607 0.309263 0.067249
0.046713 -0.015351 -0.33305
0.337971 0.336431 0.034583
0.334046 0.308509 0.052967
0.331295 0.305984 0.091252
0.322181 0.341086 0.096966
-0.109655 -0.070847 -0.364637
0.293523 0.356044 0.062164
0.309591 0.346725 0.071504
0.288906 0.279327 0.077604
0.308422 0.277547 0.122282
0.311042 0.273678 0.089254
0.305585 0.256051 0.117467
-0.12444 -0.036471 -0.372474
0.290503 0.379034 0.049504
0.291796 0.361424 0.069837
0.295348 0.315687 0.072195
0.281891 0.263997 0.160487
0.282043 0.355299 0.076566
0.304388 0.35648 0.089011
0.149934 0.003909 -0.398
0.285698 0.285911 0.120437
0.270966 0.291418 0.105886
-0.113129 -0.094187 -0.342094
0.27331 0.352587 0.060161
-0.119832 -0.093691 -0.395539
0.270066 0.359247 0.045214
0.049758 -0.024598 -0.402847
-0.212196 -0.090471 -0.331004
0.278297 0.236269 0.156953
0.269162 0.285462 0.082931
0.246014 0.271305 0.20288
0.243639 0.223446 0.176901
0.26662 0.274932 0.15609
-0.215636 -0.056783 -0.333311
0.269194 0.246591 0.123488
0.247063 0.256628 0.236891
0.149099 -0.041332 -0.398747
-0.215528 -0.039606 -0.438511
0.225488 0.238114 0.294926
0.233472 0.204176 0.270959
0.226396 0.19907 0.222475
0.232372 0.252597 0.155682
-0.230962 -0.060466 -0.43831
-0.231359 -0.103362 -0.414234
0.23171 0.215407 0.29564
0.238985 0.270056 0.162022
0.198256 0.218315 0.212653
0.226638 0.268785 0.235656
0.153803 -0.025003 -0.401908
-0.144846 -0.009464 -0.443417
-0.132449 -0.074598 -0.4414
0.208494 0.204163 0.339156
0.191839 0.216054 0.356544
0.053608 -0.000274 -0.438586
0.161958 0.019243 -0.475389
0.19426 0.167294 0.389867
0.198967 0.14099 0.359754
0.17741 0.129122 0.439603
0.172127 0.095954 0.383049
0.189878 0.251276 0.222866
-0.151012 -0.117392 -0.458885
0.205958 0.254042 0.297418
0.178416 0.171668 0.299712
0.159878 0.137587 0.334051
0.178114 -0.007799 -0.607845
0.179678 0.25584 0.289431
0.164352 -0.003742 -0.223152
0.086786 -0.059295 -0.491503
-0.207808 -0.133611 -0.463485
0.165177 -0.009108 -0.483839
0.146991 0.022216 0.538839
0.154493 0.008389 0.458277
0.152571 0.206598 0.373665
0.161328 0.235578 0.337986
0.152425 0.005843 -0.323869
0.078295 0.025265 -0.50486
0.076155 -0.017239 -0.533098
0.159939 0.07522 -0.688724
0.160247 0.066707 -0.752667
0.149948 0.069831 -0.888077
0.140546 0.162061 0.431704
0.126156 -0.130087 -0.11132
0.14763 -0.07988 -0.295235
0.149476 -0.038068 -0.508451
0.146917 0.019631 -0.002648
0.146484 0.083136 -0.946359
0.132917 0.020907 -0.292204
0.137564 -0.109632 -0.218381
0.156015 0.057134 0.532373
0.14259 -0.013606 -0.715962
0.141714 0.070773 -0.792672
0.136372 0.076134 -0.882878
0.143645 -0.033656 0.099608
0.154909 0.04273 -0.501808
0.110723 0.044375 -0.452243
-0.176913 0.034828 -0.549735
0.112582 0.116576 0.474716
0.136046 -0.066686 0.123359
0.125743 0.05348 -0.505063
0.140981 0.026416 -0.431351
0.136549 0.071815 -0.558319
0.13127 -0.016013 0.505474
0.130137 0.072562 -0.745615
0.136926 0.002503 -0.812771
0.127986 0.079863 -0.941728
0.128121 0.105945 0.499728
0.116991 0.072059 0.411454
0.115489 0.08129 0.413331
0.128791 0.031752 0.369055
0.091552 -0.111483 -0.278357
0.120005 -0.104867 -0.284805
0.117683 0.030983 -0.384121
0.133273 -0.060527 -0.404052
0.131618 0.06891 -0.990954
0.115084 0.037331 0.043676
0.187255 0.025807 -0.590535
0.134577 -0.005593 0.090288
0.134406 -0.04119 -0.556219
0.104903 -0.101705 0.166921
0.11554 -0.015558 -0.706135
0.104425 0.050259 -0.02687
0.134498 0.020079 -0.189542
0.130385 0.081944 -0.63934
0.12415 -0.069008 0.418117
0.11559 -0.000259 -0.790733
0.106895 0.007779 -0.870264
0.095822 -0.134465 -0.164077
0.103551 -0.073189 -0.398389
0.10332 -0.064962 -0.478062
0.118313 0.008535 -0.97648
0.100036 -0.140242 0.338849
0.111347 0.029332 0.328824
0.085479 0.01438 -0.069519
0.119845 -0.128532 -0.032891
0.102324 0.04764 -0.505687
0.130926 -0.013354 -0.967328
0.102343 0.055672 -0.892737
0.106832 0.072495 0.519008
0.098634 0.094616 0.44892
0.111691 -0.095675 0.309516
0.085048 0.057662 0.018371
0.081244 -0.064823 -0.433963
0.100265 -0.0358 -0.561783
0.101043 0.042585 0.537035
0.094935 -0.035417 -0.976252
0.106311 -0.078047 -0.969727
0.075676 -0.10547 0.429437
0.097619 0.086995 0.493393
0.104546 -0.150458 0.376612
0.0956 0.018558 -0.118063
0.08784 0.029864 -0.36853
0.089354 0.003315 -0.669232
0.085715 -0.011045 -0.610166
0.092512 -0.10036 -0.964527
0.078928 0.092562 0.466336
0.08606 0.086145 0.424161
0.091714 -0.113171 0.31736
0.097465 0.058206 -0.005902
0.103816 0.026829 -0.288792
0.077149 -0.075348 -0.377738
-0.141432 0.090989 -0.579933
0.062416 0.056228 0.541111
0.08556 0.024776 0.729485
0.104137 -0.029176 0.156048
0.070382 -0.030301 0.515
0.107308 -0.027523 -0.908801
0.076437 0.015258 0.725692
0.091445 -0.023449 0.210205
0.079777 -0.136958 -0.056938
0.053961 0.017226 0.548582
0.080283 0.003258 0.132854
0.050909 -0.057952 -0.974744
0.076994 0.039692 0.769762
0.071817 -0.098676 0.694149
0.076261 0.043407 0.687198
0.076736 -0.157307 0.379256
0.174489 0.058799 -0.586023
-0.058936 0.020944 -0.557901
0.08008 0.036195 -0.573834
-0.167796 -0.032993 -0.552599
0.076906 -0.015744 0.183557
0.066749 -0.11672 -0.227024
0.071123 0.027028 -0.424218
0.085326 -0.017861 0.518092
0.064436 -0.095465 -0.971248
0.065563 0.0229 0.683825
0.03998 0.104494 0.461103
0.043476 0.018466 0.127795
0.078104 0.032213 0.085831
0.065443 0.03627 0.025025
0.051588 -0.1232 -0.103934
0.082424 0.041006 -0.654395
0.040312 -0.007094 0.834207
0.066804 -0.046786 -0.468611
0.061234 -0.082165 -0.941588
0.041695 -0.051238 0.489295
0.085331 0.055126 0.349341
0.046059 -0.128804 -0.016417
0.061139 -0.058735 -0.387844
0.052087 -0.124572 0.313191
0.028111 -0.058763 0.824913
0.067073 -0.129376 0.214774
0.030736 -0.130641 0.208622
0.054994 0.027099 0.07094
0.056744 0.030572 0.026851
-0.156015 0.047924 -0.59123
0.05085 -0.041722 0.826601
0.060664 -0.104117 0.655768
0.046428 -0.10824 -0.968915
0.043117 -0.085471 0.764126
0.065572 0.080912 0.516146
0.069047 0.001228 0.224452
0.047002 0.066595 0.792208
0.043024 -0.05034 -0.32589
0.058472 -0.088188 -0.311207
0.014318 -0.095668 0.724397
0.036632 -0.12815 0.035801
0.056722 0.002543 -0.165149
0.041473 0.094737 0.402489
0.046184 0.013422 -0.026192
0.032875 -0.033432 0.526082
0.065756 -0.090542 0.606957
0.052899 -0.033662 -0.92798
0.046377 -0.061391 -0.931398
0.049027 -0.095973 -0.246704
0.057059 -0.086891 0.717677
0.044911 0.084544 0.661388
0.034324 -0.018249 0.554357
0.020766 -0.052686 0.500028
-0.03499 0.094618 -0.635424
0.032019 -0.021241 0.584199
0.038086 -0.142211 0.109572
0.042423 0.01996 -0.036686
0.033595 -0.009767 -0.043664
0.026058 -0.094189 0.612953
0.024256 -0.096008 -0.967655
0.024555 -0.09654 -0.02719
0.035387 0.262186 -0.799803
0.039862 -0.103379 0.675924
0.016679 0.109291 0.689723
0.028796 0.056667 0.337431
0.051021 0.084743 0.017475
0.041328 0.090629 0.747119
0.016059 -0.021711 0.837483
0.007029 -0.091115 0.439424
0.04013 -0.149086 0.358009
0.015307 0.016381 0.247376
0.050695 0.050186 -0.056582
0.020287 -0.113706 -0.964783
0.031593 0.09486 0.623547
-0.015493 -0.108838 -0.003464
0.015835 -0.096921 0.758797
-0.007524 0.082943 0.408055
0.010987 -0.121381 0.347341
0.003827 0.104119 -0.023901
-0.006951 0.236575 -0.757268
0.096227 0.067053 -0.620544
-0.007527 -0.098923 0.698077
-0.001327 -0.045533 0.558685
0.001669 -0.049283 -0.058081
-0.016103 -0.078635 -0.051564
0.03039 0.067375 0.535779
0.005826 0.01529 -0.079566
0.014158 -0.017302 -0.052483
0.0284 0.269056 -0.777549
-0.008228 0.072199 0.833116
-0.012205 0.028059 0.182316
-0.03317 0.082901 0.115558
0.000363 0.090851 -0.061326
-0.083815 0.059255 -0.651006
0.013652 0.025377 0.838497
0.002262 0.163598 -0.76572
-0.034877 0.112466 0.747307
-0.018484 -0.082715 0.771589
-0.016893 0.106125 0.637156
0.017101 -0.127598 0.284025
-0.017364 -0.02657 -0.093159
0.110746 0.069109 -0.695679
-0.012666 0.01997 -0.098723
0.156882 -0.019764 -0.659381
0.001201 -0.041199 0.503067
-0.043007 -0.12898 0.409986
-0.007249 -0.069773 0.820862
0.005508 -0.083175 0.804591
0.012165 0.104858 0.760201
-0.02301 0.068523 0.524521
-0.046893 -0.147615 0.372658
-0.008383 -0.117352 0.360444
-0.002668 0.101605 0.05447
-0.020732 -0.047052 -0.04948
-0.032136 0.11054 -0.678008
0.000964 0.101348 0.803186
-0.038082 -0.07298 0.477119
-0.031504 0.060344 -0.094406
-0.021695 0.1436 -0.730288
0.0099 0.218436 -0.733955
-0.031547 0.235897 -0.796769
-0.050541 0.109729 0.709668
-0.023989 -0.041655 0.588977
-0.01946 0.111436 0.572235
-0.016193 0.09721 0.543065
-0.039417 0.202466 -0.737191
-0.021217 0.175687 -0.68185
-0.027354 -0.05819 0.506454
-0.005298 0.19646 -0.711298
-0.029128 0.149433 -0.757825
-0.016156 0.21387 -0.860156
-0.027911 -0.028115 0.836963
-0.02809 -0.041805 0.529944
-0.050782 0.087542 0.391602
-0.014949 0.05759 0.334757
-0.026122 -0.046972 -0.076567
-0.022749 0.145316 -0.659802
-0.020451 -0.07501 0.641401
-0.023243 0.160457 -0.815831
-0.029514 0.240222 -0.833464
-0.041758 -0.04968 0.634363
-0.048017 0.103269 0.632803
-0.032658 -0.119803 0.331912
-0.048283 0.163061 -0.835209
-0.040793 -0.070588 0.728124
-0.050747 0.101981 0.557058
-0.078015 -0.062007 0.49156
-0.059768 -0.115725 0.2747
-0.043676 0.031857 0.233593
-0.05265 0.09399 0.049934
-0.053947 -0.054767 -0.028117
-0.050457 0.024372 0.83875
-0.032522 -0.07486 0.801987
-0.041054 -0.080487 0.763498
-0.059695 -0.065897 0.786104
-0.013822 0.084333 0.464559
-0.045549 -0.089544 -0.002504
-0.066247 0.137243 -0.72395
-0.065011 0.15952 -0.725895
-0.049994 0.059434 0.832165
-0.058821 0.120238 -0.715151
-0.050529 0.179643 -0.766726
-0.051726 0.231544 -0.835561
-0.048796 0.153274 -0.941972
-0.042304 0.067065 0.507359
-0.062334 0.094495 0.419704
-0.037701 -0.114158 0.222241
-0.074216 0.058732 0.524525
0.17992 0.048943 -0.689718
-0.081848 -0.026021 0.528431
-0.053909 0.177499 -0.697586
-0.067671 -0.149901 0.345046
-0.059981 0.227577 -0.87991
-0.052963 -0.077471 0.733484
-0.048497 -0.059944 0.674598
-0.067599 0.066931 0.120444
-0.063501 0.145543 -0.940724
0.096192 0.045142 -0.72208
-0.052701 0.10838 -0.581422
-0.068231 -0.037009 0.797286
-0.075376 0.147184 -0.629855
-0.072946 -0.062676 0.692176
-0.058275 -0.062311 0.598679
-0.070979 0.024461 0.211186
-0.076349 -0.079888 -0.113959
0.000767 0.178696 -0.717441
-0.060601 0.045494 -0.533407
-0.065683 0.031268 -0.607137
-0.054169 -0.031673 0.541231
-0.084724 -0.045584 0.031883
-0.056132 0.169456 -0.926083
-0.04084 0.089655 0.814931
-0.053961 0.103597 0.771102
-0.070127 0.058807 0.338614
-0.071677 -0.111423 0.311823
-0.056308 0.037154 0.171821
-0.066047 -0.007018 0.821138
-0.069168 -0.054452 0.514992
-0.087902 -0.057899 0.085245
-0.042935 -0.110147 0.065463
-0.075968 0.222245 -0.877082
-0.072739 -0.061753 0.643755
-0.080844 0.088827 0.461192
0.027123 0.219088 -0.746529
-0.074926 0.121331 -0.580106
0.17753 0.019091 -0.706791
-0.094689 -0.054059 -0.017412
-0.067438 0.191796 -0.917375
-0.086767 0.205407 -0.914026
-0.073153 0.17319 -0.929076
-0.09387 -0.036737 0.658238
-0.11719 0.070146 -0.043311
-0.073611 0.043705 -0.229141
-0.084103 0.076366 -0.524569
-0.087758 -0.006068 -0.494444
-0.097092 0.075129 0.747111
-0.090518 0.016026 0.176886
-0.045595 0.106505 -0.041796
-0.084406 -0.008792 -0.564126
0.149072 0.001396 -0.766724
-0.102075 0.056789 0.64514
-0.099581 -0.029525 0.558509
-0.09855 -0.091672 0.446704
-0.101999 0.023163 0.134318
-0.084612 0.063788 -0.175017
-0.107004 0.003511 -0.30842
-0.119996 -0.059187 -0.483335
0.119681 0.062084 -0.818621
-0.084304 -0.01842 0.539344
-0.110433 -0.043081 0.175984
-0.102182 -0.089347 0.252935
-0.100811 0.009611 0.54732
-0.088516 -0.104504 0.312727
-0.112962 -0.086389 0.328114
-0.09338 0.064905 0.047422
-0.112954 -0.02352 0.027839
-0.126503 0.062651 -0.08124
-0.100618 0.052926 -0.228641
-0.090517 0.140379 -0.658831
-0.100913 0.064019 0.701855
-0.092523 -0.15507 0.381704
-0.082273 -0.07637 -0.212587
-0.10849 0.031041 -0.477377
-0.101985 -0.145238 0.351661
-0.107303 0.0725 0.461686
-0.11687 0.019657 0.050921
-0.115431 -0.003732 0.536234
-0.116407 -0.028761 -0.457887
-0.109838 -0.021475 0.108725
-0.118528 -0.074404 0.472481
-0.149167 0.010321 -0.307844
-0.046018 0.167581 -0.78277
-0.104406 0.079601 -0.66104
-0.103291 0.114407 -0.664377
-0.129888 -0.058868 0.33236
-0.093794 0.05444 0.519098
-0.102145 0.030054 0.535862
-0.137676 -0.079077 -0.095735
-0.132848 0.052386 -0.207281
-0.125811 -0.108772 -0.332624
0.100638 0.005251 -0.744942
-0.141657 -0.031314 -0.56246
-0.103284 -0.051299 0.516309
-0.158178 -0.108892 -0.235171
-0.143988 -0.113462 -0.260924
-0.14664 -0.120453 -0.350796
0.023979 0.201866 -0.762999
-0.155768 -0.129487 -0.416151
-0.128407 -0.059665 -0.519073
-0.131164 0.080444 -0.522651
-0.152473 -0.016897 0.542334
-0.137164 -0.034765 0.355074
0.050319 0.24852 -0.787176
0.019003 0.204008 -0.811752
-0.126558 0.026868 -0.615237
-0.158198 0.013715 -0.583244
-0.150719 -0.019567 -0.370096
-0.154472 -0.036041 -0.425877
-0.139374 0.036494 -0.47555
-0.125119 0.0641 0.413099
-0.166143 -0.001413 0.389357
-0.143138 -0.048727 0.333321
-0.159981 -0.080149 0.269854
-0.172832 -0.059801 -0.119427
-0.159166 0.03722 -0.149783
0.103391 0.039587 -0.843828
-0.186439 0.009094 0.518858
-0.174332 -0.037965 0.533219
-0.170584 -0.113622 -0.492968
-0.158229 -0.065768 0.5036
-0.16614 -0.128155 0.342891
-0.175503 0.036894 -0.508039
-0.174706 0.012942 -0.46724
0.165525 0.034528 -0.797166
-0.153792 -0.107565 0.386394
-0.164926 -0.105586 0.21985
-0.166482 -0.156003 0.166111
-0.154999 0.034899 -0.07893
-0.166608 -0.097679 -0.198391
-0.175287 -0.121957 -0.344503
-0.190868 -0.113089 -0.320598
0.009797 0.229135 -0.827983
-0.159698 -0.161388 0.235467
-0.200059 -0.176655 0.233888
-0.177856 -0.083879 0.439378
-0.188423 -0.085666 0.396818
-0.17801 -0.059029 0.294878
-0.167147 0.016673 -0.257604
-0.165598 -0.074511 -0.527803
-0.181066 0.034856 0.478602
-0.190008 -0.009861 0.408552
-0.194313 -0.060765 0.307531
-0.188375 -0.212685 0.156079
-0.181583 -0.021107 -0.377471
-0.186816 -0.025601 -0.429597
-0.010136 0.180948 -0.84825
0.100904 0.022539 -0.83762
-0.192695 -0.093127 -0.513442
-0.196134 -0.142712 0.281788
-0.195282 -0.128169 0.166525
-0.197877 -0.080103 -0.237234
-0.191315 -0.140772 -0.444062
-0.20417 -0.210466 0.16482
-0.212209 -0.026683 -0.473046
0.154703 0.064973 -0.817159
-0.206126 -0.244739 0.100916
-0.057657 0.194858 -0.813573
-0.212084 -0.125544 -0.397416
0.154996 0.040182 -0.855963
-0.193959 -0.03167 -0.529854
-0.218206 -0.113574 0.196621
-0.201667 -0.187248 0.101111
-0.222287 -0.250664 0.08834
-0.22464 -0.202839 0.157728
-0.201545 -0.220288 0.074872
-0.057487 0.15496 -0.907666
-0.223809 -0.09137 -0.483244
-0.228722 -0.266093 0.06501
-0.077359 0.183529 -0.898375
0.0918 0.023103 -0.883738
-0.23813 -0.221296 0.102219
-0.232109 -0.197556 0.077822
0.136946 0.011002 -0.873055
-0.242381 -0.241847 0.01941
-0.246192 -0.263967 0.02152
-0.240828 -0.321561 0.022696
0.157856 0.03329 -0.894106
-0.025048 0.183111 -0.90322
0.143218 0.00654 -0.917521
0.081134 -0.008334 -0.900911
-0.247581 -0.319281 0.042023
-0.241599 -0.253112 0.064611
-0.256936 -0.339563 0.020349
-0.038622 0.163121 -0.923263
0.115836 -0.007411 -0.892057
-0.265381 -0.292546 0.039461
-0.244866 -0.226235 0.045522
-0.267814 -0.24823 0.03139
-0.033583 0.154219 -0.895706
-0.270225 -0.327839 0.057474
0.058851 -0.018747 -0.936538
0.132054 -0.026635 -0.947246
-0.279978 -0.323234 0.063499
-0.257795 -0.32726 0.065068
0.091849 0.036731 -0.92221
-0.283308 -0.355545 0.060887
-0.283206 -0.30958 0.050041
-0.069365 0.156505 -0.944053
0.107631 0.058216 -0.971801
0.03687 -0.04642 -0.963886
-0.292048 -0.292032 0.035636
-0.281388 -0.303576 0.071194
-0.286881 -0.269123 0.02523
0.018195 -0.080761 -0.958882
-0.297905 -0.317204 0.052132
-0.30104 -0.342328 0.052482
-0.293229 -0.351654 0.060077
0.076686 -0.010633 -0.960441
0.008162 -0.103644 -0.95532
0.091489 0.020489 -0.957639
0.063063 -0.104329 -0.960986
-0.301439 -0.275648 0.044015
-0.308288 -0.309788 0.055114
-0.309833 -0.340588 0.055635
0.147295 0.024148 -0.974584
-0.30524 -0.293625 0.045026
-0.318248 -0.305057 0.032823
-0.309541 -0.310747 0.044285
0.159745 0.062097 -0.974516
-0.322234 -0.33815 0.045193
-0.324133 -0.335038 0.034422
3 203 192 191 48 242 105
3 191 192 200 48 242 105
3 200 192 122 48 242 105
3 122 192 120 48 242 105
3 120 192 203 48 242 105
3 120 203 189 48 242 105
3 189 203 205 48 242 105
3 205 203 206 48 242 105
3 206 203 202 48 242 105
3 202 203 199 48 242 105
3 199 203 191 48 242 105
3 199 191 198 48 242 105
3 198 191 136 48 242 105
3 136 191 208 48 242 105
3 208 191 200 48 242 105
3 208 200 210 48 242 105
3 210 200 124 48 242 105
3 124 200 193 48 242 105
3 193 200 132 48 242 105
3 132 200 122 48 242 105
3 132 122 186 48 242 105
3 186 122 184 48 242 105
3 184 122 188 48 242 105
3 188 122 120 48 242 105
3 188 120 189 48 242 105
3 188 189 194 48 242 105
3 194 189 205 48 242 105
3 194 205 201 127 20 204
3 201 205 217 127 20 204
3 217 205 230 127 20 204
3 230 205 112 127 20 204
3 112 205 206 127 20 204
3 112 206 214 127 20 204
3 214 206 121 48 242 105
3 121 206 202 48 242 105
3 121 202 208 48 242 105
3 208 202 136 48 242 105
3 136 202 198 48 242 105
3 198 202 199 48 242 105
3 121 208 129 48 242 105
3 129 208 210 48 242 105
3 129 210 124 48 242 105
3 129 124 121 48 242 105
3 121 124 214 48 242 105
3 214 124 193 48 242 105
3 214 193 219 127 20 204
3 219 193 195 127 20 204
3 195 193 187 48 242 105
3 187 193 132 48 242 105
3 187 132 186 48 242 105
3 187 186 184 48 242 105
3 187 184 195 48 242 105
3 195 184 188 48 242 105
3 195 188 196 48 242 105
3 196 188 194 48 242 105
3 196 194 201 127 20 204
3 196 201 213 127 20 204
3 213 201 101 127 20 204
3 101 201 103 127 20 204
3 103 201 220 127 20 204
3 220 201 215 127 20 204
3 215 201 217 127 20 204
3 215 217 230 127 20 204
3 215 230 232 127 20 204
3 232 230 244 127 20 204
3 244 230 226 127 20 204
3 226 230 112 127 20 204
3 226 112 219 127 20 204
3 219 112 214 127 20 204
3 226 219 216 127 20 204
3 216 219 213 127 20 204
3 213 219 196 127 20 204
3 196 219 195 127 20 204
3 216 213 101 127 20 204
3 216 101 225 127 20 204
3 225 101 224 127 20 204
3 224 101 103 127 20 204
3 224 103 229 127 20 204
3 229 103 223 127 20 204
3 223 103 220 127 20 204
3 223 220 246 127 20 204
3 246 220 232 127 20 204
3 232 220 215 127 20 204
3 246 232 250 127 20 204
3 250 232 244 127 20 204
3 250 244 94 127 20 204
3 94 244 231 127 20 204
3 231 244 226 127 20 204
3 231 226 216 127 20 204
3 231 216 225 127 20 204
3 231 225 91 127 20 204
3 91 225 247 127 20 204
3 247 225 224 127 20 204
3 247 224 78 127 20 204
3 78 224 229 127 20 204
3 78 229 236 127 20 204
3 236 229 223 127 20 204
3 236 223 237 242 221 72
3 237 223 246 127 20 204
3 237 246 258 242 221 72
3 258 246 250 127 20 204
3 258 250 71 242 221 72
3 71 250 94 127 20 204
3 71 94 80 242 221 72
3 80 94 91 127 20 204
3 91 94 231 127 20 204
3 80 91 247 127 20 204
3 80 247 248 242 221 72
3 248 247 241 242 221 72
3 241 247 78 242 221 72
3 241 78 236 242 221 72
3 241 236 240 242 221 72
3 240 236 237 242 221 72
3 240 237 58 242 221 72
3 58 237 257 242 221 72
3 257 237 258 242 221 72
3 257 258 64 242 221 72
3 64 258 71 242 221 72
3 64 71 60 242 221 72
3 60 71 80 242 221 72
3 60 80 248 242 221 72
3 60 248 63 242 221 72
3 63 248 243 242 221 72
3 243 248 241 242 221 72
3 243 241 66 242 221 72
3 66 241 240 242 221 72
3 66 240 242 242 221 72
3 242 240 58 242 221 72
3 242 58 46 242 221 72
3 46 58 265 242 221 72
3 265 58 257 242 221 72
3 265 257 64 242 221 72
3 265 64 281 242 221 72
3 281 64 323 242 221 72
3 323 64 60 242 221 72
3 323 60 292 242 221 72
3 292 60 63 242 221 72
3 292 63 291 242 221 72
3 291 63 59 242 221 72
3 59 63 57 242 221 72
3 57 63 56 242 221 72
3 56 63 243 242 221 72
3 56 243 66 242 221 72
3 56 66 47 242 221 72
3 47 66 45 242 221 72
3 45 66 242 242 221 72
3 45 242 46 242 221 72
3 45 46 273 242 221 72
3 273 46 290 242 221 72
3 290 46 265 242 221 72
3 290 265 281 242 221 72
3 290 281 332 242 221 72
3 332 281 323 242 221 72
3 332 323 339 242 221 72
3 339 323 340 40 176 204
3 340 323 292 242 221 72
3 340 292 291 242 221 72
3 340 291 381 40 176 204
3 381 291 316 40 176 204
3 316 291 293 40 176 204
3 293 291 59 40 176 204
3 293 59 57 40 176 204
3 293 57 55 40 176 204
3 55 57 256 242 221 72
3 256 57 56 242 221 72
3 256 56 47 242 221 72
3 256 47 48 242 221 72
3 48 47 44 242 221 72
3 44 47 45 242 221 72
3 44 45 273 242 221 72
3 44 273 255 242 221 72
3 255 273 328 40 176 204
3 328 273 322 40 176 204
3 322 273 290 40 176 204
3 322 290 332 40 176 204
3 322 332 395 40 176 204
3 395 332 371 40 176 204
3 371 332 339 40 176 204
3 371 339 340 40 176 204
3 371 340 403 40 176 204
3 403 340 381 40 176 204
3 403 381 425 40 176 204
3 425 381 396 40 176 204
3 396 381 316 40 176 204
3 396 316 85 40 176 204
3 85 316 84 40 176 204
3 84 316 293 40 176 204
3 84 293 55 40 176 204
3 84 55 83 40 176 204
3 83 55 308 40 176 204
3 308 55 48 40 176 204
3 48 55 256 40 176 204
3 308 48 53 40 176 204
3 53 48 286 40 176 204
3 286 48 44 242 221 72
3 286 44 255 242 221 72
3 286 255 368 40 176 204
3 368 255 328 40 176 204
3 368 328 354 40 176 204
3 354 328 346 40 176 204
3 346 328 322 40 176 204
3 346 322 395 40 176 204
3 346 395 446 40 176 204
3 446 395 371 40 176 204
3 446 371 516 40 176 204
3 516 371 437 40 176 204
3 437 371 403 40 176 204
3 437 403 425 40 176 204
3 437 425 495 40 176 204
3 495 425 431 40 176 204
3 431 425 396 40 176 204
3 431 396 110 40 176 204
3 110 396 365 40 176 204
3 365 396 352 40 176 204
3 352 396 85 40 176 204
3 352 85 87 40 176 204
3 87 85 84 40 176 204
3 87 84 83 40 176 204
3 87 83 92 40 176 204
3 92 83 324 40 176 204
3 324 83 69 40 176 204
3 69 83 308 40 176 204
3 69 308 333 40 176 204
3 333 308 53 40 176 204
3 333 53 331 40 176 204
3 331 53 380 40 176 204
3 380 53 349 40 176 204
3 349 53 286 40 176 204
3 349 286 368 40 176 204
3 349 368 354 40 176 204
3 349 354 405 40 176 204
3 405 354 412 40 176 204
3 412 354 39 204 61 61
3 39 354 37 204 61 61
3 37 354 346 40 176 204
3 37 346 446 40 176 204
3 37 446 41 204 61 61
3 41 446 36 204 61 61
3 36 446 485 204 61 61
3 485 446 470 40 176 204
3 470 446 516 40 176 204
3 470 516 525 40 176 204
3 525 516 563 40 176 204
3 563 516 526 40 176 204
3 526 516 437 40 176 204
3 526 437 494 40 176 204
3 494 437 495 40 176 204
3 494 495 554 40 176 204
3 554 495 509 40 176 204
3 509 495 431 40 176 204
3 509 431 451 40 176 204
3 451 431 110 40 176 204
3 451 110 109 40 176 204
3 109 110 372 40 176 204
3 372 110 355 40 176 204
3 355 110 365 40 176 204
3 355 365 348 40 176 204
3 348 365 352 40 176 204
3 348 352 102 40 176 204
3 102 352 87 40 176 204
3 102 87 92 40 176 204
3 102 92 303 40 176 204
3 303 92 93 40 176 204
3 93 92 341 40 176 204
3 341 92 324 40 176 204
3 341 324 69 40 176 204
3 341 69 315 40 176 204
3 315 69 333 40 176 204
3 315 333 76 40 176 204
3 76 333 360 40 176 204
3 360 333 331 40 176 204
3 360 331 429 40 176 204
3 429 331 380 40 176 204
3 429 380 413 40 176 204
3 413 380 349 40 176 204
3 413 349 405 40 176 204
3 413 405 465 40 176 204
3 465 405 493 40 176 204
3 493 405 443 40 176 204
3 443 405 412 204 61 61
3 443 412 35 204 61 61
3 35 412 415 204 61 61
3 415 412 39 204 61 61
3 415 39 25 204 61 61
3 25 39 33 204 61 61
3 33 39 37 204 61 61
3 33 37 31 204 61 61
3 31 37 41 204 61 61
3 31 41 36 204 61 61
3 31 36 434 204 61 61
3 434 36 484 204 61 61
3 484 36 485 204 61 61
3 484 485 506 204 61 61
3 506 485 528 204 61 61
3 528 485 470 204 61 61
3 528 470 525 40 176 204
3 528 525 616 40 176 204
3 616 525 563 40 176 204
3 616 563 605 40 176 204
3 605 563 526 40 176 204
3 605 526 640 40 176 204
3 640 526 494 40 176 204
3 640 494 74 40 176 204
3 74 494 554 40 176 204
3 74 554 97 40 176 204
3 97 554 509 40 176 204
3 97 509 544 40 176 204
3 544 509 556 40 176 204
3 556 509 451 40 176 204
3 556 451 109 40 176 204
3 556 109 452 40 176 204
3 452 109 113 40 176 204
3 113 109 372 40 176 204
3 113 372 133 40 176 204
3 133 372 388 40 176 204
3 388 372 373 40 176 204
3 373 372 355 40 176 204
3 373 355 301 40 176 204
3 301 355 348 40 176 204
3 301 348 277 40 176 204
3 277 348 282 40 176 204
3 282 348 102 40 176 204
3 282 102 303 40 176 204
3 282 303 117 40 176 204
3 117 303 93 40 176 204
3 117 93 386 40 176 204
3 386 93 341 40 176 204
3 386 341 384 40 176 204
3 384 341 315 40 176 204
3 384 315 76 40 176 204
3 384 76 430 40 176 204
3 430 76 360 40 176 204
3 430 360 429 40 176 204
3 430 429 68 40 176 204
3 68 429 466 40 176 204
3 466 429 477 40 176 204
3 477 429 413 40 176 204
3 477 413 488 40 176 204
3 488 413 465 40 176 204
3 488 465 493 40 176 204
3 488 493 558 40 176 204
3 558 493 530 40 176 204
3 530 493 549 40 176 204
3 549 493 443 204 61 61
3 549 443 483 204 61 61
3 483 443 32 204 61 61
3 32 443 35 204 61 61
3 32 35 406 204 61 61
3 406 35 29 204 61 61
3 29 35 415 204 61 61
3 29 415 25 204 61 61
3 29 25 24 204 61 61
3 24 25 370 204 61 61
3 370 25 22 204 61 61
3 22 25 31 204 61 61
3 31 25 33 204 61 61
3 22 31 30 204 61 61
3 30 31 434 204 61 61
3 30 434 411 204 61 61
3 411 434 424 204 61 61
3 424 434 459 204 61 61
3 459 434 484 204 61 61
3 459 484 502 204 61 61
3 502 484 506 204 61 61
3 502 506 40 204 61 61
3 40 506 528 204 61 61
3 40 528 42 204 61 61
3 42 528 617 204 61 61
3 617 528 616 204 61 61
3 617 616 647 40 176 204
3 647 616 670 40 176 204
3 670 616 605 40 176 204
3 670 605 640 40 176 204
3 670 640 52 40 176 204
3 52 640 61 40 176 204
3 61 640 74 40 176 204
3 61 74 81 40 176 204
3 81 74 97 40 176 204
3 81 97 95 40 176 204
3 95 97 577 40 176 204
3 577 97 544 40 176 204
3 577 544 556 40 176 204
3 577 556 536 40 176 204
3 536 556 452 40 176 204
3 536 452 510 40 176 204
3 510 452 473 40 176 204
3 473 452 113 40 176 204
3 473 113 426 40 176 204
3 426 113 133 40 176 204
3 426 133 149 40 176 204
3 149 133 141 40 176 204
3 141 133 389 40 176 204
3 389 133 388 40 176 204
3 389 388 374 40 176 204
3 374 388 373 40 176 204
3 374 373 325 40 176 204
3 325 373 299 40 176 204
3 299 373 301 40 176 204
3 299 301 269 40 176 204
3 269 301 147 242 24 142
3 147 301 277 242 24 142
3 147 277 144 242 24 142
3 144 277 138 242 24 142
3 138 277 282 40 176 204
3 138 282 117 40 176 204
3 138 117 118 40 176 204
3 118 117 386 40 176 204
3 118 386 416 40 176 204
3 416 386 387 40 176 204
3 387 386 460 40 176 204
3 460 386 384 40 176 204
3 460 384 438 40 176 204
3 438 384 430 40 176 204
3 438 430 68 40 176 204
3 438 68 472 40 176 204
3 472 68 471 40 176 204
3 471 68 466 40 176 204
3 471 466 601 40 176 204
3 601 466 583 40 176 204
3 583 466 477 40 176 204
3 583 477 507 40 176 204
3 507 477 488 40 176 204
3 507 488 558 40 176 204
3 507 558 623 40 176 204
3 623 558 530 40 176 204
3 623 530 607 40 176 204
3 607 530 589 40 176 204
3 589 530 549 204 61 61
3 589 549 582 204 61 61
3 582 549 38 204 61 61
3 38 549 543 204 61 61
3 543 549 483 204 61 61
3 543 483 501 204 61 61
3 501 483 32 204 61 61
3 501 32 419 204 61 61
3 419 32 406 204 61 61
3 419 406 28 204 61 61
3 28 406 27 204 61 61
3 27 406 26 204 61 61
3 26 406 29 204 61 61
3 26 29 24 204 61 61
3 26 24 20 204 61 61
3 20 24 370 204 61 61
3 20 370 351 204 61 61
3 351 370 359 204 61 61
3 359 370 22 204 61 61
3 359 22 30 204 61 61
3 359 30 17 204 61 61
3 17 30 411 204 61 61
3 17 411 427 204 61 61
3 427 411 424 204 61 61
3 427 424 469 204 61 61
3 469 424 482 204 61 61
3 482 424 459 204 61 61
3 482 459 502 204 61 61
3 482 502 576 204 61 61
3 576 502 600 204 61 61
3 600 502 581 204 61 61
3 581 502 40 204 61 61
3 581 40 42 204 61 61
3 581 42 34 204 61 61
3 34 42 43 204 61 61
3 43 42 592 204 61 61
3 592 42 617 204 61 61
3 592 617 607 204 61 61
3 607 617 631 40 176 204
3 631 617 647 40 176 204
3 631 647 648 40 176 204
3 648 647 49 40 176 204
3 49 647 50 40 176 204
3 50 647 670 40 176 204
3 50 670 52 40 176 204
3 50 52 671 242 221 72
3 671 52 641 242 221 72
3 641 52 61 242 221 72
3 641 61 632 40 176 204
3 632 61 81 40 176 204
3 632 81 98 40 176 204
3 98 81 95 40 176 204
3 98 95 590 40 176 204
3 590 95 111 40 176 204
3 111 95 577 40 176 204
3 111 577 584 40 176 204
3 584 577 536 40 176 204
3 584 536 595 40 176 204
3 595 536 510 40 176 204
3 595 510 572 242 24 142
3 572 510 578 242 24 142
3 578 510 473 242 24 142
3 578 473 439 242 24 142
3 439 473 426 40 176 204
3 439 426 149 40 176 204
3 439 149 453 40 176 204
3 453 149 432 40 176 204
3 432 149 141 40 176 204
3 432 141 417 40 176 204
3 417 141 389 40 176 204
3 417 389 404 40 176 204
3 404 389 374 40 176 204
3 404 374 146 40 176 204
3 146 374 145 242 24 142
3 145 374 325 40 176 204
3 145 325 342 242 24 142
3 342 325 299 40 176 204
3 342 299 269 40 176 204
3 342 269 305 242 24 142
3 305 269 147 242 24 142
3 305 147 151 242 24 142
3 151 147 154 242 24 142
3 154 147 144 242 24 142
3 154 144 156 242 24 142
3 156 144 138 242 24 142
3 156 138 158 242 24 142
3 158 138 318 242 24 142
3 318 138 118 40 176 204
3 318 118 140 40 176 204
3 140 118 416 40 176 204
3 140 416 401 40 176 204
3 401 416 435 40 176 204
3 435 416 560 40 176 204
3 560 416 105 40 176 204
3 105 416 387 40 176 204
3 105 387 527 40 176 204
3 527 387 508 40 176 204
3 508 387 460 40 176 204
3 508 460 503 40 176 204
3 503 460 438 40 176 204
3 503 438 472 40 176 204
3 503 472 532 40 176 204
3 532 472 471 40 176 204
3 532 471 601 40 176 204
3 532 601 604 40 176 204
3 604 601 72 40 176 204
3 72 601 54 40 176 204
3 54 601 583 40 176 204
3 54 583 62 40 176 204
3 62 583 610 40 176 204
3 610 583 507 40 176 204
3 610 507 623 40 176 204
3 610 623 650 40 176 204
3 650 623 648 40 176 204
3 648 623 631 40 176 204
3 631 623 607 40 176 204
3 650 648 49 40 176 204
3 650 49 665 40 176 204
3 665 49 65 242 221 72
3 65 49 50 40 176 204
3 65 50 67 242 221 72
3 67 50 671 242 221 72
3 67 671 641 242 221 72
3 67 641 667 242 221 72
3 667 641 642 242 221 72
3 642 641 632 242 221 72
3 642 632 615 242 221 72
3 615 632 98 40 176 204
3 615 98 594 40 176 204
3 594 98 591 40 176 204
3 591 98 88 40 176 204
3 88 98 590 40 176 204
3 88 590 114 40 176 204
3 114 590 559 40 176 204
3 559 590 609 40 176 204
3 609 590 111 40 176 204
3 609 111 606 40 176 204
3 606 111 584 40 176 204
3 606 584 595 40 176 204
3 606 595 572 242 24 142
3 606 572 142 242 24 142
3 142 572 658 242 24 142
3 658 572 597 242 24 142
3 597 572 578 242 24 142
3 597 578 159 242 24 142
3 159 578 453 242 24 142
3 453 578 439 242 24 142
3 159 453 478 242 24 142
3 478 453 432 242 24 142
3 478 432 447 242 24 142
3 447 432 417 40 176 204
3 447 417 448 40 176 204
3 448 417 418 40 176 204
3 418 417 404 40 176 204
3 418 404 146 40 176 204
3 418 146 153 242 24 142
3 153 146 317 242 24 142
3 317 146 145 242 24 142
3 317 145 305 242 24 142
3 305 145 342 242 24 142
3 317 305 151 242 24 142
3 317 151 334 242 24 142
3 334 151 306 242 24 142
3 306 151 169 242 24 142
3 169 151 154 242 24 142
3 169 154 156 242 24 142
3 169 156 172 242 24 142
3 172 156 170 242 24 142
3 170 156 158 242 24 142
3 170 158 266 242 24 142
3 266 158 318 242 24 142
3 266 318 353 242 24 142
3 353 318 140 40 176 204
3 353 140 382 242 24 142
3 382 140 401 40 176 204
3 382 401 421 40 176 204
3 421 401 435 40 176 204
3 421 435 445 40 176 204
3 445 435 517 40 176 204
3 517 435 560 40 176 204
3 517 560 559 40 176 204
3 559 560 114 40 176 204
3 114 560 105 40 176 204
3 114 105 88 40 176 204
3 88 105 527 40 176 204
3 88 527 591 40 176 204
3 591 527 508 40 176 204
3 591 508 593 40 176 204
3 593 508 555 40 176 204
3 555 508 503 40 176 204
3 555 503 532 40 176 204
3 555 532 593 40 176 204
3 593 532 604 40 176 204
3 593 604 72 40 176 204
3 593 72 594 40 176 204
3 594 72 75 40 176 204
3 75 72 54 40 176 204
3 75 54 62 40 176 204
3 75 62 655 242 221 72
3 655 62 51 40 176 204
3 51 62 610 40 176 204
3 51 610 650 40 176 204
3 51 650 665 40 176 204
3 51 665 655 242 221 72
3 655 665 666 242 221 72
3 666 665 65 242 221 72
3 666 65 70 242 221 72
3 70 65 67 242 221 72
3 70 67 672 242 221 72
3 672 67 667 242 221 72
3 672 667 90 242 221 72
3 90 667 89 242 221 72
3 89 667 643 242 221 72
3 643 667 642 242 221 72
3 643 642 86 242 221 72
3 86 642 615 242 221 72
3 86 615 73 242 221 72
3 73 615 594 40 176 204
3 73 594 75 40 176 204
3 73 75 79 242 221 72
3 79 75 651 242 221 72
3 651 75 655 242 221 72
3 651 655 666 242 221 72
3 651 666 77 242 221 72
3 77 666 70 242 221 72
3 77 70 82 242 221 72
3 82 70 90 242 221 72
3 90 70 672 242 221 72
3 82 90 104 242 221 72
3 104 90 691 242 221 72
3 691 90 89 242 221 72
3 691 89 680 242 221 72
3 680 89 656 242 221 72
3 656 89 643 242 221 72
3 656 643 100 242 221 72
3 100 643 86 242 221 72
3 100 86 79 242 221 72
3 79 86 73 242 221 72
3 100 79 99 242 221 72
3 99 79 663 242 221 72
3 663 79 679 242 221 72
3 679 79 651 242 221 72
3 679 651 77 242 221 72
3 679 77 82 242 221 72
3 679 82 96 242 221 72
3 96 82 104 242 221 72
3 96 104 106 242 221 72
3 106 104 108 127 20 204
3 108 104 691 127 20 204
3 108 691 115 127 20 204
3 115 691 680 127 20 204
3 115 680 692 127 20 204
3 692 680 657 127 20 204
3 657 680 656 242 221 72
3 657 656 100 242 221 72
3 657 100 99 242 221 72
3 657 99 107 242 221 72
3 107 99 663 242 221 72
3 107 663 673 127 20 204
3 673 663 664 127 20 204
3 664 663 679 242 221 72
3 664 679 96 242 221 72
3 664 96 683 127 20 204
3 683 96 694 127 20 204
3 694 96 106 127 20 204
3 694 106 701 127 20 204
3 701 106 108 127 20 204
3 701 108 119 127 20 204
3 119 108 702 127 20 204
3 702 108 115 127 20 204
3 702 115 692 127 20 204
3 702 692 695 127 20 204
3 695 692 116 127 20 204
3 116 692 657 127 20 204
3 116 657 107 127 20 204
3 116 107 673 127 20 204
3 116 673 686 127 20 204
3 686 673 683 127 20 204
3 683 673 664 127 20 204
3 686 683 693 127 20 204
3 693 683 701 127 20 204
3 701 683 694 127 20 204
3 693 701 712 127 20 204
3 712 701 119 127 20 204
3 712 119 717 127 20 204
3 717 119 702 127 20 204
3 717 702 134 127 20 204
3 134 702 695 127 20 204
3 134 695 130 127 20 204
3 130 695 127 127 20 204
3 127 695 116 127 20 204
3 127 116 686 127 20 204
3 127 686 693 127 20 204
3 127 693 698 127 20 204
3 698 693 712 127 20 204
3 698 712 732 48 242 105
3 732 712 742 48 242 105
3 742 712 717 48 242 105
3 742 717 718 48 242 105
3 718 717 134 127 20 204
3 718 134 704 127 20 204
3 704 134 130 127 20 204
3 704 130 705 48 242 105
3 705 130 706 48 242 105
3 706 130 131 48 242 105
3 131 130 127 48 242 105
3 131 127 698 48 242 105
3 131 698 125 48 242 105
3 125 698 123 48 242 105
3 123 698 732 48 242 105
3 123 732 723 48 242 105
3 723 732 126 48 242 105
3 126 732 735 48 242 105
3 735 732 743 48 242 105
3 743 732 742 48 242 105
3 743 742 746 48 242 105
3 746 742 747 48 242 105
3 747 742 733 48 242 105
3 733 742 718 48 242 105
3 733 718 705 48 242 105
3 705 718 704 48 242 105
3 733 705 731 48 242 105
3 731 705 716 48 242 105
3 716 705 137 48 242 105
3 137 705 706 48 242 105
3 137 706 713 48 242 105
3 713 706 131 48 242 105
3 713 131 711 48 242 105
3 711 131 125 48 242 105
3 711 125 724 48 242 105
3 724 125 123 48 242 105
3 724 123 726 48 242 105
3 726 123 737 48 242 105
3 737 123 723 48 242 105
3 737 723 720 48 242 105
3 720 723 727 48 242 105
3 727 723 736 48 242 105
3 736 723 126 48 242 105
3 736 126 744 48 242 105
3 744 126 735 48 242 105
3 744 735 736 48 242 105
3 736 735 727 48 242 105
3 727 735 748 48 242 105
3 748 735 135 48 242 105
3 135 735 750 48 242 105
3 750 735 743 48 242 105
3 750 743 748 48 242 105
3 748 743 746 48 242 105
3 748 746 727 48 242 105
3 727 746 731 48 242 105
3 731 746 747 48 242 105
3 731 747 733 48 242 105
3 727 731 716 48 242 105
3 727 716 720 48 242 105
3 720 716 137 48 242 105
3 720 137 711 48 242 105
3 711 137 713 48 242 105
3 720 711 724 48 242 105
3 720 724 128 48 242 105
3 128 724 726 48 242 105
3 128 726 737 48 242 105
3 128 737 720 48 242 105
3 750 748 751 48 242 105
3 751 748 135 48 242 105
3 751 135 750 48 242 105
3 593 594 591 40 176 204
3 517 559 550 40 176 204
3 550 559 609 40 176 204
3 550 609 596 40 176 204
3 596 609 139 40 176 204
3 139 609 606 40 176 204
3 139 606 142 242 24 142
3 139 142 596 242 24 142
3 596 142 150 242 24 142
3 150 142 160 242 24 142
3 160 142 658 242 24 142
3 160 658 164 242 24 142
3 164 658 168 242 24 142
3 168 658 171 242 24 142
3 171 658 645 242 24 142
3 645 658 597 242 24 142
3 645 597 619 242 24 142
3 619 597 159 242 24 142
3 619 159 585 242 24 142
3 585 159 165 242 24 142
3 165 159 478 242 24 142
3 165 478 463 242 24 142
3 463 478 447 242 24 142
3 463 447 461 242 24 142
3 461 447 448 242 24 142
3 461 448 474 40 176 204
3 474 448 444 40 176 204
3 444 448 152 40 176 204
3 152 448 155 40 176 204
3 155 448 418 40 176 204
3 155 418 153 242 24 142
3 155 153 167 242 24 142
3 167 153 402 242 24 142
3 402 153 317 242 24 142
3 402 317 334 242 24 142
3 402 334 343 242 24 142
3 343 334 306 242 24 142
3 343 306 271 242 24 142
3 271 306 251 242 24 142
3 251 306 169 242 24 142
3 251 169 172 242 24 142
3 251 172 183 242 24 142
3 183 172 180 242 24 142
3 180 172 170 242 24 142
3 180 170 267 242 24 142
3 267 170 272 242 24 142
3 272 170 266 242 24 142
3 272 266 311 242 24 142
3 311 266 353 242 24 142
3 311 353 375 242 24 142
3 375 353 382 242 24 142
3 375 382 148 242 24 142
3 148 382 421 40 176 204
3 148 421 152 40 176 204
3 152 421 445 40 176 204
3 152 445 444 40 176 204
3 444 445 474 40 176 204
3 474 445 143 40 176 204
3 143 445 517 40 176 204
3 143 517 511 40 176 204
3 511 517 550 40 176 204
3 511 550 567 242 24 142
3 567 550 150 242 24 142
3 150 550 596 242 24 142
3 567 150 618 242 24 142
3 618 150 644 242 24 142
3 644 150 160 242 24 142
3 644 160 164 242 24 142
3 644 164 168 242 24 142
3 644 168 681 242 24 142
3 681 168 212 242 24 142
3 212 168 218 242 24 142
3 218 168 182 242 24 142
3 182 168 171 242 24 142
3 182 171 668 242 24 142
3 668 171 619 242 24 142
3 619 171 645 242 24 142
3 668 619 611 242 24 142
3 611 619 598 242 24 142
3 598 619 585 242 24 142
3 598 585 573 242 24 142
3 573 585 165 242 24 142
3 573 165 176 242 24 142
3 176 165 163 242 24 142
3 163 165 463 242 24 142
3 163 463 461 242 24 142
3 163 461 175 242 24 142
3 175 461 181 242 24 142
3 181 461 496 242 24 142
3 496 461 474 242 24 142
3 496 474 511 242 24 142
3 511 474 143 40 176 204
3 496 511 545 242 24 142
3 545 511 157 242 24 142
3 157 511 567 242 24 142
3 157 567 618 242 24 142
3 157 618 659 242 24 142
3 659 618 644 242 24 142
3 659 644 681 242 24 142
3 659 681 661 242 24 142
3 661 681 212 242 24 142
3 661 212 688 242 24 142
3 688 212 228 242 24 142
3 228 212 218 242 24 142
3 228 218 227 242 24 142
3 227 218 222 242 24 142
3 222 218 182 242 24 142
3 222 182 674 242 24 142
3 674 182 611 242 24 142
3 611 182 668 242 24 142
3 674 611 637 242 24 142
3 637 611 586 242 24 142
3 586 611 598 242 24 142
3 586 598 573 242 24 142
3 586 573 176 242 24 142
3 586 176 179 242 24 142
3 179 176 175 242 24 142
3 175 176 163 242 24 142
3 179 175 181 242 24 142
3 179 181 190 242 24 142
3 190 181 207 242 24 142
3 207 181 602 242 24 142
3 602 181 496 242 24 142
3 602 496 545 242 24 142
3 602 545 177 242 24 142
3 177 545 157 242 24 142
3 177 157 624 242 24 142
3 624 157 659 242 24 142
3 624 659 661 242 24 142
3 624 661 660 242 24 142
3 660 661 688 242 24 142
3 660 688 682 242 24 142
3 682 688 253 242 24 142
3 253 688 228 242 24 142
3 253 228 697 242 24 142
3 697 228 227 96 204 61
3 697 227 684 96 204 61
3 684 227 222 96 204 61
3 684 222 675 96 204 61
3 675 222 674 242 24 142
3 675 674 638 242 24 142
3 638 674 637 242 24 142
3 638 637 197 242 24 142
3 197 637 586 242 24 142
3 197 586 179 242 24 142
3 197 179 190 242 24 142
3 197 190 235 242 24 142
3 235 190 209 242 24 142
3 209 190 207 242 24 142
3 209 207 620 242 24 142
3 620 207 602 242 24 142
3 620 602 177 242 24 142
3 620 177 625 242 24 142
3 625 177 624 242 24 142
3 625 624 660 242 24 142
3 625 660 626 242 24 142
3 626 660 682 242 24 142
3 626 682 628 242 24 142
3 628 682 245 242 24 142
3 245 682 649 96 204 61
3 649 682 253 242 24 142
3 649 253 678 96 204 61
3 678 253 697 96 204 61
3 678 697 690 96 204 61
3 690 697 684 96 204 61
3 690 684 280 96 204 61
3 280 684 652 96 204 61
3 652 684 653 96 204 61
3 653 684 675 96 204 61
3 653 675 639 96 204 61
3 639 675 234 96 204 61
3 234 675 638 96 204 61
3 234 638 608 96 204 61
3 608 638 235 96 204 61
3 235 638 197 242 24 142
3 608 235 587 96 204 61
3 587 235 245 96 204 61
3 245 235 209 242 24 142
3 245 209 628 242 24 142
3 628 209 620 242 24 142
3 628 620 626 242 24 142
3 626 620 625 242 24 142
3 587 245 629 96 204 61
3 629 245 649 96 204 61
3 629 649 669 96 204 61
3 669 649 678 96 204 61
3 669 678 364 96 204 61
3 364 678 690 96 204 61
3 364 690 636 96 204 61
3 636 690 280 96 204 61
3 636 280 390 96 204 61
3 390 280 345 96 204 61
3 345 280 652 96 204 61
3 345 652 630 96 204 61
3 630 652 653 96 204 61
3 630 653 639 96 204 61
3 630 639 574 96 204 61
3 574 639 603 96 204 61
3 603 639 234 96 204 61
3 603 234 608 96 204 61
3 603 608 575 96 204 61
3 575 608 587 96 204 61
3 575 587 362 96 204 61
3 362 587 579 96 204 61
3 579 587 629 96 204 61
3 579 629 622 96 204 61
3 622 629 669 96 204 61
3 622 669 364 96 204 61
3 622 364 635 96 204 61
3 635 364 636 96 204 61
3 635 636 390 96 204 61
3 635 390 613 96 204 61
3 613 390 614 96 204 61
3 614 390 345 96 204 61
3 614 345 599 96 204 61
3 599 345 541 96 204 61
3 541 345 630 96 204 61
3 541 630 565 96 204 61
3 565 630 574 96 204 61
3 565 574 539 96 204 61
3 539 574 547 96 204 61
3 547 574 603 96 204 61
3 547 603 575 96 204 61
3 547 575 362 96 204 61
3 547 362 414 96 204 61
3 414 362 548 96 204 61
3 548 362 579 96 204 61
3 548 579 622 96 204 61
3 548 622 454 96 204 61
3 454 622 635 96 204 61
3 454 635 613 96 204 61
3 454 613 521 96 204 61
3 521 613 518 96 204 61
3 518 613 614 96 204 61
3 518 614 519 96 204 61
3 519 614 599 96 204 61
3 519 599 531 96 204 61
3 531 599 541 96 204 61
3 531 541 487 96 204 61
3 487 541 565 96 204 61
3 487 565 539 96 204 61
3 487 539 497 96 204 61
3 497 539 414 96 204 61
3 414 539 547 96 204 61
3 497 414 475 96 204 61
3 475 414 454 96 204 61
3 454 414 548 96 204 61
3 475 454 521 96 204 61
3 475 521 490 96 204 61
3 490 521 518 96 204 61
3 490 518 612 56 48 242
3 612 518 522 56 48 242
3 522 518 519 96 204 61
3 522 519 486 56 48 242
3 486 519 531 96 204 61
3 486 531 489 56 48 242
3 489 531 487 96 204 61
3 489 487 546 96 204 61
3 546 487 497 96 204 61
3 546 497 475 96 204 61
3 546 475 479 96 204 61
3 479 475 490 96 204 61
3 479 490 456 56 48 242
3 456 490 499 56 48 242
3 499 490 612 56 48 242
3 499 612 504 56 48 242
3 504 612 687 56 48 242
3 687 612 522 56 48 242
3 687 522 481 56 48 242
3 481 522 486 56 48 242
3 481 486 440 56 48 242
3 440 486 480 56 48 242
3 480 486 489 56 48 242
3 480 489 564 56 48 242
3 564 489 546 56 48 242
3 564 546 627 56 48 242
3 627 546 456 56 48 242
3 456 546 479 56 48 242
3 627 456 634 56 48 242
3 634 456 499 56 48 242
3 634 499 676 56 48 242
3 676 499 719 56 48 242
3 719 499 504 56 48 242
3 719 504 696 56 48 242
3 696 504 699 56 48 242
3 699 504 687 56 48 242
3 699 687 561 56 48 242
3 561 687 523 56 48 242
3 523 687 481 56 48 242
3 523 481 500 56 48 242
3 500 481 449 56 48 242
3 449 481 440 56 48 242
3 449 440 480 56 48 242
3 449 480 564 56 48 242
3 449 564 633 56 48 242
3 633 564 627 56 48 242
3 633 627 634 56 48 242
3 633 634 422 56 48 242
3 422 634 662 56 48 242
3 662 634 491 56 48 242
3 491 634 676 56 48 242
3 491 676 708 56 48 242
3 708 676 719 56 48 242
3 708 719 714 56 48 242
3 714 719 524 56 48 242
3 524 719 537 56 48 242
3 537 719 696 56 48 242
3 537 696 728 56 48 242
3 728 696 551 56 48 242
3 551 696 570 56 48 242
3 570 696 699 56 48 242
3 570 699 569 56 48 242
3 569 699 561 56 48 242
3 569 561 533 56 48 242
3 533 561 523 56 48 242
3 533 523 500 56 48 242
3 533 500 491 56 48 242
3 491 500 662 56 48 242
3 662 500 422 56 48 242
3 422 500 449 56 48 242
3 422 449 633 56 48 242
3 533 491 708 56 48 242
3 533 708 568 56 48 242
3 568 708 714 56 48 242
3 568 714 551 56 48 242
3 551 714 524 56 48 242
3 551 524 728 56 48 242
3 728 524 537 56 48 242
3 568 551 570 56 48 242
3 568 570 569 56 48 242
3 568 569 533 56 48 242
3 148 152 161 242 24 142
3 161 152 155 242 24 142
3 161 155 167 242 24 142
3 161 167 166 242 24 142
3 166 167 178 242 24 142
3 178 167 402 242 24 142
3 178 402 173 242 24 142
3 173 402 343 242 24 142
3 173 343 335 242 24 142
3 335 343 296 242 24 142
3 296 343 271 242 24 142
3 296 271 259 242 24 142
3 259 271 251 242 24 142
3 259 251 183 242 24 142
3 259 183 233 242 24 142
3 233 183 221 242 24 142
3 221 183 180 242 24 142
3 221 180 267 242 24 142
3 221 267 297 242 24 142
3 297 267 295 242 24 142
3 295 267 272 242 24 142
3 295 272 311 242 24 142
3 295 311 294 242 24 142
3 294 311 366 242 24 142
3 366 311 162 242 24 142
3 162 311 375 242 24 142
3 162 375 161 242 24 142
3 161 375 148 242 24 142
3 162 161 166 242 24 142
3 162 166 409 242 24 142
3 409 166 398 242 24 142
3 398 166 178 242 24 142
3 398 178 185 242 24 142
3 185 178 174 242 24 142
3 174 178 173 242 24 142
3 174 173 335 242 24 142
3 174 335 367 242 24 142
3 367 335 279 242 24 142
3 279 335 296 242 24 142
3 279 296 284 242 24 142
3 284 296 204 242 24 142
3 204 296 259 242 24 142
3 204 259 233 242 24 142
3 204 233 239 242 24 142
3 239 233 254 96 204 61
3 254 233 221 242 24 142
3 254 221 268 96 204 61
3 268 221 297 242 24 142
3 268 297 313 242 24 142
3 313 297 312 242 24 142
3 312 297 295 242 24 142
3 312 295 294 242 24 142
3 312 294 344 242 24 142
3 344 294 399 242 24 142
3 399 294 366 242 24 142
3 399 366 409 242 24 142
3 409 366 162 242 24 142
3 399 409 398 242 24 142
3 399 398 383 242 24 142
3 383 398 211 242 24 142
3 211 398 185 242 24 142
3 211 185 238 242 24 142
3 238 185 174 242 24 142
3 238 174 367 242 24 142
3 238 367 260 96 204 61
3 260 367 279 96 204 61
3 260 279 319 96 204 61
3 319 279 283 96 204 61
3 283 279 278 96 204 61
3 278 279 284 96 204 61
3 278 284 239 96 204 61
3 239 284 204 96 204 61
3 278 239 361 96 204 61
3 361 239 300 96 204 61
3 300 239 254 96 204 61
3 300 254 249 96 204 61
3 249 254 268 96 204 61
3 249 268 302 96 204 61
3 302 268 313 96 204 61
3 302 313 252 96 204 61
3 252 313 326 96 204 61
3 326 313 312 242 24 142
3 326 312 344 242 24 142
3 326 344 383 242 24 142
3 383 344 399 242 24 142
3 326 383 378 242 24 142
3 378 383 211 242 24 142
3 378 211 238 242 24 142
3 378 238 261 96 204 61
3 261 238 260 96 204 61
3 261 260 363 96 204 61
3 363 260 319 96 204 61
3 363 319 441 96 204 61
3 441 319 285 96 204 61
3 285 319 283 96 204 61
3 285 283 278 96 204 61
3 285 278 361 96 204 61
3 285 361 307 96 204 61
3 307 361 262 96 204 61
3 262 361 529 96 204 61
3 529 361 300 96 204 61
3 529 300 566 96 204 61
3 566 300 249 96 204 61
3 566 249 464 96 204 61
3 464 249 302 96 204 61
3 464 302 304 96 204 61
3 304 302 327 96 204 61
3 327 302 252 96 204 61
3 327 252 261 96 204 61
3 261 252 378 96 204 61
3 378 252 326 96 204 61
3 327 261 337 96 204 61
3 337 261 363 96 204 61
3 337 363 376 96 204 61
3 376 363 441 96 204 61
3 376 441 462 96 204 61
3 462 441 307 96 204 61
3 307 441 285 96 204 61
3 462 307 287 96 204 61
3 287 307 262 96 204 61
3 287 262 275 96 204 61
3 275 262 263 96 204 61
3 263 262 529 96 204 61
3 263 529 654 96 204 61
3 654 529 566 96 204 61
3 654 566 580 96 204 61
3 580 566 274 96 204 61
3 274 566 464 96 204 61
3 274 464 304 96 204 61
3 274 304 580 96 204 61
3 580 304 309 96 204 61
3 309 304 621 96 204 61
3 621 304 336 96 204 61
3 336 304 337 96 204 61
3 337 304 327 96 204 61
3 336 337 376 96 204 61
3 336 376 538 96 204 61
3 538 376 462 96 204 61
3 538 462 588 96 204 61
3 588 462 287 96 204 61
3 588 287 275 96 204 61
3 588 275 276 96 204 61
3 276 275 264 96 204 61
3 264 275 685 96 204 61
3 685 275 263 96 204 61
3 685 263 654 96 204 61
3 685 654 689 96 204 61
3 689 654 703 96 204 61
3 703 654 288 96 204 61
3 288 654 580 96 204 61
3 288 580 309 96 204 61
3 288 309 310 96 204 61
3 310 309 677 96 204 61
3 677 309 621 96 204 61
3 677 621 646 96 204 61
3 646 621 538 96 204 61
3 538 621 336 96 204 61
3 646 538 588 96 204 61
3 646 588 321 96 204 61
3 321 588 276 96 204 61
3 321 276 289 56 48 242
3 289 276 270 56 48 242
3 270 276 264 56 48 242
3 270 264 749 56 48 242
3 749 264 707 56 48 242
3 707 264 689 56 48 242
3 689 264 685 96 204 61
3 707 689 703 56 48 242
3 707 703 709 56 48 242
3 709 703 715 56 48 242
3 715 703 310 56 48 242
3 310 703 288 96 204 61
3 715 310 710 56 48 242
3 710 310 700 56 48 242
3 700 310 677 96 204 61
3 700 677 646 96 204 61
3 700 646 321 96 204 61
3 700 321 725 56 48 242
3 725 321 729 56 48 242
3 729 321 289 56 48 242
3 729 289 298 56 48 242
3 298 289 270 56 48 242
3 298 270 749 56 48 242
3 298 749 745 56 48 242
3 745 749 709 56 48 242
3 709 749 707 56 48 242
3 745 709 722 56 48 242
3 722 709 715 56 48 242
3 722 715 350 56 48 242
3 350 715 710 56 48 242
3 350 710 408 56 48 242
3 408 710 407 56 48 242
3 407 710 721 56 48 242
3 721 710 700 56 48 242
3 721 700 725 56 48 242
3 721 725 740 56 48 242
3 740 725 729 56 48 242
3 740 729 314 56 48 242
3 314 729 298 56 48 242
3 314 298 745 56 48 242
3 314 745 320 56 48 242
3 320 745 722 56 48 242
3 320 722 330 56 48 242
3 330 722 338 56 48 242
3 338 722 350 56 48 242
3 338 350 379 56 48 242
3 379 350 408 56 48 242
3 379 408 0 56 48 242
3 0 408 739 56 48 242
3 739 408 734 56 48 242
3 734 408 407 56 48 242
3 734 407 730 56 48 242
3 730 407 721 56 48 242
3 730 721 738 56 48 242
3 738 721 740 56 48 242
3 738 740 329 56 48 242
3 329 740 314 56 48 242
3 329 314 320 56 48 242
3 329 320 330 56 48 242
3 329 330 369 56 48 242
3 369 330 338 56 48 242
3 369 338 741 56 48 242
3 741 338 379 56 48 242
3 741 379 0 56 48 242
3 741 0 393 56 48 242
3 393 0 369 56 48 242
3 369 0 420 56 48 242
3 420 0 433 56 48 242
3 433 0 739 56 48 242
3 433 739 420 56 48 242
3 420 739 734 56 48 242
3 420 734 356 56 48 242
3 356 734 730 56 48 242
3 356 730 329 56 48 242
3 329 730 738 56 48 242
3 356 329 369 56 48 242
3 356 369 420 56 48 242
3 393 369 741 56 48 242
3 592 607 589 204 61 61
3 592 589 582 204 61 61
3 592 582 43 204 61 61
3 43 582 34 204 61 61
3 34 582 38 204 61 61
3 34 38 571 204 61 61
3 571 38 562 204 61 61
3 562 38 543 204 61 61
3 562 543 501 204 61 61
3 562 501 535 204 61 61
3 535 501 498 204 61 61
3 498 501 419 204 61 61
3 498 419 442 204 61 61
3 442 419 423 204 61 61
3 423 419 28 204 61 61
3 423 28 392 204 61 61
3 392 28 27 204 61 61
3 392 27 21 204 61 61
3 21 27 26 204 61 61
3 21 26 23 204 61 61
3 23 26 20 204 61 61
3 23 20 351 204 61 61
3 23 351 14 204 61 61
3 14 351 13 204 61 61
3 13 351 347 204 61 61
3 347 351 359 204 61 61
3 347 359 17 204 61 61
3 347 17 357 204 61 61
3 357 17 397 204 61 61
3 397 17 427 204 61 61
3 397 427 1 204 61 61
3 1 427 476 204 61 61
3 476 427 469 204 61 61
3 476 469 457 204 61 61
3 457 469 482 204 61 61
3 457 482 553 204 61 61
3 553 482 576 204 61 61
3 553 576 5 204 61 61
3 5 576 8 204 61 61
3 8 576 600 204 61 61
3 8 600 19 204 61 61
3 19 600 581 204 61 61
3 19 581 34 204 61 61
3 19 34 571 204 61 61
3 19 571 15 204 61 61
3 15 571 16 204 61 61
3 16 571 542 204 61 61
3 542 571 562 204 61 61
3 542 562 535 204 61 61
3 542 535 505 204 61 61
3 505 535 442 204 61 61
3 442 535 498 204 61 61
3 505 442 458 204 61 61
3 458 442 400 204 61 61
3 400 442 423 204 61 61
3 400 423 410 204 61 61
3 410 423 358 204 61 61
3 358 423 21 204 61 61
3 21 423 392 204 61 61
3 358 21 23 204 61 61
3 358 23 18 204 61 61
3 18 23 14 204 61 61
3 18 14 11 204 61 61
3 11 14 13 204 61 61
3 11 13 4 204 61 61
3 4 13 9 204 61 61
3 9 13 12 204 61 61
3 12 13 347 204 61 61
3 12 347 357 204 61 61
3 12 357 6 204 61 61
3 6 357 397 204 61 61
3 6 397 1 204 61 61
3 6 1 455 204 61 61
3 455 1 450 204 61 61
3 450 1 476 204 61 61
3 450 476 552 204 61 61
3 552 476 553 204 61 61
3 553 476 457 204 61 61
3 552 553 5 204 61 61
3 552 5 520 204 61 61
3 520 5 2 204 61 61
3 2 5 8 204 61 61
3 2 8 10 204 61 61
3 10 8 15 204 61 61
3 15 8 19 204 61 61
3 10 15 16 204 61 61
3 10 16 540 204 61 61
3 540 16 515 204 61 61
3 515 16 534 204 61 61
3 534 16 542 204 61 61
3 534 542 505 204 61 61
3 534 505 514 204 61 61
3 514 505 458 204 61 61
3 514 458 513 204 61 61
3 513 458 468 204 61 61
3 468 458 436 204 61 61
3 436 458 400 204 61 61
3 436 400 394 204 61 61
3 394 400 410 204 61 61
3 394 410 11 204 61 61
3 11 410 18 204 61 61
3 18 410 358 204 61 61
3 394 11 7 204 61 61
3 7 11 4 204 61 61
3 7 4 385 204 61 61
3 385 4 391 204 61 61
3 391 4 9 204 61 61
3 391 9 377 204 61 61
3 377 9 3 204 61 61
3 3 9 12 204 61 61
3 3 12 6 204 61 61
3 3 6 455 204 61 61
3 3 455 377 204 61 61
3 377 455 428 204 61 61
3 428 455 492 204 61 61
3 492 455 512 204 61 61
3 512 455 520 204 61 61
3 520 455 450 204 61 61
3 520 450 552 204 61 61
3 512 520 2 204 61 61
3 512 2 557 204 61 61
3 557 2 10 204 61 61
3 557 10 540 204 61 61
3 557 540 492 204 61 61
3 492 540 515 204 61 61
3 492 515 513 204 61 61
3 513 515 514 204 61 61
3 514 515 534 204 61 61
3 492 513 467 204 61 61
3 467 513 468 204 61 61
3 467 468 385 204 61 61
3 385 468 7 204 61 61
3 7 468 394 204 61 61
3 394 468 436 204 61 61
3 467 385 492 204 61 61
3 492 385 428 204 61 61
3 428 385 391 204 61 61
3 428 391 377 204 61 61
3 557 492 512 204 61 61
