ply
format ascii 1.0
element vertex 752
property float x
property float y
property float z
element face 1500
property list uchar int vertex_indices
property uchar red
property uchar green
property uchar blue
end_header
-0.060941 0.975681 -0.023855
-0.00975 0.984804 -0.035538
0.013779 0.972753 -0.054744
-0.09152 0.949584 -0.091651
-0.003482 0.95178 -0.093655
0.032074 0.965862 -0.001299
-0.037527 0.971649 -0.081432
0.003211 0.969768 0.030204
-0.107929 0.924477 -0.033973
0.023222 0.930483 0.053527
0.003991 0.911883 -0.11065
0.045002 0.923208 0.033647
-0.061783 0.951177 0.024668
0.064629 0.930565 -0.009353
-0.014179 0.922256 0.060887
-0.04895 0.920108 -0.129246
-0.099058 0.887965 -0.122706
0.047406 0.923664 -0.071911
0.066693 0.895831 -0.034713
-0.052956 0.881251 -0.140004
-0.116499 0.869298 -0.04071
0.042008 0.892062 0.058351
-0.12505 0.886688 -0.073733
-0.032273 0.899319 0.061521
0.049549 0.861912 0.069601
0.060513 0.869126 0.026526
0.029753 0.891293 0.065739
0.0385 0.862595 -0.08032
0.071908 0.866014 0.085694
-0.086544 0.833169 -0.128825
0.019357 0.839391 -0.089878
-0.022201 0.83681 -0.12767
0.065291 0.869965 0.051646
-0.106116 0.866907 -0.093024
-0.110773 0.839833 -0.021735
0.060498 0.850017 -0.025688
-0.091639 0.857967 -0.000376
-0.054884 0.860269 -0.128836
-0.087707 0.882833 0.019368
-0.009271 0.828456 0.046823
-0.112177 0.846856 -0.12957
0.041097 0.819895 0.019275
0.039357 0.809772 -0.021033
-0.054895 0.833943 0.031164
-0.113843 0.829035 -0.104828
-0.086787 0.822478 0.007784
-0.12368 0.803534 -0.086463
0.023381 0.804593 -0.062365
-0.092309 0.75824 -0.028901
-0.109068 0.817277 -0.123942
-0.066768 0.807384 -0.134
-0.007552 0.792257 -0.104347
0.002378 0.789727 0.017691
0.015096 0.779124 -0.006139
-0.121326 0.781352 -0.047056
-0.051143 0.76919 -0.121398
-0.069677 0.806278 0.012143
-0.095636 0.750153 -0.12097
0.014745 0.745243 -0.059751
-0.117443 0.751348 -0.107036
-0.077667 0.74752 0.011256
-0.089212 0.733639 -0.067189
0.014048 0.74451 -0.001209
0.022115 0.712569 -0.050466
-0.076024 0.707731 0.017712
-0.015565 0.747145 0.024577
-0.014453 0.756684 -0.083798
-0.044369 0.722814 0.047422
-0.070321 0.702634 0.05307
0.05436 0.706761 -0.010786
-0.003111 0.704938 0.057165
-0.064844 0.725054 -0.081658
0.037404 0.705194 -0.039959
-0.074116 0.696581 -0.0391
0.095295 0.681762 -0.041382
0.040296 0.692297 0.036006
-0.025436 0.673545 0.102515
0.038381 0.66465 -0.059718
-0.085936 0.661013 0.013994
-0.003183 0.676774 -0.063193
-0.077779 0.683613 0.102561
-0.112563 0.668099 0.080742
0.117552 0.66379 -0.018783
0.080241 0.662225 0.027878
-0.145373 0.6571 0.113078
0.138283 0.643555 -0.104414
-0.112449 0.635689 0.017845
0.086036 0.64937 -0.087008
-0.032061 0.654936 -0.054729
-0.073923 0.650915 -0.030063
0.127786 0.622795 0.01939
-0.028919 0.636056 -0.070172
0.036063 0.628955 -0.08885
0.153374 0.632965 -0.04735
0.121506 0.608443 -0.145049
-0.080402 0.644785 0.144376
0.118381 0.63263 -0.122929
0.039259 0.634808 0.072646
-0.025296 0.63205 0.136349
-0.069826 0.548551 0.161032
-0.142375 0.62227 0.060825
-0.151645 0.631162 0.150448
-0.188441 0.626541 0.131866
0.14742 0.622391 -0.13749
0.112466 0.574997 0.046213
-0.005396 0.56851 0.136342
-0.190806 0.624596 0.091297
-0.167473 0.553959 0.05174
-0.062599 0.604917 -0.063966
-0.031943 0.561945 -0.100965
0.070723 0.591298 -0.117372
0.178484 0.60434 -0.12507
-0.108318 0.575469 -0.037302
0.099294 0.530629 -0.148208
-0.216153 0.554771 0.159917
0.078465 0.550779 -0.133805
0.166375 0.570733 -0.158329
-0.214711 0.553154 0.114822
0.035695 0.541663 0.101661
-0.166714 0.545703 0.178534
-0.042577 0.511521 0.146212
0.204715 0.539192 -0.110615
-0.23158 0.510286 0.151557
-0.051235 0.52341 -0.112395
0.226231 0.445124 -0.133713
-0.157197 0.466678 -0.076136
0.002711 0.537857 -0.131142
0.14862 0.526085 0.013708
-0.184366 0.460594 -0.050523
-0.087031 0.487094 0.154463
0.180979 0.524206 -0.042609
0.085952 0.501453 -0.133109
-0.004916 0.513805 0.136443
-0.161315 0.498292 0.061385
0.195422 0.439879 -0.183839
0.167528 0.483953 -0.035648
-0.178818 0.513414 0.07781
-0.144032 0.548431 -0.014871
-0.084895 0.520502 -0.089721
0.12114 0.508562 0.047737
0.146003 0.492738 -0.167907
0.047819 0.511658 -0.1468
0.172845 0.485992 -0.061921
-0.116478 0.500504 0.157356
-0.118154 0.534896 0.167543
-0.253098 0.42279 0.158027
0.201584 0.515602 -0.155784
0.034185 0.481737 0.092219
-0.172449 0.509695 0.027008
-0.133136 0.47336 0.11536
-0.183179 0.501911 0.088435
0.069639 0.421044 0.041378
-0.20575 0.478997 0.187806
-0.005582 0.45116 -0.179652
-0.223293 0.446857 0.115428
0.143681 0.475667 -0.020394
-0.140482 0.474052 0.093721
-0.089424 0.470648 0.130408
-0.095671 0.457625 -0.106552
-0.183863 0.439433 0.030509
-0.034087 0.452492 -0.170866
0.210323 0.467749 -0.101328
0.135883 0.4311 -0.04939
0.057206 0.440697 -0.166911
-0.075712 0.434351 -0.123117
0.129209 0.450928 -0.148008
-0.138002 0.429733 0.089865
-0.167894 0.420901 -0.06797
-0.191857 0.435568 0.109167
-0.008104 0.409488 -0.165761
-0.047554 0.426796 0.124852
0.125099 0.439174 0.009386
0.183971 0.441046 -0.081445
0.110284 0.429578 -0.103729
0.157421 0.433429 -0.17746
0.233641 0.375544 -0.125856
-0.198417 0.442779 -0.019687
0.036404 0.409997 -0.161575
0.017963 0.414012 0.075196
0.149119 0.414494 -0.100771
-0.115884 0.408529 -0.088768
0.101351 0.385315 0.007748
-0.176995 0.445181 0.195462
0.23288 0.40924 -0.169337
0.113621 0.404616 -0.021358
-0.235358 0.377402 0.208268
-0.024251 0.413803 0.101007
0.062418 0.401256 -0.129554
-0.248061 0.416778 0.185684
-0.181495 0.394092 0.124709
0.014272 0.390901 -0.135864
0.099515 0.394792 -0.096941
0.219048 0.354891 -0.118101
0.097537 0.349232 -0.096472
-0.139878 0.395208 0.06353
0.184314 0.366255 -0.109431
-0.149504 0.389149 -0.031561
-0.03173 0.38975 -0.126724
-0.153542 0.412797 0.168638
0.198832 0.376243 -0.202124
-0.131506 0.357244 -0.082977
0.029993 0.405356 0.047567
-0.043988 0.381969 0.103807
-0.087184 0.399271 0.103254
-0.153814 0.393092 0.022422
0.064842 0.348005 0.027715
-0.068547 0.405693 -0.116515
-0.287328 0.333192 0.17972
0.115156 0.36291 -0.036232
-0.229639 0.317914 0.217185
0.258293 0.310164 -0.168556
0.00944 0.353559 0.06919
0.133862 0.424684 -0.12619
0.179123 0.354178 -0.197254
0.239361 0.356889 -0.199933
-0.056612 0.301452 -0.135518
-0.04148 0.342284 0.090884
-0.250715 0.374434 0.132542
-0.149524 0.321981 0.003554
-0.197039 0.340998 0.20155
-0.181196 0.354955 0.149714
-0.204313 0.301243 0.176495
0.021594 0.305676 0.052173
0.164574 0.345566 -0.17727
0.03714 0.369732 -0.129167
-0.108858 0.326147 0.083158
0.263902 0.301075 -0.218004
-0.209657 0.370505 0.120141
-0.21784 0.282475 0.158219
0.075738 0.336182 -0.11668
0.101921 0.303178 -0.016222
-0.246637 0.287641 0.148726
-0.290126 0.326128 0.209295
-0.115228 0.304492 -0.096734
0.224857 0.309048 -0.218321
0.106587 0.329005 -0.072106
0.053607 0.300165 0.030129
-0.22163 0.297792 0.213955
-0.278124 0.254288 0.239167
-0.147667 0.257257 0.079402
-0.036255 0.30811 0.093738
-0.109079 0.284701 0.10505
-0.147483 0.31207 0.046323
-0.131811 0.230843 -0.087249
0.184266 0.283964 -0.171588
0.243922 0.288213 -0.148268
-0.161979 0.249596 0.004205
-0.039267 0.248971 -0.150528
0.043752 0.275362 -0.147611
0.038439 0.246971 0.057381
-0.318034 0.267686 0.194642
0.106714 0.265741 -0.11982
-0.315264 0.270269 0.214797
0.085161 0.248227 -0.14211
-0.024549 0.240003 0.115687
0.268912 0.273259 -0.242673
-0.261296 0.281237 0.159773
0.1998 0.262588 -0.195898
0.201181 0.272646 -0.155642
0.10335 0.246028 0.015024
0.30261 0.214876 -0.223061
-0.163507 0.242319 0.047183
0.133905 0.247867 -0.059639
0.065591 0.233138 0.059658
0.233863 0.230799 -0.252305
0.126503 0.2467 -0.020527
0.212892 0.227926 -0.185429
0.139463 0.221248 -0.119685
0.017575 0.2321 -0.158855
-0.157256 0.2064 0.099478
0.247772 0.22702 -0.170678
-0.093857 0.228713 -0.11868
-0.064148 0.219481 -0.144674
0.003359 0.237235 0.100945
0.255865 0.257884 -0.255642
0.27645 0.263194 -0.182794
-0.15551 0.217405 -0.046283
-0.079169 0.234113 0.125319
-0.230491 0.248918 0.213585
-0.031614 0.189507 0.149781
-0.244168 0.207513 0.192204
-0.095403 0.158638 -0.127022
0.164866 0.211068 -0.065246
-0.27459 0.21047 0.170501
-0.338581 0.171505 0.236559
-0.322562 0.22758 0.227769
0.169371 0.162181 0.011381
-0.333459 0.21846 0.209021
-0.174817 0.193449 0.011197
-0.022542 0.194508 -0.160069
-0.308972 0.231122 0.176996
0.239653 0.183302 -0.254938
-0.176356 0.187307 0.064165
0.293293 0.209457 -0.263094
0.150941 0.127827 0.068954
0.180061 0.160814 -0.111859
0.240128 0.167568 -0.218588
-0.131083 0.193839 0.138211
0.119864 0.172048 -0.163243
-0.180861 0.141385 0.102861
-0.30502 0.166618 0.24795
-0.148147 0.188725 -0.077492
-0.185073 0.142453 0.045969
-0.265529 0.171992 0.229588
0.08217 0.155508 0.101336
0.268303 0.179312 -0.278898
0.161688 0.147669 -0.146127
0.267143 0.130472 -0.28444
-0.329425 0.148493 0.191331
-0.044285 0.1484 -0.150049
0.026798 0.127262 -0.159271
-0.281262 0.143047 0.206188
-0.125869 0.126601 -0.0823
-0.171905 0.143203 0.006093
-0.097146 0.14744 0.166559
0.310987 0.142489 -0.275296
-0.155494 0.135104 0.135616
-0.05236 0.140619 0.174412
-0.351736 0.146149 0.214263
0.261268 0.122346 -0.26141
0.285256 0.138349 -0.217247
0.188799 0.083124 0.026167
0.288206 0.10957 -0.304913
-0.31775 0.10199 0.206735
0.311954 0.136039 -0.241493
0.08937 0.109848 0.118241
-0.320964 0.089357 0.248207
0.327119 0.074165 -0.283308
-0.194765 0.050355 0.079679
-0.041071 0.069552 -0.123855
-0.162866 0.080907 -0.003181
0.039894 0.107355 0.162945
-0.361743 0.111576 0.23526
0.07246 0.127029 -0.17022
0.190525 0.144369 -0.044031
-0.363379 0.067399 0.254262
-0.366484 0.084004 0.204073
-0.30221 0.101529 0.2314
0.272111 0.113297 -0.239557
0.021035 0.080541 -0.148077
0.151477 0.067872 -0.164588
-0.08812 0.005548 0.180206
0.092001 0.051431 0.120883
0.281699 0.071786 -0.313392
-0.351257 0.033661 0.259393
0.311526 0.079626 -0.315061
0.046591 0.027783 -0.171302
-0.387775 0.036794 0.225849
0.010935 0.066822 0.181134
-0.121693 0.042103 -0.039461
-0.352162 0.058555 0.201181
0.00637 0.051523 -0.132524
0.20577 0.047249 -0.065891
0.336817 0.033634 -0.295516
0.06043 0.021786 0.145455
-0.132651 0.086018 0.15394
0.275648 0.037981 -0.324023
0.20045 -0.004175 -0.116504
0.312718 0.041262 -0.275767
-0.361641 0.033454 0.200196
0.206257 0.026772 -0.004438
0.189636 0.015103 0.03583
-0.182235 0.047892 0.112734
0.147205 0.062136 0.092058
0.129654 0.008033 -0.174243
-0.189698 0.021184 0.023605
-0.043989 0.02727 -0.098957
-0.013985 0.013145 -0.097203
-0.007496 -0.004508 -0.12858
-0.373776 0.029459 0.199749
0.288921 0.036066 -0.29544
0.304858 -0.017711 -0.318156
-0.087065 0.030699 -0.078196
0.261206 -0.003742 -0.345344
-0.108303 -0.026304 -0.049259
0.299214 0.029583 -0.33923
-0.15191 0.012251 -0.025283
-0.142358 -0.040008 0.157845
0.302641 0.011147 -0.287858
0.081118 0.001646 0.0967
-0.418411 -0.02146 0.250458
-0.376049 -0.007645 0.193739
0.330666 0.006709 -0.330592
-0.408448 0.002473 0.209952
-0.060551 -0.01215 -0.047516
-0.3862 0.028105 0.24714
-0.348157 -0.003461 0.269152
0.267851 -0.005925 -0.365291
0.051152 -0.027333 0.101669
0.164135 -0.03161 0.050353
-0.371118 -0.014339 0.278236
0.249691 -0.027247 -0.373616
-0.42807 -0.026662 0.199663
-0.337374 0.010032 0.246174
-0.037263 0.021757 0.187951
0.329232 0.002326 -0.276442
-0.077229 -0.0638 -0.054182
0.280902 -0.013812 -0.362287
0.041259 -0.061796 -0.168165
-0.372089 -0.015738 0.251211
-0.359516 -0.034204 0.276023
-0.190334 -0.03333 0.08302
-0.411478 -0.029453 0.199434
0.344672 -0.025958 -0.293148
0.212171 -0.036334 -0.079245
0.05301 -0.028237 0.055477
-0.387409 -0.041787 0.310541
0.312144 -0.03636 -0.360436
0.338979 -0.046773 -0.292869
-0.426562 -0.049176 0.228247
-0.397834 -0.030221 0.212418
-0.004512 -0.012046 0.177409
-0.416739 -0.038179 0.264059
-0.441228 -0.047335 0.242019
-0.429584 -0.027719 0.186555
-0.417937 -0.035516 0.181227
-0.376641 -0.048999 0.306486
0.255531 -0.043968 -0.380883
-0.436134 -0.047561 0.185789
0.022868 -0.04958 0.139629
0.298144 -0.053025 -0.368906
0.179047 -0.027145 -0.144466
-0.112407 -0.077431 0.16564
-0.174357 -0.040441 -0.001284
0.317273 -0.060638 -0.387821
-0.414565 -0.054106 0.242606
0.067393 -0.085007 0.037412
0.092137 0.037248 -0.183614
0.031857 -0.084763 0.020784
-0.386911 -0.04846 0.285152
-0.395116 -0.040399 0.286201
0.036753 -0.050894 0.076511
-0.445502 -0.069434 0.284622
-0.170915 -0.040635 0.131347
-0.384919 -0.059196 0.334132
0.30052 -0.063389 -0.365857
0.375582 -0.071762 -0.289767
-0.018474 -0.092656 -0.101301
0.308535 -0.049088 -0.332888
0.190691 -0.086259 -0.11712
-0.426747 -0.060947 0.263721
-0.388402 -0.057615 0.321686
-0.39661 -0.063527 0.287831
-0.466494 -0.095267 0.290738
0.345446 -0.071105 -0.328204
0.024164 -0.117767 -0.152553
-0.444782 -0.08606 0.277696
-0.022219 -0.11049 0.137131
0.170166 -0.098585 0.002553
-0.165724 -0.114663 0.004329
0.308216 -0.087866 -0.388046
-0.471235 -0.083533 0.237513
-0.416897 -0.082193 0.31913
-0.131557 -0.098688 -0.036193
0.165272 -0.100031 -0.142161
0.318066 -0.095355 -0.404498
0.356471 -0.063018 -0.3352
0.109585 -0.056243 0.058331
-0.021196 -0.070255 -0.045155
0.003434 -0.09089 -0.138511
0.374867 -0.061931 -0.294999
0.369762 -0.098875 -0.342242
0.35332 -0.103172 -0.39135
0.200736 -0.070626 -0.024869
0.016172 -0.111038 0.095035
0.307767 -0.10084 -0.411748
-0.461599 -0.103574 0.296355
0.19939 -0.093861 -0.080483
-0.072713 -0.08003 0.168692
-0.169807 -0.100164 0.106359
0.360934 -0.104661 -0.349946
0.024139 -0.10387 0.032339
-0.172703 -0.12571 0.043768
-0.023853 -0.115419 -0.054331
0.103065 -0.08905 -0.168743
0.373959 -0.115301 -0.35999
0.060743 -0.12103 0.036707
0.353654 -0.119286 -0.386529
-0.005544 -0.193461 -0.106838
0.145588 -0.145236 0.002122
0.022572 -0.169012 0.04275
0.02146 -0.148327 0.081699
-0.110489 -0.188772 0.132404
-0.060679 -0.200273 -0.037686
-0.125552 -0.122458 0.148787
0.078896 -0.196378 -0.15383
-0.142982 -0.196541 -0.006057
-0.056409 -0.159639 0.145362
0.117037 -0.123655 0.025149
-0.008362 -0.201375 -0.059901
-0.028592 -0.192372 -0.027912
-0.026138 -0.23352 0.138273
0.133482 -0.248296 0.011085
0.131794 -0.204222 -0.131176
0.016298 -0.222117 0.099469
0.169373 -0.155052 -0.028645
-0.130226 -0.238516 0.096243
0.053909 -0.176162 -0.157406
-0.146851 -0.182701 0.100028
0.077948 -0.187186 0.030898
0.052801 -0.267316 -0.1316
0.166888 -0.202349 -0.094121
0.17479 -0.19339 -0.061875
0.022204 -0.233077 0.036929
0.166588 -0.253314 -0.024856
0.049956 -0.276454 0.019031
0.007349 -0.253512 -0.02898
0.155566 -0.285117 -0.089449
0.011704 -0.224753 -0.117611
-0.109412 -0.193789 -0.032435
-0.064029 -0.226924 0.145072
-0.139027 -0.26149 0.035742
0.111172 -0.282867 -0.124274
-0.054844 -0.323583 -0.011776
0.159843 -0.316765 -0.049624
-0.094022 -0.267436 0.133198
-0.107015 -0.320525 0.107097
0.105038 -0.299274 0.022324
-0.095214 -0.32559 0.001627
0.014335 -0.309083 -0.068883
0.03633 -0.336903 -0.101486
0.149129 -0.319417 -0.017477
0.028628 -0.31182 0.07829
-0.105886 -0.364258 0.020319
0.150517 -0.345142 -0.07881
0.04222 -0.379686 0.019315
0.007889 -0.298738 0.106731
-0.049255 -0.315387 0.133499
-0.086085 -0.362638 0.119408
-0.00734 -0.299353 -0.00131
0.099808 -0.338008 -0.11605
-0.119084 -0.329243 0.064049
-0.039582 -0.37138 -0.007219
0.066511 -0.34129 -0.114257
0.151459 -0.39987 -0.015398
0.032743 -0.386615 0.056454
-0.07714 -0.402609 -0.008573
-0.036857 -0.374146 0.133773
0.062503 -0.401193 -0.108483
0.101122 -0.382231 0.028407
0.023209 -0.38566 0.095982
0.021936 -0.397235 -0.065883
-0.097156 -0.39718 0.100544
0.024464 -0.378093 -0.011061
0.067865 -0.36753 0.031521
0.013367 -0.379416 0.020863
-0.082948 -0.429675 0.121572
-0.008338 -0.409143 0.1182
-0.056808 -0.427933 0.137211
0.020874 -0.432824 0.092066
-0.025944 -0.453784 0.026487
0.080347 -0.433594 -0.102298
0.026424 -0.396834 -0.099533
-0.095054 -0.425183 0.035647
0.057448 -0.468699 -0.057412
0.132351 -0.442812 -0.083648
0.153486 -0.430358 -0.062764
-0.094108 -0.446995 0.07883
-0.068559 -0.471459 0.035267
0.093828 -0.440654 0.026471
0.028465 -0.516014 0.125493
0.095707 -0.545089 0.043786
0.016971 -0.453799 0.052214
0.090024 -0.473543 -0.087909
0.050701 -0.443311 -0.005201
0.068203 -0.464964 0.018324
0.146984 -0.442632 0.007852
0.105878 -0.53397 -0.093434
-0.101063 -0.508077 0.083134
0.136882 -0.50567 -0.089243
-0.044618 -0.512785 0.165485
-0.07834 -0.518733 0.149421
0.059392 -0.558353 -0.026863
-0.084737 -0.540712 0.053141
-0.016056 -0.435305 0.136833
0.186569 -0.539215 -0.004383
-0.007802 -0.580327 0.167812
-0.047349 -0.525972 0.036199
-0.00578 -0.564336 0.041514
0.178879 -0.518526 -0.045953
0.08208 -0.541543 -0.076205
0.035012 -0.547442 0.082334
0.069046 -0.555975 0.02258
0.153566 -0.565854 -0.076915
-0.084216 -0.579974 0.143334
0.140778 -0.534016 0.040128
0.080544 -0.648812 0.029777
-0.087904 -0.627594 0.083671
-0.089186 -0.631712 0.107868
0.017528 -0.55398 0.054091
0.019291 -0.599809 0.147827
0.153811 -0.61872 0.036313
-0.046807 -0.594522 0.168432
0.034817 -0.608416 0.107756
0.063345 -0.614382 0.002643
0.121584 -0.653209 -0.079123
-0.066935 -0.663325 0.146076
0.172446 -0.628065 -0.055049
-0.033728 -0.670015 0.158364
-0.012487 -0.626912 0.049662
0.112729 -0.634608 0.044446
0.090818 -0.630049 -0.064333
0.012531 -0.676984 0.068769
0.159102 -0.704331 0.011727
-0.062584 -0.661163 0.060451
0.182669 -0.643654 -0.008145
0.015617 -0.73101 0.110663
-0.002621 -0.702987 0.144571
-0.041761 -0.768746 0.138977
-0.071798 -0.758436 0.083697
0.093094 -0.72634 0.021053
0.125863 -0.741329 -0.066233
0.165058 -0.730645 -0.029709
0.095648 -0.753668 -0.054792
-0.047292 -0.759616 0.063741
-0.071118 -0.786312 0.102545
0.075423 -0.714402 -0.01338
0.14822 -0.80505 0.004205
0.107432 -0.799183 -0.065216
-0.004489 -0.781608 0.129976
0.1454 -0.813282 -0.029757
0.005231 -0.759423 0.081569
0.143018 -0.761123 -0.054613
0.128405 -0.767678 0.019672
-0.016682 -0.762534 0.065362
0.09675 -0.799726 0.01421
-0.062276 -0.831766 0.063569
-0.001046 -0.858775 0.113564
0.081508 -0.837201 -0.032658
-0.051088 -0.869903 0.122025
-0.016151 -0.83758 0.069962
0.119081 -0.83633 -0.061254
-0.070461 -0.878565 0.050744
0.066943 -0.903392 -0.074197
-0.043385 -0.845089 0.052137
0.086886 -0.837576 -0.059729
0.137887 -0.874971 0.013146
0.074195 -0.886252 -0.018242
-0.02994 -0.902388 0.13627
-0.012837 -0.859158 0.131063
-0.022074 -0.879109 0.049561
0.097312 -0.88595 -0.08052
-0.077812 -0.887303 0.077382
0.069512 -0.907884 -0.099494
0.121925 -0.91967 0.023743
-0.069425 -0.91222 0.025173
-0.045858 -0.948026 0.039644
-0.01236 -0.90869 0.081233
0.145286 -0.894235 -0.033493
-0.109634 -0.928237 0.084105
0.125798 -0.891064 -0.069358
0.104058 -0.948626 0.00192
-0.1164 -0.914652 0.0365
-0.1335 -0.929343 -0.012629
0.08598 -0.912884 -0.119651
0.107817 -0.927911 -0.131
0.069349 -0.916994 -0.046716
0.052095 -0.928056 -0.154189
-0.071098 -0.940246 0.019968
0.142103 -0.938141 -0.07261
-0.080019 -0.909006 0.103542
0.054562 -0.945581 -0.097445
0.00057 -0.935108 0.142775
-0.144114 -0.940777 -0.036454
-0.169381 -0.948872 0.06205
0.007349 -0.964944 0.115995
0.132328 -0.951133 -0.16524
0.026053 -0.945738 -0.174147
0.134642 -0.964889 0.027223
0.074586 -0.954968 -0.065252
-0.118943 -0.943066 -0.023022
0.037266 -0.949047 -0.134347
-0.155455 -0.957539 -0.059011
-0.186524 -0.955282 -0.065383
0.040111 -0.959129 -0.228116
0.148828 -0.94333 0.026566
0.028029 -0.968485 -0.151678
0.0126 -0.959118 -0.220115
-0.036872 -0.959576 0.152372
0.128954 -0.967333 -0.175204
0.146843 -0.964374 -0.06014
-0.116686 -0.964844 0.093802
-0.159466 -0.965159 0.074937
0.100002 -0.971665 -0.039536
-0.200963 -0.964892 -0.060868
-0.014821 -0.966221 0.081021
0.140194 -0.969371 -0.097314
0.16428 -0.96077 0.002994
-0.214207 -0.95987 -0.044505
-0.193321 -0.970186 -0.056646
-0.151086 -0.967908 -0.047135
0.019585 -0.965294 -0.190203
-0.0179 -0.971174 0.139489
0.02888 0.871884 0.056016
-0.085122 0.539054 -0.073852
0.129046 0.464608 -0.078342
0.110927 0.475661 -0.107604
0.112734 0.481782 -0.108387
0.134675 0.460249 -0.086128
0.007772 -0.172026 0.000437
0.018144 -0.298528 0.021399
-0.00257 -0.221466 -0.006604
0.019184 -0.161888 0.003036
0.020984 -0.121825 0.012913
-0.005959 -0.159202 -0.023133
-0.012479 -0.02373 -0.037665
-0.040196 -0.125666 -0.043129
-0.003784 -0.138039 -0.01751
0.005986 -0.095758 -0.0078
0.000513 -0.047998 -0.01631
0.028615 -0.044783 0.019774
-0.015754 -0.056896 -0.028008
-0.033443 -0.024197 -0.035256
0.114623 -0.86594 0.012686
0.036911 0.826318 -0.074393
-0.156839 0.43819 0.113618
-0.13728 0.443126 0.136568
0.274662 -0.020034 -0.340825
0.37367 -0.064174 -0.302856
0.33711 -0.056463 -0.350444
0.34502 -0.072816 -0.359337
0.317197 -0.06402 -0.36341
0.33038 -0.08077 -0.356974
0.32806 -0.069429 -0.362137
0.345206 -0.050057 -0.311384
-0.47053 -0.09174 0.243849
-0.420425 -0.093593 0.308858
-0.443245 -0.057816 0.252951
-0.428392 -0.072568 0.283285
-0.429882 -0.082152 0.318759
0.341648 -0.115939 -0.389438
-0.183419 -0.950383 0.023653
-0.182971 -0.949627 -0.015645
-0.196184 -0.957155 -0.010022
-0.086936 -0.967777 0.0719
-0.131865 -0.966566 0.006388
-0.107113 -0.96377 -0.008851
-0.064991 -0.966093 0.105147
-0.044302 -0.969076 0.071368
-0.083455 -0.954283 0.117784
-0.159306 -0.963069 0.016937
0.034504 -0.969775 -0.201598
0.040799 -0.947832 -0.192428
0.053073 -0.957561 -0.206399
0.056596 -0.965845 -0.171644
0.05519 -0.965489 -0.127061
0.049604 -0.966917 -0.235722
0.132859 -0.966989 -0.001394
0.098985 -0.966844 -0.091824
0.090208 -0.966168 -0.164748
0.11568 -0.970938 -0.133466
0.091134 -0.95134 -0.1903
3 628 656 637 96 204 61
3 637 656 651 56 48 242
3 651 656 669 56 48 242
3 669 656 661 56 48 242
3 661 656 633 56 48 242
3 633 656 628 96 204 61
3 633 628 635 96 204 61
3 635 628 613 96 204 61
3 613 628 616 96 204 61
3 616 628 625 96 204 61
3 625 628 713 96 204 61
3 713 628 637 96 204 61
3 713 637 651 56 48 242
3 713 651 644 56 48 242
3 644 651 668 56 48 242
3 668 651 747 56 48 242
3 747 651 683 56 48 242
3 683 651 669 56 48 242
3 683 669 748 56 48 242
3 748 669 745 56 48 242
3 745 669 661 56 48 242
3 745 661 671 56 48 242
3 671 661 643 56 48 242
3 643 661 633 56 48 242
3 643 633 641 56 48 242
3 641 633 635 96 204 61
3 641 635 631 96 204 61
3 631 635 618 96 204 61
3 618 635 613 96 204 61
3 618 613 611 96 204 61
3 611 613 595 96 204 61
3 595 613 601 96 204 61
3 601 613 616 96 204 61
3 601 616 572 96 204 61
3 572 616 594 96 204 61
3 594 616 586 96 204 61
3 586 616 610 96 204 61
3 610 616 625 96 204 61
3 610 625 623 96 204 61
3 623 625 713 96 204 61
3 623 713 617 96 204 61
3 617 713 636 96 204 61
3 636 713 644 56 48 242
3 636 644 675 56 48 242
3 675 644 668 56 48 242
3 675 668 687 56 48 242
3 687 668 747 56 48 242
3 687 747 680 56 48 242
3 680 747 683 56 48 242
3 680 683 686 56 48 242
3 686 683 748 56 48 242
3 686 748 750 56 48 242
3 750 748 745 56 48 242
3 750 745 749 56 48 242
3 749 745 744 56 48 242
3 744 745 676 56 48 242
3 676 745 671 56 48 242
3 676 671 667 56 48 242
3 667 671 657 56 48 242
3 657 671 643 56 48 242
3 657 643 654 56 48 242
3 654 643 641 56 48 242
3 654 641 655 56 48 242
3 655 641 650 56 48 242
3 650 641 631 56 48 242
3 650 631 648 56 48 242
3 648 631 620 56 48 242
3 620 631 622 96 204 61
3 622 631 618 96 204 61
3 622 618 611 96 204 61
3 622 611 597 96 204 61
3 597 611 595 96 204 61
3 597 595 583 96 204 61
3 583 595 567 96 204 61
3 567 595 601 96 204 61
3 567 601 580 96 204 61
3 580 601 572 96 204 61
3 580 572 554 96 204 61
3 554 572 564 96 204 61
3 564 572 582 96 204 61
3 582 572 594 96 204 61
3 582 594 586 96 204 61
3 582 586 561 96 204 61
3 561 586 600 96 204 61
3 600 586 610 96 204 61
3 600 610 623 96 204 61
3 600 623 603 96 204 61
3 603 623 617 96 204 61
3 603 617 605 96 204 61
3 605 617 612 96 204 61
3 612 617 620 96 204 61
3 620 617 648 96 204 61
3 648 617 636 56 48 242
3 648 636 675 56 48 242
3 648 675 687 56 48 242
3 648 687 659 56 48 242
3 659 687 680 56 48 242
3 659 680 686 56 48 242
3 659 686 666 56 48 242
3 666 686 679 56 48 242
3 679 686 750 56 48 242
3 679 750 749 56 48 242
3 679 749 751 56 48 242
3 751 749 743 56 48 242
3 743 749 744 56 48 242
3 743 744 741 56 48 242
3 741 744 676 56 48 242
3 741 676 691 56 48 242
3 691 676 667 56 48 242
3 691 667 677 56 48 242
3 677 667 742 56 48 242
3 742 667 657 56 48 242
3 742 657 751 56 48 242
3 751 657 655 56 48 242
3 655 657 654 56 48 242
3 751 655 666 56 48 242
3 666 655 659 56 48 242
3 659 655 650 56 48 242
3 659 650 648 56 48 242
3 751 666 679 56 48 242
3 742 751 743 56 48 242
3 742 743 674 56 48 242
3 674 743 746 56 48 242
3 746 743 741 56 48 242
3 746 741 677 56 48 242
3 677 741 691 56 48 242
3 746 677 674 56 48 242
3 674 677 742 56 48 242
3 612 620 622 96 204 61
3 612 622 597 96 204 61
3 612 597 605 96 204 61
3 605 597 575 96 204 61
3 575 597 579 96 204 61
3 579 597 583 96 204 61
3 579 583 569 96 204 61
3 569 583 567 96 204 61
3 569 567 563 96 204 61
3 563 567 580 96 204 61
3 563 580 554 96 204 61
3 563 554 551 96 204 61
3 551 554 552 242 24 142
3 552 554 541 242 24 142
3 541 554 564 242 24 142
3 541 564 543 242 24 142
3 543 564 525 242 24 142
3 525 564 565 242 24 142
3 565 564 582 96 204 61
3 565 582 561 96 204 61
3 565 561 559 96 204 61
3 559 561 585 96 204 61
3 585 561 600 96 204 61
3 585 600 591 96 204 61
3 591 600 603 96 204 61
3 591 603 605 96 204 61
3 591 605 575 96 204 61
3 591 575 585 96 204 61
3 585 575 566 96 204 61
3 566 575 534 96 204 61
3 534 575 579 96 204 61
3 534 579 556 96 204 61
3 556 579 555 96 204 61
3 555 579 569 96 204 61
3 555 569 563 96 204 61
3 555 563 551 96 204 61
3 555 551 538 242 24 142
3 538 551 552 242 24 142
3 538 552 533 242 24 142
3 533 552 520 242 24 142
3 520 552 519 242 24 142
3 519 552 541 242 24 142
3 519 541 543 242 24 142
3 519 543 506 242 24 142
3 506 543 525 242 24 142
3 506 525 505 242 24 142
3 505 525 544 242 24 142
3 544 525 559 242 24 142
3 559 525 565 242 24 142
3 544 559 539 242 24 142
3 539 559 566 242 24 142
3 566 559 585 96 204 61
3 539 566 534 242 24 142
3 539 534 517 242 24 142
3 517 534 521 242 24 142
3 521 534 514 242 24 142
3 514 534 524 242 24 142
3 524 534 556 242 24 142
3 524 556 555 242 24 142
3 524 555 530 242 24 142
3 530 555 538 242 24 142
3 530 538 533 242 24 142
3 530 533 500 242 24 142
3 500 533 520 242 24 142
3 500 520 508 242 24 142
3 508 520 519 242 24 142
3 508 519 478 242 24 142
3 478 519 489 242 24 142
3 489 519 506 242 24 142
3 489 506 704 242 24 142
3 704 506 505 242 24 142
3 704 505 702 242 24 142
3 702 505 499 242 24 142
3 499 505 517 242 24 142
3 517 505 544 242 24 142
3 517 544 539 242 24 142
3 499 517 492 242 24 142
3 492 517 521 242 24 142
3 492 521 504 242 24 142
3 504 521 514 242 24 142
3 504 514 502 242 24 142
3 502 514 507 242 24 142
3 507 514 524 242 24 142
3 507 524 530 242 24 142
3 507 530 512 242 24 142
3 512 530 500 242 24 142
3 512 500 485 242 24 142
3 485 500 497 242 24 142
3 497 500 508 242 24 142
3 497 508 445 242 24 142
3 445 508 478 242 24 142
3 445 478 459 242 24 142
3 459 478 437 242 24 142
3 437 478 473 242 24 142
3 473 478 489 242 24 142
3 473 489 704 242 24 142
3 473 704 703 242 24 142
3 703 704 702 242 24 142
3 703 702 476 242 24 142
3 476 702 499 242 24 142
3 476 499 488 242 24 142
3 488 499 492 242 24 142
3 488 492 479 242 24 142
3 479 492 495 242 24 142
3 495 492 504 242 24 142
3 495 504 502 242 24 142
3 495 502 467 242 24 142
3 467 502 501 242 24 142
3 501 502 507 242 24 142
3 501 507 493 242 24 142
3 493 507 512 242 24 142
3 493 512 485 242 24 142
3 493 485 454 242 24 142
3 454 485 474 242 24 142
3 474 485 497 242 24 142
3 474 497 398 242 24 142
3 398 497 445 242 24 142
3 398 445 459 242 24 142
3 398 459 368 242 24 142
3 368 459 437 242 24 142
3 368 437 458 242 24 142
3 458 437 473 242 24 142
3 458 473 703 242 24 142
3 458 703 428 242 24 142
3 428 703 476 242 24 142
3 428 476 426 242 24 142
3 426 476 488 242 24 142
3 426 488 457 242 24 142
3 457 488 448 242 24 142
3 448 488 479 242 24 142
3 448 479 495 242 24 142
3 448 495 463 242 24 142
3 463 495 467 242 24 142
3 463 467 404 242 24 142
3 404 467 439 242 24 142
3 439 467 501 242 24 142
3 439 501 454 242 24 142
3 454 501 493 242 24 142
3 439 454 421 242 24 142
3 421 454 364 242 24 142
3 364 454 474 242 24 142
3 364 474 427 242 24 142
3 427 474 398 242 24 142
3 427 398 346 242 24 142
3 346 398 368 242 24 142
3 346 368 351 242 24 142
3 351 368 367 242 24 142
3 367 368 458 242 24 142
3 367 458 705 242 24 142
3 705 458 709 40 176 204
3 709 458 428 242 24 142
3 709 428 710 40 176 204
3 710 428 405 40 176 204
3 405 428 426 242 24 142
3 405 426 457 242 24 142
3 405 457 379 40 176 204
3 379 457 389 242 24 142
3 389 457 448 242 24 142
3 389 448 463 242 24 142
3 389 463 361 242 24 142
3 361 463 360 242 24 142
3 360 463 404 242 24 142
3 360 404 352 242 24 142
3 352 404 357 242 24 142
3 357 404 439 242 24 142
3 357 439 421 242 24 142
3 357 421 340 242 24 142
3 340 421 364 242 24 142
3 340 364 427 242 24 142
3 340 427 298 242 24 142
3 298 427 333 40 176 204
3 333 427 346 40 176 204
3 333 346 339 40 176 204
3 339 346 351 40 176 204
3 339 351 329 40 176 204
3 329 351 366 40 176 204
3 366 351 367 40 176 204
3 366 367 384 40 176 204
3 384 367 705 40 176 204
3 384 705 712 40 176 204
3 712 705 711 40 176 204
3 711 705 709 40 176 204
3 711 709 708 40 176 204
3 708 709 710 40 176 204
3 708 710 471 242 24 142
3 471 710 431 242 24 142
3 431 710 405 40 176 204
3 431 405 388 40 176 204
3 388 405 379 40 176 204
3 388 379 354 40 176 204
3 354 379 342 40 176 204
3 342 379 363 40 176 204
3 363 379 389 40 176 204
3 363 389 361 242 24 142
3 363 361 321 40 176 204
3 321 361 360 242 24 142
3 321 360 334 40 176 204
3 334 360 352 40 176 204
3 334 352 295 40 176 204
3 295 352 357 242 24 142
3 295 357 340 242 24 142
3 295 340 306 40 176 204
3 306 340 298 40 176 204
3 306 298 267 40 176 204
3 267 298 253 40 176 204
3 253 298 268 40 176 204
3 268 298 333 40 176 204
3 268 333 289 40 176 204
3 289 333 310 40 176 204
3 310 333 339 40 176 204
3 310 339 309 40 176 204
3 309 339 329 40 176 204
3 309 329 281 40 176 204
3 281 329 372 40 176 204
3 372 329 366 40 176 204
3 372 366 384 40 176 204
3 372 384 349 40 176 204
3 349 384 374 40 176 204
3 374 384 396 242 24 142
3 396 384 712 242 24 142
3 396 712 706 242 24 142
3 706 712 711 242 24 142
3 706 711 708 242 24 142
3 706 708 707 242 24 142
3 707 708 699 242 24 142
3 699 708 471 242 24 142
3 699 471 480 242 24 142
3 480 471 481 242 24 142
3 481 471 464 242 24 142
3 464 471 431 242 24 142
3 464 431 419 242 24 142
3 419 431 388 40 176 204
3 419 388 354 40 176 204
3 419 354 411 242 24 142
3 411 354 348 40 176 204
3 348 354 331 40 176 204
3 331 354 342 40 176 204
3 331 342 325 40 176 204
3 325 342 363 40 176 204
3 325 363 294 40 176 204
3 294 363 321 40 176 204
3 294 321 286 40 176 204
3 286 321 334 40 176 204
3 286 334 282 40 176 204
3 282 334 295 40 176 204
3 282 295 267 40 176 204
3 267 295 306 40 176 204
3 282 267 262 40 176 204
3 262 267 251 40 176 204
3 251 267 253 40 176 204
3 251 253 248 40 176 204
3 248 253 268 40 176 204
3 248 268 247 40 176 204
3 247 268 289 40 176 204
3 247 289 272 40 176 204
3 272 289 309 40 176 204
3 309 289 310 40 176 204
3 272 309 281 40 176 204
3 272 281 271 40 176 204
3 271 281 301 40 176 204
3 301 281 312 40 176 204
3 312 281 372 40 176 204
3 312 372 349 40 176 204
3 312 349 330 40 176 204
3 330 349 376 40 176 204
3 376 349 374 242 24 142
3 376 374 453 242 24 142
3 453 374 396 242 24 142
3 453 396 509 242 24 142
3 509 396 483 242 24 142
3 483 396 706 242 24 142
3 483 706 490 242 24 142
3 490 706 707 242 24 142
3 490 707 699 242 24 142
3 490 699 701 242 24 142
3 701 699 503 242 24 142
3 503 699 480 242 24 142
3 503 480 481 242 24 142
3 503 481 494 242 24 142
3 494 481 447 242 24 142
3 447 481 464 242 24 142
3 447 464 419 242 24 142
3 447 419 411 242 24 142
3 447 411 468 242 24 142
3 468 411 394 242 24 142
3 394 411 348 242 24 142
3 394 348 317 40 176 204
3 317 348 331 40 176 204
3 317 331 279 40 176 204
3 279 331 273 40 176 204
3 273 331 304 40 176 204
3 304 331 325 40 176 204
3 304 325 294 40 176 204
3 304 294 259 40 176 204
3 259 294 286 40 176 204
3 259 286 265 40 176 204
3 265 286 282 40 176 204
3 265 282 262 40 176 204
3 265 262 230 40 176 204
3 230 262 235 40 176 204
3 235 262 251 40 176 204
3 235 251 229 40 176 204
3 229 251 248 40 176 204
3 229 248 224 40 176 204
3 224 248 215 40 176 204
3 215 248 247 40 176 204
3 215 247 272 40 176 204
3 215 272 233 40 176 204
3 233 272 271 40 176 204
3 233 271 243 40 176 204
3 243 271 301 40 176 204
3 243 301 276 40 176 204
3 276 301 288 40 176 204
3 288 301 313 40 176 204
3 313 301 312 40 176 204
3 313 312 330 40 176 204
3 313 330 302 40 176 204
3 302 330 365 40 176 204
3 365 330 376 40 176 204
3 365 376 423 242 24 142
3 423 376 453 242 24 142
3 423 453 449 242 24 142
3 449 453 486 242 24 142
3 486 453 509 242 24 142
3 486 509 518 242 24 142
3 518 509 513 242 24 142
3 513 509 483 242 24 142
3 513 483 529 242 24 142
3 529 483 701 242 24 142
3 701 483 490 242 24 142
3 529 701 700 242 24 142
3 700 701 503 242 24 142
3 700 503 522 242 24 142
3 522 503 494 242 24 142
3 522 494 526 242 24 142
3 526 494 491 242 24 142
3 491 494 447 242 24 142
3 491 447 487 242 24 142
3 487 447 468 242 24 142
3 487 468 484 242 24 142
3 484 468 422 242 24 142
3 422 468 341 242 24 142
3 341 468 394 242 24 142
3 341 394 317 242 24 142
3 341 317 355 242 24 142
3 355 317 314 40 176 204
3 314 317 277 40 176 204
3 277 317 279 40 176 204
3 277 279 254 40 176 204
3 254 279 273 40 176 204
3 254 273 240 40 176 204
3 240 273 222 40 176 204
3 222 273 249 40 176 204
3 249 273 263 40 176 204
3 263 273 304 40 176 204
3 263 304 259 40 176 204
3 263 259 249 40 176 204
3 249 259 236 40 176 204
3 236 259 230 40 176 204
3 230 259 265 40 176 204
3 236 230 205 40 176 204
3 205 230 208 40 176 204
3 208 230 235 40 176 204
3 208 235 193 40 176 204
3 193 235 229 40 176 204
3 193 229 191 40 176 204
3 191 229 224 40 176 204
3 191 224 187 40 176 204
3 187 224 190 40 176 204
3 190 224 197 40 176 204
3 197 224 215 40 176 204
3 197 215 206 40 176 204
3 206 215 200 40 176 204
3 200 215 233 40 176 204
3 200 233 218 40 176 204
3 218 233 246 40 176 204
3 246 233 243 40 176 204
3 246 243 276 40 176 204
3 246 276 288 40 176 204
3 246 288 261 40 176 204
3 261 288 292 40 176 204
3 292 288 302 40 176 204
3 302 288 313 40 176 204
3 292 302 299 40 176 204
3 299 302 328 40 176 204
3 328 302 365 40 176 204
3 328 365 401 242 24 142
3 401 365 423 242 24 142
3 401 423 449 242 24 142
3 401 449 472 242 24 142
3 472 449 486 242 24 142
3 472 486 511 242 24 142
3 511 486 518 242 24 142
3 511 518 523 242 24 142
3 523 518 536 242 24 142
3 536 518 513 242 24 142
3 536 513 532 242 24 142
3 532 513 529 242 24 142
3 532 529 545 242 24 142
3 545 529 700 242 24 142
3 545 700 535 242 24 142
3 535 700 522 242 24 142
3 535 522 540 242 24 142
3 540 522 526 242 24 142
3 540 526 547 242 24 142
3 547 526 537 242 24 142
3 537 526 527 242 24 142
3 527 526 491 242 24 142
3 527 491 510 242 24 142
3 510 491 487 242 24 142
3 510 487 484 242 24 142
3 510 484 482 242 24 142
3 482 484 498 242 24 142
3 498 484 469 242 24 142
3 469 484 377 242 24 142
3 377 484 422 242 24 142
3 377 422 341 242 24 142
3 377 341 355 242 24 142
3 377 355 433 242 24 142
3 433 355 362 242 24 142
3 362 355 316 242 24 142
3 316 355 314 40 176 204
3 316 314 297 40 176 204
3 297 314 277 40 176 204
3 297 277 269 40 176 204
3 269 277 239 40 176 204
3 239 277 241 40 176 204
3 241 277 240 40 176 204
3 240 277 254 40 176 204
3 241 240 216 40 176 204
3 216 240 211 40 176 204
3 211 240 222 40 176 204
3 211 222 201 40 176 204
3 201 222 205 40 176 204
3 205 222 236 40 176 204
3 236 222 249 40 176 204
3 201 205 151 40 176 204
3 151 205 181 40 176 204
3 181 205 208 40 176 204
3 181 208 184 40 176 204
3 184 208 191 40 176 204
3 191 208 193 40 176 204
3 184 191 162 40 176 204
3 162 191 173 40 176 204
3 173 191 163 40 176 204
3 163 191 187 40 176 204
3 163 187 177 40 176 204
3 177 187 190 40 176 204
3 177 190 169 40 176 204
3 169 190 197 40 176 204
3 169 197 206 40 176 204
3 169 206 160 40 176 204
3 160 206 164 40 176 204
3 164 206 180 40 176 204
3 180 206 200 40 176 204
3 180 200 196 40 176 204
3 196 200 218 40 176 204
3 196 218 204 40 176 204
3 204 218 194 40 176 204
3 194 218 242 40 176 204
3 242 218 246 40 176 204
3 242 246 261 40 176 204
3 242 261 239 40 176 204
3 239 261 269 40 176 204
3 269 261 292 40 176 204
3 269 292 299 40 176 204
3 269 299 297 40 176 204
3 297 299 316 40 176 204
3 316 299 328 40 176 204
3 316 328 362 40 176 204
3 362 328 401 242 24 142
3 362 401 433 242 24 142
3 433 401 469 242 24 142
3 469 401 472 242 24 142
3 469 472 498 242 24 142
3 498 472 511 242 24 142
3 498 511 496 242 24 142
3 496 511 531 242 24 142
3 531 511 523 242 24 142
3 531 523 542 242 24 142
3 542 523 553 242 24 142
3 553 523 536 242 24 142
3 553 536 558 242 24 142
3 558 536 550 96 204 61
3 550 536 532 242 24 142
3 550 532 545 242 24 142
3 550 545 562 242 24 142
3 562 545 535 242 24 142
3 562 535 549 242 24 142
3 549 535 540 242 24 142
3 549 540 547 242 24 142
3 549 547 574 96 204 61
3 574 547 537 242 24 142
3 574 537 548 96 204 61
3 548 537 546 242 24 142
3 546 537 528 242 24 142
3 528 537 527 242 24 142
3 528 527 515 242 24 142
3 515 527 510 242 24 142
3 515 510 482 242 24 142
3 515 482 496 242 24 142
3 496 482 498 242 24 142
3 515 496 516 242 24 142
3 516 496 531 242 24 142
3 516 531 542 242 24 142
3 516 542 528 242 24 142
3 528 542 546 242 24 142
3 546 542 557 242 24 142
3 557 542 553 242 24 142
3 557 553 558 96 204 61
3 557 558 573 96 204 61
3 573 558 577 96 204 61
3 577 558 550 96 204 61
3 577 550 578 96 204 61
3 578 550 589 96 204 61
3 589 550 562 96 204 61
3 589 562 581 96 204 61
3 581 562 560 96 204 61
3 560 562 549 96 204 61
3 560 549 574 96 204 61
3 560 574 576 96 204 61
3 576 574 570 96 204 61
3 570 574 548 96 204 61
3 570 548 571 96 204 61
3 571 548 546 96 204 61
3 571 546 557 96 204 61
3 571 557 568 96 204 61
3 568 557 573 96 204 61
3 568 573 587 96 204 61
3 587 573 604 96 204 61
3 604 573 599 96 204 61
3 599 573 577 96 204 61
3 599 577 578 96 204 61
3 599 578 589 96 204 61
3 599 589 602 96 204 61
3 602 589 581 96 204 61
3 602 581 593 96 204 61
3 593 581 560 96 204 61
3 593 560 590 96 204 61
3 590 560 576 96 204 61
3 590 576 607 96 204 61
3 607 576 598 96 204 61
3 598 576 592 96 204 61
3 592 576 570 96 204 61
3 592 570 571 96 204 61
3 592 571 584 96 204 61
3 584 571 568 96 204 61
3 584 568 588 96 204 61
3 588 568 587 96 204 61
3 588 587 615 96 204 61
3 615 587 609 96 204 61
3 609 587 604 96 204 61
3 609 604 614 96 204 61
3 614 604 599 96 204 61
3 614 599 624 96 204 61
3 624 599 602 96 204 61
3 624 602 621 96 204 61
3 621 602 606 96 204 61
3 606 602 593 96 204 61
3 606 593 590 96 204 61
3 606 590 607 96 204 61
3 606 607 619 96 204 61
3 619 607 608 96 204 61
3 608 607 598 96 204 61
3 608 598 596 96 204 61
3 596 598 592 96 204 61
3 596 592 584 96 204 61
3 596 584 588 96 204 61
3 596 588 615 96 204 61
3 596 615 608 96 204 61
3 608 615 629 96 204 61
3 629 615 642 96 204 61
3 642 615 626 96 204 61
3 626 615 609 96 204 61
3 626 609 614 96 204 61
3 626 614 634 96 204 61
3 634 614 624 96 204 61
3 634 624 630 96 204 61
3 630 624 621 96 204 61
3 630 621 627 96 204 61
3 627 621 606 96 204 61
3 627 606 619 96 204 61
3 627 619 639 96 204 61
3 639 619 608 96 204 61
3 639 608 629 96 204 61
3 639 629 638 56 48 242
3 638 629 660 56 48 242
3 660 629 642 56 48 242
3 660 642 649 56 48 242
3 649 642 652 56 48 242
3 652 642 632 56 48 242
3 632 642 626 56 48 242
3 632 626 634 96 204 61
3 632 634 645 56 48 242
3 645 634 640 56 48 242
3 640 634 630 96 204 61
3 640 630 627 96 204 61
3 640 627 647 56 48 242
3 647 627 665 56 48 242
3 665 627 662 56 48 242
3 662 627 639 56 48 242
3 662 639 638 56 48 242
3 662 638 678 56 48 242
3 678 638 660 56 48 242
3 678 660 739 56 48 242
3 739 660 649 56 48 242
3 739 649 682 56 48 242
3 682 649 664 56 48 242
3 664 649 652 56 48 242
3 664 652 731 56 48 242
3 731 652 732 56 48 242
3 732 652 653 56 48 242
3 653 652 645 56 48 242
3 645 652 632 56 48 242
3 653 645 658 56 48 242
3 658 645 646 56 48 242
3 646 645 640 56 48 242
3 646 640 647 56 48 242
3 646 647 685 56 48 242
3 685 647 665 56 48 242
3 685 665 692 56 48 242
3 692 665 662 56 48 242
3 692 662 678 56 48 242
3 692 678 739 56 48 242
3 692 739 737 56 48 242
3 737 739 681 56 48 242
3 681 739 682 56 48 242
3 681 682 734 56 48 242
3 734 682 740 56 48 242
3 740 682 664 56 48 242
3 740 664 731 56 48 242
3 740 731 733 56 48 242
3 733 731 732 56 48 242
3 733 732 688 56 48 242
3 688 732 684 56 48 242
3 684 732 673 56 48 242
3 673 732 663 56 48 242
3 663 732 653 56 48 242
3 663 653 670 56 48 242
3 670 653 658 56 48 242
3 670 658 736 56 48 242
3 736 658 646 56 48 242
3 736 646 734 56 48 242
3 734 646 738 56 48 242
3 738 646 685 56 48 242
3 738 685 692 56 48 242
3 738 692 737 56 48 242
3 738 737 734 56 48 242
3 734 737 681 56 48 242
3 736 734 735 56 48 242
3 735 734 740 56 48 242
3 735 740 733 56 48 242
3 735 733 689 56 48 242
3 689 733 688 56 48 242
3 689 688 684 56 48 242
3 689 684 672 56 48 242
3 672 684 673 56 48 242
3 672 673 663 56 48 242
3 672 663 670 56 48 242
3 672 670 736 56 48 242
3 672 736 690 56 48 242
3 690 736 735 56 48 242
3 690 735 689 56 48 242
3 690 689 672 56 48 242
3 516 528 515 242 24 142
3 433 469 377 242 24 142
3 242 239 241 40 176 204
3 242 241 225 40 176 204
3 225 241 216 40 176 204
3 225 216 203 40 176 204
3 203 216 202 40 176 204
3 202 216 211 40 176 204
3 202 211 178 40 176 204
3 178 211 201 40 176 204
3 178 201 151 40 176 204
3 178 151 147 40 176 204
3 147 151 139 40 176 204
3 139 151 171 40 176 204
3 171 151 184 40 176 204
3 184 151 181 40 176 204
3 171 184 162 40 176 204
3 171 162 155 40 176 204
3 155 162 695 40 176 204
3 695 162 173 40 176 204
3 695 173 696 40 176 204
3 696 173 163 40 176 204
3 696 163 131 40 176 204
3 131 163 141 40 176 204
3 141 163 153 40 176 204
3 153 163 177 40 176 204
3 153 177 169 40 176 204
3 153 169 160 40 176 204
3 153 160 126 40 176 204
3 126 160 123 40 176 204
3 123 160 158 40 176 204
3 158 160 164 40 176 204
3 158 164 180 40 176 204
3 158 180 167 40 176 204
3 167 180 196 40 176 204
3 167 196 176 40 176 204
3 176 196 204 40 176 204
3 176 204 159 40 176 204
3 159 204 194 40 176 204
3 159 194 166 40 176 204
3 166 194 203 40 176 204
3 203 194 225 40 176 204
3 225 194 242 40 176 204
3 166 203 170 40 176 204
3 170 203 186 40 176 204
3 186 203 202 40 176 204
3 186 202 178 40 176 204
3 186 178 147 40 176 204
3 186 147 170 40 176 204
3 170 147 132 40 176 204
3 132 147 118 40 176 204
3 118 147 139 40 176 204
3 118 139 104 40 176 204
3 104 139 127 40 176 204
3 127 139 171 40 176 204
3 127 171 155 40 176 204
3 127 155 135 40 176 204
3 135 155 695 40 176 204
3 135 695 142 40 176 204
3 142 695 698 242 221 72
3 698 695 697 242 221 72
3 697 695 696 40 176 204
3 697 696 131 40 176 204
3 697 131 113 40 176 204
3 113 131 115 40 176 204
3 115 131 141 40 176 204
3 115 141 126 40 176 204
3 126 141 153 40 176 204
3 115 126 110 40 176 204
3 110 126 92 40 176 204
3 92 126 109 40 176 204
3 109 126 123 40 176 204
3 109 123 694 40 176 204
3 694 123 138 40 176 204
3 138 123 158 40 176 204
3 138 158 125 40 176 204
3 125 158 167 40 176 204
3 125 167 128 40 176 204
3 128 167 176 40 176 204
3 128 176 148 40 176 204
3 148 176 159 40 176 204
3 148 159 133 40 176 204
3 133 159 156 40 176 204
3 156 159 166 40 176 204
3 156 166 157 40 176 204
3 157 166 170 40 176 204
3 157 170 120 40 176 204
3 120 170 132 40 176 204
3 120 132 105 40 176 204
3 105 132 118 40 176 204
3 105 118 97 40 176 204
3 97 118 104 40 176 204
3 97 104 90 40 176 204
3 90 104 127 40 176 204
3 90 127 93 40 176 204
3 93 127 130 40 176 204
3 130 127 135 40 176 204
3 130 135 142 242 221 72
3 130 142 161 242 221 72
3 161 142 172 242 221 72
3 172 142 179 242 221 72
3 179 142 698 242 221 72
3 179 698 212 242 221 72
3 212 698 697 242 221 72
3 212 697 165 242 221 72
3 165 697 113 242 221 72
3 165 113 140 242 221 72
3 140 113 94 242 221 72
3 94 113 110 40 176 204
3 110 113 115 40 176 204
3 94 110 96 40 176 204
3 96 110 87 40 176 204
3 87 110 92 40 176 204
3 87 92 77 40 176 204
3 77 92 91 40 176 204
3 91 92 109 40 176 204
3 91 109 108 40 176 204
3 108 109 694 40 176 204
3 108 694 112 40 176 204
3 112 694 125 40 176 204
3 125 694 138 40 176 204
3 112 125 137 40 176 204
3 137 125 128 40 176 204
3 137 128 148 40 176 204
3 137 148 107 40 176 204
3 107 148 133 40 176 204
3 107 133 136 40 176 204
3 136 133 156 40 176 204
3 136 156 149 242 221 72
3 149 156 157 40 176 204
3 149 157 129 40 176 204
3 129 157 120 40 176 204
3 129 120 99 40 176 204
3 99 120 105 40 176 204
3 99 105 98 40 176 204
3 98 105 97 40 176 204
3 98 97 76 40 176 204
3 76 97 75 40 176 204
3 75 97 83 40 176 204
3 83 97 90 40 176 204
3 83 90 82 40 176 204
3 82 90 93 40 176 204
3 82 93 85 40 176 204
3 85 93 111 242 221 72
3 111 93 121 242 221 72
3 121 93 130 242 221 72
3 121 130 161 242 221 72
3 121 161 124 242 221 72
3 124 161 175 242 221 72
3 175 161 172 242 221 72
3 175 172 192 242 221 72
3 192 172 195 242 221 72
3 195 172 179 242 221 72
3 195 179 244 242 221 72
3 244 179 212 242 221 72
3 244 212 223 242 221 72
3 223 212 165 242 221 72
3 223 165 174 242 221 72
3 174 165 140 242 221 72
3 174 140 134 242 221 72
3 134 140 116 242 221 72
3 116 140 94 242 221 72
3 116 94 103 242 221 72
3 103 94 96 40 176 204
3 103 96 85 40 176 204
3 85 96 87 40 176 204
3 85 87 74 40 176 204
3 74 87 77 40 176 204
3 74 77 72 40 176 204
3 72 77 63 40 176 204
3 63 77 79 40 176 204
3 79 77 91 40 176 204
3 79 91 88 40 176 204
3 88 91 108 40 176 204
3 88 108 89 40 176 204
3 89 108 112 40 176 204
3 89 112 86 40 176 204
3 86 112 137 40 176 204
3 86 137 107 40 176 204
3 86 107 100 40 176 204
3 100 107 106 40 176 204
3 106 107 117 242 221 72
3 117 107 136 242 221 72
3 117 136 150 242 221 72
3 150 136 149 242 221 72
3 150 149 715 242 221 72
3 715 149 716 242 221 72
3 716 149 143 242 221 72
3 143 149 129 242 221 72
3 143 129 144 242 221 72
3 144 129 99 40 176 204
3 144 99 95 40 176 204
3 95 99 98 40 176 204
3 95 98 76 40 176 204
3 95 76 80 40 176 204
3 80 76 67 40 176 204
3 67 76 70 40 176 204
3 70 76 75 40 176 204
3 70 75 65 40 176 204
3 65 75 62 40 176 204
3 62 75 69 40 176 204
3 69 75 83 40 176 204
3 69 83 82 40 176 204
3 69 82 74 40 176 204
3 74 82 85 40 176 204
3 69 74 72 40 176 204
3 69 72 62 40 176 204
3 62 72 63 40 176 204
3 62 63 58 204 61 61
3 58 63 66 204 61 61
3 66 63 79 204 61 61
3 66 79 71 204 61 61
3 71 79 88 204 61 61
3 71 88 73 204 61 61
3 73 88 89 40 176 204
3 73 89 78 40 176 204
3 78 89 86 40 176 204
3 78 86 81 40 176 204
3 81 86 100 40 176 204
3 81 100 106 40 176 204
3 81 106 84 40 176 204
3 84 106 102 242 221 72
3 102 106 114 242 221 72
3 114 106 117 242 221 72
3 114 117 122 242 221 72
3 122 117 154 242 221 72
3 154 117 150 242 221 72
3 154 150 168 242 221 72
3 168 150 715 242 221 72
3 168 715 189 242 221 72
3 189 715 716 242 221 72
3 189 716 220 242 221 72
3 220 716 198 242 221 72
3 198 716 143 242 221 72
3 198 143 182 242 221 72
3 182 143 144 242 221 72
3 182 144 119 242 221 72
3 119 144 101 242 221 72
3 101 144 95 242 221 72
3 101 95 80 40 176 204
3 101 80 84 40 176 204
3 84 80 81 40 176 204
3 81 80 68 40 176 204
3 68 80 67 40 176 204
3 68 67 64 40 176 204
3 64 67 60 40 176 204
3 60 67 65 40 176 204
3 65 67 70 40 176 204
3 60 65 56 204 61 61
3 56 65 52 204 61 61
3 52 65 62 204 61 61
3 52 62 53 204 61 61
3 53 62 58 204 61 61
3 53 58 47 204 61 61
3 47 58 66 204 61 61
3 47 66 51 204 61 61
3 51 66 55 204 61 61
3 55 66 71 204 61 61
3 55 71 57 204 61 61
3 57 71 59 204 61 61
3 59 71 61 204 61 61
3 61 71 73 204 61 61
3 61 73 48 204 61 61
3 48 73 60 204 61 61
3 60 73 64 204 61 61
3 64 73 78 40 176 204
3 64 78 68 40 176 204
3 68 78 81 40 176 204
3 48 60 56 204 61 61
3 48 56 45 204 61 61
3 45 56 43 204 61 61
3 43 56 39 204 61 61
3 39 56 52 204 61 61
3 39 52 41 204 61 61
3 41 52 42 204 61 61
3 42 52 53 204 61 61
3 42 53 47 204 61 61
3 42 47 714 204 61 61
3 714 47 30 204 61 61
3 30 47 51 204 61 61
3 30 51 31 204 61 61
3 31 51 55 204 61 61
3 31 55 50 204 61 61
3 50 55 57 204 61 61
3 50 57 49 204 61 61
3 49 57 59 204 61 61
3 49 59 46 204 61 61
3 46 59 54 204 61 61
3 54 59 48 204 61 61
3 48 59 61 204 61 61
3 54 48 34 204 61 61
3 34 48 45 204 61 61
3 34 45 36 204 61 61
3 36 45 38 204 61 61
3 38 45 43 204 61 61
3 38 43 23 204 61 61
3 23 43 39 204 61 61
3 23 39 693 204 61 61
3 693 39 41 204 61 61
3 693 41 25 204 61 61
3 25 41 35 204 61 61
3 35 41 42 204 61 61
3 35 42 714 204 61 61
3 35 714 27 204 61 61
3 27 714 30 204 61 61
3 27 30 10 204 61 61
3 10 30 31 204 61 61
3 10 31 19 204 61 61
3 19 31 37 204 61 61
3 37 31 50 204 61 61
3 37 50 29 204 61 61
3 29 50 49 204 61 61
3 29 49 40 204 61 61
3 40 49 44 204 61 61
3 44 49 46 204 61 61
3 44 46 33 204 61 61
3 33 46 20 204 61 61
3 20 46 54 204 61 61
3 20 54 34 204 61 61
3 20 34 36 204 61 61
3 20 36 38 204 61 61
3 20 38 8 204 61 61
3 8 38 12 204 61 61
3 12 38 23 204 61 61
3 12 23 14 204 61 61
3 14 23 26 204 61 61
3 26 23 693 204 61 61
3 26 693 24 204 61 61
3 24 693 25 204 61 61
3 24 25 32 204 61 61
3 32 25 21 204 61 61
3 21 25 11 204 61 61
3 11 25 13 204 61 61
3 13 25 18 204 61 61
3 18 25 35 204 61 61
3 18 35 27 204 61 61
3 18 27 17 204 61 61
3 17 27 10 204 61 61
3 17 10 4 204 61 61
3 4 10 15 204 61 61
3 15 10 19 204 61 61
3 15 19 16 204 61 61
3 16 19 37 204 61 61
3 16 37 29 204 61 61
3 16 29 40 204 61 61
3 16 40 33 204 61 61
3 33 40 44 204 61 61
3 16 33 22 204 61 61
3 22 33 20 204 61 61
3 22 20 8 204 61 61
3 22 8 3 204 61 61
3 3 8 0 204 61 61
3 0 8 12 204 61 61
3 0 12 7 204 61 61
3 7 12 14 204 61 61
3 7 14 9 204 61 61
3 9 14 26 204 61 61
3 9 26 21 204 61 61
3 21 26 28 204 61 61
3 28 26 24 204 61 61
3 28 24 32 204 61 61
3 28 32 21 204 61 61
3 9 21 11 204 61 61
3 9 11 7 204 61 61
3 7 11 5 204 61 61
3 5 11 13 204 61 61
3 5 13 2 204 61 61
3 2 13 17 204 61 61
3 17 13 18 204 61 61
3 2 17 4 204 61 61
3 2 4 6 204 61 61
3 6 4 15 204 61 61
3 6 15 3 204 61 61
3 3 15 16 204 61 61
3 3 16 22 204 61 61
3 6 3 0 204 61 61
3 6 0 1 204 61 61
3 1 0 7 204 61 61
3 1 7 5 204 61 61
3 1 5 2 204 61 61
3 1 2 6 204 61 61
3 101 84 102 242 221 72
3 101 102 114 242 221 72
3 101 114 119 242 221 72
3 119 114 152 242 221 72
3 152 114 122 242 221 72
3 152 122 188 242 221 72
3 188 122 145 242 221 72
3 145 122 154 242 221 72
3 145 154 217 242 221 72
3 217 154 227 242 221 72
3 227 154 168 242 221 72
3 227 168 189 242 221 72
3 227 189 220 242 221 72
3 227 220 228 242 221 72
3 228 220 221 242 221 72
3 221 220 198 242 221 72
3 221 198 219 242 221 72
3 219 198 182 242 221 72
3 219 182 209 242 221 72
3 209 182 185 242 221 72
3 185 182 152 242 221 72
3 152 182 119 242 221 72
3 185 152 188 242 221 72
3 185 188 232 242 221 72
3 232 188 207 242 221 72
3 207 188 145 242 221 72
3 207 145 217 242 221 72
3 207 217 256 242 221 72
3 256 217 231 242 221 72
3 231 217 227 242 221 72
3 231 227 228 242 221 72
3 231 228 283 127 20 204
3 283 228 280 127 20 204
3 280 228 221 127 20 204
3 280 221 278 127 20 204
3 278 221 237 127 20 204
3 237 221 219 242 221 72
3 237 219 209 242 221 72
3 237 209 238 127 20 204
3 238 209 232 127 20 204
3 232 209 185 242 221 72
3 238 232 252 127 20 204
3 252 232 250 127 20 204
3 250 232 207 127 20 204
3 250 207 290 127 20 204
3 290 207 256 127 20 204
3 290 256 283 127 20 204
3 283 256 231 127 20 204
3 290 283 308 127 20 204
3 308 283 311 127 20 204
3 311 283 280 127 20 204
3 311 280 303 127 20 204
3 303 280 278 127 20 204
3 303 278 238 127 20 204
3 238 278 237 127 20 204
3 303 238 300 127 20 204
3 300 238 285 127 20 204
3 285 238 252 127 20 204
3 285 252 287 127 20 204
3 287 252 250 127 20 204
3 287 250 290 127 20 204
3 287 290 308 127 20 204
3 287 308 318 127 20 204
3 318 308 336 127 20 204
3 336 308 323 127 20 204
3 323 308 311 127 20 204
3 323 311 337 127 20 204
3 337 311 303 127 20 204
3 337 303 326 127 20 204
3 326 303 300 127 20 204
3 326 300 335 127 20 204
3 335 300 332 127 20 204
3 332 300 284 127 20 204
3 284 300 285 127 20 204
3 284 285 287 127 20 204
3 284 287 318 127 20 204
3 284 318 332 127 20 204
3 332 318 336 127 20 204
3 332 336 347 127 20 204
3 347 336 369 127 20 204
3 369 336 359 127 20 204
3 359 336 350 127 20 204
3 350 336 323 127 20 204
3 350 323 337 127 20 204
3 350 337 393 127 20 204
3 393 337 344 127 20 204
3 344 337 326 127 20 204
3 344 326 335 127 20 204
3 344 335 385 127 20 204
3 385 335 347 127 20 204
3 347 335 332 127 20 204
3 385 347 383 48 242 105
3 383 347 369 48 242 105
3 383 369 414 48 242 105
3 414 369 381 48 242 105
3 381 369 359 48 242 105
3 381 359 393 48 242 105
3 393 359 350 127 20 204
3 381 393 399 48 242 105
3 399 393 400 48 242 105
3 400 393 386 48 242 105
3 386 393 344 48 242 105
3 386 344 390 48 242 105
3 390 344 385 48 242 105
3 390 385 430 48 242 105
3 430 385 380 48 242 105
3 380 385 383 48 242 105
3 380 383 409 48 242 105
3 409 383 410 48 242 105
3 410 383 392 48 242 105
3 392 383 414 48 242 105
3 392 414 418 48 242 105
3 418 414 415 48 242 105
3 415 414 381 48 242 105
3 415 381 402 48 242 105
3 402 381 410 48 242 105
3 410 381 399 48 242 105
3 410 399 425 48 242 105
3 425 399 400 48 242 105
3 425 400 429 48 242 105
3 429 400 416 48 242 105
3 416 400 390 48 242 105
3 390 400 386 48 242 105
3 416 390 406 48 242 105
3 406 390 430 48 242 105
3 406 430 429 48 242 105
3 429 430 442 48 242 105
3 442 430 452 48 242 105
3 452 430 729 48 242 105
3 729 430 412 48 242 105
3 412 430 380 48 242 105
3 412 380 413 48 242 105
3 413 380 409 48 242 105
3 413 409 451 48 242 105
3 451 409 725 48 242 105
3 725 409 425 48 242 105
3 425 409 410 48 242 105
3 725 425 727 48 242 105
3 727 425 440 48 242 105
3 440 425 442 48 242 105
3 442 425 429 48 242 105
3 440 442 728 48 242 105
3 728 442 726 48 242 105
3 726 442 452 48 242 105
3 726 452 729 48 242 105
3 726 729 728 48 242 105
3 728 729 412 48 242 105
3 728 412 432 48 242 105
3 432 412 440 48 242 105
3 440 412 727 48 242 105
3 727 412 413 48 242 105
3 727 413 451 48 242 105
3 727 451 725 48 242 105
3 432 440 443 48 242 105
3 443 440 446 48 242 105
3 446 440 728 48 242 105
3 446 728 466 48 242 105
3 466 728 432 48 242 105
3 466 432 443 48 242 105
3 466 443 446 48 242 105
3 406 429 441 48 242 105
3 441 429 416 48 242 105
3 441 416 434 48 242 105
3 434 416 406 48 242 105
3 434 406 441 48 242 105
3 402 410 392 48 242 105
3 402 392 418 48 242 105
3 402 418 415 48 242 105
3 103 85 111 242 221 72
3 103 111 116 242 221 72
3 116 111 146 242 221 72
3 146 111 121 242 221 72
3 146 121 124 242 221 72
3 146 124 183 242 221 72
3 183 124 210 242 221 72
3 210 124 175 242 221 72
3 210 175 192 242 221 72
3 210 192 245 242 221 72
3 245 192 195 242 221 72
3 245 195 258 242 221 72
3 258 195 244 242 221 72
3 258 244 266 242 221 72
3 266 244 257 242 221 72
3 257 244 223 242 221 72
3 257 223 213 242 221 72
3 213 223 174 242 221 72
3 213 174 199 242 221 72
3 199 174 134 242 221 72
3 199 134 214 242 221 72
3 214 134 183 242 221 72
3 183 134 146 242 221 72
3 146 134 116 242 221 72
3 214 183 210 242 221 72
3 214 210 226 242 221 72
3 226 210 275 127 20 204
3 275 210 245 242 221 72
3 275 245 270 127 20 204
3 270 245 258 242 221 72
3 270 258 266 127 20 204
3 270 266 296 127 20 204
3 296 266 257 127 20 204
3 296 257 291 127 20 204
3 291 257 264 127 20 204
3 264 257 234 127 20 204
3 234 257 213 242 221 72
3 234 213 199 242 221 72
3 234 199 214 242 221 72
3 234 214 274 242 221 72
3 274 214 226 127 20 204
3 274 226 255 127 20 204
3 255 226 260 127 20 204
3 260 226 275 127 20 204
3 260 275 324 127 20 204
3 324 275 320 127 20 204
3 320 275 270 127 20 204
3 320 270 296 127 20 204
3 320 296 338 127 20 204
3 338 296 319 127 20 204
3 319 296 291 127 20 204
3 319 291 307 127 20 204
3 307 291 305 127 20 204
3 305 291 264 127 20 204
3 305 264 274 127 20 204
3 274 264 234 127 20 204
3 305 274 293 127 20 204
3 293 274 255 127 20 204
3 293 255 260 127 20 204
3 293 260 315 127 20 204
3 315 260 324 127 20 204
3 315 324 327 127 20 204
3 327 324 320 127 20 204
3 327 320 358 127 20 204
3 358 320 338 127 20 204
3 358 338 370 127 20 204
3 370 338 319 127 20 204
3 370 319 343 127 20 204
3 343 319 307 127 20 204
3 343 307 322 127 20 204
3 322 307 305 127 20 204
3 322 305 293 127 20 204
3 322 293 315 127 20 204
3 322 315 345 127 20 204
3 345 315 327 127 20 204
3 345 327 382 127 20 204
3 382 327 353 127 20 204
3 353 327 358 127 20 204
3 353 358 395 127 20 204
3 395 358 378 127 20 204
3 378 358 370 127 20 204
3 378 370 371 48 242 105
3 371 370 717 48 242 105
3 717 370 373 48 242 105
3 373 370 356 127 20 204
3 356 370 343 127 20 204
3 356 343 375 127 20 204
3 375 343 322 127 20 204
3 375 322 345 127 20 204
3 375 345 382 127 20 204
3 375 382 397 48 242 105
3 397 382 407 48 242 105
3 407 382 719 48 242 105
3 719 382 456 48 242 105
3 456 382 724 48 242 105
3 724 382 403 48 242 105
3 403 382 353 48 242 105
3 403 353 395 48 242 105
3 403 395 408 48 242 105
3 408 395 378 48 242 105
3 408 378 371 48 242 105
3 408 371 438 48 242 105
3 438 371 717 48 242 105
3 438 717 435 48 242 105
3 435 717 420 48 242 105
3 420 717 407 48 242 105
3 407 717 397 48 242 105
3 397 717 417 48 242 105
3 417 717 391 48 242 105
3 391 717 373 48 242 105
3 391 373 387 48 242 105
3 387 373 356 48 242 105
3 387 356 375 48 242 105
3 387 375 397 48 242 105
3 387 397 391 48 242 105
3 391 397 417 48 242 105
3 420 407 424 48 242 105
3 424 407 721 48 242 105
3 721 407 723 48 242 105
3 723 407 719 48 242 105
3 723 719 462 48 242 105
3 462 719 720 48 242 105
3 720 719 722 48 242 105
3 722 719 444 48 242 105
3 444 719 470 48 242 105
3 470 719 456 48 242 105
3 470 456 475 48 242 105
3 475 456 461 48 242 105
3 461 456 444 48 242 105
3 444 456 724 48 242 105
3 444 724 408 48 242 105
3 408 724 718 48 242 105
3 718 724 460 48 242 105
3 460 724 403 48 242 105
3 460 403 408 48 242 105
3 460 408 436 48 242 105
3 436 408 718 48 242 105
3 436 718 460 48 242 105
3 444 408 438 48 242 105
3 444 438 722 48 242 105
3 722 438 723 48 242 105
3 723 438 721 48 242 105
3 721 438 435 48 242 105
3 721 435 450 48 242 105
3 450 435 420 48 242 105
3 450 420 465 48 242 105
3 465 420 424 48 242 105
3 465 424 455 48 242 105
3 455 424 721 48 242 105
3 455 721 450 48 242 105
3 455 450 465 48 242 105
3 722 723 730 48 242 105
3 730 723 462 48 242 105
3 730 462 477 48 242 105
3 477 462 720 48 242 105
3 477 720 730 48 242 105
3 730 720 722 48 242 105
3 461 444 470 48 242 105
3 461 470 475 48 242 105
