ply
format ascii 1.0
element vertex 752
property float x
property float y
property float z
element face 1500
property list uchar int vertex_indices
property uchar red
property uchar green
property uchar blue
end_header
-0.155196 -0.051934 0.363439
-0.164346 0.000819 0.511288
-0.136021 -0.031672 -0.794739
-0.030359 -0.078763 0.302042
-0.10017 -0.056299 0.291647
-0.115904 0.025037 0.341805
-0.055293 -0.022928 0.654468
0.140152 0.05701 0.008562
0.000855 -0.098759 0.511466
0.136836 0.000474 -0.495925
-0.105531 0.010213 0.278269
-0.147995 -0.115103 -0.901861
0.019686 -0.090571 0.554348
-0.11084 -0.089559 0.388201
0.301443 0.030113 -0.012418
-0.029205 0.096021 0.466844
-0.061501 -0.027822 0.774699
0.00288 0.115772 0.648012
0.193573 -0.062572 0.526469
0.11531 0.075633 -0.181827
-0.03953 0.000929 -0.317569
-0.154646 -0.082687 -0.481489
-0.02116 0.08085 0.285665
0.091278 0.068954 -0.270303
-0.136033 0.000473 -0.49555
-0.334964 0.08655 -0.041395
-0.128594 -0.098262 0.511087
0.111316 -0.089478 0.388386
-0.337162 0.048296 -0.119311
-0.082439 -0.067189 -0.433844
0.020901 -0.079872 -0.030398
-0.002785 0.038729 0.519218
0.307342 0.067768 0.015898
-0.143536 -0.047012 -0.39937
-0.028003 -0.01353 -0.25795
0.136596 -0.031945 -0.795597
0.007332 0.102463 0.589425
-0.148602 0.042639 0.439711
0.093357 -0.055222 0.278394
0.055768 -0.023765 -0.386879
0.033162 0.068743 0.493262
-0.155039 -0.018484 -0.358504
-0.098177 -0.103297 -0.15684
0.099444 -0.047948 -0.780759
0.359471 0.084263 -0.097816
0.107904 0.00422 0.286602
0.087942 0.025319 0.216389
-0.349607 0.116246 -0.109465
0.274029 -0.002491 0.077441
0.291914 -0.016471 0.14691
-0.153471 -0.080507 0.409463
-0.118911 -0.088731 -0.97792
0.113292 -0.035835 -0.779997
7.5e-05 0.021555 0.819054
-0.148735 -0.120323 -0.781146
-0.165876 -0.096004 -0.838928
0.128443 0.118685 -0.966033
0.155703 -0.006314 0.524892
-0.30177 0.08436 -0.049288
0.117421 0.157346 0.413376
0.143855 -0.009331 0.381586
-0.100325 -0.062783 -0.812545
-0.171991 -0.062616 0.354059
0.146895 0.014568 0.493533
-0.354349 0.072889 -0.137114
0.052947 0.018088 0.544398
-0.295135 0.074179 0.005459
0.155741 -0.083628 -0.484002
-0.203798 0.01122 0.364539
-0.079391 0.012927 0.690852
0.032933 -0.079213 0.303923
-0.018987 0.078815 0.094352
-0.059735 0.064136 -0.108402
-0.254707 0.045522 0.074495
-0.254605 0.015527 0.075945
-0.161851 -0.10325 -0.87646
0.113777 -0.088682 -0.97792
0.15844 -0.024985 -0.971479
-0.094944 0.069788 -0.014608
0.051609 -0.012002 0.797454
0.107045 0.013665 -0.464121
0.084402 -0.000621 -0.464246
0.068697 0.015858 -0.410246
0.08333 0.048926 -0.356045
0.099706 0.039462 -0.401153
-0.153409 -0.0436 -0.817691
-0.120562 -0.02217 -0.7364
-0.142468 -0.0361 -0.847028
-0.147686 -0.029164 -0.894788
-0.157937 -0.043216 -0.896046
-0.167552 -0.051746 -0.77687
0.039312 0.061127 0.589185
0.063165 0.0317 0.625356
-0.011895 0.08004 0.568878
0.13455 -0.069665 -0.437188
0.150017 -0.039094 -0.444043
0.108368 -0.113649 -0.494293
-0.330383 0.10788 -0.094067
0.04164 0.053873 0.801645
0.171109 0.021203 -0.924514
0.183716 -0.0122 -0.949826
-0.018527 -0.085122 0.117987
-0.042598 -0.123693 0.08812
-0.072116 -0.136535 0.058982
0.12064 0.046684 -0.931518
0.128804 0.014283 -0.432124
0.085414 -0.069362 -0.432616
0.116452 -0.065871 -0.395476
0.06675 -0.057368 -0.367433
0.068733 -0.084243 -0.491021
-0.190742 -0.024961 0.530724
-0.126548 -0.012776 0.541639
-0.136147 0.019399 0.511319
-0.194853 -0.061636 0.526412
-0.060077 -0.073279 0.166109
-0.080041 -0.071793 0.168281
0.150257 -0.045689 -0.342755
0.133234 -0.061659 -0.350508
0.121139 0.006815 -0.465111
0.144888 -0.04206 -0.398379
0.168842 -0.034325 -0.28795
0.163052 -0.056147 -0.240223
0.143078 -0.068118 -0.298592
-0.047835 0.023233 0.54225
-0.047141 0.00297 0.557117
-0.033627 0.016763 0.588508
-0.143139 -0.052929 0.097803
-0.144565 -0.022305 0.101295
-0.166973 -0.059731 -0.010482
-0.154913 -0.086103 -0.03958
-0.136862 -0.102371 0.04053
-0.176255 -0.029384 -0.028135
-0.180157 -0.041729 -0.100328
0.145121 0.105614 0.413715
0.10291 -0.079306 -0.962183
0.109389 -0.09956 -0.917352
0.11348 -0.035454 -0.956179
-0.059752 -0.068661 0.270489
-0.09338 -0.051734 0.264714
-0.102027 -0.04003 0.161708
-0.095441 -0.035045 0.191171
-0.057248 -0.065408 0.216247
0.000123 -0.090241 0.387969
-0.06861 -0.101032 0.415459
-0.099713 -0.101902 0.417736
-0.082542 -0.092616 0.359743
-0.090221 -0.081117 0.333306
-0.110242 -0.06956 0.339931
-0.104381 -0.034537 0.269724
-0.157387 0.041491 -0.923172
-0.176072 0.115373 -0.953823
-0.268593 -0.031486 0.222749
-0.301837 -0.00141 0.131826
-0.292359 -0.003958 0.09491
-0.273858 -0.027869 0.14881
-0.239508 -0.017656 0.125107
-0.233007 -0.047304 0.222012
-0.084947 -0.066692 0.558563
-0.309188 0.03897 0.085751
-0.315105 0.047015 0.006899
-0.309441 0.026982 0.058838
-0.307048 0.029725 -0.007921
-0.270911 -0.002736 0.079785
-0.1308 -0.015866 0.348455
-0.148512 0.060269 0.40915
-0.145323 0.064819 0.389333
-0.169853 0.013786 -0.023276
-0.16899 0.033968 -0.097736
-0.182655 -0.006633 -0.115253
-0.267398 -0.015841 0.258158
-0.347089 0.040121 -0.131768
0.033476 0.069515 0.164706
-0.032376 0.070722 0.161807
-0.035909 0.069218 0.22073
0.000987 0.071557 0.195692
0.012216 0.024167 0.585935
0.016632 0.029701 0.601171
-0.026616 -0.087133 0.560703
-0.035195 -0.065866 0.582581
-0.037328 -0.053702 0.650343
-0.072876 -0.040092 0.720593
-0.047237 -3.3e-05 0.608704
-0.043209 -0.039513 0.597148
0.013504 -0.089222 0.729967
-0.012952 -0.087404 0.701284
0.044038 -0.076879 0.713973
-0.132769 0.032772 0.077831
-0.34301 0.094412 -0.108506
-0.35508 0.109546 -0.115418
-0.321193 0.030171 -0.075568
0.148172 0.113965 -0.948031
0.115345 0.099139 -0.942984
0.097584 0.092232 -0.967816
0.214597 0.065167 -0.960909
0.199517 0.095873 -0.973737
0.206 0.026831 -0.969867
0.196087 0.054244 -0.977506
0.000274 -0.075253 0.053282
0.013264 -0.107078 0.018534
0.018066 -0.116683 0.052167
0.048878 -0.122655 0.099421
0.112129 0.07261 -0.9776
0.11727 0.055175 0.059693
0.126427 0.073039 -0.051996
0.098189 0.067101 0.00525
0.071889 0.048374 0.054359
0.133692 0.037669 0.068167
0.132166 -0.012382 0.120604
0.153768 -0.041235 0.066685
0.176556 -0.028997 -0.027039
0.163596 0.013412 0.014832
0.153956 0.052304 -0.032414
-0.094736 -0.094256 0.538368
-0.058463 -0.103917 0.508994
-0.130187 -0.099397 -0.08066
-0.124765 -0.105255 -0.040453
0.078249 -0.095765 -0.19517
0.070121 -0.074133 -0.279031
0.08202 -0.067618 -0.344819
0.10742 -0.071684 -0.329105
0.117608 -0.090814 -0.237818
0.12911 -0.092874 -0.206398
0.100977 -0.102792 -0.16074
0.055209 -0.093297 -0.118089
0.032675 -0.064246 -0.126926
0.053037 -0.078706 -0.197869
0.06913 -0.099564 0.403338
0.045601 -0.103906 0.49254
0.105564 -0.102729 0.506959
0.000209 -0.093968 0.422308
-0.007722 -0.063026 0.198495
0.17166 -0.003032 -0.299428
0.154941 0.010366 -0.345825
0.159611 0.039516 -0.271345
0.144881 0.064361 -0.155411
0.172746 0.019256 -0.229233
0.179366 0.002286 -0.173456
0.175401 -0.056268 -0.124253
0.179506 -0.023171 -0.196492
0.134261 0.039962 -0.341132
0.107304 0.066496 -0.293
0.137843 0.059496 -0.274076
0.04599 -0.04036 0.642973
0.022287 -0.067693 0.616646
0.036186 -0.061728 0.662278
-0.009693 -0.068706 0.650051
-0.005513 -0.075244 0.617335
0.031322 -0.07661 0.576889
0.05215 0.058475 -0.103899
0.037213 0.037386 -0.183884
0.028471 0.014256 -0.103682
0.019963 -0.020274 -0.114594
0.026879 -0.039127 -0.043488
0.052908 0.044515 -0.017294
0.072559 0.066718 -0.037851
0.095725 0.079514 -0.107289
-0.235216 0.050991 0.179437
-0.236699 0.041071 0.226551
-0.191827 -0.00178 0.248453
-0.115015 -0.048167 0.327124
0.161804 -0.016155 -0.498007
-0.105403 0.05628 -0.968489
-0.119838 0.010839 -0.950305
-0.114326 0.087299 -0.94286
-0.06376 -0.036635 0.568061
-0.104453 -0.000854 0.165863
-0.122326 -0.09008 0.105643
-0.111924 0.05356 0.066337
-0.131514 0.061046 0.016613
0.177482 -0.031631 -0.549051
0.059724 0.101309 0.645798
-0.100547 -0.002063 0.224725
-0.087436 0.02652 0.195276
-0.101157 -0.031363 0.230098
-0.070101 0.073754 0.290786
-0.221349 0.031899 0.13239
-0.122814 -0.102579 0.461147
-0.14784 -0.129029 -0.969257
-0.131586 -0.119731 -0.928348
-0.124981 -0.113347 -0.877178
-0.137255 -0.119545 -0.85154
-0.147911 -0.117052 -0.827716
-0.170541 -0.08973 -0.913999
-0.170147 -0.104687 -0.928937
-0.18011 -0.080274 -0.97312
0.19819 0.091557 -0.950775
-0.036182 0.029213 -0.015318
-0.031999 -0.001676 -0.038273
-0.053154 0.044214 -0.013439
-0.039715 0.036885 -0.093884
-0.096088 0.079448 -0.117254
-0.072773 0.067583 -0.045525
-0.070493 0.050701 0.039049
-0.034836 0.064542 0.039817
0.03085 -0.065326 -0.059319
0.024749 -0.04009 -0.163457
0.041446 -0.09324 -0.042313
0.003137 -0.043471 -0.02201
-0.12422 0.116645 -0.96987
-0.132452 0.109917 -0.94582
-0.170024 0.11222 -0.975209
-0.097234 0.05588 0.50118
-0.112865 0.126192 0.451653
-0.186814 0.002087 -0.974762
-0.129855 0.00491 -0.966062
-0.122545 -0.029269 -0.958372
-0.166905 -0.037494 -0.972883
-0.12306 0.063382 -0.977436
-0.141145 -0.095224 0.462744
0.131417 -0.037173 -0.899316
0.144655 0.027513 -0.917217
0.154761 -0.034575 -0.902157
-0.182667 -0.054652 -0.964747
-0.195329 -0.007999 -0.966345
-0.011178 -0.040699 -0.029099
-0.01205 -0.07401 -0.018114
-0.039256 -0.125046 -0.00383
-0.210731 0.089193 -0.97217
-0.201222 0.054194 -0.977506
-0.035181 0.020016 0.610955
-0.071445 0.135524 0.445847
-0.035377 0.127327 0.415218
-0.070361 0.146461 0.382752
-0.123525 0.151148 0.406973
0.286113 0.039936 -0.002927
0.318014 0.047979 0.000638
0.297945 0.014788 0.031766
0.272085 0.01139 0.054539
0.255063 0.019846 0.07345
0.301744 0.035417 -0.041154
-0.015462 -0.046719 0.802364
-0.159876 -0.016765 -0.493646
-0.162794 -0.006771 -0.566615
-0.178871 -0.029653 -0.632974
-0.164784 -0.016129 -0.646824
-0.186133 -0.064733 -0.65339
-0.179303 -0.064664 -0.559179
-0.176889 -0.032292 -0.551876
0.13115 -0.058947 0.547889
0.128979 -0.086663 0.535686
0.063908 -0.037809 0.568714
0.065857 -0.092469 0.546223
0.151786 -0.083672 -0.138977
0.18298 -0.026709 -0.100901
0.161037 -0.078243 -0.047029
0.132858 -0.103322 -0.03594
0.130092 -0.099394 -0.08068
0.035358 0.067289 0.048781
0.043883 0.040476 0.004168
-0.009839 0.059514 -0.009881
0.003659 0.078001 0.058919
0.032873 0.004818 -0.034031
0.014002 0.053708 -0.018942
0.170214 -0.056503 -0.02416
0.177195 0.011243 -0.082725
0.236581 0.041032 0.226576
0.205608 0.025995 0.228804
0.195763 0.008386 0.25157
0.224792 0.0225 0.266902
-0.07082 -0.090331 -0.498974
-0.057362 -0.064372 -0.501925
-0.056407 -0.032121 -0.513842
-0.100045 0.079992 0.353876
-0.046628 0.0997 0.354102
-0.083578 0.079943 0.331184
-0.118053 -0.090734 -0.238071
-0.142845 -0.06824 -0.298072
-0.116926 -0.070894 -0.334759
-0.124164 -0.062908 -0.393847
-0.070402 -0.067989 -0.316777
-0.080273 -0.09559 -0.197357
-0.129492 -0.092992 -0.205511
-0.061747 -0.027409 -0.601228
-0.071126 -0.006533 -0.532133
-0.003681 0.098099 0.415987
-0.11224 -0.106948 -0.957457
-0.108048 -0.079413 -0.962232
-0.111204 -0.095557 -0.857742
-0.171262 -0.002953 -0.29924
-0.151956 0.004655 -0.364546
-0.151609 0.040563 -0.300329
-0.068153 -0.043665 -0.4437
0.095835 0.083044 0.353435
0.059625 0.098212 0.352927
-0.022963 0.106414 0.379401
0.003371 0.094674 0.381817
-0.100716 -0.085279 -0.451088
-0.151992 -0.083628 -0.139907
-0.162946 -0.056111 -0.240278
0.089444 0.130999 0.356043
0.143874 0.098115 0.375684
-0.055355 0.023268 0.7957
-0.05481 0.067354 0.78276
0.011589 0.128145 0.711297
0.238544 -0.0221 0.135532
0.281305 -0.014918 0.111109
0.232889 -0.047342 0.222036
0.215068 -0.032626 0.196881
0.201438 -0.006604 0.187103
0.221233 0.031864 0.132409
-0.350617 0.118292 -0.13266
0.166227 0.039206 -0.122566
0.182267 -0.088406 0.512007
-0.027114 -0.055613 -0.046859
-0.021165 -0.026237 -0.112097
-0.05837 0.101117 0.638754
-0.09967 -0.13335 -0.577573
-0.072468 -0.105863 -0.596543
-0.06182 0.054261 0.185415
-0.059304 0.071235 0.115864
-0.106633 0.040551 0.111943
0.071593 0.070456 -0.188121
0.047845 0.074478 0.105779
-0.080894 -0.11976 0.105623
-0.014725 -0.116431 0.037435
-0.132675 -0.083354 0.442975
-0.144621 0.048009 0.467884
-0.108136 -0.115711 -0.499088
-0.152332 -0.126643 -0.577784
-0.128227 -0.139878 -0.596343
-0.081041 0.033944 0.746779
-0.06328 0.081017 0.708507
-0.028896 0.011178 -0.24091
-0.041999 -0.028656 -0.327115
-0.069222 0.044163 -0.340419
-0.057589 0.050847 -0.26573
-0.133573 -0.046243 -0.888569
-0.11747 -0.069871 -0.89339
-0.082998 -0.00502 -0.462813
-0.101403 0.013712 -0.46456
-0.209046 0.077627 -0.949754
-0.214865 0.033105 -0.9672
0.057363 0.04789 -0.276422
0.081485 0.013629 0.697002
-0.16802 -0.100547 -0.561072
-0.15005 -0.039143 -0.443434
-0.063599 -0.057043 -0.359953
-0.028123 -0.038731 -0.211887
-0.053465 -0.062572 -0.281031
-0.052848 -0.078504 -0.202102
-0.056295 -0.093413 -0.116603
0.282151 -0.00951 0.218845
-0.094864 0.068632 -0.284339
0.032682 0.081156 0.28691
0.03049 0.070951 0.217643
0.099522 0.061666 0.497136
0.072391 0.063276 0.264089
0.063066 0.057074 0.20568
0.050431 0.095403 0.333593
0.083433 0.079937 0.331224
-0.022422 0.117844 0.754275
-0.141888 0.003127 -0.575707
0.080168 -0.103807 -0.078266
-0.035911 -0.083891 0.727467
-0.104962 0.006125 -0.507061
-0.108592 0.001841 -0.605673
-0.133452 -0.013771 -0.699098
-0.188922 -0.012004 -0.949836
0.253774 0.009929 0.268305
0.050118 -0.000174 0.630387
-0.022791 -0.036786 -0.14379
0.306262 0.018481 0.066061
0.309775 0.038007 0.068747
0.301909 0.047028 0.114367
0.30646 0.021683 0.138006
-0.158616 -0.127114 -0.62858
0.007968 -0.005948 -0.040433
0.311313 0.094005 -0.022646
0.297116 0.074288 -0.044757
-0.12059 0.010829 -0.457266
0.099553 -0.102008 0.418153
0.119208 -0.102162 0.449406
0.082814 -0.092688 0.359965
-0.141071 -0.02883 -0.406798
-0.083292 -0.002216 -0.584406
-0.081507 -0.010715 -0.626944
-0.338217 0.042796 -0.058689
-0.348463 0.042655 -0.100275
-0.356091 0.086183 -0.090355
0.048714 -0.055972 -0.268466
-0.173027 -0.104484 -0.978769
-0.168539 -0.034263 -0.287641
-0.148942 -0.047765 -0.341883
-0.182373 -0.088489 0.511469
-0.111814 0.051704 -0.34684
-0.153535 0.048113 -0.009733
0.351514 0.121303 -0.119707
-0.040342 -0.090773 -0.043135
-0.080835 -0.110529 -0.032704
-0.076777 -0.103222 -0.073498
-0.034889 -0.069992 -0.108935
-0.140517 0.106119 0.373396
-0.08956 0.131039 0.356015
0.044533 -0.043745 0.593799
-0.112816 -0.115199 -0.788092
-0.11853 -0.1142 -0.831174
-0.131012 -0.124625 -0.79477
0.080336 -0.11056 -0.032689
0.132076 -0.019173 0.345546
0.133858 0.017653 0.38212
0.12796 -0.069171 0.417224
0.122421 -0.065139 0.370851
0.109669 -0.068531 0.330991
-0.182332 0.022683 -0.92992
-0.132074 -0.020395 -0.915192
0.028403 0.122245 0.416082
0.030317 0.117046 0.383754
0.018082 0.094697 0.458497
-0.341142 0.056487 -0.110838
-0.336726 0.065376 -0.110566
0.090435 -0.081084 0.333123
-0.349396 0.078605 -0.105548
-0.291167 0.03138 -0.003584
-0.295488 0.04734 -0.04711
-0.282582 0.059707 0.004686
-0.356407 0.048739 -0.142404
-0.174823 -0.097393 0.480815
-0.167734 -0.09125 0.42455
-0.088412 -0.065484 -0.395019
-0.056547 -0.028346 -0.391832
0.038798 -0.124751 -0.004249
0.042924 0.017973 0.562194
-0.134626 -0.069606 -0.436967
-0.045237 0.103354 0.698622
0.053959 0.095705 0.694985
0.327786 0.046473 -0.103123
0.0406 0.016486 -0.304925
0.021927 -0.002677 -0.184253
0.034471 -0.017852 -0.29467
-0.075047 0.052849 0.072605
0.356246 0.103069 -0.123331
0.300899 0.054408 0.068553
0.275329 0.059453 0.127962
0.287742 0.070103 0.01942
-0.130517 0.105452 0.452706
-0.357767 0.090701 -0.124884
-0.127947 0.047677 -0.930102
0.191654 -0.02555 0.247191
0.158918 -0.025388 0.345149
0.267489 0.039941 0.212782
0.235097 0.050952 0.179464
0.290123 0.024983 0.193867
-0.074058 0.070513 -0.197509
-0.036879 0.036274 -0.186532
-0.125045 0.073103 -0.14774
-0.113299 0.0748 -0.188757
-0.090424 -0.130124 0.014184
-0.115928 -0.120285 0.045112
-0.157143 0.049066 -0.225784
-0.137407 0.059544 -0.273815
-0.179462 0.002306 -0.17347
-0.172745 0.019324 -0.228223
0.104644 -0.033325 0.267856
0.1024 -0.02897 0.227881
0.261002 0.05745 0.101549
0.15519 -0.013179 -0.362893
0.344349 0.046137 -0.073149
-0.355449 0.101475 -0.123425
0.336488 0.092956 -0.102214
-0.021568 -0.001608 -0.174754
0.156558 -0.104894 -0.874899
0.164207 -0.092267 -0.853102
0.164948 -0.104604 -0.928764
0.163182 -0.089547 -0.908951
0.174311 -0.078585 -0.788353
0.171218 -0.096462 -0.7868
0.16648 -0.111463 -0.73373
0.147319 -0.117967 -0.818866
0.132802 -0.120172 -0.881545
0.125871 -0.121814 -0.939302
0.142705 -0.128978 -0.969256
0.352739 0.083984 -0.11511
0.207169 -0.04956 0.259171
0.142817 -0.03555 -0.866122
0.122 -0.041121 -0.82313
0.152624 -0.043581 -0.818311
0.156652 -0.053564 -0.897054
0.114104 -0.055098 -0.850277
-0.013255 0.033519 -0.034127
-0.123673 0.029177 -0.408603
-0.179546 -0.023152 -0.196512
-0.175617 -0.056027 -0.125194
0.096169 0.048116 0.089822
-0.148677 0.098004 0.406614
-0.208186 -0.072282 0.39611
-0.220257 -0.051162 0.421416
-0.209825 -0.029541 0.484993
0.060097 -0.068689 0.270444
0.101888 -0.00225 0.177164
0.059441 0.124542 0.453218
-0.070792 0.015989 -0.414567
-0.092094 0.044521 -0.382385
0.258381 0.0463 0.067432
-0.155917 -0.032247 0.353741
-0.161327 -0.011292 0.352292
-0.154414 -0.01074 0.370753
-0.167986 -0.029054 0.313671
-0.167484 0.004652 0.390015
-0.172233 0.009446 0.407131
0.074187 -0.03263 0.710233
0.067784 -0.034294 0.759774
-0.260856 0.057781 0.108855
0.102134 0.003697 -0.578035
0.068275 -0.012552 -0.567233
0.105906 0.006085 -0.507231
0.133348 0.005457 -0.560322
0.089725 -0.063106 0.166042
0.095291 -0.034896 0.191228
0.059457 -0.073077 0.166672
0.109847 -0.077336 -0.902986
0.102373 -0.078229 -0.846494
0.093432 -0.062882 -0.779248
0.147316 -0.126064 -0.722855
0.181076 -0.094017 -0.62598
0.163877 -0.124306 -0.639293
0.10011 -0.131971 -0.623626
0.081008 -0.002587 -0.488255
0.339167 0.099814 -0.05874
0.328391 0.079359 -0.022859
0.117885 0.019877 0.125303
0.075816 0.050559 0.168137
0.10646 -0.116687 -0.743399
0.126083 -0.124185 -0.785721
0.332613 0.109986 -0.097846
-0.091495 -0.036275 -0.726581
-0.124249 -0.041688 -0.821343
-0.105193 -0.070624 -0.84571
0.167067 -0.021387 -0.666481
0.168046 -0.061124 -0.811281
0.181482 -0.034113 -0.643253
0.177274 -0.069787 -0.761887
-0.314357 0.096724 -0.02922
-0.326524 0.113661 -0.064078
0.187444 -0.07075 -0.659913
0.097503 -0.100176 0.125627
0.346692 0.118013 -0.128509
0.107704 -0.099373 -0.85155
0.077539 -0.108722 -0.614972
0.079262 -0.083047 -0.69061
0.096522 -0.089623 -0.795371
0.116774 -0.114434 -0.831937
-0.180006 -0.094019 -0.625997
-0.171584 -0.108097 -0.692875
-0.163145 -0.113343 -0.739328
-0.125569 -0.127675 -0.743457
-0.099241 -0.13191 -0.622509
0.200667 0.008539 0.383903
0.060985 -0.066943 -0.615003
0.064868 -0.053097 -0.640019
0.248075 -0.020069 0.335263
0.217696 -0.050475 0.434852
0.231572 -0.047565 0.378426
0.20762 -0.072784 0.399214
0.257339 -0.039651 0.246423
0.174798 -0.073768 -0.953334
-0.172324 -0.091111 -0.788981
-0.19868 0.0155 0.258216
0.345802 0.062112 -0.120902
-0.194226 0.009621 0.398103
-0.197411 0.00347 0.424879
-0.212155 -0.01836 0.429878
-0.193162 -0.001961 0.47486
0.166872 0.118447 -0.972347
0.347355 0.044549 -0.134602
0.332615 0.031644 -0.087023
0.150665 -0.022157 0.367637
0.167404 -0.001029 0.365328
0.070244 0.146423 0.382782
-0.106292 -0.119094 -0.721369
0.216424 -0.066305 0.349557
0.118933 -0.020332 -0.726609
0.35552 0.054795 -0.115509
-0.173896 -0.068383 -0.788751
-0.166031 -0.062733 -0.851463
-0.188078 -0.072566 0.36739
-0.192653 -0.02928 0.249563
0.120103 0.135128 0.44203
-0.224913 0.022537 0.266877
0.18881 -0.073256 0.371617
0.167962 -0.057275 0.348174
-0.245817 -0.048762 0.281333
0.12109 -0.011597 0.543202
0.183264 -0.026422 0.531896
-0.296295 0.050012 0.130056
-0.298327 0.057322 0.061797
-0.282331 0.062045 0.074312
-0.307475 0.067771 0.015376
-0.275976 0.025968 0.222964
-0.2998 0.006279 0.171918
-0.268007 0.055684 0.167168
0.231632 -0.000765 0.355436
0.122117 -0.117059 0.044285
0.090976 -0.130161 0.01434
-0.061132 0.0374 0.619633
0.204333 -0.003843 0.433514
0.025113 -0.07083 0.771409
0.167613 -0.091289 0.424575
0.354592 0.107973 -0.111578
0.154985 0.004237 0.403646
-0.356785 0.063878 -0.123043
0.055035 -0.043285 -0.565221
0.081185 -0.116651 -0.570809
0.057831 -0.073499 -0.558748
0.153399 -0.126638 -0.577754
0.129467 -0.139844 -0.596322
0.169027 -0.100444 -0.560453
0.108407 -0.134526 -0.571955
0.145176 0.006239 0.472577
0.15723 0.009821 0.447299
0.177585 0.013939 0.430737
-0.212127 -0.037065 0.213787
0.17294 -0.069305 -0.973006
0.188766 -0.004681 -0.974035
0.134282 0.020121 0.511681
0.181611 0.003786 0.495091
0.164056 -0.007074 -0.58036
0.180231 -0.064484 -0.557898
0.072478 -0.024418 -0.63969
0.057708 -0.031619 -0.506229
0.067728 -0.042591 -0.442422
-0.099263 -0.090031 -0.797078
-0.079051 -0.082755 -0.688727
-0.004076 0.086012 0.799991
0.143808 -0.011212 -0.666284
0.093776 -0.007652 -0.639108
-0.248783 -0.01839 0.333624
0.143699 -0.044555 0.377004
-0.056066 -0.058126 -0.60245
-0.085126 -0.052859 -0.726854
0.136267 -0.0643 0.404072
0.11096 0.05513 0.354987
0.146914 0.043841 0.408232
0.138207 -0.092004 0.068488
0.138133 -0.060562 0.101923
0.072741 -0.136492 0.059316
0.019887 -0.083678 0.122376
0.1726 -0.097365 0.483684
0.137997 -0.091167 0.451615
0.13282 0.098328 0.45484
0.14872 0.031313 0.462293
-0.255652 0.009322 0.267461
0.05766 -0.065218 0.21602
0.167893 -0.104433 -0.978769
0.324374 0.114801 -0.060023
0.08033 0.041513 0.750587
0.045641 0.097676 0.765577
-0.201557 -0.006563 0.187071
0.111699 0.019282 -0.959799
-0.139236 0.068942 -0.100519
0.111715 -0.117086 -0.967961
0.207243 -0.027232 0.488294
-0.11803 0.074324 -0.045043
3 81 84 80 242 24 142
3 80 84 118 242 24 142
3 118 84 105 242 24 142
3 105 84 239 242 24 142
3 239 84 83 242 24 142
3 83 84 82 242 24 142
3 82 84 81 242 24 142
3 82 81 39 242 24 142
3 39 81 719 242 24 142
3 719 81 616 96 204 61
3 616 81 80 96 204 61
3 616 80 604 96 204 61
3 604 80 9 96 204 61
3 9 80 118 96 204 61
3 9 118 95 96 204 61
3 95 118 119 242 24 142
3 119 118 105 242 24 142
3 119 105 555 242 24 142
3 555 105 232 242 24 142
3 232 105 239 242 24 142
3 232 239 233 242 24 142
3 233 239 241 242 24 142
3 241 239 240 242 24 142
3 240 239 83 242 24 142
3 240 83 23 242 24 142
3 23 83 432 242 24 142
3 432 83 526 242 24 142
3 526 83 82 242 24 142
3 526 82 39 242 24 142
3 526 39 528 242 24 142
3 528 39 108 242 24 142
3 108 39 719 242 24 142
3 108 719 106 242 24 142
3 106 719 109 96 204 61
3 109 719 718 96 204 61
3 718 719 616 96 204 61
3 718 616 603 96 204 61
3 603 616 602 96 204 61
3 602 616 604 96 204 61
3 602 604 605 96 204 61
3 605 604 9 96 204 61
3 605 9 715 96 204 61
3 715 9 260 96 204 61
3 260 9 95 96 204 61
3 260 95 269 96 204 61
3 269 95 67 96 204 61
3 67 95 94 96 204 61
3 94 95 119 242 24 142
3 94 119 107 242 24 142
3 107 119 117 242 24 142
3 117 119 116 242 24 142
3 116 119 555 242 24 142
3 116 555 120 242 24 142
3 120 555 231 242 24 142
3 231 555 232 242 24 142
3 231 232 233 242 24 142
3 231 233 235 242 24 142
3 235 233 401 242 24 142
3 401 233 234 242 24 142
3 234 233 241 242 24 142
3 234 241 19 242 24 142
3 19 241 240 242 24 142
3 19 240 23 242 24 142
3 19 23 411 242 24 142
3 411 23 432 242 24 142
3 411 432 249 242 24 142
3 249 432 526 242 24 142
3 249 526 527 242 24 142
3 527 526 528 242 24 142
3 527 528 295 242 24 142
3 295 528 479 242 24 142
3 479 528 108 242 24 142
3 479 108 217 242 24 142
3 217 108 218 242 24 142
3 218 108 107 242 24 142
3 107 108 106 242 24 142
3 107 106 94 242 24 142
3 94 106 96 96 204 61
3 96 106 109 96 204 61
3 96 109 701 96 204 61
3 701 109 702 96 204 61
3 702 109 718 96 204 61
3 702 718 700 96 204 61
3 700 718 603 96 204 61
3 700 603 717 96 204 61
3 717 603 724 96 204 61
3 724 603 602 96 204 61
3 724 602 723 96 204 61
3 723 602 605 96 204 61
3 723 605 715 96 204 61
3 723 715 627 96 204 61
3 627 715 629 96 204 61
3 629 715 269 96 204 61
3 269 715 260 96 204 61
3 629 269 633 96 204 61
3 633 269 716 96 204 61
3 716 269 67 96 204 61
3 716 67 705 96 204 61
3 705 67 703 96 204 61
3 703 67 96 96 204 61
3 96 67 94 96 204 61
3 703 96 704 96 204 61
3 704 96 706 96 204 61
3 706 96 701 96 204 61
3 706 701 615 96 204 61
3 615 701 637 96 204 61
3 637 701 702 96 204 61
3 637 702 647 96 204 61
3 647 702 700 96 204 61
3 647 700 648 96 204 61
3 648 700 717 96 204 61
3 648 717 611 96 204 61
3 611 717 43 96 204 61
3 43 717 52 96 204 61
3 52 717 724 96 204 61
3 52 724 670 96 204 61
3 670 724 723 96 204 61
3 670 723 35 96 204 61
3 35 723 627 96 204 61
3 35 627 575 96 204 61
3 575 627 628 96 204 61
3 628 627 629 96 204 61
3 628 629 630 96 204 61
3 630 629 633 96 204 61
3 630 633 565 96 204 61
3 565 633 614 96 204 61
3 614 633 613 96 204 61
3 613 633 716 96 204 61
3 613 716 705 96 204 61
3 613 705 703 96 204 61
3 613 703 614 96 204 61
3 614 703 704 96 204 61
3 614 704 612 96 204 61
3 612 704 622 96 204 61
3 622 704 615 96 204 61
3 615 704 706 96 204 61
3 622 615 621 96 204 61
3 621 615 637 96 204 61
3 621 637 638 96 204 61
3 638 637 647 96 204 61
3 638 647 648 96 204 61
3 638 648 611 96 204 61
3 638 611 639 96 204 61
3 639 611 610 96 204 61
3 610 611 577 96 204 61
3 577 611 43 96 204 61
3 577 43 574 96 204 61
3 574 43 52 96 204 61
3 574 52 35 96 204 61
3 35 52 670 96 204 61
3 574 35 575 96 204 61
3 574 575 573 96 204 61
3 573 575 628 96 204 61
3 573 628 576 96 204 61
3 576 628 564 96 204 61
3 564 628 630 96 204 61
3 564 630 565 96 204 61
3 564 565 561 96 204 61
3 561 565 567 96 204 61
3 567 565 566 96 204 61
3 566 565 614 96 204 61
3 566 614 612 96 204 61
3 566 612 567 96 204 61
3 567 612 622 96 204 61
3 567 622 640 96 204 61
3 640 622 621 96 204 61
3 640 621 639 96 204 61
3 639 621 638 96 204 61
3 640 639 610 96 204 61
3 640 610 636 96 204 61
3 636 610 609 96 204 61
3 609 610 577 96 204 61
3 609 577 309 56 48 242
3 309 577 573 96 204 61
3 573 577 574 96 204 61
3 309 573 310 56 48 242
3 310 573 311 56 48 242
3 311 573 576 56 48 242
3 311 576 654 56 48 242
3 654 576 563 56 48 242
3 563 576 561 96 204 61
3 561 576 564 96 204 61
3 563 561 560 96 204 61
3 560 561 567 96 204 61
3 560 567 568 96 204 61
3 568 567 640 96 204 61
3 568 640 636 96 204 61
3 568 636 135 56 48 242
3 135 636 609 56 48 242
3 135 609 134 56 48 242
3 134 609 136 56 48 242
3 136 609 309 56 48 242
3 136 309 747 56 48 242
3 747 309 104 56 48 242
3 104 309 310 56 48 242
3 104 310 191 56 48 242
3 191 310 190 56 48 242
3 190 310 285 56 48 242
3 285 310 99 56 48 242
3 99 310 311 56 48 242
3 99 311 100 56 48 242
3 100 311 654 56 48 242
3 100 654 711 56 48 242
3 711 654 742 56 48 242
3 742 654 562 56 48 242
3 562 654 563 56 48 242
3 562 563 568 56 48 242
3 568 563 560 56 48 242
3 562 568 569 56 48 242
3 569 568 135 56 48 242
3 569 135 749 56 48 242
3 749 135 134 56 48 242
3 749 134 76 56 48 242
3 76 134 136 56 48 242
3 76 136 77 56 48 242
3 77 136 747 56 48 242
3 77 747 201 56 48 242
3 201 747 192 56 48 242
3 192 747 191 56 48 242
3 191 747 104 56 48 242
3 192 191 56 56 48 242
3 56 191 190 56 48 242
3 56 190 662 56 48 242
3 662 190 285 56 48 242
3 662 285 194 56 48 242
3 194 285 193 56 48 242
3 193 285 99 56 48 242
3 193 99 100 56 48 242
3 193 100 195 56 48 242
3 195 100 712 56 48 242
3 712 100 711 56 48 242
3 712 711 77 56 48 242
3 77 711 742 56 48 242
3 77 742 76 56 48 242
3 76 742 570 56 48 242
3 570 742 562 56 48 242
3 570 562 569 56 48 242
3 570 569 749 56 48 242
3 570 749 76 56 48 242
3 712 77 201 56 48 242
3 712 201 196 56 48 242
3 196 201 662 56 48 242
3 662 201 56 56 48 242
3 56 201 192 56 48 242
3 196 662 194 56 48 242
3 196 194 193 56 48 242
3 196 193 195 56 48 242
3 196 195 712 56 48 242
3 218 107 219 242 24 142
3 219 107 117 242 24 142
3 219 117 220 242 24 142
3 220 117 122 242 24 142
3 122 117 116 242 24 142
3 122 116 120 242 24 142
3 122 120 121 242 24 142
3 121 120 237 242 24 142
3 237 120 238 242 24 142
3 238 120 231 242 24 142
3 238 231 236 242 24 142
3 236 231 235 242 24 142
3 236 235 354 242 24 142
3 354 235 401 242 24 142
3 354 401 211 242 24 142
3 211 401 234 242 24 142
3 211 234 203 242 24 142
3 203 234 19 242 24 142
3 203 19 255 242 24 142
3 255 19 411 242 24 142
3 255 411 248 242 24 142
3 248 411 249 242 24 142
3 248 249 250 242 24 142
3 250 249 527 242 24 142
3 250 527 251 242 24 142
3 251 527 295 242 24 142
3 251 295 294 242 24 142
3 294 295 224 242 24 142
3 224 295 479 242 24 142
3 224 479 225 242 24 142
3 225 479 217 242 24 142
3 225 217 216 242 24 142
3 216 217 219 242 24 142
3 219 217 218 242 24 142
3 216 219 220 242 24 142
3 216 220 222 242 24 142
3 222 220 221 242 24 142
3 221 220 122 242 24 142
3 221 122 342 242 24 142
3 342 122 121 242 24 142
3 342 121 237 242 24 142
3 342 237 344 242 24 142
3 344 237 353 242 24 142
3 353 237 343 242 24 142
3 343 237 238 242 24 142
3 343 238 236 242 24 142
3 343 236 354 242 24 142
3 343 354 209 242 24 142
3 209 354 210 242 24 142
3 210 354 211 242 24 142
3 210 211 7 242 24 142
3 7 211 203 242 24 142
3 7 203 202 242 24 142
3 202 203 204 242 24 142
3 204 203 255 242 24 142
3 204 255 254 242 24 142
3 254 255 248 242 24 142
3 254 248 253 242 24 142
3 253 248 250 242 24 142
3 253 250 351 242 24 142
3 351 250 252 242 24 142
3 252 250 251 242 24 142
3 252 251 294 242 24 142
3 252 294 30 242 24 142
3 30 294 296 242 24 142
3 296 294 224 242 24 142
3 296 224 223 242 24 142
3 223 224 225 242 24 142
3 223 225 216 242 24 142
3 223 216 452 242 24 142
3 452 216 222 242 24 142
3 452 222 346 242 24 142
3 346 222 221 242 24 142
3 346 221 342 242 24 142
3 346 342 345 242 24 142
3 345 342 344 242 24 142
3 345 344 691 242 24 142
3 691 344 353 242 24 142
3 691 353 732 40 176 204
3 732 353 208 40 176 204
3 208 353 209 242 24 142
3 209 353 343 242 24 142
3 208 209 210 242 24 142
3 208 210 207 40 176 204
3 207 210 206 40 176 204
3 206 210 7 242 24 142
3 206 7 202 40 176 204
3 206 202 619 40 176 204
3 619 202 582 40 176 204
3 582 202 205 40 176 204
3 205 202 204 242 24 142
3 205 204 254 242 24 142
3 205 254 348 242 24 142
3 348 254 253 242 24 142
3 348 253 351 40 176 204
3 348 351 352 40 176 204
3 352 351 466 40 176 204
3 466 351 297 40 176 204
3 297 351 252 40 176 204
3 297 252 30 40 176 204
3 297 30 198 40 176 204
3 198 30 520 40 176 204
3 520 30 296 242 24 142
3 520 296 497 242 24 142
3 497 296 452 242 24 142
3 452 296 223 242 24 142
3 497 452 345 242 24 142
3 345 452 346 242 24 142
3 497 345 692 242 24 142
3 692 345 691 242 24 142
3 692 691 734 40 176 204
3 734 691 634 40 176 204
3 634 691 732 40 176 204
3 634 732 733 40 176 204
3 733 732 208 40 176 204
3 733 208 207 40 176 204
3 733 207 606 40 176 204
3 606 207 588 40 176 204
3 588 207 619 40 176 204
3 619 207 206 40 176 204
3 588 619 620 40 176 204
3 620 619 582 40 176 204
3 620 582 412 40 176 204
3 412 582 205 40 176 204
3 412 205 347 40 176 204
3 347 205 348 40 176 204
3 347 348 352 40 176 204
3 347 352 350 40 176 204
3 350 352 349 40 176 204
3 349 352 578 40 176 204
3 578 352 466 40 176 204
3 578 466 286 40 176 204
3 286 466 287 40 176 204
3 287 466 314 40 176 204
3 314 466 297 40 176 204
3 314 297 315 40 176 204
3 315 297 197 40 176 204
3 197 297 198 40 176 204
3 197 198 199 40 176 204
3 199 198 520 40 176 204
3 199 520 734 40 176 204
3 734 520 692 40 176 204
3 692 520 497 242 24 142
3 199 734 200 40 176 204
3 200 734 634 40 176 204
3 200 634 608 40 176 204
3 608 634 606 40 176 204
3 606 634 733 40 176 204
3 608 606 741 40 176 204
3 741 606 607 40 176 204
3 607 606 588 40 176 204
3 607 588 553 40 176 204
3 553 588 46 40 176 204
3 46 588 620 40 176 204
3 46 620 447 40 176 204
3 447 620 171 40 176 204
3 171 620 412 40 176 204
3 171 412 71 40 176 204
3 71 412 350 40 176 204
3 350 412 347 40 176 204
3 71 350 293 40 176 204
3 293 350 349 40 176 204
3 293 349 286 40 176 204
3 286 349 578 40 176 204
3 293 286 292 40 176 204
3 292 286 288 40 176 204
3 288 286 287 40 176 204
3 288 287 289 242 24 142
3 289 287 404 242 24 142
3 404 287 403 242 24 142
3 403 287 314 40 176 204
3 403 314 315 40 176 204
3 403 315 487 242 24 142
3 487 315 316 40 176 204
3 316 315 414 40 176 204
3 414 315 197 40 176 204
3 414 197 101 40 176 204
3 101 197 735 40 176 204
3 735 197 199 40 176 204
3 735 199 200 40 176 204
3 735 200 608 40 176 204
3 735 608 230 40 176 204
3 230 608 741 40 176 204
3 230 741 70 40 176 204
3 70 741 587 40 176 204
3 587 741 38 40 176 204
3 38 741 553 40 176 204
3 553 741 607 40 176 204
3 38 553 552 40 176 204
3 552 553 45 40 176 204
3 45 553 46 40 176 204
3 45 46 446 40 176 204
3 446 46 447 40 176 204
3 446 447 444 40 176 204
3 444 447 171 40 176 204
3 444 171 174 40 176 204
3 174 171 172 40 176 204
3 172 171 71 40 176 204
3 172 71 409 40 176 204
3 409 71 293 40 176 204
3 409 293 529 40 176 204
3 529 293 292 40 176 204
3 529 292 267 40 176 204
3 267 292 78 40 176 204
3 78 292 291 242 24 142
3 291 292 288 242 24 142
3 291 288 72 242 24 142
3 72 288 289 242 24 142
3 72 289 543 242 24 142
3 543 289 559 242 24 142
3 559 289 404 242 24 142
3 559 404 460 242 24 142
3 460 404 403 242 24 142
3 460 403 490 242 24 142
3 490 403 487 242 24 142
3 490 487 440 242 24 142
3 440 487 489 242 24 142
3 489 487 488 242 24 142
3 488 487 316 40 176 204
3 488 316 546 40 176 204
3 546 316 103 40 176 204
3 103 316 414 40 176 204
3 103 414 102 40 176 204
3 102 414 101 40 176 204
3 102 101 114 40 176 204
3 114 101 230 40 176 204
3 230 101 735 40 176 204
3 114 230 141 40 176 204
3 141 230 3 40 176 204
3 3 230 70 40 176 204
3 3 70 142 40 176 204
3 142 70 472 40 176 204
3 472 70 510 40 176 204
3 510 70 587 40 176 204
3 510 587 38 40 176 204
3 510 38 502 40 176 204
3 502 38 552 40 176 204
3 502 552 498 40 176 204
3 498 552 45 40 176 204
3 498 45 499 40 176 204
3 499 45 730 40 176 204
3 730 45 449 40 176 204
3 449 45 446 40 176 204
3 449 446 448 40 176 204
3 448 446 443 40 176 204
3 443 446 444 40 176 204
3 443 444 22 40 176 204
3 22 444 174 40 176 204
3 22 174 173 40 176 204
3 173 174 172 40 176 204
3 173 172 408 40 176 204
3 408 172 409 40 176 204
3 408 409 410 40 176 204
3 410 409 529 40 176 204
3 410 529 267 40 176 204
3 410 267 186 40 176 204
3 186 267 268 40 176 204
3 268 267 78 242 24 142
3 268 78 751 242 24 142
3 751 78 290 242 24 142
3 290 78 291 242 24 142
3 290 291 72 242 24 142
3 290 72 542 242 24 142
3 542 72 543 242 24 142
3 542 543 425 242 24 142
3 425 543 422 242 24 142
3 422 543 559 242 24 142
3 422 559 34 242 24 142
3 34 559 460 242 24 142
3 34 460 437 242 24 142
3 437 460 490 242 24 142
3 437 490 439 242 24 142
3 439 490 440 242 24 142
3 439 440 370 242 24 142
3 370 440 42 242 24 142
3 42 440 489 242 24 142
3 42 489 214 242 24 142
3 214 489 215 242 24 142
3 215 489 488 242 24 142
3 215 488 546 40 176 204
3 215 546 547 40 176 204
3 547 546 103 40 176 204
3 547 103 413 40 176 204
3 413 103 102 40 176 204
3 413 102 114 40 176 204
3 413 114 115 40 176 204
3 115 114 141 40 176 204
3 115 141 140 40 176 204
3 140 141 273 40 176 204
3 273 141 138 40 176 204
3 138 141 137 40 176 204
3 137 141 3 40 176 204
3 137 3 146 40 176 204
3 146 3 145 40 176 204
3 145 3 142 40 176 204
3 145 142 143 40 176 204
3 143 142 229 40 176 204
3 229 142 227 40 176 204
3 227 142 226 40 176 204
3 226 142 472 40 176 204
3 226 472 27 40 176 204
3 27 472 501 40 176 204
3 501 472 502 40 176 204
3 502 472 510 40 176 204
3 501 502 498 40 176 204
3 501 498 726 40 176 204
3 726 498 665 40 176 204
3 665 498 60 40 176 204
3 60 498 499 40 176 204
3 60 499 698 40 176 204
3 698 499 731 40 176 204
3 731 499 730 40 176 204
3 731 730 390 40 176 204
3 390 730 382 40 176 204
3 382 730 449 40 176 204
3 382 449 383 40 176 204
3 383 449 448 40 176 204
3 383 448 506 40 176 204
3 506 448 385 40 176 204
3 385 448 22 40 176 204
3 22 448 443 40 176 204
3 385 22 363 40 176 204
3 363 22 274 40 176 204
3 274 22 173 40 176 204
3 274 173 408 40 176 204
3 274 408 272 40 176 204
3 272 408 410 40 176 204
3 272 410 265 40 176 204
3 265 410 186 40 176 204
3 265 186 127 40 176 204
3 127 186 485 40 176 204
3 485 186 268 40 176 204
3 485 268 748 242 24 142
3 748 268 751 242 24 142
3 748 751 290 242 24 142
3 748 290 544 242 24 142
3 544 290 545 242 24 142
3 545 290 542 242 24 142
3 545 542 442 242 24 142
3 442 542 425 242 24 142
3 442 425 424 242 24 142
3 424 425 422 242 24 142
3 424 422 20 242 24 142
3 20 422 34 242 24 142
3 20 34 423 242 24 142
3 423 34 437 242 24 142
3 423 437 438 242 24 142
3 438 437 439 242 24 142
3 438 439 370 242 24 142
3 438 370 369 242 24 142
3 369 370 367 242 24 142
3 367 370 365 242 24 142
3 365 370 42 242 24 142
3 365 42 371 242 24 142
3 371 42 214 242 24 142
3 371 214 387 242 24 142
3 387 214 129 242 24 142
3 129 214 215 242 24 142
3 129 215 547 242 24 142
3 129 547 130 242 24 142
3 130 547 266 40 176 204
3 266 547 413 40 176 204
3 266 413 115 40 176 204
3 266 115 139 40 176 204
3 139 115 140 40 176 204
3 139 140 265 40 176 204
3 265 140 271 40 176 204
3 271 140 273 40 176 204
3 271 273 10 40 176 204
3 10 273 148 40 176 204
3 148 273 138 40 176 204
3 148 138 4 40 176 204
3 4 138 137 40 176 204
3 4 137 146 40 176 204
3 4 146 147 40 176 204
3 147 146 145 40 176 204
3 147 145 13 40 176 204
3 13 145 143 40 176 204
3 13 143 144 40 176 204
3 144 143 276 40 176 204
3 276 143 213 40 176 204
3 213 143 229 40 176 204
3 213 229 8 40 176 204
3 8 229 227 40 176 204
3 8 227 12 40 176 204
3 12 227 341 40 176 204
3 341 227 228 40 176 204
3 228 227 471 40 176 204
3 471 227 470 40 176 204
3 470 227 226 40 176 204
3 470 226 27 40 176 204
3 470 27 500 40 176 204
3 500 27 501 40 176 204
3 500 501 729 40 176 204
3 729 501 726 40 176 204
3 729 726 679 242 221 72
3 679 726 538 242 221 72
3 538 726 665 242 221 72
3 538 665 666 242 221 72
3 666 665 60 242 221 72
3 666 60 698 242 221 72
3 666 698 709 242 221 72
3 709 698 708 40 176 204
3 708 698 731 40 176 204
3 708 731 739 40 176 204
3 739 731 390 40 176 204
3 739 390 133 40 176 204
3 133 390 59 40 176 204
3 59 390 389 40 176 204
3 389 390 382 40 176 204
3 389 382 383 40 176 204
3 389 383 506 40 176 204
3 389 506 667 40 176 204
3 667 506 505 40 176 204
3 505 506 385 40 176 204
3 505 385 374 40 176 204
3 374 385 384 40 176 204
3 384 385 363 40 176 204
3 384 363 492 40 176 204
3 492 363 362 40 176 204
3 362 363 364 40 176 204
3 364 363 274 40 176 204
3 364 274 10 40 176 204
3 10 274 272 40 176 204
3 10 272 271 40 176 204
3 271 272 265 40 176 204
3 364 10 5 40 176 204
3 5 10 163 40 176 204
3 163 10 148 40 176 204
3 163 148 259 40 176 204
3 259 148 4 40 176 204
3 259 4 147 40 176 204
3 259 147 0 40 176 204
3 0 147 13 40 176 204
3 0 13 50 40 176 204
3 50 13 415 40 176 204
3 415 13 144 40 176 204
3 415 144 276 40 176 204
3 415 276 308 40 176 204
3 308 276 26 40 176 204
3 26 276 212 40 176 204
3 212 276 213 40 176 204
3 212 213 177 40 176 204
3 177 213 8 40 176 204
3 177 8 12 40 176 204
3 177 12 246 40 176 204
3 246 12 247 204 61 61
3 247 12 341 40 176 204
3 247 341 340 40 176 204
3 340 341 338 40 176 204
3 338 341 339 40 176 204
3 339 341 228 40 176 204
3 339 228 402 40 176 204
3 402 228 736 40 176 204
3 736 228 471 40 176 204
3 736 471 737 40 176 204
3 737 471 500 40 176 204
3 500 471 470 40 176 204
3 737 500 729 40 176 204
3 737 729 679 242 221 72
3 737 679 696 242 221 72
3 696 679 678 242 221 72
3 678 679 572 242 221 72
3 572 679 537 242 221 72
3 537 679 538 242 221 72
3 537 538 357 242 221 72
3 357 538 666 242 221 72
3 357 666 358 242 221 72
3 358 666 646 242 221 72
3 646 666 709 242 221 72
3 646 709 694 242 221 72
3 694 709 714 242 221 72
3 714 709 707 40 176 204
3 707 709 708 40 176 204
3 707 708 739 40 176 204
3 707 739 63 40 176 204
3 63 739 738 40 176 204
3 738 739 133 40 176 204
3 738 133 676 40 176 204
3 676 133 59 40 176 204
3 676 59 589 40 176 204
3 589 59 505 40 176 204
3 505 59 667 40 176 204
3 667 59 389 40 176 204
3 589 505 507 40 176 204
3 507 505 374 40 176 204
3 507 374 15 40 176 204
3 15 374 321 40 176 204
3 321 374 384 40 176 204
3 321 384 322 40 176 204
3 322 384 492 40 176 204
3 322 492 323 40 176 204
3 323 492 491 40 176 204
3 491 492 362 40 176 204
3 491 362 165 40 176 204
3 165 362 597 40 176 204
3 597 362 5 40 176 204
3 5 362 364 40 176 204
3 597 5 595 40 176 204
3 595 5 163 40 176 204
3 595 163 593 40 176 204
3 593 163 0 40 176 204
3 0 163 259 40 176 204
3 593 0 596 242 221 72
3 596 0 62 242 221 72
3 62 0 50 242 221 72
3 62 50 517 242 221 72
3 517 50 415 40 176 204
3 517 415 308 40 176 204
3 517 308 516 40 176 204
3 516 308 26 40 176 204
3 516 26 483 40 176 204
3 483 26 212 40 176 204
3 483 212 113 40 176 204
3 113 212 157 40 176 204
3 157 212 177 40 176 204
3 157 177 178 40 176 204
3 178 177 246 204 61 61
3 178 246 179 204 61 61
3 179 246 245 204 61 61
3 245 246 243 204 61 61
3 243 246 247 204 61 61
3 243 247 493 204 61 61
3 493 247 340 40 176 204
3 493 340 521 40 176 204
3 521 340 65 40 176 204
3 65 340 681 40 176 204
3 681 340 338 40 176 204
3 681 338 57 40 176 204
3 57 338 682 40 176 204
3 682 338 18 40 176 204
3 18 338 339 40 176 204
3 18 339 402 40 176 204
3 18 402 650 40 176 204
3 650 402 652 242 221 72
3 652 402 736 242 221 72
3 652 736 696 242 221 72
3 696 736 737 242 221 72
3 652 696 678 242 221 72
3 652 678 669 242 221 72
3 669 678 572 242 221 72
3 669 572 396 242 221 72
3 396 572 397 242 221 72
3 397 572 537 242 221 72
3 397 537 398 242 221 72
3 398 537 357 242 221 72
3 398 357 356 242 221 72
3 356 357 358 242 221 72
3 356 358 355 242 221 72
3 355 358 539 242 221 72
3 539 358 458 242 221 72
3 458 358 646 242 221 72
3 458 646 690 242 221 72
3 690 646 694 242 221 72
3 690 694 649 242 221 72
3 649 694 650 242 221 72
3 650 694 750 242 221 72
3 750 694 714 242 221 72
3 750 714 682 40 176 204
3 682 714 57 40 176 204
3 57 714 707 40 176 204
3 57 707 63 40 176 204
3 57 63 713 40 176 204
3 713 63 738 40 176 204
3 713 738 445 40 176 204
3 445 738 676 40 176 204
3 445 676 589 40 176 204
3 445 589 40 40 176 204
3 40 589 507 40 176 204
3 40 507 15 40 176 204
3 40 15 31 40 176 204
3 31 15 301 40 176 204
3 301 15 320 40 176 204
3 320 15 321 40 176 204
3 320 321 322 40 176 204
3 320 322 323 40 176 204
3 320 323 302 40 176 204
3 302 323 534 40 176 204
3 534 323 583 40 176 204
3 583 323 491 40 176 204
3 583 491 165 40 176 204
3 583 165 164 40 176 204
3 164 165 597 40 176 204
3 164 597 598 40 176 204
3 598 597 658 242 221 72
3 658 597 68 242 221 72
3 68 597 594 242 221 72
3 594 597 595 242 221 72
3 594 595 593 242 221 72
3 594 593 596 242 221 72
3 594 596 656 242 221 72
3 656 596 258 242 221 72
3 258 596 675 242 221 72
3 675 596 62 242 221 72
3 675 62 710 242 221 72
3 710 62 674 242 221 72
3 674 62 517 242 221 72
3 674 517 584 242 221 72
3 584 517 516 40 176 204
3 584 516 483 40 176 204
3 584 483 585 242 221 72
3 585 483 113 40 176 204
3 585 113 586 40 176 204
3 586 113 110 40 176 204
3 110 113 157 40 176 204
3 110 157 111 40 176 204
3 111 157 264 40 176 204
3 264 157 178 40 176 204
3 264 178 182 204 61 61
3 182 178 179 204 61 61
3 182 179 6 204 61 61
3 6 179 180 204 61 61
3 180 179 453 204 61 61
3 453 179 184 204 61 61
3 184 179 245 204 61 61
3 184 245 244 204 61 61
3 244 245 243 204 61 61
3 244 243 242 204 61 61
3 242 243 493 204 61 61
3 242 493 459 204 61 61
3 459 493 521 204 61 61
3 459 521 175 204 61 61
3 175 521 31 40 176 204
3 31 521 65 40 176 204
3 31 65 40 40 176 204
3 40 65 445 40 176 204
3 445 65 681 40 176 204
3 445 681 713 40 176 204
3 713 681 57 40 176 204
3 175 31 125 40 176 204
3 125 31 123 40 176 204
3 123 31 301 40 176 204
3 123 301 111 40 176 204
3 111 301 112 40 176 204
3 112 301 534 40 176 204
3 534 301 302 40 176 204
3 302 301 320 40 176 204
3 112 534 416 40 176 204
3 416 534 583 40 176 204
3 416 583 37 40 176 204
3 37 583 164 40 176 204
3 37 164 598 40 176 204
3 37 598 659 40 176 204
3 659 598 658 242 221 72
3 659 658 68 242 221 72
3 659 68 740 242 221 72
3 740 68 677 242 221 72
3 677 68 656 242 221 72
3 656 68 594 242 221 72
3 677 656 257 242 221 72
3 257 656 256 242 221 72
3 256 656 275 242 221 72
3 275 656 746 242 221 72
3 746 656 258 242 221 72
3 746 258 675 242 221 72
3 746 675 710 242 221 72
3 746 710 155 242 221 72
3 155 710 156 242 221 72
3 156 710 674 242 221 72
3 156 674 680 242 221 72
3 680 674 584 242 221 72
3 680 584 585 242 221 72
3 680 585 725 242 221 72
3 725 585 660 242 221 72
3 660 585 586 242 221 72
3 660 586 661 242 221 72
3 661 586 110 40 176 204
3 661 110 1 40 176 204
3 1 110 111 40 176 204
3 1 111 112 40 176 204
3 1 112 416 40 176 204
3 1 416 661 40 176 204
3 661 416 37 40 176 204
3 661 37 659 40 176 204
3 661 659 660 242 221 72
3 660 659 725 242 221 72
3 725 659 740 242 221 72
3 725 740 169 242 221 72
3 169 740 687 242 221 72
3 687 740 677 242 221 72
3 687 677 257 242 221 72
3 687 257 689 127 20 204
3 689 257 256 127 20 204
3 689 256 601 127 20 204
3 601 256 275 127 20 204
3 601 275 73 127 20 204
3 73 275 74 127 20 204
3 74 275 155 127 20 204
3 155 275 746 242 221 72
3 74 155 162 127 20 204
3 162 155 154 127 20 204
3 154 155 156 127 20 204
3 154 156 151 127 20 204
3 151 156 680 242 221 72
3 151 680 169 242 221 72
3 169 680 725 242 221 72
3 151 169 688 242 221 72
3 688 169 687 242 221 72
3 688 687 683 127 20 204
3 683 687 689 127 20 204
3 683 689 685 127 20 204
3 685 689 601 127 20 204
3 685 601 514 127 20 204
3 514 601 73 127 20 204
3 514 73 512 127 20 204
3 512 73 74 127 20 204
3 512 74 162 127 20 204
3 512 162 161 127 20 204
3 161 162 153 127 20 204
3 153 162 154 127 20 204
3 153 154 152 127 20 204
3 152 154 151 127 20 204
3 152 151 688 127 20 204
3 152 688 158 127 20 204
3 158 688 683 127 20 204
3 158 683 684 127 20 204
3 684 683 685 127 20 204
3 684 685 686 127 20 204
3 686 685 66 127 20 204
3 66 685 514 127 20 204
3 66 514 58 127 20 204
3 58 514 513 127 20 204
3 513 514 512 127 20 204
3 513 512 189 127 20 204
3 189 512 161 127 20 204
3 189 161 476 127 20 204
3 476 161 159 127 20 204
3 159 161 160 127 20 204
3 160 161 153 127 20 204
3 160 153 152 127 20 204
3 160 152 158 127 20 204
3 160 158 684 127 20 204
3 160 684 686 127 20 204
3 160 686 159 127 20 204
3 159 686 25 127 20 204
3 25 686 631 127 20 204
3 631 686 66 127 20 204
3 631 66 58 127 20 204
3 631 58 632 48 242 105
3 632 58 97 48 242 105
3 97 58 509 48 242 105
3 509 58 28 48 242 105
3 28 58 513 48 242 105
3 28 513 189 48 242 105
3 28 189 477 48 242 105
3 477 189 476 48 242 105
3 477 476 25 48 242 105
3 25 476 159 48 242 105
3 477 25 478 48 242 105
3 478 25 47 48 242 105
3 47 25 632 48 242 105
3 632 25 631 48 242 105
3 47 632 97 48 242 105
3 47 97 400 48 242 105
3 400 97 187 48 242 105
3 187 97 509 48 242 105
3 187 509 511 48 242 105
3 511 509 64 48 242 105
3 64 509 699 48 242 105
3 699 509 477 48 242 105
3 477 509 508 48 242 105
3 508 509 28 48 242 105
3 508 28 515 48 242 105
3 515 28 170 48 242 105
3 170 28 477 48 242 105
3 170 477 515 48 242 105
3 515 477 508 48 242 105
3 699 477 478 48 242 105
3 699 478 511 48 242 105
3 511 478 535 48 242 105
3 535 478 557 48 242 105
3 557 478 187 48 242 105
3 187 478 47 48 242 105
3 187 47 188 48 242 105
3 188 47 400 48 242 105
3 188 400 187 48 242 105
3 557 187 535 48 242 105
3 535 187 511 48 242 105
3 699 511 64 48 242 105
3 123 111 124 40 176 204
3 124 111 264 40 176 204
3 124 264 182 204 61 61
3 124 182 181 204 61 61
3 181 182 6 204 61 61
3 181 6 319 204 61 61
3 319 6 693 204 61 61
3 693 6 69 204 61 61
3 69 6 180 204 61 61
3 69 180 420 204 61 61
3 420 180 16 204 61 61
3 16 180 453 204 61 61
3 16 453 330 204 61 61
3 330 453 695 204 61 61
3 695 453 183 204 61 61
3 183 453 184 204 61 61
3 183 184 185 204 61 61
3 185 184 244 204 61 61
3 185 244 599 204 61 61
3 599 244 242 204 61 61
3 599 242 433 204 61 61
3 433 242 459 204 61 61
3 433 459 92 204 61 61
3 92 459 91 204 61 61
3 91 459 176 204 61 61
3 176 459 175 204 61 61
3 176 175 319 204 61 61
3 319 175 125 204 61 61
3 319 125 181 204 61 61
3 181 125 124 204 61 61
3 124 125 123 40 176 204
3 176 319 93 204 61 61
3 93 319 693 204 61 61
3 93 693 405 204 61 61
3 405 693 69 204 61 61
3 405 69 421 204 61 61
3 421 69 420 204 61 61
3 421 420 392 204 61 61
3 392 420 391 204 61 61
3 391 420 16 204 61 61
3 391 16 330 204 61 61
3 391 330 53 204 61 61
3 53 330 79 204 61 61
3 79 330 695 204 61 61
3 79 695 600 204 61 61
3 600 695 185 204 61 61
3 185 695 183 204 61 61
3 600 185 599 204 61 61
3 600 599 433 204 61 61
3 600 433 744 204 61 61
3 744 433 524 204 61 61
3 524 433 270 204 61 61
3 270 433 92 204 61 61
3 270 92 91 204 61 61
3 270 91 36 204 61 61
3 36 91 93 204 61 61
3 93 91 176 204 61 61
3 36 93 405 204 61 61
3 36 405 17 204 61 61
3 17 405 523 204 61 61
3 523 405 421 204 61 61
3 523 421 450 204 61 61
3 450 421 392 204 61 61
3 450 392 722 204 61 61
3 722 392 391 204 61 61
3 722 391 53 204 61 61
3 722 53 98 204 61 61
3 98 53 79 204 61 61
3 98 79 744 204 61 61
3 744 79 600 204 61 61
3 98 744 745 204 61 61
3 745 744 524 204 61 61
3 745 524 393 204 61 61
3 393 524 17 204 61 61
3 17 524 270 204 61 61
3 17 270 36 204 61 61
3 393 17 523 204 61 61
3 393 523 450 204 61 61
3 393 450 745 204 61 61
3 745 450 722 204 61 61
3 745 722 98 204 61 61
3 750 682 18 40 176 204
3 750 18 650 242 221 72
3 649 650 651 242 221 72
3 651 650 652 242 221 72
3 651 652 669 242 221 72
3 651 669 653 242 221 72
3 653 669 396 242 221 72
3 653 396 49 242 221 72
3 49 396 395 127 20 204
3 395 396 394 127 20 204
3 394 396 397 242 221 72
3 394 397 398 127 20 204
3 394 398 399 127 20 204
3 399 398 356 127 20 204
3 399 356 540 127 20 204
3 540 356 355 127 20 204
3 540 355 539 127 20 204
3 540 539 532 127 20 204
3 532 539 463 127 20 204
3 463 539 541 127 20 204
3 541 539 458 127 20 204
3 541 458 441 242 221 72
3 441 458 649 242 221 72
3 649 458 690 242 221 72
3 441 649 653 242 221 72
3 653 649 651 242 221 72
3 441 653 49 242 221 72
3 441 49 464 127 20 204
3 464 49 461 127 20 204
3 461 49 395 127 20 204
3 461 395 48 127 20 204
3 48 395 394 127 20 204
3 48 394 328 127 20 204
3 328 394 399 127 20 204
3 328 399 592 127 20 204
3 592 399 554 127 20 204
3 554 399 540 127 20 204
3 554 540 532 127 20 204
3 554 532 533 127 20 204
3 533 532 531 127 20 204
3 531 532 463 127 20 204
3 531 463 462 127 20 204
3 462 463 464 127 20 204
3 464 463 541 127 20 204
3 464 541 441 127 20 204
3 462 464 461 127 20 204
3 462 461 32 127 20 204
3 32 461 325 127 20 204
3 325 461 326 127 20 204
3 326 461 48 127 20 204
3 326 48 327 127 20 204
3 327 48 328 127 20 204
3 327 328 324 127 20 204
3 324 328 592 127 20 204
3 324 592 533 127 20 204
3 533 592 554 127 20 204
3 324 533 468 127 20 204
3 468 533 467 127 20 204
3 467 533 32 127 20 204
3 32 533 531 127 20 204
3 32 531 462 127 20 204
3 467 32 618 127 20 204
3 618 32 325 127 20 204
3 618 325 556 48 242 105
3 556 325 664 48 242 105
3 664 325 14 127 20 204
3 14 325 326 127 20 204
3 14 326 327 127 20 204
3 14 327 324 127 20 204
3 14 324 329 127 20 204
3 329 324 468 127 20 204
3 329 468 525 48 242 105
3 525 468 558 48 242 105
3 558 468 623 48 242 105
3 623 468 743 48 242 105
3 743 468 467 48 242 105
3 743 467 617 48 242 105
3 617 467 618 48 242 105
3 617 618 44 48 242 105
3 44 618 556 48 242 105
3 44 556 671 48 242 105
3 671 556 664 48 242 105
3 671 664 663 48 242 105
3 663 664 525 48 242 105
3 525 664 329 48 242 105
3 329 664 14 127 20 204
3 663 525 657 48 242 105
3 657 525 558 48 242 105
3 657 558 571 48 242 105
3 571 558 530 48 242 105
3 530 558 697 48 242 105
3 697 558 623 48 242 105
3 697 623 635 48 242 105
3 635 623 486 48 242 105
3 486 623 743 48 242 105
3 486 743 617 48 242 105
3 486 617 697 48 242 105
3 697 617 44 48 242 105
3 697 44 530 48 242 105
3 530 44 571 48 242 105
3 571 44 671 48 242 105
3 571 671 657 48 242 105
3 657 671 663 48 242 105
3 486 697 635 48 242 105
3 139 265 127 40 176 204
3 139 127 126 40 176 204
3 126 127 131 40 176 204
3 131 127 166 242 24 142
3 166 127 485 242 24 142
3 166 485 167 242 24 142
3 167 485 748 242 24 142
3 167 748 548 242 24 142
3 548 748 544 242 24 142
3 548 544 549 242 24 142
3 549 544 545 242 24 142
3 549 545 442 242 24 142
3 549 442 484 242 24 142
3 484 442 424 242 24 142
3 484 424 591 242 24 142
3 591 424 590 242 24 142
3 590 424 519 242 24 142
3 519 424 20 242 24 142
3 519 20 423 242 24 142
3 519 423 436 242 24 142
3 436 423 438 242 24 142
3 436 438 369 242 24 142
3 436 369 518 242 24 142
3 518 369 367 242 24 142
3 518 367 368 242 24 142
3 368 367 33 242 24 142
3 33 367 482 242 24 142
3 482 367 366 242 24 142
3 366 367 365 242 24 142
3 366 365 371 242 24 142
3 366 371 387 242 24 142
3 366 387 388 242 24 142
3 388 387 581 242 24 142
3 581 387 129 242 24 142
3 581 129 128 242 24 142
3 128 129 130 242 24 142
3 128 130 126 242 24 142
3 126 130 266 40 176 204
3 126 266 139 40 176 204
3 128 126 131 242 24 142
3 128 131 132 242 24 142
3 132 131 168 242 24 142
3 168 131 166 242 24 142
3 168 166 167 242 24 142
3 168 167 551 242 24 142
3 551 167 548 242 24 142
3 551 548 380 242 24 142
3 380 548 549 242 24 142
3 380 549 484 242 24 142
3 380 484 379 242 24 142
3 379 484 579 242 24 142
3 579 484 591 242 24 142
3 579 591 429 242 24 142
3 429 591 590 242 24 142
3 429 590 428 242 24 142
3 428 590 519 242 24 142
3 428 519 381 242 24 142
3 381 519 436 242 24 142
3 381 436 29 242 24 142
3 29 436 518 242 24 142
3 29 518 386 96 204 61
3 386 518 522 242 24 142
3 522 518 368 242 24 142
3 522 368 33 242 24 142
3 522 33 435 242 24 142
3 435 33 473 242 24 142
3 473 33 41 242 24 142
3 41 33 482 242 24 142
3 41 482 481 242 24 142
3 481 482 366 242 24 142
3 481 366 388 242 24 142
3 481 388 581 242 24 142
3 481 581 580 242 24 142
3 580 581 132 242 24 142
3 132 581 128 242 24 142
3 580 132 168 242 24 142
3 580 168 550 242 24 142
3 550 168 551 242 24 142
3 550 551 378 242 24 142
3 378 551 380 242 24 142
3 378 380 379 242 24 142
3 378 379 41 242 24 142
3 41 379 473 242 24 142
3 473 379 469 242 24 142
3 469 379 579 242 24 142
3 469 579 429 242 24 142
3 469 429 24 242 24 142
3 24 429 454 96 204 61
3 454 429 428 96 204 61
3 454 428 373 96 204 61
3 373 428 361 96 204 61
3 361 428 381 96 204 61
3 361 381 360 96 204 61
3 360 381 29 96 204 61
3 360 29 359 96 204 61
3 359 29 386 96 204 61
3 359 386 417 96 204 61
3 417 386 522 96 204 61
3 417 522 21 96 204 61
3 21 522 435 96 204 61
3 21 435 337 96 204 61
3 337 435 331 96 204 61
3 331 435 24 96 204 61
3 24 435 473 242 24 142
3 24 473 469 242 24 142
3 331 24 332 96 204 61
3 332 24 451 96 204 61
3 451 24 454 96 204 61
3 451 454 455 96 204 61
3 455 454 474 96 204 61
3 474 454 373 96 204 61
3 474 373 372 96 204 61
3 372 373 361 96 204 61
3 372 361 727 96 204 61
3 727 361 360 96 204 61
3 727 360 407 96 204 61
3 407 360 359 96 204 61
3 407 359 406 96 204 61
3 406 359 417 96 204 61
3 406 417 419 96 204 61
3 419 417 418 96 204 61
3 418 417 21 96 204 61
3 418 21 434 96 204 61
3 434 21 336 96 204 61
3 336 21 337 96 204 61
3 336 337 335 96 204 61
3 335 337 333 96 204 61
3 333 337 332 96 204 61
3 332 337 331 96 204 61
3 333 332 334 96 204 61
3 334 332 451 96 204 61
3 334 451 456 96 204 61
3 456 451 455 96 204 61
3 456 455 86 96 204 61
3 86 455 475 96 204 61
3 475 455 474 96 204 61
3 475 474 372 96 204 61
3 475 372 624 96 204 61
3 624 372 728 96 204 61
3 728 372 727 96 204 61
3 728 727 721 96 204 61
3 721 727 407 96 204 61
3 721 407 668 96 204 61
3 668 407 645 96 204 61
3 645 407 406 96 204 61
3 645 406 419 96 204 61
3 645 419 644 96 204 61
3 644 419 54 96 204 61
3 54 419 465 96 204 61
3 465 419 418 96 204 61
3 465 418 641 96 204 61
3 641 418 434 96 204 61
3 641 434 336 96 204 61
3 641 336 335 96 204 61
3 641 335 642 96 204 61
3 642 335 655 96 204 61
3 655 335 672 96 204 61
3 672 335 333 96 204 61
3 672 333 90 96 204 61
3 90 333 334 96 204 61
3 90 334 2 96 204 61
3 2 334 456 96 204 61
3 2 456 86 96 204 61
3 2 86 625 96 204 61
3 625 86 624 96 204 61
3 624 86 475 96 204 61
3 625 624 61 96 204 61
3 61 624 728 96 204 61
3 61 728 721 96 204 61
3 61 721 720 96 204 61
3 720 721 668 96 204 61
3 720 668 494 96 204 61
3 494 668 644 96 204 61
3 644 668 645 96 204 61
3 494 644 54 96 204 61
3 494 54 496 96 204 61
3 496 54 281 96 204 61
3 281 54 55 96 204 61
3 55 54 643 96 204 61
3 643 54 465 96 204 61
3 643 465 642 96 204 61
3 642 465 641 96 204 61
3 643 642 655 96 204 61
3 643 655 55 96 204 61
3 55 655 672 96 204 61
3 55 672 673 96 204 61
3 673 672 90 96 204 61
3 673 90 85 96 204 61
3 85 90 2 96 204 61
3 85 2 625 96 204 61
3 85 625 87 96 204 61
3 87 625 426 96 204 61
3 426 625 626 96 204 61
3 626 625 61 96 204 61
3 626 61 720 96 204 61
3 626 720 377 96 204 61
3 377 720 495 96 204 61
3 495 720 494 96 204 61
3 495 494 496 96 204 61
3 495 496 281 96 204 61
3 495 281 280 96 204 61
3 280 281 75 96 204 61
3 75 281 55 96 204 61
3 75 55 673 96 204 61
3 75 673 282 56 48 242
3 282 673 89 56 48 242
3 89 673 87 56 48 242
3 87 673 85 96 204 61
3 89 87 88 56 48 242
3 88 87 426 96 204 61
3 88 426 504 56 48 242
3 504 426 427 56 48 242
3 427 426 626 96 204 61
3 427 626 377 96 204 61
3 427 377 375 56 48 242
3 375 377 279 56 48 242
3 279 377 495 96 204 61
3 279 495 280 96 204 61
3 279 280 278 56 48 242
3 278 280 11 56 48 242
3 11 280 75 56 48 242
3 11 75 282 56 48 242
3 11 282 283 56 48 242
3 283 282 284 56 48 242
3 284 282 312 56 48 242
3 312 282 89 56 48 242
3 312 89 457 56 48 242
3 457 89 503 56 48 242
3 503 89 88 56 48 242
3 503 88 149 56 48 242
3 149 88 536 56 48 242
3 536 88 504 56 48 242
3 536 504 262 56 48 242
3 262 504 305 56 48 242
3 305 504 376 56 48 242
3 376 504 427 56 48 242
3 376 427 375 56 48 242
3 376 375 51 56 48 242
3 51 375 277 56 48 242
3 277 375 278 56 48 242
3 278 375 279 56 48 242
3 277 278 283 56 48 242
3 283 278 11 56 48 242
3 277 283 480 56 48 242
3 480 283 284 56 48 242
3 480 284 306 56 48 242
3 306 284 312 56 48 242
3 306 312 313 56 48 242
3 313 312 457 56 48 242
3 313 457 431 56 48 242
3 431 457 503 56 48 242
3 431 503 430 56 48 242
3 430 503 149 56 48 242
3 430 149 150 56 48 242
3 150 149 299 56 48 242
3 299 149 536 56 48 242
3 299 536 263 56 48 242
3 263 536 261 56 48 242
3 261 536 262 56 48 242
3 261 262 304 56 48 242
3 304 262 305 56 48 242
3 304 305 306 56 48 242
3 306 305 51 56 48 242
3 51 305 376 56 48 242
3 306 51 480 56 48 242
3 480 51 277 56 48 242
3 304 306 303 56 48 242
3 303 306 313 56 48 242
3 303 313 431 56 48 242
3 303 431 318 56 48 242
3 318 431 317 56 48 242
3 317 431 430 56 48 242
3 317 430 150 56 48 242
3 317 150 300 56 48 242
3 300 150 298 56 48 242
3 298 150 299 56 48 242
3 298 299 263 56 48 242
3 298 263 261 56 48 242
3 298 261 307 56 48 242
3 307 261 304 56 48 242
3 307 304 303 56 48 242
3 307 303 318 56 48 242
3 307 318 300 56 48 242
3 300 318 317 56 48 242
3 307 300 298 56 48 242
3 378 41 481 242 24 142
3 378 481 580 242 24 142
3 378 580 550 242 24 142
