ply
format ascii 1.0
element vertex 752
property float x
property float y
property float z
element face 1500
property list uchar int vertex_indices
property uchar red
property uchar green
property uchar blue
end_header
0.353984 -0.09148 -0.32531
-0.093696 0.674328 -0.075512
-0.380449 -0.097521 0.234683
-0.404605 -0.096174 0.2438
-0.115631 0.380195 0.130895
-0.063556 0.935576 -0.059849
0.021036 0.939971 -0.030322
0.04313 0.926904 0.028584
-0.025775 0.93263 0.048542
0.06201 0.910778 -0.037751
-0.077923 0.927162 -0.015074
0.047709 0.888737 0.06355
0.078191 0.896445 0.002872
-0.067259 0.898394 -0.119485
0.012277 0.90637 -0.088584
-0.086455 0.899967 0.017001
-0.100956 0.899618 -0.079937
0.069842 0.855438 -0.056254
-0.022881 0.841747 -0.125819
-0.113948 0.862223 -0.057342
0.011137 0.877645 0.08201
-0.092245 0.873408 -0.11379
-0.038247 0.863676 0.079986
-0.074169 0.832689 -0.125503
0.033917 0.84732 -0.090834
-0.009193 0.785833 0.079865
0.077768 0.854954 0.037648
0.08923 0.833894 -0.012325
-0.11112 0.832401 -0.089559
-0.103543 0.846113 -0.006645
-0.113357 0.804495 -0.048088
-0.04752 0.808181 -0.11614
-0.011877 0.811995 -0.114109
-5.6e-05 0.775582 -0.112897
0.051122 0.810437 0.078343
-0.093525 0.805279 0.016714
0.058174 0.819294 -0.066721
-0.086112 0.813808 0.03979
-0.075718 0.776004 0.027777
-0.067026 0.797243 0.058735
0.07764 0.784664 -0.041294
0.069472 0.792569 -0.068441
-0.084473 0.807942 -0.106649
0.038052 0.78055 -0.069839
0.048982 0.753166 -0.044364
-0.054086 0.770379 0.066385
0.025211 0.751375 -0.076744
-0.096916 0.760525 -0.08868
-0.089992 0.75415 -0.114573
0.078403 0.787371 0.022579
-0.059054 0.756385 -0.116737
-0.100359 0.767066 -0.011069
-0.112082 0.757339 -0.062599
-0.033651 0.742211 0.069492
0.074626 0.743759 -0.02336
-0.107302 0.719043 -0.057289
0.018682 0.727189 -0.066235
-0.002386 0.715642 0.065539
-0.088966 0.722166 -0.11125
0.018061 0.733856 0.067473
0.009543 0.722061 -0.090703
-0.053748 0.740464 0.022486
-0.060397 0.691386 0.019491
0.046988 0.71108 -0.023278
0.05726 0.71323 0.033129
-0.029494 0.71932 0.027554
-0.09706 0.709964 -0.022194
0.01549 0.708944 0.034871
0.002374 0.689254 0.043338
-0.037197 0.729083 -0.119322
-0.067428 0.692617 -0.028142
0.02882 0.683312 0.03356
-0.062183 0.684862 -0.006182
-0.033846 0.676851 -0.065367
-0.028028 0.677332 0.053598
-0.056343 0.676549 -0.048365
-0.025329 0.686115 -0.092225
-0.065431 0.672128 -0.09943
-0.052648 0.651124 0.041645
0.045283 0.680112 -0.047791
0.053053 0.683449 0.002447
0.047402 0.659927 0.023364
0.009932 0.65736 0.05789
-0.036551 0.652797 0.081198
0.065575 0.650833 -0.029865
0.06158 0.657429 0.002974
-0.098086 0.607693 0.090061
-0.015813 0.634304 0.107147
-0.062298 0.632253 0.050286
0.089106 0.624632 0.03087
-0.064201 0.629487 0.0267
-0.048953 0.634058 -0.030837
0.059775 0.630235 -0.051347
-0.080204 0.624002 0.134003
-0.017824 0.619132 -0.049018
0.009376 0.627103 -0.06148
0.128886 0.615832 -0.021795
0.043131 0.62605 0.05187
0.005379 0.616814 0.115197
-0.109222 0.601062 0.159378
-0.057938 0.605363 -0.018896
-0.007044 0.585467 -0.074938
-0.11342 0.606674 0.121411
-0.145712 0.603836 0.13128
-0.09385 0.600441 0.020465
0.068426 0.594339 -0.067223
-0.045565 0.605264 0.155957
-0.107287 0.595106 0.070427
0.04138 0.605121 -0.058436
0.055425 0.591447 -0.089644
0.163187 0.594087 -0.058781
0.0955 0.556703 -0.09974
-0.180327 0.573496 0.116057
-0.044329 0.572553 -0.044082
0.159975 0.591315 -0.009649
0.108894 0.588194 -0.082781
0.165585 0.583826 -0.106504
-0.171422 0.583016 0.160596
0.045912 0.549137 -0.103318
-0.101672 0.575223 0.016892
-0.107569 0.571815 0.178664
-0.162795 0.569282 0.18095
0.159611 0.533355 0.036285
0.195107 0.569392 -0.115398
0.124354 0.581568 0.040612
0.212829 0.534432 -0.127709
-0.178119 0.512507 0.08454
0.152517 0.560674 -0.134424
0.200998 0.562356 -0.06697
-0.067586 0.524106 -0.061274
-0.016335 0.559126 -0.077083
-0.12967 0.496887 0.20658
0.011311 0.582116 0.120634
0.043494 0.527662 0.077586
-0.013415 0.547733 0.17338
0.168202 0.502038 -0.152664
-0.20194 0.52431 0.16665
0.031689 0.492645 -0.132987
-0.20452 0.512557 0.129188
-0.1397 0.514297 0.011075
-0.063823 0.528273 0.187706
-0.021355 0.485879 -0.108163
-0.115852 0.505479 -0.022904
0.069725 0.489509 0.074417
0.165731 0.489076 0.040504
0.142716 0.515362 0.058798
0.206632 0.490456 -0.033997
-0.189122 0.488299 0.105405
0.017684 0.52565 0.155696
0.063297 0.4726 -0.14158
-0.065353 0.47054 0.18216
-0.179966 0.431426 -0.024205
-0.184981 0.48779 0.194492
-0.015657 0.457317 -0.13114
0.085985 0.438724 -0.140038
6.2e-05 0.495841 0.177711
0.127356 0.482842 -0.143059
-0.171912 0.447069 0.037373
-0.067743 0.468109 -0.079468
-0.17506 0.483987 0.057885
0.231162 0.497283 -0.09119
-0.01848 0.404328 0.14669
-0.088777 0.490907 0.192858
-0.123565 0.448445 -0.054541
0.138154 0.449745 0.058518
-0.210462 0.460731 0.159126
0.035258 0.448047 0.095213
-0.144963 0.446432 0.100116
0.177627 0.456583 -0.158092
-0.170593 0.434827 0.200505
-0.199776 0.424298 0.185474
0.020842 0.425161 -0.174193
0.023997 0.444505 0.138024
-0.14143 0.433899 0.19922
0.135848 0.42727 -0.092931
-0.170346 0.45641 0.071218
-0.117101 0.392044 -0.066022
0.22128 0.448695 -0.143582
-0.081166 0.414581 0.15775
-0.105403 0.434021 0.159494
-0.206031 0.466657 0.129885
-0.164823 0.453897 0.102748
0.153794 0.403067 -0.159191
0.159476 0.421896 0.013945
-0.015913 0.409162 -0.158437
0.094507 0.381776 0.053887
-0.13657 0.420791 0.115054
0.070616 0.410835 -0.168443
0.165616 0.415167 -0.057911
-0.070288 0.414531 -0.072659
0.116681 0.437464 -0.10671
0.131176 0.44957 -0.12516
0.216725 0.423638 -0.078028
-0.226467 0.407051 0.159354
-0.144865 0.366099 0.090145
0.014427 0.406158 0.113725
-0.169081 0.40268 0.062531
0.031181 0.380187 -0.174294
0.107758 0.366648 -0.103832
0.196562 0.422241 -0.06284
0.065372 0.416241 0.071127
-0.09258 0.351103 0.135731
-0.19678 0.396417 0.007913
0.136363 0.399182 -0.122611
-0.132578 0.393916 0.119974
-0.071046 0.382539 -0.090575
0.14919 0.393985 -0.075213
0.164076 0.396842 -0.064282
-0.154068 0.403363 -0.057161
-0.172049 0.393871 0.109426
-0.123709 0.422405 0.18614
-0.176013 0.376427 -0.036613
0.199382 0.385319 -0.176611
0.165109 0.38447 -0.070581
-0.117888 0.392531 0.145054
-0.059701 0.381913 -0.097447
-0.177976 0.363424 0.047087
-0.07728 0.371472 -0.07673
0.066017 0.358918 -0.148565
0.095833 0.382946 -0.133907
0.22672 0.399788 -0.110524
-0.107838 0.377587 -0.064678
-0.03214 0.356122 -0.109781
0.130796 0.357754 -0.082857
-0.137048 0.36223 0.132257
0.229686 0.338638 -0.103879
-0.004657 0.376725 -0.159727
-0.194053 0.376038 0.205974
-0.219742 0.397194 0.12022
-0.172771 0.360813 0.109004
-0.107949 0.355953 -0.046918
0.137343 0.376258 -0.136902
0.002313 0.353244 -0.129877
0.121309 0.342719 0.014349
-0.006046 0.343603 0.121113
-0.047367 0.348683 0.136688
-0.156005 0.355803 0.052962
-0.153162 0.347323 0.012425
0.077618 0.356854 -0.122737
-0.171158 0.343212 0.119789
0.149038 0.333282 -0.106131
0.147716 0.332983 -0.142578
0.045639 0.344169 -0.129654
0.14092 0.34479 -0.033138
0.189019 0.379293 -0.067285
-0.152176 0.31316 0.027656
-0.034354 0.332145 0.125279
0.160183 0.356295 -0.078814
0.015165 0.32524 0.096903
-0.07194 0.327252 0.133763
-0.133043 0.36708 0.164913
-0.239394 0.339415 0.192859
-0.173454 0.29251 0.184058
-0.127422 0.335305 0.109644
0.199977 0.331395 -0.194885
-0.259186 0.333269 0.147946
-0.176422 0.342127 0.205393
-0.135924 0.313381 -0.00569
0.085019 0.307397 -0.117029
0.131398 0.29731 -0.026188
-0.260066 0.280172 0.143574
-0.214594 0.299436 0.207458
0.172209 0.34455 -0.183528
0.230917 0.352089 -0.157555
-0.245016 0.288314 0.129438
0.23256 0.300226 -0.187889
-0.05022 0.303889 -0.10398
0.198429 0.283629 -0.102663
-0.132096 0.258435 -0.015622
-0.166102 0.303351 0.14878
0.0122 0.301455 -0.118461
0.09566 0.256968 0.012803
0.047821 0.299508 0.065656
-0.220591 0.263557 0.123488
0.192939 0.270586 -0.203429
0.246983 0.276763 -0.143904
0.163266 0.253314 -0.170288
-0.041379 0.242968 -0.10394
0.253826 0.249125 -0.184449
-0.001933 0.255697 0.095765
-0.148623 0.271956 0.062585
-0.257801 0.276661 0.198299
0.17461 0.22185 -0.138731
0.174169 0.219695 -0.200158
0.021945 0.240543 -0.12405
0.067246 0.22933 -0.115386
-0.257904 0.244024 0.13082
-0.145547 0.227105 0.031827
-0.071425 0.275023 -0.075533
-0.242644 0.239999 0.226686
0.22733 0.260662 -0.123224
0.101142 0.227429 -0.047474
0.278417 0.193903 -0.213168
-0.215779 0.232654 0.199462
0.189544 0.22832 -0.123966
-0.041009 0.228559 0.099554
-0.281258 0.22724 0.224807
0.276097 0.204357 -0.16692
-0.132611 0.226463 0.071869
-0.280391 0.199545 0.147003
0.100475 0.197966 -0.004815
-0.267264 0.188694 0.234763
-0.112848 0.287828 -0.054175
0.09754 0.232175 -0.088583
-0.147474 0.17474 0.074031
0.06757 0.213512 0.042189
-0.311788 0.169696 0.195943
-0.111884 0.213359 0.085969
-0.258978 0.172521 0.143965
-0.200883 0.227016 0.147071
-0.192358 0.23158 0.173907
-0.120345 0.180863 -0.015907
-0.030779 0.186015 -0.099207
0.041192 0.192355 -0.127442
0.099301 0.164472 0.021922
-0.045157 0.169489 0.115053
0.022339 0.191724 0.077939
-0.066529 0.186869 -0.06916
0.104108 0.187961 -0.099164
0.119834 0.182654 -0.047688
0.078358 0.153448 -0.142836
0.204897 0.197803 -0.224092
0.044473 0.159152 0.069267
0.032489 0.135822 -0.138394
0.002831 0.159821 0.097322
0.218819 0.167166 -0.149686
0.183471 0.188017 -0.172341
0.140802 0.128737 0.001069
0.112052 0.164996 -0.12265
-0.09779 0.116494 0.136158
0.247417 0.177414 -0.233008
0.268252 0.105842 -0.265626
-0.15374 0.158686 0.087776
-0.103963 0.111197 -0.064696
-0.236694 0.157229 0.159266
0.196095 0.168049 -0.218089
-0.047981 0.141383 -0.104147
-0.316691 0.095451 0.17235
0.29347 0.124947 -0.243381
0.242857 0.105123 -0.259174
0.288893 0.13547 -0.197465
0.154719 0.12445 -0.059439
-0.034516 0.055284 -0.11401
0.043451 0.105402 0.096918
-0.038259 0.10862 0.14097
0.152721 0.099746 -0.100502
0.157235 0.099368 -0.02019
-0.324217 0.118082 0.230191
-0.166733 0.136764 0.030228
0.228928 0.093995 -0.202426
-0.138382 0.088734 0.126132
-0.137449 0.109352 -0.019787
-0.077037 0.122001 -0.082642
0.12129 0.09248 -0.144618
-0.292147 0.074469 0.1761
0.21514 0.105378 -0.225868
0.257865 0.090301 -0.197043
0.301235 0.090408 -0.232674
-0.05287 0.004127 0.168012
-0.250846 0.111251 0.19289
-0.304289 0.095049 0.24095
0.284177 0.037281 -0.293919
-0.080768 0.070303 -0.079924
0.104103 0.029276 -0.157129
-0.088664 0.029996 0.153887
0.074984 0.088599 0.080168
0.309558 0.075609 -0.274422
-0.129629 0.040412 -0.018563
0.16904 0.029518 0.007782
0.297701 0.026031 -0.242175
-0.275774 0.090856 0.222483
-0.334269 0.012898 0.241863
-0.172973 0.06996 0.031769
0.116045 0.012609 0.091047
-0.186517 0.015651 0.047829
-0.349287 0.070738 0.243595
0.051627 0.038227 0.122893
0.249349 0.047375 -0.262116
0.264184 0.037337 -0.22927
0.322884 0.035611 -0.294192
0.070994 0.075055 -0.155876
0.075344 0.00109 -0.156905
-0.36681 0.008019 0.261035
-0.006081 0.023889 -0.109208
0.021682 0.063333 -0.136039
-0.312253 0.020785 0.202595
0.322296 0.036419 -0.263958
-0.348916 0.073247 0.204254
-0.14364 -0.00098 0.004257
0.282501 -0.017859 -0.287723
-0.16741 0.067129 0.102474
-0.389937 0.005893 0.224037
-0.384697 0.015011 0.247971
0.134186 0.040998 0.067536
-0.185222 0.047827 0.075083
0.07046 -0.019979 0.101248
0.046755 -0.018607 0.137077
-0.421508 0.003346 0.247428
0.341817 -0.004004 -0.304176
0.036982 0.00072 -0.133801
0.327469 0.007007 -0.316964
-0.084442 -0.000427 -0.06094
0.168645 -0.04169 0.036491
0.310652 0.004308 -0.326494
-0.422864 0.000416 0.301351
-0.345987 0.011664 0.197019
0.348665 -0.024841 -0.363381
0.360102 0.003032 -0.360523
0.139943 0.003696 -0.129661
0.332752 -0.013983 -0.285523
-0.188376 -0.014339 0.086105
-0.420653 -0.017307 0.306288
0.376414 -0.007251 -0.342359
0.291589 -0.011232 -0.261548
-0.378594 -0.025448 0.206753
-0.133244 -0.007599 0.138294
0.391076 -0.019487 -0.370077
0.018417 0.041559 0.151834
0.112419 -0.04518 0.075728
0.295311 -0.024376 -0.323107
-0.428367 -0.019569 0.289414
-0.392513 -0.003762 0.278113
0.169136 0.018969 -0.035687
-0.021758 -0.046433 0.171016
-0.343278 -0.052647 0.221683
-0.06199 -0.061993 -0.025207
0.130298 -0.051866 -0.151243
-0.142736 -0.039259 0.001554
-0.093558 -0.057521 -0.013753
0.03609 -0.059753 0.118657
-0.050099 -0.030321 -0.072467
-0.00504 -0.061449 -0.067995
0.048149 -0.072655 0.072109
-0.413187 -0.050256 0.26995
-0.390972 -0.06289 0.29481
-0.387141 -0.056172 0.239795
0.04692 -0.042891 -0.147929
-0.173802 -0.099196 -8.8e-05
0.185111 -0.08748 -0.093928
0.279784 -0.058334 -0.318802
-0.088499 -0.08584 0.171384
0.372446 -0.070983 -0.367634
0.31934 -0.042144 -0.290174
0.366818 -0.050515 -0.337505
-0.156646 -0.090241 0.157303
-0.357341 -0.063668 0.206755
0.35559 -0.082639 -0.367378
-0.038433 -0.078559 -0.04055
0.018257 -0.084637 0.093318
0.14333 -0.078115 0.045592
-0.011259 -0.080405 -0.04387
-0.065633 -0.071194 -0.018546
0.361785 -0.089575 -0.363
0.289902 -0.089706 -0.310041
0.322998 -0.093667 -0.314984
0.032604 -0.097623 -0.15578
0.32629 -0.083644 -0.341537
-0.428142 -0.084435 0.306988
0.003307 -0.091677 -0.015836
-0.005815 -0.099605 0.061357
-0.197833 -0.098309 0.026686
0.35814 -0.09489 -0.357063
0.361517 -0.092079 -0.339299
-0.359952 -0.055213 0.259672
0.023002 -0.094623 0.032653
0.344985 -0.097356 -0.352541
-0.00629 -0.10978 0.120178
-0.022192 -0.092727 0.007641
0.065296 -0.092791 0.027205
0.187701 -0.069663 -0.036938
0.100829 -0.07867 0.051346
0.034086 -0.097518 0.009479
0.163491 -0.177001 -0.13761
-0.034775 -0.102475 0.1553
-0.432149 -0.126892 0.302583
0.38471 -0.099872 -0.364634
0.114482 -0.094274 -0.163393
-0.049069 -0.125279 -0.010072
-0.434031 -0.095574 0.293447
0.162365 -0.100039 0.01524
0.00137 -0.118259 -0.081491
-0.060213 -0.123205 0.16306
0.379274 -0.128444 -0.372553
-0.203006 -0.092929 0.071703
0.366937 -0.114732 -0.374
0.06076 -0.13248 0.025114
0.376899 -0.128427 -0.356893
0.074991 -0.098427 -0.17119
0.037855 -0.154735 0.014265
-0.183226 -0.176892 0.123091
0.190525 -0.165252 -0.047199
-0.006715 -0.136114 0.09719
-0.19611 -0.193918 0.047622
-0.017456 -0.13419 0.014691
-0.002038 -0.144996 0.046735
0.156659 -0.174416 0.00217
-0.158236 -0.14414 -0.010141
-0.129832 -0.187476 -0.010675
0.124364 -0.18556 -0.161309
0.18555 -0.207695 -0.086537
0.108878 -0.135662 0.026228
-0.198648 -0.096816 0.09683
0.033106 -0.210343 -0.139097
0.04666 -0.171135 -0.159627
-0.042752 -0.175971 0.145121
-0.180438 -0.176059 0.010281
0.082525 -0.178635 -0.169721
0.019364 -0.180256 -0.018426
0.1077 -0.211431 0.025519
-0.162347 -0.174391 0.148357
-0.009822 -0.199117 0.049053
-0.134647 -0.179704 0.165001
0.026486 -0.251427 -0.053068
-0.189848 -0.251584 0.08239
-0.053961 -0.287528 0.039534
-0.057296 -0.278133 0.155894
0.171913 -0.248204 -0.010101
-0.126156 -0.289853 0.008834
-0.157975 -0.245757 0.0081
0.031705 -0.289891 -0.105051
-0.028072 -0.282268 0.073908
-0.092884 -0.188578 0.169013
0.085601 -0.244481 0.020157
-0.172389 -0.284599 0.030022
-0.006702 -0.205671 0.088
-0.023517 -0.231207 0.124454
0.060634 -0.290956 -0.141746
-0.140124 -0.289842 0.154855
0.085362 -0.267705 -0.156775
-0.095228 -0.277445 0.168834
-0.180166 -0.310196 0.061114
-0.089954 -0.238384 0.006947
0.125198 -0.303784 0.012788
0.184554 -0.333671 -0.079228
0.184442 -0.296763 -0.034129
0.170023 -0.359234 -0.014447
-0.099274 -0.315115 0.018679
0.065555 -0.295503 -0.004467
-0.027635 -0.292452 0.11401
0.166377 -0.346361 -0.101866
0.18251 -0.370929 -0.040112
0.153263 -0.292094 -0.128027
0.089629 -0.349777 0.003601
-0.175131 -0.310826 0.108972
0.126829 -0.286583 -0.145839
-0.046481 -0.37207 0.065094
0.046802 -0.325698 -0.042983
-0.034559 -0.348667 0.105632
0.053062 -0.414537 -0.064706
0.129644 -0.390385 0.010318
-0.094025 -0.359776 0.165091
0.120709 -0.36559 -0.127933
-0.113092 -0.385516 0.028235
-0.146639 -0.381983 0.145945
0.08929 -0.39609 -0.117283
0.061893 -0.381934 -0.104117
-0.138668 -0.392608 0.039111
-0.03596 -0.432476 0.125225
-0.054662 -0.359176 0.139002
-0.078679 -0.445124 0.171693
0.125581 -0.4349 -0.10597
0.101539 -0.439029 0.00648
-0.04214 -0.452489 0.095723
-0.154471 -0.4297 0.091952
-0.075167 -0.46046 0.081197
0.05824 -0.441762 -0.093668
-0.151571 -0.415577 0.049434
-0.087405 -0.416322 0.043976
-0.14405 -0.430987 0.158209
0.087297 -0.451916 -0.110085
-0.160277 -0.473816 0.115825
-0.135508 -0.459367 0.046274
0.177888 -0.411012 -0.093357
0.202068 -0.470708 -0.053422
0.147604 -0.485282 0.003803
0.185145 -0.455677 -0.014714
-0.05351 -0.485372 0.136985
0.07876 -0.461989 -0.050109
-0.153705 -0.484736 0.085102
-0.104485 -0.441653 0.176226
-0.0633 -0.504018 0.097813
0.095126 -0.502069 -0.06609
0.208566 -0.508667 -0.026401
-0.109729 -0.501443 0.078549
0.111696 -0.504419 -0.096138
0.149432 -0.484037 -0.106795
-0.109283 -0.508479 0.199987
0.190428 -0.46384 -0.084071
-0.167216 -0.520236 0.128516
-0.047505 -0.527472 0.127498
-0.13088 -0.516852 0.084381
-0.145646 -0.494502 0.173831
0.138575 -0.536889 0.013979
-0.058108 -0.522406 0.178726
0.182748 -0.503904 0.004683
-0.078471 -0.615496 0.094938
0.110676 -0.52669 -0.01473
0.20946 -0.503564 -0.073028
0.105652 -0.580117 -0.038353
0.181836 -0.584576 0.019172
-0.051742 -0.61526 0.107665
0.224509 -0.580018 -0.019446
0.112494 -0.545572 -0.087316
-0.169833 -0.57674 0.158887
-0.097051 -0.571008 0.211057
0.147047 -0.614927 0.020776
-0.069227 -0.608424 0.199225
-0.16722 -0.572437 0.111261
0.195846 -0.585699 -0.104915
-0.040036 -0.613904 0.157515
0.15283 -0.569592 -0.115908
0.226616 -0.60793 -0.049491
0.218741 -0.620968 -0.080015
-0.17228 -0.629667 0.138142
0.120586 -0.622376 -0.096637
-0.164858 -0.652145 0.114381
0.21019 -0.66478 -0.012554
-0.148169 -0.593529 0.194769
-0.114933 -0.655173 0.207708
0.149223 -0.664079 -0.108487
0.216432 -0.690327 -0.051572
-0.068809 -0.703007 0.116036
0.108602 -0.664919 -0.031936
0.112117 -0.613554 -0.00055
-0.056196 -0.681294 0.140928
0.122245 -0.732997 -0.082382
-0.143709 -0.638634 0.099133
0.189139 -0.672396 -0.100565
0.136439 -0.684369 4.3e-05
-0.141549 -0.678246 0.192778
-0.148799 -0.728777 0.108652
0.175418 -0.68482 0.003626
0.156449 -0.753238 -0.101615
-0.120385 -0.755651 0.101308
-0.162956 -0.645311 0.169443
-0.067639 -0.702182 0.173481
0.198856 -0.732461 -0.018913
0.127309 -0.748834 -0.016692
-0.163461 -0.729613 0.130774
-0.150667 -0.786637 0.158834
0.127647 -0.801535 -0.092413
-0.075194 -0.800147 0.125445
0.162128 -0.76983 -0.003736
0.117488 -0.755224 -0.044536
-0.08864 -0.718155 0.191785
0.19465 -0.746932 -0.079677
-0.116598 -0.763482 0.187983
0.169239 -0.830007 -0.013885
-0.121884 -0.852776 0.088434
0.106049 -0.842974 -0.071971
-0.151469 -0.799916 0.110876
0.197387 -0.781068 -0.044144
-0.153123 -0.868241 0.098397
-0.090666 -0.850939 0.11374
0.1261 -0.846292 -0.026068
-0.096438 -0.825655 0.174597
0.16688 -0.808433 -0.091838
-0.152178 -0.878695 0.085677
-0.152832 -0.838994 0.12831
-0.132802 -0.863746 0.15614
0.096998 -0.8715 -0.087369
0.142879 -0.883219 -0.09276
-0.075373 -0.823885 0.156585
0.161524 -0.887921 -0.018411
-0.105102 -0.915866 0.077313
0.094897 -0.892377 -0.120144
-0.088813 -0.878227 0.158971
0.092259 -0.90373 -0.05309
0.147193 -0.885087 -0.011956
-0.155787 -0.899553 0.054867
0.121135 -0.882872 -0.107545
-0.140687 -0.912894 0.143774
0.171739 -0.872191 -0.059993
0.162946 -0.938695 -0.07045
-0.202669 -0.932052 0.064284
-0.088682 -0.93719 0.171748
0.105519 -0.934793 -0.156096
-0.192379 -0.919469 0.026291
0.055891 -0.913853 -0.140309
-0.178811 -0.933076 0.110989
0.12743 -0.940502 -0.011713
0.012574 -0.942582 -0.150946
0.167591 -0.928039 -0.010215
-0.184184 -0.928765 -0.006214
0.010383 -0.94548 -0.178503
0.049591 -0.927322 -0.113692
0.090871 -0.928905 -0.047669
-0.0732 -0.915751 0.14588
0.023828 -0.954317 -0.128175
-0.184567 -0.950479 -0.031942
-0.124047 -0.946721 0.065463
-0.070998 -0.964842 0.153131
-0.220752 -0.953804 0.08636
-0.215089 -0.939821 0.007117
0.069591 -0.942838 -0.185878
0.065006 -0.945759 -0.093999
0.130626 -0.95836 -0.154539
-0.171706 -0.95358 0.127141
0.032143 -0.956397 -0.220064
0.137561 -0.938082 -0.115039
0.172065 -0.96887 -0.041162
0.107444 -0.955168 -0.037894
0.085093 -0.956364 -0.094741
-0.01424 -0.952473 -0.199142
0.08701 -0.956294 -0.207963
-0.2488 -0.955491 0.036912
-0.214364 -0.95292 -0.054978
-0.095138 -0.955463 0.098611
0.069756 -0.958408 -0.106043
0.1068 -0.964246 -0.064612
-0.205641 -0.968382 -0.059439
-0.149705 -0.939044 0.017948
0.032804 -0.960459 -0.125337
-0.183903 -0.964158 -0.023836
-0.163402 -0.965636 0.01168
-0.152988 -0.963076 0.059445
0.13984 -0.964743 -0.11768
-0.12364 -0.962181 0.160836
-0.200636 -0.962213 0.100507
-0.228038 -0.966904 0.06745
-0.250153 -0.959357 -0.024337
-0.125284 -0.966185 0.097428
-0.100792 -0.965417 0.162527
0.00866 -0.965271 -0.160561
0.043591 -0.966282 -0.229609
-0.244414 -0.967757 0.021807
-0.237329 -0.967076 -0.044256
-0.0762 -0.966883 0.116896
-0.011152 -0.967828 -0.195521
0.002925 -0.968284 -0.216741
0.074336 -0.967757 -0.211696
0.105316 -0.966851 -0.186272
0.129537 -0.967757 -0.140792
0.143001 -0.967707 -0.092441
0.159064 -0.967762 -0.060771
0.142586 -0.967993 -0.004359
0.027065 0.71803 0.048217
0.037093 0.705002 0.01478
-0.406909 -0.100867 0.281695
0.354498 -0.13148 -0.35395
-0.397521 -0.104542 0.253449
-0.413714 -0.088908 0.278292
-0.409943 -0.044264 0.289832
0.358243 -0.095157 -0.365939
0.172589 0.428002 -0.022474
0.012998 0.351414 0.101955
0.08294 0.313408 0.043224
0.038975 0.345532 0.074036
-0.026813 0.932787 -0.078726
0.003124 0.944714 0.017497
-0.041819 0.943619 -0.03942
0.101131 0.623925 -0.035873
3 272 747 248 40 176 204
3 248 747 745 40 176 204
3 745 747 195 40 176 204
3 195 747 166 40 176 204
3 166 747 200 40 176 204
3 200 747 185 40 176 204
3 185 747 746 40 176 204
3 746 747 272 40 176 204
3 746 272 305 40 176 204
3 305 272 316 40 176 204
3 316 272 279 40 176 204
3 279 272 248 40 176 204
3 279 248 246 40 176 204
3 246 248 234 40 176 204
3 234 248 745 40 176 204
3 234 745 161 40 176 204
3 161 745 195 40 176 204
3 161 195 172 40 176 204
3 172 195 166 40 176 204
3 172 166 148 40 176 204
3 148 166 132 40 176 204
3 132 166 133 40 176 204
3 133 166 143 40 176 204
3 143 166 200 40 176 204
3 143 200 164 40 176 204
3 164 200 185 40 176 204
3 164 185 233 40 176 204
3 233 185 746 40 176 204
3 233 746 259 40 176 204
3 259 746 271 40 176 204
3 271 746 305 40 176 204
3 271 305 300 40 176 204
3 300 305 314 40 176 204
3 314 305 322 40 176 204
3 322 305 316 40 176 204
3 322 316 324 40 176 204
3 324 316 315 40 176 204
3 315 316 295 40 176 204
3 295 316 279 40 176 204
3 295 279 249 40 176 204
3 249 279 246 40 176 204
3 249 246 235 40 176 204
3 235 246 234 40 176 204
3 235 234 161 40 176 204
3 235 161 178 40 176 204
3 178 161 150 40 176 204
3 150 161 155 40 176 204
3 155 161 172 40 176 204
3 155 172 148 40 176 204
3 155 148 134 40 176 204
3 134 148 132 40 176 204
3 134 132 106 40 176 204
3 106 132 98 40 176 204
3 98 132 97 40 176 204
3 97 132 133 40 176 204
3 97 133 124 40 176 204
3 124 133 143 40 176 204
3 124 143 145 40 176 204
3 145 143 164 40 176 204
3 145 164 144 40 176 204
3 144 164 183 40 176 204
3 183 164 233 40 176 204
3 183 233 243 40 176 204
3 243 233 259 40 176 204
3 243 259 223 40 176 204
3 223 259 303 40 176 204
3 303 259 291 40 176 204
3 291 259 271 40 176 204
3 291 271 300 40 176 204
3 291 300 319 40 176 204
3 319 300 327 40 176 204
3 327 300 314 40 176 204
3 327 314 393 40 176 204
3 393 314 365 40 176 204
3 365 314 322 40 176 204
3 365 322 343 40 176 204
3 343 322 324 40 176 204
3 343 324 344 40 176 204
3 344 324 315 40 176 204
3 344 315 329 40 176 204
3 329 315 307 40 176 204
3 307 315 295 40 176 204
3 307 295 249 40 176 204
3 307 249 201 40 176 204
3 201 249 235 40 176 204
3 201 235 178 40 176 204
3 201 178 4 40 176 204
3 4 178 214 40 176 204
3 214 178 179 242 221 72
3 179 178 150 40 176 204
3 179 150 162 242 221 72
3 162 150 140 242 221 72
3 140 150 155 40 176 204
3 140 155 134 40 176 204
3 140 134 106 40 176 204
3 140 106 120 40 176 204
3 120 106 99 40 176 204
3 99 106 93 40 176 204
3 93 106 87 40 176 204
3 87 106 98 40 176 204
3 87 98 82 40 176 204
3 82 98 97 40 176 204
3 82 97 81 40 176 204
3 81 97 85 40 176 204
3 85 97 89 40 176 204
3 89 97 124 40 176 204
3 89 124 114 40 176 204
3 114 124 122 40 176 204
3 122 124 145 40 176 204
3 122 145 144 40 176 204
3 122 144 128 40 176 204
3 128 144 146 40 176 204
3 146 144 744 40 176 204
3 744 144 183 40 176 204
3 744 183 243 40 176 204
3 744 243 188 40 176 204
3 188 243 206 40 176 204
3 206 243 223 40 176 204
3 206 223 190 40 176 204
3 190 223 198 40 176 204
3 198 223 238 40 176 204
3 238 223 258 40 176 204
3 258 223 303 40 176 204
3 258 303 285 40 176 204
3 285 303 318 40 176 204
3 318 303 291 40 176 204
3 318 291 319 40 176 204
3 318 319 341 40 176 204
3 341 319 327 40 176 204
3 341 327 346 40 176 204
3 346 327 393 40 176 204
3 346 393 368 40 176 204
3 368 393 402 40 176 204
3 402 393 418 40 176 204
3 418 393 373 40 176 204
3 373 393 365 40 176 204
3 373 365 395 40 176 204
3 395 365 376 40 176 204
3 376 365 343 40 176 204
3 376 343 417 40 176 204
3 417 343 344 40 176 204
3 417 344 358 40 176 204
3 358 344 329 40 176 204
3 358 329 364 40 176 204
3 364 329 350 40 176 204
3 350 329 332 40 176 204
3 332 329 307 40 176 204
3 332 307 304 40 176 204
3 304 307 298 40 176 204
3 298 307 253 40 176 204
3 253 307 201 40 176 204
3 253 201 194 40 176 204
3 194 201 4 40 176 204
3 194 4 204 40 176 204
3 204 4 224 242 221 72
3 224 4 214 242 221 72
3 224 214 250 242 221 72
3 250 214 210 242 221 72
3 210 214 179 242 221 72
3 210 179 162 242 221 72
3 210 162 173 242 221 72
3 173 162 131 242 221 72
3 131 162 140 242 221 72
3 131 140 120 242 221 72
3 131 120 121 242 221 72
3 121 120 99 242 221 72
3 121 99 117 242 221 72
3 117 99 103 40 176 204
3 103 99 102 40 176 204
3 102 99 93 40 176 204
3 102 93 86 40 176 204
3 86 93 83 40 176 204
3 83 93 87 40 176 204
3 83 87 82 40 176 204
3 83 82 74 40 176 204
3 74 82 68 40 176 204
3 68 82 71 40 176 204
3 71 82 81 40 176 204
3 71 81 80 40 176 204
3 80 81 85 40 176 204
3 80 85 84 40 176 204
3 84 85 751 40 176 204
3 751 85 96 40 176 204
3 96 85 89 40 176 204
3 96 89 114 40 176 204
3 96 114 110 40 176 204
3 110 114 128 40 176 204
3 128 114 122 40 176 204
3 110 128 123 242 221 72
3 123 128 125 242 221 72
3 125 128 160 242 221 72
3 160 128 146 242 221 72
3 160 146 192 242 221 72
3 192 146 199 242 221 72
3 199 146 188 242 221 72
3 188 146 744 40 176 204
3 199 188 207 242 221 72
3 207 188 206 242 221 72
3 207 206 174 242 221 72
3 174 206 190 40 176 204
3 174 190 191 242 221 72
3 191 190 154 40 176 204
3 154 190 219 40 176 204
3 219 190 198 40 176 204
3 219 198 238 40 176 204
3 219 238 218 40 176 204
3 218 238 242 40 176 204
3 242 238 258 40 176 204
3 242 258 284 40 176 204
3 284 258 285 40 176 204
3 284 285 313 40 176 204
3 313 285 318 40 176 204
3 313 318 320 40 176 204
3 320 318 328 40 176 204
3 328 318 341 40 176 204
3 328 341 345 40 176 204
3 345 341 422 40 176 204
3 422 341 346 40 176 204
3 422 346 368 40 176 204
3 422 368 469 242 24 142
3 469 368 402 242 24 142
3 469 402 479 242 24 142
3 479 402 449 242 24 142
3 449 402 418 40 176 204
3 449 418 470 40 176 204
3 470 418 432 40 176 204
3 432 418 395 40 176 204
3 395 418 373 40 176 204
3 432 395 429 40 176 204
3 429 395 396 40 176 204
3 396 395 376 40 176 204
3 396 376 417 40 176 204
3 396 417 429 40 176 204
3 429 417 423 40 176 204
3 423 417 358 242 24 142
3 423 358 440 242 24 142
3 440 358 444 242 24 142
3 444 358 415 242 24 142
3 415 358 364 242 24 142
3 415 364 350 40 176 204
3 415 350 390 40 176 204
3 390 350 332 40 176 204
3 390 332 394 40 176 204
3 394 332 348 40 176 204
3 348 332 304 40 176 204
3 348 304 287 40 176 204
3 287 304 298 40 176 204
3 287 298 280 40 176 204
3 280 298 253 40 176 204
3 280 253 194 40 176 204
3 280 194 236 40 176 204
3 236 194 216 40 176 204
3 216 194 196 40 176 204
3 196 194 167 40 176 204
3 167 194 186 40 176 204
3 186 194 204 40 176 204
3 186 204 209 242 221 72
3 209 204 224 242 221 72
3 209 224 229 242 221 72
3 229 224 239 242 221 72
3 239 224 269 242 221 72
3 269 224 250 242 221 72
3 269 250 252 242 221 72
3 252 250 256 242 221 72
3 256 250 210 242 221 72
3 256 210 169 242 221 72
3 169 210 173 242 221 72
3 169 173 131 242 221 72
3 169 131 152 242 221 72
3 152 131 121 242 221 72
3 152 121 136 242 221 72
3 136 121 117 242 221 72
3 136 117 112 242 221 72
3 112 117 103 40 176 204
3 112 103 107 40 176 204
3 107 103 102 40 176 204
3 107 102 86 40 176 204
3 107 86 104 40 176 204
3 104 86 88 40 176 204
3 88 86 83 40 176 204
3 88 83 78 40 176 204
3 78 83 74 40 176 204
3 78 74 62 40 176 204
3 62 74 68 40 176 204
3 62 68 65 204 61 61
3 65 68 67 204 61 61
3 67 68 71 204 61 61
3 67 71 737 204 61 61
3 737 71 80 204 61 61
3 737 80 63 204 61 61
3 63 80 79 204 61 61
3 79 80 84 40 176 204
3 79 84 92 40 176 204
3 92 84 751 40 176 204
3 92 751 105 40 176 204
3 105 751 115 40 176 204
3 115 751 110 40 176 204
3 110 751 96 40 176 204
3 115 110 116 40 176 204
3 116 110 123 242 221 72
3 116 123 127 242 221 72
3 127 123 125 242 221 72
3 127 125 135 242 221 72
3 135 125 177 242 221 72
3 177 125 160 242 221 72
3 177 160 220 242 221 72
3 220 160 192 242 221 72
3 220 192 225 242 221 72
3 225 192 244 242 221 72
3 244 192 199 242 221 72
3 244 199 207 242 221 72
3 244 207 213 242 221 72
3 213 207 174 242 221 72
3 213 174 203 242 221 72
3 203 174 191 242 221 72
3 203 191 182 242 221 72
3 182 191 168 242 221 72
3 168 191 156 242 221 72
3 156 191 154 40 176 204
3 156 154 149 40 176 204
3 149 154 187 40 176 204
3 187 154 219 40 176 204
3 187 219 218 40 176 204
3 187 218 197 40 176 204
3 197 218 232 40 176 204
3 232 218 242 40 176 204
3 232 242 270 40 176 204
3 270 242 284 40 176 204
3 270 284 277 40 176 204
3 277 284 313 40 176 204
3 277 313 312 40 176 204
3 312 313 323 40 176 204
3 323 313 320 40 176 204
3 323 320 380 40 176 204
3 380 320 353 40 176 204
3 353 320 328 40 176 204
3 353 328 345 40 176 204
3 353 345 408 242 24 142
3 408 345 422 242 24 142
3 408 422 438 242 24 142
3 438 422 469 242 24 142
3 438 469 490 242 24 142
3 490 469 479 242 24 142
3 490 479 495 242 24 142
3 495 479 500 242 24 142
3 500 479 470 242 24 142
3 470 479 449 242 24 142
3 500 470 468 242 24 142
3 468 470 432 40 176 204
3 468 432 464 40 176 204
3 464 432 448 40 176 204
3 448 432 429 40 176 204
3 448 429 466 40 176 204
3 466 429 473 242 24 142
3 473 429 423 242 24 142
3 473 423 440 242 24 142
3 473 440 481 242 24 142
3 481 440 521 242 24 142
3 521 440 511 242 24 142
3 511 440 444 242 24 142
3 511 444 509 242 24 142
3 509 444 489 242 24 142
3 489 444 501 242 24 142
3 501 444 410 242 24 142
3 410 444 415 242 24 142
3 410 415 390 242 24 142
3 410 390 394 242 24 142
3 410 394 374 242 24 142
3 374 394 372 40 176 204
3 372 394 348 40 176 204
3 372 348 351 40 176 204
3 351 348 311 40 176 204
3 311 348 287 40 176 204
3 311 287 268 40 176 204
3 268 287 245 40 176 204
3 245 287 280 40 176 204
3 245 280 236 40 176 204
3 245 236 237 40 176 204
3 237 236 216 40 176 204
3 237 216 202 40 176 204
3 202 216 196 40 176 204
3 202 196 157 40 176 204
3 157 196 175 40 176 204
3 175 196 167 40 176 204
3 175 167 181 40 176 204
3 181 167 186 40 176 204
3 181 186 209 242 221 72
3 181 209 228 242 221 72
3 228 209 229 242 221 72
3 228 229 264 242 221 72
3 264 229 239 242 221 72
3 264 239 273 242 221 72
3 273 239 269 242 221 72
3 273 269 309 242 221 72
3 309 269 310 242 221 72
3 310 269 252 242 221 72
3 310 252 293 127 20 204
3 293 252 289 127 20 204
3 289 252 261 242 221 72
3 261 252 256 242 221 72
3 261 256 227 242 221 72
3 227 256 169 242 221 72
3 227 169 170 242 221 72
3 170 169 152 242 221 72
3 170 152 136 242 221 72
3 170 136 165 242 221 72
3 165 136 138 242 221 72
3 138 136 112 242 221 72
3 138 112 126 40 176 204
3 126 112 107 40 176 204
3 126 107 139 40 176 204
3 139 107 119 40 176 204
3 119 107 104 40 176 204
3 119 104 129 40 176 204
3 129 104 100 40 176 204
3 100 104 90 40 176 204
3 90 104 88 40 176 204
3 90 88 78 40 176 204
3 90 78 62 40 176 204
3 90 62 72 40 176 204
3 72 62 70 204 61 61
3 70 62 61 204 61 61
3 61 62 65 204 61 61
3 61 65 53 204 61 61
3 53 65 57 204 61 61
3 57 65 67 204 61 61
3 57 67 59 204 61 61
3 59 67 736 204 61 61
3 736 67 737 204 61 61
3 736 737 64 204 61 61
3 64 737 63 204 61 61
3 64 63 54 204 61 61
3 54 63 44 204 61 61
3 44 63 79 204 61 61
3 44 79 56 204 61 61
3 56 79 95 204 61 61
3 95 79 92 40 176 204
3 95 92 108 40 176 204
3 108 92 109 40 176 204
3 109 92 105 40 176 204
3 109 105 115 40 176 204
3 109 115 111 40 176 204
3 111 115 127 40 176 204
3 127 115 116 242 221 72
3 111 127 156 40 176 204
3 156 127 135 242 221 72
3 156 135 168 242 221 72
3 168 135 177 242 221 72
3 168 177 212 242 221 72
3 212 177 220 242 221 72
3 212 220 263 242 221 72
3 263 220 225 242 221 72
3 263 225 275 242 221 72
3 275 225 290 242 221 72
3 290 225 244 242 221 72
3 290 244 267 242 221 72
3 267 244 247 242 221 72
3 247 244 213 242 221 72
3 247 213 203 242 221 72
3 247 203 231 242 221 72
3 231 203 182 242 221 72
3 231 182 241 242 221 72
3 241 182 262 242 221 72
3 262 182 212 242 221 72
3 212 182 168 242 221 72
3 262 212 254 242 221 72
3 254 212 263 242 221 72
3 254 263 265 242 221 72
3 265 263 275 242 221 72
3 265 275 278 242 221 72
3 278 275 297 127 20 204
3 297 275 290 242 221 72
3 297 290 294 242 221 72
3 294 290 267 242 221 72
3 294 267 240 242 221 72
3 240 267 247 242 221 72
3 240 247 231 242 221 72
3 240 231 241 242 221 72
3 240 241 276 242 221 72
3 276 241 262 242 221 72
3 276 262 274 242 221 72
3 274 262 254 242 221 72
3 274 254 265 242 221 72
3 274 265 278 127 20 204
3 274 278 321 127 20 204
3 321 278 330 127 20 204
3 330 278 292 127 20 204
3 292 278 297 127 20 204
3 292 297 340 127 20 204
3 340 297 325 127 20 204
3 325 297 294 127 20 204
3 325 294 282 127 20 204
3 282 294 276 127 20 204
3 276 294 240 242 221 72
3 282 276 326 127 20 204
3 326 276 283 127 20 204
3 283 276 274 127 20 204
3 283 274 321 127 20 204
3 283 321 335 127 20 204
3 335 321 339 127 20 204
3 339 321 331 127 20 204
3 331 321 330 127 20 204
3 331 330 338 127 20 204
3 338 330 292 127 20 204
3 338 292 340 127 20 204
3 338 340 357 127 20 204
3 357 340 369 127 20 204
3 369 340 356 127 20 204
3 356 340 325 127 20 204
3 356 325 349 127 20 204
3 349 325 326 127 20 204
3 326 325 282 127 20 204
3 349 326 355 127 20 204
3 355 326 335 127 20 204
3 335 326 283 127 20 204
3 355 335 339 127 20 204
3 355 339 377 127 20 204
3 377 339 361 127 20 204
3 361 339 331 127 20 204
3 361 331 366 127 20 204
3 366 331 338 127 20 204
3 366 338 357 127 20 204
3 366 357 386 127 20 204
3 386 357 369 127 20 204
3 386 369 409 127 20 204
3 409 369 413 127 20 204
3 413 369 378 127 20 204
3 378 369 356 127 20 204
3 378 356 349 127 20 204
3 378 349 377 127 20 204
3 377 349 355 127 20 204
3 378 377 413 127 20 204
3 413 377 389 127 20 204
3 389 377 361 127 20 204
3 389 361 403 127 20 204
3 403 361 400 127 20 204
3 400 361 379 127 20 204
3 379 361 366 127 20 204
3 379 366 386 127 20 204
3 379 386 398 127 20 204
3 398 386 409 127 20 204
3 398 409 443 48 242 105
3 443 409 442 48 242 105
3 442 409 413 48 242 105
3 442 413 389 48 242 105
3 442 389 453 48 242 105
3 453 389 439 48 242 105
3 439 389 419 48 242 105
3 419 389 403 48 242 105
3 419 403 406 48 242 105
3 406 403 407 48 242 105
3 407 403 400 48 242 105
3 407 400 412 48 242 105
3 412 400 398 48 242 105
3 398 400 379 127 20 204
3 412 398 443 48 242 105
3 412 443 416 48 242 105
3 416 443 406 48 242 105
3 406 443 441 48 242 105
3 441 443 462 48 242 105
3 462 443 0 48 242 105
3 0 443 442 48 242 105
3 0 442 454 48 242 105
3 454 442 453 48 242 105
3 454 453 456 48 242 105
3 456 453 439 48 242 105
3 456 439 419 48 242 105
3 456 419 446 48 242 105
3 446 419 406 48 242 105
3 446 406 441 48 242 105
3 446 441 462 48 242 105
3 446 462 452 48 242 105
3 452 462 461 48 242 105
3 461 462 486 48 242 105
3 486 462 739 48 242 105
3 739 462 465 48 242 105
3 465 462 0 48 242 105
3 465 0 456 48 242 105
3 456 0 454 48 242 105
3 465 456 452 48 242 105
3 452 456 446 48 242 105
3 465 452 743 48 242 105
3 743 452 461 48 242 105
3 743 461 486 48 242 105
3 743 486 475 48 242 105
3 475 486 482 48 242 105
3 482 486 739 48 242 105
3 482 739 484 48 242 105
3 484 739 465 48 242 105
3 484 465 743 48 242 105
3 484 743 475 48 242 105
3 484 475 482 48 242 105
3 416 406 407 48 242 105
3 416 407 412 48 242 105
3 111 156 118 40 176 204
3 118 156 149 40 176 204
3 118 149 137 40 176 204
3 137 149 171 40 176 204
3 171 149 187 40 176 204
3 171 187 197 40 176 204
3 171 197 226 40 176 204
3 226 197 232 40 176 204
3 226 232 222 40 176 204
3 222 232 266 40 176 204
3 266 232 270 40 176 204
3 266 270 277 40 176 204
3 266 277 288 40 176 204
3 288 277 317 40 176 204
3 317 277 312 40 176 204
3 317 312 336 40 176 204
3 336 312 323 40 176 204
3 336 323 342 40 176 204
3 342 323 384 40 176 204
3 384 323 380 40 176 204
3 384 380 399 40 176 204
3 399 380 381 242 24 142
3 381 380 363 242 24 142
3 363 380 353 40 176 204
3 363 353 408 242 24 142
3 363 408 426 242 24 142
3 426 408 438 242 24 142
3 426 438 472 242 24 142
3 472 438 499 242 24 142
3 499 438 490 242 24 142
3 499 490 534 242 24 142
3 534 490 516 242 24 142
3 516 490 495 242 24 142
3 516 495 508 242 24 142
3 508 495 500 242 24 142
3 508 500 485 242 24 142
3 485 500 468 242 24 142
3 485 468 471 242 24 142
3 471 468 464 40 176 204
3 471 464 458 40 176 204
3 458 464 467 40 176 204
3 467 464 459 40 176 204
3 459 464 448 40 176 204
3 459 448 466 40 176 204
3 459 466 491 242 24 142
3 491 466 473 242 24 142
3 491 473 504 242 24 142
3 504 473 481 242 24 142
3 504 481 521 242 24 142
3 504 521 515 242 24 142
3 515 521 529 242 24 142
3 529 521 511 242 24 142
3 529 511 527 242 24 142
3 527 511 509 242 24 142
3 527 509 543 242 24 142
3 543 509 489 242 24 142
3 543 489 513 242 24 142
3 513 489 501 242 24 142
3 513 501 492 242 24 142
3 492 501 483 242 24 142
3 483 501 410 242 24 142
3 483 410 460 242 24 142
3 460 410 374 242 24 142
3 460 374 437 242 24 142
3 437 374 427 242 24 142
3 427 374 388 242 24 142
3 388 374 367 242 24 142
3 367 374 372 40 176 204
3 367 372 351 40 176 204
3 367 351 333 40 176 204
3 333 351 311 40 176 204
3 333 311 317 40 176 204
3 317 311 302 40 176 204
3 302 311 268 40 176 204
3 302 268 257 40 176 204
3 257 268 245 40 176 204
3 257 245 237 40 176 204
3 257 237 230 40 176 204
3 230 237 211 40 176 204
3 211 237 202 40 176 204
3 211 202 151 40 176 204
3 151 202 157 40 176 204
3 151 157 139 40 176 204
3 139 157 159 40 176 204
3 159 157 175 40 176 204
3 159 175 147 40 176 204
3 147 175 181 40 176 204
3 147 181 180 242 221 72
3 180 181 228 242 221 72
3 180 228 193 242 221 72
3 193 228 255 242 221 72
3 255 228 264 242 221 72
3 255 264 260 242 221 72
3 260 264 286 242 221 72
3 286 264 273 242 221 72
3 286 273 308 127 20 204
3 308 273 309 127 20 204
3 308 309 334 127 20 204
3 334 309 310 127 20 204
3 334 310 359 127 20 204
3 359 310 293 127 20 204
3 359 293 370 127 20 204
3 370 293 301 127 20 204
3 301 293 289 127 20 204
3 301 289 296 127 20 204
3 296 289 281 127 20 204
3 281 289 261 127 20 204
3 281 261 251 242 221 72
3 251 261 227 242 221 72
3 251 227 170 242 221 72
3 251 170 193 242 221 72
3 193 170 165 242 221 72
3 193 165 180 242 221 72
3 180 165 138 242 221 72
3 180 138 147 242 221 72
3 147 138 126 40 176 204
3 147 126 159 40 176 204
3 159 126 139 40 176 204
3 251 193 255 242 221 72
3 251 255 281 242 221 72
3 281 255 260 242 221 72
3 281 260 299 127 20 204
3 299 260 286 127 20 204
3 299 286 308 127 20 204
3 299 308 337 127 20 204
3 337 308 354 127 20 204
3 354 308 334 127 20 204
3 354 334 359 127 20 204
3 354 359 385 127 20 204
3 385 359 370 127 20 204
3 385 370 371 127 20 204
3 371 370 360 127 20 204
3 360 370 301 127 20 204
3 360 301 296 127 20 204
3 360 296 347 127 20 204
3 347 296 306 127 20 204
3 306 296 281 127 20 204
3 306 281 299 127 20 204
3 306 299 337 127 20 204
3 306 337 387 127 20 204
3 387 337 405 127 20 204
3 405 337 354 127 20 204
3 405 354 385 127 20 204
3 405 385 445 127 20 204
3 445 385 424 127 20 204
3 424 385 371 127 20 204
3 424 371 463 127 20 204
3 463 371 382 127 20 204
3 382 371 360 127 20 204
3 382 360 375 127 20 204
3 375 360 347 127 20 204
3 375 347 387 127 20 204
3 387 347 306 127 20 204
3 375 387 392 127 20 204
3 392 387 391 127 20 204
3 391 387 405 127 20 204
3 391 405 414 127 20 204
3 414 405 445 127 20 204
3 414 445 3 48 242 105
3 3 445 2 48 242 105
3 2 445 424 48 242 105
3 2 424 463 48 242 105
3 2 463 740 48 242 105
3 740 463 738 48 242 105
3 738 463 434 48 242 105
3 434 463 421 48 242 105
3 421 463 382 48 242 105
3 421 382 392 127 20 204
3 392 382 375 127 20 204
3 421 392 404 48 242 105
3 404 392 397 48 242 105
3 397 392 391 48 242 105
3 397 391 414 48 242 105
3 397 414 433 48 242 105
3 433 414 435 48 242 105
3 435 414 3 48 242 105
3 435 3 433 48 242 105
3 433 3 741 48 242 105
3 741 3 738 48 242 105
3 738 3 740 48 242 105
3 740 3 2 48 242 105
3 741 738 434 48 242 105
3 741 434 474 48 242 105
3 474 434 457 48 242 105
3 457 434 742 48 242 105
3 742 434 411 48 242 105
3 411 434 421 48 242 105
3 411 421 404 48 242 105
3 411 404 420 48 242 105
3 420 404 397 48 242 105
3 420 397 433 48 242 105
3 420 433 742 48 242 105
3 742 433 478 48 242 105
3 478 433 741 48 242 105
3 478 741 474 48 242 105
3 478 474 457 48 242 105
3 478 457 742 48 242 105
3 420 742 411 48 242 105
3 151 139 142 40 176 204
3 142 139 129 40 176 204
3 129 139 119 40 176 204
3 142 129 163 40 176 204
3 163 129 158 40 176 204
3 158 129 141 40 176 204
3 141 129 130 40 176 204
3 130 129 113 40 176 204
3 113 129 100 40 176 204
3 113 100 94 40 176 204
3 94 100 91 40 176 204
3 91 100 72 40 176 204
3 72 100 90 40 176 204
3 91 72 70 204 61 61
3 91 70 75 204 61 61
3 75 70 1 204 61 61
3 1 70 66 204 61 61
3 66 70 61 204 61 61
3 66 61 51 204 61 61
3 51 61 38 204 61 61
3 38 61 45 204 61 61
3 45 61 53 204 61 61
3 45 53 25 204 61 61
3 25 53 59 204 61 61
3 59 53 57 204 61 61
3 25 59 34 204 61 61
3 34 59 64 204 61 61
3 64 59 736 204 61 61
3 34 64 49 204 61 61
3 49 64 54 204 61 61
3 49 54 40 204 61 61
3 40 54 44 204 61 61
3 40 44 41 204 61 61
3 41 44 43 204 61 61
3 43 44 46 204 61 61
3 46 44 56 204 61 61
3 46 56 60 204 61 61
3 60 56 76 204 61 61
3 76 56 73 204 61 61
3 73 56 94 204 61 61
3 94 56 95 204 61 61
3 94 95 101 40 176 204
3 101 95 108 40 176 204
3 101 108 109 40 176 204
3 101 109 118 40 176 204
3 118 109 111 40 176 204
3 101 118 130 40 176 204
3 130 118 141 40 176 204
3 141 118 137 40 176 204
3 141 137 153 40 176 204
3 153 137 171 40 176 204
3 153 171 184 40 176 204
3 184 171 226 40 176 204
3 184 226 215 40 176 204
3 215 226 222 40 176 204
3 215 222 217 40 176 204
3 217 222 266 40 176 204
3 217 266 288 40 176 204
3 217 288 302 40 176 204
3 302 288 317 40 176 204
3 217 302 230 40 176 204
3 230 302 257 40 176 204
3 217 230 221 40 176 204
3 221 230 211 40 176 204
3 221 211 208 40 176 204
3 208 211 151 40 176 204
3 208 151 163 40 176 204
3 163 151 142 40 176 204
3 208 163 176 40 176 204
3 176 163 158 40 176 204
3 176 158 189 40 176 204
3 189 158 215 40 176 204
3 215 158 184 40 176 204
3 184 158 153 40 176 204
3 153 158 141 40 176 204
3 189 215 205 40 176 204
3 205 215 217 40 176 204
3 205 217 221 40 176 204
3 205 221 176 40 176 204
3 176 221 208 40 176 204
3 205 176 189 40 176 204
3 101 130 113 40 176 204
3 101 113 94 40 176 204
3 73 94 91 204 61 61
3 73 91 75 204 61 61
3 73 75 77 204 61 61
3 77 75 1 204 61 61
3 77 1 58 204 61 61
3 58 1 55 204 61 61
3 55 1 66 204 61 61
3 55 66 51 204 61 61
3 55 51 52 204 61 61
3 52 51 30 204 61 61
3 30 51 35 204 61 61
3 35 51 38 204 61 61
3 35 38 37 204 61 61
3 37 38 39 204 61 61
3 39 38 45 204 61 61
3 39 45 22 204 61 61
3 22 45 25 204 61 61
3 22 25 34 204 61 61
3 22 34 20 204 61 61
3 20 34 11 204 61 61
3 11 34 26 204 61 61
3 26 34 49 204 61 61
3 26 49 27 204 61 61
3 27 49 40 204 61 61
3 27 40 36 204 61 61
3 36 40 41 204 61 61
3 36 41 43 204 61 61
3 36 43 33 204 61 61
3 33 43 46 204 61 61
3 33 46 60 204 61 61
3 33 60 69 204 61 61
3 69 60 76 204 61 61
3 69 76 77 204 61 61
3 77 76 73 204 61 61
3 69 77 58 204 61 61
3 69 58 50 204 61 61
3 50 58 48 204 61 61
3 48 58 47 204 61 61
3 47 58 52 204 61 61
3 52 58 55 204 61 61
3 47 52 30 204 61 61
3 47 30 42 204 61 61
3 42 30 28 204 61 61
3 28 30 19 204 61 61
3 19 30 29 204 61 61
3 29 30 35 204 61 61
3 29 35 37 204 61 61
3 29 37 15 204 61 61
3 15 37 22 204 61 61
3 22 37 39 204 61 61
3 15 22 8 204 61 61
3 8 22 20 204 61 61
3 8 20 11 204 61 61
3 8 11 7 204 61 61
3 7 11 12 204 61 61
3 12 11 26 204 61 61
3 12 26 27 204 61 61
3 12 27 9 204 61 61
3 9 27 17 204 61 61
3 17 27 36 204 61 61
3 17 36 24 204 61 61
3 24 36 32 204 61 61
3 32 36 33 204 61 61
3 32 33 50 204 61 61
3 50 33 69 204 61 61
3 32 50 31 204 61 61
3 31 50 42 204 61 61
3 42 50 48 204 61 61
3 42 48 47 204 61 61
3 31 42 23 204 61 61
3 23 42 28 204 61 61
3 23 28 21 204 61 61
3 21 28 16 204 61 61
3 16 28 19 204 61 61
3 16 19 15 204 61 61
3 15 19 29 204 61 61
3 16 15 10 204 61 61
3 10 15 8 204 61 61
3 10 8 750 204 61 61
3 750 8 749 204 61 61
3 749 8 7 204 61 61
3 749 7 6 204 61 61
3 6 7 9 204 61 61
3 9 7 12 204 61 61
3 6 9 14 204 61 61
3 14 9 17 204 61 61
3 14 17 24 204 61 61
3 14 24 18 204 61 61
3 18 24 32 204 61 61
3 18 32 31 204 61 61
3 18 31 23 204 61 61
3 18 23 13 204 61 61
3 13 23 21 204 61 61
3 13 21 16 204 61 61
3 13 16 5 204 61 61
3 5 16 10 204 61 61
3 5 10 750 204 61 61
3 5 750 748 204 61 61
3 748 750 6 204 61 61
3 6 750 749 204 61 61
3 748 6 14 204 61 61
3 748 14 13 204 61 61
3 13 14 18 204 61 61
3 748 13 5 204 61 61
3 333 317 352 40 176 204
3 352 317 336 40 176 204
3 352 336 342 40 176 204
3 352 342 362 40 176 204
3 362 342 401 40 176 204
3 401 342 430 40 176 204
3 430 342 383 40 176 204
3 383 342 384 40 176 204
3 383 384 399 40 176 204
3 383 399 431 40 176 204
3 431 399 436 242 24 142
3 436 399 381 242 24 142
3 436 381 487 242 24 142
3 487 381 363 242 24 142
3 487 363 426 242 24 142
3 487 426 476 242 24 142
3 476 426 472 242 24 142
3 476 472 498 242 24 142
3 498 472 544 242 24 142
3 544 472 541 242 24 142
3 541 472 499 242 24 142
3 541 499 533 242 24 142
3 533 499 534 242 24 142
3 533 534 540 242 24 142
3 540 534 535 242 24 142
3 535 534 532 242 24 142
3 532 534 516 242 24 142
3 532 516 508 242 24 142
3 532 508 522 242 24 142
3 522 508 485 242 24 142
3 522 485 488 242 24 142
3 488 485 458 242 24 142
3 458 485 471 242 24 142
3 488 458 507 242 24 142
3 507 458 450 242 24 142
3 450 458 467 40 176 204
3 450 467 447 40 176 204
3 447 467 451 40 176 204
3 451 467 477 242 24 142
3 477 467 493 242 24 142
3 493 467 494 242 24 142
3 494 467 459 242 24 142
3 494 459 491 242 24 142
3 494 491 524 242 24 142
3 524 491 525 242 24 142
3 525 491 504 242 24 142
3 525 504 515 242 24 142
3 525 515 538 242 24 142
3 538 515 558 242 24 142
3 558 515 550 242 24 142
3 550 515 529 242 24 142
3 550 529 527 242 24 142
3 550 527 553 242 24 142
3 553 527 543 242 24 142
3 553 543 563 242 24 142
3 563 543 530 242 24 142
3 530 543 513 242 24 142
3 530 513 492 242 24 142
3 530 492 523 242 24 142
3 523 492 505 242 24 142
3 505 492 460 242 24 142
3 460 492 483 242 24 142
3 505 460 437 242 24 142
3 505 437 496 242 24 142
3 496 437 428 242 24 142
3 428 437 427 242 24 142
3 428 427 388 242 24 142
3 428 388 425 242 24 142
3 425 388 367 40 176 204
3 425 367 401 40 176 204
3 401 367 333 40 176 204
3 401 333 362 40 176 204
3 362 333 352 40 176 204
3 425 401 430 40 176 204
3 425 430 447 40 176 204
3 447 430 431 40 176 204
3 431 430 383 40 176 204
3 447 431 450 242 24 142
3 450 431 480 242 24 142
3 480 431 455 242 24 142
3 455 431 436 242 24 142
3 455 436 487 242 24 142
3 455 487 503 242 24 142
3 503 487 506 242 24 142
3 506 487 476 242 24 142
3 506 476 498 242 24 142
3 506 498 544 242 24 142
3 506 544 528 242 24 142
3 528 544 526 242 24 142
3 526 544 551 242 24 142
3 551 544 541 242 24 142
3 551 541 539 242 24 142
3 539 541 533 242 24 142
3 539 533 572 242 24 142
3 572 533 540 242 24 142
3 572 540 587 96 204 61
3 587 540 573 96 204 61
3 573 540 575 96 204 61
3 575 540 535 242 24 142
3 575 535 549 242 24 142
3 549 535 532 242 24 142
3 549 532 542 242 24 142
3 542 532 537 242 24 142
3 537 532 522 242 24 142
3 537 522 488 242 24 142
3 537 488 507 242 24 142
3 537 507 512 242 24 142
3 512 507 450 242 24 142
3 512 450 480 242 24 142
3 512 480 519 242 24 142
3 519 480 502 242 24 142
3 502 480 455 242 24 142
3 502 455 503 242 24 142
3 502 503 528 242 24 142
3 528 503 506 242 24 142
3 502 528 526 242 24 142
3 502 526 519 242 24 142
3 519 526 555 242 24 142
3 555 526 554 242 24 142
3 554 526 551 242 24 142
3 554 551 560 242 24 142
3 560 551 539 242 24 142
3 560 539 572 242 24 142
3 560 572 585 242 24 142
3 585 572 587 96 204 61
3 585 587 610 96 204 61
3 610 587 608 96 204 61
3 608 587 597 96 204 61
3 597 587 573 96 204 61
3 597 573 582 96 204 61
3 582 573 575 96 204 61
3 582 575 594 96 204 61
3 594 575 574 96 204 61
3 574 575 549 96 204 61
3 574 549 561 96 204 61
3 561 549 542 242 24 142
3 561 542 546 242 24 142
3 546 542 537 242 24 142
3 546 537 512 242 24 142
3 546 512 519 242 24 142
3 546 519 548 242 24 142
3 548 519 555 242 24 142
3 548 555 565 242 24 142
3 565 555 569 242 24 142
3 569 555 554 242 24 142
3 569 554 560 242 24 142
3 569 560 585 96 204 61
3 569 585 584 96 204 61
3 584 585 610 96 204 61
3 584 610 602 96 204 61
3 602 610 614 96 204 61
3 614 610 619 96 204 61
3 619 610 627 96 204 61
3 627 610 608 96 204 61
3 627 608 612 96 204 61
3 612 608 597 96 204 61
3 612 597 611 96 204 61
3 611 597 601 96 204 61
3 601 597 582 96 204 61
3 601 582 594 96 204 61
3 601 594 599 96 204 61
3 599 594 592 96 204 61
3 592 594 574 96 204 61
3 592 574 596 96 204 61
3 596 574 561 96 204 61
3 596 561 581 96 204 61
3 581 561 577 96 204 61
3 577 561 548 242 24 142
3 548 561 546 242 24 142
3 577 548 565 242 24 142
3 577 565 581 96 204 61
3 581 565 569 96 204 61
3 581 569 584 96 204 61
3 581 584 602 96 204 61
3 581 602 598 96 204 61
3 598 602 614 96 204 61
3 598 614 622 96 204 61
3 622 614 625 96 204 61
3 625 614 619 96 204 61
3 625 619 632 96 204 61
3 632 619 627 96 204 61
3 632 627 645 96 204 61
3 645 627 612 96 204 61
3 645 612 620 96 204 61
3 620 612 611 96 204 61
3 620 611 616 96 204 61
3 616 611 601 96 204 61
3 616 601 599 96 204 61
3 616 599 631 96 204 61
3 631 599 605 96 204 61
3 605 599 592 96 204 61
3 605 592 623 96 204 61
3 623 592 596 96 204 61
3 623 596 598 96 204 61
3 598 596 581 96 204 61
3 623 598 622 96 204 61
3 623 622 628 96 204 61
3 628 622 637 96 204 61
3 637 622 643 96 204 61
3 643 622 625 96 204 61
3 643 625 649 96 204 61
3 649 625 640 96 204 61
3 640 625 632 96 204 61
3 640 632 656 96 204 61
3 656 632 645 96 204 61
3 656 645 651 96 204 61
3 651 645 620 96 204 61
3 651 620 636 96 204 61
3 636 620 616 96 204 61
3 636 616 631 96 204 61
3 636 631 642 96 204 61
3 642 631 628 96 204 61
3 628 631 605 96 204 61
3 628 605 623 96 204 61
3 642 628 637 96 204 61
3 642 637 654 96 204 61
3 654 637 643 96 204 61
3 654 643 649 96 204 61
3 654 649 660 96 204 61
3 660 649 640 96 204 61
3 660 640 670 56 48 242
3 670 640 656 56 48 242
3 670 656 661 56 48 242
3 661 656 672 56 48 242
3 672 656 651 96 204 61
3 672 651 663 96 204 61
3 663 651 647 96 204 61
3 647 651 636 96 204 61
3 647 636 642 96 204 61
3 647 642 654 96 204 61
3 647 654 668 96 204 61
3 668 654 667 56 48 242
3 667 654 660 56 48 242
3 667 660 678 56 48 242
3 678 660 665 56 48 242
3 665 660 670 56 48 242
3 665 670 676 56 48 242
3 676 670 699 56 48 242
3 699 670 673 56 48 242
3 673 670 661 56 48 242
3 673 661 672 56 48 242
3 673 672 663 56 48 242
3 673 663 682 56 48 242
3 682 663 668 56 48 242
3 668 663 647 56 48 242
3 682 668 680 56 48 242
3 680 668 686 56 48 242
3 686 668 667 56 48 242
3 686 667 685 56 48 242
3 685 667 678 56 48 242
3 685 678 681 56 48 242
3 681 678 684 56 48 242
3 684 678 694 56 48 242
3 694 678 665 56 48 242
3 694 665 676 56 48 242
3 694 676 704 56 48 242
3 704 676 731 56 48 242
3 731 676 696 56 48 242
3 696 676 699 56 48 242
3 696 699 716 56 48 242
3 716 699 673 56 48 242
3 716 673 733 56 48 242
3 733 673 734 56 48 242
3 734 673 700 56 48 242
3 700 673 682 56 48 242
3 700 682 735 56 48 242
3 735 682 680 56 48 242
3 735 680 701 56 48 242
3 701 680 686 56 48 242
3 701 686 702 56 48 242
3 702 686 695 56 48 242
3 695 686 685 56 48 242
3 695 685 688 56 48 242
3 688 685 681 56 48 242
3 688 681 723 56 48 242
3 723 681 728 56 48 242
3 728 681 703 56 48 242
3 703 681 684 56 48 242
3 703 684 698 56 48 242
3 698 684 694 56 48 242
3 698 694 704 56 48 242
3 698 704 724 56 48 242
3 724 704 730 56 48 242
3 730 704 731 56 48 242
3 730 731 712 56 48 242
3 712 731 708 56 48 242
3 708 731 732 56 48 242
3 732 731 696 56 48 242
3 732 696 716 56 48 242
3 732 716 702 56 48 242
3 702 716 733 56 48 242
3 702 733 709 56 48 242
3 709 733 734 56 48 242
3 709 734 701 56 48 242
3 701 734 700 56 48 242
3 701 700 735 56 48 242
3 709 701 702 56 48 242
3 732 702 708 56 48 242
3 708 702 695 56 48 242
3 708 695 712 56 48 242
3 712 695 688 56 48 242
3 712 688 723 56 48 242
3 712 723 730 56 48 242
3 730 723 724 56 48 242
3 724 723 729 56 48 242
3 729 723 728 56 48 242
3 729 728 703 56 48 242
3 729 703 698 56 48 242
3 729 698 724 56 48 242
3 425 447 451 40 176 204
3 425 451 428 242 24 142
3 428 451 496 242 24 142
3 496 451 497 242 24 142
3 497 451 477 242 24 142
3 497 477 531 242 24 142
3 531 477 514 242 24 142
3 514 477 493 242 24 142
3 514 493 510 242 24 142
3 510 493 494 242 24 142
3 510 494 524 242 24 142
3 510 524 520 242 24 142
3 520 524 538 242 24 142
3 538 524 525 242 24 142
3 520 538 547 242 24 142
3 547 538 558 242 24 142
3 547 558 557 242 24 142
3 557 558 559 242 24 142
3 559 558 550 242 24 142
3 559 550 579 242 24 142
3 579 550 568 242 24 142
3 568 550 553 242 24 142
3 568 553 563 242 24 142
3 568 563 570 242 24 142
3 570 563 578 242 24 142
3 578 563 566 242 24 142
3 566 563 530 242 24 142
3 566 530 556 242 24 142
3 556 530 523 242 24 142
3 556 523 552 242 24 142
3 552 523 517 242 24 142
3 517 523 518 242 24 142
3 518 523 505 242 24 142
3 518 505 496 242 24 142
3 518 496 497 242 24 142
3 518 497 517 242 24 142
3 517 497 531 242 24 142
3 517 531 536 242 24 142
3 536 531 514 242 24 142
3 536 514 567 242 24 142
3 567 514 545 242 24 142
3 545 514 520 242 24 142
3 520 514 510 242 24 142
3 545 520 547 242 24 142
3 545 547 557 242 24 142
3 545 557 562 242 24 142
3 562 557 576 96 204 61
3 576 557 559 96 204 61
3 576 559 593 96 204 61
3 593 559 586 96 204 61
3 586 559 579 96 204 61
3 586 579 591 96 204 61
3 591 579 568 96 204 61
3 591 568 588 96 204 61
3 588 568 570 96 204 61
3 588 570 578 96 204 61
3 588 578 607 96 204 61
3 607 578 590 96 204 61
3 590 578 583 96 204 61
3 583 578 571 242 24 142
3 571 578 566 242 24 142
3 571 566 556 242 24 142
3 571 556 552 242 24 142
3 571 552 567 242 24 142
3 567 552 536 242 24 142
3 536 552 517 242 24 142
3 571 567 583 242 24 142
3 583 567 564 242 24 142
3 564 567 562 242 24 142
3 562 567 545 242 24 142
3 564 562 580 96 204 61
3 580 562 576 96 204 61
3 580 576 589 96 204 61
3 589 576 593 96 204 61
3 589 593 609 96 204 61
3 609 593 606 96 204 61
3 606 593 604 96 204 61
3 604 593 586 96 204 61
3 604 586 617 96 204 61
3 617 586 591 96 204 61
3 617 591 603 96 204 61
3 603 591 588 96 204 61
3 603 588 613 96 204 61
3 613 588 607 96 204 61
3 613 607 615 96 204 61
3 615 607 626 96 204 61
3 626 607 590 96 204 61
3 626 590 595 96 204 61
3 595 590 580 96 204 61
3 580 590 583 96 204 61
3 580 583 564 96 204 61
3 595 580 589 96 204 61
3 595 589 600 96 204 61
3 600 589 609 96 204 61
3 600 609 624 96 204 61
3 624 609 635 96 204 61
3 635 609 606 96 204 61
3 635 606 644 96 204 61
3 644 606 618 96 204 61
3 618 606 604 96 204 61
3 618 604 617 96 204 61
3 618 617 629 96 204 61
3 629 617 634 96 204 61
3 634 617 603 96 204 61
3 634 603 613 96 204 61
3 634 613 638 96 204 61
3 638 613 615 96 204 61
3 638 615 630 96 204 61
3 630 615 626 96 204 61
3 630 626 633 96 204 61
3 633 626 595 96 204 61
3 633 595 621 96 204 61
3 621 595 600 96 204 61
3 621 600 624 96 204 61
3 621 624 635 96 204 61
3 621 635 641 96 204 61
3 641 635 662 96 204 61
3 662 635 644 96 204 61
3 662 644 655 96 204 61
3 655 644 646 96 204 61
3 646 644 618 96 204 61
3 646 618 629 96 204 61
3 646 629 639 96 204 61
3 639 629 634 96 204 61
3 639 634 638 96 204 61
3 639 638 658 96 204 61
3 658 638 650 96 204 61
3 650 638 630 96 204 61
3 650 630 633 96 204 61
3 650 633 648 96 204 61
3 648 633 641 96 204 61
3 641 633 621 96 204 61
3 648 641 653 96 204 61
3 653 641 662 96 204 61
3 653 662 687 56 48 242
3 687 662 666 56 48 242
3 666 662 655 96 204 61
3 666 655 659 96 204 61
3 659 655 646 96 204 61
3 659 646 639 96 204 61
3 659 639 658 96 204 61
3 659 658 652 96 204 61
3 652 658 650 96 204 61
3 652 650 657 96 204 61
3 657 650 648 96 204 61
3 657 648 669 56 48 242
3 669 648 664 56 48 242
3 664 648 653 56 48 242
3 664 653 687 56 48 242
3 664 687 707 56 48 242
3 707 687 727 56 48 242
3 727 687 691 56 48 242
3 691 687 675 56 48 242
3 675 687 666 56 48 242
3 675 666 717 56 48 242
3 717 666 671 56 48 242
3 671 666 659 56 48 242
3 671 659 652 56 48 242
3 671 652 657 56 48 242
3 671 657 679 56 48 242
3 679 657 674 56 48 242
3 674 657 677 56 48 242
3 677 657 669 56 48 242
3 677 669 683 56 48 242
3 683 669 711 56 48 242
3 711 669 664 56 48 242
3 711 664 690 56 48 242
3 690 664 707 56 48 242
3 690 707 721 56 48 242
3 721 707 727 56 48 242
3 721 727 717 56 48 242
3 717 727 722 56 48 242
3 722 727 691 56 48 242
3 722 691 675 56 48 242
3 722 675 717 56 48 242
3 721 717 718 56 48 242
3 718 717 697 56 48 242
3 697 717 671 56 48 242
3 697 671 679 56 48 242
3 697 679 692 56 48 242
3 692 679 674 56 48 242
3 692 674 705 56 48 242
3 705 674 693 56 48 242
3 693 674 677 56 48 242
3 693 677 683 56 48 242
3 693 683 706 56 48 242
3 706 683 689 56 48 242
3 689 683 711 56 48 242
3 689 711 713 56 48 242
3 713 711 714 56 48 242
3 714 711 690 56 48 242
3 714 690 715 56 48 242
3 715 690 721 56 48 242
3 715 721 718 56 48 242
3 715 718 719 56 48 242
3 719 718 692 56 48 242
3 692 718 697 56 48 242
3 719 692 705 56 48 242
3 719 705 725 56 48 242
3 725 705 720 56 48 242
3 720 705 693 56 48 242
3 720 693 706 56 48 242
3 720 706 726 56 48 242
3 726 706 710 56 48 242
3 710 706 689 56 48 242
3 710 689 713 56 48 242
3 710 713 726 56 48 242
3 726 713 725 56 48 242
3 725 713 714 56 48 242
3 725 714 719 56 48 242
3 719 714 715 56 48 242
3 726 725 720 56 48 242
