ply
format ascii 1.0
element vertex 752
property float x
property float y
property float z
element face 1500
property list uchar int vertex_indices
property uchar red
property uchar green
property uchar blue
end_header
-0.431114 0.0142 0.152188
-0.164021 -0.95177 -0.037075
0.007144 0.991689 0.026299
-0.037291 0.99323 -0.017921
0.019376 1.00028 -0.032733
-0.026632 0.984066 -0.080677
-0.078364 0.966258 -0.066437
-0.037409 0.94564 0.062818
0.073129 0.970346 -0.049031
0.060909 0.983481 0.037086
-0.004799 0.94547 -0.111149
-0.048132 0.953377 -0.106038
0.108621 0.944176 0.005923
-0.073334 0.922245 0.032482
-0.099785 0.916616 -0.031654
0.078672 0.964676 0.047869
-0.093774 0.908339 -0.084509
0.074824 0.917083 -0.080148
0.087275 0.871406 0.062998
-0.068824 0.900307 -0.110274
-0.019922 0.875533 -0.119931
0.10288 0.896942 -0.048426
-0.091628 0.868494 -0.067766
-0.082244 0.880543 0.015256
0.030902 0.876907 -0.106962
0.048877 0.906856 0.083238
-0.000701 0.950303 0.078576
-0.047907 0.888611 0.064274
0.082954 0.834644 -0.047797
0.1092 0.8696 0.030741
-0.101808 0.846007 -0.121798
-0.112406 0.834795 -0.043747
0.082778 0.826091 -0.071587
0.070104 0.859709 -0.070589
0.106053 0.830086 0.009414
-0.06558 0.833132 -0.117605
-0.01955 0.821112 -0.129394
0.038216 0.822756 0.088678
0.081173 0.80452 0.04044
-0.099506 0.823607 -0.090443
0.090383 0.797421 0.002186
-0.065874 0.823854 0.034586
-0.092679 0.792477 -0.110439
0.06115 0.812781 -0.07713
0.044555 0.821335 -0.101946
-0.095755 0.794088 0.010622
-0.073087 0.755453 -0.12105
-0.007031 0.81618 0.074685
0.041527 0.747468 -0.082809
0.033384 0.757188 0.07331
-0.052873 0.760002 0.045815
0.088536 0.75224 0.028597
-0.093742 0.739577 -0.099245
-0.014327 0.760502 0.069854
-0.111266 0.776419 -0.045947
0.003846 0.743863 0.0963
-0.008831 0.767657 -0.119394
-0.053877 0.737289 0.093394
-0.057419 0.733519 0.048983
0.091413 0.748005 -0.026608
-0.003186 0.70978 -0.079498
-0.044843 0.730566 0.133512
-0.073762 0.723351 -0.009232
0.019613 0.711165 0.133182
-0.046994 0.69957 -0.054165
-0.077172 0.70633 0.026657
0.063141 0.718042 -0.068892
0.17072 0.701641 -0.087826
0.037028 0.691542 -0.079468
0.102428 0.728454 0.060585
-0.111956 0.70915 0.112022
-0.068111 0.67577 0.194451
-0.128533 0.671215 0.19593
0.065003 0.740871 0.083021
0.159225 0.715348 -0.02922
-0.174626 0.677317 0.163821
0.209728 0.672861 -0.143268
-0.193325 0.671633 0.110822
0.126968 0.711667 -0.083045
0.154811 0.693289 0.02701
0.098034 0.686264 0.092238
-0.119283 0.662812 0.029207
0.137779 0.68982 -0.119655
-0.061781 0.67131 -0.020885
-0.002985 0.662113 -0.071121
0.200691 0.675609 -0.013617
0.194934 0.655088 -0.177324
-0.073047 0.627751 -0.047896
0.059036 0.649234 0.152161
0.247687 0.609049 -0.182366
0.230149 0.664877 -0.095993
0.159566 0.645966 -0.184517
-0.17728 0.630694 0.05218
-0.011261 0.668378 0.186442
0.202162 0.625922 0.040697
0.28173 0.58971 -0.131724
0.057842 0.6717 -0.104899
0.204495 0.577259 -0.208801
0.255786 0.616922 -0.044279
-0.158652 0.604152 -0.003586
-0.072656 0.614103 0.231382
-0.01106 0.630437 -0.099676
0.08959 0.641121 -0.149899
0.114563 0.603801 -0.193158
-0.21875 0.629151 0.183253
-0.209713 0.600872 0.071809
-0.092341 0.57433 -0.085588
-0.227887 0.615847 0.127788
0.135454 0.559076 -0.210693
0.229716 0.583695 0.024558
0.106716 0.590354 0.117885
-0.172569 0.588476 0.242047
-0.210918 0.573658 0.02838
-0.240011 0.563513 0.201304
0.286746 0.577204 -0.082393
0.266764 0.550281 -0.028556
0.02641 0.581128 -0.176506
-0.229982 0.547673 0.085727
-0.153255 0.542302 -0.072914
-0.056769 0.571561 -0.117305
0.073543 0.468102 0.166257
-0.086689 0.567633 0.244434
0.020424 0.586771 0.206912
-0.154823 0.54902 0.255429
0.288264 0.496211 -0.18742
0.292686 0.496835 -0.097789
-0.216049 0.509791 0.244096
0.214168 0.563977 0.054875
-0.111602 0.521951 0.227503
-0.000753 0.538661 0.221447
0.263706 0.480072 -0.212824
-0.211347 0.515926 -0.040707
-0.190146 0.452653 0.254705
-0.25592 0.521939 0.150355
0.109514 0.484178 0.128135
-0.011235 0.411739 0.208386
-0.174339 0.500408 -0.090745
0.007189 0.459612 -0.247114
0.300351 0.487038 -0.147984
0.225499 0.504562 0.036261
0.115428 0.504877 -0.231339
-0.04422 0.512907 -0.187523
-0.018771 0.492417 -0.221105
0.254232 0.491453 -0.034069
0.062624 0.397484 0.172511
0.156289 0.441335 0.099951
0.266043 0.52509 -0.06352
-0.238901 0.520241 0.056776
0.088623 0.533697 -0.230483
-0.076763 0.440213 -0.179246
0.239913 0.457346 -0.074837
-0.219903 0.455838 0.110846
0.168068 0.504433 -0.224809
-0.115791 0.462103 0.213781
-0.245182 0.465905 -0.041399
0.150166 0.456876 -0.204022
0.242242 0.457063 -0.051721
-0.26453 0.475754 0.215682
-0.135911 0.493111 0.244365
-0.26646 0.443308 0.141818
-0.164866 0.456293 -0.103273
-0.113486 0.461745 -0.137239
-0.123467 0.421031 0.197583
0.162486 0.412069 -0.182221
0.233632 0.431528 -0.000134
-0.290214 0.400778 0.192064
-0.248109 0.448277 0.035315
-0.17304 0.416854 0.247926
-0.251607 0.400384 0.138417
0.15266 0.427105 -0.201245
0.265562 0.387547 -0.108622
-0.077117 0.412828 0.213683
-0.226791 0.413071 0.084737
-0.242547 0.426941 -0.009974
0.206518 0.37692 0.03808
0.221461 0.468367 -0.234487
0.225642 0.420776 -0.081519
-0.205982 0.423235 -0.057064
0.062131 0.426615 -0.243562
0.13641 0.396551 -0.202768
-0.146198 0.400356 0.173992
-0.09537 0.405577 -0.194272
-0.131779 0.443417 0.212138
-0.200139 0.407814 0.134169
-0.049623 0.431577 -0.196435
0.284782 0.402178 -0.215253
0.214668 0.400338 -0.09859
-0.304615 0.370975 0.238027
0.034883 0.388793 -0.212081
0.185149 0.436784 -0.233393
0.300582 0.355329 -0.177576
0.106285 0.400568 0.127202
-0.282045 0.365046 0.177937
-0.172229 0.391967 0.157889
0.168215 0.374378 -0.154581
-0.238829 0.370879 0.147782
0.229306 0.395536 -0.0523
-0.211953 0.383266 0.039649
-0.260397 0.39661 0.247769
-0.179951 0.376131 0.234104
-0.200382 0.399339 -0.087478
0.290086 0.411434 -0.13977
0.127566 0.364042 -0.177824
-0.179341 0.390738 -0.140577
0.030845 0.340649 -0.205494
-0.174354 0.360734 0.128513
-0.170568 0.369722 0.20292
0.27335 0.368177 -0.134686
-0.217448 0.359896 -0.103111
-0.045514 0.345118 0.19296
-0.313232 0.365205 0.218078
0.238733 0.356557 -0.126125
0.192136 0.360558 -0.11901
-0.236916 0.346773 0.268817
-0.211941 0.372187 -0.017023
-0.300507 0.33993 0.187883
0.179819 0.407709 -0.227147
0.200831 0.338522 0.01274
-0.117942 0.332183 0.167478
-0.209211 0.339365 0.261623
0.305855 0.318605 -0.238388
-0.047241 0.354869 -0.221869
0.215951 0.345192 -0.015341
0.040417 0.341142 0.17271
-0.213849 0.336671 -0.01791
0.253533 0.372738 -0.249333
0.176218 0.317899 -0.128502
-0.186569 0.329269 0.199449
0.115161 0.316206 -0.182753
0.1639 0.353717 0.075157
0.16997 0.373461 -0.192419
-0.334012 0.295245 0.260771
0.206744 0.326081 -0.04088
0.237427 0.333833 -0.24657
-0.195476 0.343427 0.075067
0.193767 0.319321 -0.095723
-0.226856 0.345932 0.160101
0.189456 0.328261 -0.177561
-0.152884 0.31397 -0.200074
-0.209719 0.292112 0.243022
0.29827 0.342248 -0.253025
-0.023633 0.274225 0.192129
-0.168975 0.317347 0.124139
-0.244051 0.306043 0.177326
0.300958 0.322787 -0.181301
0.199341 0.296088 -0.111636
0.241054 0.32504 -0.142663
-0.279777 0.281444 0.175927
0.314882 0.276868 -0.26872
-0.231116 0.271927 0.193607
0.295459 0.301273 -0.168541
0.2148 0.266735 -0.023776
0.143345 0.314603 0.083765
-0.165629 0.246006 -0.205115
-0.229502 0.292818 -0.094779
0.091495 0.321666 0.112098
0.105589 0.240915 -0.20375
-0.339744 0.301517 0.202995
-0.095951 0.298458 -0.235964
0.169372 0.269356 -0.165054
-0.02919 0.279378 -0.241025
0.204266 0.284203 -0.206176
0.255594 0.299974 -0.285154
0.294794 0.298947 -0.28507
0.327121 0.249265 -0.23275
0.045185 0.266506 0.152894
0.232071 0.251628 -0.17321
0.096083 0.25201 0.092426
-0.357213 0.279422 0.235541
0.225389 0.234541 -0.091571
0.161339 0.264285 0.05793
0.222165 0.210822 0.00015
-0.097221 0.270298 0.191052
0.28799 0.24489 -0.303036
-0.209469 0.272714 -0.155808
0.199623 0.230587 -0.147321
0.319564 0.195387 -0.304594
-0.358517 0.202393 0.270514
-0.241602 0.222483 0.233283
-0.224955 0.261316 0.030792
-0.20332 0.222294 0.115958
-0.032242 0.206166 0.199748
0.219057 0.258943 -0.256412
-0.187204 0.183332 -0.180275
0.161219 0.20459 -0.179921
-0.344265 0.233472 0.195326
-0.320783 0.216641 0.282142
0.147482 0.203186 0.076809
0.084653 0.216538 0.106115
-0.156826 0.231673 0.170831
0.245899 0.194869 -0.202202
0.21853 0.209663 -0.227441
0.27715 0.230953 -0.175369
0.120619 0.194673 0.100732
0.040914 0.209917 0.160033
-0.132499 0.196328 -0.23196
-0.386323 0.182154 0.256845
0.191289 0.262084 0.028895
-0.260074 0.206618 0.208829
-0.209769 0.141667 0.036341
-0.054007 0.183927 -0.25317
-0.26624 0.222218 0.267061
0.33271 0.189291 -0.262994
0.315445 0.192778 -0.224488
-0.21483 0.124431 -0.136828
-0.225974 0.164305 -0.069454
0.236018 0.199333 -0.043319
-0.342117 0.186008 0.193352
0.254866 0.2027 -0.308244
-0.19529 0.196662 0.125147
0.110209 0.169053 0.131193
0.302307 0.121215 -0.263699
0.183501 0.141795 0.075655
0.042473 0.163653 0.182251
0.250445 0.152064 -0.238211
0.224317 0.169759 -0.106392
-0.384315 0.18953 0.218026
0.003062 0.15529 -0.240429
0.222773 0.137811 0.010986
-0.080968 0.172054 0.198738
-0.32507 0.169698 0.198672
0.240831 0.174515 -0.299788
-0.15428 0.174231 -0.198843
0.206186 0.114632 -0.12776
0.230777 0.137355 -0.037586
-0.304387 0.156878 0.218675
0.268503 0.144163 -0.345384
0.24314 0.126341 -0.285635
0.268054 0.104311 -0.273583
-0.147185 0.122468 -0.203468
0.288587 0.169403 -0.332182
0.302943 0.084721 -0.368309
-0.167482 0.14162 0.137921
-0.098387 0.17037 -0.2495
0.114819 0.10599 0.150712
-0.411875 0.105004 0.2578
-0.052743 0.13503 0.200871
0.035649 0.124853 0.198775
0.154943 0.141744 -0.1682
-0.43552 0.087478 0.206826
-0.388284 0.08117 0.203336
-0.215664 0.095389 -0.071152
0.070978 0.103128 -0.19768
-0.195038 0.126116 0.059246
0.322923 0.115683 -0.313656
-0.062968 0.120921 -0.244898
0.292708 0.086141 -0.287868
0.228249 0.104306 0.04405
-0.08617 0.0753 -0.221291
0.181025 0.078407 -0.156347
-0.157353 0.090535 -0.178962
0.060087 0.134685 -0.216252
-0.12038 0.118857 0.178039
-0.393459 0.118439 0.195381
-0.319211 0.13923 0.25231
-0.430277 0.104567 0.229001
0.191046 0.110426 0.089204
0.269156 0.061894 -0.386246
-0.193395 0.087549 -0.009523
0.107665 0.076522 -0.198047
-0.369844 0.100952 0.26059
0.23717 0.087852 -0.067021
-0.022361 0.088603 -0.22722
-0.41412 0.077281 0.186434
-0.436375 0.075809 0.243764
-0.178245 0.060978 -0.067192
0.011587 0.091754 0.217371
-0.370025 0.081378 0.226944
0.272592 0.060201 -0.311299
0.253936 0.058435 -0.340627
-0.204873 0.069812 0.007869
-0.187675 0.070923 -0.132866
-0.209865 0.079587 0.068638
-0.123966 0.06282 -0.174573
0.242172 0.0837 -0.011233
-0.174594 0.090655 0.13478
-0.39315 0.066353 0.262042
0.070531 0.014241 0.197747
-0.207365 0.049565 0.099202
-0.059236 0.05655 -0.194304
-0.106962 0.073619 0.209316
-0.150033 0.071994 0.176855
0.252373 0.07471 -0.357212
-0.046289 0.044776 -0.185638
0.208193 0.003242 -0.129088
-0.152446 0.048332 -0.118638
0.129885 0.057164 0.147652
0.21662 0.025366 -0.387032
-0.17762 0.041762 -0.066946
0.051867 0.066167 -0.202465
-0.466141 0.03182 0.233473
-0.112591 0.032024 -0.152584
-0.033029 0.041926 0.232928
0.30088 0.045852 -0.320476
-0.15044 0.038338 -0.106183
0.26188 0.03095 -0.330364
-0.400095 0.022843 0.271531
-0.389757 0.04171 0.215337
0.238563 0.016078 -0.410582
0.23183 0.003258 -0.067494
-0.43327 0.036052 0.157689
-0.382054 0.025475 0.237472
-0.411841 0.022791 0.164236
0.315103 0.04752 -0.3375
-0.169276 0.005734 -0.10546
0.229556 0.01481 0.042321
-0.181998 0.050135 0.143555
-0.201713 0.01682 -0.024344
0.005459 0.065262 -0.198046
-0.4546 0.03246 0.169851
-0.401423 -0.008407 0.263239
-0.467411 0.038743 0.194797
-0.407483 0.014789 0.231988
0.130269 0.044537 -0.200527
0.291797 0.006645 -0.407163
-0.451635 0.004418 0.185814
0.222374 0.006884 -0.359359
0.035644 0.000767 0.213766
-0.467343 -0.026343 0.137364
-0.423869 0.002222 0.231442
-0.205917 -0.026779 0.117262
0.293311 -0.009888 -0.318662
0.238334 0.013521 0.000914
-0.436942 -0.025001 0.232768
-0.473895 -0.018183 0.19252
-0.461746 -0.003926 0.16736
0.204578 0.018781 0.093747
0.240086 -0.01406 -0.394122
-0.444439 -0.016752 0.135137
-0.062001 0.002222 -0.189704
-0.220727 0.04058 0.053417
0.304951 -0.047063 -0.398327
0.218368 -0.015254 -0.415823
-0.181676 -0.044393 0.152578
-0.462211 -0.014052 0.247123
0.202179 -0.01641 -0.393013
0.123383 -1.2e-05 0.148196
-0.143053 0.001413 0.188556
-0.484545 -0.011907 0.198272
0.275251 -0.030135 -0.369265
-0.462774 -0.028172 0.152171
0.08287 0.020543 -0.212329
-0.436629 -0.016603 0.264924
0.227048 -0.031694 -0.411092
0.166911 -0.037253 -0.181079
0.168271 -0.044937 0.09874
-0.460024 -0.032775 0.21493
0.32377 -0.033962 -0.351965
0.257241 -0.026926 -0.411016
0.308514 -0.044055 -0.331523
-0.07738 -0.02978 0.21836
-0.489541 -0.053963 0.223615
-0.472497 -0.051708 0.190994
0.195841 -0.03639 -0.397959
0.191764 -0.045551 -0.418721
-0.423078 -0.039135 0.273132
0.28006 -0.056104 -0.384735
0.290597 -0.054887 -0.360738
0.267357 -0.052774 -0.389338
-0.126361 -0.069943 0.196834
-0.491248 -0.0225 0.214637
0.276684 -0.045676 -0.427167
-0.02085 -0.059988 -0.196413
-0.453189 -0.036801 0.262079
0.328402 -0.060632 -0.355224
0.213554 -0.058093 0.045533
0.316908 -0.056489 -0.374286
-0.125966 -0.055571 -0.152429
0.03671 -0.037991 -0.211056
0.093342 -0.044447 -0.214724
0.227616 -0.072532 -0.064686
-0.223335 -0.031189 0.056209
-0.17883 -0.061291 -0.076113
0.258653 -0.070585 -0.407045
0.099836 -0.05069 0.121603
0.307576 -0.078955 -0.395753
0.05556 -0.063468 0.167082
-0.509159 -0.086563 0.189911
0.071616 -0.083133 0.079829
-0.485596 -0.076234 0.189701
0.148382 -0.104569 0.063571
0.284479 -0.082349 -0.423662
-0.041404 -0.076129 0.209716
0.301905 -0.086957 -0.409047
-0.192106 -0.164167 0.1163
0.057519 -0.0984 0.059737
0.05096 -0.09868 0.10522
0.018522 -0.085473 0.178634
-0.13511 -0.091558 -0.130354
0.262002 -0.08888 -0.416822
0.219663 -0.083865 -0.007272
0.086157 -0.122037 0.071053
-0.083393 -0.085669 -0.169461
0.21408 -0.078662 -0.117998
0.187601 -0.08931 0.046245
-0.107645 -0.121253 -0.112446
0.007666 -0.094728 -0.193066
-0.044958 -0.136301 0.19008
-0.170379 -0.099439 -0.062779
-0.074382 -0.117954 -0.144068
-0.0354 -0.121084 -0.156662
-0.114694 -0.134917 0.188856
-0.059016 -0.133561 -0.079709
-0.116653 -0.120067 -0.090753
0.054098 -0.119476 0.064953
0.006633 -0.181933 -0.171414
-0.218702 -0.051992 -0.008224
-0.18442 -0.096391 -0.046451
0.187905 -0.140721 -0.144176
0.156737 -0.142319 0.048322
0.133245 -0.119298 -0.195292
-0.195522 -0.18741 -0.000893
-0.034035 -0.195699 -0.098429
0.006443 -0.141132 0.167257
-0.072649 -0.184228 -0.067473
0.201147 -0.147632 -0.006824
0.097816 -0.179872 0.063598
0.050392 -0.197393 0.071486
-0.128104 -0.156577 -0.068054
-0.054984 -0.133096 -0.125089
-0.216878 -0.131272 0.048605
0.048865 -0.169074 0.111816
-0.183643 -0.254215 0.083774
0.208733 -0.16063 -0.06503
0.193443 -0.241825 -0.082293
0.063811 -0.20101 0.056551
-0.162207 -0.136672 0.157435
0.053494 -0.162759 -0.204335
-0.087103 -0.236221 -0.049604
-0.101 -0.206779 0.17892
0.055082 -0.235774 0.048896
-0.026092 -0.218646 -0.043974
0.033797 -0.277858 0.115058
-0.144082 -0.247612 -0.028165
0.094075 -0.166364 -0.203838
-0.165834 -0.245351 0.120137
0.0561 -0.246618 -0.184095
-0.021191 -0.23877 -0.082925
-0.011824 -0.244309 -0.037206
0.155535 -0.250122 -0.150081
0.160478 -0.210466 0.039006
0.10392 -0.251173 0.05435
0.198317 -0.228222 -0.018831
0.042942 -0.248851 0.05873
0.010132 -0.226703 0.157674
-0.184935 -0.250686 0.021453
0.047882 -0.278517 0.031861
-0.038089 -0.260954 0.181911
0.116565 -0.286977 -0.165227
0.031657 -0.316183 0.069942
0.031369 -0.284786 0.045008
0.072478 -0.336913 -0.1463
0.012937 -0.267754 -0.146185
0.004144 -0.277962 -0.0148
0.102227 -0.33006 0.037764
0.009552 -0.3257 -0.010763
0.027239 -0.361126 -0.116189
-0.111419 -0.284791 0.157961
-0.013703 -0.346104 0.152484
0.176961 -0.292548 -0.088187
0.024125 -0.346795 0.008121
0.167665 -0.309283 0.007326
0.184707 -0.306747 -0.043898
-0.027905 -0.257437 -0.02894
0.143879 -0.34235 -0.120144
-0.144234 -0.350711 0.09759
0.022803 -0.311221 0.03813
0.056096 -0.314703 0.03517
0.024555 -0.367125 0.107339
-0.066711 -0.350585 0.164902
-0.143875 -0.339054 0.024988
0.167029 -0.350125 -0.01016
0.106932 -0.408167 -0.124196
-0.013375 -0.318993 -0.000603
0.136211 -0.396468 0.012812
0.004828 -0.349889 -0.083425
0.030048 -0.404245 -0.033252
0.067538 -0.401182 -0.128838
0.169493 -0.423461 -0.08175
-0.088236 -0.364823 -0.002562
0.032909 -0.404293 0.068441
-0.124916 -0.380222 0.131281
-0.051703 -0.393861 0.019248
-0.11542 -0.406711 0.022401
0.020098 -0.444672 0.095475
0.063719 -0.398207 0.036973
0.002512 -0.436678 0.038844
0.084159 -0.442225 0.027704
-0.050741 -0.42122 0.173517
0.175404 -0.422817 -0.012956
-0.131383 -0.418678 0.06451
-0.098167 -0.398653 0.152966
0.200259 -0.482735 -0.021647
0.05205 -0.466451 0.002438
0.0796 -0.474351 -0.106156
-0.083928 -0.429386 0.020337
-0.010588 -0.419478 0.155096
0.052998 -0.45781 -0.076841
-0.110251 -0.482446 0.056998
0.016991 -0.483713 0.076846
0.126183 -0.491166 0.04708
0.110336 -0.479459 -0.111145
-0.064292 -0.469981 0.038803
-0.10893 -0.45277 0.158129
0.009011 -0.476494 0.164692
0.179493 -0.502655 0.028292
-0.125457 -0.461448 0.098914
-0.081887 -0.542511 0.05299
0.115931 -0.55885 -0.108662
-0.001436 -0.514069 0.053657
-0.037105 -0.50265 0.200998
0.074251 -0.473307 0.023243
-0.126301 -0.564926 0.082577
0.005549 -0.559755 0.184639
0.14622 -0.517064 -0.109018
0.192816 -0.526073 -0.080841
0.026012 -0.489297 0.11382
-0.035075 -0.510265 0.043103
0.07724 -0.541152 -0.074795
0.210648 -0.574881 -0.041879
0.052292 -0.517523 -0.014537
0.054179 -0.611639 -0.027349
0.13808 -0.569379 0.060252
-0.080702 -0.627506 0.191683
0.200826 -0.577216 0.013862
0.040361 -0.558181 0.102362
-0.038349 -0.58251 0.201545
-0.130448 -0.544762 0.153127
-0.089 -0.526465 0.194105
0.038571 -0.629187 0.106653
0.080662 -0.598907 0.050764
0.010689 -0.60347 0.059308
-0.09782 -0.647472 0.072726
0.117512 -0.602089 0.063191
-0.034888 -0.606273 0.048505
0.192401 -0.676141 -0.05856
0.171413 -0.644749 0.033184
-0.109176 -0.673024 0.158044
0.031206 -0.597039 0.160167
0.179415 -0.621316 -0.090473
0.091254 -0.765621 -0.04645
-0.123551 -0.658413 0.106266
0.052458 -0.615898 0.015522
-0.012422 -0.664756 0.063916
0.139159 -0.635951 -0.102731
-0.029939 -0.712986 0.175175
0.153561 -0.7644 -0.071867
0.10091 -0.665439 -0.083043
0.196026 -0.695071 -0.022062
0.076326 -0.698974 -8.4e-05
-0.067376 -0.759777 0.167763
0.099563 -0.690848 0.027848
0.17368 -0.786549 -0.025815
0.137142 -0.690006 0.036134
-0.106832 -0.75999 0.120686
0.168944 -0.762643 0.009709
0.000815 -0.709341 0.099108
0.096858 -0.796481 -0.012982
0.002802 -0.705422 0.141051
-0.041372 -0.783188 0.074668
-0.084143 -0.754843 0.076363
0.137204 -0.827737 -0.072785
0.110471 -0.801984 -0.068805
-0.075376 -0.816817 0.067355
-0.038224 -0.809652 0.153792
-0.09809 -0.827422 0.115532
-0.011447 -0.84619 0.125418
-0.100481 -0.846761 0.073923
-0.016556 -0.793767 0.146853
0.124736 -0.812424 0.023424
-0.047379 -0.849371 0.062425
0.080369 -0.866267 -0.017282
0.142371 -0.843318 0.016588
-0.075999 -0.84414 0.145079
0.101599 -0.867233 -0.090719
0.070711 -0.879898 -0.076328
0.113155 -0.862407 0.005671
-0.01219 -0.887034 0.123365
-0.091354 -0.878272 0.040946
0.158859 -0.867314 -0.040149
0.126609 -0.874798 0.025845
-0.124098 -0.876422 0.0686
-0.019426 -0.858305 0.139997
-0.155573 -0.907551 -0.00202
0.142483 -0.885265 -0.077069
0.118518 -0.900238 -0.128572
0.142002 -0.886947 0.024068
0.071317 -0.902508 -0.146607
-0.059492 -0.8991 0.14395
-0.205039 -0.929669 0.045449
0.155645 -0.906986 -0.022763
0.043005 -0.929631 -0.108317
0.087595 -0.932282 -0.207409
-0.096759 -0.921784 0.020026
0.016953 -0.935291 -0.201922
0.107011 -0.908451 0.006931
0.149746 -0.934463 -0.088499
0.168029 -0.943063 0.016677
-0.065543 -0.920969 0.1451
0.120908 -0.93862 -0.210282
-0.213155 -0.936736 0.072533
0.029746 -0.921983 -0.159796
-0.190819 -0.932396 -0.028502
-0.07696 -0.935825 0.042798
-0.041936 -0.946973 0.160341
-0.227326 -0.941297 -0.055469
-0.159725 -0.930175 -0.032355
-0.163972 -0.924157 0.09757
-0.108962 -0.888118 0.116359
0.13936 -0.942012 -0.17491
-0.017735 -0.928968 0.162873
0.074637 -0.921426 -0.041775
0.071618 -0.938836 -0.069625
-0.100448 -0.943966 0.029664
-0.23933 -0.942642 0.027098
0.153085 -0.943257 -0.12562
0.126339 -0.948084 0.041998
-0.049451 -0.918596 0.063595
-0.120475 -0.943003 0.123556
-0.212017 -0.952175 0.075862
-0.236503 -0.944408 -0.030208
-0.200027 -0.956653 -0.067993
-0.123823 -0.947243 0.004532
0.04984 -0.944946 -0.110011
0.010429 -0.941333 -0.233013
-0.053153 -0.946073 0.065366
-0.224842 -0.948526 0.060957
0.086872 -0.950553 -0.233594
0.001297 -0.939439 0.11887
0.018573 -0.940599 -0.156254
0.150016 -0.952851 -0.099518
-0.091719 -0.941784 0.139341
0.090719 -0.954742 -0.086782
-0.158526 -0.945892 0.110144
-0.184436 -0.953391 0.092279
-0.134565 -0.951573 -0.00754
-0.004832 -0.948855 0.117285
-0.245635 -0.951364 0.009732
-0.244216 -0.956087 -0.031689
0.020709 -0.957392 -0.228674
0.047547 -0.9506 -0.248589
0.114914 -0.951071 -0.21556
0.140246 -0.949895 -0.171257
0.160631 -0.954161 -0.026428
0.160695 -0.957039 0.002839
-0.027091 -0.950232 0.084873
-0.012268 -0.954979 0.152063
0.093849 -0.956988 -0.001568
0.096624 -0.958286 -0.067808
-0.243509 -0.951837 0.032529
0.027522 -0.955418 -0.147655
0.010028 -0.958251 -0.186791
3 744 716 747 56 48 242
3 747 716 695 56 48 242
3 695 716 680 56 48 242
3 680 716 686 56 48 242
3 686 716 697 56 48 242
3 697 716 744 56 48 242
3 697 744 743 56 48 242
3 743 744 747 56 48 242
3 743 747 748 56 48 242
3 748 747 712 56 48 242
3 712 747 711 56 48 242
3 711 747 695 56 48 242
3 711 695 671 56 48 242
3 671 695 676 96 204 61
3 676 695 680 56 48 242
3 676 680 669 96 204 61
3 669 680 672 96 204 61
3 672 680 686 56 48 242
3 672 686 690 56 48 242
3 690 686 697 56 48 242
3 690 697 696 56 48 242
3 696 697 743 56 48 242
3 696 743 730 56 48 242
3 730 743 748 56 48 242
3 730 748 732 56 48 242
3 732 748 712 56 48 242
3 732 712 723 56 48 242
3 723 712 691 56 48 242
3 691 712 711 56 48 242
3 691 711 675 56 48 242
3 675 711 671 56 48 242
3 675 671 640 96 204 61
3 640 671 657 96 204 61
3 657 671 676 96 204 61
3 657 676 669 96 204 61
3 657 669 651 96 204 61
3 651 669 653 96 204 61
3 653 669 655 96 204 61
3 655 669 672 96 204 61
3 655 672 652 96 204 61
3 652 672 679 96 204 61
3 679 672 690 56 48 242
3 679 690 684 56 48 242
3 684 690 696 56 48 242
3 684 696 685 56 48 242
3 685 696 709 56 48 242
3 709 696 715 56 48 242
3 715 696 730 56 48 242
3 715 730 732 56 48 242
3 715 732 742 56 48 242
3 742 732 723 56 48 242
3 742 723 750 56 48 242
3 750 723 691 56 48 242
3 750 691 729 56 48 242
3 729 691 701 56 48 242
3 701 691 675 56 48 242
3 701 675 687 56 48 242
3 687 675 674 56 48 242
3 674 675 662 96 204 61
3 662 675 640 96 204 61
3 662 640 647 96 204 61
3 647 640 621 96 204 61
3 621 640 649 96 204 61
3 649 640 657 96 204 61
3 649 657 651 96 204 61
3 649 651 642 96 204 61
3 642 651 630 96 204 61
3 630 651 633 96 204 61
3 633 651 653 96 204 61
3 633 653 636 96 204 61
3 636 653 655 96 204 61
3 636 655 648 96 204 61
3 648 655 652 96 204 61
3 648 652 635 96 204 61
3 635 652 646 96 204 61
3 646 652 661 96 204 61
3 661 652 679 96 204 61
3 661 679 684 56 48 242
3 661 684 674 56 48 242
3 674 684 685 56 48 242
3 674 685 687 56 48 242
3 687 685 692 56 48 242
3 692 685 709 56 48 242
3 692 709 699 56 48 242
3 699 709 741 56 48 242
3 741 709 742 56 48 242
3 742 709 715 56 48 242
3 741 742 750 56 48 242
3 741 750 727 56 48 242
3 727 750 751 56 48 242
3 751 750 729 56 48 242
3 751 729 694 56 48 242
3 694 729 701 56 48 242
3 694 701 687 56 48 242
3 694 687 692 56 48 242
3 694 692 740 56 48 242
3 740 692 727 56 48 242
3 727 692 699 56 48 242
3 727 699 741 56 48 242
3 740 727 739 56 48 242
3 739 727 751 56 48 242
3 739 751 724 56 48 242
3 724 751 694 56 48 242
3 724 694 740 56 48 242
3 724 740 739 56 48 242
3 661 674 662 96 204 61
3 661 662 646 96 204 61
3 646 662 647 96 204 61
3 646 647 644 96 204 61
3 644 647 608 96 204 61
3 608 647 618 96 204 61
3 618 647 621 96 204 61
3 618 621 620 96 204 61
3 620 621 642 96 204 61
3 642 621 649 96 204 61
3 620 642 611 96 204 61
3 611 642 630 96 204 61
3 611 630 600 96 204 61
3 600 630 622 96 204 61
3 622 630 633 96 204 61
3 622 633 636 96 204 61
3 622 636 624 96 204 61
3 624 636 648 96 204 61
3 624 648 619 96 204 61
3 619 648 635 96 204 61
3 619 635 639 96 204 61
3 639 635 646 96 204 61
3 639 646 644 96 204 61
3 639 644 614 96 204 61
3 614 644 608 96 204 61
3 614 608 601 96 204 61
3 601 608 594 96 204 61
3 594 608 618 96 204 61
3 594 618 597 96 204 61
3 597 618 620 96 204 61
3 597 620 593 96 204 61
3 593 620 611 96 204 61
3 593 611 587 96 204 61
3 587 611 600 96 204 61
3 587 600 574 96 204 61
3 574 600 605 96 204 61
3 605 600 622 96 204 61
3 605 622 624 96 204 61
3 605 624 592 96 204 61
3 592 624 619 96 204 61
3 592 619 615 96 204 61
3 615 619 639 96 204 61
3 615 639 614 96 204 61
3 615 614 578 96 204 61
3 578 614 601 96 204 61
3 578 601 572 242 24 142
3 572 601 594 242 24 142
3 572 594 577 242 24 142
3 577 594 597 242 24 142
3 577 597 556 242 24 142
3 556 597 576 242 24 142
3 576 597 593 242 24 142
3 576 593 555 242 24 142
3 555 593 560 242 24 142
3 560 593 585 242 24 142
3 585 593 587 242 24 142
3 585 587 554 242 24 142
3 554 587 574 242 24 142
3 554 574 561 242 24 142
3 561 574 571 242 24 142
3 571 574 589 242 24 142
3 589 574 605 96 204 61
3 589 605 592 96 204 61
3 589 592 578 96 204 61
3 578 592 615 96 204 61
3 589 578 571 242 24 142
3 571 578 562 242 24 142
3 562 578 559 242 24 142
3 559 578 564 242 24 142
3 564 578 572 242 24 142
3 564 572 551 242 24 142
3 551 572 577 242 24 142
3 551 577 556 242 24 142
3 551 556 552 242 24 142
3 552 556 575 242 24 142
3 575 556 576 242 24 142
3 575 576 555 242 24 142
3 575 555 537 242 24 142
3 537 555 538 242 24 142
3 538 555 553 242 24 142
3 553 555 546 242 24 142
3 546 555 567 242 24 142
3 567 555 560 242 24 142
3 567 560 585 242 24 142
3 567 585 554 242 24 142
3 567 554 541 242 24 142
3 541 554 561 242 24 142
3 541 561 540 242 24 142
3 540 561 542 242 24 142
3 542 561 562 242 24 142
3 562 561 571 242 24 142
3 542 562 524 242 24 142
3 524 562 559 242 24 142
3 524 559 539 242 24 142
3 539 559 564 242 24 142
3 539 564 548 242 24 142
3 548 564 551 242 24 142
3 548 551 536 242 24 142
3 536 551 552 242 24 142
3 536 552 505 242 24 142
3 505 552 512 242 24 142
3 512 552 537 242 24 142
3 537 552 575 242 24 142
3 512 537 531 242 24 142
3 531 537 538 242 24 142
3 531 538 563 242 24 142
3 563 538 553 242 24 142
3 563 553 573 242 24 142
3 573 553 566 242 24 142
3 566 553 550 242 24 142
3 550 553 546 242 24 142
3 550 546 543 242 24 142
3 543 546 530 242 24 142
3 530 546 541 242 24 142
3 541 546 567 242 24 142
3 530 541 525 242 24 142
3 525 541 516 242 24 142
3 516 541 540 242 24 142
3 516 540 509 242 24 142
3 509 540 515 242 24 142
3 515 540 542 242 24 142
3 515 542 523 242 24 142
3 523 542 524 242 24 142
3 523 524 508 242 24 142
3 508 524 539 242 24 142
3 508 539 510 242 24 142
3 510 539 534 242 24 142
3 534 539 548 242 24 142
3 534 548 536 242 24 142
3 534 536 527 242 24 142
3 527 536 505 242 24 142
3 527 505 496 242 24 142
3 496 505 500 242 24 142
3 500 505 519 242 24 142
3 519 505 512 242 24 142
3 519 512 502 242 24 142
3 502 512 531 242 24 142
3 502 531 514 242 24 142
3 514 531 528 242 24 142
3 528 531 563 242 24 142
3 528 563 579 242 24 142
3 579 563 573 242 24 142
3 579 573 582 242 24 142
3 582 573 586 242 24 142
3 586 573 566 242 24 142
3 586 566 580 242 24 142
3 580 566 549 242 24 142
3 549 566 550 242 24 142
3 549 550 543 242 24 142
3 549 543 532 242 24 142
3 532 543 517 242 24 142
3 517 543 530 242 24 142
3 517 530 525 242 24 142
3 517 525 504 242 24 142
3 504 525 491 242 24 142
3 491 525 516 242 24 142
3 491 516 509 242 24 142
3 491 509 480 242 24 142
3 480 509 494 40 176 204
3 494 509 515 242 24 142
3 494 515 490 40 176 204
3 490 515 470 40 176 204
3 470 515 523 242 24 142
3 470 523 493 242 24 142
3 493 523 508 242 24 142
3 493 508 444 242 24 142
3 444 508 510 242 24 142
3 444 510 469 242 24 142
3 469 510 534 242 24 142
3 469 534 527 242 24 142
3 469 527 468 242 24 142
3 468 527 496 242 24 142
3 468 496 462 40 176 204
3 462 496 492 40 176 204
3 492 496 500 40 176 204
3 492 500 499 40 176 204
3 499 500 519 40 176 204
3 499 519 495 40 176 204
3 495 519 502 40 176 204
3 495 502 503 40 176 204
3 503 502 514 242 24 142
3 503 514 518 242 24 142
3 518 514 528 242 24 142
3 518 528 533 242 24 142
3 533 528 579 242 24 142
3 533 579 570 242 24 142
3 570 579 583 242 24 142
3 583 579 595 242 24 142
3 595 579 582 242 24 142
3 595 582 602 242 24 142
3 602 582 586 242 24 142
3 602 586 617 242 24 142
3 617 586 609 96 204 61
3 609 586 599 242 24 142
3 599 586 580 242 24 142
3 599 580 584 242 24 142
3 584 580 568 242 24 142
3 568 580 549 242 24 142
3 568 549 532 242 24 142
3 568 532 558 242 24 142
3 558 532 544 242 24 142
3 544 532 521 242 24 142
3 521 532 517 242 24 142
3 521 517 504 242 24 142
3 521 504 486 242 24 142
3 486 504 485 40 176 204
3 485 504 491 40 176 204
3 485 491 478 40 176 204
3 478 491 480 40 176 204
3 478 480 474 40 176 204
3 474 480 445 40 176 204
3 445 480 465 40 176 204
3 465 480 494 40 176 204
3 465 494 490 40 176 204
3 465 490 422 40 176 204
3 422 490 470 40 176 204
3 422 470 399 40 176 204
3 399 470 384 40 176 204
3 384 470 493 40 176 204
3 384 493 444 40 176 204
3 384 444 349 40 176 204
3 349 444 413 40 176 204
3 413 444 469 40 176 204
3 413 469 441 40 176 204
3 441 469 468 40 176 204
3 441 468 408 40 176 204
3 408 468 429 40 176 204
3 429 468 462 40 176 204
3 429 462 492 40 176 204
3 429 492 467 40 176 204
3 467 492 488 40 176 204
3 488 492 499 40 176 204
3 488 499 495 40 176 204
3 488 495 503 40 176 204
3 488 503 498 40 176 204
3 498 503 518 242 24 142
3 498 518 507 242 24 142
3 507 518 511 242 24 142
3 511 518 533 242 24 142
3 511 533 545 242 24 142
3 545 533 570 242 24 142
3 545 570 565 242 24 142
3 565 570 590 242 24 142
3 590 570 583 242 24 142
3 590 583 598 242 24 142
3 598 583 595 242 24 142
3 598 595 602 242 24 142
3 598 602 607 96 204 61
3 607 602 617 96 204 61
3 607 617 634 96 204 61
3 634 617 631 96 204 61
3 631 617 609 96 204 61
3 631 609 625 96 204 61
3 625 609 599 96 204 61
3 625 599 616 96 204 61
3 616 599 584 242 24 142
3 616 584 604 96 204 61
3 604 584 596 242 24 142
3 596 584 558 242 24 142
3 558 584 568 242 24 142
3 596 558 588 242 24 142
3 588 558 569 242 24 142
3 569 558 547 242 24 142
3 547 558 544 242 24 142
3 547 544 497 242 24 142
3 497 544 513 242 24 142
3 513 544 521 242 24 142
3 513 521 487 242 24 142
3 487 521 486 242 24 142
3 487 486 476 40 176 204
3 476 486 474 40 176 204
3 474 486 478 40 176 204
3 478 486 485 40 176 204
3 476 474 436 40 176 204
3 436 474 445 40 176 204
3 436 445 426 40 176 204
3 426 445 465 40 176 204
3 426 465 405 40 176 204
3 405 465 422 40 176 204
3 405 422 347 40 176 204
3 347 422 374 40 176 204
3 374 422 361 40 176 204
3 361 422 399 40 176 204
3 361 399 384 40 176 204
3 361 384 323 40 176 204
3 323 384 349 40 176 204
3 323 349 338 40 176 204
3 338 349 359 40 176 204
3 359 349 413 40 176 204
3 359 413 441 40 176 204
3 359 441 389 40 176 204
3 389 441 408 40 176 204
3 389 408 342 40 176 204
3 342 408 351 40 176 204
3 351 408 362 40 176 204
3 362 408 379 40 176 204
3 379 408 383 40 176 204
3 383 408 429 40 176 204
3 383 429 391 40 176 204
3 391 429 467 40 176 204
3 391 467 404 40 176 204
3 404 467 488 40 176 204
3 404 488 472 40 176 204
3 472 488 498 40 176 204
3 472 498 507 40 176 204
3 472 507 506 242 24 142
3 506 507 511 242 24 142
3 506 511 520 242 24 142
3 520 511 545 242 24 142
3 520 545 522 242 24 142
3 522 545 565 242 24 142
3 522 565 535 242 24 142
3 535 565 557 242 24 142
3 557 565 581 242 24 142
3 581 565 590 242 24 142
3 581 590 603 242 24 142
3 603 590 606 242 24 142
3 606 590 598 242 24 142
3 606 598 612 96 204 61
3 612 598 607 96 204 61
3 612 607 632 96 204 61
3 632 607 634 96 204 61
3 632 634 660 96 204 61
3 660 634 643 96 204 61
3 643 634 631 96 204 61
3 643 631 629 96 204 61
3 629 631 625 96 204 61
3 629 625 638 96 204 61
3 638 625 616 96 204 61
3 638 616 604 96 204 61
3 638 604 613 96 204 61
3 613 604 610 96 204 61
3 610 604 596 96 204 61
3 610 596 588 96 204 61
3 610 588 628 96 204 61
3 628 588 603 96 204 61
3 603 588 591 242 24 142
3 591 588 569 242 24 142
3 591 569 581 242 24 142
3 581 569 557 242 24 142
3 557 569 529 242 24 142
3 529 569 547 242 24 142
3 529 547 497 242 24 142
3 529 497 501 242 24 142
3 501 497 459 242 24 142
3 459 497 482 242 24 142
3 482 497 513 242 24 142
3 482 513 487 242 24 142
3 482 487 417 40 176 204
3 417 487 476 40 176 204
3 417 476 377 40 176 204
3 377 476 436 40 176 204
3 377 436 386 40 176 204
3 386 436 426 40 176 204
3 386 426 356 40 176 204
3 356 426 347 40 176 204
3 347 426 405 40 176 204
3 356 347 312 40 176 204
3 312 347 318 40 176 204
3 318 347 374 40 176 204
3 318 374 324 40 176 204
3 324 374 361 40 176 204
3 324 361 315 40 176 204
3 315 361 323 40 176 204
3 315 323 275 40 176 204
3 275 323 284 40 176 204
3 284 323 338 40 176 204
3 284 338 351 40 176 204
3 351 338 342 40 176 204
3 342 338 359 40 176 204
3 342 359 389 40 176 204
3 284 351 256 40 176 204
3 256 351 260 40 176 204
3 260 351 317 40 176 204
3 317 351 362 40 176 204
3 317 362 345 40 176 204
3 345 362 348 40 176 204
3 348 362 379 40 176 204
3 348 379 373 40 176 204
3 373 379 391 40 176 204
3 391 379 383 40 176 204
3 373 391 385 40 176 204
3 385 391 394 40 176 204
3 394 391 404 40 176 204
3 394 404 388 40 176 204
3 388 404 407 40 176 204
3 407 404 472 40 176 204
3 407 472 506 40 176 204
3 407 506 430 40 176 204
3 430 506 471 40 176 204
3 471 506 520 242 24 142
3 471 520 420 242 24 142
3 420 520 484 242 24 142
3 484 520 522 242 24 142
3 484 522 535 242 24 142
3 484 535 526 242 24 142
3 526 535 529 242 24 142
3 529 535 557 242 24 142
3 526 529 501 242 24 142
3 526 501 459 242 24 142
3 526 459 433 242 24 142
3 433 459 437 242 24 142
3 437 459 450 242 24 142
3 450 459 482 242 24 142
3 450 482 392 40 176 204
3 392 482 417 40 176 204
3 392 417 366 40 176 204
3 366 417 377 40 176 204
3 366 377 337 40 176 204
3 337 377 334 40 176 204
3 334 377 386 40 176 204
3 334 386 356 40 176 204
3 334 356 312 40 176 204
3 334 312 310 40 176 204
3 310 312 293 40 176 204
3 293 312 287 40 176 204
3 287 312 297 40 176 204
3 297 312 271 40 176 204
3 271 312 318 40 176 204
3 271 318 306 40 176 204
3 306 318 324 40 176 204
3 306 324 315 40 176 204
3 306 315 269 40 176 204
3 269 315 275 40 176 204
3 269 275 245 40 176 204
3 245 275 259 40 176 204
3 259 275 284 40 176 204
3 259 284 256 40 176 204
3 259 256 228 40 176 204
3 228 256 260 40 176 204
3 228 260 204 40 176 204
3 204 260 221 40 176 204
3 221 260 258 40 176 204
3 258 260 333 40 176 204
3 333 260 300 40 176 204
3 300 260 317 40 176 204
3 300 317 345 40 176 204
3 300 345 333 40 176 204
3 333 345 348 40 176 204
3 333 348 329 40 176 204
3 329 348 350 40 176 204
3 350 348 373 40 176 204
3 350 373 371 40 176 204
3 371 373 385 40 176 204
3 371 385 365 40 176 204
3 365 385 394 40 176 204
3 365 394 388 40 176 204
3 365 388 370 40 176 204
3 370 388 407 40 176 204
3 370 407 430 40 176 204
3 370 430 372 40 176 204
3 372 430 378 40 176 204
3 378 430 471 40 176 204
3 378 471 420 40 176 204
3 378 420 406 40 176 204
3 406 420 437 40 176 204
3 437 420 433 242 24 142
3 433 420 484 242 24 142
3 433 484 526 242 24 142
3 406 437 381 40 176 204
3 381 437 380 40 176 204
3 380 437 450 40 176 204
3 380 450 392 40 176 204
3 380 392 336 40 176 204
3 336 392 366 40 176 204
3 336 366 337 40 176 204
3 336 337 313 40 176 204
3 313 337 334 40 176 204
3 313 334 310 40 176 204
3 313 310 294 40 176 204
3 294 310 288 40 176 204
3 288 310 293 40 176 204
3 288 293 287 40 176 204
3 288 287 267 40 176 204
3 267 287 270 40 176 204
3 270 287 297 40 176 204
3 270 297 229 40 176 204
3 229 297 217 40 176 204
3 217 297 251 40 176 204
3 251 297 271 40 176 204
3 251 271 306 40 176 204
3 251 306 269 40 176 204
3 251 269 232 40 176 204
3 232 269 245 40 176 204
3 232 245 235 40 176 204
3 235 245 226 40 176 204
3 226 245 259 40 176 204
3 226 259 228 40 176 204
3 226 228 212 40 176 204
3 212 228 202 40 176 204
3 202 228 204 40 176 204
3 202 204 188 40 176 204
3 188 204 221 40 176 204
3 188 221 184 40 176 204
3 184 221 181 40 176 204
3 181 221 258 40 176 204
3 181 258 238 40 176 204
3 238 258 253 40 176 204
3 253 258 295 40 176 204
3 295 258 333 40 176 204
3 295 333 329 40 176 204
3 295 329 322 40 176 204
3 322 329 283 40 176 204
3 283 329 304 40 176 204
3 304 329 350 40 176 204
3 304 350 371 40 176 204
3 304 371 341 40 176 204
3 341 371 365 40 176 204
3 341 365 358 40 176 204
3 358 365 370 40 176 204
3 358 370 343 40 176 204
3 343 370 372 40 176 204
3 343 372 332 40 176 204
3 332 372 375 40 176 204
3 375 372 378 40 176 204
3 375 378 406 40 176 204
3 375 406 381 40 176 204
3 375 381 352 40 176 204
3 352 381 380 40 176 204
3 352 380 336 40 176 204
3 352 336 319 40 176 204
3 319 336 281 40 176 204
3 281 336 313 40 176 204
3 281 313 294 40 176 204
3 281 294 241 40 176 204
3 241 294 265 40 176 204
3 265 294 288 40 176 204
3 265 288 267 40 176 204
3 265 267 255 40 176 204
3 255 267 252 40 176 204
3 252 267 270 40 176 204
3 252 270 229 40 176 204
3 252 229 145 40 176 204
3 145 229 174 40 176 204
3 174 229 217 40 176 204
3 174 217 222 40 176 204
3 222 217 232 40 176 204
3 232 217 251 40 176 204
3 222 232 235 40 176 204
3 222 235 196 40 176 204
3 196 235 212 40 176 204
3 212 235 226 40 176 204
3 196 212 186 40 176 204
3 186 212 194 40 176 204
3 194 212 202 40 176 204
3 194 202 179 40 176 204
3 179 202 188 40 176 204
3 179 188 178 40 176 204
3 178 188 137 40 176 204
3 137 188 184 40 176 204
3 137 184 142 40 176 204
3 142 184 149 40 176 204
3 149 184 181 40 176 204
3 149 181 161 40 176 204
3 161 181 203 40 176 204
3 203 181 238 40 176 204
3 203 238 274 40 176 204
3 274 238 253 40 176 204
3 274 253 283 40 176 204
3 283 253 322 40 176 204
3 322 253 295 40 176 204
3 274 283 304 40 176 204
3 274 304 254 40 176 204
3 254 304 305 40 176 204
3 305 304 341 40 176 204
3 305 341 299 40 176 204
3 299 341 358 40 176 204
3 299 358 343 40 176 204
3 299 343 309 40 176 204
3 309 343 332 40 176 204
3 309 332 289 40 176 204
3 289 332 319 40 176 204
3 319 332 352 40 176 204
3 352 332 375 40 176 204
3 289 319 272 40 176 204
3 272 319 281 40 176 204
3 272 281 241 40 176 204
3 272 241 209 40 176 204
3 209 241 223 40 176 204
3 223 241 265 40 176 204
3 223 265 255 40 176 204
3 223 255 144 40 176 204
3 144 255 191 40 176 204
3 191 255 252 40 176 204
3 191 252 145 40 176 204
3 191 145 134 40 176 204
3 134 145 110 40 176 204
3 110 145 127 40 176 204
3 127 145 139 40 176 204
3 139 145 174 40 176 204
3 139 174 164 40 176 204
3 164 174 222 40 176 204
3 164 222 196 40 176 204
3 164 196 156 40 176 204
3 156 196 176 40 176 204
3 176 196 186 40 176 204
3 176 186 170 242 221 72
3 170 186 211 242 221 72
3 211 186 230 242 221 72
3 230 186 163 242 221 72
3 163 186 194 40 176 204
3 163 194 179 40 176 204
3 163 179 169 40 176 204
3 169 179 178 40 176 204
3 169 178 140 40 176 204
3 140 178 148 40 176 204
3 148 178 137 40 176 204
3 148 137 142 40 176 204
3 148 142 116 40 176 204
3 116 142 141 40 176 204
3 141 142 149 40 176 204
3 141 149 161 40 176 204
3 141 161 119 40 176 204
3 119 161 106 40 176 204
3 106 161 136 40 176 204
3 136 161 160 40 176 204
3 160 161 200 40 176 204
3 200 161 203 40 176 204
3 200 203 208 40 176 204
3 208 203 274 40 176 204
3 208 274 254 40 176 204
3 208 254 224 40 176 204
3 224 254 279 40 176 204
3 279 254 305 40 176 204
3 279 305 299 40 176 204
3 279 299 280 40 176 204
3 280 299 309 40 176 204
3 280 309 289 40 176 204
3 280 289 242 40 176 204
3 242 289 218 40 176 204
3 218 289 272 40 176 204
3 218 272 209 40 176 204
3 218 209 171 40 176 204
3 171 209 135 40 176 204
3 135 209 223 40 176 204
3 135 223 144 40 176 204
3 135 144 129 40 176 204
3 129 144 120 40 176 204
3 120 144 191 40 176 204
3 120 191 134 40 176 204
3 120 134 110 40 176 204
3 120 110 122 40 176 204
3 122 110 88 40 176 204
3 88 110 80 40 176 204
3 80 110 94 40 176 204
3 94 110 127 40 176 204
3 94 127 109 40 176 204
3 109 127 115 40 176 204
3 115 127 139 40 176 204
3 115 139 143 40 176 204
3 143 139 164 40 176 204
3 143 164 156 40 176 204
3 143 156 150 40 176 204
3 150 156 176 40 176 204
3 150 176 170 242 221 72
3 150 170 146 242 221 72
3 146 170 125 242 221 72
3 125 170 201 242 221 72
3 201 170 207 242 221 72
3 207 170 211 242 221 72
3 207 211 246 242 221 72
3 246 211 237 242 221 72
3 237 211 230 242 221 72
3 237 230 261 242 221 72
3 261 230 216 242 221 72
3 216 230 163 242 221 72
3 216 163 169 242 221 72
3 216 169 189 242 221 72
3 189 169 155 242 221 72
3 155 169 140 40 176 204
3 155 140 108 40 176 204
3 108 140 148 40 176 204
3 108 148 103 40 176 204
3 103 148 116 40 176 204
3 103 116 102 40 176 204
3 102 116 96 40 176 204
3 96 116 101 40 176 204
3 101 116 119 40 176 204
3 119 116 141 40 176 204
3 101 119 87 40 176 204
3 87 119 106 40 176 204
3 87 106 118 40 176 204
3 118 106 136 40 176 204
3 118 136 131 40 176 204
3 131 136 154 40 176 204
3 154 136 160 40 176 204
3 154 160 177 40 176 204
3 177 160 200 40 176 204
3 177 200 214 40 176 204
3 214 200 208 40 176 204
3 214 208 224 40 176 204
3 214 224 234 40 176 204
3 234 224 279 40 176 204
3 234 279 280 40 176 204
3 234 280 242 40 176 204
3 234 242 205 40 176 204
3 205 242 218 40 176 204
3 205 218 180 40 176 204
3 180 218 162 40 176 204
3 162 218 171 40 176 204
3 162 171 153 40 176 204
3 153 171 135 40 176 204
3 153 135 121 40 176 204
3 121 135 129 40 176 204
3 121 129 122 40 176 204
3 122 129 120 40 176 204
3 121 122 100 40 176 204
3 100 122 93 40 176 204
3 93 122 88 40 176 204
3 93 88 63 40 176 204
3 63 88 73 40 176 204
3 73 88 80 40 176 204
3 73 80 69 40 176 204
3 69 80 79 40 176 204
3 79 80 94 40 176 204
3 79 94 85 40 176 204
3 85 94 98 40 176 204
3 98 94 109 40 176 204
3 98 109 114 40 176 204
3 114 109 115 40 176 204
3 114 115 146 40 176 204
3 146 115 143 40 176 204
3 146 143 150 40 176 204
3 114 146 125 242 221 72
3 114 125 138 242 221 72
3 138 125 201 242 221 72
3 138 201 124 242 221 72
3 124 201 185 242 221 72
3 185 201 190 242 221 72
3 190 201 207 242 221 72
3 190 207 244 242 221 72
3 244 207 250 242 221 72
3 250 207 246 242 221 72
3 250 246 292 242 221 72
3 292 246 266 242 221 72
3 266 246 237 242 221 72
3 266 237 261 242 221 72
3 266 261 291 127 20 204
3 291 261 282 127 20 204
3 282 261 233 242 221 72
3 233 261 216 242 221 72
3 233 216 225 242 221 72
3 225 216 189 242 221 72
3 225 189 175 242 221 72
3 175 189 152 242 221 72
3 152 189 155 242 221 72
3 152 155 108 242 221 72
3 152 108 97 242 221 72
3 97 108 91 242 221 72
3 91 108 103 40 176 204
3 91 103 102 40 176 204
3 91 102 82 40 176 204
3 82 102 96 40 176 204
3 82 96 78 40 176 204
3 78 96 66 40 176 204
3 66 96 68 40 176 204
3 68 96 84 40 176 204
3 84 96 101 40 176 204
3 84 101 87 40 176 204
3 84 87 83 40 176 204
3 83 87 81 40 176 204
3 81 87 99 40 176 204
3 99 87 118 40 176 204
3 99 118 131 40 176 204
3 99 131 112 40 176 204
3 112 131 147 40 176 204
3 147 131 154 40 176 204
3 147 154 166 40 176 204
3 166 154 173 40 176 204
3 173 154 177 40 176 204
3 173 177 197 40 176 204
3 197 177 214 40 176 204
3 197 214 234 40 176 204
3 197 234 205 40 176 204
3 197 205 172 40 176 204
3 172 205 183 40 176 204
3 183 205 193 242 221 72
3 193 205 180 40 176 204
3 193 180 206 242 221 72
3 206 180 182 242 221 72
3 182 180 162 40 176 204
3 182 162 153 40 176 204
3 182 153 158 242 221 72
3 158 153 128 242 221 72
3 128 153 121 40 176 204
3 128 121 158 242 221 72
3 158 121 123 242 221 72
3 123 121 111 242 221 72
3 111 121 100 40 176 204
3 111 100 72 40 176 204
3 72 100 71 40 176 204
3 71 100 93 40 176 204
3 71 93 61 40 176 204
3 61 93 63 40 176 204
3 61 63 55 40 176 204
3 55 63 49 40 176 204
3 49 63 73 40 176 204
3 49 73 51 40 176 204
3 51 73 69 40 176 204
3 51 69 79 40 176 204
3 51 79 74 40 176 204
3 74 79 85 40 176 204
3 74 85 90 40 176 204
3 90 85 98 40 176 204
3 90 98 114 40 176 204
3 90 114 95 242 221 72
3 95 114 138 242 221 72
3 95 138 124 242 221 72
3 95 124 89 242 221 72
3 89 124 97 242 221 72
3 97 124 130 242 221 72
3 130 124 185 242 221 72
3 130 185 225 242 221 72
3 225 185 240 242 221 72
3 240 185 220 242 221 72
3 220 185 190 242 221 72
3 220 190 244 242 221 72
3 220 244 264 242 221 72
3 264 244 250 242 221 72
3 264 250 303 127 20 204
3 303 250 292 127 20 204
3 303 292 311 127 20 204
3 311 292 314 127 20 204
3 314 292 290 127 20 204
3 290 292 266 127 20 204
3 290 266 291 127 20 204
3 290 291 314 127 20 204
3 314 291 327 127 20 204
3 327 291 321 127 20 204
3 321 291 282 127 20 204
3 321 282 308 127 20 204
3 308 282 262 127 20 204
3 262 282 233 127 20 204
3 262 233 225 242 221 72
3 262 225 263 242 221 72
3 263 225 240 242 221 72
3 263 240 248 127 20 204
3 248 240 220 242 221 72
3 248 220 264 127 20 204
3 248 264 302 127 20 204
3 302 264 303 127 20 204
3 302 303 311 127 20 204
3 302 311 344 127 20 204
3 344 311 346 127 20 204
3 346 311 328 127 20 204
3 328 311 314 127 20 204
3 328 314 327 127 20 204
3 328 327 368 127 20 204
3 368 327 369 127 20 204
3 369 327 382 127 20 204
3 382 327 321 127 20 204
3 382 321 326 127 20 204
3 326 321 308 127 20 204
3 326 308 330 127 20 204
3 330 308 273 127 20 204
3 273 308 262 127 20 204
3 273 262 263 127 20 204
3 273 263 248 127 20 204
3 273 248 276 127 20 204
3 276 248 302 127 20 204
3 276 302 344 127 20 204
3 276 344 331 127 20 204
3 331 344 403 127 20 204
3 403 344 346 127 20 204
3 403 346 393 127 20 204
3 393 346 368 127 20 204
3 368 346 328 127 20 204
3 393 368 395 127 20 204
3 395 368 369 127 20 204
3 395 369 416 48 242 105
3 416 369 387 48 242 105
3 387 369 382 48 242 105
3 387 382 357 48 242 105
3 357 382 326 127 20 204
3 357 326 331 127 20 204
3 331 326 330 127 20 204
3 331 330 276 127 20 204
3 276 330 273 127 20 204
3 357 331 414 48 242 105
3 414 331 447 48 242 105
3 447 331 403 48 242 105
3 447 403 421 48 242 105
3 421 403 393 48 242 105
3 421 393 395 48 242 105
3 421 395 439 48 242 105
3 439 395 416 48 242 105
3 439 416 443 48 242 105
3 443 416 435 48 242 105
3 435 416 387 48 242 105
3 435 387 454 48 242 105
3 454 387 432 48 242 105
3 432 387 398 48 242 105
3 398 387 357 48 242 105
3 398 357 414 48 242 105
3 398 414 461 48 242 105
3 461 414 431 48 242 105
3 431 414 447 48 242 105
3 431 447 466 48 242 105
3 466 447 464 48 242 105
3 464 447 449 48 242 105
3 449 447 421 48 242 105
3 449 421 439 48 242 105
3 449 439 457 48 242 105
3 457 439 456 48 242 105
3 456 439 458 48 242 105
3 458 439 443 48 242 105
3 458 443 427 48 242 105
3 427 443 432 48 242 105
3 432 443 454 48 242 105
3 454 443 453 48 242 105
3 453 443 435 48 242 105
3 453 435 454 48 242 105
3 427 432 398 48 242 105
3 427 398 448 48 242 105
3 448 398 461 48 242 105
3 448 461 489 48 242 105
3 489 461 481 48 242 105
3 481 461 431 48 242 105
3 481 431 483 48 242 105
3 483 431 475 48 242 105
3 475 431 466 48 242 105
3 475 466 464 48 242 105
3 475 464 457 48 242 105
3 457 464 449 48 242 105
3 475 457 456 48 242 105
3 475 456 483 48 242 105
3 483 456 473 48 242 105
3 473 456 458 48 242 105
3 473 458 448 48 242 105
3 448 458 427 48 242 105
3 473 448 489 48 242 105
3 473 489 483 48 242 105
3 483 489 481 48 242 105
3 130 225 175 242 221 72
3 130 175 97 242 221 72
3 97 175 152 242 221 72
3 89 97 86 242 221 72
3 86 97 91 242 221 72
3 86 91 82 40 176 204
3 86 82 76 40 176 204
3 76 82 67 40 176 204
3 67 82 78 40 176 204
3 67 78 74 40 176 204
3 74 78 59 40 176 204
3 59 78 66 40 176 204
3 59 66 48 204 61 61
3 48 66 68 204 61 61
3 48 68 60 204 61 61
3 60 68 84 40 176 204
3 60 84 64 204 61 61
3 64 84 83 40 176 204
3 64 83 62 204 61 61
3 62 83 65 204 61 61
3 65 83 81 40 176 204
3 65 81 70 40 176 204
3 70 81 77 40 176 204
3 77 81 92 40 176 204
3 92 81 99 40 176 204
3 92 99 112 40 176 204
3 92 112 105 40 176 204
3 105 112 147 40 176 204
3 105 147 117 40 176 204
3 117 147 151 242 221 72
3 151 147 166 40 176 204
3 151 166 172 40 176 204
3 172 166 173 40 176 204
3 172 173 197 40 176 204
3 151 172 183 242 221 72
3 151 183 168 242 221 72
3 168 183 195 242 221 72
3 195 183 193 242 221 72
3 195 193 236 242 221 72
3 236 193 206 242 221 72
3 236 206 227 242 221 72
3 227 206 199 242 221 72
3 199 206 182 242 221 72
3 199 182 167 242 221 72
3 167 182 158 242 221 72
3 167 158 132 242 221 72
3 132 158 123 242 221 72
3 132 123 126 242 221 72
3 126 123 111 242 221 72
3 126 111 113 242 221 72
3 113 111 104 242 221 72
3 104 111 72 40 176 204
3 104 72 75 40 176 204
3 75 72 70 40 176 204
3 70 72 61 40 176 204
3 61 72 71 40 176 204
3 70 61 57 40 176 204
3 57 61 55 40 176 204
3 57 55 53 40 176 204
3 53 55 49 40 176 204
3 53 49 47 204 61 61
3 47 49 38 204 61 61
3 38 49 51 204 61 61
3 38 51 40 204 61 61
3 40 51 59 204 61 61
3 59 51 74 40 176 204
3 40 59 43 204 61 61
3 43 59 48 204 61 61
3 43 48 44 204 61 61
3 44 48 56 204 61 61
3 56 48 60 204 61 61
3 56 60 46 204 61 61
3 46 60 52 204 61 61
3 52 60 64 204 61 61
3 52 64 62 204 61 61
3 52 62 54 204 61 61
3 54 62 45 204 61 61
3 45 62 58 204 61 61
3 58 62 65 204 61 61
3 58 65 70 40 176 204
3 58 70 57 40 176 204
3 58 57 53 40 176 204
3 58 53 50 204 61 61
3 50 53 47 204 61 61
3 50 47 41 204 61 61
3 41 47 27 204 61 61
3 27 47 37 204 61 61
3 37 47 38 204 61 61
3 37 38 18 204 61 61
3 18 38 29 204 61 61
3 29 38 34 204 61 61
3 34 38 40 204 61 61
3 34 40 28 204 61 61
3 28 40 43 204 61 61
3 28 43 32 204 61 61
3 32 43 33 204 61 61
3 33 43 44 204 61 61
3 33 44 24 204 61 61
3 24 44 36 204 61 61
3 36 44 56 204 61 61
3 36 56 46 204 61 61
3 36 46 35 204 61 61
3 35 46 42 204 61 61
3 42 46 52 204 61 61
3 42 52 54 204 61 61
3 42 54 39 204 61 61
3 39 54 31 204 61 61
3 31 54 45 204 61 61
3 31 45 23 204 61 61
3 23 45 41 204 61 61
3 41 45 50 204 61 61
3 50 45 58 204 61 61
3 23 41 27 204 61 61
3 23 27 13 204 61 61
3 13 27 7 204 61 61
3 7 27 26 204 61 61
3 26 27 37 204 61 61
3 26 37 25 204 61 61
3 25 37 18 204 61 61
3 25 18 15 204 61 61
3 15 18 12 204 61 61
3 12 18 29 204 61 61
3 12 29 21 204 61 61
3 21 29 34 204 61 61
3 21 34 28 204 61 61
3 21 28 17 204 61 61
3 17 28 33 204 61 61
3 33 28 32 204 61 61
3 17 33 24 204 61 61
3 17 24 10 204 61 61
3 10 24 20 204 61 61
3 20 24 36 204 61 61
3 20 36 35 204 61 61
3 20 35 19 204 61 61
3 19 35 30 204 61 61
3 30 35 39 204 61 61
3 39 35 42 204 61 61
3 30 39 22 204 61 61
3 22 39 31 204 61 61
3 22 31 14 204 61 61
3 14 31 23 204 61 61
3 14 23 13 204 61 61
3 14 13 3 204 61 61
3 3 13 7 204 61 61
3 3 7 2 204 61 61
3 2 7 26 204 61 61
3 2 26 9 204 61 61
3 9 26 15 204 61 61
3 15 26 25 204 61 61
3 9 15 12 204 61 61
3 9 12 8 204 61 61
3 8 12 21 204 61 61
3 8 21 17 204 61 61
3 8 17 10 204 61 61
3 8 10 5 204 61 61
3 5 10 11 204 61 61
3 11 10 19 204 61 61
3 19 10 20 204 61 61
3 11 19 16 204 61 61
3 16 19 22 204 61 61
3 22 19 30 204 61 61
3 16 22 14 204 61 61
3 16 14 6 204 61 61
3 6 14 3 204 61 61
3 6 3 5 204 61 61
3 5 3 4 204 61 61
3 4 3 2 204 61 61
3 4 2 9 204 61 61
3 4 9 8 204 61 61
3 4 8 5 204 61 61
3 6 5 11 204 61 61
3 6 11 16 204 61 61
3 75 70 77 40 176 204
3 75 77 104 40 176 204
3 104 77 107 40 176 204
3 107 77 105 40 176 204
3 105 77 92 40 176 204
3 107 105 117 40 176 204
3 107 117 133 242 221 72
3 133 117 159 242 221 72
3 159 117 151 242 221 72
3 159 151 168 242 221 72
3 159 168 192 242 221 72
3 192 168 195 242 221 72
3 192 195 243 242 221 72
3 243 195 236 242 221 72
3 243 236 249 242 221 72
3 249 236 227 242 221 72
3 249 227 278 242 221 72
3 278 227 239 242 221 72
3 239 227 199 242 221 72
3 239 199 219 242 221 72
3 219 199 213 242 221 72
3 213 199 167 242 221 72
3 213 167 132 242 221 72
3 213 132 198 242 221 72
3 198 132 157 242 221 72
3 157 132 126 242 221 72
3 157 126 113 242 221 72
3 157 113 133 242 221 72
3 133 113 107 242 221 72
3 107 113 104 242 221 72
3 157 133 165 242 221 72
3 165 133 159 242 221 72
3 165 159 192 242 221 72
3 165 192 215 242 221 72
3 215 192 243 242 221 72
3 215 243 247 242 221 72
3 247 243 249 242 221 72
3 247 249 298 127 20 204
3 298 249 278 242 221 72
3 298 278 354 127 20 204
3 354 278 301 127 20 204
3 301 278 239 242 221 72
3 301 239 213 242 221 72
3 213 239 219 242 221 72
3 301 213 286 242 221 72
3 286 213 231 127 20 204
3 231 213 187 242 221 72
3 187 213 198 242 221 72
3 187 198 157 242 221 72
3 187 157 165 242 221 72
3 187 165 210 242 221 72
3 210 165 215 242 221 72
3 210 215 257 242 221 72
3 257 215 285 127 20 204
3 285 215 247 127 20 204
3 285 247 320 127 20 204
3 320 247 298 127 20 204
3 320 298 325 127 20 204
3 325 298 354 127 20 204
3 325 354 367 127 20 204
3 367 354 360 127 20 204
3 360 354 286 127 20 204
3 286 354 301 127 20 204
3 360 286 277 127 20 204
3 277 286 231 127 20 204
3 277 231 268 127 20 204
3 268 231 187 127 20 204
3 268 187 210 242 221 72
3 268 210 257 127 20 204
3 268 257 316 127 20 204
3 316 257 285 127 20 204
3 316 285 307 127 20 204
3 307 285 320 127 20 204
3 307 320 353 127 20 204
3 353 320 340 127 20 204
3 340 320 367 127 20 204
3 367 320 325 127 20 204
3 340 367 397 127 20 204
3 397 367 401 127 20 204
3 401 367 376 127 20 204
3 376 367 360 127 20 204
3 376 360 335 127 20 204
3 335 360 277 127 20 204
3 335 277 296 127 20 204
3 296 277 268 127 20 204
3 296 268 316 127 20 204
3 296 316 355 127 20 204
3 355 316 339 127 20 204
3 339 316 353 127 20 204
3 353 316 307 127 20 204
3 339 353 363 127 20 204
3 363 353 340 127 20 204
3 363 340 400 48 242 105
3 400 340 402 48 242 105
3 402 340 397 48 242 105
3 402 397 412 48 242 105
3 412 397 401 48 242 105
3 412 401 423 48 242 105
3 423 401 410 48 242 105
3 410 401 396 48 242 105
3 396 401 376 48 242 105
3 396 376 364 48 242 105
3 364 376 335 127 20 204
3 364 335 355 127 20 204
3 355 335 296 127 20 204
3 364 355 390 48 242 105
3 390 355 411 48 242 105
3 411 355 339 127 20 204
3 411 339 409 48 242 105
3 409 339 400 48 242 105
3 400 339 363 48 242 105
3 409 400 418 48 242 105
3 418 400 0 48 242 105
3 0 400 402 48 242 105
3 0 402 415 48 242 105
3 415 402 419 48 242 105
3 419 402 412 48 242 105
3 419 412 423 48 242 105
3 419 423 415 48 242 105
3 415 423 424 48 242 105
3 424 423 446 48 242 105
3 446 423 463 48 242 105
3 463 423 455 48 242 105
3 455 423 410 48 242 105
3 455 410 442 48 242 105
3 442 410 396 48 242 105
3 442 396 364 48 242 105
3 442 364 390 48 242 105
3 442 390 434 48 242 105
3 434 390 460 48 242 105
3 460 390 438 48 242 105
3 438 390 411 48 242 105
3 438 411 409 48 242 105
3 438 409 424 48 242 105
3 424 409 415 48 242 105
3 415 409 425 48 242 105
3 425 409 418 48 242 105
3 425 418 440 48 242 105
3 440 418 428 48 242 105
3 428 418 0 48 242 105
3 428 0 425 48 242 105
3 425 0 415 48 242 105
3 428 425 440 48 242 105
3 438 424 452 48 242 105
3 452 424 446 48 242 105
3 452 446 451 48 242 105
3 451 446 463 48 242 105
3 451 463 434 48 242 105
3 434 463 442 48 242 105
3 442 463 455 48 242 105
3 451 434 460 48 242 105
3 451 460 477 48 242 105
3 477 460 438 48 242 105
3 477 438 452 48 242 105
3 477 452 479 48 242 105
3 479 452 451 48 242 105
3 479 451 477 48 242 105
3 67 74 90 40 176 204
3 67 90 76 40 176 204
3 76 90 89 242 221 72
3 89 90 95 242 221 72
3 76 89 86 242 221 72
3 591 581 603 242 24 142
3 628 603 627 96 204 61
3 627 603 606 96 204 61
3 627 606 612 96 204 61
3 627 612 641 96 204 61
3 641 612 632 96 204 61
3 641 632 660 96 204 61
3 641 660 654 96 204 61
3 654 660 667 96 204 61
3 667 660 663 96 204 61
3 663 660 659 96 204 61
3 659 660 643 96 204 61
3 659 643 656 96 204 61
3 656 643 629 96 204 61
3 656 629 658 96 204 61
3 658 629 638 96 204 61
3 658 638 645 96 204 61
3 645 638 626 96 204 61
3 626 638 613 96 204 61
3 626 613 610 96 204 61
3 626 610 628 96 204 61
3 626 628 623 96 204 61
3 623 628 627 96 204 61
3 623 627 637 96 204 61
3 637 627 641 96 204 61
3 637 641 654 96 204 61
3 637 654 650 96 204 61
3 650 654 665 96 204 61
3 665 654 667 96 204 61
3 665 667 708 56 48 242
3 708 667 681 56 48 242
3 681 667 678 56 48 242
3 678 667 663 96 204 61
3 678 663 670 96 204 61
3 670 663 659 96 204 61
3 670 659 666 96 204 61
3 666 659 656 96 204 61
3 666 656 658 96 204 61
3 666 658 668 96 204 61
3 668 658 645 96 204 61
3 668 645 664 96 204 61
3 664 645 650 96 204 61
3 650 645 623 96 204 61
3 623 645 626 96 204 61
3 650 623 637 96 204 61
3 664 650 673 96 204 61
3 673 650 665 96 204 61
3 673 665 708 56 48 242
3 673 708 688 56 48 242
3 688 708 698 56 48 242
3 698 708 731 56 48 242
3 731 708 718 56 48 242
3 718 708 707 56 48 242
3 707 708 681 56 48 242
3 707 681 689 56 48 242
3 689 681 683 56 48 242
3 683 681 678 56 48 242
3 683 678 693 56 48 242
3 693 678 717 56 48 242
3 717 678 670 56 48 242
3 717 670 677 56 48 242
3 677 670 666 96 204 61
3 677 666 682 56 48 242
3 682 666 664 96 204 61
3 664 666 668 96 204 61
3 682 664 673 96 204 61
3 682 673 688 56 48 242
3 682 688 710 56 48 242
3 710 688 698 56 48 242
3 710 698 704 56 48 242
3 704 698 736 56 48 242
3 736 698 745 56 48 242
3 745 698 731 56 48 242
3 745 731 725 56 48 242
3 725 731 718 56 48 242
3 725 718 703 56 48 242
3 703 718 713 56 48 242
3 713 718 733 56 48 242
3 733 718 707 56 48 242
3 733 707 734 56 48 242
3 734 707 700 56 48 242
3 700 707 689 56 48 242
3 700 689 714 56 48 242
3 714 689 683 56 48 242
3 714 683 702 56 48 242
3 702 683 706 56 48 242
3 706 683 693 56 48 242
3 706 693 735 56 48 242
3 735 693 722 56 48 242
3 722 693 713 56 48 242
3 713 693 703 56 48 242
3 703 693 717 56 48 242
3 703 717 725 56 48 242
3 725 717 745 56 48 242
3 745 717 728 56 48 242
3 728 717 677 56 48 242
3 728 677 710 56 48 242
3 710 677 682 56 48 242
3 728 710 746 56 48 242
3 746 710 704 56 48 242
3 746 704 736 56 48 242
3 746 736 728 56 48 242
3 728 736 745 56 48 242
3 722 713 734 56 48 242
3 734 713 733 56 48 242
3 722 734 735 56 48 242
3 735 734 719 56 48 242
3 719 734 700 56 48 242
3 719 700 726 56 48 242
3 726 700 714 56 48 242
3 726 714 749 56 48 242
3 749 714 737 56 48 242
3 737 714 720 56 48 242
3 720 714 702 56 48 242
3 720 702 705 56 48 242
3 705 702 721 56 48 242
3 721 702 706 56 48 242
3 721 706 1 56 48 242
3 1 706 735 56 48 242
3 1 735 737 56 48 242
3 737 735 749 56 48 242
3 749 735 726 56 48 242
3 726 735 719 56 48 242
3 1 737 738 56 48 242
3 738 737 720 56 48 242
3 738 720 705 56 48 242
3 738 705 721 56 48 242
3 738 721 1 56 48 242
