ply
format ascii 1.0
element vertex 752
property float x
property float y
property float z
element face 1500
property list uchar int vertex_indices
property uchar red
property uchar green
property uchar blue
end_header
0.055164 -0.02149 -0.006515
0.07805 0.22597 0.014903
0.047508 0.736089 0.056765
-0.116351 0.0814 -0.013378
-0.057124 0.906482 -0.086999
-0.031372 -0.838788 0.192464
-0.051746 -0.022094 -0.022433
0.022182 0.178327 0.38513
0.007833 -0.451812 0.174817
-0.023957 0.698442 -0.056849
-0.071633 0.086809 -0.149721
-0.027604 -0.859141 -0.216653
0.066462 0.85679 0.052639
-0.10998 0.351809 0.083141
0.02668 -0.098506 -0.457334
0.024953 0.088665 -0.393901
0.021487 0.751544 -0.09914
0.013866 0.426305 -0.146569
0.038709 0.835826 -0.117683
0.079404 -0.963088 -0.191913
-0.051043 -0.301858 0.145962
0.086437 -0.099089 -0.147548
-0.005201 -0.581982 0.182186
-0.207897 -0.940656 -0.205213
-0.012944 0.826187 -0.113542
-0.137963 -0.95616 0.263157
-0.073484 0.151554 -0.142448
-0.08315 -0.007903 -0.057897
0.00448 -0.053241 0.494216
0.022151 -0.560544 -0.118944
-0.151768 -0.955369 -0.141326
-0.055652 0.865729 -0.083411
0.07246 -0.680714 -0.199932
0.105056 -0.506029 -0.184766
0.069262 0.25504 0.061864
0.061132 0.677707 -0.00754
0.042648 0.175385 -0.151159
0.051985 -0.162418 0.044262
0.04208 -0.067229 -0.472027
0.009909 -0.90394 0.144205
0.114294 0.45755 0.063502
0.049579 0.793476 0.077308
-0.075786 0.532937 -0.037513
-0.022327 0.058975 -0.416984
-0.000981 0.149158 0.35126
0.078914 -0.024232 -0.175215
0.043819 -0.958825 -0.216446
0.10371 0.772856 -0.069007
0.096592 0.475211 0.109257
0.076159 0.506205 0.160966
0.091047 -0.285481 -0.142649
-0.001968 0.74161 -0.081457
-0.007009 -0.031043 0.006809
0.098982 0.825837 0.039459
-0.040919 -0.087813 -0.477126
-0.112192 0.435132 -0.115332
-0.056014 0.20824 -0.149005
-0.093535 0.87448 0.023531
-0.061678 0.832484 -0.09925
-0.064759 0.213782 0.144713
-0.084725 -0.089215 0.509265
-0.081309 -0.04826 0.019303
0.069404 -0.698229 -0.136814
0.028644 -0.962781 -0.211949
0.127834 0.518848 -0.082565
0.076996 -0.821084 0.169212
-0.066973 -0.866491 -0.16881
0.000578 0.288522 0.364375
-0.084871 -0.045789 0.488286
-0.075954 0.539015 0.027662
-0.085598 0.874978 -0.015732
-0.080108 -0.125596 -0.094698
0.09746 0.798129 -0.08993
0.006039 -0.743913 -0.201463
-0.003705 -0.814304 -0.151764
-0.01202 0.583905 0.12766
0.031188 0.100402 0.158382
-0.061856 -0.237422 -0.122483
-0.113988 0.008991 0.076266
0.040201 0.235088 -0.123423
-0.012223 0.189915 0.421845
-0.039236 -0.836829 -0.195913
0.059893 -0.039238 0.152911
0.070642 -0.322812 0.082361
-0.013975 -0.797717 -0.187934
0.002435 0.346683 0.221929
0.045213 -0.405806 -0.068464
-0.058257 0.573648 0.02588
0.094524 -0.648468 -0.187341
-0.043245 0.076694 -0.179415
-0.043396 -0.296331 -0.136133
0.000898 -0.497517 -0.166146
0.07157 0.21019 0.068163
-0.046822 -0.349875 0.08822
-0.065561 0.347374 -0.106021
-0.022322 -0.410226 -0.147529
0.096491 -0.618529 0.120828
-0.187495 -0.923201 0.208002
0.127064 -0.01706 -0.08238
-0.041847 0.488723 0.183182
-0.005782 0.029061 0.455398
-0.067777 0.52704 -0.081443
-0.027778 0.666297 0.019013
-0.105553 -0.0022 0.045394
0.003932 -0.741074 0.164184
0.070328 -0.958776 -0.149346
-0.000236 0.049084 -0.403635
-0.063039 -0.959497 0.172075
0.042024 -0.122622 0.158655
0.089373 -0.16899 -0.133509
-0.071272 0.314767 0.108839
0.002277 -0.815565 -0.205593
0.029847 -0.226502 0.039361
0.065392 -0.845732 0.205558
0.020895 0.185193 -0.401427
0.123503 0.048338 0.07979
-0.110958 0.378415 -0.112714
-0.031417 -0.041 0.472528
0.093532 -0.07209 -0.108969
-0.09584 0.729058 -0.054446
0.072501 -0.589068 -0.102721
-0.004073 -0.56697 -0.157041
-0.044621 0.056316 0.470923
0.029537 0.404215 -0.137105
0.034313 0.306013 0.296831
0.001958 0.574889 -0.175996
-0.10654 0.700849 -0.035485
0.011624 0.267001 0.369758
0.068423 0.603916 -0.133338
0.059727 -0.611942 0.207349
0.074136 0.58072 -0.156903
-0.037017 -0.340888 -0.123151
0.043337 0.920944 -0.017628
0.087831 -0.473824 -0.186926
-0.028152 -0.859365 -0.146243
0.127739 0.474759 -0.047471
0.058931 -0.091638 -0.036378
0.039342 -0.038685 -0.027438
0.086099 0.011863 0.142686
-0.027121 0.309008 -0.122926
-0.132272 -0.912511 0.184605
0.082075 -0.383635 0.119005
0.025102 0.405334 -0.161934
0.050799 0.245922 0.098394
0.095417 0.40945 0.057385
0.067207 0.104737 -0.147009
0.104673 0.005041 -0.00582
-0.028869 0.298018 0.345522
-0.09217 -0.138717 0.149764
0.076062 -0.230943 -0.063384
0.055001 0.35249 -0.214822
0.016391 0.045916 -0.418235
0.110414 0.744837 -0.020318
0.106554 -0.605191 -0.126936
3.8e-05 -0.478052 -0.144544
-0.005366 -0.94846 -0.221476
0.127671 0.12026 -0.05406
0.028416 -0.023452 -0.46196
-0.115531 -0.90775 0.239132
0.011838 -0.461623 -0.112728
0.101622 0.40232 -0.049054
0.036463 0.257909 -0.333099
-0.024059 -0.101043 -0.504371
0.111207 -0.554311 0.138089
-0.0775 0.763565 0.03327
0.082929 -0.869025 0.177519
-0.001053 -0.749521 -0.169645
0.104629 0.499214 0.0331
0.014004 -0.779347 0.150129
0.06704 -0.784571 0.192119
0.012656 -0.839827 0.216295
0.059986 -0.860523 -0.149421
0.04124 0.364126 0.282502
-0.023389 0.494935 0.239337
0.072099 -0.240417 0.078667
0.090174 0.180945 -0.033819
0.05614 -0.444619 -0.189408
-0.055791 0.819024 0.040846
0.001798 -0.054468 -0.197817
0.080051 0.643117 -0.025546
-0.024607 -0.960678 0.171084
0.043672 -0.475819 -0.094493
0.078511 0.314082 -0.046293
0.01316 0.02545 -0.461334
-0.070632 0.379171 -0.139881
0.059235 -0.090907 0.132734
-0.002003 0.697784 0.038164
0.106738 0.426051 -0.085762
0.076289 0.854475 -0.092112
0.099621 0.571141 0.005929
0.040792 0.648438 0.067073
0.093141 -0.447292 -0.10771
0.036112 0.487844 -0.243651
-0.006662 0.175062 -0.410941
0.078056 -0.594864 -0.209133
-0.012118 -0.265232 0.047567
0.057043 0.432326 0.196841
0.04541 -0.298846 0.159661
0.044172 0.200648 -0.351879
-0.033588 -0.078239 0.503011
0.080039 -0.742253 0.170244
-0.142 0.452 0.068181
0.010798 -0.072553 -0.014628
0.064873 -0.727268 0.196341
-0.105176 0.44426 0.129863
0.038108 0.235105 0.111612
0.081308 -0.124095 -0.064597
0.076291 0.058996 -0.15747
-0.021365 -0.319173 -0.08104
0.056114 -0.442654 0.182405
-0.076575 0.000403 0.013162
-0.089271 0.417519 -0.138606
0.098946 -0.553535 0.18666
0.110994 0.508785 0.099907
-0.038284 0.374827 0.25795
0.064845 0.245013 0.008937
0.075297 -0.261803 0.122818
-0.087986 0.353519 0.111096
-0.033711 0.865967 -0.10414
-0.023637 0.415529 0.261543
-0.096851 0.840055 -0.046945
-0.104433 0.891351 -0.042129
-0.036004 0.617975 -0.003488
0.066758 -0.53041 0.201424
0.110515 -0.491903 -0.141622
-0.009952 0.354274 -0.12922
-0.011883 0.513673 -0.206545
0.01488 0.2632 -0.136631
-0.077008 -0.895057 0.174827
-0.198613 -0.948469 -0.161585
0.036483 -0.313784 0.053134
0.008353 0.395939 -0.264446
-0.028302 0.577814 -0.092601
0.09202 -0.489276 0.175601
0.076642 -0.707736 0.141688
-0.031887 -0.089502 -0.024419
0.075217 0.422848 -0.184485
-0.057722 0.690464 -0.008226
0.018682 0.26761 0.122009
-0.12032 0.783829 -0.028787
-0.18314 -0.938427 -0.146843
0.020227 -0.680259 0.129798
-0.136127 0.449167 -0.059531
0.084381 0.617323 0.065582
0.070918 0.269097 -0.090491
0.094931 -0.482063 0.124943
0.110755 0.840313 -0.054403
-0.10271 0.50698 0.027672
-0.018031 -0.018486 -0.496041
-0.136822 0.199738 0.02231
0.019908 0.403499 0.144215
0.070912 -0.742963 -0.182118
0.023222 0.53742 -0.218938
0.00843 0.59465 0.172548
-0.034518 0.907662 0.0372
0.081466 0.696805 -0.02317
0.078786 -0.389262 -0.168159
-0.020592 0.564242 0.198416
-0.035163 0.598028 0.020175
-0.075816 -0.030668 0.508623
0.054059 0.73518 -0.091546
-0.042602 -0.04986 -0.458273
0.029036 0.17115 -0.32826
-0.016788 -0.18191 -0.040361
-0.091355 -0.083229 -0.115125
0.063863 -0.92858 -0.203136
-0.028242 -0.424599 0.150275
0.049593 0.032562 0.16761
0.076905 -0.414381 0.157085
0.028179 0.865405 -0.116802
-0.028353 -0.26791 0.166718
0.005485 -0.67486 -0.198508
-0.061968 -0.20879 -0.091534
0.016814 0.26283 0.295203
0.055594 0.331382 -0.265195
-0.087339 -0.231781 0.120183
-0.058048 0.485314 -0.135047
-0.107506 0.071496 0.110996
-0.021427 0.251486 -0.28101
0.101925 0.157764 -0.091133
0.040965 -0.375638 -0.181857
0.010205 0.198647 0.15323
0.052163 -0.883717 0.211516
0.100057 0.77712 0.030957
-0.057376 -0.157726 0.172512
0.081853 0.504412 -0.173161
-0.080063 -0.152971 0.049602
-0.039369 0.699887 0.016856
-0.0024 -0.074841 -0.52123
0.060599 -0.884473 0.142547
-0.078741 -0.890903 -0.213607
-0.045468 -0.035022 -0.001381
-0.058608 0.306141 -0.105134
0.056005 -0.535724 -0.208
0.00755 0.708813 -0.069679
0.018024 -0.165273 0.171365
-0.032283 0.245125 -0.141279
0.052341 0.582738 0.184659
0.051567 -0.725861 0.132752
-0.011426 0.26912 -0.340195
-0.043429 -0.289365 -0.094818
0.021153 -0.051496 0.184251
-5.8e-05 -0.623448 -0.187208
-0.026795 0.247371 0.13541
0.027259 -0.324046 -0.05835
0.005436 0.373068 -0.186671
-0.020579 0.152938 -0.167253
0.02322 -0.630671 0.203152
-0.130607 0.342639 -0.014502
-0.063419 -0.859956 -0.193483
0.004774 -0.242456 -0.049635
0.014363 -0.155914 -0.030932
-0.049012 -0.913868 -0.143794
0.041886 -0.026304 0.017518
-0.040422 0.645204 -0.020299
-0.029429 -0.109537 -0.188597
0.093779 -0.379518 -0.149132
0.034716 0.692231 0.028795
-0.00133 -0.774378 0.183705
0.004265 -0.515088 0.188278
-0.018917 0.391499 -0.227607
-0.093408 0.484311 0.115495
0.001747 0.212845 -0.286151
0.00303 -0.03201 -0.01837
0.035753 -0.67854 -0.211513
0.081472 0.708868 0.014158
-0.092681 0.846925 0.007028
0.067878 -0.797859 -0.172408
0.075304 -0.455051 -0.087452
-0.150573 0.436367 0.018907
0.025793 0.470865 0.262385
0.08916 -0.913879 0.165559
-0.064193 -0.309998 0.114711
0.010487 0.317031 -0.313702
0.015789 0.107126 -0.430222
-0.013797 0.44938 0.16447
-0.207018 -0.921392 -0.168192
-0.031912 0.590262 0.089773
0.067472 0.44699 -0.153388
0.079863 0.327271 -0.003799
-0.021659 0.368765 0.225367
-0.174584 -0.955205 -0.222713
-0.052642 0.073489 0.450135
0.099088 0.591312 0.098956
-0.00143 0.223775 0.306288
-0.037761 0.535749 0.144593
-0.026381 0.163549 -0.335945
-0.002738 -0.804035 0.193583
-0.035168 0.22908 0.394836
0.082449 -0.297242 -0.078064
-0.01969 0.331005 -0.291392
-0.028225 0.394824 -0.152793
0.049792 -0.546021 -0.100024
0.035603 -0.837047 -0.144606
0.094525 -0.351008 -0.135243
0.011164 0.007242 -0.438621
-0.095798 -0.888808 -0.161484
0.061195 0.382794 0.112331
-0.0684 -0.124449 -0.161456
0.076902 0.162461 0.093135
-0.112698 0.14077 0.102393
-0.087149 0.907046 0.006931
0.009 0.359004 0.304065
0.069521 0.560914 0.168409
-0.103294 0.119141 -0.092045
0.016816 -0.961996 -0.143766
0.106527 0.867321 -0.018851
0.002722 -0.828964 0.148878
0.03426 -0.731589 0.135959
-0.043401 -0.048551 -0.493103
0.046377 0.356052 0.256602
0.034081 -0.523581 0.097576
-0.019223 0.177775 0.327786
0.068623 -0.331639 0.141942
-0.01336 -0.478105 0.141658
0.073007 -0.844426 -0.169561
0.006308 0.202809 -0.157454
0.056662 -0.96366 0.139122
0.077761 -0.511676 -0.09946
-0.01688 -0.366324 -0.157645
-0.111336 0.867135 -0.012943
0.094298 -0.393994 -0.086308
-0.031841 -0.002125 0.449796
-0.132497 -0.956808 0.207267
-0.096579 -0.953164 -0.142744
-0.006456 0.598328 -0.077073
-0.046954 0.296827 0.295411
0.119036 -0.56694 -0.166351
0.051308 -0.682834 0.20631
-0.001814 0.482588 -0.232693
0.002704 -0.017159 -0.491917
0.047798 -0.825679 0.200786
0.107158 0.589374 -0.0615
0.086043 -0.661402 0.187054
-0.048495 -0.930325 0.253698
-0.014121 0.238909 0.398593
-0.047131 0.734877 0.041312
0.101997 -0.467432 -0.168701
0.01904 0.578537 0.208305
0.036007 -0.611842 -0.212808
0.060187 0.90448 -0.066114
0.066986 0.432356 0.135748
-0.031514 0.201369 -0.332869
-0.070242 0.394042 0.150162
0.045351 0.369579 -0.188535
-0.084935 0.241042 0.114203
0.044014 -0.022292 -0.193229
-0.112433 0.020038 0.11712
-0.092947 0.01904 -0.044243
-0.02916 -0.921749 -0.228663
0.017582 -0.302943 0.1686
0.031299 -0.701566 0.204166
-0.123189 -0.895528 -0.191458
0.06067 0.529415 -0.210103
-0.104406 0.032022 0.026001
0.064775 -0.655987 0.111537
0.032119 0.653321 -0.058687
0.07941 0.276576 -0.035221
0.056129 0.328052 -0.085755
0.059059 0.198572 0.109213
0.034994 0.325952 -0.297041
-0.150427 0.405553 -0.015621
-0.051509 0.687195 -0.02992
-0.014416 0.30482 0.123011
0.10271 -0.045138 -0.137901
-0.107252 0.357187 -0.068047
0.033303 -0.933578 -0.140525
-0.120284 -0.957638 -0.165207
0.08607 -0.687313 -0.160496
0.093012 -0.964259 0.190595
0.069026 0.609925 0.12802
-0.113194 0.278963 -0.065294
0.062728 -0.152916 -0.172516
0.062271 0.197885 -0.128103
-0.027406 -0.438653 0.103051
0.002916 0.11117 0.391052
0.062748 -0.599118 0.09718
-0.091498 0.118805 0.139352
0.02992 0.131906 -0.411874
0.013128 0.319093 0.244928
-0.04816 -0.259215 0.061897
-0.183511 -0.919314 0.237234
0.139038 0.028639 -0.080857
0.038232 0.619039 -0.106226
-0.043408 0.040586 0.438528
-0.015546 0.10496 0.380511
0.064521 0.13569 0.133089
-0.077798 -0.249336 0.087587
0.024586 -0.702027 -0.13904
0.057133 -0.504832 0.09167
-0.114566 -0.927446 -0.140817
0.051173 -0.207356 -0.176591
-0.046932 0.584009 -0.030401
0.085268 -0.056375 -0.071468
-0.070373 0.484037 0.137608
0.039632 0.364889 -0.120026
-0.039946 -0.192526 -0.174589
-0.100156 -0.931071 0.263624
0.000175 -0.053777 -0.470765
-0.011004 -0.073312 0.468548
0.032744 -0.073209 0.019003
-0.065555 -0.95907 -0.155586
0.015395 0.191934 0.344837
-0.112531 -0.101295 0.076866
0.096935 -0.231916 -0.111155
0.137996 0.096037 -0.0658
0.089795 -0.678916 0.165965
0.047971 0.291258 -0.281713
0.081519 -0.963467 0.14728
0.135904 0.043898 -0.029622
0.062446 0.467008 0.209381
-0.132711 0.372425 0.086439
-0.080289 -0.924821 0.164686
-0.032874 0.462149 0.210695
0.085038 0.410775 0.104647
0.031862 0.527353 0.240598
-0.016061 -0.290532 -0.167968
-0.156558 0.397809 0.049853
0.071708 0.306219 0.025239
0.031444 0.327917 0.253118
0.056814 -0.439385 0.07727
-0.089326 -0.000994 -0.128799
-0.074694 -0.16423 -0.13753
-0.052842 0.195087 0.366315
0.011074 -0.452306 0.091973
-0.007576 0.174588 -0.311834
0.054577 -0.661393 -0.116001
0.070882 -0.331091 -0.164913
0.011118 0.636676 0.065133
-0.006048 0.345661 -0.219948
-0.001836 -0.160252 -0.189727
0.062525 -0.853684 -0.199369
-0.092868 -0.958238 0.255737
0.048538 0.310973 -0.24828
-0.019243 -0.126667 0.014711
0.012957 0.315845 0.326791
-0.131453 0.306468 0.045827
0.089585 -0.177941 -0.088182
-0.080136 -0.026607 -0.153565
-0.023049 0.47178 -0.17098
0.003876 -0.096111 0.008407
0.093096 -0.002925 0.021869
-0.03123 0.271305 -0.300832
0.10182 -0.564318 -0.194365
0.035904 -0.395387 0.177381
-0.030963 -0.95935 0.239699
0.025722 -0.621526 0.109227
0.025497 0.420078 0.169068
0.068973 -0.908676 -0.15822
-0.051694 -0.402053 0.121174
0.010509 0.121024 0.417796
0.010048 0.18303 0.410873
0.088682 -0.547756 0.105574
-0.072135 0.884197 -0.046694
0.006216 0.282476 -0.253573
-0.085337 0.78619 -0.060616
0.075453 -0.790695 0.156657
-0.030892 0.122547 -0.393916
0.048787 0.677747 -0.052309
-0.005005 0.639196 -0.062117
-0.086111 0.80543 0.01006
0.029795 -0.398489 0.061224
-0.121235 0.322147 -0.061499
0.078992 0.894076 0.028519
-0.119966 0.115266 0.053584
-0.006317 0.399289 0.282221
0.037844 -0.96291 0.220298
0.044403 -0.778919 -0.201847
-0.091781 0.069016 -0.097142
-0.007066 -0.3764 -0.080809
0.012662 -0.322727 0.053607
-0.126596 0.26242 -0.034255
-0.101357 -0.175607 0.102039
-0.032775 -0.057402 0.527151
0.120483 0.105483 0.019163
-0.039119 0.186146 0.333218
-0.11553 -0.061267 0.117532
-0.173955 -0.915592 -0.208788
0.060588 -0.803303 -0.154801
0.023373 -0.884409 -0.142627
-0.032319 0.346053 0.307908
0.112268 0.520806 0.083007
-0.030858 0.123127 0.443285
-0.01504 0.563085 -0.13038
-0.102621 0.703267 -0.006308
-0.069778 -0.031481 0.173433
-0.04687 -0.255344 -0.150528
-0.028671 0.508975 -0.164928
0.039944 -0.060519 -0.491134
-0.155424 -0.911137 -0.156771
0.087898 0.39728 -0.086996
-0.004387 0.740351 0.039068
-0.161167 -0.927725 0.255213
-0.165402 -0.93899 -0.228782
0.021907 0.052777 -0.436711
-0.035575 -0.114229 -0.489034
0.072236 -0.451876 0.094225
-0.024059 0.598008 0.056299
0.071043 -0.160525 0.083633
0.012673 -0.920969 0.229409
-0.038244 0.046582 0.178231
0.022001 -0.053652 -0.46102
0.064308 0.406266 -0.123733
-0.092574 -0.878181 0.211849
0.055033 0.658169 -0.045327
-0.133428 0.368877 0.017826
0.015803 0.285183 -0.345788
0.062085 0.472562 0.170227
0.035436 0.614884 0.127976
0.105796 0.441565 0.020752
0.125501 0.045199 0.021908
0.080252 0.638348 0.038056
-0.015351 0.126892 0.167553
-0.194272 -0.947509 0.221739
-0.069352 -0.02218 0.463217
0.059871 0.316186 0.073489
0.00584 -0.242902 -0.181566
0.077813 -0.833286 0.150674
0.011918 0.844916 0.078984
-0.03376 -0.380891 0.082298
0.019999 0.875953 0.062411
0.027552 -0.901611 -0.217645
0.01055 -0.523939 -0.192598
-0.074563 0.498979 -0.10806
0.08877 0.616051 -0.085721
-0.023398 0.625653 -0.049325
0.021921 0.402102 0.282136
-0.014773 0.358646 0.135339
0.102447 -0.009267 0.078578
0.077272 -0.340565 -0.071715
0.037368 0.575515 -0.18972
-0.008361 0.436612 -0.173414
-0.009838 0.281448 -0.260863
-0.011928 0.040522 -0.189342
-0.004155 -0.937506 0.157947
-0.019582 0.037087 0.429265
-0.02517 0.196077 -0.382049
0.006854 0.031312 0.180972
-0.119808 0.234871 0.051569
0.07122 -0.74701 -0.157904
0.093697 0.592509 0.047823
-0.055895 -0.09699 0.481322
-0.142884 0.169306 0.014749
0.011148 0.761354 0.066595
0.090786 0.074841 0.131066
0.015685 -0.071834 -0.44843
-0.030562 -0.389406 -0.107727
0.005492 0.798506 0.083818
-0.046446 0.122952 0.390685
-0.097806 0.815914 -0.02699
-0.029512 0.061579 -0.445471
-0.054716 0.712097 -0.074468
-0.053458 0.137173 0.160383
0.114498 0.488082 -0.015957
-0.062857 0.241095 -0.126558
0.086904 -0.42272 0.128271
0.009977 0.144068 -0.331424
-0.016094 0.115388 -0.357929
0.117812 0.808223 0.008808
-0.010958 -0.809257 0.176447
0.008275 -0.176032 0.026552
0.003262 0.486469 0.260836
-0.000139 0.782003 0.051875
0.069405 -0.18771 0.122219
-0.059006 -0.959612 -0.225077
0.04096 0.310487 0.094009
-0.000661 -0.674541 0.168899
0.003382 0.232853 -0.384162
-0.120778 -0.9574 -0.237675
-0.075086 -0.068278 -0.055733
0.06869 -0.401996 -0.067326
0.045662 -0.274178 -0.054622
0.041041 0.234968 -0.307992
0.066535 -0.051069 0.081966
0.112472 0.09272 -0.113986
-0.064801 -0.002147 0.48416
0.076113 -0.932563 -0.18182
0.050367 -0.807706 0.137776
-0.109499 0.197388 0.107371
0.055258 0.529816 0.212334
-0.048938 0.233683 0.332985
0.031264 -0.107331 -0.1915
0.085757 0.18415 0.011404
0.075889 -0.224523 -0.160088
-0.019658 -0.197088 0.174238
0.085488 0.2176 -0.03244
-0.140998 0.388379 -0.071412
-0.09615 0.027512 0.150062
0.076738 0.229987 -0.077388
-0.032379 -0.352678 0.15649
0.036333 0.378332 0.205196
0.093961 0.594708 -0.026003
0.013101 0.405724 0.177038
0.034329 -0.457727 0.081775
-0.038032 -0.838198 -0.170897
0.025111 0.236475 -0.372276
-0.135848 0.162671 -0.051107
-0.021672 0.42902 0.192119
0.027761 -0.254236 0.167342
0.018429 -0.452323 -0.175414
-0.010708 0.395866 -0.248948
0.109234 -0.539844 -0.126726
0.113421 0.100725 0.084062
0.039061 -0.299933 -0.178778
0.007035 -0.522695 0.119071
-0.015622 0.453944 -0.200969
0.005485 -0.091214 -0.499269
-0.028282 0.009617 0.488896
-0.067736 -0.059268 0.479915
-0.011614 0.930989 -0.004896
0.038235 0.144939 -0.382066
-0.067092 -0.076186 0.517845
-0.01055 0.092074 -0.443218
0.058703 -0.218934 0.148212
0.033926 0.335219 -0.212463
0.024563 -0.523183 0.198784
-0.071935 -0.228988 0.148425
-0.016269 0.282906 0.275202
-0.025996 0.337092 -0.259773
-0.121125 -0.934228 -0.239893
-0.070872 0.056953 0.167106
-0.005002 0.07167 0.411836
0.101593 -0.426849 -0.138744
0.049569 -0.272637 0.053698
-0.015844 -0.08438 0.18805
-0.091882 0.02246 -0.084986
-0.119924 0.233636 -0.051423
-0.079238 0.818625 -0.075149
0.091877 -0.315834 -0.105554
0.034922 -0.603366 -0.106688
0.04842 0.456166 0.2485
0.030901 -0.77111 0.203393
0.097456 0.501683 -0.135355
0.026393 0.248982 0.330626
-0.048316 0.134083 0.423291
0.0347 0.401678 -0.265056
-0.046193 -0.030092 -0.182963
-0.01861 0.918341 -0.085358
-0.103321 0.758449 -0.007443
-0.057878 -0.143094 -0.061629
0.024639 -0.773971 -0.14681
-0.063985 0.879401 -0.103506
0.009516 0.085737 -0.376779
-0.042361 0.790004 -0.09371
0.031146 -0.036515 0.024226
-0.043587 -0.868365 0.171315
-0.037836 0.44483 0.157249
-0.131109 0.402218 0.113405
0.023226 -0.765201 -0.207905
0.022651 0.311519 -0.114727
0.097212 -0.010965 0.116303
-0.005342 -0.440967 -0.104155
-0.002543 -0.654032 -0.157474
-0.112117 0.197884 -0.089483
-0.021992 0.034278 -0.473518
0.038683 -0.830422 -0.205676
-0.008666 -0.587808 0.155458
-0.063736 0.922349 -0.040955
0.013476 -0.70609 0.193334
0.070718 0.908011 -0.010238
0.014202 0.790366 -0.113777
-0.027792 0.857945 0.064201
0.056029 -0.167572 -0.042398
0.015252 0.419586 0.154896
-0.038901 0.453083 -0.147682
-0.040653 0.256657 0.296707
0.005135 0.088687 -0.177596
-0.00994 -0.016507 0.453595
0.057987 -0.268386 -0.174347
0.1058 -0.611586 0.157499
-0.05409 -0.888529 0.227632
0.055634 0.386579 -0.259548
0.121958 0.023175 -0.127145
-0.15264 -0.954348 0.171756
-0.047244 -0.141777 0.0253
0.07784 -0.947862 0.20655
-0.061338 -0.861496 0.192202
-0.024481 -0.029354 0.191408
0.041176 -0.855454 0.132796
-0.034191 0.019192 -0.454306
0.035892 0.269297 -0.269543
-0.034758 0.097092 0.392004
-0.14226 0.179592 -0.024299
-0.078351 0.527534 0.082809
-0.045265 -0.108755 0.180841
0.061726 -0.371056 0.064867
-0.016887 -0.012414 -0.44815
-0.009103 0.076565 0.450413
0.044943 -0.732003 -0.138578
0.004949 -0.519586 -0.139775
0.067135 0.427099 -0.235402
0.067813 0.384915 -0.22362
3 468 429 377 56 48 242
3 377 429 526 56 48 242
3 526 429 735 56 48 242
3 735 429 331 56 48 242
3 331 429 468 56 48 242
3 331 468 289 56 48 242
3 289 468 377 56 48 242
3 289 377 39 56 48 242
3 39 377 594 56 48 242
3 594 377 180 56 48 242
3 180 377 526 56 48 242
3 180 526 505 56 48 242
3 505 526 559 56 48 242
3 559 526 735 56 48 242
3 559 735 282 56 48 242
3 282 735 165 56 48 242
3 165 735 331 56 48 242
3 165 331 577 56 48 242
3 577 331 289 56 48 242
3 577 289 738 56 48 242
3 738 289 39 56 48 242
3 738 39 705 56 48 242
3 705 39 228 56 48 242
3 228 39 472 56 48 242
3 472 39 594 56 48 242
3 472 594 180 56 48 242
3 472 180 107 56 48 242
3 107 180 505 56 48 242
3 107 505 492 56 48 242
3 492 505 394 56 48 242
3 394 505 559 56 48 242
3 394 559 730 56 48 242
3 730 559 170 56 48 242
3 170 559 282 56 48 242
3 170 282 113 56 48 242
3 113 282 165 56 48 242
3 113 165 65 56 48 242
3 65 165 577 56 48 242
3 65 577 516 96 204 61
3 516 577 637 96 204 61
3 637 577 367 96 204 61
3 367 577 738 56 48 242
3 367 738 705 56 48 242
3 367 705 5 56 48 242
3 5 705 736 56 48 242
3 736 705 228 56 48 242
3 736 228 563 56 48 242
3 563 228 140 56 48 242
3 140 228 472 56 48 242
3 140 472 733 56 48 242
3 733 472 107 56 48 242
3 733 107 383 56 48 242
3 383 107 492 56 48 242
3 383 492 25 56 48 242
3 25 492 457 56 48 242
3 457 492 394 56 48 242
3 457 394 730 56 48 242
3 457 730 158 56 48 242
3 158 730 563 56 48 242
3 563 730 736 56 48 242
3 736 730 5 56 48 242
3 5 730 170 56 48 242
3 5 170 347 56 48 242
3 347 170 391 56 48 242
3 391 170 113 56 48 242
3 391 113 65 96 204 61
3 391 65 169 96 204 61
3 169 65 516 96 204 61
3 169 516 200 96 204 61
3 200 516 234 96 204 61
3 234 516 298 96 204 61
3 298 516 168 96 204 61
3 168 516 637 96 204 61
3 168 637 367 96 204 61
3 168 367 619 96 204 61
3 619 367 5 56 48 242
3 619 5 347 56 48 242
3 619 347 318 96 204 61
3 318 347 691 96 204 61
3 691 347 391 96 204 61
3 691 391 169 96 204 61
3 691 169 203 96 204 61
3 203 169 200 96 204 61
3 203 200 466 96 204 61
3 466 200 234 96 204 61
3 466 234 96 96 204 61
3 96 234 415 96 204 61
3 415 234 298 96 204 61
3 415 298 241 96 204 61
3 241 298 368 96 204 61
3 368 298 168 96 204 61
3 368 168 104 96 204 61
3 104 168 318 96 204 61
3 318 168 619 96 204 61
3 104 318 718 96 204 61
3 718 318 691 96 204 61
3 718 691 411 96 204 61
3 411 691 203 96 204 61
3 411 203 388 96 204 61
3 388 203 393 96 204 61
3 393 203 466 96 204 61
3 393 466 729 96 204 61
3 729 466 96 96 204 61
3 729 96 163 96 204 61
3 163 96 512 96 204 61
3 512 96 436 96 204 61
3 436 96 415 96 204 61
3 436 415 506 96 204 61
3 506 415 241 96 204 61
3 506 241 716 96 204 61
3 716 241 626 96 204 61
3 626 241 104 96 204 61
3 104 241 368 96 204 61
3 626 104 718 96 204 61
3 626 718 22 96 204 61
3 22 718 307 96 204 61
3 307 718 411 96 204 61
3 307 411 388 96 204 61
3 307 388 129 96 204 61
3 129 388 393 96 204 61
3 129 393 212 96 204 61
3 212 393 729 96 204 61
3 212 729 163 96 204 61
3 212 163 233 96 204 61
3 233 163 245 96 204 61
3 245 163 512 96 204 61
3 245 512 556 96 204 61
3 556 512 449 96 204 61
3 449 512 436 96 204 61
3 449 436 371 96 204 61
3 371 436 506 96 204 61
3 371 506 664 96 204 61
3 664 506 716 96 204 61
3 664 716 374 96 204 61
3 374 716 22 96 204 61
3 22 716 626 96 204 61
3 374 22 319 96 204 61
3 319 22 675 96 204 61
3 675 22 307 96 204 61
3 675 307 129 96 204 61
3 675 129 223 96 204 61
3 223 129 212 96 204 61
3 223 212 233 96 204 61
3 223 233 209 96 204 61
3 209 233 268 96 204 61
3 268 233 615 96 204 61
3 615 233 245 96 204 61
3 615 245 556 96 204 61
3 615 556 141 96 204 61
3 141 556 745 242 24 142
3 745 556 480 242 24 142
3 480 556 449 96 204 61
3 480 449 653 96 204 61
3 653 449 371 96 204 61
3 653 371 484 96 204 61
3 484 371 664 96 204 61
3 484 664 374 96 204 61
3 484 374 434 96 204 61
3 434 374 509 242 24 142
3 509 374 266 242 24 142
3 266 374 8 96 204 61
3 8 374 319 96 204 61
3 8 319 675 96 204 61
3 8 675 209 96 204 61
3 209 675 223 96 204 61
3 8 209 504 96 204 61
3 504 209 268 96 204 61
3 504 268 373 242 24 142
3 373 268 141 242 24 142
3 141 268 615 96 204 61
3 373 141 83 242 24 142
3 83 141 745 242 24 142
3 83 745 230 242 24 142
3 230 745 521 242 24 142
3 521 745 480 242 24 142
3 521 480 653 96 204 61
3 521 653 484 242 24 142
3 521 484 579 242 24 142
3 579 484 434 242 24 142
3 579 434 509 242 24 142
3 579 509 93 242 24 142
3 93 509 332 242 24 142
3 332 509 20 242 24 142
3 20 509 649 242 24 142
3 649 509 266 242 24 142
3 649 266 504 242 24 142
3 504 266 8 96 204 61
3 649 504 410 242 24 142
3 410 504 373 242 24 142
3 410 373 197 242 24 142
3 197 373 216 242 24 142
3 216 373 83 242 24 142
3 216 83 174 242 24 142
3 174 83 683 242 24 142
3 683 83 230 242 24 142
3 683 230 112 242 24 142
3 112 230 195 242 24 142
3 195 230 530 242 24 142
3 530 230 521 242 24 142
3 530 521 579 242 24 142
3 530 579 195 242 24 142
3 195 579 93 242 24 142
3 195 93 440 242 24 142
3 440 93 447 242 24 142
3 447 93 332 242 24 142
3 447 332 275 242 24 142
3 275 332 20 242 24 142
3 275 20 676 242 24 142
3 676 20 270 242 24 142
3 270 20 649 242 24 142
3 270 649 410 242 24 142
3 270 410 658 242 24 142
3 658 410 197 242 24 142
3 658 197 673 242 24 142
3 673 197 216 242 24 142
3 673 216 623 242 24 142
3 623 216 558 242 24 142
3 558 216 174 242 24 142
3 558 174 37 242 24 142
3 37 174 683 242 24 142
3 37 683 112 242 24 142
3 37 112 620 242 24 142
3 620 112 195 242 24 142
3 620 195 734 242 24 142
3 734 195 440 242 24 142
3 734 440 286 242 24 142
3 286 440 447 242 24 142
3 286 447 532 242 24 142
3 532 447 275 242 24 142
3 532 275 148 242 24 142
3 148 275 676 242 24 142
3 148 676 284 242 24 142
3 284 676 270 242 24 142
3 284 270 644 242 24 142
3 644 270 658 242 24 142
3 644 658 295 242 24 142
3 295 658 673 242 24 142
3 295 673 108 242 24 142
3 108 673 623 242 24 142
3 108 623 185 242 24 142
3 185 623 558 242 24 142
3 185 558 633 242 24 142
3 633 558 460 242 24 142
3 460 558 37 242 24 142
3 460 37 500 242 24 142
3 500 37 620 242 24 142
3 500 620 494 242 24 142
3 494 620 734 242 24 142
3 494 734 291 242 24 142
3 291 734 61 242 24 142
3 61 734 286 242 24 142
3 61 286 463 242 24 142
3 463 286 532 242 24 142
3 463 532 536 242 24 142
3 536 532 148 242 24 142
3 536 148 647 242 24 142
3 647 148 545 242 24 142
3 545 148 744 242 24 142
3 744 148 284 242 24 142
3 744 284 644 242 24 142
3 744 644 684 242 24 142
3 684 644 295 242 24 142
3 684 295 301 242 24 142
3 301 295 108 242 24 142
3 301 108 185 242 24 142
3 301 185 82 242 24 142
3 82 185 633 242 24 142
3 82 633 710 242 24 142
3 710 633 588 242 24 142
3 588 633 501 242 24 142
3 501 633 704 242 24 142
3 704 633 460 242 24 142
3 704 460 500 242 24 142
3 704 500 52 242 24 142
3 52 500 291 242 24 142
3 291 500 494 242 24 142
3 52 291 6 40 176 204
3 6 291 210 40 176 204
3 210 291 61 242 24 142
3 210 61 103 242 24 142
3 103 61 463 242 24 142
3 103 463 78 242 24 142
3 78 463 536 242 24 142
3 78 536 407 242 24 142
3 407 536 647 242 24 142
3 407 647 277 242 24 142
3 277 647 437 242 24 142
3 437 647 680 242 24 142
3 680 647 545 242 24 142
3 680 545 560 242 24 142
3 560 545 737 242 24 142
3 737 545 744 242 24 142
3 737 744 684 242 24 142
3 737 684 301 242 24 142
3 737 301 597 242 24 142
3 597 301 267 242 24 142
3 267 301 82 242 24 142
3 267 82 138 242 24 142
3 138 82 710 242 24 142
3 138 710 115 40 176 204
3 115 710 588 40 176 204
3 115 588 570 40 176 204
3 570 588 501 40 176 204
3 570 501 146 40 176 204
3 146 501 0 40 176 204
3 0 501 313 40 176 204
3 313 501 704 40 176 204
3 313 704 52 40 176 204
3 313 52 0 40 176 204
3 0 52 323 40 176 204
3 323 52 6 40 176 204
3 323 6 202 242 24 142
3 202 6 235 242 24 142
3 235 6 629 242 24 142
3 629 6 27 40 176 204
3 27 6 408 40 176 204
3 408 6 210 40 176 204
3 408 210 414 40 176 204
3 414 210 103 40 176 204
3 414 103 78 242 24 142
3 414 78 277 40 176 204
3 277 78 407 242 24 142
3 414 277 524 40 176 204
3 524 277 360 40 176 204
3 360 277 437 40 176 204
3 360 437 638 40 176 204
3 638 437 59 40 176 204
3 59 437 612 40 176 204
3 612 437 680 40 176 204
3 612 680 560 242 24 142
3 612 560 572 40 176 204
3 572 560 597 242 24 142
3 597 560 737 242 24 142
3 572 597 76 40 176 204
3 76 597 267 242 24 142
3 76 267 604 40 176 204
3 604 267 138 40 176 204
3 604 138 115 40 176 204
3 604 115 662 40 176 204
3 662 115 534 40 176 204
3 534 115 570 40 176 204
3 534 570 469 40 176 204
3 469 570 146 40 176 204
3 469 146 98 40 176 204
3 98 146 453 242 24 142
3 453 146 0 40 176 204
3 453 0 137 242 24 142
3 137 0 323 40 176 204
3 137 323 202 242 24 142
3 137 202 136 242 24 142
3 136 202 722 242 24 142
3 722 202 311 242 24 142
3 311 202 235 242 24 142
3 311 235 263 242 24 142
3 263 235 699 242 24 142
3 699 235 629 242 24 142
3 699 629 71 242 24 142
3 71 629 264 242 24 142
3 264 629 27 242 24 142
3 264 27 685 242 24 142
3 685 27 408 40 176 204
3 685 408 528 40 176 204
3 528 408 3 40 176 204
3 3 408 414 40 176 204
3 3 414 524 40 176 204
3 3 524 602 40 176 204
3 602 524 360 40 176 204
3 602 360 638 40 176 204
3 602 638 249 40 176 204
3 249 638 598 40 176 204
3 598 638 405 40 176 204
3 405 638 59 40 176 204
3 405 59 303 40 176 204
3 303 59 281 40 176 204
3 281 59 572 40 176 204
3 572 59 612 40 176 204
3 281 572 76 40 176 204
3 281 76 446 40 176 204
3 446 76 604 40 176 204
3 446 604 662 40 176 204
3 446 662 359 40 176 204
3 359 662 642 40 176 204
3 642 662 534 40 176 204
3 642 534 175 40 176 204
3 175 534 156 40 176 204
3 156 534 465 40 176 204
3 465 534 469 40 176 204
3 465 469 442 40 176 204
3 442 469 98 40 176 204
3 442 98 732 40 176 204
3 732 98 424 242 24 142
3 424 98 118 242 24 142
3 118 98 453 242 24 142
3 118 453 206 242 24 142
3 206 453 136 242 24 142
3 136 453 137 242 24 142
3 206 136 722 242 24 142
3 206 722 497 242 24 142
3 497 722 149 242 24 142
3 149 722 631 242 24 142
3 631 722 311 242 24 142
3 631 311 310 242 24 142
3 310 311 263 242 24 142
3 310 263 300 242 24 142
3 300 263 272 242 24 142
3 272 263 699 242 24 142
3 272 699 71 242 24 142
3 272 71 482 242 24 142
3 482 71 264 242 24 142
3 482 264 358 242 24 142
3 358 264 498 242 24 142
3 498 264 481 242 24 142
3 481 264 685 242 24 142
3 481 685 528 40 176 204
3 481 528 10 40 176 204
3 10 528 364 40 176 204
3 364 528 3 40 176 204
3 364 3 656 40 176 204
3 656 3 602 40 176 204
3 656 602 742 40 176 204
3 742 602 249 40 176 204
3 742 249 686 40 176 204
3 686 249 598 40 176 204
3 686 598 531 40 176 204
3 531 598 496 40 176 204
3 496 598 110 40 176 204
3 110 598 405 40 176 204
3 110 405 303 40 176 204
3 110 303 423 40 176 204
3 423 303 238 40 176 204
3 238 303 205 40 176 204
3 205 303 281 40 176 204
3 205 281 419 40 176 204
3 419 281 446 40 176 204
3 419 446 359 40 176 204
3 419 359 92 40 176 204
3 92 359 642 40 176 204
3 92 642 1 40 176 204
3 1 642 645 40 176 204
3 645 642 175 40 176 204
3 645 175 648 40 176 204
3 648 175 279 40 176 204
3 279 175 156 40 176 204
3 279 156 465 40 176 204
3 279 465 634 40 176 204
3 634 465 732 40 176 204
3 732 465 442 40 176 204
3 634 732 207 40 176 204
3 207 732 45 242 24 142
3 45 732 424 242 24 142
3 45 424 21 242 24 142
3 21 424 118 242 24 142
3 21 118 109 242 24 142
3 109 118 497 242 24 142
3 497 118 206 242 24 142
3 109 497 464 242 24 142
3 464 497 149 242 24 142
3 464 149 349 242 24 142
3 349 149 631 242 24 142
3 349 631 589 242 24 142
3 589 631 304 242 24 142
3 304 631 310 242 24 142
3 304 310 208 242 24 142
3 208 310 300 242 24 142
3 208 300 131 242 24 142
3 131 300 90 242 24 142
3 90 300 77 242 24 142
3 77 300 272 242 24 142
3 77 272 482 242 24 142
3 77 482 546 242 24 142
3 546 482 456 242 24 142
3 456 482 358 242 24 142
3 456 358 315 242 24 142
3 315 358 696 242 24 142
3 696 358 498 242 24 142
3 696 498 89 242 24 142
3 89 498 10 40 176 204
3 10 498 481 40 176 204
3 89 10 26 40 176 204
3 26 10 364 40 176 204
3 26 364 713 40 176 204
3 713 364 656 40 176 204
3 713 656 742 40 176 204
3 713 742 686 40 176 204
3 713 686 431 40 176 204
3 431 686 531 40 176 204
3 431 531 522 40 176 204
3 522 531 308 40 176 204
3 308 531 496 40 176 204
3 308 496 565 40 176 204
3 565 496 13 40 176 204
3 13 496 110 40 176 204
3 13 110 217 40 176 204
3 217 110 587 40 176 204
3 587 110 423 40 176 204
3 587 423 625 40 176 204
3 625 423 238 40 176 204
3 625 238 143 40 176 204
3 143 238 205 40 176 204
3 143 205 92 40 176 204
3 92 205 419 40 176 204
3 143 92 34 40 176 204
3 34 92 1 40 176 204
3 34 1 215 40 176 204
3 215 1 645 40 176 204
3 215 645 417 40 176 204
3 417 645 648 40 176 204
3 417 648 244 40 176 204
3 244 648 79 40 176 204
3 79 648 433 40 176 204
3 433 648 279 40 176 204
3 433 279 634 40 176 204
3 433 634 145 40 176 204
3 145 634 207 40 176 204
3 145 207 726 40 176 204
3 726 207 406 242 24 142
3 406 207 45 242 24 142
3 406 45 641 242 24 142
3 641 45 432 242 24 142
3 432 45 21 242 24 142
3 432 21 109 242 24 142
3 432 109 643 242 24 142
3 643 109 50 242 24 142
3 50 109 464 242 24 142
3 50 464 688 242 24 142
3 688 464 349 242 24 142
3 688 349 589 242 24 142
3 688 589 381 242 24 142
3 381 589 630 242 24 142
3 630 589 304 242 24 142
3 630 304 86 242 24 142
3 86 304 529 242 24 142
3 529 304 208 242 24 142
3 529 208 606 242 24 142
3 606 208 131 242 24 142
3 606 131 379 242 24 142
3 379 131 90 242 24 142
3 379 90 476 242 24 142
3 476 90 546 242 24 142
3 546 90 77 242 24 142
3 476 546 456 242 24 142
3 476 456 576 242 24 142
3 576 456 490 242 24 142
3 490 456 315 242 24 142
3 490 315 178 242 24 142
3 178 315 696 242 24 142
3 178 696 593 242 24 142
3 593 696 89 242 24 142
3 593 89 726 40 176 204
3 726 89 306 40 176 204
3 306 89 26 40 176 204
3 306 26 56 40 176 204
3 56 26 713 40 176 204
3 56 713 614 40 176 204
3 614 713 431 40 176 204
3 614 431 292 40 176 204
3 292 431 522 40 176 204
3 292 522 94 40 176 204
3 94 522 425 40 176 204
3 425 522 308 40 176 204
3 425 308 565 40 176 204
3 425 565 421 40 176 204
3 421 565 477 40 176 204
3 477 565 471 40 176 204
3 471 565 13 40 176 204
3 471 13 217 40 176 204
3 471 217 707 40 176 204
3 707 217 403 40 176 204
3 403 217 587 40 176 204
3 403 587 250 40 176 204
3 250 587 357 40 176 204
3 357 587 625 40 176 204
3 357 625 575 40 176 204
3 575 625 34 40 176 204
3 34 625 143 40 176 204
3 575 34 478 40 176 204
3 478 34 215 40 176 204
3 478 215 417 40 176 204
3 478 417 339 40 176 204
3 339 417 182 40 176 204
3 182 417 244 40 176 204
3 182 244 418 40 176 204
3 418 244 709 40 176 204
3 709 244 227 40 176 204
3 227 244 79 40 176 204
3 227 79 296 40 176 204
3 296 79 376 40 176 204
3 376 79 433 40 176 204
3 376 433 36 40 176 204
3 36 433 145 40 176 204
3 36 145 726 40 176 204
3 36 726 376 40 176 204
3 376 726 306 40 176 204
3 376 306 56 40 176 204
3 376 56 296 40 176 204
3 296 56 614 40 176 204
3 296 614 139 40 176 204
3 139 614 292 40 176 204
3 139 292 94 40 176 204
3 139 94 225 40 176 204
3 225 94 184 40 176 204
3 184 94 116 40 176 204
3 116 94 425 40 176 204
3 116 425 646 40 176 204
3 646 425 421 40 176 204
3 646 421 242 40 176 204
3 242 421 329 40 176 204
3 329 421 477 40 176 204
3 329 477 201 40 176 204
3 201 477 707 40 176 204
3 707 477 471 40 176 204
3 201 707 204 40 176 204
3 204 707 403 40 176 204
3 204 403 706 40 176 204
3 706 403 250 40 176 204
3 706 250 335 40 176 204
3 335 250 723 40 176 204
3 723 250 401 40 176 204
3 401 250 357 40 176 204
3 401 357 474 40 176 204
3 474 357 144 40 176 204
3 144 357 575 40 176 204
3 144 575 478 40 176 204
3 144 478 339 40 176 204
3 144 339 160 40 176 204
3 160 339 182 40 176 204
3 160 182 550 40 176 204
3 550 182 418 40 176 204
3 550 418 455 40 176 204
3 455 418 709 40 176 204
3 455 709 225 40 176 204
3 225 709 139 40 176 204
3 139 709 227 40 176 204
3 139 227 296 40 176 204
3 455 225 351 40 176 204
3 351 225 184 40 176 204
3 351 184 211 40 176 204
3 211 184 116 40 176 204
3 211 116 55 40 176 204
3 55 116 646 40 176 204
3 55 646 242 40 176 204
3 55 242 583 40 176 204
3 583 242 101 40 176 204
3 101 242 42 40 176 204
3 42 242 247 40 176 204
3 247 242 329 40 176 204
3 247 329 201 40 176 204
3 247 201 743 40 176 204
3 743 201 321 40 176 204
3 321 201 204 40 176 204
3 321 204 454 40 176 204
3 454 204 706 40 176 204
3 454 706 99 40 176 204
3 99 706 335 40 176 204
3 99 335 473 242 221 72
3 473 335 657 242 221 72
3 657 335 652 242 221 72
3 652 335 723 242 221 72
3 652 723 507 242 221 72
3 507 723 567 242 221 72
3 567 723 401 40 176 204
3 567 401 49 40 176 204
3 49 401 48 40 176 204
3 48 401 474 40 176 204
3 48 474 40 40 176 204
3 40 474 144 40 176 204
3 40 144 569 40 176 204
3 569 144 160 40 176 204
3 569 160 135 40 176 204
3 135 160 187 40 176 204
3 187 160 550 40 176 204
3 187 550 562 40 176 204
3 562 550 455 40 176 204
3 562 455 123 40 176 204
3 123 455 351 40 176 204
3 123 351 17 40 176 204
3 17 351 724 40 176 204
3 724 351 211 40 176 204
3 724 211 276 40 176 204
3 276 211 55 40 176 204
3 276 55 583 40 176 204
3 276 583 543 40 176 204
3 543 583 101 40 176 204
3 543 101 232 40 176 204
3 232 101 42 40 176 204
3 232 42 452 40 176 204
3 452 42 87 40 176 204
3 87 42 69 40 176 204
3 69 42 247 40 176 204
3 69 247 743 40 176 204
3 69 743 337 40 176 204
3 337 743 345 40 176 204
3 345 743 321 40 176 204
3 345 321 454 40 176 204
3 345 454 99 40 176 204
3 345 99 257 40 176 204
3 257 99 173 242 221 72
3 173 99 473 242 221 72
3 173 473 219 242 221 72
3 219 473 214 242 221 72
3 214 473 340 242 221 72
3 340 473 657 242 221 72
3 340 657 85 242 221 72
3 85 657 652 242 221 72
3 85 652 650 242 221 72
3 650 652 507 242 221 72
3 650 507 196 242 221 72
3 196 507 567 242 221 72
3 196 567 470 242 221 72
3 470 567 49 242 221 72
3 470 49 639 242 221 72
3 639 49 363 242 221 72
3 363 49 213 40 176 204
3 213 49 48 40 176 204
3 213 48 40 40 176 204
3 213 40 541 40 176 204
3 541 40 167 40 176 204
3 167 40 569 40 176 204
3 167 569 613 40 176 204
3 613 569 135 40 176 204
3 613 135 64 40 176 204
3 64 135 187 40 176 204
3 64 187 692 40 176 204
3 692 187 338 40 176 204
3 338 187 562 40 176 204
3 338 562 123 40 176 204
3 338 123 142 40 176 204
3 142 123 17 40 176 204
3 142 17 591 242 221 72
3 591 17 499 242 221 72
3 499 17 724 40 176 204
3 499 724 276 40 176 204
3 499 276 547 40 176 204
3 547 276 543 40 176 204
3 547 543 125 40 176 204
3 125 543 232 40 176 204
3 125 232 443 40 176 204
3 443 232 385 40 176 204
3 385 232 452 40 176 204
3 385 452 585 40 176 204
3 585 452 222 40 176 204
3 222 452 258 40 176 204
3 258 452 87 40 176 204
3 258 87 557 40 176 204
3 557 87 337 40 176 204
3 337 87 69 40 176 204
3 557 337 488 40 176 204
3 488 337 568 40 176 204
3 568 337 75 40 176 204
3 75 337 345 40 176 204
3 75 345 257 40 176 204
3 75 257 253 40 176 204
3 253 257 398 242 221 72
3 398 257 621 242 221 72
3 621 257 173 242 221 72
3 621 173 219 242 221 72
3 621 219 525 242 221 72
3 525 219 540 242 221 72
3 540 219 214 242 221 72
3 540 214 386 242 221 72
3 386 214 340 242 221 72
3 386 340 677 242 221 72
3 677 340 85 242 221 72
3 677 85 439 242 221 72
3 439 85 650 242 221 72
3 439 650 479 242 221 72
3 479 650 370 242 221 72
3 370 650 196 242 221 72
3 370 196 470 242 221 72
3 370 470 172 242 221 72
3 172 470 690 242 221 72
3 690 470 639 242 221 72
3 690 639 475 242 221 72
3 475 639 297 242 221 72
3 297 639 363 242 221 72
3 297 363 343 40 176 204
3 343 363 213 40 176 204
3 343 213 541 40 176 204
3 343 541 600 40 176 204
3 600 541 167 40 176 204
3 600 167 189 40 176 204
3 189 167 613 40 176 204
3 189 613 392 40 176 204
3 392 613 64 40 176 204
3 392 64 584 40 176 204
3 584 64 130 40 176 204
3 130 64 692 40 176 204
3 130 692 285 40 176 204
3 285 692 338 40 176 204
3 285 338 236 242 221 72
3 236 338 142 242 221 72
3 236 142 404 242 221 72
3 404 142 305 242 221 72
3 305 142 591 242 221 72
3 305 591 320 242 221 72
3 320 591 665 242 221 72
3 665 591 499 242 221 72
3 665 499 547 242 221 72
3 665 547 226 242 221 72
3 226 547 125 242 221 72
3 226 125 252 242 221 72
3 252 125 590 242 221 72
3 590 125 128 40 176 204
3 128 125 443 40 176 204
3 128 443 584 40 176 204
3 584 443 416 40 176 204
3 416 443 385 40 176 204
3 416 385 519 40 176 204
3 519 385 585 40 176 204
3 519 585 314 40 176 204
3 314 585 222 40 176 204
3 314 222 102 40 176 204
3 102 222 557 40 176 204
3 557 222 258 40 176 204
3 102 557 488 40 176 204
3 102 488 186 40 176 204
3 186 488 317 40 176 204
3 317 488 190 40 176 204
3 190 488 568 40 176 204
3 190 568 430 40 176 204
3 430 568 253 40 176 204
3 253 568 75 40 176 204
3 430 253 297 40 176 204
3 297 253 398 242 221 72
3 297 398 475 242 221 72
3 475 398 621 242 221 72
3 475 621 330 242 221 72
3 330 621 586 242 221 72
3 586 621 525 242 221 72
3 586 525 362 242 221 72
3 362 525 540 242 221 72
3 362 540 147 242 221 72
3 147 540 386 242 221 72
3 147 386 640 242 221 72
3 640 386 725 242 221 72
3 725 386 677 242 221 72
3 725 677 372 127 20 204
3 372 677 344 127 20 204
3 344 677 273 127 20 204
3 273 677 439 242 221 72
3 273 439 479 242 221 72
3 273 479 124 242 221 72
3 124 479 370 242 221 72
3 124 370 172 242 221 72
3 124 172 495 242 221 72
3 495 172 362 242 221 72
3 362 172 586 242 221 72
3 586 172 690 242 221 72
3 586 690 330 242 221 72
3 330 690 475 242 221 72
3 495 362 147 242 221 72
3 495 147 67 127 20 204
3 67 147 395 127 20 204
3 395 147 348 127 20 204
3 348 147 640 127 20 204
3 348 640 483 127 20 204
3 483 640 535 127 20 204
3 535 640 725 127 20 204
3 535 725 372 127 20 204
3 535 372 608 127 20 204
3 608 372 445 127 20 204
3 445 372 44 127 20 204
3 44 372 344 127 20 204
3 44 344 462 127 20 204
3 462 344 273 127 20 204
3 462 273 693 127 20 204
3 693 273 124 127 20 204
3 693 124 127 127 20 204
3 127 124 495 127 20 204
3 127 495 67 127 20 204
3 127 67 395 127 20 204
3 127 395 511 127 20 204
3 511 395 80 127 20 204
3 80 395 348 127 20 204
3 80 348 542 127 20 204
3 542 348 694 127 20 204
3 694 348 483 127 20 204
3 694 483 608 127 20 204
3 608 483 535 127 20 204
3 694 608 342 127 20 204
3 342 608 444 127 20 204
3 444 608 741 127 20 204
3 741 608 445 127 20 204
3 741 445 681 127 20 204
3 681 445 435 127 20 204
3 435 445 44 127 20 204
3 435 44 462 127 20 204
3 435 462 7 127 20 204
3 7 462 693 127 20 204
3 7 693 127 127 20 204
3 7 127 511 127 20 204
3 7 511 510 127 20 204
3 510 511 747 127 20 204
3 747 511 542 127 20 204
3 542 511 80 127 20 204
3 747 542 122 127 20 204
3 122 542 342 127 20 204
3 342 542 694 127 20 204
3 122 342 635 127 20 204
3 635 342 574 48 242 105
3 574 342 444 127 20 204
3 574 444 382 48 242 105
3 382 444 595 127 20 204
3 595 444 741 127 20 204
3 595 741 681 127 20 204
3 595 681 100 127 20 204
3 100 681 747 127 20 204
3 747 681 510 127 20 204
3 510 681 435 127 20 204
3 510 435 7 127 20 204
3 100 747 667 127 20 204
3 667 747 122 127 20 204
3 667 122 635 48 242 105
3 667 635 259 48 242 105
3 259 635 68 48 242 105
3 68 635 574 48 242 105
3 68 574 668 48 242 105
3 668 574 117 48 242 105
3 117 574 382 48 242 105
3 117 382 727 48 242 105
3 727 382 595 48 242 105
3 727 595 100 48 242 105
3 727 100 28 48 242 105
3 28 100 667 48 242 105
3 28 667 533 48 242 105
3 533 667 259 48 242 105
3 533 259 671 48 242 105
3 671 259 60 48 242 105
3 60 259 68 48 242 105
3 60 68 668 48 242 105
3 60 668 601 48 242 105
3 601 668 459 48 242 105
3 459 668 117 48 242 105
3 459 117 727 48 242 105
3 459 727 28 48 242 105
3 459 28 199 48 242 105
3 199 28 533 48 242 105
3 199 533 671 48 242 105
3 199 671 60 48 242 105
3 199 60 601 48 242 105
3 199 601 459 48 242 105
3 430 297 343 40 176 204
3 430 343 243 40 176 204
3 243 343 600 40 176 204
3 243 600 571 40 176 204
3 571 600 651 40 176 204
3 651 600 189 40 176 204
3 651 189 392 40 176 204
3 651 392 584 40 176 204
3 651 584 179 40 176 204
3 179 584 564 40 176 204
3 564 584 416 40 176 204
3 564 416 518 40 176 204
3 518 416 294 204 61 61
3 294 416 519 204 61 61
3 294 519 9 204 61 61
3 9 519 422 204 61 61
3 422 519 314 204 61 61
3 422 314 237 204 61 61
3 237 314 102 204 61 61
3 237 102 287 204 61 61
3 287 102 186 204 61 61
3 287 186 551 204 61 61
3 551 186 2 204 61 61
3 2 186 317 204 61 61
3 2 317 325 204 61 61
3 325 317 35 204 61 61
3 35 317 571 40 176 204
3 571 317 190 40 176 204
3 571 190 243 40 176 204
3 243 190 430 40 176 204
3 35 571 179 40 176 204
3 179 571 651 40 176 204
3 35 179 564 40 176 204
3 35 564 518 40 176 204
3 35 518 255 204 61 61
3 255 518 47 204 61 61
3 47 518 260 204 61 61
3 260 518 294 204 61 61
3 260 294 51 204 61 61
3 51 294 9 204 61 61
3 51 9 611 204 61 61
3 611 9 422 204 61 61
3 611 422 126 204 61 61
3 126 422 544 204 61 61
3 544 422 237 204 61 61
3 544 237 287 204 61 61
3 544 287 164 204 61 61
3 164 287 396 204 61 61
3 396 287 551 204 61 61
3 396 551 603 204 61 61
3 603 551 2 204 61 61
3 603 2 41 204 61 61
3 41 2 283 204 61 61
3 283 2 325 204 61 61
3 283 325 152 204 61 61
3 152 325 255 204 61 61
3 255 325 35 204 61 61
3 152 255 47 204 61 61
3 152 47 246 204 61 61
3 246 47 72 204 61 61
3 72 47 260 204 61 61
3 72 260 18 204 61 61
3 18 260 720 204 61 61
3 720 260 16 204 61 61
3 16 260 51 204 61 61
3 16 51 720 204 61 61
3 720 51 703 204 61 61
3 703 51 611 204 61 61
3 703 611 119 204 61 61
3 119 611 126 204 61 61
3 119 126 698 204 61 61
3 698 126 544 204 61 61
3 698 544 164 204 61 61
3 698 164 520 204 61 61
3 520 164 177 204 61 61
3 177 164 622 204 61 61
3 622 164 396 204 61 61
3 622 396 603 204 61 61
3 622 603 607 204 61 61
3 607 603 41 204 61 61
3 607 41 578 204 61 61
3 578 41 12 204 61 61
3 12 41 53 204 61 61
3 53 41 283 204 61 61
3 53 283 618 204 61 61
3 618 283 152 204 61 61
3 618 152 246 204 61 61
3 618 246 366 204 61 61
3 366 246 188 204 61 61
3 188 246 72 204 61 61
3 188 72 18 204 61 61
3 188 18 269 204 61 61
3 269 18 24 204 61 61
3 24 18 720 204 61 61
3 24 720 703 204 61 61
3 24 703 687 204 61 61
3 687 703 515 204 61 61
3 515 703 119 204 61 61
3 515 119 239 204 61 61
3 239 119 698 204 61 61
3 239 698 609 204 61 61
3 609 698 520 204 61 61
3 609 520 326 204 61 61
3 326 520 177 204 61 61
3 326 177 57 204 61 61
3 57 177 721 204 61 61
3 721 177 607 204 61 61
3 607 177 622 204 61 61
3 721 607 578 204 61 61
3 721 578 580 204 61 61
3 580 578 12 204 61 61
3 580 12 523 204 61 61
3 523 12 53 204 61 61
3 523 53 618 204 61 61
3 523 618 366 204 61 61
3 523 366 719 204 61 61
3 719 366 400 204 61 61
3 400 366 188 204 61 61
3 400 188 269 204 61 61
3 400 269 697 204 61 61
3 697 269 218 204 61 61
3 218 269 24 204 61 61
3 218 24 58 204 61 61
3 58 24 687 204 61 61
3 58 687 31 204 61 61
3 31 687 220 204 61 61
3 220 687 609 204 61 61
3 609 687 515 204 61 61
3 609 515 239 204 61 61
3 220 609 70 204 61 61
3 70 609 326 204 61 61
3 70 326 380 204 61 61
3 380 326 57 204 61 61
3 380 57 221 204 61 61
3 221 57 361 204 61 61
3 361 57 254 204 61 61
3 254 57 721 204 61 61
3 254 721 580 204 61 61
3 254 580 523 204 61 61
3 254 523 669 204 61 61
3 669 523 132 204 61 61
3 132 523 719 204 61 61
3 132 719 400 204 61 61
3 132 400 669 204 61 61
3 669 400 697 204 61 61
3 669 697 717 204 61 61
3 717 697 4 204 61 61
3 4 697 218 204 61 61
3 4 218 701 204 61 61
3 701 218 31 204 61 61
3 31 218 58 204 61 61
3 701 31 513 204 61 61
3 513 31 220 204 61 61
3 513 220 70 204 61 61
3 513 70 221 204 61 61
3 221 70 380 204 61 61
3 513 221 701 204 61 61
3 701 221 4 204 61 61
3 4 221 717 204 61 61
3 717 221 361 204 61 61
3 717 361 669 204 61 61
3 669 361 254 204 61 61
3 128 584 130 40 176 204
3 128 130 590 40 176 204
3 590 130 413 242 221 72
3 413 130 285 242 221 72
3 413 285 750 242 221 72
3 750 285 236 242 221 72
3 750 236 751 242 221 72
3 751 236 150 242 221 72
3 150 236 404 242 221 72
3 150 404 674 242 221 72
3 674 404 305 242 221 72
3 674 305 514 242 221 72
3 514 305 489 242 221 72
3 489 305 320 242 221 72
3 489 320 678 242 221 72
3 678 320 660 242 221 72
3 660 320 665 242 221 72
3 660 665 389 242 221 72
3 389 665 226 242 221 72
3 389 226 252 242 221 72
3 389 252 192 242 221 72
3 192 252 413 242 221 72
3 413 252 590 242 221 72
3 192 413 750 242 221 72
3 192 750 695 242 221 72
3 695 750 731 242 221 72
3 731 750 751 242 221 72
3 731 751 274 242 221 72
3 274 751 150 242 221 72
3 274 150 493 242 221 72
3 493 150 674 242 221 72
3 493 674 514 242 221 72
3 493 514 740 242 221 72
3 740 514 592 242 221 72
3 592 514 489 242 221 72
3 592 489 678 242 221 72
3 592 678 278 242 221 72
3 278 678 502 242 221 72
3 502 678 350 242 221 72
3 350 678 660 242 221 72
3 350 660 231 242 221 72
3 231 660 389 242 221 72
3 231 389 192 242 221 72
3 231 192 695 242 221 72
3 231 695 420 242 221 72
3 420 695 731 242 221 72
3 420 731 274 242 221 72
3 420 274 467 242 221 72
3 467 274 493 242 221 72
3 467 493 740 242 221 72
3 467 740 632 127 20 204
3 632 740 322 127 20 204
3 322 740 592 242 221 72
3 322 592 278 242 221 72
3 322 278 485 127 20 204
3 485 278 402 127 20 204
3 402 278 502 127 20 204
3 402 502 299 127 20 204
3 299 502 350 127 20 204
3 299 350 333 127 20 204
3 333 350 231 242 221 72
3 333 231 420 242 221 72
3 333 420 566 242 221 72
3 566 420 161 242 221 72
3 161 420 467 242 221 72
3 161 467 632 127 20 204
3 161 632 198 127 20 204
3 198 632 262 127 20 204
3 262 632 322 127 20 204
3 262 322 485 127 20 204
3 262 485 616 127 20 204
3 616 485 617 127 20 204
3 617 485 346 127 20 204
3 346 485 402 127 20 204
3 346 402 517 127 20 204
3 517 402 596 127 20 204
3 596 402 299 127 20 204
3 596 299 627 127 20 204
3 627 299 566 127 20 204
3 566 299 333 127 20 204
3 627 566 655 127 20 204
3 655 566 161 127 20 204
3 655 161 198 127 20 204
3 655 198 438 127 20 204
3 438 198 670 127 20 204
3 670 198 262 127 20 204
3 670 262 15 127 20 204
3 15 262 616 127 20 204
3 15 616 702 127 20 204
3 702 616 617 127 20 204
3 702 617 106 127 20 204
3 106 617 43 127 20 204
3 43 617 517 127 20 204
3 517 617 346 127 20 204
3 43 517 610 127 20 204
3 610 517 672 127 20 204
3 672 517 596 127 20 204
3 672 596 193 127 20 204
3 193 596 627 127 20 204
3 193 627 114 127 20 204
3 114 627 655 127 20 204
3 114 655 438 127 20 204
3 114 438 334 127 20 204
3 334 438 554 127 20 204
3 554 438 15 127 20 204
3 15 438 670 127 20 204
3 554 15 151 127 20 204
3 151 15 702 127 20 204
3 151 702 106 127 20 204
3 151 106 355 127 20 204
3 355 106 746 127 20 204
3 746 106 43 127 20 204
3 746 43 739 127 20 204
3 739 43 610 127 20 204
3 739 610 714 127 20 204
3 714 610 672 127 20 204
3 714 672 183 127 20 204
3 183 672 334 127 20 204
3 334 672 193 127 20 204
3 334 193 114 127 20 204
3 183 334 554 127 20 204
3 183 554 355 127 20 204
3 355 554 151 127 20 204
3 183 355 157 127 20 204
3 157 355 561 48 242 105
3 561 355 746 48 242 105
3 561 746 458 48 242 105
3 458 746 261 48 242 105
3 261 746 739 48 242 105
3 261 739 369 48 242 105
3 369 739 714 48 242 105
3 369 714 248 48 242 105
3 248 714 390 48 242 105
3 390 714 183 127 20 204
3 390 183 548 48 242 105
3 548 183 157 48 242 105
3 548 157 38 48 242 105
3 38 157 561 48 242 105
3 38 561 605 48 242 105
3 605 561 458 48 242 105
3 605 458 54 48 242 105
3 54 458 261 48 242 105
3 54 261 369 48 242 105
3 54 369 162 48 242 105
3 162 369 288 48 242 105
3 288 369 248 48 242 105
3 288 248 390 48 242 105
3 288 390 548 48 242 105
3 288 548 666 48 242 105
3 666 548 14 48 242 105
3 14 548 38 48 242 105
3 14 38 605 48 242 105
3 14 605 54 48 242 105
3 14 54 555 48 242 105
3 555 54 162 48 242 105
3 555 162 666 48 242 105
3 666 162 288 48 242 105
3 555 666 14 48 242 105
3 593 726 406 242 24 142
3 593 406 178 242 24 142
3 178 406 641 242 24 142
3 178 641 490 242 24 142
3 490 641 451 242 24 142
3 451 641 432 242 24 142
3 451 432 643 242 24 142
3 451 643 728 242 24 142
3 728 643 50 242 24 142
3 728 50 487 242 24 142
3 487 50 354 242 24 142
3 354 50 688 242 24 142
3 354 688 381 242 24 142
3 354 381 682 242 24 142
3 682 381 191 242 24 142
3 191 381 328 242 24 142
3 328 381 630 242 24 142
3 328 630 86 242 24 142
3 328 86 181 96 204 61
3 181 86 711 96 204 61
3 711 86 529 242 24 142
3 711 529 606 242 24 142
3 711 606 95 242 24 142
3 95 606 379 242 24 142
3 95 379 280 242 24 142
3 280 379 663 242 24 142
3 663 379 476 242 24 142
3 663 476 576 242 24 142
3 663 576 728 242 24 142
3 728 576 451 242 24 142
3 451 576 490 242 24 142
3 663 728 487 242 24 142
3 663 487 280 242 24 142
3 280 487 256 242 24 142
3 256 487 316 242 24 142
3 316 487 354 242 24 142
3 316 354 682 242 24 142
3 316 682 397 96 204 61
3 397 682 224 96 204 61
3 224 682 191 96 204 61
3 224 191 661 96 204 61
3 661 191 328 96 204 61
3 661 328 378 96 204 61
3 378 328 181 96 204 61
3 378 181 352 96 204 61
3 352 181 29 96 204 61
3 29 181 749 96 204 61
3 749 181 159 96 204 61
3 159 181 711 96 204 61
3 159 711 154 96 204 61
3 154 711 95 242 24 142
3 154 95 659 96 204 61
3 659 95 280 242 24 142
3 659 280 176 96 204 61
3 176 280 256 242 24 142
3 176 256 133 96 204 61
3 133 256 397 96 204 61
3 397 256 316 96 204 61
3 133 397 33 96 204 61
3 33 397 224 96 204 61
3 33 224 387 96 204 61
3 387 224 661 96 204 61
3 387 661 153 96 204 61
3 153 661 378 96 204 61
3 153 378 120 96 204 61
3 120 378 352 96 204 61
3 120 352 689 96 204 61
3 689 352 29 96 204 61
3 689 29 712 96 204 61
3 712 29 121 96 204 61
3 121 29 749 96 204 61
3 121 749 91 96 204 61
3 91 749 154 96 204 61
3 154 749 159 96 204 61
3 91 154 659 96 204 61
3 91 659 582 96 204 61
3 582 659 176 96 204 61
3 582 176 293 96 204 61
3 293 176 133 96 204 61
3 293 133 33 96 204 61
3 293 33 503 96 204 61
3 503 33 387 96 204 61
3 503 387 88 96 204 61
3 88 387 428 96 204 61
3 428 387 153 96 204 61
3 428 153 62 96 204 61
3 62 153 486 96 204 61
3 486 153 120 96 204 61
3 486 120 689 96 204 61
3 486 689 448 96 204 61
3 448 689 712 96 204 61
3 448 712 166 96 204 61
3 166 712 271 96 204 61
3 271 712 302 96 204 61
3 302 712 121 96 204 61
3 302 121 582 96 204 61
3 582 121 91 96 204 61
3 302 582 399 96 204 61
3 399 582 293 96 204 61
3 399 293 194 96 204 61
3 194 293 503 96 204 61
3 194 503 88 96 204 61
3 194 88 32 96 204 61
3 32 88 428 96 204 61
3 32 428 251 96 204 61
3 251 428 599 96 204 61
3 599 428 62 96 204 61
3 599 62 748 96 204 61
3 748 62 486 96 204 61
3 748 486 448 96 204 61
3 748 448 700 96 204 61
3 700 448 166 96 204 61
3 700 166 74 96 204 61
3 74 166 84 96 204 61
3 84 166 73 96 204 61
3 73 166 271 96 204 61
3 73 271 324 96 204 61
3 324 271 399 96 204 61
3 399 271 302 96 204 61
3 324 399 194 96 204 61
3 324 194 32 96 204 61
3 324 32 708 96 204 61
3 708 32 527 96 204 61
3 527 32 251 96 204 61
3 527 251 327 96 204 61
3 327 251 599 96 204 61
3 327 599 538 96 204 61
3 538 599 748 96 204 61
3 538 748 700 96 204 61
3 538 700 74 96 204 61
3 538 74 353 96 204 61
3 353 74 134 96 204 61
3 134 74 654 96 204 61
3 654 74 84 96 204 61
3 654 84 81 96 204 61
3 81 84 111 96 204 61
3 111 84 708 96 204 61
3 708 84 73 96 204 61
3 708 73 324 96 204 61
3 111 708 527 96 204 61
3 111 527 715 96 204 61
3 715 527 327 96 204 61
3 715 327 491 96 204 61
3 491 327 375 96 204 61
3 375 327 538 96 204 61
3 375 538 353 96 204 61
3 375 353 171 56 48 242
3 171 353 539 56 48 242
3 539 353 134 56 48 242
3 539 134 312 56 48 242
3 312 134 66 56 48 242
3 66 134 654 56 48 242
3 66 654 309 56 48 242
3 309 654 81 56 48 242
3 309 81 11 56 48 242
3 11 81 111 56 48 242
3 11 111 715 56 48 242
3 11 715 581 56 48 242
3 581 715 491 56 48 242
3 581 491 265 56 48 242
3 265 491 636 56 48 242
3 636 491 375 56 48 242
3 636 375 508 56 48 242
3 508 375 171 56 48 242
3 508 171 539 56 48 242
3 508 539 426 56 48 242
3 426 539 312 56 48 242
3 426 312 461 56 48 242
3 461 312 384 56 48 242
3 384 312 450 56 48 242
3 450 312 356 56 48 242
3 356 312 66 56 48 242
3 356 66 412 56 48 242
3 412 66 290 56 48 242
3 290 66 309 56 48 242
3 290 309 11 56 48 242
3 290 11 409 56 48 242
3 409 11 581 56 48 242
3 409 581 155 56 48 242
3 155 581 46 56 48 242
3 46 581 265 56 48 242
3 46 265 63 56 48 242
3 63 265 19 56 48 242
3 19 265 636 56 48 242
3 19 636 105 56 48 242
3 105 636 508 56 48 242
3 105 508 426 56 48 242
3 105 426 365 56 48 242
3 365 426 461 56 48 242
3 365 461 63 56 48 242
3 63 461 624 56 48 242
3 624 461 427 56 48 242
3 427 461 384 56 48 242
3 427 384 30 56 48 242
3 30 384 450 56 48 242
3 30 450 549 56 48 242
3 549 450 356 56 48 242
3 549 356 412 56 48 242
3 549 412 336 56 48 242
3 336 412 537 56 48 242
3 537 412 290 56 48 242
3 537 290 679 56 48 242
3 679 290 409 56 48 242
3 679 409 628 56 48 242
3 628 409 624 56 48 242
3 624 409 155 56 48 242
3 624 155 63 56 48 242
3 63 155 46 56 48 242
3 628 624 427 56 48 242
3 628 427 341 56 48 242
3 341 427 30 56 48 242
3 341 30 229 56 48 242
3 229 30 240 56 48 242
3 240 30 549 56 48 242
3 240 549 336 56 48 242
3 240 336 229 56 48 242
3 229 336 23 56 48 242
3 23 336 537 56 48 242
3 23 537 553 56 48 242
3 553 537 679 56 48 242
3 553 679 628 56 48 242
3 553 628 341 56 48 242
3 553 341 23 56 48 242
3 23 341 229 56 48 242
3 365 63 19 56 48 242
3 365 19 105 56 48 242
3 158 563 441 56 48 242
3 441 563 140 56 48 242
3 441 140 97 56 48 242
3 97 140 733 56 48 242
3 97 733 573 56 48 242
3 573 733 383 56 48 242
3 573 383 25 56 48 242
3 573 25 441 56 48 242
3 441 25 552 56 48 242
3 552 25 457 56 48 242
3 552 457 158 56 48 242
3 552 158 441 56 48 242
3 573 441 97 56 48 242
