ply
format ascii 1.0
element vertex 752
property float x
property float y
property float z
element face 1500
property list uchar int vertex_indices
property uchar red
property uchar green
property uchar blue
end_header
-0.187262 -0.942831 0.146804
-0.183372 -0.926664 0.211053
0.050649 -0.049232 -0.504648
-0.18327 -0.938892 -0.230119
-0.175201 0.721093 -0.01022
0.031401 -0.054899 -0.478653
-0.001246 0.001661 -0.4906
0.09552 0.002454 -0.510239
-0.161926 -0.955823 0.147366
-0.161031 0.220372 -0.025141
-0.155762 -0.947138 -0.254864
-0.151521 -0.943495 0.130184
0.070306 -0.034851 -0.474418
-0.144439 0.794486 -0.023442
-0.157018 -0.934846 -0.180714
-0.16998 -0.950895 -0.201245
-0.147672 0.700331 -0.010574
-0.130751 0.700034 0.02763
0.094983 0.003571 -0.479196
-0.134059 0.401951 0.1583
-0.13715 0.334072 -0.126202
-0.139853 0.77812 0.053261
-0.194791 -0.90887 0.190798
-0.158148 -0.030021 0.009746
0.001812 -0.007644 -0.472162
0.018939 0.095262 -0.453763
-0.1368 0.746286 -0.044483
-0.113907 -0.951054 -0.272257
-0.121944 -0.946378 0.237996
-0.13607 0.850753 -0.029446
-0.146922 -0.957342 0.223232
-0.118321 -0.076263 -0.048437
-0.140398 0.057901 0.076155
0.077617 0.061531 -0.467712
-0.135387 -0.906637 -0.197558
-0.151174 0.26463 0.083502
-0.099744 -0.949106 -0.163306
-0.129777 0.508768 0.121989
-0.108984 -0.895498 0.169691
-0.116352 0.204264 -0.131749
-0.115021 0.397786 -0.156145
-0.111978 -0.957992 0.129851
-0.103793 -0.908579 0.133678
-0.100744 0.306173 0.143341
-0.096583 0.694537 -0.048318
-0.094107 0.799765 0.070019
-0.064853 -0.940177 -0.272633
-0.066271 -0.908924 -0.164537
-0.126832 -0.920399 -0.262645
-0.105818 -0.082971 0.021468
-0.090808 0.893079 0.044887
-0.075748 0.725478 0.067509
-0.084685 0.124331 -0.14255
-0.07029 0.730684 -0.065438
-0.084655 -0.13986 0.187442
-0.103836 -0.089804 0.038707
-0.079357 0.000647 0.470892
0.085908 0.096603 -0.420089
-0.097605 0.237271 0.136534
-0.086601 0.51174 0.240294
-0.0751 -0.938387 0.237428
-0.100881 -0.917958 0.228872
-0.080556 0.295772 -0.147499
-0.059633 0.6033 0.132469
-0.082838 -0.127281 -0.194514
-0.089453 0.048832 0.168815
0.079442 0.115901 -0.386715
0.019202 0.123531 -0.413521
0.102747 0.171755 -0.376308
0.082379 0.208849 -0.402609
-0.057847 0.211478 0.175036
-0.075923 0.229396 -0.15983
-0.060184 -0.871348 0.158008
-0.107547 -0.958627 -0.17108
-0.063464 -0.257797 0.060149
-0.046665 -0.011115 -0.193669
-0.067344 0.019219 0.185735
-0.057892 0.066022 0.45476
-0.086927 0.128359 0.142784
-0.06526 0.151231 0.168003
-0.067333 0.162223 -0.162688
-0.064681 0.33351 -0.176959
-0.055667 0.391139 0.214625
-0.057186 0.50855 0.266128
-0.037091 0.798802 0.088332
-0.012844 -0.958053 -0.245803
-0.066908 0.885933 -0.052399
-0.042189 -0.165487 -0.010917
-0.056944 0.236446 0.366966
-0.057886 -0.047294 0.505367
-0.081038 0.032564 -0.17663
-0.022264 0.132408 -0.17333
-0.041276 0.30457 -0.18586
-0.048036 0.491937 -0.246972
-0.046047 -0.958307 0.149605
-0.019676 -0.955769 -0.174616
-0.067616 -0.879575 0.191024
-0.036866 0.451424 -0.247525
-0.060306 0.912933 0.025865
-0.054333 -0.356595 -0.182831
-0.07655 -0.956426 0.231759
-0.029872 0.561915 0.25974
-0.057711 -0.11987 0.007862
-0.065632 -0.101745 0.004137
-0.051725 -0.079918 0.442084
-0.027204 0.101634 0.184049
0.011281 0.179887 -0.378238
-0.042105 0.247099 0.173587
-0.038389 0.425242 -0.204028
-0.052787 0.654127 -0.070931
-0.048496 0.860365 0.081555
-0.035221 -0.952014 0.226984
-0.056086 -0.911721 -0.253436
-0.027684 -0.861427 -0.218651
-0.075881 -0.889841 -0.187012
-0.06119 -0.911288 0.129952
-0.023606 0.677549 0.069705
-0.056274 -0.245397 0.197588
-0.03499 -0.190952 0.016185
-0.027959 -0.108604 -0.212868
-0.050453 -0.136141 0.204336
-0.010394 -0.043644 0.442366
-0.069482 -0.029509 0.428084
-0.013133 0.023029 0.184967
-0.043052 0.033103 0.43107
-0.015738 0.095921 -0.188972
-0.017889 0.169877 -0.184137
-0.043723 0.217244 0.393281
-0.034493 0.371203 0.31952
-0.012695 0.523811 -0.265759
-0.014437 0.655404 -0.084916
-0.046492 0.8081 -0.074529
-0.034036 0.648295 0.099552
-0.055933 0.283442 0.175878
-0.031343 -0.250794 -0.216355
-0.038927 0.047697 0.474245
-0.031965 0.133813 0.166482
-0.038183 0.149959 0.423403
0.008696 0.234949 -0.356118
-0.066899 0.403188 -0.185076
-0.031572 0.453478 0.288372
-0.044276 0.769085 0.079217
-0.012033 -0.860628 0.131255
-0.030223 0.776638 -0.074443
-0.043105 0.91522 -0.020579
-0.020234 -0.847857 0.188311
0.004349 -0.142601 0.206817
-0.031399 0.019867 0.489203
-0.031001 0.270443 0.377239
-0.005133 0.282804 0.255768
-0.005148 0.308127 0.355612
-0.022219 0.336822 -0.17884
-0.024859 0.744998 -0.0594
-0.019807 0.803908 -0.078941
-0.031169 0.867924 -0.068083
0.007806 -0.929331 0.141331
-0.022597 -0.912942 -0.160706
0.018162 -0.904723 0.128962
-0.022001 -0.883156 -0.162416
-0.002411 0.59388 -0.231858
-0.033957 -0.401686 -0.107301
-0.016263 -0.375736 -0.201733
-0.034033 0.710225 0.061666
-0.011173 -0.81268 0.180057
-0.020753 -0.268025 -0.047587
0.017601 -0.174084 0.008692
0.015751 -0.145563 -0.206858
-0.002805 0.061745 0.413643
-0.019914 0.026078 0.440896
-0.000455 0.19876 0.186934
-0.01906 0.242178 -0.165876
-0.016748 0.202913 0.410681
0.015469 0.305366 -0.325982
0.067257 0.291565 -0.359186
-0.01112 0.457431 -0.271577
0.004574 0.641187 0.136154
-0.024556 0.689447 -0.059104
-0.012708 0.757899 0.066397
0.008868 -0.866239 -0.232657
0.006566 -0.47554 0.188259
-0.012549 0.155786 0.183307
-0.017893 -0.248788 0.207822
-0.006831 0.376506 0.208001
-0.004208 -0.242298 -0.218453
0.019943 -0.09588 -0.008756
-0.022397 -0.043333 0.200208
-0.005524 0.022003 0.467206
-0.012592 0.051117 0.468859
-0.02508 0.025767 -0.188495
-0.012936 -0.032929 0.505198
-0.021681 0.278111 0.176758
0.020995 0.333094 -0.329232
-0.02367 0.365443 0.1993
-0.009322 0.387021 0.323465
0.017015 0.801369 -0.062491
0.002652 0.849799 0.085207
0.010288 0.877286 -0.060902
0.033273 -0.915012 -0.239026
-0.009086 -0.908387 -0.248493
-0.010008 -0.845453 -0.166729
-0.001094 0.680551 -0.054852
0.012921 -0.958905 0.150011
0.038681 -0.958866 0.212334
-0.011891 0.110536 0.444583
0.017562 -0.037059 -0.513862
-0.000498 -0.890205 0.215737
0.041363 -0.764756 0.208315
0.005112 -0.587515 0.158416
0.016093 -0.564227 0.204833
0.040971 -0.409522 0.201644
-0.017643 -0.351967 -0.073629
-0.007068 -0.278097 0.039281
0.007889 -0.955896 0.217603
0.006766 -0.106187 0.008298
0.012266 -0.067108 -0.50721
0.015108 0.044216 -0.483014
0.046331 0.050668 -0.172178
0.0144 0.056565 -0.457776
0.009825 0.113561 0.371538
0.009022 0.138778 0.16253
0.034781 0.198886 -0.307906
0.025443 0.249802 -0.290013
0.101224 0.26207 -0.293544
0.013377 0.349142 0.22588
0.099619 0.303919 -0.300677
0.031995 -0.953303 0.136051
0.033855 0.05406 -0.438667
0.026671 -0.805455 -0.154802
0.001835 -0.772251 0.180086
0.011791 -0.648773 0.185976
-0.007322 -0.09596 0.002355
0.013851 0.678159 -0.008381
-0.019336 -0.365467 0.1895
0.045815 -0.350633 0.194345
0.014133 -0.188458 -0.012041
0.034312 -0.055331 -0.518809
0.0084 0.204753 0.297029
0.038489 0.223316 0.172863
0.026652 0.172681 -0.412678
0.043267 0.24739 -0.189731
0.022475 0.260373 0.270911
0.020977 0.219688 0.390204
0.015448 0.295164 -0.25391
-0.010916 0.352682 -0.288356
0.017563 0.372821 -0.210685
0.01232 0.398749 -0.300858
0.018785 0.463763 0.295836
0.048315 -0.871819 -0.14199
0.016092 -0.819362 0.202834
0.043843 -0.775963 0.128086
0.052196 -0.566087 -0.235745
0.019141 -0.299202 -0.054565
0.040098 -0.639439 0.117469
0.030085 0.108369 0.172215
0.038512 -0.13808 0.014953
0.037945 0.244554 0.35654
0.019471 -0.008819 -0.535568
0.045452 0.057673 -0.490202
0.022187 0.102104 -0.180074
0.028408 0.192395 -0.1843
0.01385 0.253988 0.164855
0.025908 0.274277 -0.369233
0.004387 0.301471 -0.165769
-0.006735 0.321138 -0.27401
0.02191 0.344495 -0.182345
0.012763 0.312584 0.181258
0.031663 0.368897 0.199135
0.035424 0.65148 0.082861
0.016129 0.903075 0.030028
0.027373 -0.761652 -0.16865
0.038997 0.240379 -0.272988
-0.007441 -0.957443 -0.187697
0.040841 0.620206 -0.144739
0.029317 -0.520638 0.118996
0.020435 -0.950027 -0.163927
0.060943 -0.515597 0.106772
0.038495 -0.420952 0.07541
0.068553 -0.451842 0.205186
0.05502 -0.44655 -0.216689
0.044709 -0.398424 -0.076346
0.019308 -0.219981 0.202278
0.056399 -0.229753 0.044172
0.039511 0.230701 0.303882
0.021885 0.00233 -0.448661
0.025695 0.142706 -0.163205
0.036075 0.120483 -0.453463
0.043726 0.245559 -0.390213
0.043417 0.287456 0.284851
0.05018 0.315606 -0.233406
0.048681 0.318596 -0.351262
0.025074 0.395078 0.32278
0.041567 0.478712 -0.279634
0.023677 0.557974 -0.252629
0.043209 0.825822 0.065061
0.063661 0.002968 -0.53145
0.066798 -0.898135 0.211355
0.020434 -0.837026 -0.148802
0.016808 -0.831084 0.125891
0.032227 -0.823372 -0.228413
0.022436 0.375862 -0.195934
0.061759 0.624181 -0.090642
0.054124 -0.537625 0.222341
0.066468 -0.471669 -0.110495
0.061964 -0.451983 0.09227
0.061905 0.139939 -0.135938
0.057825 0.173377 -0.427703
0.054271 0.392254 -0.309388
0.06712 0.356093 -0.213445
-0.021849 0.407613 -0.266435
0.070503 -0.938442 -0.146381
0.050779 -0.941659 0.216766
0.058128 -0.86394 0.126957
0.066364 -0.834697 0.202315
0.047131 -0.722121 -0.152647
0.068882 -0.599956 -0.117817
0.073952 -0.605213 0.10333
0.067939 0.594224 -0.161249
0.046621 0.280791 -0.150256
0.053651 -0.400516 0.06757
0.051007 0.496311 0.274341
0.051665 0.011557 -0.162259
0.040931 0.119967 -0.377451
0.038818 0.189856 0.175504
0.044339 0.378813 0.304379
0.048802 0.416182 -0.306916
0.081811 0.482135 -0.267123
-0.10553 -0.957877 -0.270781
0.047902 -0.954779 -0.235629
0.075605 -0.917423 0.136222
0.069185 -0.852306 -0.234545
0.07553 0.129411 -0.437086
0.057768 0.061105 -0.429743
0.064789 -0.785633 -0.146146
0.059987 -0.720275 0.131036
0.072594 -0.505368 -0.230928
0.049142 -0.31543 0.054905
0.068081 0.220857 0.139346
0.066236 -0.004251 -0.46007
0.071269 0.048972 -0.444972
0.064578 0.10718 -0.457137
0.072733 0.172859 -0.31897
0.067591 0.195456 -0.163907
0.044439 0.295721 0.166536
0.070072 0.384748 0.179903
0.070419 0.38287 -0.181368
0.102203 0.413137 -0.280841
0.067995 0.549107 0.221354
-0.029709 -0.953135 -0.260117
0.08841 -0.845379 -0.151991
0.080056 -0.830289 0.189933
0.075215 -0.763073 0.133732
0.087384 -0.765375 -0.21499
0.090426 0.352599 -0.304056
0.072918 -0.710532 -0.145094
0.08916 -0.590656 -0.235289
0.07059 -0.831038 0.13784
0.087174 -0.231954 0.097783
0.069125 -0.072958 0.004169
0.099716 0.044952 -0.129357
0.08627 0.304911 -0.255382
-0.02311 0.390751 -0.235233
0.074004 0.054058 -0.484064
0.091171 -0.836063 0.158116
0.099147 0.26091 -0.345797
0.07512 -0.66868 -0.224091
0.076347 -0.603548 0.221414
0.068371 -0.518768 -0.11785
0.080247 -0.109783 -0.079801
0.093654 -0.956301 0.193819
0.104142 -0.026372 -0.122447
0.065497 0.24853 -0.267224
0.069874 0.2642 0.130173
0.091593 -0.021977 -0.482152
0.09908 -0.859073 0.178801
0.088334 0.3981 -0.278903
0.087513 -0.726235 0.192624
0.116243 -0.950333 -0.211921
0.064553 -0.957188 -0.152984
0.104284 0.213765 -0.133586
0.073348 0.270005 -0.12991
0.107222 0.185776 -0.050292
0.081576 -0.10571 0.070993
0.094573 0.138417 0.037072
0.100184 0.266748 0.115874
0.124086 0.039375 0.102771
0.122496 0.083721 0.076515
0.098624 0.187102 -0.324502
0.094593 0.358523 -0.236574
0.118803 0.407612 -0.2415
-0.041434 0.560357 -0.233713
0.106142 -0.825257 -0.174949
0.106145 -0.676949 -0.15619
0.110039 -0.626659 0.128782
0.101093 -0.625357 -0.12865
0.105883 0.154384 0.015793
0.085901 0.143149 0.093925
0.097572 -0.957201 0.141664
0.094412 0.211736 0.055
0.099837 0.34181 -0.127507
-0.171427 -0.913006 -0.235839
0.103472 -0.871453 -0.207532
-0.085738 -0.896388 -0.218573
0.107221 0.383854 -0.236724
0.042148 -0.678562 -0.220309
0.102938 -0.944868 -0.143628
0.113204 0.201059 -0.090232
0.113201 -0.499645 -0.206712
0.116435 -0.055131 -0.089216
0.103248 -0.45839 0.184153
0.108845 0.342136 -0.105002
-0.01219 0.39594 -0.203952
0.116714 0.464156 -0.197699
0.107381 0.526554 -0.209534
0.058442 0.574137 -0.22718
-0.173358 -0.915799 -0.199904
0.082089 -0.830802 -0.217129
0.040964 -0.762758 -0.226432
0.048178 -0.729549 -0.22189
0.025279 -0.674451 -0.204521
0.122813 0.215085 -0.079807
0.081552 -0.428745 -0.203351
0.023895 -0.360074 -0.210687
-0.075893 0.477676 -0.202
-0.071144 0.5102 -0.209187
0.131578 -0.949437 -0.167219
0.006259 -0.814299 -0.208186
0.105036 -0.774093 -0.191935
0.100891 -0.709679 -0.203437
0.123254 -0.575485 -0.2095
0.055142 -0.358178 -0.203137
0.105985 0.380852 -0.211726
0.015907 -0.769409 -0.194551
0.022589 -0.733092 -0.184098
0.013894 -0.581704 -0.20712
0.008609 -0.476511 -0.202335
0.047117 -0.261235 -0.200106
-0.081067 -0.235863 -0.190892
0.12541 -0.922544 -0.189339
0.104993 -0.732451 -0.169824
0.012681 -0.597636 -0.176968
0.130705 -0.608393 -0.182058
0.106632 -0.428185 -0.176309
0.01606 -0.059163 -0.195273
-0.018945 0.283211 -0.185582
0.117133 0.506471 -0.184769
0.119163 -0.872256 -0.176329
0.128894 -0.518963 -0.164222
0.001879 -0.497991 -0.168401
0.073998 -0.240081 -0.165375
0.089363 0.215548 -0.164729
0.099988 0.425237 -0.176169
0.109628 -0.905608 -0.15715
-0.00036 -0.81248 -0.180645
0.023517 -0.6799 -0.17849
-0.090133 -0.27228 -0.161571
0.067535 -0.068151 -0.162371
0.07566 0.109415 -0.144801
0.056034 0.249659 -0.160256
0.111605 0.41465 -0.138027
0.085271 -0.759213 -0.149994
0.125364 -0.60032 -0.148703
0.055238 -0.153181 -0.174197
-0.112974 -0.067873 -0.148142
-0.089752 0.012322 -0.171176
-0.148454 0.422313 -0.114042
0.097121 0.559209 -0.139997
-0.044128 0.584804 -0.207254
0.03943 -0.603297 -0.132765
-0.037981 -0.426007 -0.164293
0.093021 -0.352455 -0.155761
0.094553 0.198205 -0.129645
0.101813 -0.485325 -0.131984
-0.064304 -0.364266 -0.133175
0.080658 0.306888 -0.147328
0.100645 -0.433542 -0.139173
-0.12044 0.039633 -0.106864
-0.126476 0.266256 -0.132269
-0.053516 0.61141 -0.088192
-0.018904 -0.457755 -0.142291
-0.10203 -0.249305 -0.135731
-0.120826 -0.143079 -0.141449
0.125985 0.039809 -0.082272
0.118528 0.496022 -0.086078
-0.091949 0.52413 -0.159866
-0.116193 0.555509 -0.041101
0.031488 -0.478342 -0.123376
0.090554 -0.319374 -0.112547
-0.109707 -0.182974 -0.091331
-0.114418 -0.095241 -0.067416
-0.12132 0.193006 -0.117164
0.086889 0.233294 -0.112475
0.111792 0.29876 -0.082388
0.091126 -0.266045 -0.121085
-0.128087 -0.025854 -0.079698
0.084482 0.166845 -0.11592
-0.143635 0.305367 -0.097971
0.122421 0.41414 -0.095127
-0.0017 0.625278 -0.13784
0.083351 -0.398 -0.094905
0.068398 -0.309564 -0.074406
0.077671 -0.145177 -0.106724
0.074633 -0.21474 -0.066811
0.102065 0.102371 -0.098138
-0.143626 0.113945 -0.070114
0.088254 0.135788 -0.086268
0.112765 0.158883 -0.062168
-0.069998 -0.312351 -0.09946
0.049825 -0.223843 -0.038608
-0.15696 0.270755 -0.068423
0.117496 0.36895 -0.062013
-0.080924 -0.14937 -0.031895
0.108371 0.232765 -0.076328
-0.084865 0.607095 -0.049722
-0.128781 0.786719 -0.05765
0.048194 -0.149004 -0.021766
0.124701 0.214821 -0.045584
0.121502 0.285922 -0.031097
-0.161641 0.387744 -0.060019
0.036228 0.664206 -0.049949
-0.111346 0.822769 -0.054783
-0.089077 -0.098969 -0.024823
0.122283 0.42062 -0.032256
0.079858 0.601616 -0.056623
0.041213 0.852332 -0.05042
0.044566 -0.102646 -0.019499
0.109378 -0.070377 -0.046242
0.1157 0.165309 -0.039256
0.126073 0.354424 -0.033921
-0.151046 0.462734 -0.074724
-0.117919 0.648875 -0.020043
0.001424 0.702903 -0.027524
0.059584 0.808418 -0.030437
0.123629 -0.016351 -0.031984
-0.155377 0.057579 -0.02871
-0.15387 0.113061 -0.03416
0.11486 0.231018 -0.036978
-0.100187 0.597814 -0.006849
0.013015 0.737005 -0.025324
-0.14151 0.834103 0.000276
-0.10866 0.896678 -0.005901
-0.044636 -0.11423 -0.006244
-0.157229 0.195261 0.00645
-0.152463 0.289062 0.016351
0.105313 0.44837 0.002483
0.104227 0.508755 -0.026983
0.008284 0.712327 -0.005271
0.027837 0.90026 -0.015214
0.107537 -0.030866 0.000852
0.104022 0.352521 0.003112
0.07136 0.597433 -0.007206
-0.158323 0.775893 0.0022
0.062775 0.850406 0.007699
0.096554 0.140233 -0.026445
0.120456 0.163556 0.041427
-0.119815 0.639152 0.003005
0.044601 0.648069 -0.015597
-0.136681 0.810161 0.019938
0.122957 0.027631 -0.001819
0.114109 0.083511 0.007011
0.103298 0.188728 0.018799
0.124977 0.215025 0.004228
0.109588 0.243627 -0.001799
0.102308 0.300816 0.00735
0.105088 0.373475 0.023835
0.094833 0.500268 0.00962
0.000244 0.690758 0.03562
0.041785 -0.102068 0.023485
0.134098 0.013956 0.050969
0.100587 0.179652 0.024194
-0.155691 0.454378 -0.009182
0.004314 0.716819 0.029955
0.048361 0.785801 0.033897
0.122303 0.285437 0.052641
0.091002 0.190696 0.069088
0.123992 0.353641 0.056469
0.1061 0.447338 0.02717
-0.086635 0.611848 0.065596
-0.087066 0.654213 0.063365
0.065164 0.608023 0.040463
-0.133751 0.751353 0.054936
0.030882 0.87096 0.059219
0.011954 -0.356964 0.056906
-0.158149 0.294244 0.060996
0.120861 0.38556 0.065448
-0.127272 0.818562 0.043664
-0.133914 0.841025 0.044741
-0.037712 -0.370924 0.081291
-0.089674 -0.142235 0.036231
-0.129631 -0.068089 0.018551
-0.159634 0.156034 0.04576
0.071419 0.598439 0.093249
0.118817 -0.068217 0.052828
-0.156096 0.105165 0.028964
-0.146372 0.116203 0.06236
-0.150481 0.194321 0.079174
0.119079 0.235036 0.064854
-0.164622 0.375179 0.049388
-0.016625 0.878417 0.076309
0.082117 -0.29742 0.080603
0.097269 0.186017 0.107446
0.09737 0.238255 0.089084
0.112965 0.469557 0.059878
-0.125269 0.551866 0.030558
-0.029594 -0.405323 0.087151
0.069986 -0.153459 0.059646
0.09702 0.167551 0.110022
0.112544 0.405223 0.07435
0.100958 0.524536 0.066686
0.09027 -0.460129 0.117338
-0.104384 -0.190483 0.082918
-0.129198 -0.031811 0.084992
0.089053 0.29321 0.120548
0.119798 0.306978 0.076135
-0.147457 0.343461 0.081514
0.10751 0.474735 0.12701
0.014251 0.66962 0.072055
0.084404 -0.39549 0.088357
-0.054354 -0.38752 0.106736
0.094158 -0.359454 0.110045
0.128019 -0.021978 0.102144
0.112614 -0.53508 0.133063
0.041417 -0.472412 0.100313
-0.024588 -0.445392 0.116347
-0.105067 -0.24132 0.133087
0.088961 -0.090747 0.133776
0.117243 -0.072856 0.091964
-0.119172 -0.005093 0.122268
-0.135818 0.342267 0.121869
0.093172 -0.283493 0.134379
-0.121551 -0.14115 0.121134
0.078443 -0.156624 0.102225
-0.119812 0.176515 0.131558
0.054795 0.151348 0.149083
-0.126142 0.297961 0.10829
-0.160721 0.388427 0.113892
-0.166947 0.435742 0.081457
-0.080809 -0.315152 0.108263
0.083982 0.201485 0.136414
-0.003395 -0.484421 0.140803
-0.039525 -0.436825 0.144577
0.071911 -0.167676 0.141926
-0.104252 -0.037599 0.158346
0.078112 0.042248 0.14434
0.081522 0.112578 0.136301
0.085155 0.328615 0.137278
0.104388 0.407064 0.132648
0.096255 -0.941741 0.136416
0.094611 -0.719446 0.151371
0.107327 -0.438829 0.147127
0.106216 -0.030436 0.137545
-0.110928 0.277787 0.140631
-0.095982 0.317453 0.159691
-0.184646 -0.909625 0.153322
-0.016121 -0.836856 0.141688
0.004276 -0.810636 0.142464
0.027682 -0.731505 0.141317
0.12814 -0.555779 0.180007
0.091442 -0.347304 0.152876
0.049338 0.133326 0.14547
-0.076398 0.238589 0.162694
-0.066685 0.340304 0.177746
0.075581 0.559615 0.17401
0.116077 -0.943138 0.164243
0.095083 -0.772293 0.155586
0.014707 -0.727234 0.172748
0.014993 -0.685763 0.159523
0.105085 -0.684927 0.184282
0.127158 -0.609768 0.169144
-0.014214 -0.406401 0.174237
-0.057064 -0.364345 0.160895
-0.11183 -0.14588 0.156661
0.05007 -0.135777 0.180011
0.093012 0.533383 0.139682
-0.210034 -0.935643 0.181902
0.103744 -0.892038 0.162311
0.085581 -0.783494 0.190722
-0.009206 -0.478998 0.163266
-0.090007 -0.257973 0.163834
0.061195 -0.259402 0.180637
0.041776 -0.064983 0.187913
0.012393 0.226876 0.17451
-0.045281 0.310932 0.177713
-0.077508 0.428792 0.203029
-0.123922 0.456585 0.179325
0.095635 0.459342 0.189689
0.099189 0.507362 0.184127
0.101783 -0.946108 0.204325
-0.093733 0.457562 0.208475
-0.092022 0.562898 0.152488
0.089254 -0.913583 0.198451
0.000576 -0.558414 0.183902
0.095471 -0.533939 0.216777
-0.045754 0.383606 0.199488
0.070316 0.418072 0.199928
0.045967 0.585745 0.194822
0.008813 0.611312 0.18616
0.041903 -0.729037 0.203474
0.03625 0.367913 0.21302
0.034766 -0.649911 0.207951
0.105113 -0.600273 0.210441
-0.10455 0.515658 0.193517
-0.064046 0.589201 0.214318
0.074136 0.368936 0.259598
-0.083201 0.444126 0.232639
0.08249 0.513048 0.234277
-0.004342 0.587522 0.237268
-0.047165 0.346367 0.240314
0.047112 0.339782 0.244902
0.08719 0.477846 0.230619
0.034192 0.557175 0.247093
-0.068655 0.381787 0.249657
-0.066975 0.405603 0.268505
0.08062 0.408235 0.241386
0.054967 0.444499 0.284573
-0.056923 0.316286 0.274549
0.05422 0.355154 0.284255
0.067266 0.384424 0.294694
-0.027712 0.260621 0.276357
-0.010273 0.158637 0.323329
-0.027917 0.230224 0.304676
-0.043814 0.291421 0.326615
0.039399 0.323666 0.321365
0.045608 0.269087 0.320452
-0.060314 0.347693 0.294937
0.026869 0.282585 0.339323
-0.040452 0.3126 0.335169
0.031681 0.149567 0.351756
-0.04793 0.171876 0.345051
0.042508 0.207803 0.345581
-0.056198 0.230714 0.347496
-0.05056 0.107979 0.390223
-0.014599 0.088519 0.384502
-0.055994 0.149434 0.390254
0.035352 0.146526 0.384877
0.013048 0.130271 0.42425
-0.056617 0.066484 0.421303
-0.040053 -0.003453 0.434977
-0.061331 0.098209 0.424962
-0.064447 0.017587 0.436754
0.001898 0.064941 0.434204
-0.095672 -0.030784 0.446681
-0.084806 -0.08961 0.452437
-0.086455 -0.086382 0.46143
0.001752 -0.051369 0.46337
-0.020487 -0.028868 0.463595
-0.07074 0.029179 0.453799
-0.025821 -0.077643 0.466676
-0.093623 -0.035998 0.485014
0.000748 -0.007142 0.462481
-0.080195 -0.068316 0.485701
-0.052888 -0.088147 0.469809
-0.00252 -0.047733 0.485329
3 652 0 673 56 48 242
3 673 0 8 56 48 242
3 8 0 11 56 48 242
3 11 0 652 56 48 242
3 11 652 42 56 48 242
3 42 652 38 56 48 242
3 38 652 22 56 48 242
3 22 652 673 56 48 242
3 22 673 1 56 48 242
3 1 673 30 56 48 242
3 30 673 8 56 48 242
3 30 8 41 56 48 242
3 41 8 11 56 48 242
3 41 11 42 56 48 242
3 41 42 115 56 48 242
3 115 42 72 56 48 242
3 72 42 38 56 48 242
3 72 38 96 56 48 242
3 96 38 61 56 48 242
3 61 38 22 56 48 242
3 61 22 1 56 48 242
3 61 1 28 56 48 242
3 28 1 30 56 48 242
3 28 30 100 56 48 242
3 100 30 94 56 48 242
3 94 30 41 56 48 242
3 94 41 115 56 48 242
3 94 115 155 56 48 242
3 155 115 157 56 48 242
3 157 115 142 56 48 242
3 142 115 72 56 48 242
3 142 72 653 56 48 242
3 653 72 96 56 48 242
3 653 96 145 56 48 242
3 145 96 205 56 48 242
3 205 96 61 56 48 242
3 205 61 60 56 48 242
3 60 61 28 56 48 242
3 60 28 100 56 48 242
3 60 100 111 56 48 242
3 111 100 94 56 48 242
3 111 94 212 56 48 242
3 212 94 202 56 48 242
3 202 94 201 56 48 242
3 201 94 155 56 48 242
3 201 155 225 56 48 242
3 225 155 328 56 48 242
3 328 155 157 56 48 242
3 328 157 311 56 48 242
3 311 157 297 56 48 242
3 297 157 142 56 48 242
3 297 142 653 56 48 242
3 297 653 654 96 204 61
3 654 653 163 96 204 61
3 163 653 145 56 48 242
3 163 145 248 56 48 242
3 248 145 205 56 48 242
3 248 205 312 56 48 242
3 312 205 295 56 48 242
3 295 205 212 56 48 242
3 212 205 111 56 48 242
3 111 205 60 56 48 242
3 295 212 310 56 48 242
3 310 212 202 56 48 242
3 310 202 686 56 48 242
3 686 202 368 56 48 242
3 368 202 396 56 48 242
3 396 202 201 56 48 242
3 396 201 225 56 48 242
3 396 225 646 56 48 242
3 646 225 328 56 48 242
3 646 328 674 56 48 242
3 674 328 311 56 48 242
3 674 311 355 56 48 242
3 355 311 297 56 48 242
3 355 297 249 96 204 61
3 249 297 654 96 204 61
3 249 654 655 96 204 61
3 655 654 228 96 204 61
3 228 654 163 96 204 61
3 228 163 206 96 204 61
3 206 163 248 96 204 61
3 206 248 675 96 204 61
3 675 248 312 96 204 61
3 675 312 349 96 204 61
3 349 312 373 56 48 242
3 373 312 295 56 48 242
3 373 295 689 56 48 242
3 689 295 310 56 48 242
3 689 310 686 56 48 242
3 689 686 674 56 48 242
3 674 686 662 56 48 242
3 662 686 368 56 48 242
3 662 368 396 56 48 242
3 662 396 646 56 48 242
3 662 646 674 56 48 242
3 689 674 373 56 48 242
3 373 674 362 56 48 242
3 362 674 355 56 48 242
3 362 355 350 96 204 61
3 350 355 249 96 204 61
3 350 249 333 96 204 61
3 333 249 655 96 204 61
3 333 655 252 96 204 61
3 252 655 665 96 204 61
3 665 655 664 96 204 61
3 664 655 228 96 204 61
3 664 228 696 96 204 61
3 696 228 206 96 204 61
3 696 206 375 96 204 61
3 375 206 675 96 204 61
3 375 675 647 96 204 61
3 647 675 663 96 204 61
3 663 675 362 96 204 61
3 362 675 349 96 204 61
3 362 349 373 96 204 61
3 663 362 350 96 204 61
3 663 350 647 96 204 61
3 647 350 333 96 204 61
3 647 333 392 96 204 61
3 392 333 315 96 204 61
3 315 333 252 96 204 61
3 315 252 273 96 204 61
3 273 252 207 96 204 61
3 207 252 665 96 204 61
3 207 665 229 96 204 61
3 229 665 664 96 204 61
3 229 664 696 96 204 61
3 229 696 698 96 204 61
3 698 696 365 96 204 61
3 365 696 375 96 204 61
3 365 375 699 96 204 61
3 699 375 666 96 204 61
3 666 375 647 96 204 61
3 666 647 667 96 204 61
3 667 647 392 96 204 61
3 667 392 620 96 204 61
3 620 392 315 96 204 61
3 620 315 275 96 204 61
3 275 315 273 96 204 61
3 275 273 621 96 204 61
3 621 273 638 96 204 61
3 638 273 207 96 204 61
3 638 207 690 96 204 61
3 690 207 229 96 204 61
3 690 229 208 96 204 61
3 208 229 698 96 204 61
3 208 698 301 96 204 61
3 301 698 365 96 204 61
3 301 365 691 96 204 61
3 691 365 699 96 204 61
3 691 699 656 96 204 61
3 656 699 667 96 204 61
3 667 699 666 96 204 61
3 656 667 620 96 204 61
3 656 620 648 96 204 61
3 648 620 608 96 204 61
3 608 620 275 96 204 61
3 608 275 303 96 204 61
3 303 275 621 96 204 61
3 303 621 276 96 204 61
3 276 621 622 96 204 61
3 622 621 638 96 204 61
3 622 638 639 96 204 61
3 639 638 676 96 204 61
3 676 638 690 96 204 61
3 676 690 179 96 204 61
3 179 690 208 96 204 61
3 179 208 301 96 204 61
3 179 301 277 96 204 61
3 277 301 691 96 204 61
3 277 691 408 96 204 61
3 408 691 656 96 204 61
3 408 656 648 96 204 61
3 408 648 657 242 24 142
3 657 648 618 242 24 142
3 618 648 616 242 24 142
3 616 648 608 242 24 142
3 616 608 303 242 24 142
3 616 303 318 242 24 142
3 318 303 276 242 24 142
3 318 276 581 242 24 142
3 581 276 586 242 24 142
3 586 276 603 242 24 142
3 603 276 622 242 24 142
3 603 622 639 242 24 142
3 603 639 617 242 24 142
3 617 639 669 242 24 142
3 669 639 668 242 24 142
3 668 639 179 96 204 61
3 179 639 676 96 204 61
3 668 179 209 96 204 61
3 209 179 277 96 204 61
3 209 277 233 242 24 142
3 233 277 408 96 204 61
3 233 408 657 242 24 142
3 233 657 678 242 24 142
3 678 657 628 242 24 142
3 628 657 618 242 24 142
3 628 618 356 242 24 142
3 356 618 598 242 24 142
3 598 618 616 242 24 142
3 598 616 335 242 24 142
3 335 616 318 242 24 142
3 335 318 581 242 24 142
3 335 581 211 242 24 142
3 211 581 586 242 24 142
3 211 586 74 242 24 142
3 74 586 636 242 24 142
3 636 586 617 242 24 142
3 617 586 603 242 24 142
3 636 617 669 242 24 142
3 636 669 677 242 24 142
3 677 669 232 242 24 142
3 232 669 668 242 24 142
3 232 668 209 242 24 142
3 232 209 233 242 24 142
3 232 233 181 242 24 142
3 181 233 280 242 24 142
3 280 233 678 242 24 142
3 280 678 671 242 24 142
3 671 678 640 242 24 142
3 640 678 628 242 24 142
3 640 628 356 242 24 142
3 640 356 630 242 24 142
3 630 356 604 242 24 142
3 604 356 281 242 24 142
3 281 356 598 242 24 142
3 281 598 335 242 24 142
3 281 335 211 242 24 142
3 281 211 165 242 24 142
3 165 211 118 242 24 142
3 118 211 74 242 24 142
3 118 74 102 242 24 142
3 102 74 587 242 24 142
3 587 74 609 242 24 142
3 609 74 636 242 24 142
3 609 636 623 242 24 142
3 623 636 677 242 24 142
3 623 677 670 242 24 142
3 670 677 54 242 24 142
3 54 677 117 242 24 142
3 117 677 232 242 24 142
3 117 232 181 242 24 142
3 117 181 120 242 24 142
3 120 181 146 242 24 142
3 146 181 280 242 24 142
3 146 280 671 242 24 142
3 146 671 679 242 24 142
3 679 671 649 242 24 142
3 649 671 624 242 24 142
3 624 671 640 242 24 142
3 624 640 630 242 24 142
3 624 630 381 242 24 142
3 381 630 604 242 24 142
3 381 604 254 242 24 142
3 254 604 281 242 24 142
3 254 281 165 242 24 142
3 254 165 213 242 24 142
3 213 165 102 242 24 142
3 102 165 118 242 24 142
3 213 102 230 242 24 142
3 230 102 103 242 24 142
3 103 102 55 242 24 142
3 55 102 587 242 24 142
3 55 587 609 242 24 142
3 55 609 629 242 24 142
3 629 609 623 242 24 142
3 629 623 670 242 24 142
3 629 670 641 242 24 142
3 641 670 54 242 24 142
3 641 54 76 242 24 142
3 76 54 120 242 24 142
3 120 54 117 242 24 142
3 76 120 185 242 24 142
3 185 120 146 242 24 142
3 185 146 679 242 24 142
3 185 679 123 242 24 142
3 123 679 642 242 24 142
3 642 679 649 242 24 142
3 642 649 384 242 24 142
3 384 649 619 242 24 142
3 619 649 625 242 24 142
3 625 649 624 242 24 142
3 625 624 381 242 24 142
3 625 381 591 242 24 142
3 591 381 566 242 24 142
3 566 381 254 242 24 142
3 566 254 213 242 24 142
3 566 213 230 40 176 204
3 566 230 357 40 176 204
3 357 230 184 40 176 204
3 184 230 540 40 176 204
3 540 230 103 40 176 204
3 540 103 520 40 176 204
3 520 103 49 40 176 204
3 49 103 55 40 176 204
3 49 55 588 40 176 204
3 588 55 610 242 24 142
3 610 55 629 242 24 142
3 610 629 626 242 24 142
3 626 629 641 242 24 142
3 626 641 65 242 24 142
3 65 641 76 242 24 142
3 65 76 105 242 24 142
3 105 76 123 242 24 142
3 123 76 185 242 24 142
3 105 123 253 40 176 204
3 253 123 642 242 24 142
3 253 642 643 40 176 204
3 643 642 384 40 176 204
3 643 384 385 40 176 204
3 385 384 567 40 176 204
3 567 384 619 40 176 204
3 567 619 591 40 176 204
3 591 619 625 242 24 142
3 567 591 547 40 176 204
3 547 591 357 40 176 204
3 357 591 566 40 176 204
3 547 357 525 40 176 204
3 525 357 524 40 176 204
3 524 357 184 40 176 204
3 524 184 514 242 24 142
3 514 184 234 242 24 142
3 234 184 87 242 24 142
3 87 184 540 242 24 142
3 87 540 520 242 24 142
3 87 520 510 242 24 142
3 510 520 488 242 24 142
3 488 520 31 242 24 142
3 31 520 588 40 176 204
3 588 520 49 40 176 204
3 31 588 23 40 176 204
3 23 588 610 40 176 204
3 23 610 32 40 176 204
3 32 610 626 242 24 142
3 32 626 65 40 176 204
3 32 65 78 40 176 204
3 78 65 105 40 176 204
3 78 105 136 40 176 204
3 136 105 253 40 176 204
3 136 253 219 40 176 204
3 219 253 658 40 176 204
3 658 253 643 40 176 204
3 658 643 395 40 176 204
3 395 643 385 40 176 204
3 395 385 382 40 176 204
3 382 385 558 40 176 204
3 558 385 557 40 176 204
3 557 385 567 40 176 204
3 557 567 547 40 176 204
3 557 547 532 40 176 204
3 532 547 525 40 176 204
3 532 525 407 40 176 204
3 407 525 367 242 24 142
3 367 525 524 242 24 142
3 367 524 514 242 24 142
3 367 514 501 242 24 142
3 501 514 507 242 24 142
3 507 514 234 242 24 142
3 507 234 499 242 24 142
3 499 234 251 242 24 142
3 251 234 164 242 24 142
3 164 234 87 242 24 142
3 164 87 506 242 24 142
3 506 87 510 242 24 142
3 506 510 487 242 24 142
3 487 510 488 242 24 142
3 487 488 480 242 24 142
3 480 488 462 242 24 142
3 462 488 493 242 24 142
3 493 488 31 242 24 142
3 493 31 23 40 176 204
3 493 23 533 40 176 204
3 533 23 32 40 176 204
3 533 32 592 40 176 204
3 592 32 593 40 176 204
3 593 32 78 40 176 204
3 593 78 631 40 176 204
3 631 78 79 40 176 204
3 79 78 136 40 176 204
3 79 136 180 40 176 204
3 180 136 219 40 176 204
3 180 219 632 40 176 204
3 632 219 658 40 176 204
3 632 658 395 40 176 204
3 632 395 605 40 176 204
3 605 395 382 40 176 204
3 605 382 553 40 176 204
3 553 382 394 40 176 204
3 394 382 552 40 176 204
3 552 382 558 40 176 204
3 552 558 502 40 176 204
3 502 558 481 40 176 204
3 481 558 557 40 176 204
3 481 557 532 40 176 204
3 481 532 407 40 176 204
3 481 407 369 40 176 204
3 369 407 455 242 24 142
3 455 407 367 242 24 142
3 455 367 500 242 24 142
3 500 367 501 242 24 142
3 500 501 492 242 24 142
3 492 501 486 242 24 142
3 486 501 499 242 24 142
3 499 501 507 242 24 142
3 486 499 498 242 24 142
3 498 499 279 242 24 142
3 279 499 251 242 24 142
3 279 251 210 242 24 142
3 210 251 164 242 24 142
3 210 164 506 242 24 142
3 210 506 160 242 24 142
3 160 506 472 242 24 142
3 472 506 479 242 24 142
3 479 506 487 242 24 142
3 479 487 480 242 24 142
3 479 480 436 242 24 142
3 436 480 64 242 24 142
3 64 480 462 242 24 142
3 64 462 463 242 24 142
3 463 462 475 242 24 142
3 475 462 493 242 24 142
3 475 493 533 40 176 204
3 475 533 503 40 176 204
3 503 533 534 40 176 204
3 534 533 592 40 176 204
3 534 592 589 40 176 204
3 589 592 593 40 176 204
3 589 593 594 40 176 204
3 594 593 631 40 176 204
3 594 631 35 40 176 204
3 35 631 58 40 176 204
3 58 631 70 40 176 204
3 70 631 79 40 176 204
3 70 79 180 40 176 204
3 70 180 169 40 176 204
3 169 180 322 40 176 204
3 322 180 632 40 176 204
3 322 632 605 40 176 204
3 322 605 637 40 176 204
3 637 605 599 40 176 204
3 599 605 553 40 176 204
3 599 553 573 40 176 204
3 573 553 568 40 176 204
3 568 553 526 40 176 204
3 526 553 394 40 176 204
3 526 394 552 40 176 204
3 526 552 505 40 176 204
3 505 552 504 40 176 204
3 504 552 502 40 176 204
3 504 502 456 40 176 204
3 456 502 358 40 176 204
3 358 502 481 40 176 204
3 358 481 369 40 176 204
3 358 369 320 40 176 204
3 320 369 455 242 24 142
3 320 455 442 242 24 142
3 442 455 166 242 24 142
3 166 455 461 242 24 142
3 461 455 500 242 24 142
3 461 500 448 242 24 142
3 448 500 492 242 24 142
3 448 492 469 242 24 142
3 469 492 486 242 24 142
3 469 486 498 242 24 142
3 469 498 474 242 24 142
3 474 498 302 242 24 142
3 302 498 279 242 24 142
3 302 279 485 242 24 142
3 485 279 160 242 24 142
3 160 279 210 242 24 142
3 485 160 478 242 24 142
3 478 160 472 242 24 142
3 478 472 468 242 24 142
3 468 472 99 242 24 142
3 99 472 454 242 24 142
3 454 472 479 242 24 142
3 454 479 436 242 24 142
3 454 436 99 242 24 142
3 99 436 134 242 24 142
3 134 436 64 242 24 142
3 134 64 119 242 24 142
3 119 64 75 242 24 142
3 75 64 463 242 24 142
3 75 463 90 242 24 142
3 90 463 475 40 176 204
3 90 475 52 40 176 204
3 52 475 503 40 176 204
3 52 503 489 40 176 204
3 489 503 508 40 176 204
3 508 503 9 40 176 204
3 9 503 534 40 176 204
3 9 534 541 40 176 204
3 541 534 589 40 176 204
3 541 589 594 40 176 204
3 541 594 542 40 176 204
3 542 594 35 40 176 204
3 542 35 582 40 176 204
3 582 35 613 40 176 204
3 613 35 633 40 176 204
3 633 35 58 40 176 204
3 633 58 650 40 176 204
3 650 58 659 40 176 204
3 659 58 70 40 176 204
3 659 70 107 40 176 204
3 107 70 169 40 176 204
3 107 169 680 40 176 204
3 680 169 322 40 176 204
3 680 322 237 40 176 204
3 237 322 336 40 176 204
3 336 322 637 40 176 204
3 336 637 600 40 176 204
3 600 637 599 40 176 204
3 600 599 573 40 176 204
3 600 573 397 40 176 204
3 397 573 568 40 176 204
3 397 568 559 40 176 204
3 559 568 526 40 176 204
3 559 526 380 40 176 204
3 380 526 505 40 176 204
3 380 505 494 40 176 204
3 494 505 504 40 176 204
3 494 504 304 40 176 204
3 304 504 456 40 176 204
3 304 456 284 40 176 204
3 284 456 258 40 176 204
3 258 456 216 40 176 204
3 216 456 358 40 176 204
3 216 358 320 40 176 204
3 216 320 188 40 176 204
3 188 320 75 242 24 142
3 75 320 442 242 24 142
3 75 442 119 242 24 142
3 119 442 166 242 24 142
3 119 166 183 242 24 142
3 183 166 435 242 24 142
3 435 166 461 242 24 142
3 435 461 448 242 24 142
3 435 448 469 242 24 142
3 435 469 429 242 24 142
3 429 469 420 242 24 142
3 420 469 441 96 204 61
3 441 469 474 242 24 142
3 441 474 446 96 204 61
3 446 474 471 96 204 61
3 471 474 302 96 204 61
3 471 302 366 96 204 61
3 366 302 485 96 204 61
3 366 485 467 96 204 61
3 467 485 447 96 204 61
3 447 485 478 96 204 61
3 447 478 468 96 204 61
3 447 468 434 96 204 61
3 434 468 161 242 24 142
3 161 468 99 242 24 142
3 161 99 134 242 24 142
3 161 134 421 242 24 142
3 421 134 183 242 24 142
3 183 134 119 242 24 142
3 421 183 435 242 24 142
3 421 435 429 242 24 142
3 421 429 278 242 24 142
3 278 429 420 242 24 142
3 278 420 334 96 204 61
3 334 420 406 96 204 61
3 406 420 441 96 204 61
3 406 441 446 96 204 61
3 406 446 428 96 204 61
3 428 446 440 96 204 61
3 440 446 460 96 204 61
3 460 446 471 96 204 61
3 460 471 393 96 204 61
3 393 471 366 96 204 61
3 393 366 314 96 204 61
3 314 366 467 96 204 61
3 314 467 313 96 204 61
3 313 467 453 96 204 61
3 453 467 439 96 204 61
3 439 467 447 96 204 61
3 439 447 433 96 204 61
3 433 447 434 96 204 61
3 433 434 250 96 204 61
3 250 434 334 96 204 61
3 334 434 278 96 204 61
3 278 434 421 96 204 61
3 421 434 161 242 24 142
3 250 334 354 96 204 61
3 354 334 406 96 204 61
3 354 406 428 96 204 61
3 354 428 427 96 204 61
3 427 428 440 96 204 61
3 427 440 438 96 204 61
3 438 440 391 96 204 61
3 391 440 460 96 204 61
3 391 460 393 96 204 61
3 391 393 353 96 204 61
3 353 393 314 96 204 61
3 353 314 313 96 204 61
3 353 313 459 96 204 61
3 459 313 332 96 204 61
3 332 313 269 96 204 61
3 269 313 432 96 204 61
3 432 313 453 96 204 61
3 432 453 418 96 204 61
3 418 453 439 96 204 61
3 418 439 433 96 204 61
3 418 433 403 96 204 61
3 403 433 250 96 204 61
3 403 250 364 96 204 61
3 364 250 354 96 204 61
3 364 354 427 96 204 61
3 364 427 417 96 204 61
3 417 427 351 96 204 61
3 351 427 426 96 204 61
3 426 427 438 96 204 61
3 426 438 390 96 204 61
3 390 438 459 96 204 61
3 459 438 353 96 204 61
3 353 438 391 96 204 61
3 390 459 348 96 204 61
3 348 459 332 96 204 61
3 348 332 296 96 204 61
3 296 332 227 96 204 61
3 227 332 269 96 204 61
3 227 269 431 96 204 61
3 431 269 432 96 204 61
3 431 432 417 96 204 61
3 417 432 418 96 204 61
3 417 418 403 96 204 61
3 417 403 364 96 204 61
3 431 417 416 96 204 61
3 416 417 351 96 204 61
3 416 351 415 96 204 61
3 415 351 426 96 204 61
3 415 426 390 96 204 61
3 415 390 400 56 48 242
3 400 390 445 56 48 242
3 445 390 348 96 204 61
3 445 348 451 56 48 242
3 451 348 247 56 48 242
3 247 348 296 56 48 242
3 247 296 158 56 48 242
3 158 296 199 56 48 242
3 199 296 227 96 204 61
3 199 227 452 96 204 61
3 452 227 431 96 204 61
3 452 431 425 96 204 61
3 425 431 416 96 204 61
3 425 416 298 56 48 242
3 298 416 415 56 48 242
3 298 415 329 56 48 242
3 329 415 400 56 48 242
3 329 400 197 56 48 242
3 197 400 376 56 48 242
3 376 400 437 56 48 242
3 437 400 445 56 48 242
3 437 445 451 56 48 242
3 437 451 424 56 48 242
3 424 451 404 56 48 242
3 404 451 309 56 48 242
3 309 451 247 56 48 242
3 309 247 274 56 48 242
3 274 247 156 56 48 242
3 156 247 158 56 48 242
3 156 158 47 56 48 242
3 47 158 114 56 48 242
3 114 158 199 56 48 242
3 114 199 113 56 48 242
3 113 199 425 56 48 242
3 425 199 452 96 204 61
3 113 425 178 56 48 242
3 178 425 298 56 48 242
3 178 298 197 56 48 242
3 197 298 329 56 48 242
3 178 197 198 56 48 242
3 198 197 347 56 48 242
3 347 197 85 56 48 242
3 85 197 327 56 48 242
3 327 197 376 56 48 242
3 327 376 271 56 48 242
3 271 376 377 56 48 242
3 377 376 424 56 48 242
3 424 376 437 56 48 242
3 377 424 404 56 48 242
3 377 404 309 56 48 242
3 377 309 274 56 48 242
3 377 274 271 56 48 242
3 271 274 95 56 48 242
3 95 274 156 56 48 242
3 95 156 47 56 48 242
3 95 47 36 56 48 242
3 36 47 14 56 48 242
3 14 47 34 56 48 242
3 34 47 114 56 48 242
3 34 114 401 56 48 242
3 401 114 113 56 48 242
3 401 113 112 56 48 242
3 112 113 198 56 48 242
3 198 113 178 56 48 242
3 112 198 46 56 48 242
3 46 198 347 56 48 242
3 46 347 326 56 48 242
3 326 347 85 56 48 242
3 326 85 73 56 48 242
3 73 85 271 56 48 242
3 271 85 327 56 48 242
3 73 271 95 56 48 242
3 73 95 36 56 48 242
3 73 36 14 56 48 242
3 73 14 15 56 48 242
3 15 14 414 56 48 242
3 414 14 34 56 48 242
3 414 34 399 56 48 242
3 399 34 48 56 48 242
3 48 34 401 56 48 242
3 48 401 112 56 48 242
3 48 112 46 56 48 242
3 48 46 27 56 48 242
3 27 46 326 56 48 242
3 27 326 10 56 48 242
3 10 326 15 56 48 242
3 15 326 73 56 48 242
3 10 15 3 56 48 242
3 3 15 414 56 48 242
3 3 414 399 56 48 242
3 3 399 10 56 48 242
3 10 399 48 56 48 242
3 10 48 27 56 48 242
3 188 75 90 242 24 142
3 188 90 125 40 176 204
3 125 90 52 40 176 204
3 125 52 91 40 176 204
3 91 52 80 40 176 204
3 80 52 39 40 176 204
3 39 52 489 40 176 204
3 39 489 476 40 176 204
3 476 489 495 40 176 204
3 495 489 508 40 176 204
3 495 508 517 40 176 204
3 517 508 9 40 176 204
3 517 9 542 40 176 204
3 542 9 541 40 176 204
3 517 542 569 40 176 204
3 569 542 596 40 176 204
3 596 542 582 40 176 204
3 596 582 613 40 176 204
3 596 613 634 40 176 204
3 634 613 627 40 176 204
3 627 613 633 40 176 204
3 627 633 650 40 176 204
3 627 650 43 40 176 204
3 43 650 659 40 176 204
3 43 659 133 40 176 204
3 133 659 107 40 176 204
3 133 107 190 40 176 204
3 190 107 680 40 176 204
3 190 680 260 40 176 204
3 260 680 237 40 176 204
3 260 237 336 40 176 204
3 260 336 371 40 176 204
3 371 336 600 40 176 204
3 371 600 383 40 176 204
3 383 600 595 40 176 204
3 595 600 397 40 176 204
3 595 397 559 40 176 204
3 595 559 560 40 176 204
3 560 559 515 40 176 204
3 515 559 380 40 176 204
3 515 380 405 40 176 204
3 405 380 494 40 176 204
3 405 494 470 40 176 204
3 470 494 304 40 176 204
3 470 304 341 40 176 204
3 341 304 284 40 176 204
3 341 284 259 40 176 204
3 259 284 126 40 176 204
3 126 284 91 40 176 204
3 91 284 258 40 176 204
3 91 258 125 40 176 204
3 125 258 216 40 176 204
3 125 216 188 40 176 204
3 126 91 80 40 176 204
3 126 80 71 40 176 204
3 71 80 39 40 176 204
3 71 39 476 40 176 204
3 71 476 62 40 176 204
3 62 476 20 40 176 204
3 20 476 495 40 176 204
3 20 495 464 40 176 204
3 464 495 517 40 176 204
3 464 517 528 40 176 204
3 528 517 569 40 176 204
3 528 569 602 40 176 204
3 602 569 635 40 176 204
3 635 569 596 40 176 204
3 635 596 634 40 176 204
3 635 634 19 40 176 204
3 19 634 627 40 176 204
3 19 627 660 40 176 204
3 660 627 651 40 176 204
3 651 627 43 40 176 204
3 651 43 133 40 176 204
3 651 133 681 40 176 204
3 681 133 190 40 176 204
3 681 190 265 40 176 204
3 265 190 260 40 176 204
3 265 260 342 40 176 204
3 342 260 371 40 176 204
3 342 371 383 40 176 204
3 342 383 611 40 176 204
3 611 383 612 40 176 204
3 612 383 595 40 176 204
3 612 595 572 40 176 204
3 572 595 561 40 176 204
3 561 595 560 40 176 204
3 561 560 515 40 176 204
3 561 515 535 40 176 204
3 535 515 511 40 176 204
3 511 515 419 40 176 204
3 419 515 405 40 176 204
3 419 405 378 40 176 204
3 378 405 470 40 176 204
3 378 470 449 40 176 204
3 449 470 341 40 176 204
3 449 341 239 40 176 204
3 239 341 259 40 176 204
3 239 259 443 40 176 204
3 443 259 170 40 176 204
3 170 259 126 40 176 204
3 170 126 71 40 176 204
3 170 71 62 40 176 204
3 170 62 92 40 176 204
3 92 62 81 40 176 204
3 81 62 40 40 176 204
3 40 62 20 40 176 204
3 40 20 464 40 176 204
3 40 464 422 40 176 204
3 422 464 483 40 176 204
3 483 464 528 40 176 204
3 483 528 484 40 176 204
3 484 528 602 40 176 204
3 484 602 536 40 176 204
3 536 602 576 40 176 204
3 576 602 37 40 176 204
3 37 602 635 40 176 204
3 37 635 683 40 176 204
3 683 635 19 40 176 204
3 683 19 682 40 176 204
3 682 19 660 40 176 204
3 682 660 692 40 176 204
3 692 660 192 40 176 204
3 192 660 681 40 176 204
3 681 660 651 40 176 204
3 192 681 265 40 176 204
3 192 265 266 40 176 204
3 266 265 343 40 176 204
3 343 265 342 40 176 204
3 343 342 644 40 176 204
3 644 342 611 40 176 204
3 644 611 612 40 176 204
3 644 612 606 40 176 204
3 606 612 583 40 176 204
3 583 612 574 40 176 204
3 574 612 572 40 176 204
3 574 572 562 40 176 204
3 562 572 561 40 176 204
3 562 561 535 40 176 204
3 562 535 516 40 176 204
3 516 535 511 40 176 204
3 516 511 491 40 176 204
3 491 511 490 40 176 204
3 490 511 419 40 176 204
3 490 419 378 40 176 204
3 490 378 457 40 176 204
3 457 378 449 40 176 204
3 457 449 239 40 176 204
3 457 239 317 40 176 204
3 317 239 443 40 176 204
3 317 443 262 40 176 204
3 262 443 151 40 176 204
3 151 443 92 40 176 204
3 92 443 170 40 176 204
3 151 92 81 40 176 204
3 151 81 139 40 176 204
3 139 81 40 40 176 204
3 139 40 422 40 176 204
3 139 422 108 40 176 204
3 108 422 97 40 176 204
3 97 422 423 40 176 204
3 423 422 483 40 176 204
3 423 483 466 40 176 204
3 466 483 484 40 176 204
3 466 484 477 40 176 204
3 477 484 512 40 176 204
3 512 484 536 40 176 204
3 512 536 529 40 176 204
3 529 536 554 40 176 204
3 554 536 576 40 176 204
3 554 576 577 40 176 204
3 577 576 132 40 176 204
3 132 576 63 40 176 204
3 63 576 37 40 176 204
3 63 37 688 40 176 204
3 688 37 700 40 176 204
3 700 37 683 40 176 204
3 700 683 687 40 176 204
3 687 683 682 40 176 204
3 687 682 703 242 221 72
3 703 682 82 242 221 72
3 82 682 692 40 176 204
3 82 692 182 242 221 72
3 182 692 192 40 176 204
3 182 192 266 40 176 204
3 182 266 697 242 221 72
3 697 266 693 242 221 72
3 693 266 343 40 176 204
3 693 343 684 40 176 204
3 684 343 645 40 176 204
3 645 343 644 40 176 204
3 645 644 606 40 176 204
3 645 606 614 40 176 204
3 614 606 601 40 176 204
3 601 606 583 40 176 204
3 601 583 575 40 176 204
3 575 583 574 40 176 204
3 575 574 563 40 176 204
3 563 574 562 40 176 204
3 563 562 548 40 176 204
3 548 562 516 40 176 204
3 548 516 527 40 176 204
3 527 516 491 40 176 204
3 527 491 409 40 176 204
3 409 491 398 40 176 204
3 398 491 379 40 176 204
3 379 491 490 40 176 204
3 379 490 457 40 176 204
3 379 457 317 40 176 204
3 379 317 473 40 176 204
3 473 317 262 40 176 204
3 473 262 264 40 176 204
3 264 262 151 40 176 204
3 264 151 299 40 176 204
3 299 151 139 40 176 204
3 299 139 410 40 176 204
3 410 139 108 40 176 204
3 410 108 360 242 221 72
3 360 108 308 242 221 72
3 308 108 97 242 221 72
3 308 97 174 242 221 72
3 174 97 93 242 221 72
3 93 97 423 40 176 204
3 93 423 389 40 176 204
3 389 423 466 40 176 204
3 389 466 159 40 176 204
3 159 466 497 40 176 204
3 497 466 477 40 176 204
3 497 477 130 40 176 204
3 130 477 109 40 176 204
3 109 477 512 40 176 204
3 109 512 44 204 61 61
3 44 512 529 204 61 61
3 44 529 16 204 61 61
3 16 529 554 204 61 61
3 16 554 17 204 61 61
3 17 554 577 204 61 61
3 17 577 51 204 61 61
3 51 577 116 204 61 61
3 116 577 132 40 176 204
3 116 132 175 40 176 204
3 175 132 63 40 176 204
3 175 63 701 40 176 204
3 701 63 688 40 176 204
3 701 688 700 40 176 204
3 701 700 59 40 176 204
3 59 700 687 40 176 204
3 59 687 703 242 221 72
3 59 703 83 242 221 72
3 83 703 711 242 221 72
3 711 703 710 242 221 72
3 710 703 82 242 221 72
3 710 82 706 242 221 72
3 706 82 223 242 221 72
3 223 82 182 242 221 72
3 223 182 697 242 221 72
3 223 697 707 242 221 72
3 707 697 693 242 221 72
3 707 693 712 242 221 72
3 712 693 708 242 221 72
3 708 693 684 242 221 72
3 708 684 685 242 221 72
3 685 684 614 40 176 204
3 614 684 645 40 176 204
3 685 614 672 40 176 204
3 672 614 607 40 176 204
3 607 614 601 40 176 204
3 607 601 575 40 176 204
3 607 575 564 40 176 204
3 564 575 543 40 176 204
3 543 575 548 40 176 204
3 548 575 563 40 176 204
3 543 548 527 40 176 204
3 543 527 521 40 176 204
3 521 527 509 40 176 204
3 509 527 409 40 176 204
3 509 409 496 40 176 204
3 496 409 458 40 176 204
3 458 409 398 40 176 204
3 458 398 344 40 176 204
3 344 398 264 40 176 204
3 264 398 473 40 176 204
3 473 398 379 40 176 204
3 344 264 299 40 176 204
3 344 299 307 242 221 72
3 307 299 244 242 221 72
3 244 299 410 242 221 72
3 244 410 360 242 221 72
3 244 360 242 242 221 72
3 242 360 263 242 221 72
3 263 360 243 242 221 72
3 243 360 308 242 221 72
3 243 308 191 242 221 72
3 191 308 245 242 221 72
3 245 308 174 242 221 72
3 245 174 291 242 221 72
3 291 174 129 242 221 72
3 129 174 93 242 221 72
3 129 93 389 242 221 72
3 129 389 159 40 176 204
3 129 159 292 242 221 72
3 292 159 413 40 176 204
3 413 159 272 40 176 204
3 272 159 497 40 176 204
3 272 497 130 40 176 204
3 272 130 200 40 176 204
3 200 130 176 40 176 204
3 176 130 109 204 61 61
3 176 109 53 204 61 61
3 53 109 44 204 61 61
3 53 44 26 204 61 61
3 26 44 4 204 61 61
3 4 44 16 204 61 61
3 4 16 17 204 61 61
3 4 17 579 204 61 61
3 579 17 51 204 61 61
3 579 51 141 204 61 61
3 141 51 162 204 61 61
3 162 51 116 204 61 61
3 162 116 565 204 61 61
3 565 116 615 40 176 204
3 615 116 175 40 176 204
3 615 175 267 40 176 204
3 267 175 694 40 176 204
3 694 175 695 40 176 204
3 695 175 701 40 176 204
3 695 701 705 40 176 204
3 705 701 101 242 221 72
3 101 701 59 40 176 204
3 101 59 83 242 221 72
3 101 83 140 242 221 72
3 140 83 711 242 221 72
3 140 711 128 242 221 72
3 128 711 723 242 221 72
3 723 711 710 242 221 72
3 723 710 714 242 221 72
3 714 710 706 242 221 72
3 714 706 717 242 221 72
3 717 706 149 242 221 72
3 149 706 223 242 221 72
3 149 223 240 242 221 72
3 240 223 707 242 221 72
3 240 707 287 242 221 72
3 287 707 715 242 221 72
3 715 707 702 242 221 72
3 702 707 712 242 221 72
3 702 712 716 242 221 72
3 716 712 713 242 221 72
3 713 712 708 242 221 72
3 713 708 319 242 221 72
3 319 708 704 242 221 72
3 704 708 685 242 221 72
3 704 685 661 40 176 204
3 661 685 672 40 176 204
3 661 672 590 40 176 204
3 590 672 607 40 176 204
3 590 607 578 40 176 204
3 578 607 564 40 176 204
3 578 564 549 40 176 204
3 549 564 544 40 176 204
3 544 564 543 40 176 204
3 544 543 521 40 176 204
3 544 521 482 40 176 204
3 482 521 496 40 176 204
3 496 521 509 40 176 204
3 482 496 458 40 176 204
3 482 458 444 40 176 204
3 444 458 450 40 176 204
3 450 458 344 40 176 204
3 450 344 430 242 221 72
3 430 344 307 242 221 72
3 430 307 387 242 221 72
3 387 307 359 242 221 72
3 359 307 288 242 221 72
3 288 307 244 242 221 72
3 288 244 242 242 221 72
3 288 242 370 242 221 72
3 370 242 270 242 221 72
3 270 242 221 242 221 72
3 221 242 263 242 221 72
3 221 263 172 242 221 72
3 172 263 243 242 221 72
3 172 243 191 242 221 72
3 172 191 261 242 221 72
3 261 191 289 242 221 72
3 289 191 306 242 221 72
3 306 191 245 242 221 72
3 306 245 324 242 221 72
3 324 245 291 242 221 72
3 324 291 325 242 221 72
3 325 291 292 242 221 72
3 292 291 129 242 221 72
3 325 292 412 242 221 72
3 412 292 413 242 221 72
3 412 413 316 40 176 204
3 316 413 272 40 176 204
3 316 272 300 40 176 204
3 300 272 518 40 176 204
3 518 272 200 40 176 204
3 518 200 231 40 176 204
3 231 200 530 40 176 204
3 530 200 176 204 61 61
3 530 176 537 204 61 61
3 537 176 152 204 61 61
3 152 176 53 204 61 61
3 152 53 143 204 61 61
3 143 53 131 204 61 61
3 131 53 513 204 61 61
3 513 53 26 204 61 61
3 513 26 13 204 61 61
3 13 26 4 204 61 61
3 13 4 550 204 61 61
3 550 4 579 204 61 61
3 550 579 21 204 61 61
3 21 579 45 204 61 61
3 45 579 141 204 61 61
3 45 141 84 204 61 61
3 84 141 177 204 61 61
3 177 141 162 204 61 61
3 177 162 570 204 61 61
3 570 162 565 204 61 61
3 570 565 545 204 61 61
3 545 565 231 204 61 61
3 231 565 615 40 176 204
3 231 615 267 40 176 204
3 231 267 555 40 176 204
3 555 267 578 40 176 204
3 578 267 590 40 176 204
3 590 267 661 40 176 204
3 661 267 694 40 176 204
3 661 694 346 40 176 204
3 346 694 709 242 221 72
3 709 694 705 242 221 72
3 705 694 695 40 176 204
3 709 705 101 242 221 72
3 709 101 319 242 221 72
3 319 101 246 242 221 72
3 246 101 140 242 221 72
3 246 140 193 242 221 72
3 193 140 128 242 221 72
3 193 128 150 242 221 72
3 150 128 725 242 221 72
3 725 128 723 242 221 72
3 725 723 720 242 221 72
3 720 723 714 242 221 72
3 720 714 717 242 221 72
3 720 717 719 127 20 204
3 719 717 236 127 20 204
3 236 717 149 242 221 72
3 236 149 240 242 221 72
3 236 240 282 127 20 204
3 282 240 287 242 221 72
3 282 287 722 242 221 72
3 722 287 721 242 221 72
3 721 287 715 242 221 72
3 721 715 323 242 221 72
3 323 715 702 242 221 72
3 323 702 716 242 221 72
3 323 716 290 242 221 72
3 290 716 713 242 221 72
3 290 713 246 242 221 72
3 246 713 319 242 221 72
3 290 246 193 242 221 72
3 290 193 323 242 221 72
3 323 193 721 242 221 72
3 721 193 150 242 221 72
3 721 150 724 242 221 72
3 724 150 241 127 20 204
3 241 150 148 127 20 204
3 148 150 725 127 20 204
3 148 725 88 127 20 204
3 88 725 729 127 20 204
3 729 725 720 127 20 204
3 729 720 719 127 20 204
3 729 719 727 127 20 204
3 727 719 718 127 20 204
3 718 719 236 127 20 204
3 718 236 726 127 20 204
3 726 236 282 127 20 204
3 726 282 728 127 20 204
3 728 282 722 127 20 204
3 728 722 255 127 20 204
3 255 722 724 127 20 204
3 724 722 721 242 221 72
3 255 724 241 127 20 204
3 255 241 733 127 20 204
3 733 241 734 127 20 204
3 734 241 203 127 20 204
3 203 241 171 127 20 204
3 171 241 148 127 20 204
3 171 148 127 127 20 204
3 127 148 88 127 20 204
3 127 88 732 127 20 204
3 732 88 729 127 20 204
3 732 729 727 127 20 204
3 732 727 730 127 20 204
3 730 727 718 127 20 204
3 730 718 731 127 20 204
3 731 718 218 127 20 204
3 218 718 726 127 20 204
3 218 726 733 127 20 204
3 733 726 728 127 20 204
3 733 728 255 127 20 204
3 218 733 739 127 20 204
3 739 733 734 127 20 204
3 739 734 187 127 20 204
3 187 734 203 127 20 204
3 187 203 135 127 20 204
3 135 203 137 127 20 204
3 137 203 171 127 20 204
3 137 171 127 127 20 204
3 137 127 732 127 20 204
3 137 732 737 127 20 204
3 737 732 730 127 20 204
3 737 730 735 127 20 204
3 735 730 731 127 20 204
3 735 731 124 127 20 204
3 124 731 167 127 20 204
3 167 731 218 127 20 204
3 167 218 739 127 20 204
3 167 739 168 127 20 204
3 168 739 186 127 20 204
3 186 739 187 127 20 204
3 186 187 147 127 20 204
3 147 187 135 127 20 204
3 147 135 77 127 20 204
3 77 135 137 127 20 204
3 77 137 737 127 20 204
3 77 737 745 127 20 204
3 745 737 735 127 20 204
3 745 735 738 127 20 204
3 738 735 124 127 20 204
3 738 124 736 48 242 105
3 736 124 168 48 242 105
3 168 124 167 127 20 204
3 736 168 748 48 242 105
3 748 168 186 48 242 105
3 748 186 189 48 242 105
3 189 186 147 48 242 105
3 189 147 89 48 242 105
3 89 147 747 48 242 105
3 747 147 56 48 242 105
3 56 147 77 48 242 105
3 56 77 745 127 20 204
3 56 745 740 48 242 105
3 740 745 738 48 242 105
3 740 738 122 48 242 105
3 122 738 736 48 242 105
3 122 736 121 48 242 105
3 121 736 744 48 242 105
3 744 736 748 48 242 105
3 744 748 751 48 242 105
3 751 748 189 48 242 105
3 751 189 746 48 242 105
3 746 189 89 48 242 105
3 746 89 750 48 242 105
3 750 89 749 48 242 105
3 749 89 747 48 242 105
3 749 747 742 48 242 105
3 742 747 740 48 242 105
3 740 747 56 48 242 105
3 742 740 741 48 242 105
3 741 740 122 48 242 105
3 741 122 104 48 242 105
3 104 122 121 48 242 105
3 104 121 746 48 242 105
3 746 121 743 48 242 105
3 743 121 744 48 242 105
3 743 744 751 48 242 105
3 743 751 746 48 242 105
3 104 746 750 48 242 105
3 104 750 741 48 242 105
3 741 750 742 48 242 105
3 742 750 749 48 242 105
3 709 319 704 242 221 72
3 709 704 346 242 221 72
3 346 704 661 40 176 204
3 555 578 549 40 176 204
3 555 549 522 40 176 204
3 522 549 544 40 176 204
3 522 544 482 40 176 204
3 522 482 465 40 176 204
3 465 482 444 40 176 204
3 465 444 316 40 176 204
3 316 444 412 40 176 204
3 412 444 411 242 221 72
3 411 444 450 40 176 204
3 411 450 430 242 221 72
3 411 430 388 242 221 72
3 388 430 402 242 221 72
3 402 430 387 242 221 72
3 402 387 352 242 221 72
3 352 387 224 242 221 72
3 224 387 359 242 221 72
3 224 359 222 242 221 72
3 222 359 370 242 221 72
3 370 359 288 242 221 72
3 222 370 386 127 20 204
3 386 370 340 127 20 204
3 340 370 270 127 20 204
3 340 270 220 127 20 204
3 220 270 221 127 20 204
3 220 221 138 127 20 204
3 138 221 172 127 20 204
3 138 172 261 127 20 204
3 138 261 238 127 20 204
3 238 261 286 127 20 204
3 286 261 289 127 20 204
3 286 289 173 127 20 204
3 173 289 352 242 221 72
3 352 289 306 242 221 72
3 352 306 374 242 221 72
3 374 306 324 242 221 72
3 374 324 345 242 221 72
3 345 324 325 242 221 72
3 345 325 388 242 221 72
3 388 325 412 242 221 72
3 388 412 411 242 221 72
3 345 388 402 242 221 72
3 345 402 374 242 221 72
3 374 402 352 242 221 72
3 173 352 224 242 221 72
3 173 224 363 127 20 204
3 363 224 222 127 20 204
3 363 222 68 127 20 204
3 68 222 386 127 20 204
3 68 386 66 127 20 204
3 66 386 340 127 20 204
3 66 340 321 127 20 204
3 321 340 220 127 20 204
3 321 220 106 127 20 204
3 106 220 138 127 20 204
3 106 138 238 127 20 204
3 106 238 67 127 20 204
3 67 238 25 127 20 204
3 25 238 285 127 20 204
3 285 238 305 127 20 204
3 305 238 286 127 20 204
3 305 286 69 127 20 204
3 69 286 173 127 20 204
3 69 173 363 127 20 204
3 69 363 68 127 20 204
3 69 68 330 127 20 204
3 330 68 57 127 20 204
3 57 68 66 127 20 204
3 57 66 331 127 20 204
3 331 66 321 127 20 204
3 331 321 226 127 20 204
3 226 321 67 127 20 204
3 67 321 106 127 20 204
3 226 67 217 127 20 204
3 217 67 25 127 20 204
3 217 25 215 127 20 204
3 215 25 257 127 20 204
3 257 25 285 127 20 204
3 257 285 339 127 20 204
3 339 285 305 127 20 204
3 339 305 330 127 20 204
3 330 305 69 127 20 204
3 339 330 33 127 20 204
3 33 330 57 127 20 204
3 33 57 338 127 20 204
3 338 57 331 127 20 204
3 338 331 226 127 20 204
3 338 226 337 48 242 105
3 337 226 283 48 242 105
3 283 226 217 48 242 105
3 283 217 24 48 242 105
3 24 217 215 48 242 105
3 24 215 6 48 242 105
3 6 215 256 48 242 105
3 256 215 257 48 242 105
3 256 257 294 48 242 105
3 294 257 361 48 242 105
3 361 257 339 127 20 204
3 361 339 33 127 20 204
3 361 33 18 127 20 204
3 18 33 338 127 20 204
3 18 338 337 48 242 105
3 18 337 12 48 242 105
3 12 337 5 48 242 105
3 5 337 283 48 242 105
3 5 283 24 48 242 105
3 5 24 214 48 242 105
3 214 24 6 48 242 105
3 214 6 204 48 242 105
3 204 6 256 48 242 105
3 204 256 235 48 242 105
3 235 256 2 48 242 105
3 2 256 294 48 242 105
3 2 294 7 48 242 105
3 7 294 361 48 242 105
3 7 361 18 48 242 105
3 7 18 372 48 242 105
3 372 18 12 48 242 105
3 372 12 2 48 242 105
3 2 12 5 48 242 105
3 2 5 235 48 242 105
3 235 5 214 48 242 105
3 235 214 204 48 242 105
3 372 2 7 48 242 105
3 465 316 300 40 176 204
3 465 300 522 40 176 204
3 522 300 555 40 176 204
3 555 300 518 40 176 204
3 555 518 231 40 176 204
3 545 231 530 204 61 61
3 545 530 537 204 61 61
3 545 537 571 204 61 61
3 571 537 531 204 61 61
3 531 537 194 204 61 61
3 194 537 152 204 61 61
3 194 152 143 204 61 61
3 194 143 153 204 61 61
3 153 143 131 204 61 61
3 153 131 154 204 61 61
3 154 131 519 204 61 61
3 519 131 513 204 61 61
3 519 513 13 204 61 61
3 519 13 538 204 61 61
3 538 13 550 204 61 61
3 538 550 556 204 61 61
3 556 550 21 204 61 61
3 556 21 584 204 61 61
3 584 21 45 204 61 61
3 584 45 585 204 61 61
3 585 45 110 204 61 61
3 110 45 84 204 61 61
3 110 84 195 204 61 61
3 195 84 293 204 61 61
3 293 84 177 204 61 61
3 293 177 571 204 61 61
3 571 177 570 204 61 61
3 571 570 545 204 61 61
3 293 571 551 204 61 61
3 551 571 531 204 61 61
3 551 531 523 204 61 61
3 523 531 194 204 61 61
3 523 194 196 204 61 61
3 196 194 153 204 61 61
3 196 153 154 204 61 61
3 196 154 144 204 61 61
3 144 154 86 204 61 61
3 86 154 519 204 61 61
3 86 519 29 204 61 61
3 29 519 538 204 61 61
3 29 538 539 204 61 61
3 539 538 585 204 61 61
3 585 538 584 204 61 61
3 584 538 556 204 61 61
3 539 585 50 204 61 61
3 50 585 110 204 61 61
3 50 110 597 204 61 61
3 597 110 195 204 61 61
3 597 195 580 204 61 61
3 580 195 293 204 61 61
3 580 293 551 204 61 61
3 580 551 268 204 61 61
3 268 551 546 204 61 61
3 546 551 523 204 61 61
3 546 523 196 204 61 61
3 546 196 144 204 61 61
3 546 144 268 204 61 61
3 268 144 98 204 61 61
3 98 144 539 204 61 61
3 539 144 86 204 61 61
3 539 86 29 204 61 61
3 98 539 50 204 61 61
3 98 50 597 204 61 61
3 98 597 268 204 61 61
3 268 597 580 204 61 61
