ply
format ascii 1.0
element vertex 752
property float x
property float y
property float z
element face 1500
property list uchar int vertex_indices
property uchar red
property uchar green
property uchar blue
end_header
0.357597 0.028591 0.545659
-0.029128 -0.130471 0.752524
-0.037415 0.000853 0.877424
0.000436 0.064272 0.864992
0.009913 0.029947 0.879085
-0.034282 -0.030663 0.861955
-0.017299 -0.098383 0.867492
0.062495 0.009208 0.869672
0.062428 -0.011298 0.85536
-0.070704 -0.008512 0.847243
0.068324 -0.053959 0.843897
0.00814 -0.128742 0.845488
0.026695 0.084527 0.837585
0.082465 0.01915 0.820999
0.835659 0.047031 0.505602
0.842235 0.013459 0.494713
0.077627 -0.005809 0.813531
-0.029728 -0.135672 0.816141
0.838863 0.046153 0.49883
0.067393 0.045754 0.818215
-0.071623 0.058841 0.814631
0.849085 0.031762 0.499889
-0.055447 0.080845 0.812265
0.073916 -0.042006 0.797513
0.010137 -0.141531 0.803763
-0.056849 0.055441 0.764341
-0.072955 -0.014262 0.796104
0.819184 0.012384 0.502028
0.813319 0.022169 0.49177
0.06359 0.037467 0.798492
0.789497 0.066153 0.495974
-0.077003 -0.084959 0.799272
0.831506 0.006837 0.494214
0.79784 0.009518 0.505379
0.796793 0.042417 0.512133
0.785879 -0.017535 0.50179
0.791228 0.05466 0.497955
0.780331 0.065482 0.505134
0.775426 -0.004251 0.494022
0.727342 0.045469 0.508852
0.074093 -0.08793 0.798957
0.768397 -0.016481 0.495879
0.070586 -0.025664 0.73961
0.764918 -0.006649 0.503629
-0.073015 -0.068276 0.749024
-0.041273 0.070777 0.754811
-0.070885 -0.02913 0.728858
0.729194 0.024792 0.511159
0.756852 -0.002513 0.48931
0.056011 -0.038607 0.690604
-0.029816 0.04393 0.700087
-0.038395 0.024848 0.678103
0.738839 0.055061 0.497266
0.726325 0.007291 0.498314
0.035803 0.043867 0.703049
0.721786 0.046506 0.484578
0.05013 -0.099157 0.681335
0.012052 -0.141996 0.666085
-0.054878 -0.009886 0.687949
0.053615 -0.008866 0.695304
-0.054329 -0.056405 0.672724
0.732292 0.014697 0.485588
0.045951 -0.059676 0.656639
0.679818 0.014105 0.510605
-0.023551 -0.076478 0.61812
0.657961 0.030659 0.474651
0.061586 0.012153 0.635236
0.683326 0.00433 0.492674
0.68825 0.009321 0.480436
0.59297 0.010071 0.473973
0.625348 0.042088 0.521904
0.123766 -0.047098 0.587019
0.057708 0.083945 0.577525
0.615124 0.051641 0.481415
0.620099 0.057861 0.503459
0.601557 0.006928 0.510043
0.263379 0.074759 0.550284
0.584256 -0.00102 0.487007
-0.361581 0.053506 0.54338
0.350931 -0.003318 0.544299
-0.329436 0.035965 0.538201
0.542608 0.06055 0.521116
0.48974 0.045612 0.535755
-0.323455 -0.000579 0.525221
0.590277 0.023237 0.525301
0.688479 0.052888 0.506176
-0.769299 -0.016381 0.495782
0.794655 0.027944 0.486399
0.459839 0.043681 0.461187
0.547944 0.063277 0.486836
0.523319 0.050324 0.467361
0.513156 -0.001044 0.472397
0.31487 -0.005648 0.484761
0.496166 -0.006857 0.487102
0.521037 0.007064 0.521992
0.307995 0.049224 0.466275
0.308418 0.069279 0.46193
0.444382 0.003274 0.463626
0.307753 -0.009902 0.45965
0.47883 0.068932 0.522664
0.424831 0.032076 0.538173
0.477428 -0.002994 0.509625
-0.331852 0.070637 0.433214
-0.216327 -0.051691 0.429447
-0.196811 -0.016696 0.408724
-0.198636 0.085905 0.41822
-0.185865 0.034436 0.381238
0.415111 0.009757 0.529494
0.188106 0.084315 0.408367
0.387379 0.022736 0.460772
0.467842 0.072448 0.484365
-0.179143 -0.054455 0.354497
0.1795 -0.063169 0.395975
0.408432 -0.01012 0.479966
0.176196 0.09708 0.39559
-0.175053 0.087859 0.369122
0.339683 -0.002893 0.509053
0.382952 0.065432 0.471713
0.338207 0.018297 0.535427
0.339833 -0.007095 0.53936
0.353704 -0.023273 0.476935
0.357484 0.013968 0.552088
0.357022 0.060819 0.544004
0.366097 0.069838 0.526197
0.346299 -0.019675 0.52339
-0.164064 0.08292 0.310427
0.351303 0.057768 0.536007
0.187039 0.00646 0.385242
-0.174494 -0.027239 0.227953
0.339021 0.083693 0.511436
0.156573 0.081198 0.278683
0.340698 0.04346 0.555941
-0.173197 0.015087 0.250647
0.175511 -0.0082 0.277773
0.348643 0.073 0.504962
0.30535 0.088499 0.492148
0.352166 -0.000186 0.472414
0.335601 -0.033334 0.470378
0.332653 -0.011825 0.439297
0.33263 0.042659 0.545316
0.332676 0.05973 0.541791
0.326275 0.064011 0.481833
0.329498 -0.017056 0.489991
0.332038 0.081877 0.480859
0.332234 0.067039 0.43618
0.322436 -0.018089 0.434809
0.316763 0.073531 0.541046
0.326077 0.025906 0.538077
0.322644 0.005501 0.529285
0.331224 0.073573 0.51679
0.326159 0.082805 0.451725
0.321809 0.016688 0.472021
0.29796 0.086487 0.451854
0.308734 0.035477 0.452326
0.280348 -0.046327 0.489993
0.244512 -0.056178 0.456239
0.31894 0.072034 0.431391
0.321655 -0.008219 0.554588
0.312601 0.013621 0.425855
0.211137 0.108065 0.524117
-0.139717 0.102593 0.202952
0.262519 -0.014787 0.568746
0.216647 0.106044 0.45002
0.247037 0.036915 0.577288
-0.156606 0.0831 0.239871
0.149382 -0.090427 0.165249
0.22061 -0.03088 0.567302
0.136222 0.103001 0.25711
0.255142 0.082283 0.426702
0.174933 -0.018817 0.150961
0.200468 -0.007488 0.414798
0.267691 -0.03626 0.432857
0.20901 0.087251 0.422279
-0.167125 -0.069788 0.172228
0.162641 -0.073066 0.460094
-0.153896 -0.097759 0.120086
0.195653 -0.063906 0.433512
0.193359 -0.04402 0.01987
0.16187 0.05868 0.593101
0.189505 -0.026302 -0.888784
0.187523 -0.051175 -0.885445
0.183349 -0.089606 0.014873
0.162058 0.074782 -0.88757
0.179992 0.10599 0.430615
0.197099 0.045094 -0.900373
0.186912 0.067543 -0.641413
0.174294 0.013273 0.001748
0.174322 -0.041452 0.002234
0.17838 -0.141338 -0.826657
0.177217 -0.168916 -0.900322
0.172105 -0.213088 -0.833668
0.144652 -0.031968 0.608837
0.200833 0.100162 0.549111
0.179524 0.081473 -0.087456
0.173462 0.089097 -0.27709
0.169488 0.120944 0.017639
-0.157988 0.086837 0.146798
0.162987 0.083224 -0.646157
0.184771 -0.224526 -0.888566
0.165184 -0.065448 0.187472
0.189528 -0.101973 -0.902675
0.171241 0.089884 -0.035462
0.160941 0.09947 -0.07362
0.14943 -0.071316 -0.311417
0.154849 0.111475 -0.503269
0.15957 0.064988 -0.902102
-0.177251 -0.068328 0.092208
0.152157 -0.081359 0.384452
0.14978 0.100324 0.338575
0.160788 -0.070522 0.286078
0.132218 -0.113 0.108523
0.140785 0.108523 -0.28775
0.17485 0.073445 -0.745889
0.162286 -0.066704 -0.73738
0.154928 0.102051 0.096358
0.148163 0.100836 -0.007558
0.104156 -0.1069 -0.10965
0.13208 0.114672 -0.465232
0.154082 0.091631 0.150575
0.156773 0.094889 -0.178532
0.179517 -0.003481 -0.902436
0.133234 0.077679 -0.702036
0.163594 0.062144 -0.78418
0.094731 -0.249801 -0.885432
0.142267 0.104085 0.519774
0.121405 -0.098135 0.223453
0.139673 -0.085036 -0.176104
0.141474 -0.058281 -0.558306
0.142282 0.088503 -0.631496
0.122176 -0.054169 -0.685231
0.159817 -0.09552 -0.791164
0.087114 0.115055 0.007114
0.168888 -0.086314 0.089215
0.174334 -0.242183 -0.848983
0.132579 0.107861 0.390363
0.111482 0.12069 0.087657
0.147346 -0.097095 -0.001425
0.113933 -0.089972 -0.32316
0.134788 0.11819 -0.396582
0.155965 0.010331 0.613263
0.180392 0.010605 0.087812
0.12856 0.061176 -0.791111
0.103546 -0.229475 -0.834264
0.089071 -0.109122 0.190229
0.121732 -0.072909 -0.449857
0.113496 0.082555 -0.598839
0.116876 -0.055145 -0.574756
0.109354 -0.059974 -0.732674
0.109295 -0.086524 -0.769778
0.094358 -0.129851 -0.816673
0.088849 -0.1404 0.015488
0.10674 0.113721 -0.303618
0.102652 -0.042603 -0.614145
-0.197477 0.051355 0.018354
0.094905 -0.060858 -0.885896
0.100518 -0.042528 -0.709073
0.079438 -0.060769 -0.4131
0.104548 0.063822 -0.701495
0.11621 0.110994 0.280002
0.111883 -0.114896 0.006548
0.096503 -0.108651 -0.008252
0.09864 0.107785 -0.168029
0.113243 0.070682 -0.752201
0.083027 0.040783 -0.899594
0.0978 -0.138966 0.036433
0.081932 -0.100286 -0.182132
0.102132 -0.022914 0.624526
0.077694 -0.102763 -0.90087
0.089619 -0.204041 -0.896076
0.104475 0.058004 -0.893557
0.081349 -0.087999 0.823719
0.08356 -0.029532 0.822103
0.083884 -0.065868 0.814884
0.077978 0.11274 0.325279
-0.19319 -0.058972 0.017454
0.076219 -0.041963 -0.455488
0.096547 -0.081864 -0.377324
0.113911 0.116233 0.149827
0.068471 0.118625 -0.110558
0.069087 -0.095242 -0.241
0.135158 0.135929 0.014762
-0.201066 0.008239 0.015459
0.079092 -0.160966 -0.901479
0.085067 0.106388 -0.032425
0.063745 0.052277 0.610016
0.198762 0.003117 0.016319
0.068445 -0.027262 0.703155
0.058754 -0.03289 0.637694
0.06002 -0.087671 0.836269
0.067566 -0.119679 0.822307
0.057559 -0.11658 0.794891
0.067817 -0.044814 0.621738
0.047619 -0.077516 -0.273545
0.064327 -0.032259 0.86644
0.043236 -0.066951 0.868738
0.165543 -0.116637 0.019287
0.048766 0.037407 0.85089
0.056985 0.065803 0.838136
0.063426 -0.101435 0.731766
0.095265 -0.092877 0.402347
0.080081 0.105634 -0.003202
-0.191102 0.092243 0.016921
0.051377 0.006915 0.655559
-0.183312 -0.092725 0.020019
0.033407 -0.093285 0.859497
0.027795 0.099393 0.53484
0.041875 -0.095802 -0.189345
0.191977 0.076747 0.017017
0.034557 -0.12987 0.708693
0.045554 -0.12679 0.118302
0.037968 -0.003201 0.870879
0.039496 -0.126662 0.825724
0.014383 -0.143713 0.764374
0.028955 0.031706 0.66477
0.022169 -0.071616 0.617589
-0.002272 0.137368 0.033723
0.067448 0.139686 0.019015
0.047109 0.089343 0.812002
0.020218 0.059438 0.869194
0.026306 0.007328 0.885037
-0.066992 -0.118421 0.004902
0.046856 -0.119389 0.005603
0.025211 -0.121402 0.850357
-0.176574 0.081299 -0.036836
0.1733 0.081237 5.3e-05
0.04002 -0.033347 0.869949
0.043031 0.081613 0.79241
0.023288 -0.131546 0.749149
0.05404 -0.061314 0.575659
-0.001941 -0.148528 0.034024
0.025568 -0.079197 -0.188624
0.018732 0.067347 -0.206504
0.169062 -0.076215 0.002751
0.014398 -0.103202 0.871827
0.042056 0.073485 0.759396
0.016403 0.11199 -0.128095
0.014462 -0.118269 0.634526
0.014588 -0.148973 0.824975
-0.027665 0.091349 0.811261
-0.007095 -0.165322 0.725446
0.013483 0.096692 0.816292
0.155787 -0.084666 -0.044211
0.01093 -0.157356 0.714307
-0.013875 0.039712 0.65939
-0.00079 0.112497 0.006487
-0.00371 -0.00575 -0.169934
-0.009214 -0.045438 0.876252
0.007121 -0.062409 0.88399
-0.022386 0.082662 0.839136
-0.01226 -0.145469 0.763954
-0.005961 -0.144493 0.6702
-0.010776 -0.118386 0.626188
0.006974 -0.073079 0.608642
-0.018626 -0.111562 0.206634
0.001493 -0.119695 -0.113293
-0.003051 0.086382 0.594483
0.172435 -0.047893 -0.046803
0.007082 -0.003022 0.883448
0.004045 -0.02701 0.886482
-0.154161 -0.088351 -0.044849
0.001631 -0.078062 0.871707
-0.003156 -0.096356 -0.162809
-0.021973 -0.137366 0.837831
-0.031544 -0.130342 0.687477
-0.051191 -0.060665 0.579945
-0.031187 0.024337 0.8797
-0.030533 -0.116351 0.847095
-0.042826 0.04873 0.863513
-0.021196 -0.145206 0.710723
0.034993 -0.094943 0.417444
-0.019853 0.092131 -0.175962
-0.04752 -0.129734 0.773692
-0.044859 0.0453 0.632152
-0.015925 0.120475 -0.085047
-0.027971 0.138645 0.015295
-0.028475 -0.055394 0.874588
-0.062395 -0.091629 0.849763
-0.007752 -0.148316 0.015441
-0.005695 0.107775 -0.002836
-0.091224 0.105935 -0.031959
-0.004876 -0.11338 -0.029416
-0.043665 -0.080303 0.870371
-0.059993 -0.111237 0.721667
-0.059363 -0.000935 0.641943
-0.110491 -0.0932 0.381196
-0.05561 -0.09655 -0.199723
-0.177493 -0.03328 -0.115829
-0.054783 -0.097052 0.686124
-0.061587 0.005822 0.865736
-0.056766 -0.091713 0.433025
-0.066309 0.107002 0.004185
-0.040661 0.101854 -0.168578
-0.059321 0.054036 0.837835
-0.049304 0.032473 0.853313
-0.064582 0.020598 0.632426
-0.056618 -0.041618 0.859191
-0.065829 -0.108618 0.848777
-0.061694 -0.115106 0.817595
-0.059111 -0.045788 0.627939
-0.023141 -0.118107 0.003163
-0.065877 0.032422 0.798846
-0.070478 -0.093455 0.768168
-0.172556 0.094582 -0.085284
-0.082316 0.019381 0.819968
-0.08639 0.013328 0.841927
0.179155 0.00612 -0.114625
-0.070394 -0.153582 -0.894764
-0.076323 -0.03917 0.840811
0.003574 0.105369 0.492172
-0.080204 0.115435 0.249241
-0.08474 0.118698 0.101426
-0.091429 -0.141571 0.031345
-0.089476 -0.091053 -0.314445
-0.09077 -0.135846 0.011864
-0.082543 -0.01524 0.815719
-0.085919 -0.060508 0.816535
-0.085383 -0.08024 0.831268
-0.079631 -0.115247 -0.902607
-0.097086 -0.129655 -0.81571
-0.074993 -0.131686 -0.832583
-0.124164 -0.103542 0.185403
-0.095051 -0.108086 -0.025868
-0.112327 -0.096441 -0.181732
-0.095119 -0.244747 -0.885596
-0.172166 -0.043384 0.567114
-0.080826 0.091666 0.558793
-0.1054 -0.059729 -0.508703
-0.114606 -0.056325 -0.550744
-0.096575 0.059476 -0.750943
-0.116478 0.055771 -0.781406
-0.099807 -0.227166 -0.834466
-0.113383 0.113652 0.212144
-0.125124 0.138033 0.016189
-0.098709 -0.095783 -0.243156
-0.182393 0.073887 -0.143346
-0.098016 -0.013382 -0.900346
-0.104632 0.06648 -0.647152
-0.096122 -0.057455 -0.885208
-0.147732 -0.087088 -0.772953
-0.095533 -0.193743 -0.897983
-0.102652 0.113161 -0.127436
-0.065206 0.07112 0.592956
0.17706 -0.029274 -0.240626
-0.111457 -0.050485 -0.734335
-0.1092 -0.079379 -0.757891
-0.124646 0.116596 0.098433
-0.118157 -0.078938 -0.40605
-0.115309 -0.099856 0.251661
-0.128517 -0.118612 0.094021
-0.10946 -0.106456 -0.106784
-0.104843 0.110158 -0.248492
-0.13215 0.10772 0.003339
-0.127966 -0.05296 -0.637997
-0.13143 -0.084387 -0.29056
-0.13065 -0.054909 -0.73086
-0.148652 0.104131 0.518131
-0.161728 0.098681 -0.038742
-0.126017 0.1179 -0.345568
-0.131154 0.092007 -0.591419
-0.003382 0.090814 -0.163682
0.016116 0.089985 -0.176137
-0.183809 0.043752 -0.104638
0.165914 -0.059711 -0.181075
-0.13197 0.074662 -0.746134
-0.158466 0.063957 -0.783597
-0.177431 -0.171354 -0.830661
-0.124598 -0.032751 0.616527
-0.15489 -0.075164 0.459388
-0.127047 0.109671 0.311162
-0.148701 -0.082042 0.274835
-0.133062 -0.068577 -0.48434
0.045602 0.100759 -0.185211
-0.011311 0.064489 -0.178303
-0.141291 -0.100325 -0.003496
-0.155601 0.074841 -0.886831
-0.162224 0.097205 0.088248
-0.14765 -0.072424 -0.350794
-0.145097 0.118005 -0.446527
-0.164769 0.087533 -0.623378
-0.220573 -0.02021 0.579114
-0.140583 0.107325 0.429007
-0.166688 -0.07629 0.394569
-0.166667 -0.061586 0.258016
-0.169146 0.122195 0.017624
-0.169113 -0.066047 -0.096437
-0.164944 0.091799 -0.160288
-0.150633 0.102333 -0.262608
-0.150094 0.025525 0.615585
0.007373 0.010281 -0.177026
-0.140945 0.060569 -0.902482
-0.160447 -0.121845 0.018905
-0.166034 -0.044326 -0.741211
-0.028339 -0.083978 -0.188617
-0.19002 -0.064863 0.426961
-0.179614 0.005704 0.10487
-0.172674 -0.00636 -0.902195
0.020357 -0.038788 -0.206949
-0.030846 -0.066465 -0.216549
-0.168673 -0.075145 -0.00042
-0.163837 0.075854 -0.750282
-0.161182 0.103538 0.390931
-0.184291 0.097339 -0.422519
-0.169639 0.094629 0.000205
-0.182266 0.076895 -0.220332
-0.176719 0.0545 8.7e-05
-0.023758 0.075863 -0.214004
-0.01612 -0.011786 -0.186196
-0.180109 -0.027631 -0.264359
0.180495 0.07089 -0.174996
-0.184012 0.07335 0.577953
0.182146 0.002785 -0.268967
-0.176012 -0.009836 0.000948
-0.190602 0.06434 -0.749063
-0.182322 -0.066857 -0.889241
-0.189159 -0.245408 -0.870908
-0.185681 -0.175123 -0.899481
-0.210117 0.105683 0.541051
-0.196658 -0.011093 -0.795272
0.027686 0.085736 -0.216429
-0.208156 0.10795 0.453065
-0.26121 -0.054315 0.463199
-0.229622 0.015131 0.583008
-0.153017 -0.075413 -0.1893
-0.263414 0.0606 0.422664
-0.185241 0.076493 -0.296862
-0.298203 -0.016311 0.554764
-0.183627 0.009494 -0.229946
0.034708 -0.012418 -0.309654
-0.17504 0.090105 -0.275768
-0.041735 0.01916 -0.33695
-0.036959 -0.043479 -0.279752
-0.267902 -0.046402 0.498816
-0.053368 0.093064 -0.269758
-0.217301 0.017691 0.416878
-0.17007 -0.054226 -0.248743
-0.058565 -0.076715 -0.310871
-0.266024 0.070174 0.55444
0.182225 0.074445 -0.274187
-0.187913 0.082597 -0.379881
-0.24694 0.093862 0.433617
-0.228135 0.046279 0.579134
0.063461 -0.081556 -0.317298
-0.30194 0.084292 0.440084
0.067138 0.100434 -0.29146
0.049151 0.067144 -0.329439
-0.295585 0.088161 0.51197
-0.309588 0.066746 0.465248
0.182775 -0.001044 -0.346042
-0.310605 0.00563 0.453246
-0.315961 -0.026378 0.440566
-0.179084 -0.032943 -0.380402
-0.332495 0.064331 0.549136
-0.31664 0.068012 0.45098
0.100433 0.105608 -0.406151
-0.327139 0.073567 0.503971
-0.328364 0.050106 0.44098
-0.313016 0.002056 0.475528
-0.313476 -0.014057 0.467396
-0.339995 -0.033835 0.47685
-0.17318 0.103063 -0.369518
-0.065536 0.064066 -0.385666
-0.321767 0.004908 0.427207
0.17194 -0.044999 -0.343777
-0.335214 0.024106 0.538686
-0.341374 0.082739 0.517884
-0.343411 -0.021327 0.521503
-0.319206 0.05904 0.479385
-0.327642 0.076732 0.487478
-0.331376 0.07886 0.43983
-0.334754 -0.001501 0.435699
0.044899 -0.051096 -0.321891
-0.331901 -0.002049 0.537223
-0.338858 0.088567 0.488632
-0.350288 0.041611 0.555396
-0.350335 0.008188 0.55334
-0.067598 0.001325 -0.431771
-0.343793 -0.005878 0.483184
-0.349331 0.061275 0.543292
-0.34201 -0.018074 0.50605
-0.349471 0.085918 0.484078
-0.36845 0.06381 0.535077
-0.32183 0.017408 0.470855
-0.184451 -0.001719 -0.333488
-0.347987 -0.024431 0.469672
0.06618 -0.010483 -0.435673
-0.363053 0.073344 0.502606
-0.355127 -0.005784 0.542151
0.184045 0.085047 -0.363061
0.14823 -0.067388 -0.423726
-0.198509 0.035362 -0.490458
-0.36017 0.066392 0.477351
-0.350694 0.016418 0.536383
0.187678 0.088571 -0.422178
-0.104162 0.105183 -0.411103
-0.389401 -0.008196 0.477158
0.169599 0.10588 -0.399314
-0.386323 0.033847 0.539725
-0.432574 0.009998 0.528964
0.060205 0.034135 -0.402236
0.195117 0.076987 -0.487345
-0.38418 0.013228 0.462613
-0.087616 -0.064539 -0.417054
-0.400186 0.049284 0.462186
0.122922 0.101091 -0.535838
0.165103 -0.049379 -0.524703
-0.401134 -0.00391 0.511104
0.077953 0.066182 -0.447621
-0.072664 -0.038802 -0.425641
-0.453952 0.072164 0.515676
0.179607 0.100097 -0.5004
-0.474153 0.070634 0.480035
-0.193547 0.084808 -0.519938
0.192961 -0.004031 -0.494705
-0.166162 0.106223 -0.522795
-0.465607 0.03891 0.538815
-0.45414 0.063356 0.530784
-0.460852 0.005489 0.463227
-0.518363 0.001341 0.514118
-0.552923 -0.001851 0.479659
-0.193013 -0.009846 -0.522564
-0.594722 0.059549 0.507377
-0.479507 -0.008182 0.481777
-0.109958 0.092096 -0.52056
0.18204 -0.0302 -0.488135
-0.169961 -0.050066 -0.504141
0.182009 0.085804 -0.571995
-0.081164 0.049986 -0.50037
-0.522655 0.026622 0.53261
-0.087365 -0.030196 -0.555434
0.19475 0.059155 -0.574042
0.083247 -0.02949 -0.551341
-0.547971 0.050335 0.471036
-0.50652 0.036816 0.464508
0.188393 -0.009503 -0.598447
-0.192468 0.069753 -0.591177
-0.560404 0.053538 0.525357
-0.087898 0.012012 -0.635803
0.077501 0.014587 -0.536339
-0.634275 0.027769 0.521335
-0.575687 0.015128 0.469298
-0.598661 0.000556 0.491956
0.091084 0.05152 -0.617956
-0.194321 0.000871 -0.616027
-0.165562 -0.041289 -0.617905
-0.570944 0.060987 0.48679
-0.180418 0.073002 -0.663837
-0.644949 0.048263 0.515926
0.085485 -0.012366 -0.647254
-0.62845 0.010175 0.477034
-0.595655 0.011093 0.517428
0.154315 -0.046774 -0.644176
-0.623872 0.050153 0.479618
0.194935 0.051865 -0.708893
-0.195471 -0.005542 -0.699741
0.193536 0.032962 -0.641421
-0.093776 -0.030003 -0.637605
-0.090833 0.038985 -0.637109
0.177778 -0.029106 -0.720673
0.077366 0.036682 -0.749705
0.191534 -0.003073 -0.671814
-0.087374 0.037059 -0.715153
-0.675241 0.008251 0.504797
-0.678465 0.053066 0.487422
-0.687871 0.037796 0.477668
-0.690348 0.004306 0.488488
-0.198737 0.048759 -0.708508
0.086775 -0.020364 -0.71507
-0.159287 -0.064576 -0.730107
-0.081814 0.03954 -0.764206
-0.716594 0.040127 0.512589
-0.105448 -0.066425 -0.739821
-0.687704 0.015994 0.477712
-0.083425 -0.018988 -0.74925
0.206028 0.047777 -0.75089
-0.206407 -0.008071 -0.749031
-0.726586 0.019407 0.507784
0.157446 -0.048855 -0.733262
-0.180582 -0.054313 -0.760341
-0.73674 0.049525 0.489238
-0.734179 0.002894 0.495791
-0.206567 0.044734 -0.759982
0.205235 0.000564 -0.752804
-0.092915 -0.042325 -0.770252
0.086909 -0.038079 -0.767883
0.191554 -0.026803 -0.782949
0.094532 0.046006 -0.781887
0.094441 -0.084048 -0.781945
-0.744249 0.009624 0.486073
-0.734141 0.051807 0.500113
-0.197846 0.05055 -0.803589
0.184166 -0.069201 -0.783209
0.0877 -0.058873 -0.797453
-0.093775 -0.093351 -0.792861
-0.206384 0.036882 -0.817814
0.199957 0.023175 -0.786874
-0.189272 -0.088004 -0.802602
-0.769549 0.054134 0.51053
-0.082066 0.032045 -0.820696
-0.779161 -0.002778 0.495509
0.083327 0.03297 -0.78926
-0.777665 -0.011172 0.501635
0.196577 0.045163 -0.780389
-0.788578 0.020416 0.485216
0.077173 -0.126465 -0.82489
-0.193874 -0.152424 -0.84109
-0.180515 -0.129894 -0.820491
-0.793225 0.063114 0.500019
0.078931 0.042762 -0.840975
-0.812794 0.023308 0.496875
-0.7861 0.063634 0.49271
-0.828032 0.048099 0.506174
-0.802939 0.015725 0.511052
-0.199171 -0.002776 -0.893317
-0.203086 -0.073677 -0.880305
0.193943 -0.133006 -0.842155
-0.08288 -0.193437 -0.833152
-0.842352 0.011942 0.49799
0.079492 -0.011005 -0.86822
0.189411 -0.204006 -0.842936
0.09089 -0.241575 -0.852433
-0.807951 0.010298 0.492145
-0.080232 -0.057667 -0.849421
0.069467 -0.143358 -0.844028
0.080682 -0.185468 -0.83143
-0.188593 -0.226159 -0.837477
0.205323 0.043347 -0.883011
-0.091104 0.048763 -0.827314
-0.814156 0.03668 0.491585
0.196537 -0.018326 -0.87281
-0.204134 -0.107717 -0.872347
0.201508 -0.089065 -0.856384
0.075523 -0.085545 -0.864999
-0.090787 -0.241548 -0.868103
-0.082928 -0.027833 -0.868637
-0.121147 -0.255751 -0.864301
-0.831262 0.030998 0.507693
-0.809092 0.049015 0.494793
0.187629 -0.244513 -0.87393
0.072659 -0.178517 -0.891175
0.095014 -0.015959 -0.89946
-0.083224 -0.077614 -0.880523
0.200921 -0.098058 -0.893572
-0.196191 -0.17894 -0.884774
0.194164 -0.173043 -0.888145
-0.162714 -0.245284 -0.886694
-0.854648 0.034477 0.499796
-0.189774 0.053445 -0.901733
-0.088178 0.043522 -0.900847
-0.080316 0.030537 -0.880102
-0.20402 0.04866 -0.890661
-0.188614 -0.030099 -0.888462
-0.197976 -0.102085 -0.901911
3 554 577 564 40 176 204
3 564 577 551 40 176 204
3 551 577 78 40 176 204
3 78 577 80 242 221 72
3 80 577 554 40 176 204
3 80 554 580 242 221 72
3 580 554 585 242 221 72
3 585 554 566 242 221 72
3 566 554 567 40 176 204
3 567 554 564 40 176 204
3 567 564 579 40 176 204
3 579 564 572 40 176 204
3 572 564 545 40 176 204
3 545 564 551 40 176 204
3 545 551 536 40 176 204
3 536 551 540 40 176 204
3 540 551 521 40 176 204
3 521 551 573 40 176 204
3 573 551 78 40 176 204
3 573 78 80 40 176 204
3 573 80 563 242 221 72
3 563 80 580 242 221 72
3 563 580 591 242 221 72
3 591 580 596 242 221 72
3 596 580 615 242 221 72
3 615 580 608 242 221 72
3 608 580 585 242 221 72
3 608 585 610 242 221 72
3 610 585 590 242 221 72
3 590 585 566 242 221 72
3 590 566 581 242 221 72
3 581 566 546 242 221 72
3 546 566 567 40 176 204
3 546 567 552 40 176 204
3 552 567 568 40 176 204
3 568 567 579 40 176 204
3 568 579 572 40 176 204
3 568 572 542 40 176 204
3 542 572 545 40 176 204
3 542 545 539 40 176 204
3 539 545 519 40 176 204
3 519 545 516 40 176 204
3 516 545 536 40 176 204
3 516 536 509 40 176 204
3 509 536 540 40 176 204
3 509 540 487 40 176 204
3 487 540 521 40 176 204
3 487 521 479 40 176 204
3 479 521 525 40 176 204
3 525 521 574 40 176 204
3 574 521 573 40 176 204
3 574 573 563 242 221 72
3 574 563 571 242 221 72
3 571 563 83 242 221 72
3 83 563 591 242 221 72
3 83 591 576 242 221 72
3 576 591 605 242 221 72
3 605 591 597 242 221 72
3 597 591 596 242 221 72
3 597 596 614 242 221 72
3 614 596 615 242 221 72
3 614 615 635 242 221 72
3 635 615 608 242 221 72
3 635 608 620 127 20 204
3 620 608 610 242 221 72
3 620 610 644 127 20 204
3 644 610 631 127 20 204
3 631 610 632 127 20 204
3 632 610 602 242 221 72
3 602 610 590 242 221 72
3 602 590 581 242 221 72
3 602 581 600 242 221 72
3 600 581 576 242 221 72
3 576 581 556 242 221 72
3 556 581 546 242 221 72
3 556 546 548 40 176 204
3 548 546 552 40 176 204
3 548 552 555 40 176 204
3 555 552 568 40 176 204
3 555 568 102 40 176 204
3 102 568 542 40 176 204
3 102 542 523 40 176 204
3 523 542 539 40 176 204
3 523 539 105 40 176 204
3 105 539 519 40 176 204
3 105 519 500 40 176 204
3 500 519 480 40 176 204
3 480 519 455 40 176 204
3 455 519 516 40 176 204
3 455 516 425 40 176 204
3 425 516 509 40 176 204
3 425 509 441 40 176 204
3 441 509 487 40 176 204
3 441 487 394 40 176 204
3 394 487 466 40 176 204
3 466 487 479 40 176 204
3 466 479 424 40 176 204
3 424 479 525 40 176 204
3 424 525 531 40 176 204
3 531 525 565 40 176 204
3 565 525 586 40 176 204
3 586 525 574 40 176 204
3 586 574 571 40 176 204
3 586 571 578 242 221 72
3 578 571 83 242 221 72
3 578 83 556 242 221 72
3 556 83 576 242 221 72
3 578 556 557 40 176 204
3 557 556 548 40 176 204
3 557 548 569 40 176 204
3 569 548 555 40 176 204
3 569 555 102 40 176 204
3 569 102 561 40 176 204
3 561 102 523 40 176 204
3 561 523 533 40 176 204
3 533 523 105 40 176 204
3 533 105 104 40 176 204
3 104 105 106 40 176 204
3 106 105 115 40 176 204
3 115 105 500 40 176 204
3 115 500 125 40 176 204
3 125 500 468 40 176 204
3 468 500 480 40 176 204
3 468 480 409 40 176 204
3 409 480 273 40 176 204
3 273 480 408 40 176 204
3 408 480 455 40 176 204
3 408 455 425 40 176 204
3 408 425 305 40 176 204
3 305 425 355 40 176 204
3 355 425 441 40 176 204
3 355 441 372 40 176 204
3 372 441 394 40 176 204
3 372 394 383 40 176 204
3 383 394 466 40 176 204
3 383 466 398 40 176 204
3 398 466 424 40 176 204
3 398 424 364 40 176 204
3 364 424 467 40 176 204
3 467 424 531 40 176 204
3 467 531 520 40 176 204
3 520 531 565 40 176 204
3 520 565 558 40 176 204
3 558 565 578 40 176 204
3 578 565 586 40 176 204
3 558 578 583 40 176 204
3 583 578 557 40 176 204
3 583 557 569 40 176 204
3 583 569 549 40 176 204
3 549 569 561 40 176 204
3 549 561 103 40 176 204
3 103 561 533 40 176 204
3 103 533 104 40 176 204
3 103 104 493 40 176 204
3 493 104 111 40 176 204
3 111 104 106 40 176 204
3 111 106 132 40 176 204
3 132 106 125 40 176 204
3 125 106 115 40 176 204
3 132 125 164 40 176 204
3 164 125 160 40 176 204
3 160 125 468 40 176 204
3 160 468 431 40 176 204
3 431 468 409 40 176 204
3 431 409 410 40 176 204
3 410 409 277 40 176 204
3 277 409 273 40 176 204
3 277 273 258 40 176 204
3 258 273 234 40 176 204
3 234 273 408 40 176 204
3 234 408 183 40 176 204
3 183 408 224 40 176 204
3 224 408 305 40 176 204
3 224 305 72 40 176 204
3 72 305 355 40 176 204
3 72 355 313 40 176 204
3 313 355 343 40 176 204
3 343 355 372 40 176 204
3 343 372 51 204 61 61
3 51 372 383 204 61 61
3 51 383 58 204 61 61
3 58 383 60 204 61 61
3 60 383 398 204 61 61
3 60 398 64 204 61 61
3 64 398 364 40 176 204
3 64 364 352 204 61 61
3 352 364 328 40 176 204
3 328 364 389 40 176 204
3 389 364 467 40 176 204
3 389 467 384 40 176 204
3 384 467 481 40 176 204
3 481 467 493 40 176 204
3 493 467 520 40 176 204
3 493 520 103 40 176 204
3 103 520 549 40 176 204
3 549 520 558 40 176 204
3 549 558 583 40 176 204
3 481 493 111 40 176 204
3 481 111 469 40 176 204
3 469 111 482 40 176 204
3 482 111 128 40 176 204
3 128 111 132 40 176 204
3 128 132 494 40 176 204
3 494 132 196 40 176 204
3 196 132 164 40 176 204
3 196 164 160 40 176 204
3 196 160 475 40 176 204
3 475 160 445 40 176 204
3 445 160 431 40 176 204
3 445 431 410 40 176 204
3 445 410 432 40 176 204
3 432 410 315 40 176 204
3 315 410 235 40 176 204
3 235 410 277 40 176 204
3 235 277 214 40 176 204
3 214 277 218 40 176 204
3 218 277 167 40 176 204
3 167 277 258 40 176 204
3 167 258 208 40 176 204
3 208 258 234 40 176 204
3 208 234 114 40 176 204
3 114 234 183 40 176 204
3 114 183 108 40 176 204
3 108 183 162 40 176 204
3 162 183 159 40 176 204
3 159 183 224 40 176 204
3 159 224 192 40 176 204
3 192 224 72 40 176 204
3 192 72 178 40 176 204
3 178 72 284 40 176 204
3 284 72 313 40 176 204
3 284 313 66 40 176 204
3 66 313 302 40 176 204
3 302 313 59 204 61 61
3 59 313 54 204 61 61
3 54 313 343 204 61 61
3 54 343 50 204 61 61
3 50 343 51 204 61 61
3 50 51 45 204 61 61
3 45 51 25 204 61 61
3 25 51 58 204 61 61
3 25 58 46 204 61 61
3 46 58 60 204 61 61
3 46 60 44 204 61 61
3 44 60 387 204 61 61
3 387 60 351 204 61 61
3 351 60 64 204 61 61
3 351 64 352 204 61 61
3 351 352 336 204 61 61
3 336 352 314 204 61 61
3 314 352 328 204 61 61
3 314 328 291 204 61 61
3 291 328 71 40 176 204
3 71 328 174 40 176 204
3 174 328 299 40 176 204
3 299 328 369 40 176 204
3 369 328 389 40 176 204
3 369 389 384 40 176 204
3 369 384 353 40 176 204
3 353 384 447 40 176 204
3 447 384 469 40 176 204
3 469 384 481 40 176 204
3 447 469 420 40 176 204
3 420 469 173 40 176 204
3 173 469 482 40 176 204
3 173 482 128 40 176 204
3 173 128 494 40 176 204
3 173 494 206 40 176 204
3 206 494 281 40 176 204
3 281 494 253 40 176 204
3 253 494 475 40 176 204
3 475 494 196 40 176 204
3 253 475 301 40 176 204
3 301 475 483 40 176 204
3 483 475 445 40 176 204
3 483 445 432 40 176 204
3 483 432 451 40 176 204
3 451 432 390 40 176 204
3 390 432 374 40 176 204
3 374 432 315 40 176 204
3 374 315 316 40 176 204
3 316 315 235 40 176 204
3 316 235 280 40 176 204
3 280 235 214 40 176 204
3 280 214 195 40 176 204
3 195 214 307 40 176 204
3 307 214 240 40 176 204
3 240 214 218 40 176 204
3 240 218 169 40 176 204
3 169 218 133 40 176 204
3 133 218 130 40 176 204
3 130 218 167 40 176 204
3 130 167 208 40 176 204
3 130 208 114 40 176 204
3 130 114 127 40 176 204
3 127 114 108 40 176 204
3 127 108 170 40 176 204
3 170 108 172 40 176 204
3 172 108 162 40 176 204
3 172 162 168 40 176 204
3 168 162 152 40 176 204
3 152 162 135 40 176 204
3 135 162 159 40 176 204
3 135 159 76 40 176 204
3 76 159 192 40 176 204
3 76 192 178 40 176 204
3 76 178 163 40 176 204
3 163 178 239 40 176 204
3 239 178 66 40 176 204
3 66 178 284 40 176 204
3 239 66 266 40 176 204
3 266 66 287 40 176 204
3 287 66 302 204 61 61
3 287 302 49 204 61 61
3 49 302 59 204 61 61
3 49 59 286 204 61 61
3 286 59 42 204 61 61
3 42 59 54 204 61 61
3 42 54 334 204 61 61
3 334 54 45 204 61 61
3 45 54 50 204 61 61
3 334 45 338 204 61 61
3 338 45 22 204 61 61
3 22 45 25 204 61 61
3 22 25 400 204 61 61
3 400 25 46 204 61 61
3 400 46 26 204 61 61
3 26 46 31 204 61 61
3 31 46 44 204 61 61
3 31 44 401 204 61 61
3 401 44 382 204 61 61
3 382 44 387 204 61 61
3 382 387 363 204 61 61
3 363 387 351 204 61 61
3 363 351 350 204 61 61
3 350 351 336 204 61 61
3 350 336 57 204 61 61
3 57 336 56 204 61 61
3 56 336 314 204 61 61
3 56 314 62 204 61 61
3 62 314 291 204 61 61
3 62 291 287 204 61 61
3 287 291 266 204 61 61
3 266 291 191 40 176 204
3 191 291 71 40 176 204
3 191 71 166 40 176 204
3 166 71 174 40 176 204
3 166 174 154 40 176 204
3 154 174 155 40 176 204
3 155 174 176 40 176 204
3 176 174 207 40 176 204
3 207 174 299 40 176 204
3 207 299 225 40 176 204
3 225 299 243 40 176 204
3 243 299 353 40 176 204
3 353 299 369 40 176 204
3 243 353 309 40 176 204
3 309 353 329 40 176 204
3 329 353 411 40 176 204
3 411 353 420 40 176 204
3 420 353 447 40 176 204
3 411 420 448 40 176 204
3 448 420 175 40 176 204
3 175 420 173 40 176 204
3 175 173 206 40 176 204
3 175 206 303 40 176 204
3 303 206 274 40 176 204
3 274 206 281 40 176 204
3 274 281 511 40 176 204
3 511 281 253 40 176 204
3 511 253 504 40 176 204
3 504 253 301 40 176 204
3 504 301 502 40 176 204
3 502 301 483 40 176 204
3 502 483 451 40 176 204
3 502 451 456 40 176 204
3 456 451 379 40 176 204
3 379 451 390 40 176 204
3 379 390 378 40 176 204
3 378 390 344 40 176 204
3 344 390 374 40 176 204
3 344 374 316 40 176 204
3 344 316 231 40 176 204
3 231 316 280 40 176 204
3 231 280 195 40 176 204
3 231 195 215 40 176 204
3 215 195 324 40 176 204
3 324 195 307 40 176 204
3 324 307 186 40 176 204
3 186 307 285 40 176 204
3 285 307 240 40 176 204
3 285 240 177 40 176 204
3 177 240 169 40 176 204
3 177 169 232 40 176 204
3 232 169 199 40 176 204
3 199 169 133 40 176 204
3 199 133 209 40 176 204
3 209 133 112 40 176 204
3 112 133 127 40 176 204
3 127 133 130 40 176 204
3 112 127 170 40 176 204
3 112 170 176 40 176 204
3 176 170 171 242 221 72
3 171 170 158 40 176 204
3 158 170 168 40 176 204
3 168 170 172 40 176 204
3 158 168 156 40 176 204
3 156 168 152 40 176 204
3 156 152 150 40 176 204
3 150 152 143 40 176 204
3 143 152 135 40 176 204
3 143 135 129 40 176 204
3 129 135 146 40 176 204
3 146 135 76 40 176 204
3 146 76 131 40 176 204
3 131 76 163 40 176 204
3 131 163 161 40 176 204
3 161 163 239 40 176 204
3 161 239 166 40 176 204
3 166 239 191 40 176 204
3 191 239 266 40 176 204
3 161 166 154 40 176 204
3 161 154 124 40 176 204
3 124 154 137 40 176 204
3 137 154 155 40 176 204
3 137 155 171 242 221 72
3 171 155 176 242 221 72
3 137 171 145 40 176 204
3 145 171 158 40 176 204
3 145 158 138 40 176 204
3 138 158 144 40 176 204
3 144 158 156 40 176 204
3 144 156 150 40 176 204
3 144 150 96 40 176 204
3 96 150 143 40 176 204
3 96 143 149 40 176 204
3 149 143 129 40 176 204
3 149 129 146 242 221 72
3 149 146 140 242 221 72
3 140 146 131 242 221 72
3 140 131 122 242 221 72
3 122 131 0 242 221 72
3 0 131 121 40 176 204
3 121 131 157 40 176 204
3 157 131 161 40 176 204
3 157 161 124 40 176 204
3 157 124 79 242 221 72
3 79 124 119 242 221 72
3 119 124 120 242 221 72
3 120 124 137 40 176 204
3 120 137 138 40 176 204
3 138 137 145 40 176 204
3 120 138 142 40 176 204
3 142 138 98 40 176 204
3 98 138 153 40 176 204
3 153 138 144 40 176 204
3 153 144 96 40 176 204
3 153 96 95 40 176 204
3 95 96 149 40 176 204
3 95 149 141 242 221 72
3 141 149 134 242 221 72
3 134 149 140 242 221 72
3 134 140 126 242 221 72
3 126 140 147 242 221 72
3 147 140 139 242 221 72
3 139 140 122 242 221 72
3 139 122 0 242 221 72
3 139 0 79 242 221 72
3 79 0 121 242 221 72
3 79 121 157 242 221 72
3 139 79 119 242 221 72
3 139 119 148 242 221 72
3 148 119 142 242 221 72
3 142 119 120 242 221 72
3 148 142 92 40 176 204
3 92 142 98 40 176 204
3 92 98 95 40 176 204
3 95 98 153 40 176 204
3 92 95 151 242 221 72
3 151 95 141 242 221 72
3 151 141 109 242 221 72
3 109 141 117 242 221 72
3 117 141 134 242 221 72
3 117 134 110 242 221 72
3 110 134 123 242 221 72
3 123 134 126 242 221 72
3 123 126 99 242 221 72
3 99 126 100 127 20 204
3 100 126 118 242 221 72
3 118 126 147 242 221 72
3 118 147 148 242 221 72
3 148 147 139 242 221 72
3 118 148 116 242 221 72
3 116 148 92 242 221 72
3 116 92 136 242 221 72
3 136 92 151 242 221 72
3 136 151 109 242 221 72
3 136 109 97 242 221 72
3 97 109 88 242 221 72
3 88 109 117 242 221 72
3 88 117 110 242 221 72
3 88 110 90 127 20 204
3 90 110 89 127 20 204
3 89 110 99 127 20 204
3 99 110 123 242 221 72
3 89 99 81 127 20 204
3 81 99 82 127 20 204
3 82 99 100 127 20 204
3 82 100 94 127 20 204
3 94 100 107 127 20 204
3 107 100 118 127 20 204
3 107 118 116 242 221 72
3 107 116 101 242 221 72
3 101 116 113 242 221 72
3 113 116 136 242 221 72
3 113 136 97 242 221 72
3 113 97 93 127 20 204
3 93 97 91 127 20 204
3 91 97 88 127 20 204
3 91 88 69 127 20 204
3 69 88 90 127 20 204
3 69 90 65 127 20 204
3 65 90 73 127 20 204
3 73 90 89 127 20 204
3 73 89 74 127 20 204
3 74 89 81 127 20 204
3 74 81 70 127 20 204
3 70 81 82 127 20 204
3 70 82 84 127 20 204
3 84 82 94 127 20 204
3 84 94 75 127 20 204
3 75 94 77 127 20 204
3 77 94 93 127 20 204
3 93 94 101 127 20 204
3 101 94 107 127 20 204
3 93 101 113 127 20 204
3 77 93 91 127 20 204
3 77 91 69 127 20 204
3 77 69 67 127 20 204
3 67 69 68 127 20 204
3 68 69 65 127 20 204
3 68 65 61 127 20 204
3 61 65 55 127 20 204
3 55 65 73 127 20 204
3 55 73 74 127 20 204
3 55 74 85 127 20 204
3 85 74 70 127 20 204
3 85 70 39 127 20 204
3 39 70 47 127 20 204
3 47 70 63 127 20 204
3 63 70 84 127 20 204
3 63 84 75 127 20 204
3 63 75 67 127 20 204
3 67 75 77 127 20 204
3 63 67 53 127 20 204
3 53 67 68 127 20 204
3 53 68 61 48 242 105
3 53 61 48 48 242 105
3 48 61 55 48 242 105
3 48 55 87 48 242 105
3 87 55 30 48 242 105
3 30 55 52 48 242 105
3 52 55 39 48 242 105
3 39 55 85 48 242 105
3 52 39 37 48 242 105
3 37 39 34 48 242 105
3 34 39 47 48 242 105
3 34 47 33 48 242 105
3 33 47 43 48 242 105
3 43 47 53 48 242 105
3 53 47 63 127 20 204
3 43 53 48 48 242 105
3 43 48 41 48 242 105
3 41 48 38 48 242 105
3 38 48 87 48 242 105
3 38 87 33 48 242 105
3 33 87 32 48 242 105
3 32 87 28 48 242 105
3 28 87 18 48 242 105
3 18 87 36 48 242 105
3 36 87 30 48 242 105
3 36 30 37 48 242 105
3 37 30 52 48 242 105
3 36 37 34 48 242 105
3 36 34 14 48 242 105
3 14 34 21 48 242 105
3 21 34 27 48 242 105
3 27 34 33 48 242 105
3 27 33 32 48 242 105
3 27 32 15 48 242 105
3 15 32 28 48 242 105
3 15 28 27 48 242 105
3 27 28 21 48 242 105
3 21 28 18 48 242 105
3 21 18 14 48 242 105
3 14 18 36 48 242 105
3 38 33 43 48 242 105
3 38 43 35 48 242 105
3 35 43 41 48 242 105
3 35 41 38 48 242 105
3 112 176 207 40 176 204
3 112 207 209 40 176 204
3 209 207 225 40 176 204
3 209 225 165 40 176 204
3 165 225 210 40 176 204
3 210 225 243 40 176 204
3 210 243 264 40 176 204
3 264 243 309 40 176 204
3 264 309 329 40 176 204
3 264 329 250 40 176 204
3 250 329 377 40 176 204
3 377 329 411 40 176 204
3 377 411 413 40 176 204
3 413 411 490 40 176 204
3 490 411 448 40 176 204
3 490 448 175 40 176 204
3 490 175 303 40 176 204
3 490 303 498 40 176 204
3 498 303 274 40 176 204
3 498 274 511 40 176 204
3 498 511 484 242 24 142
3 484 511 386 242 24 142
3 386 511 461 242 24 142
3 461 511 323 242 24 142
3 323 511 504 40 176 204
3 323 504 502 40 176 204
3 323 502 456 40 176 204
3 323 456 402 242 24 142
3 402 456 440 242 24 142
3 440 456 379 242 24 142
3 440 379 373 40 176 204
3 373 379 378 40 176 204
3 373 378 283 40 176 204
3 283 378 300 40 176 204
3 300 378 344 40 176 204
3 300 344 231 40 176 204
3 300 231 215 40 176 204
3 300 215 283 40 176 204
3 283 215 202 242 24 142
3 202 215 201 242 24 142
3 201 215 324 40 176 204
3 201 324 356 40 176 204
3 356 324 186 40 176 204
3 356 186 187 40 176 204
3 187 186 285 40 176 204
3 187 285 177 40 176 204
3 187 177 181 40 176 204
3 181 177 232 40 176 204
3 181 232 295 40 176 204
3 295 232 210 40 176 204
3 210 232 165 40 176 204
3 165 232 199 40 176 204
3 165 199 209 40 176 204
3 295 210 264 40 176 204
3 295 264 250 40 176 204
3 295 250 259 40 176 204
3 259 250 321 40 176 204
3 321 250 377 40 176 204
3 321 377 399 40 176 204
3 399 377 320 40 176 204
3 320 377 413 40 176 204
3 320 413 490 40 176 204
3 320 490 473 40 176 204
3 473 490 498 40 176 204
3 473 498 359 40 176 204
3 359 498 484 242 24 142
3 359 484 522 242 24 142
3 522 484 534 242 24 142
3 534 484 386 242 24 142
3 534 386 507 242 24 142
3 507 386 526 242 24 142
3 526 386 461 242 24 142
3 526 461 434 242 24 142
3 434 461 402 242 24 142
3 402 461 323 242 24 142
3 434 402 485 242 24 142
3 485 402 440 242 24 142
3 485 440 450 242 24 142
3 450 440 391 242 24 142
3 391 440 373 242 24 142
3 391 373 335 40 176 204
3 335 373 278 40 176 204
3 278 373 283 242 24 142
3 278 283 202 242 24 142
3 278 202 261 242 24 142
3 261 202 219 242 24 142
3 219 202 193 242 24 142
3 193 202 201 242 24 142
3 193 201 356 242 24 142
3 193 356 405 242 24 142
3 405 356 442 242 24 142
3 442 356 462 242 24 142
3 462 356 341 242 24 142
3 341 356 187 40 176 204
3 341 187 332 40 176 204
3 332 187 181 40 176 204
3 332 181 236 40 176 204
3 236 181 295 40 176 204
3 236 295 259 40 176 204
3 236 259 260 40 176 204
3 260 259 321 40 176 204
3 260 321 380 40 176 204
3 380 321 399 40 176 204
3 380 399 421 40 176 204
3 421 399 320 40 176 204
3 421 320 473 40 176 204
3 421 473 449 40 176 204
3 449 473 359 242 24 142
3 449 359 422 242 24 142
3 422 359 522 242 24 142
3 422 522 453 242 24 142
3 453 522 476 242 24 142
3 476 522 534 242 24 142
3 476 534 550 242 24 142
3 550 534 507 242 24 142
3 550 507 582 242 24 142
3 582 507 526 242 24 142
3 582 526 538 242 24 142
3 538 526 524 242 24 142
3 524 526 503 242 24 142
3 503 526 434 242 24 142
3 503 434 485 242 24 142
3 503 485 486 242 24 142
3 486 485 450 242 24 142
3 486 450 457 242 24 142
3 457 450 532 242 24 142
3 532 450 391 242 24 142
3 532 391 505 242 24 142
3 505 391 370 242 24 142
3 370 391 459 40 176 204
3 459 391 335 40 176 204
3 459 335 471 242 24 142
3 471 335 278 242 24 142
3 471 278 261 242 24 142
3 471 261 251 242 24 142
3 251 261 219 242 24 142
3 251 219 211 242 24 142
3 211 219 194 242 24 142
3 194 219 508 242 24 142
3 508 219 193 242 24 142
3 508 193 405 242 24 142
3 508 405 510 242 24 142
3 510 405 442 242 24 142
3 510 442 547 242 24 142
3 547 442 562 242 24 142
3 562 442 462 242 24 142
3 562 462 203 242 24 142
3 203 462 226 242 24 142
3 226 462 341 242 24 142
3 226 341 216 242 24 142
3 216 341 236 242 24 142
3 236 341 332 40 176 204
3 216 236 260 40 176 204
3 216 260 354 242 24 142
3 354 260 380 40 176 204
3 354 380 421 40 176 204
3 354 421 449 242 24 142
3 354 449 422 242 24 142
3 354 422 385 242 24 142
3 385 422 433 242 24 142
3 433 422 453 242 24 142
3 433 453 446 242 24 142
3 446 453 476 242 24 142
3 446 476 624 242 24 142
3 624 476 550 242 24 142
3 624 550 619 96 204 61
3 619 550 589 96 204 61
3 589 550 582 242 24 142
3 589 582 538 242 24 142
3 589 538 501 242 24 142
3 501 538 559 242 24 142
3 559 538 524 242 24 142
3 559 524 528 242 24 142
3 528 524 503 242 24 142
3 528 503 486 242 24 142
3 528 486 559 242 24 142
3 559 486 457 242 24 142
3 559 457 477 242 24 142
3 477 457 593 242 24 142
3 593 457 532 242 24 142
3 593 532 560 242 24 142
3 560 532 529 242 24 142
3 529 532 505 242 24 142
3 529 505 506 242 24 142
3 506 505 472 242 24 142
3 472 505 370 242 24 142
3 472 370 459 40 176 204
3 472 459 345 40 176 204
3 345 459 488 40 176 204
3 488 459 460 242 24 142
3 460 459 471 242 24 142
3 460 471 518 242 24 142
3 518 471 543 242 24 142
3 543 471 251 242 24 142
3 543 251 553 242 24 142
3 553 251 238 242 24 142
3 238 251 211 242 24 142
3 238 211 595 242 24 142
3 595 211 194 242 24 142
3 595 194 587 242 24 142
3 587 194 537 242 24 142
3 537 194 508 242 24 142
3 537 508 510 242 24 142
3 537 510 587 242 24 142
3 587 510 547 242 24 142
3 587 547 599 242 24 142
3 599 547 612 242 24 142
3 612 547 562 242 24 142
3 612 562 623 242 24 142
3 623 562 604 242 24 142
3 604 562 588 242 24 142
3 588 562 203 242 24 142
3 588 203 237 242 24 142
3 237 203 226 242 24 142
3 237 226 265 242 24 142
3 265 226 216 242 24 142
3 265 216 354 242 24 142
3 265 354 306 242 24 142
3 306 354 361 242 24 142
3 361 354 385 242 24 142
3 361 385 492 242 24 142
3 492 385 497 242 24 142
3 497 385 535 242 24 142
3 535 385 412 242 24 142
3 412 385 433 242 24 142
3 412 433 446 242 24 142
3 412 446 601 242 24 142
3 601 446 470 96 204 61
3 470 446 624 96 204 61
3 470 624 643 96 204 61
3 643 624 642 96 204 61
3 642 624 619 96 204 61
3 642 619 589 96 204 61
3 642 589 634 96 204 61
3 634 589 611 96 204 61
3 611 589 501 96 204 61
3 611 501 613 96 204 61
3 613 501 477 96 204 61
3 477 501 559 242 24 142
3 613 477 458 96 204 61
3 458 477 622 96 204 61
3 622 477 593 96 204 61
3 622 593 560 96 204 61
3 622 560 626 96 204 61
3 626 560 575 96 204 61
3 575 560 529 242 24 142
3 575 529 607 242 24 142
3 607 529 530 242 24 142
3 530 529 506 242 24 142
3 530 506 497 242 24 142
3 497 506 492 242 24 142
3 492 506 361 40 176 204
3 361 506 345 40 176 204
3 345 506 472 40 176 204
3 361 345 330 40 176 204
3 330 345 488 242 24 142
3 330 488 496 242 24 142
3 496 488 331 242 24 142
3 331 488 460 242 24 142
3 331 460 518 242 24 142
3 331 518 544 242 24 142
3 544 518 543 242 24 142
3 544 543 553 242 24 142
3 544 553 606 242 24 142
3 606 553 603 96 204 61
3 603 553 217 96 204 61
3 217 553 238 242 24 142
3 217 238 204 96 204 61
3 204 238 595 242 24 142
3 204 595 609 96 204 61
3 609 595 592 96 204 61
3 592 595 587 242 24 142
3 592 587 599 242 24 142
3 592 599 609 96 204 61
3 609 599 625 96 204 61
3 625 599 629 96 204 61
3 629 599 612 96 204 61
3 629 612 633 96 204 61
3 633 612 623 96 204 61
3 633 623 604 96 204 61
3 633 604 650 96 204 61
3 650 604 227 96 204 61
3 227 604 244 96 204 61
3 244 604 588 96 204 61
3 244 588 276 242 24 142
3 276 588 237 242 24 142
3 276 237 541 242 24 142
3 541 237 279 242 24 142
3 279 237 265 242 24 142
3 279 265 306 242 24 142
3 279 306 292 242 24 142
3 292 306 330 242 24 142
3 330 306 361 242 24 142
3 292 330 527 242 24 142
3 527 330 496 242 24 142
3 527 496 331 242 24 142
3 527 331 544 242 24 142
3 527 544 598 242 24 142
3 598 544 606 242 24 142
3 598 606 637 96 204 61
3 637 606 641 96 204 61
3 641 606 603 96 204 61
3 641 603 245 96 204 61
3 245 603 228 96 204 61
3 228 603 204 96 204 61
3 204 603 217 96 204 61
3 228 204 197 96 204 61
3 197 204 625 96 204 61
3 625 204 609 96 204 61
3 197 625 185 96 204 61
3 185 625 629 96 204 61
3 185 629 654 96 204 61
3 654 629 633 96 204 61
3 654 633 659 96 204 61
3 659 633 650 96 204 61
3 659 650 657 96 204 61
3 657 650 676 96 204 61
3 676 650 229 96 204 61
3 229 650 246 96 204 61
3 246 650 227 96 204 61
3 246 227 244 96 204 61
3 246 244 256 96 204 61
3 256 244 276 242 24 142
3 256 276 541 242 24 142
3 256 541 570 242 24 142
3 570 541 292 242 24 142
3 292 541 279 242 24 142
3 570 292 527 242 24 142
3 570 527 584 242 24 142
3 584 527 598 242 24 142
3 584 598 637 96 204 61
3 584 637 630 96 204 61
3 630 637 647 96 204 61
3 647 637 641 96 204 61
3 647 641 666 96 204 61
3 666 641 658 96 204 61
3 658 641 257 96 204 61
3 257 641 245 96 204 61
3 257 245 228 96 204 61
3 257 228 221 96 204 61
3 221 228 197 96 204 61
3 221 197 212 96 204 61
3 212 197 185 96 204 61
3 212 185 652 96 204 61
3 652 185 654 96 204 61
3 652 654 659 96 204 61
3 652 659 681 96 204 61
3 681 659 657 96 204 61
3 681 657 684 96 204 61
3 684 657 676 96 204 61
3 684 676 690 96 204 61
3 690 676 213 96 204 61
3 213 676 247 96 204 61
3 247 676 229 96 204 61
3 247 229 255 96 204 61
3 255 229 252 96 204 61
3 252 229 246 96 204 61
3 252 246 630 96 204 61
3 630 246 275 96 204 61
3 275 246 256 96 204 61
3 275 256 584 242 24 142
3 584 256 570 242 24 142
3 275 584 630 96 204 61
3 252 630 647 96 204 61
3 252 647 255 96 204 61
3 255 647 666 96 204 61
3 255 666 683 96 204 61
3 683 666 658 96 204 61
3 683 658 699 96 204 61
3 699 658 685 96 204 61
3 685 658 262 96 204 61
3 262 658 257 96 204 61
3 262 257 221 96 204 61
3 262 221 212 96 204 61
3 262 212 222 96 204 61
3 222 212 701 96 204 61
3 701 212 673 96 204 61
3 673 212 652 96 204 61
3 673 652 681 96 204 61
3 673 681 701 96 204 61
3 701 681 694 96 204 61
3 694 681 684 96 204 61
3 694 684 728 56 48 242
3 728 684 730 56 48 242
3 730 684 690 56 48 242
3 730 690 714 56 48 242
3 714 690 188 56 48 242
3 188 690 230 56 48 242
3 230 690 213 96 204 61
3 230 213 248 96 204 61
3 248 213 247 96 204 61
3 248 247 686 96 204 61
3 686 247 683 96 204 61
3 683 247 255 96 204 61
3 686 683 691 96 204 61
3 691 683 699 96 204 61
3 691 699 717 56 48 242
3 717 699 707 56 48 242
3 707 699 685 56 48 242
3 707 685 241 56 48 242
3 241 685 262 96 204 61
3 241 262 222 96 204 61
3 241 222 182 56 48 242
3 182 222 701 96 204 61
3 182 701 725 56 48 242
3 725 701 694 96 204 61
3 725 694 728 56 48 242
3 725 728 179 56 48 242
3 179 728 180 56 48 242
3 180 728 741 56 48 242
3 741 728 730 56 48 242
3 741 730 743 56 48 242
3 743 730 714 56 48 242
3 743 714 718 56 48 242
3 718 714 188 56 48 242
3 718 188 190 56 48 242
3 190 188 242 56 48 242
3 242 188 723 56 48 242
3 723 188 249 56 48 242
3 249 188 230 56 48 242
3 249 230 248 56 48 242
3 249 248 686 96 204 61
3 249 686 703 56 48 242
3 703 686 691 56 48 242
3 703 691 731 56 48 242
3 731 691 717 56 48 242
3 731 717 254 56 48 242
3 254 717 739 56 48 242
3 739 717 263 56 48 242
3 263 717 707 56 48 242
3 263 707 269 56 48 242
3 269 707 241 56 48 242
3 269 241 182 56 48 242
3 269 182 205 56 48 242
3 205 182 184 56 48 242
3 184 182 725 56 48 242
3 184 725 179 56 48 242
3 184 179 220 56 48 242
3 220 179 739 56 48 242
3 739 179 254 56 48 242
3 254 179 180 56 48 242
3 254 180 200 56 48 242
3 200 180 741 56 48 242
3 200 741 743 56 48 242
3 200 743 189 56 48 242
3 189 743 198 56 48 242
3 198 743 737 56 48 242
3 737 743 718 56 48 242
3 737 718 233 56 48 242
3 233 718 190 56 48 242
3 233 190 242 56 48 242
3 233 242 719 56 48 242
3 719 242 723 56 48 242
3 719 723 738 56 48 242
3 738 723 722 56 48 242
3 722 723 703 56 48 242
3 703 723 249 56 48 242
3 722 703 731 56 48 242
3 722 731 267 56 48 242
3 267 731 254 56 48 242
3 267 254 200 56 48 242
3 267 200 282 56 48 242
3 282 200 189 56 48 242
3 282 189 268 56 48 242
3 268 189 223 56 48 242
3 223 189 198 56 48 242
3 223 198 737 56 48 242
3 223 737 233 56 48 242
3 223 233 719 56 48 242
3 223 719 738 56 48 242
3 223 738 268 56 48 242
3 268 738 282 56 48 242
3 282 738 267 56 48 242
3 267 738 722 56 48 242
3 220 739 205 56 48 242
3 205 739 263 56 48 242
3 205 263 269 56 48 242
3 220 205 184 56 48 242
3 530 497 535 242 24 142
3 530 535 607 242 24 142
3 607 535 601 242 24 142
3 601 535 412 242 24 142
3 607 601 426 242 24 142
3 426 601 470 96 204 61
3 426 470 427 96 204 61
3 427 470 452 96 204 61
3 452 470 643 96 204 61
3 452 643 491 96 204 61
3 491 643 653 96 204 61
3 653 643 642 96 204 61
3 653 642 665 96 204 61
3 665 642 634 96 204 61
3 665 634 645 96 204 61
3 645 634 478 96 204 61
3 478 634 611 96 204 61
3 478 611 613 96 204 61
3 478 613 458 96 204 61
3 478 458 463 96 204 61
3 463 458 436 96 204 61
3 436 458 622 96 204 61
3 436 622 626 96 204 61
3 436 626 656 96 204 61
3 656 626 636 96 204 61
3 636 626 575 96 204 61
3 636 575 628 96 204 61
3 628 575 607 96 204 61
3 628 607 426 96 204 61
3 628 426 427 96 204 61
3 628 427 655 96 204 61
3 655 427 452 96 204 61
3 655 452 443 96 204 61
3 443 452 454 96 204 61
3 454 452 491 96 204 61
3 454 491 667 96 204 61
3 667 491 677 96 204 61
3 677 491 674 96 204 61
3 674 491 653 96 204 61
3 674 653 665 96 204 61
3 674 665 680 96 204 61
3 680 665 512 96 204 61
3 512 665 645 96 204 61
3 512 645 499 96 204 61
3 499 645 478 96 204 61
3 499 478 463 96 204 61
3 499 463 464 96 204 61
3 464 463 429 96 204 61
3 429 463 428 96 204 61
3 428 463 436 96 204 61
3 428 436 660 96 204 61
3 660 436 656 96 204 61
3 660 656 636 96 204 61
3 660 636 672 96 204 61
3 672 636 655 96 204 61
3 655 636 628 96 204 61
3 672 655 443 96 204 61
3 672 443 682 96 204 61
3 682 443 670 96 204 61
3 670 443 454 96 204 61
3 670 454 444 96 204 61
3 444 454 667 96 204 61
3 444 667 438 96 204 61
3 438 667 677 96 204 61
3 438 677 695 56 48 242
3 695 677 517 56 48 242
3 517 677 674 96 204 61
3 517 674 680 96 204 61
3 517 680 693 56 48 242
3 693 680 689 96 204 61
3 689 680 512 96 204 61
3 689 512 464 96 204 61
3 464 512 499 96 204 61
3 689 464 474 56 48 242
3 474 464 429 96 204 61
3 474 429 726 56 48 242
3 726 429 668 96 204 61
3 668 429 428 96 204 61
3 668 428 660 96 204 61
3 668 660 672 96 204 61
3 668 672 682 96 204 61
3 668 682 697 96 204 61
3 697 682 721 56 48 242
3 721 682 692 56 48 242
3 692 682 670 96 204 61
3 692 670 444 96 204 61
3 692 444 438 96 204 61
3 692 438 418 56 48 242
3 418 438 705 56 48 242
3 705 438 695 56 48 242
3 705 695 704 56 48 242
3 704 695 729 56 48 242
3 729 695 517 56 48 242
3 729 517 713 56 48 242
3 713 517 712 56 48 242
3 712 517 693 56 48 242
3 712 693 749 56 48 242
3 749 693 689 56 48 242
3 749 689 474 56 48 242
3 749 474 746 56 48 242
3 746 474 489 56 48 242
3 489 474 747 56 48 242
3 747 474 726 56 48 242
3 747 726 748 56 48 242
3 748 726 697 56 48 242
3 697 726 668 96 204 61
3 748 697 733 56 48 242
3 733 697 721 56 48 242
3 733 721 740 56 48 242
3 740 721 419 56 48 242
3 419 721 692 56 48 242
3 419 692 418 56 48 242
3 419 418 715 56 48 242
3 715 418 465 56 48 242
3 465 418 705 56 48 242
3 465 705 704 56 48 242
3 465 704 724 56 48 242
3 724 704 742 56 48 242
3 742 704 729 56 48 242
3 742 729 751 56 48 242
3 751 729 713 56 48 242
3 751 713 513 56 48 242
3 513 713 750 56 48 242
3 750 713 712 56 48 242
3 750 712 495 56 48 242
3 495 712 746 56 48 242
3 746 712 749 56 48 242
3 495 746 489 56 48 242
3 495 489 435 56 48 242
3 435 489 747 56 48 242
3 435 747 748 56 48 242
3 435 748 733 56 48 242
3 435 733 437 56 48 242
3 437 733 740 56 48 242
3 437 740 417 56 48 242
3 417 740 406 56 48 242
3 406 740 419 56 48 242
3 406 419 715 56 48 242
3 406 715 732 56 48 242
3 732 715 430 56 48 242
3 430 715 724 56 48 242
3 724 715 465 56 48 242
3 430 724 734 56 48 242
3 734 724 514 56 48 242
3 514 724 742 56 48 242
3 514 742 515 56 48 242
3 515 742 751 56 48 242
3 515 751 417 56 48 242
3 417 751 437 56 48 242
3 437 751 513 56 48 242
3 437 513 750 56 48 242
3 437 750 435 56 48 242
3 435 750 495 56 48 242
3 515 417 439 56 48 242
3 439 417 406 56 48 242
3 439 406 423 56 48 242
3 423 406 732 56 48 242
3 423 732 734 56 48 242
3 734 732 430 56 48 242
3 423 734 744 56 48 242
3 744 734 514 56 48 242
3 744 514 515 56 48 242
3 744 515 439 56 48 242
3 744 439 423 56 48 242
3 62 287 49 204 61 61
3 62 49 56 204 61 61
3 56 49 298 204 61 61
3 298 49 42 204 61 61
3 42 49 286 204 61 61
3 298 42 40 204 61 61
3 40 42 23 204 61 61
3 23 42 29 204 61 61
3 29 42 334 204 61 61
3 29 334 326 204 61 61
3 326 334 338 204 61 61
3 326 338 340 204 61 61
3 340 338 348 204 61 61
3 348 338 22 204 61 61
3 348 22 392 204 61 61
3 392 22 20 204 61 61
3 20 22 400 204 61 61
3 20 400 403 204 61 61
3 403 400 414 204 61 61
3 414 400 26 204 61 61
3 414 26 415 204 61 61
3 415 26 31 204 61 61
3 415 31 416 204 61 61
3 416 31 397 204 61 61
3 397 31 401 204 61 61
3 397 401 371 204 61 61
3 371 401 1 204 61 61
3 1 401 382 204 61 61
3 1 382 368 204 61 61
3 368 382 363 204 61 61
3 368 363 350 204 61 61
3 368 350 342 204 61 61
3 342 350 57 204 61 61
3 342 57 308 204 61 61
3 308 57 56 204 61 61
3 308 56 298 204 61 61
3 308 298 327 204 61 61
3 327 298 290 204 61 61
3 290 298 40 204 61 61
3 290 40 289 204 61 61
3 289 40 270 204 61 61
3 270 40 272 204 61 61
3 272 40 23 204 61 61
3 272 23 271 204 61 61
3 271 23 16 204 61 61
3 16 23 29 204 61 61
3 16 29 13 204 61 61
3 13 29 19 204 61 61
3 19 29 317 204 61 61
3 317 29 326 204 61 61
3 317 326 340 204 61 61
3 317 340 12 204 61 61
3 12 340 348 204 61 61
3 12 348 3 204 61 61
3 3 348 367 204 61 61
3 367 348 392 204 61 61
3 367 392 393 204 61 61
3 393 392 404 204 61 61
3 404 392 403 204 61 61
3 403 392 20 204 61 61
3 404 403 9 204 61 61
3 9 403 414 204 61 61
3 9 414 407 204 61 61
3 407 414 415 204 61 61
3 407 415 416 204 61 61
3 407 416 376 204 61 61
3 376 416 397 204 61 61
3 376 397 396 204 61 61
3 396 397 366 204 61 61
3 366 397 362 204 61 61
3 362 397 17 204 61 61
3 17 397 371 204 61 61
3 17 371 349 204 61 61
3 349 371 1 204 61 61
3 349 1 368 204 61 61
3 349 368 339 204 61 61
3 339 368 342 204 61 61
3 339 342 312 204 61 61
3 312 342 327 204 61 61
3 327 342 308 204 61 61
3 312 327 290 204 61 61
3 312 290 24 204 61 61
3 24 290 311 204 61 61
3 311 290 289 204 61 61
3 311 289 288 204 61 61
3 288 289 270 204 61 61
3 288 270 10 204 61 61
3 10 270 272 204 61 61
3 10 272 271 204 61 61
3 10 271 8 204 61 61
3 8 271 16 204 61 61
3 8 16 13 204 61 61
3 8 13 296 204 61 61
3 296 13 19 204 61 61
3 296 19 297 204 61 61
3 297 19 317 204 61 61
3 297 317 12 204 61 61
3 297 12 318 204 61 61
3 318 12 3 204 61 61
3 318 3 4 204 61 61
3 4 3 367 204 61 61
3 4 367 365 204 61 61
3 365 367 393 204 61 61
3 365 393 2 204 61 61
3 2 393 388 204 61 61
3 388 393 9 204 61 61
3 9 393 404 204 61 61
3 388 9 395 204 61 61
3 395 9 407 204 61 61
3 395 407 376 204 61 61
3 395 376 381 204 61 61
3 381 376 6 204 61 61
3 6 376 366 204 61 61
3 366 376 396 204 61 61
3 6 366 11 204 61 61
3 11 366 362 204 61 61
3 11 362 337 204 61 61
3 337 362 24 204 61 61
3 24 362 17 204 61 61
3 24 17 349 204 61 61
3 24 349 312 204 61 61
3 312 349 339 204 61 61
3 337 24 311 204 61 61
3 337 311 322 204 61 61
3 322 311 304 204 61 61
3 304 311 288 204 61 61
3 304 288 294 204 61 61
3 294 288 10 204 61 61
3 294 10 293 204 61 61
3 293 10 8 204 61 61
3 293 8 325 204 61 61
3 325 8 310 204 61 61
3 310 8 7 204 61 61
3 7 8 296 204 61 61
3 7 296 310 204 61 61
3 310 296 319 204 61 61
3 319 296 318 204 61 61
3 318 296 297 204 61 61
3 319 318 4 204 61 61
3 319 4 357 204 61 61
3 357 4 365 204 61 61
3 357 365 2 204 61 61
3 357 2 358 204 61 61
3 358 2 346 204 61 61
3 346 2 375 204 61 61
3 375 2 5 204 61 61
3 5 2 388 204 61 61
3 5 388 395 204 61 61
3 5 395 375 204 61 61
3 375 395 381 204 61 61
3 375 381 360 204 61 61
3 360 381 6 204 61 61
3 360 6 11 204 61 61
3 360 11 333 204 61 61
3 333 11 322 204 61 61
3 322 11 337 204 61 61
3 333 322 304 204 61 61
3 333 304 360 204 61 61
3 360 304 294 204 61 61
3 360 294 347 204 61 61
3 347 294 325 204 61 61
3 325 294 293 204 61 61
3 347 325 346 204 61 61
3 346 325 358 204 61 61
3 358 325 357 204 61 61
3 357 325 310 204 61 61
3 357 310 319 204 61 61
3 347 346 375 204 61 61
3 347 375 360 204 61 61
3 600 576 594 242 221 72
3 594 576 605 242 221 72
3 594 605 621 242 221 72
3 621 605 617 242 221 72
3 617 605 597 242 221 72
3 617 597 627 127 20 204
3 627 597 614 242 221 72
3 627 614 635 127 20 204
3 627 635 638 127 20 204
3 638 635 646 127 20 204
3 646 635 620 127 20 204
3 646 620 662 127 20 204
3 662 620 651 127 20 204
3 651 620 644 127 20 204
3 651 644 631 127 20 204
3 651 631 639 127 20 204
3 639 631 632 127 20 204
3 639 632 616 127 20 204
3 616 632 602 242 221 72
3 616 602 600 242 221 72
3 616 600 594 242 221 72
3 616 594 621 242 221 72
3 616 621 618 127 20 204
3 618 621 617 127 20 204
3 618 617 640 127 20 204
3 640 617 649 127 20 204
3 649 617 627 127 20 204
3 649 627 638 127 20 204
3 649 638 661 127 20 204
3 661 638 675 127 20 204
3 675 638 669 127 20 204
3 669 638 646 127 20 204
3 669 646 688 48 242 105
3 688 646 662 48 242 105
3 688 662 678 48 242 105
3 678 662 663 127 20 204
3 663 662 651 127 20 204
3 663 651 639 127 20 204
3 663 639 648 127 20 204
3 648 639 618 127 20 204
3 618 639 616 127 20 204
3 648 618 640 127 20 204
3 648 640 664 127 20 204
3 664 640 649 127 20 204
3 664 649 661 127 20 204
3 664 661 675 127 20 204
3 664 675 679 48 242 105
3 679 675 700 48 242 105
3 700 675 711 48 242 105
3 711 675 669 48 242 105
3 711 669 696 48 242 105
3 696 669 688 48 242 105
3 696 688 709 48 242 105
3 709 688 678 48 242 105
3 709 678 702 48 242 105
3 702 678 663 48 242 105
3 702 663 687 48 242 105
3 687 663 671 127 20 204
3 671 663 648 127 20 204
3 671 648 664 127 20 204
3 671 664 687 127 20 204
3 687 664 679 48 242 105
3 687 679 86 48 242 105
3 86 679 700 48 242 105
3 86 700 698 48 242 105
3 698 700 711 48 242 105
3 698 711 720 48 242 105
3 720 711 716 48 242 105
3 716 711 708 48 242 105
3 708 711 735 48 242 105
3 735 711 696 48 242 105
3 735 696 710 48 242 105
3 710 696 706 48 242 105
3 706 696 709 48 242 105
3 706 709 736 48 242 105
3 736 709 702 48 242 105
3 736 702 727 48 242 105
3 727 702 720 48 242 105
3 720 702 698 48 242 105
3 698 702 687 48 242 105
3 698 687 86 48 242 105
3 727 720 708 48 242 105
3 708 720 716 48 242 105
3 727 708 745 48 242 105
3 745 708 735 48 242 105
3 745 735 710 48 242 105
3 745 710 736 48 242 105
3 736 710 706 48 242 105
3 745 736 727 48 242 105
