ply
format ascii 1.0
element vertex 752
property float x
property float y
property float z
element face 1500
property list uchar int vertex_indices
property uchar red
property uchar green
property uchar blue
end_header
-0.023719 -0.419055 0.020831
-0.05076 -0.502479 0.029797
-0.025693 -0.545805 0.041449
-0.111539 -0.748837 -0.039626
-0.080793 -0.720201 -0.076261
-0.091274 -0.711578 -0.088517
-0.094248 0.154947 0.158316
-0.127495 0.131165 0.13005
-0.289583 0.127527 0.114397
-0.295647 0.10995 0.111091
-0.108397 -0.066048 -0.028781
-0.193409 -0.196598 -0.064672
-0.132272 -0.341206 -0.045814
-0.170122 -0.264186 0.026608
-0.002387 -0.063181 0.101313
-0.035253 0.170276 0.184
-0.057464 0.143467 0.091321
-0.33711 -0.271152 -0.376116
-0.301179 -0.184674 -0.336662
-0.440117 -0.213689 -0.501739
-0.454139 -0.193789 -0.455619
0.196442 0.093072 -0.039176
0.150647 0.044407 -0.213837
0.242555 0.051581 -0.251482
-0.150313 -0.204659 -0.145799
-0.063425 -0.26733 -0.205818
0.153608 0.005945 -0.04253
0.130408 -0.050183 -0.035893
0.196332 0.072305 0.038027
0.145524 0.063896 -0.057535
0.156823 -0.008918 0.07833
-0.051189 -0.414977 -0.015941
-0.016491 -0.404326 0.058164
-0.022093 -0.424215 0.098547
-0.097621 -0.360158 0.102095
-0.110549 -0.454707 0.038337
-0.052742 -0.455533 -0.000643
-0.038392 -0.419101 -0.004695
-0.006789 -0.470635 0.073187
-0.019215 -0.500005 0.126497
-0.068486 -0.476479 0.123902
-0.080191 -0.519401 0.05923
-0.004315 -0.50558 0.088185
-0.008727 -0.510427 0.061874
-0.031949 -0.561866 0.125869
-0.068147 -0.57758 0.122368
-0.083535 -0.544368 0.046657
-0.053407 -0.527997 0.052822
-0.048895 -0.538833 0.038784
-0.03458 -0.597109 0.092738
-0.054147 -0.598401 0.108566
-0.090183 -0.598666 0.096802
-0.094253 -0.552155 0.07363
-0.06324 -0.635218 0.06277
-0.075386 -0.618889 0.088254
-0.11477 -0.614937 0.059696
-0.092596 -0.567198 0.003401
-0.069759 -0.56591 -0.002367
-0.021998 -0.582453 0.029823
-0.046404 -0.588346 -0.009709
-0.039346 -0.624505 0.0418
-0.128444 -0.656016 0.018779
-0.135716 -0.652474 -0.029861
-0.094782 -0.645763 -0.060954
-0.081214 -0.597824 -0.031776
-0.050814 -0.633614 -0.032051
-0.073565 -0.702786 -0.027295
-0.105084 -0.67259 0.030389
-0.129778 -0.732856 -0.039286
-0.144571 -0.764792 -0.098888
-0.135856 -0.727053 -0.091254
-0.122774 -0.74422 -0.115728
-0.108978 -0.762532 -0.122341
-0.041959 -0.639376 -0.008925
-0.081097 -0.731785 -0.067761
-0.091377 -0.768974 -0.10388
-0.034851 -0.335308 0.024797
-0.049824 -0.351748 0.092732
-0.051277 -0.406845 0.113041
-0.096129 -0.440213 0.102285
-0.083573 -0.464826 0.013088
-0.063562 -0.380988 -0.032944
-0.079179 0.19574 0.136172
-0.106784 0.14281 0.071105
-0.039452 0.188498 0.107585
-0.05629 0.18436 0.16947
-0.13231 0.151237 0.133938
-0.133754 0.18112 0.089689
-0.085677 0.122483 0.126028
-0.184131 0.160285 0.094693
-0.118623 0.178614 0.080128
-0.182902 0.158017 0.053502
-0.176089 0.138026 0.044861
-0.16584 0.111717 0.093715
-0.174658 0.115497 0.051409
-0.150301 0.112182 0.078055
-0.214013 0.119028 0.103548
-0.217194 0.157292 0.063857
-0.235668 0.123861 0.051757
-0.227254 0.103564 0.05707
-0.220288 0.099641 0.086238
-0.267377 0.144493 0.115519
-0.262256 0.130952 0.157477
-0.269233 0.089715 0.14482
-0.260864 0.088868 0.110813
-0.279157 0.135982 0.153471
-0.357576 0.10696 0.202663
-0.319303 0.089987 0.145336
-0.333892 0.079903 0.206072
0.091614 0.20128 0.132432
0.098385 -0.041393 0.087864
-0.097904 -0.161304 0.025592
-0.054807 -0.034915 -0.059023
-0.081693 -0.041878 -0.010637
-0.062235 0.007963 0.039037
-0.021537 0.065438 0.015809
-0.181343 -0.136037 -0.030144
-0.167792 -0.184483 0.005878
-0.132242 -0.183552 0.020729
-0.076873 -0.192128 0.006128
-0.05655 -0.227239 -0.026471
-0.131388 -0.213197 0.02944
-0.098465 -0.207709 0.0181
-0.061388 -0.251117 -0.057805
-0.17927 -0.222621 -0.003749
-0.185051 -0.232675 -0.019867
-0.190692 -0.170531 -0.092832
-0.178792 -0.156198 -0.114543
-0.156127 -0.319376 -0.040043
-0.170091 -0.272378 -0.068038
-0.124116 -0.375694 -0.020825
-0.165435 -0.251728 -0.091502
-0.119658 -0.330235 -0.061568
-0.093545 -0.357723 -0.047257
-0.105332 -0.310658 -0.074358
-0.150309 -0.228857 -0.117047
-0.121207 -0.263031 -0.102261
-0.165707 -0.181407 -0.12856
-0.013008 -0.101279 0.064496
-0.092431 -0.066552 0.025159
-0.06985 -0.148148 0.037738
-0.17506 -0.286509 -0.036313
-0.145879 -0.372583 0.042361
-0.158762 -0.306402 0.050131
-0.136709 -0.351288 0.074815
-0.15726 -0.218261 0.02263
-0.135658 -0.277883 0.066368
-0.095292 -0.272962 0.0713
-0.07504 -0.321752 0.092472
-0.081467 -0.226489 0.009482
-0.06178 -0.279723 0.047661
-0.043817 -0.328176 0.070588
-0.09512 -0.289737 -0.08137
-0.065049 -0.246303 -0.025408
-0.062698 -0.268196 -0.016205
-0.061273 -0.312066 -0.038702
-0.067567 -0.268002 -0.044932
-0.077466 -0.265569 -0.074606
-0.05868 -0.007706 0.075298
-0.036191 -0.033014 0.096353
0.04159 -0.051063 0.145531
0.035239 -0.077284 0.087761
0.018594 0.140646 0.179608
0.076874 0.134537 0.142609
-0.020591 0.107538 0.043938
-0.049084 0.114061 0.086081
-0.040142 0.169666 0.094261
0.001565 0.186484 0.143151
0.009019 0.181382 0.112762
-0.011907 -0.032841 0.133797
0.014707 -0.030052 0.151946
0.046144 -0.015613 0.156668
0.070026 -0.021486 0.14339
0.104204 -0.008583 0.104228
-0.06409 0.155672 0.174448
-0.018064 0.118003 0.184208
0.008365 0.087287 0.170437
-0.066669 0.135599 0.160483
-0.066009 0.128344 0.108313
-0.05461 0.104438 0.130345
-0.059408 0.100065 0.105229
-0.041102 0.09029 0.150297
-0.030415 0.058877 0.141904
-0.010941 0.034226 0.148272
0.033075 0.050392 0.154059
0.074387 0.052366 0.134199
0.057516 0.178568 0.07917
0.053547 0.180165 0.114625
0.07245 0.171701 0.141598
0.13341 0.148547 0.153066
-0.197777 -0.283343 -0.230933
-0.214765 -0.206558 -0.348598
-0.233599 -0.195714 -0.351907
-0.264406 -0.18082 -0.344934
-0.281731 -0.195735 -0.28222
-0.224173 -0.268022 -0.220846
-0.294154 -0.250302 -0.276853
-0.249498 -0.245377 -0.367139
-0.309626 -0.192875 -0.388936
-0.319785 -0.197145 -0.323595
-0.312453 -0.258059 -0.302992
-0.26869 -0.231809 -0.249429
-0.271866 -0.275258 -0.295415
-0.283076 -0.222961 -0.393527
-0.339276 -0.190256 -0.357302
-0.343714 -0.2237 -0.323199
-0.329634 -0.268974 -0.396968
-0.368678 -0.226711 -0.468004
-0.300536 -0.207124 -0.399257
-0.364616 -0.180838 -0.411222
-0.412084 -0.197827 -0.389157
-0.380487 -0.250837 -0.364598
-0.390212 -0.273955 -0.443187
-0.409403 -0.272665 -0.479
-0.398121 -0.262726 -0.482296
-0.393074 -0.250495 -0.486181
-0.384419 -0.198757 -0.463947
-0.393939 -0.181503 -0.436944
-0.40796 -0.211727 -0.486438
-0.431653 -0.189911 -0.465622
-0.471764 -0.207346 -0.495747
-0.459778 -0.199674 -0.440172
-0.454517 -0.230983 -0.407365
-0.552679 -0.309416 -0.544662
-0.509013 -0.294146 -0.512545
-0.525392 -0.300055 -0.546292
-0.422262 -0.237029 -0.504906
-0.521448 -0.258966 -0.556586
-0.555697 -0.247946 -0.543723
-0.463383 -0.209786 -0.428269
-0.563883 -0.253584 -0.531686
-0.462147 -0.253674 -0.419472
-0.595527 -0.292072 -0.548762
-0.179947 -0.284423 -0.257028
-0.141124 -0.272146 -0.280799
-0.120754 -0.245853 -0.298901
-0.14502 -0.221722 -0.318991
-0.158136 -0.178082 -0.310315
-0.215612 -0.182296 -0.22651
0.183084 0.156792 -0.071051
0.150162 0.097785 -0.056634
0.201643 0.113167 -0.106684
0.164776 0.114611 -0.146827
0.137745 0.121063 -0.099529
0.20118 0.090237 -0.088709
0.178506 0.100644 -0.153177
0.126773 0.094773 -0.153621
0.13275 0.097113 -0.097531
0.121932 0.070727 -0.149458
0.144939 0.062177 -0.118957
0.171196 0.072991 -0.170786
0.166378 0.065179 -0.107148
0.156306 0.094117 -0.181865
0.153151 0.071068 -0.227399
0.137954 0.054523 -0.206659
0.123894 0.053141 -0.175667
0.185694 0.062491 -0.184983
0.161287 0.036493 -0.197685
0.167334 0.091828 -0.226686
0.23434 0.093341 -0.221842
0.202632 0.046413 -0.250529
0.302247 0.079211 -0.287953
0.031521 -0.184877 -0.13613
-0.114931 -0.10395 -0.179969
-0.114816 -0.090757 -0.153355
-0.04263 -0.087222 -0.183987
-0.076569 -0.082459 -0.169973
-0.042091 -0.057029 -0.128655
-0.019049 -0.02155 -0.087257
0.045989 0.002721 -0.099481
0.038562 0.045436 -0.057086
-0.037709 0.007046 -0.021821
0.078165 0.043574 -0.073226
0.111979 0.027407 -0.074406
-0.00765 -0.098236 -0.182486
0.018584 -0.126039 -0.176629
-0.021394 -0.214503 -0.229183
0.013912 -0.211289 -0.120323
-0.033991 -0.252874 -0.174316
-0.036778 -0.24044 -0.06275
-0.008133 -0.15887 -0.209206
-0.075933 -0.132482 -0.216671
-0.088711 -0.101666 -0.191751
-0.157443 -0.152861 -0.140717
-0.179796 -0.156647 -0.287571
-0.115893 -0.141089 -0.248103
-0.111889 -0.132562 -0.206397
-0.203692 -0.156762 -0.257836
-0.172596 -0.228351 -0.166838
-0.135455 -0.143138 -0.19388
-0.147842 -0.168256 -0.179119
-0.143177 -0.227832 -0.127678
0.042293 -0.037547 -0.115785
0.062496 -0.059952 -0.110746
0.054874 -0.09607 -0.117904
0.063337 -0.123524 -0.086497
-0.105297 -0.159725 -0.273513
-0.023038 -0.186761 -0.234482
-0.095814 -0.209982 -0.293575
-0.067827 -0.231798 -0.269034
-0.056782 -0.256783 -0.230265
-0.057325 -0.245525 -0.249891
-0.096192 -0.271227 -0.248602
-0.095866 -0.27839 -0.205062
-0.153348 -0.274303 -0.170356
-0.133322 -0.257253 -0.131818
-0.124371 -0.280606 -0.183356
0.152498 -0.048793 0.062544
0.089669 -0.068397 0.054404
0.227065 0.161335 0.030272
0.217641 0.134217 0.046504
0.167984 0.139072 0.072336
0.085986 0.090569 -0.043912
0.14094 0.095068 -0.048427
0.147333 0.130966 -0.02851
0.116874 0.149108 -0.01061
0.153107 0.160052 -0.007175
0.185072 0.164507 0.01111
0.171842 -0.039646 0.006969
0.178677 -0.016522 0.050539
0.237963 0.144583 -0.015783
0.231308 0.104725 0.007537
0.228064 0.11678 -0.044355
0.184573 0.08697 -0.02916
0.198753 0.058337 0.011708
0.177118 0.041439 0.051933
0.203895 0.175865 0.027562
0.207001 0.166578 0.052025
0.095423 0.190651 0.088499
0.131938 0.181605 0.074673
0.153641 0.171026 0.061963
0.156085 0.161002 0.083604
0.153555 0.152683 0.136919
0.084483 0.278222 0.165865
0.157266 0.362653 0.144541
0.137395 0.345043 0.190946
0.096241 0.344494 0.120776
0.109628 0.352735 0.146226
0.153844 0.289886 0.219064
0.082933 0.319848 0.100685
0.096549 0.261401 0.074955
0.076901 0.268175 0.097949
0.10396 0.207677 0.107927
0.072133 0.267105 0.114345
0.13137 0.184556 0.172258
0.07291 0.311391 0.130814
0.085047 0.33105 0.142277
0.168084 0.352526 0.176679
0.149816 0.206326 0.214572
0.174625 0.239711 0.221433
0.077109 0.261663 0.137787
0.102805 0.326541 0.175226
0.116295 0.198796 0.173193
0.113856 0.227623 0.196122
0.098531 0.243246 0.175757
0.11279 0.284819 0.195501
0.182489 0.269894 0.091447
0.16644 0.350103 0.104903
0.202611 0.336156 0.140099
0.150688 0.338341 0.081891
0.183588 0.330367 0.098285
0.211246 0.320427 0.158433
0.13927 0.312585 0.064593
0.128641 0.269047 0.063549
0.140061 0.233137 0.077084
0.177912 0.245589 0.100443
0.180386 0.182275 0.208515
0.188204 0.199694 0.142459
0.153922 0.268257 0.067423
0.168339 0.308769 0.071212
0.192645 0.344694 0.157491
0.199826 0.270837 0.19095
0.206832 0.23005 0.185605
0.187717 0.325651 0.196412
0.209638 0.256207 0.14526
0.168153 0.193594 0.132328
0.193699 0.257203 0.113161
0.197923 0.312199 0.108353
0.13156 0.359359 0.120399
0.118018 0.348932 0.101494
0.112349 0.316359 0.073942
0.300167 0.096306 -0.310655
0.361068 0.094764 -0.285964
0.305198 0.088147 -0.33616
0.316728 0.07246 -0.343783
0.32048 0.066468 -0.296209
0.341706 0.07313 -0.291572
0.373254 0.085566 -0.350911
0.400589 0.084208 -0.33643
0.395169 0.09579 -0.338004
0.339791 0.096929 -0.350058
0.412285 0.091334 -0.323396
0.393428 0.107224 -0.327117
0.412873 0.111635 -0.307429
0.388225 0.11459 -0.306952
0.409596 0.099198 -0.316301
0.393887 0.096575 -0.329271
0.391314 0.088783 -0.330235
0.35057 0.081969 -0.274156
0.324724 0.086458 -0.275302
0.34897 0.11098 -0.331868
0.362687 0.102205 -0.338552
0.373775 0.117177 -0.318664
0.350816 0.115694 -0.318883
0.397074 0.124221 -0.311159
0.360095 0.11379 -0.30676
0.350845 0.116226 -0.293036
0.364641 0.110526 -0.291416
0.350036 0.088793 -0.341556
0.370124 0.104468 -0.320173
0.350154 0.089708 -0.31476
0.363721 0.10168 -0.324476
0.36132 0.099781 -0.346247
-0.335492 0.086399 0.241404
-0.411367 0.112959 0.252235
-0.416927 0.111148 0.246244
-0.343457 0.104376 0.231992
-0.383839 0.1096 0.208876
-0.365181 0.070859 0.237492
-0.413905 0.101656 0.246102
-0.412867 0.099811 0.258491
-0.414481 0.101123 0.27234
-0.38405 0.122765 0.228776
-0.39462 0.10608 0.272551
-0.423289 0.080644 0.283859
-0.426896 0.081136 0.294026
-0.398387 0.08688 0.306502
-0.372454 0.092129 0.289052
-0.399232 0.091465 0.295077
-0.397758 0.095962 0.297155
-0.40652 0.0857 0.285
-0.412975 0.089601 0.265921
-0.338582 0.066499 0.239181
-0.356565 0.057752 0.245019
-0.364188 0.073136 0.263899
-0.347064 0.074699 0.2552
-0.383667 0.116204 0.25441
-0.377911 0.108757 0.272067
-0.374417 0.100657 0.283892
-0.368179 0.087112 0.279155
-0.39629 0.112132 0.227265
-0.390411 0.09937 0.265717
-0.378085 0.094049 0.249387
-0.394133 0.106787 0.237885
-0.639492 -0.30721 -0.602505
-0.641475 -0.309236 -0.578816
-0.629139 -0.317869 -0.571074
-0.655367 -0.34305 -0.584725
-0.631851 -0.338787 -0.578728
-0.596565 -0.322962 -0.564101
-0.666472 -0.368467 -0.599337
-0.667474 -0.389058 -0.617433
-0.653297 -0.391412 -0.617406
-0.647159 -0.368744 -0.598412
-0.608863 -0.340084 -0.586549
-0.665019 -0.376329 -0.634953
-0.637968 -0.367986 -0.617258
-0.602765 -0.33419 -0.595446
-0.662125 -0.395063 -0.63777
-0.647412 -0.367849 -0.661664
-0.653996 -0.393809 -0.636136
-0.637337 -0.357391 -0.650165
-0.642806 -0.34429 -0.664629
-0.622484 -0.339184 -0.639348
-0.632757 -0.31629 -0.641011
-0.625071 -0.310675 -0.635826
-0.610226 -0.316591 -0.623592
-0.597173 -0.315761 -0.60795
-0.62089 -0.280089 -0.61369
-0.599613 -0.287776 -0.606876
-0.616336 -0.252879 -0.597585
-0.600724 -0.253209 -0.5914
-0.601776 -0.234221 -0.576416
-0.57815 -0.258503 -0.568806
-0.609586 -0.234315 -0.558299
-0.580325 -0.258047 -0.554882
-0.609892 -0.257933 -0.546612
-0.591447 -0.272565 -0.551788
-0.633027 -0.275621 -0.563845
-0.626571 -0.256956 -0.551634
-0.615447 -0.283278 -0.551879
-0.096993 -0.829102 -0.058162
-0.08222 -0.82341 -0.078808
-0.077471 -0.813528 -0.079852
-0.054778 -0.826055 -0.051246
-0.061864 -0.807754 -0.056277
-0.087264 -0.779049 -0.091677
-0.040242 -0.819696 -0.024053
-0.037339 -0.831271 -0.018329
-0.034052 -0.827588 0.002559
-0.038149 -0.812718 0.004218
-0.056514 -0.804384 -0.031377
-0.078231 -0.785909 -0.05279
-0.040501 -0.825556 0.020468
-0.045879 -0.815496 0.021999
-0.061651 -0.808436 -0.006252
-0.068119 -0.83211 0.012766
-0.074961 -0.825954 0.026995
-0.102471 -0.822177 0.007746
-0.0798 -0.815641 0.007217
-0.099682 -0.83469 0.016871
-0.099848 -0.795904 -0.029356
-0.114192 -0.829022 -0.02198
-0.119043 -0.822848 -0.028575
-0.114186 -0.8041 -0.035134
-0.113498 -0.790311 -0.051025
-0.13133 -0.826416 -0.067262
-0.135432 -0.812874 -0.0696
-0.131791 -0.789373 -0.0754
-0.148178 -0.827981 -0.107544
-0.147752 -0.805221 -0.105618
-0.152197 -0.805314 -0.131681
-0.141717 -0.777541 -0.124944
-0.140654 -0.792035 -0.142911
-0.129378 -0.824606 -0.140952
-0.11706 -0.813014 -0.145886
-0.121047 -0.781844 -0.129682
-0.104129 -0.826697 -0.11541
-0.096309 -0.810835 -0.115035
-0.100505 -0.774765 -0.071887
-0.118457 -0.777508 -0.070818
-0.141443 -0.775931 -0.087858
-0.128098 -0.758481 -0.124169
-0.025126 -0.384423 0.025389
-0.037655 -0.324445 0.048361
-0.147828 -0.35436 0.056891
-0.11858 -0.440873 0.050784
-0.09883 -0.467516 0.028929
-0.057867 -0.355591 -0.034522
-0.016439 -0.41525 0.083188
-0.029992 -0.451964 0.117798
-0.087816 -0.336427 0.099864
-0.108913 -0.374796 0.097349
-0.112164 -0.443381 0.077976
-0.040068 -0.497435 0.134221
-0.085582 -0.492246 0.112233
-0.098867 -0.4954 0.081348
-0.02999 -0.511792 0.039165
-0.006026 -0.545211 0.094429
-0.02535 -0.52726 0.135951
-0.060056 -0.531335 0.137127
-0.089849 -0.538654 0.098934
-0.083508 -0.535232 0.076936
-0.022077 -0.530456 0.052235
-0.007241 -0.540425 0.067511
-0.017694 -0.587137 0.069024
-0.081985 -0.548246 0.120106
-0.113623 -0.658314 0.037328
-0.122375 -0.594961 0.039842
-0.112997 -0.577408 0.012936
-0.129748 -0.611411 -0.000294
-0.111663 -0.599351 -0.021814
-0.06424 -0.621385 -0.039659
-0.094888 -0.702389 0.00071
-0.119922 -0.640882 -0.048664
-0.094075 -0.760405 -0.064885
-0.135412 -0.650995 0.001849
-0.045148 -0.342829 -0.014716
-0.071831 -0.287733 0.071854
-0.12727 -0.318827 0.083872
-0.141309 -0.382683 0.016661
-0.084234 -0.396132 -0.028479
-0.080887 -0.333068 -0.058234
-0.133227 0.12313 0.069341
-0.116969 0.160288 0.066535
-0.123798 0.172455 0.130818
-0.068013 0.196338 0.115314
-0.03167 0.1997 0.134606
-0.029994 0.195822 0.163534
-0.067808 0.121938 0.135541
-0.178834 0.134006 0.109787
-0.202682 0.124552 0.091319
-0.212203 0.155145 0.081676
-0.206768 0.138445 0.040328
-0.200672 0.110642 0.045424
-0.201399 0.10158 0.065321
-0.231937 0.149681 0.112732
-0.241739 0.145397 0.068049
-0.264936 0.11841 0.07486
-0.254535 0.09811 0.077054
-0.246125 0.112963 0.146334
-0.307786 0.081546 0.151769
-0.325827 0.087224 0.212024
-0.323793 0.097746 0.214664
-0.335474 0.109751 0.209141
-0.35661 0.101819 0.190935
-0.371343 0.092897 0.20487
-0.359473 0.078179 0.215223
0.104069 0.15672 0.160055
0.096719 0.198369 0.155345
-0.050349 0.022999 0.016658
0.017894 -0.056686 0.133106
0.065597 -0.052099 0.131524
-0.122497 -0.141982 0.029969
0.014486 -0.170735 0.006229
-0.042903 -0.093027 0.061082
0.021491 -0.12602 0.047129
-0.035027 -0.199321 -0.010822
-0.192394 -0.164928 -0.047993
-0.183289 -0.13003 -0.09137
-0.163667 -0.103777 -0.07997
-0.148939 -0.123151 0.012323
-0.152038 -0.100668 -0.014008
-0.074686 -0.038736 0.040212
-0.054659 0.034718 0.099371
-0.049997 0.069357 0.059158
-0.114789 -0.27585 0.073686
-0.174647 -0.286387 0.017931
-0.181791 -0.267057 -0.01845
-0.185378 -0.242988 -0.058287
-0.187573 -0.214676 -0.086192
-0.181451 -0.191966 -0.109029
-0.165454 -0.327082 0.005578
-0.145117 -0.304609 -0.068799
-0.132517 -0.285214 -0.087011
-0.070096 -0.07762 0.04965
-0.025279 -0.157236 0.031372
-0.154581 -0.278007 0.052286
-0.070711 -0.244228 -0.000216
-0.070906 -0.288547 -0.059692
0.038454 0.120108 0.157772
-0.001071 0.1675 0.187706
0.029392 0.173724 0.167105
0.118184 0.111711 0.124558
-0.042647 0.128447 0.10654
-0.021327 0.157058 0.109054
-0.011128 0.15839 0.084617
0.019214 0.189751 0.138463
-0.050073 0.077138 0.127084
-0.031243 -0.011041 0.123951
-0.025724 0.085541 0.165785
0.009642 0.045465 0.155816
0.020176 0.188128 0.163933
0.063866 0.160833 0.140677
-0.576939 -0.302796 -0.539671
-0.579294 -0.320072 -0.574725
-0.571721 -0.312956 -0.583818
-0.556612 -0.299752 -0.580545
-0.562219 -0.272842 -0.58284
-0.136894 -0.279372 -0.25957
-0.122389 -0.260691 -0.288081
-0.118576 -0.185618 -0.2989
-0.270719 -0.176316 -0.331265
-0.249402 -0.174088 -0.274598
-0.222176 -0.255766 -0.209863
-0.219274 -0.277149 -0.230086
-0.213902 -0.255545 -0.339485
-0.212351 -0.227685 -0.349966
-0.246037 -0.186151 -0.348366
-0.235266 -0.206062 -0.228999
-0.329745 -0.26399 -0.333
-0.242355 -0.280309 -0.28888
-0.249057 -0.272382 -0.336477
-0.27847 -0.261417 -0.374384
-0.321147 -0.186722 -0.370879
-0.349145 -0.209107 -0.336851
-0.379807 -0.237931 -0.354965
-0.381885 -0.261809 -0.380625
-0.322277 -0.259159 -0.413414
-0.295427 -0.242268 -0.400834
-0.355508 -0.192329 -0.43282
-0.384491 -0.184084 -0.390175
-0.378316 -0.220038 -0.352456
-0.388591 -0.271747 -0.412998
-0.41589 -0.185555 -0.413754
-0.440933 -0.214886 -0.399853
-0.452282 -0.270371 -0.431755
-0.524136 -0.283125 -0.496022
-0.471412 -0.283411 -0.478631
-0.462467 -0.284079 -0.498456
-0.483184 -0.2834 -0.52943
-0.527235 -0.279827 -0.564325
-0.538158 -0.249367 -0.552995
-0.486227 -0.231395 -0.44177
-0.541948 -0.267731 -0.500061
-0.164676 -0.163856 -0.298113
-0.153589 -0.152855 -0.20115
-0.167422 -0.199314 -0.176725
-0.155784 -0.257179 -0.155905
0.186016 0.131585 -0.107708
0.176457 0.061533 -0.136039
0.160752 0.087407 -0.058923
0.143603 0.116674 -0.055193
0.153623 0.147157 -0.047135
0.165914 0.156754 -0.061513
0.175219 0.167654 -0.010056
0.199415 0.174635 -0.027641
0.218431 0.166391 -0.038274
0.230408 0.15011 -0.042088
0.189469 0.085886 -0.142099
0.138207 0.097086 -0.177855
0.124922 0.08493 -0.182034
0.139463 0.041657 -0.161711
0.16298 0.045357 -0.174675
0.185713 0.085357 -0.18777
0.184946 0.102253 -0.205354
0.240557 0.073903 -0.224686
0.228127 0.104673 -0.239464
0.212766 0.056316 -0.269423
0.197676 0.041519 -0.233492
0.207633 0.067944 -0.268765
0.287358 0.058257 -0.306483
0.304732 0.064727 -0.300476
0.300513 0.092351 -0.290282
0.290948 0.073207 -0.327415
0.149457 0.198703 0.102485
0.158292 0.181659 0.156723
0.171618 -0.017493 -0.011281
0.167658 -0.052254 0.031233
0.050935 -0.160845 -0.062408
0.032381 -0.170344 -0.155165
-0.031645 -0.24621 -0.096827
-0.031876 -0.144851 -0.215914
-0.147977 -0.115752 -0.138739
0.001228 -0.04069 -0.121111
0.027758 -0.067581 -0.13694
0.081303 -0.009438 -0.095318
0.020972 0.014419 -0.081231
0.024669 -0.159237 -0.174583
-0.010805 -0.227211 -0.19855
-0.059393 -0.265245 -0.141671
-0.067717 -0.26262 -0.111145
-0.151424 -0.143468 -0.241833
-0.152157 -0.189987 -0.167688
0.101138 -0.066561 -0.065933
0.078088 -0.124118 -0.015701
-0.069754 -0.177474 -0.268931
-0.05384 -0.205733 -0.263997
-0.116079 -0.268368 -0.13809
0.118186 -0.072549 -0.007508
0.10893 -0.075926 0.018542
0.238038 0.132053 0.00942
0.218544 0.175911 0.015121
0.117273 0.074742 -0.062411
0.168126 0.076331 -0.043946
0.133395 0.133445 -0.027045
0.157948 0.177627 0.020542
0.121404 0.175924 0.037301
0.173835 0.039292 -0.026125
0.211389 0.07658 -0.005624
0.191382 0.074772 -0.026154
0.18601 0.035268 0.022364
0.142156 0.055172 0.087478
0.188974 0.177967 0.047054
0.151571 0.132757 0.094153
0.028853 -0.188493 -0.047001
0.065052 -0.111114 0.035465
-0.115093 -0.081422 -0.086896
0.039486 0.092704 -0.004855
-0.084189 -0.259464 -0.095649
-0.112468 -0.257899 -0.110599
0.06498 0.152792 0.040099
3 589 352 354 204 61 61
3 354 352 353 204 61 61
3 353 352 348 204 61 61
3 348 352 344 204 61 61
3 344 352 588 204 61 61
3 588 352 188 204 61 61
3 188 352 589 204 61 61
3 188 589 109 204 61 61
3 109 589 350 204 61 61
3 350 589 354 204 61 61
3 350 354 333 204 61 61
3 333 354 355 204 61 61
3 355 354 353 204 61 61
3 355 353 338 204 61 61
3 338 353 349 204 61 61
3 349 353 348 204 61 61
3 349 348 366 204 61 61
3 366 348 344 204 61 61
3 366 344 706 204 61 61
3 706 344 189 204 61 61
3 189 344 588 204 61 61
3 189 588 623 204 61 61
3 623 588 163 40 176 204
3 163 588 188 40 176 204
3 163 188 633 40 176 204
3 633 188 187 40 176 204
3 187 188 109 204 61 61
3 187 109 328 204 61 61
3 328 109 342 204 61 61
3 342 109 343 204 61 61
3 343 109 350 204 61 61
3 343 350 345 204 61 61
3 345 350 333 204 61 61
3 345 333 346 204 61 61
3 346 333 351 204 61 61
3 351 333 355 204 61 61
3 351 355 335 204 61 61
3 335 355 338 204 61 61
3 335 338 373 204 61 61
3 373 338 371 204 61 61
3 371 338 349 204 61 61
3 371 349 372 204 61 61
3 372 349 366 204 61 61
3 372 366 367 204 61 61
3 367 366 706 204 61 61
3 367 706 375 204 61 61
3 375 706 332 204 61 61
3 332 706 189 204 61 61
3 332 189 623 204 61 61
3 332 623 744 204 61 61
3 744 623 742 40 176 204
3 742 623 185 40 176 204
3 185 623 163 40 176 204
3 185 163 620 40 176 204
3 620 163 633 40 176 204
3 620 633 622 40 176 204
3 622 633 632 40 176 204
3 632 633 187 40 176 204
3 632 187 627 40 176 204
3 627 187 168 40 176 204
3 168 187 186 40 176 204
3 186 187 328 40 176 204
3 186 328 737 40 176 204
3 737 328 329 40 176 204
3 329 328 342 204 61 61
3 329 342 705 204 61 61
3 705 342 364 204 61 61
3 364 342 340 204 61 61
3 340 342 341 204 61 61
3 341 342 343 204 61 61
3 341 343 339 204 61 61
3 339 343 345 204 61 61
3 339 345 336 204 61 61
3 336 345 346 204 61 61
3 336 346 337 204 61 61
3 337 346 351 204 61 61
3 337 351 335 204 61 61
3 337 335 334 204 61 61
3 334 335 347 204 61 61
3 347 335 373 204 61 61
3 347 373 370 204 61 61
3 370 373 361 204 61 61
3 361 373 371 204 61 61
3 361 371 374 204 61 61
3 374 371 372 204 61 61
3 374 372 367 204 61 61
3 374 367 376 204 61 61
3 376 367 365 204 61 61
3 365 367 375 204 61 61
3 365 375 705 204 61 61
3 705 375 331 204 61 61
3 331 375 332 204 61 61
3 331 332 744 204 61 61
3 331 744 311 40 176 204
3 311 744 742 40 176 204
3 311 742 28 40 176 204
3 28 742 325 40 176 204
3 325 742 30 40 176 204
3 30 742 173 40 176 204
3 173 742 185 40 176 204
3 173 185 172 40 176 204
3 172 185 171 40 176 204
3 171 185 184 40 176 204
3 184 185 620 40 176 204
3 184 620 176 40 176 204
3 176 620 162 40 176 204
3 162 620 622 40 176 204
3 162 622 621 40 176 204
3 621 622 632 40 176 204
3 621 632 568 40 176 204
3 568 632 567 40 176 204
3 567 632 167 40 176 204
3 167 632 627 40 176 204
3 167 627 168 40 176 204
3 167 168 626 40 176 204
3 626 168 186 40 176 204
3 626 186 751 40 176 204
3 751 186 737 40 176 204
3 751 737 315 40 176 204
3 315 737 736 40 176 204
3 736 737 330 40 176 204
3 330 737 329 40 176 204
3 330 329 331 40 176 204
3 331 329 705 204 61 61
3 330 331 311 40 176 204
3 330 311 327 40 176 204
3 327 311 310 40 176 204
3 310 311 28 40 176 204
3 310 28 321 40 176 204
3 321 28 324 40 176 204
3 324 28 741 40 176 204
3 741 28 325 40 176 204
3 741 325 319 40 176 204
3 319 325 30 40 176 204
3 319 30 307 40 176 204
3 307 30 173 40 176 204
3 307 173 110 40 176 204
3 110 173 592 40 176 204
3 592 173 172 40 176 204
3 592 172 160 40 176 204
3 160 172 171 40 176 204
3 160 171 170 40 176 204
3 170 171 631 40 176 204
3 631 171 184 40 176 204
3 631 184 176 40 176 204
3 631 176 630 40 176 204
3 630 176 175 40 176 204
3 175 176 162 40 176 204
3 175 162 621 40 176 204
3 175 621 15 40 176 204
3 15 621 568 40 176 204
3 15 568 85 40 176 204
3 85 568 82 242 221 72
3 82 568 567 242 221 72
3 82 567 566 242 221 72
3 566 567 84 242 221 72
3 84 567 167 40 176 204
3 84 167 625 40 176 204
3 625 167 626 40 176 204
3 625 626 624 40 176 204
3 624 626 165 40 176 204
3 165 626 164 40 176 204
3 164 626 751 40 176 204
3 164 751 748 40 176 204
3 748 751 312 40 176 204
3 312 751 315 40 176 204
3 312 315 735 40 176 204
3 735 315 316 40 176 204
3 316 315 736 40 176 204
3 316 736 317 40 176 204
3 317 736 326 40 176 204
3 326 736 743 40 176 204
3 743 736 330 40 176 204
3 743 330 327 40 176 204
3 743 327 326 40 176 204
3 326 327 732 40 176 204
3 732 327 309 40 176 204
3 309 327 310 40 176 204
3 309 310 731 40 176 204
3 731 310 321 40 176 204
3 731 321 320 40 176 204
3 320 321 322 40 176 204
3 322 321 739 40 176 204
3 739 321 324 40 176 204
3 739 324 740 40 176 204
3 740 324 738 40 176 204
3 738 324 741 40 176 204
3 738 741 707 40 176 204
3 707 741 318 40 176 204
3 318 741 319 40 176 204
3 318 319 708 40 176 204
3 708 319 307 40 176 204
3 708 307 730 40 176 204
3 730 307 308 40 176 204
3 308 307 110 40 176 204
3 308 110 161 40 176 204
3 161 110 592 40 176 204
3 161 592 160 40 176 204
3 161 160 591 40 176 204
3 591 160 170 40 176 204
3 591 170 169 40 176 204
3 169 170 183 40 176 204
3 183 170 631 40 176 204
3 183 631 182 40 176 204
3 182 631 630 40 176 204
3 182 630 181 40 176 204
3 181 630 177 40 176 204
3 177 630 175 40 176 204
3 177 175 174 40 176 204
3 174 175 15 40 176 204
3 174 15 85 242 221 72
3 174 85 6 242 221 72
3 6 85 565 242 221 72
3 565 85 82 242 221 72
3 565 82 89 242 221 72
3 89 82 87 242 221 72
3 87 82 566 242 221 72
3 87 566 90 242 221 72
3 90 566 84 242 221 72
3 90 84 166 242 221 72
3 166 84 625 242 221 72
3 166 625 16 242 221 72
3 16 625 624 242 221 72
3 16 624 178 242 221 72
3 178 624 179 242 221 72
3 179 624 180 40 176 204
3 180 624 165 40 176 204
3 180 165 605 40 176 204
3 605 165 164 40 176 204
3 605 164 115 40 176 204
3 115 164 748 40 176 204
3 115 748 270 40 176 204
3 270 748 312 40 176 204
3 270 312 272 40 176 204
3 272 312 733 40 176 204
3 733 312 735 40 176 204
3 733 735 313 40 176 204
3 313 735 314 40 176 204
3 314 735 316 40 176 204
3 314 316 685 40 176 204
3 685 316 317 40 176 204
3 685 317 326 40 176 204
3 685 326 686 40 176 204
3 686 326 732 40 176 204
3 686 732 687 40 176 204
3 687 732 320 40 176 204
3 320 732 309 40 176 204
3 320 309 731 40 176 204
3 687 320 688 40 176 204
3 688 320 322 40 176 204
3 688 322 241 242 221 72
3 241 322 244 242 221 72
3 244 322 21 242 221 72
3 21 322 739 242 221 72
3 21 739 740 242 221 72
3 21 740 323 40 176 204
3 323 740 734 40 176 204
3 734 740 738 40 176 204
3 734 738 29 40 176 204
3 29 738 26 40 176 204
3 26 738 707 40 176 204
3 26 707 27 40 176 204
3 27 707 318 40 176 204
3 27 318 729 40 176 204
3 729 318 708 40 176 204
3 729 708 730 40 176 204
3 729 730 725 40 176 204
3 725 730 746 40 176 204
3 746 730 308 40 176 204
3 746 308 161 40 176 204
3 746 161 596 40 176 204
3 596 161 138 40 176 204
3 138 161 14 40 176 204
3 14 161 591 40 176 204
3 14 591 169 40 176 204
3 14 169 159 40 176 204
3 159 169 629 40 176 204
3 629 169 183 40 176 204
3 629 183 182 40 176 204
3 629 182 604 40 176 204
3 604 182 628 40 176 204
3 628 182 181 40 176 204
3 628 181 179 40 176 204
3 179 181 569 40 176 204
3 569 181 177 40 176 204
3 569 177 88 242 221 72
3 88 177 7 242 221 72
3 7 177 6 242 221 72
3 6 177 174 242 221 72
3 7 6 86 242 221 72
3 86 6 565 242 221 72
3 86 565 570 242 221 72
3 570 565 89 242 221 72
3 570 89 572 242 221 72
3 572 89 87 242 221 72
3 572 87 97 242 221 72
3 97 87 91 242 221 72
3 91 87 90 242 221 72
3 91 90 92 242 221 72
3 92 90 564 242 221 72
3 564 90 166 242 221 72
3 564 166 83 242 221 72
3 83 166 16 242 221 72
3 83 16 563 242 221 72
3 563 16 178 242 221 72
3 563 178 95 242 221 72
3 95 178 88 242 221 72
3 88 178 569 242 221 72
3 569 178 179 242 221 72
3 95 88 93 242 221 72
3 93 88 7 242 221 72
3 93 7 570 242 221 72
3 570 7 86 242 221 72
3 93 570 571 242 221 72
3 571 570 572 242 221 72
3 571 572 96 242 221 72
3 96 572 576 127 20 204
3 576 572 101 127 20 204
3 101 572 97 127 20 204
3 101 97 577 127 20 204
3 577 97 573 242 221 72
3 573 97 91 242 221 72
3 573 91 92 242 221 72
3 573 92 574 242 221 72
3 574 92 94 242 221 72
3 94 92 83 242 221 72
3 83 92 564 242 221 72
3 94 83 563 242 221 72
3 94 563 95 242 221 72
3 94 95 575 242 221 72
3 575 95 93 242 221 72
3 575 93 571 242 221 72
3 575 571 100 242 221 72
3 100 571 96 242 221 72
3 100 96 580 127 20 204
3 580 96 576 127 20 204
3 580 576 102 127 20 204
3 102 576 105 127 20 204
3 105 576 101 127 20 204
3 105 101 584 127 20 204
3 584 101 106 127 20 204
3 106 101 8 127 20 204
3 8 101 577 127 20 204
3 8 577 578 127 20 204
3 578 577 98 127 20 204
3 98 577 573 242 221 72
3 98 573 574 242 221 72
3 98 574 99 242 221 72
3 99 574 575 242 221 72
3 575 574 94 242 221 72
3 99 575 579 127 20 204
3 579 575 104 127 20 204
3 104 575 100 127 20 204
3 104 100 103 127 20 204
3 103 100 580 127 20 204
3 103 580 582 127 20 204
3 582 580 583 127 20 204
3 583 580 102 127 20 204
3 583 102 584 127 20 204
3 584 102 105 127 20 204
3 583 584 416 127 20 204
3 416 584 106 127 20 204
3 416 106 422 48 242 105
3 422 106 417 48 242 105
3 417 106 585 127 20 204
3 585 106 8 127 20 204
3 585 8 9 127 20 204
3 9 8 578 127 20 204
3 9 578 579 127 20 204
3 579 578 98 127 20 204
3 579 98 99 127 20 204
3 9 579 107 127 20 204
3 107 579 581 127 20 204
3 581 579 104 127 20 204
3 581 104 108 127 20 204
3 108 104 103 127 20 204
3 108 103 582 127 20 204
3 108 582 432 127 20 204
3 432 582 413 127 20 204
3 413 582 583 127 20 204
3 413 583 416 48 242 105
3 413 416 438 48 242 105
3 438 416 437 48 242 105
3 437 416 436 48 242 105
3 436 416 422 48 242 105
3 436 422 443 48 242 105
3 443 422 414 48 242 105
3 414 422 415 48 242 105
3 415 422 440 48 242 105
3 440 422 417 48 242 105
3 440 417 586 48 242 105
3 586 417 585 127 20 204
3 586 585 107 127 20 204
3 107 585 9 127 20 204
3 586 107 587 127 20 204
3 587 107 581 127 20 204
3 587 581 108 127 20 204
3 587 108 433 48 242 105
3 433 108 432 127 20 204
3 433 432 435 48 242 105
3 435 432 413 48 242 105
3 435 413 427 48 242 105
3 427 413 438 48 242 105
3 427 438 426 48 242 105
3 426 438 429 48 242 105
3 429 438 428 48 242 105
3 428 438 437 48 242 105
3 428 437 430 48 242 105
3 430 437 425 48 242 105
3 425 437 423 48 242 105
3 423 437 436 48 242 105
3 423 436 441 48 242 105
3 441 436 442 48 242 105
3 442 436 421 48 242 105
3 421 436 420 48 242 105
3 420 436 443 48 242 105
3 420 443 442 48 242 105
3 442 443 440 48 242 105
3 440 443 419 48 242 105
3 419 443 414 48 242 105
3 419 414 415 48 242 105
3 419 415 440 48 242 105
3 442 440 587 48 242 105
3 587 440 586 48 242 105
3 442 587 418 48 242 105
3 418 587 433 48 242 105
3 418 433 434 48 242 105
3 434 433 435 48 242 105
3 434 435 439 48 242 105
3 439 435 427 48 242 105
3 439 427 426 48 242 105
3 439 426 428 48 242 105
3 428 426 429 48 242 105
3 439 428 442 48 242 105
3 442 428 430 48 242 105
3 442 430 441 48 242 105
3 441 430 424 48 242 105
3 424 430 425 48 242 105
3 424 425 423 48 242 105
3 424 423 441 48 242 105
3 439 442 434 48 242 105
3 434 442 418 48 242 105
3 420 442 431 48 242 105
3 431 442 421 48 242 105
3 431 421 420 48 242 105
3 628 179 180 40 176 204
3 628 180 604 40 176 204
3 604 180 605 40 176 204
3 604 605 114 40 176 204
3 114 605 590 40 176 204
3 590 605 115 40 176 204
3 590 115 271 40 176 204
3 271 115 270 40 176 204
3 271 270 268 40 176 204
3 268 270 717 40 176 204
3 717 270 269 40 176 204
3 269 270 272 40 176 204
3 269 272 273 40 176 204
3 273 272 733 40 176 204
3 273 733 29 40 176 204
3 29 733 313 40 176 204
3 29 313 734 40 176 204
3 734 313 240 242 221 72
3 240 313 682 242 221 72
3 682 313 314 242 221 72
3 682 314 683 242 221 72
3 683 314 685 242 221 72
3 683 685 684 242 221 72
3 684 685 686 242 221 72
3 684 686 239 242 221 72
3 239 686 687 242 221 72
3 239 687 679 242 221 72
3 679 687 688 242 221 72
3 679 688 241 242 221 72
3 679 241 245 242 221 72
3 245 241 689 242 221 72
3 689 241 244 242 221 72
3 689 244 680 242 221 72
3 680 244 21 242 221 72
3 680 21 251 242 221 72
3 251 21 681 242 221 72
3 681 21 734 242 221 72
3 734 21 323 242 221 72
3 681 734 240 242 221 72
3 681 240 249 242 221 72
3 249 240 247 242 221 72
3 247 240 682 242 221 72
3 247 682 243 242 221 72
3 243 682 683 242 221 72
3 243 683 684 242 221 72
3 243 684 690 242 221 72
3 690 684 242 242 221 72
3 242 684 239 242 221 72
3 242 239 679 242 221 72
3 242 679 245 242 221 72
3 242 245 690 242 221 72
3 690 245 252 242 221 72
3 252 245 250 242 221 72
3 250 245 689 242 221 72
3 250 689 680 242 221 72
3 250 680 693 242 221 72
3 693 680 251 242 221 72
3 693 251 692 242 221 72
3 692 251 249 242 221 72
3 249 251 681 242 221 72
3 692 249 248 242 221 72
3 248 249 247 242 221 72
3 248 247 246 242 221 72
3 246 247 243 242 221 72
3 246 243 690 242 221 72
3 246 690 691 242 221 72
3 691 690 258 242 221 72
3 258 690 252 127 20 204
3 258 252 695 127 20 204
3 695 252 694 127 20 204
3 694 252 250 127 20 204
3 694 250 256 127 20 204
3 256 250 693 242 221 72
3 256 693 696 127 20 204
3 696 693 23 127 20 204
3 23 693 257 127 20 204
3 257 693 692 242 221 72
3 257 692 22 242 221 72
3 22 692 255 242 221 72
3 255 692 248 242 221 72
3 255 248 691 242 221 72
3 691 248 246 242 221 72
3 255 691 254 242 221 72
3 254 691 253 127 20 204
3 253 691 258 127 20 204
3 253 258 700 127 20 204
3 700 258 383 127 20 204
3 383 258 697 127 20 204
3 697 258 695 127 20 204
3 697 695 259 127 20 204
3 259 695 694 127 20 204
3 259 694 696 127 20 204
3 696 694 256 127 20 204
3 259 696 703 127 20 204
3 703 696 261 127 20 204
3 261 696 702 127 20 204
3 702 696 23 127 20 204
3 702 23 701 127 20 204
3 701 23 699 127 20 204
3 699 23 257 127 20 204
3 699 257 22 127 20 204
3 699 22 260 127 20 204
3 260 22 698 127 20 204
3 698 22 253 127 20 204
3 253 22 254 127 20 204
3 254 22 255 242 221 72
3 698 253 700 127 20 204
3 698 700 704 127 20 204
3 704 700 383 127 20 204
3 704 383 384 127 20 204
3 384 383 390 48 242 105
3 390 383 400 48 242 105
3 400 383 381 48 242 105
3 381 383 697 127 20 204
3 381 697 703 127 20 204
3 703 697 259 127 20 204
3 381 703 399 127 20 204
3 399 703 261 127 20 204
3 399 261 385 48 242 105
3 385 261 702 127 20 204
3 385 702 701 127 20 204
3 385 701 384 127 20 204
3 384 701 704 127 20 204
3 704 701 698 127 20 204
3 698 701 260 127 20 204
3 260 701 699 127 20 204
3 385 384 408 48 242 105
3 408 384 390 48 242 105
3 408 390 387 48 242 105
3 387 390 412 48 242 105
3 412 390 401 48 242 105
3 401 390 400 48 242 105
3 401 400 389 48 242 105
3 389 400 396 48 242 105
3 396 400 411 48 242 105
3 411 400 403 48 242 105
3 403 400 381 48 242 105
3 403 381 406 48 242 105
3 406 381 399 48 242 105
3 406 399 398 48 242 105
3 398 399 385 48 242 105
3 398 385 386 48 242 105
3 386 385 410 48 242 105
3 410 385 408 48 242 105
3 410 408 411 48 242 105
3 411 408 397 48 242 105
3 397 408 388 48 242 105
3 388 408 401 48 242 105
3 401 408 412 48 242 105
3 412 408 387 48 242 105
3 388 401 389 48 242 105
3 388 389 396 48 242 105
3 388 396 397 48 242 105
3 397 396 411 48 242 105
3 410 411 409 48 242 105
3 409 411 403 48 242 105
3 409 403 392 48 242 105
3 392 403 402 48 242 105
3 402 403 405 48 242 105
3 405 403 406 48 242 105
3 405 406 404 48 242 105
3 404 406 407 48 242 105
3 407 406 382 48 242 105
3 382 406 398 48 242 105
3 382 398 386 48 242 105
3 382 386 410 48 242 105
3 382 410 407 48 242 105
3 407 410 394 48 242 105
3 394 410 405 48 242 105
3 405 410 402 48 242 105
3 402 410 409 48 242 105
3 402 409 395 48 242 105
3 395 409 391 48 242 105
3 391 409 392 48 242 105
3 391 392 395 48 242 105
3 395 392 402 48 242 105
3 394 405 404 48 242 105
3 394 404 393 48 242 105
3 393 404 407 48 242 105
3 393 407 394 48 242 105
3 273 29 26 40 176 204
3 273 26 293 40 176 204
3 293 26 724 40 176 204
3 724 26 27 40 176 204
3 724 27 729 40 176 204
3 724 729 725 40 176 204
3 724 725 709 40 176 204
3 709 725 745 40 176 204
3 745 725 594 40 176 204
3 594 725 746 40 176 204
3 594 746 596 40 176 204
3 594 596 616 40 176 204
3 616 596 138 40 176 204
3 616 138 140 40 176 204
3 140 138 595 40 176 204
3 595 138 14 40 176 204
3 595 14 159 40 176 204
3 595 159 615 40 176 204
3 615 159 158 40 176 204
3 158 159 629 40 176 204
3 158 629 604 40 176 204
3 158 604 114 40 176 204
3 158 114 603 40 176 204
3 603 114 139 40 176 204
3 139 114 113 40 176 204
3 113 114 590 40 176 204
3 113 590 271 40 176 204
3 113 271 112 40 176 204
3 112 271 268 40 176 204
3 112 268 267 40 176 204
3 267 268 714 40 176 204
3 714 268 717 40 176 204
3 714 717 269 40 176 204
3 714 269 292 40 176 204
3 292 269 716 40 176 204
3 716 269 273 40 176 204
3 716 273 293 40 176 204
3 716 293 292 40 176 204
3 292 293 715 40 176 204
3 715 293 294 40 176 204
3 294 293 724 40 176 204
3 294 724 295 40 176 204
3 295 724 709 40 176 204
3 295 709 262 40 176 204
3 262 709 277 40 176 204
3 277 709 745 40 176 204
3 277 745 711 40 176 204
3 711 745 279 40 176 204
3 279 745 594 40 176 204
3 279 594 597 40 176 204
3 597 594 616 40 176 204
3 597 616 140 40 176 204
3 597 140 111 40 176 204
3 111 140 593 40 176 204
3 593 140 595 40 176 204
3 593 595 615 40 176 204
3 593 615 601 40 176 204
3 601 615 139 40 176 204
3 139 615 603 40 176 204
3 603 615 158 40 176 204
3 601 139 602 40 176 204
3 602 139 10 40 176 204
3 10 139 113 40 176 204
3 10 113 112 40 176 204
3 10 112 747 40 176 204
3 747 112 267 40 176 204
3 747 267 264 40 176 204
3 264 267 266 40 176 204
3 266 267 265 40 176 204
3 265 267 714 40 176 204
3 265 714 274 40 176 204
3 274 714 715 40 176 204
3 715 714 292 40 176 204
3 274 715 275 40 176 204
3 275 715 294 40 176 204
3 275 294 718 40 176 204
3 718 294 710 40 176 204
3 710 294 295 40 176 204
3 710 295 262 40 176 204
3 710 262 719 40 176 204
3 719 262 277 40 176 204
3 719 277 278 40 176 204
3 278 277 711 40 176 204
3 278 711 720 40 176 204
3 720 711 721 40 176 204
3 721 711 749 40 176 204
3 749 711 279 40 176 204
3 749 279 123 40 176 204
3 123 279 120 40 176 204
3 120 279 597 40 176 204
3 120 597 119 40 176 204
3 119 597 111 40 176 204
3 119 111 118 40 176 204
3 118 111 593 40 176 204
3 118 593 601 40 176 204
3 118 601 117 40 176 204
3 117 601 116 40 176 204
3 116 601 602 40 176 204
3 116 602 600 40 176 204
3 600 602 10 40 176 204
3 600 10 747 40 176 204
3 600 747 713 40 176 204
3 713 747 264 40 176 204
3 713 264 263 40 176 204
3 263 264 266 40 176 204
3 263 266 282 40 176 204
3 282 266 265 40 176 204
3 282 265 281 40 176 204
3 281 265 712 40 176 204
3 712 265 274 40 176 204
3 712 274 280 40 176 204
3 280 274 275 40 176 204
3 280 275 718 40 176 204
3 280 718 297 40 176 204
3 297 718 276 40 176 204
3 276 718 710 40 176 204
3 276 710 719 40 176 204
3 276 719 301 242 24 142
3 301 719 300 242 24 142
3 300 719 25 242 24 142
3 25 719 278 40 176 204
3 25 278 720 40 176 204
3 25 720 303 242 24 142
3 303 720 306 242 24 142
3 306 720 728 242 24 142
3 728 720 721 40 176 204
3 728 721 750 40 176 204
3 750 721 749 40 176 204
3 750 749 136 40 176 204
3 136 749 152 242 24 142
3 152 749 157 242 24 142
3 157 749 123 40 176 204
3 157 123 156 40 176 204
3 156 123 153 40 176 204
3 153 123 120 40 176 204
3 153 120 618 242 24 142
3 618 120 149 242 24 142
3 149 120 119 40 176 204
3 149 119 122 242 24 142
3 122 119 118 40 176 204
3 122 118 121 242 24 142
3 121 118 117 40 176 204
3 121 117 145 242 24 142
3 145 117 124 242 24 142
3 124 117 598 242 24 142
3 598 117 116 40 176 204
3 598 116 599 40 176 204
3 599 116 600 40 176 204
3 599 600 713 40 176 204
3 599 713 283 40 176 204
3 283 713 289 40 176 204
3 289 713 263 40 176 204
3 289 263 286 242 24 142
3 286 263 282 40 176 204
3 286 282 281 40 176 204
3 286 281 285 242 24 142
3 285 281 296 242 24 142
3 296 281 712 242 24 142
3 296 712 726 242 24 142
3 726 712 297 242 24 142
3 297 712 280 40 176 204
3 726 297 727 242 24 142
3 727 297 276 242 24 142
3 727 276 299 242 24 142
3 299 276 301 242 24 142
3 299 301 640 242 24 142
3 640 301 302 242 24 142
3 302 301 300 242 24 142
3 302 300 25 242 24 142
3 302 25 303 242 24 142
3 302 303 639 242 24 142
3 639 303 233 242 24 142
3 233 303 306 242 24 142
3 233 306 190 242 24 142
3 190 306 304 242 24 142
3 304 306 728 242 24 142
3 304 728 678 242 24 142
3 678 728 305 242 24 142
3 305 728 750 40 176 204
3 305 750 291 40 176 204
3 291 750 135 40 176 204
3 135 750 136 40 176 204
3 135 136 131 40 176 204
3 131 136 614 242 24 142
3 614 136 152 242 24 142
3 614 152 134 242 24 142
3 134 152 562 242 24 142
3 562 152 619 242 24 142
3 619 152 157 242 24 142
3 619 157 156 242 24 142
3 619 156 154 242 24 142
3 154 156 153 242 24 142
3 154 153 618 242 24 142
3 154 618 76 242 24 142
3 76 618 524 242 24 142
3 524 618 150 242 24 142
3 150 618 149 242 24 142
3 150 149 558 242 24 142
3 558 149 122 242 24 142
3 558 122 147 242 24 142
3 147 122 121 242 24 142
3 147 121 606 242 24 142
3 606 121 145 242 24 142
3 606 145 146 242 24 142
3 146 145 617 242 24 142
3 617 145 13 242 24 142
3 13 145 124 242 24 142
3 13 124 607 242 24 142
3 607 124 608 242 24 142
3 608 124 125 242 24 142
3 125 124 598 242 24 142
3 125 598 11 40 176 204
3 11 598 126 40 176 204
3 126 598 599 40 176 204
3 126 599 127 40 176 204
3 127 599 283 40 176 204
3 127 283 137 40 176 204
3 137 283 24 40 176 204
3 24 283 723 40 176 204
3 723 283 290 40 176 204
3 290 283 289 40 176 204
3 290 289 676 242 24 142
3 676 289 287 242 24 142
3 287 289 722 242 24 142
3 722 289 286 242 24 142
3 722 286 285 242 24 142
3 722 285 284 242 24 142
3 284 285 675 242 24 142
3 675 285 296 242 24 142
3 675 296 237 242 24 142
3 237 296 641 242 24 142
3 641 296 726 242 24 142
3 641 726 298 242 24 142
3 298 726 727 242 24 142
3 298 727 299 242 24 142
3 298 299 235 242 24 142
3 235 299 640 242 24 142
3 235 640 646 242 24 142
3 646 640 652 242 24 142
3 652 640 234 242 24 142
3 234 640 302 242 24 142
3 234 302 639 242 24 142
3 234 639 652 242 24 142
3 652 639 233 242 24 142
3 652 233 17 242 24 142
3 17 233 651 242 24 142
3 651 233 190 242 24 142
3 651 190 202 242 24 142
3 202 190 645 242 24 142
3 645 190 304 242 24 142
3 645 304 195 242 24 142
3 195 304 678 242 24 142
3 195 678 644 242 24 142
3 644 678 288 242 24 142
3 288 678 305 242 24 142
3 288 305 24 242 24 142
3 24 305 291 40 176 204
3 24 291 135 40 176 204
3 24 135 137 40 176 204
3 137 135 611 40 176 204
3 611 135 610 40 176 204
3 610 135 131 40 176 204
3 610 131 609 40 176 204
3 609 131 129 242 24 142
3 129 131 614 242 24 142
3 129 614 613 242 24 142
3 613 614 134 242 24 142
3 613 134 132 242 24 142
3 132 134 562 242 24 142
3 132 562 133 242 24 142
3 133 562 81 242 24 142
3 81 562 528 242 24 142
3 528 562 155 242 24 142
3 155 562 619 242 24 142
3 155 619 154 242 24 142
3 155 154 76 242 24 142
3 155 76 557 242 24 142
3 557 76 523 242 24 142
3 523 76 32 242 24 142
3 32 76 524 242 24 142
3 32 524 529 242 24 142
3 529 524 151 242 24 142
3 151 524 150 242 24 142
3 151 150 558 242 24 142
3 151 558 77 242 24 142
3 77 558 148 242 24 142
3 148 558 147 242 24 142
3 148 147 531 242 24 142
3 531 147 606 242 24 142
3 531 606 559 242 24 142
3 559 606 146 242 24 142
3 559 146 617 242 24 142
3 559 617 143 242 24 142
3 143 617 13 242 24 142
3 143 13 607 242 24 142
3 143 607 525 242 24 142
3 525 607 612 242 24 142
3 612 607 608 242 24 142
3 612 608 141 242 24 142
3 141 608 129 242 24 142
3 129 608 609 242 24 142
3 609 608 125 242 24 142
3 609 125 11 242 24 142
3 609 11 610 40 176 204
3 610 11 611 40 176 204
3 611 11 126 40 176 204
3 611 126 127 40 176 204
3 611 127 137 40 176 204
3 141 129 613 242 24 142
3 141 613 128 242 24 142
3 128 613 132 242 24 142
3 128 132 12 242 24 142
3 12 132 133 242 24 142
3 12 133 561 242 24 142
3 561 133 81 242 24 142
3 561 81 31 242 24 142
3 31 81 37 242 24 142
3 37 81 528 242 24 142
3 37 528 557 242 24 142
3 557 528 155 242 24 142
3 37 557 0 242 24 142
3 0 557 523 242 24 142
3 0 523 38 242 24 142
3 38 523 32 242 24 142
3 38 32 529 242 24 142
3 38 529 42 242 24 142
3 42 529 39 242 24 142
3 39 529 33 242 24 142
3 33 529 151 242 24 142
3 33 151 77 242 24 142
3 33 77 530 242 24 142
3 530 77 78 242 24 142
3 78 77 148 242 24 142
3 78 148 531 242 24 142
3 78 531 534 242 24 142
3 534 531 34 242 24 142
3 34 531 559 242 24 142
3 34 559 532 242 24 142
3 532 559 144 242 24 142
3 144 559 143 242 24 142
3 144 143 525 242 24 142
3 144 525 79 242 24 142
3 79 525 533 242 24 142
3 533 525 142 242 24 142
3 142 525 612 242 24 142
3 142 612 560 242 24 142
3 560 612 128 242 24 142
3 128 612 141 242 24 142
3 560 128 130 242 24 142
3 130 128 12 242 24 142
3 130 12 561 242 24 142
3 130 561 80 242 24 142
3 80 561 36 242 24 142
3 36 561 31 242 24 142
3 36 31 37 242 24 142
3 36 37 537 242 24 142
3 537 37 43 242 24 142
3 43 37 0 242 24 142
3 43 0 38 242 24 142
3 43 38 42 242 24 142
3 43 42 544 96 204 61
3 544 42 538 96 204 61
3 538 42 39 242 24 142
3 538 39 539 242 24 142
3 539 39 534 242 24 142
3 534 39 78 242 24 142
3 78 39 530 242 24 142
3 530 39 33 242 24 142
3 539 534 540 242 24 142
3 540 534 40 242 24 142
3 40 534 34 242 24 142
3 40 34 532 242 24 142
3 40 532 79 242 24 142
3 79 532 144 242 24 142
3 40 79 535 242 24 142
3 535 79 533 242 24 142
3 535 533 536 242 24 142
3 536 533 526 242 24 142
3 526 533 142 242 24 142
3 526 142 560 242 24 142
3 526 560 35 242 24 142
3 35 560 527 242 24 142
3 527 560 130 242 24 142
3 527 130 80 242 24 142
3 527 80 41 242 24 142
3 41 80 1 242 24 142
3 1 80 36 242 24 142
3 1 36 537 242 24 142
3 1 537 41 242 24 142
3 41 537 47 242 24 142
3 47 537 543 242 24 142
3 543 537 43 242 24 142
3 543 43 544 96 204 61
3 543 544 2 96 204 61
3 2 544 58 96 204 61
3 58 544 545 96 204 61
3 545 544 538 96 204 61
3 545 538 49 96 204 61
3 49 538 44 96 204 61
3 44 538 539 96 204 61
3 44 539 540 96 204 61
3 44 540 45 96 204 61
3 45 540 546 96 204 61
3 546 540 535 96 204 61
3 535 540 40 242 24 142
3 546 535 541 96 204 61
3 541 535 536 242 24 142
3 541 536 542 242 24 142
3 542 536 35 242 24 142
3 35 536 526 242 24 142
3 542 35 41 242 24 142
3 41 35 527 242 24 142
3 542 41 47 242 24 142
3 542 47 46 96 204 61
3 46 47 48 96 204 61
3 48 47 2 96 204 61
3 2 47 543 96 204 61
3 48 2 57 96 204 61
3 57 2 59 96 204 61
3 59 2 58 96 204 61
3 59 58 65 96 204 61
3 65 58 73 96 204 61
3 73 58 545 96 204 61
3 73 545 60 96 204 61
3 60 545 49 96 204 61
3 60 49 53 96 204 61
3 53 49 50 96 204 61
3 50 49 44 96 204 61
3 50 44 45 96 204 61
3 50 45 54 96 204 61
3 54 45 51 96 204 61
3 51 45 546 96 204 61
3 51 546 55 96 204 61
3 55 546 548 96 204 61
3 548 546 52 96 204 61
3 52 546 541 96 204 61
3 52 541 542 96 204 61
3 52 542 46 96 204 61
3 52 46 549 96 204 61
3 549 46 56 96 204 61
3 56 46 57 96 204 61
3 57 46 48 96 204 61
3 56 57 64 96 204 61
3 64 57 59 96 204 61
3 64 59 552 96 204 61
3 552 59 65 96 204 61
3 552 65 5 96 204 61
3 5 65 4 96 204 61
3 4 65 73 96 204 61
3 4 73 74 96 204 61
3 74 73 66 96 204 61
3 66 73 60 96 204 61
3 66 60 53 96 204 61
3 66 53 553 96 204 61
3 553 53 54 96 204 61
3 54 53 50 96 204 61
3 553 54 67 96 204 61
3 67 54 547 96 204 61
3 547 54 51 96 204 61
3 547 51 55 96 204 61
3 547 55 61 96 204 61
3 61 55 548 96 204 61
3 61 548 556 96 204 61
3 556 548 550 96 204 61
3 550 548 549 96 204 61
3 549 548 52 96 204 61
3 550 549 551 96 204 61
3 551 549 56 96 204 61
3 551 56 64 96 204 61
3 551 64 63 96 204 61
3 63 64 552 96 204 61
3 63 552 5 96 204 61
3 63 5 71 96 204 61
3 71 5 72 96 204 61
3 72 5 75 96 204 61
3 75 5 4 96 204 61
3 75 4 74 96 204 61
3 75 74 486 96 204 61
3 486 74 555 56 48 242
3 555 74 66 96 204 61
3 555 66 553 96 204 61
3 555 553 3 96 204 61
3 3 553 67 96 204 61
3 3 67 68 96 204 61
3 68 67 547 96 204 61
3 68 547 61 96 204 61
3 68 61 556 96 204 61
3 68 556 521 96 204 61
3 521 556 69 96 204 61
3 69 556 62 96 204 61
3 62 556 550 96 204 61
3 62 550 554 96 204 61
3 554 550 551 96 204 61
3 554 551 63 96 204 61
3 554 63 71 96 204 61
3 554 71 70 96 204 61
3 70 71 512 96 204 61
3 512 71 522 56 48 242
3 522 71 72 56 48 242
3 522 72 516 56 48 242
3 516 72 518 56 48 242
3 518 72 75 56 48 242
3 518 75 486 56 48 242
3 518 486 483 56 48 242
3 483 486 485 56 48 242
3 485 486 492 56 48 242
3 492 486 519 56 48 242
3 519 486 555 56 48 242
3 519 555 3 96 204 61
3 519 3 520 96 204 61
3 520 3 68 96 204 61
3 520 68 521 96 204 61
3 520 521 508 56 48 242
3 508 521 510 56 48 242
3 510 521 69 56 48 242
3 510 69 512 56 48 242
3 512 69 70 96 204 61
3 70 69 62 96 204 61
3 70 62 554 96 204 61
3 510 512 511 56 48 242
3 511 512 513 56 48 242
3 513 512 522 56 48 242
3 513 522 516 56 48 242
3 513 516 515 56 48 242
3 515 516 518 56 48 242
3 515 518 514 56 48 242
3 514 518 517 56 48 242
3 517 518 483 56 48 242
3 517 483 482 56 48 242
3 482 483 485 56 48 242
3 482 485 484 56 48 242
3 484 485 491 56 48 242
3 491 485 492 56 48 242
3 491 492 495 56 48 242
3 495 492 501 56 48 242
3 501 492 519 56 48 242
3 501 519 505 56 48 242
3 505 519 520 56 48 242
3 505 520 508 56 48 242
3 505 508 507 56 48 242
3 507 508 510 56 48 242
3 507 510 509 56 48 242
3 509 510 511 56 48 242
3 509 511 514 56 48 242
3 514 511 513 56 48 242
3 514 513 515 56 48 242
3 509 514 517 56 48 242
3 509 517 506 56 48 242
3 506 517 482 56 48 242
3 506 482 481 56 48 242
3 481 482 484 56 48 242
3 481 484 502 56 48 242
3 502 484 496 56 48 242
3 496 484 488 56 48 242
3 488 484 487 56 48 242
3 487 484 491 56 48 242
3 487 491 490 56 48 242
3 490 491 495 56 48 242
3 490 495 494 56 48 242
3 494 495 499 56 48 242
3 499 495 501 56 48 242
3 499 501 498 56 48 242
3 498 501 504 56 48 242
3 504 501 505 56 48 242
3 504 505 507 56 48 242
3 504 507 506 56 48 242
3 506 507 509 56 48 242
3 504 506 503 56 48 242
3 503 506 481 56 48 242
3 503 481 502 56 48 242
3 503 502 504 56 48 242
3 504 502 498 56 48 242
3 498 502 500 56 48 242
3 500 502 496 56 48 242
3 500 496 497 56 48 242
3 497 496 493 56 48 242
3 493 496 488 56 48 242
3 493 488 489 56 48 242
3 489 488 487 56 48 242
3 489 487 490 56 48 242
3 489 490 493 56 48 242
3 493 490 494 56 48 242
3 493 494 497 56 48 242
3 497 494 498 56 48 242
3 498 494 499 56 48 242
3 497 498 500 56 48 242
3 288 24 677 242 24 142
3 677 24 723 242 24 142
3 677 723 290 242 24 142
3 677 290 238 242 24 142
3 238 290 676 242 24 142
3 238 676 643 242 24 142
3 643 676 287 242 24 142
3 643 287 18 242 24 142
3 18 287 642 242 24 142
3 642 287 722 242 24 142
3 642 722 284 242 24 142
3 642 284 193 242 24 142
3 193 284 648 242 24 142
3 648 284 675 242 24 142
3 648 675 192 242 24 142
3 192 675 237 242 24 142
3 192 237 191 242 24 142
3 191 237 641 242 24 142
3 191 641 647 242 24 142
3 647 641 236 242 24 142
3 236 641 298 242 24 142
3 236 298 235 242 24 142
3 236 235 647 242 24 142
3 647 235 646 242 24 142
3 647 646 197 242 24 142
3 197 646 653 242 24 142
3 653 646 652 242 24 142
3 653 652 206 242 24 142
3 206 652 17 242 24 142
3 206 17 663 242 24 142
3 663 17 657 242 24 142
3 657 17 650 242 24 142
3 650 17 202 242 24 142
3 202 17 651 242 24 142
3 650 202 645 242 24 142
3 650 645 200 242 24 142
3 200 645 195 242 24 142
3 200 195 196 242 24 142
3 196 195 644 242 24 142
3 196 644 201 242 24 142
3 201 644 288 242 24 142
3 201 288 649 242 24 142
3 649 288 677 242 24 142
3 649 677 238 242 24 142
3 649 238 194 242 24 142
3 194 238 643 242 24 142
3 194 643 199 242 24 142
3 199 643 18 242 24 142
3 199 18 204 242 24 142
3 204 18 654 242 24 142
3 654 18 642 242 24 142
3 654 642 193 242 24 142
3 654 193 198 242 24 142
3 198 193 648 242 24 142
3 198 648 208 242 24 142
3 208 648 192 242 24 142
3 208 192 203 242 24 142
3 203 192 191 242 24 142
3 203 191 647 242 24 142
3 203 647 197 242 24 142
3 203 197 659 242 24 142
3 659 197 658 242 24 142
3 658 197 653 242 24 142
3 658 653 206 242 24 142
3 658 206 212 96 204 61
3 212 206 663 96 204 61
3 212 663 668 96 204 61
3 668 663 666 96 204 61
3 666 663 657 96 204 61
3 666 657 231 96 204 61
3 231 657 211 96 204 61
3 211 657 650 242 24 142
3 211 650 200 242 24 142
3 211 200 656 242 24 142
3 656 200 196 242 24 142
3 656 196 205 242 24 142
3 205 196 201 242 24 142
3 205 201 649 242 24 142
3 205 649 194 242 24 142
3 205 194 199 242 24 142
3 205 199 655 242 24 142
3 655 199 204 242 24 142
3 655 204 210 242 24 142
3 210 204 661 96 204 61
3 661 204 209 96 204 61
3 209 204 654 242 24 142
3 209 654 198 242 24 142
3 209 198 660 242 24 142
3 660 198 208 242 24 142
3 660 208 216 96 204 61
3 216 208 207 96 204 61
3 207 208 203 242 24 142
3 207 203 659 242 24 142
3 207 659 215 96 204 61
3 215 659 658 96 204 61
3 215 658 214 96 204 61
3 214 658 213 96 204 61
3 213 658 212 96 204 61
3 213 212 669 96 204 61
3 669 212 668 96 204 61
3 669 668 224 96 204 61
3 224 668 667 96 204 61
3 667 668 666 96 204 61
3 667 666 231 96 204 61
3 667 231 674 96 204 61
3 674 231 222 96 204 61
3 222 231 656 96 204 61
3 656 231 211 96 204 61
3 222 656 662 96 204 61
3 662 656 205 242 24 142
3 662 205 655 242 24 142
3 662 655 210 96 204 61
3 662 210 665 96 204 61
3 665 210 229 96 204 61
3 229 210 664 96 204 61
3 664 210 661 96 204 61
3 664 661 217 96 204 61
3 217 661 209 96 204 61
3 217 209 660 96 204 61
3 217 660 216 96 204 61
3 217 216 219 96 204 61
3 219 216 19 96 204 61
3 19 216 218 96 204 61
3 218 216 207 96 204 61
3 218 207 226 96 204 61
3 226 207 215 96 204 61
3 226 215 671 96 204 61
3 671 215 670 96 204 61
3 670 215 214 96 204 61
3 670 214 213 96 204 61
3 670 213 669 96 204 61
3 670 669 225 96 204 61
3 225 669 224 96 204 61
3 225 224 223 96 204 61
3 223 224 634 96 204 61
3 634 224 667 96 204 61
3 634 667 674 96 204 61
3 634 674 232 96 204 61
3 232 674 477 96 204 61
3 477 674 673 96 204 61
3 673 674 222 96 204 61
3 673 222 665 96 204 61
3 665 222 662 96 204 61
3 673 665 229 96 204 61
3 673 229 230 96 204 61
3 230 229 221 96 204 61
3 221 229 664 96 204 61
3 221 664 20 96 204 61
3 20 664 217 96 204 61
3 20 217 219 96 204 61
3 20 219 220 96 204 61
3 220 219 19 96 204 61
3 220 19 672 96 204 61
3 672 19 227 96 204 61
3 227 19 226 96 204 61
3 226 19 218 96 204 61
3 227 226 671 96 204 61
3 227 671 638 96 204 61
3 638 671 637 96 204 61
3 637 671 670 96 204 61
3 637 670 225 96 204 61
3 637 225 636 96 204 61
3 636 225 223 96 204 61
3 636 223 635 56 48 242
3 635 223 449 56 48 242
3 449 223 634 96 204 61
3 449 634 446 56 48 242
3 446 634 232 56 48 242
3 446 232 480 56 48 242
3 480 232 477 96 204 61
3 480 477 476 56 48 242
3 476 477 475 56 48 242
3 475 477 230 96 204 61
3 230 477 673 96 204 61
3 475 230 228 96 204 61
3 228 230 20 96 204 61
3 20 230 221 96 204 61
3 228 20 220 96 204 61
3 228 220 672 96 204 61
3 228 672 473 96 204 61
3 473 672 638 96 204 61
3 638 672 227 96 204 61
3 473 638 471 96 204 61
3 471 638 469 56 48 242
3 469 638 637 56 48 242
3 469 637 636 56 48 242
3 469 636 467 56 48 242
3 467 636 635 56 48 242
3 467 635 457 56 48 242
3 457 635 454 56 48 242
3 454 635 449 56 48 242
3 454 449 448 56 48 242
3 448 449 446 56 48 242
3 448 446 445 56 48 242
3 445 446 478 56 48 242
3 478 446 479 56 48 242
3 479 446 480 56 48 242
3 479 480 476 56 48 242
3 479 476 474 56 48 242
3 474 476 475 56 48 242
3 474 475 472 56 48 242
3 472 475 473 56 48 242
3 473 475 228 96 204 61
3 472 473 471 56 48 242
3 472 471 470 56 48 242
3 470 471 469 56 48 242
3 470 469 468 56 48 242
3 468 469 466 56 48 242
3 466 469 467 56 48 242
3 466 467 457 56 48 242
3 466 457 463 56 48 242
3 463 457 461 56 48 242
3 461 457 456 56 48 242
3 456 457 453 56 48 242
3 453 457 448 56 48 242
3 448 457 454 56 48 242
3 453 448 447 56 48 242
3 447 448 445 56 48 242
3 447 445 444 56 48 242
3 444 445 478 56 48 242
3 444 478 468 56 48 242
3 468 478 470 56 48 242
3 470 478 474 56 48 242
3 474 478 479 56 48 242
3 470 474 472 56 48 242
3 444 468 465 56 48 242
3 465 468 466 56 48 242
3 465 466 463 56 48 242
3 465 463 464 56 48 242
3 464 463 462 56 48 242
3 462 463 461 56 48 242
3 462 461 459 56 48 242
3 459 461 460 56 48 242
3 460 461 456 56 48 242
3 460 456 452 56 48 242
3 452 456 453 56 48 242
3 452 453 451 56 48 242
3 451 453 450 56 48 242
3 450 453 447 56 48 242
3 450 447 455 56 48 242
3 455 447 464 56 48 242
3 464 447 444 56 48 242
3 464 444 465 56 48 242
3 455 464 462 56 48 242
3 455 462 459 56 48 242
3 455 459 458 56 48 242
3 458 459 460 56 48 242
3 458 460 452 56 48 242
3 458 452 451 56 48 242
3 458 451 455 56 48 242
3 455 451 450 56 48 242
3 365 705 364 204 61 61
3 365 364 368 204 61 61
3 368 364 363 204 61 61
3 363 364 340 204 61 61
3 363 340 380 204 61 61
3 380 340 339 204 61 61
3 339 340 341 204 61 61
3 380 339 379 204 61 61
3 379 339 336 204 61 61
3 379 336 337 204 61 61
3 379 337 378 204 61 61
3 378 337 334 204 61 61
3 378 334 357 204 61 61
3 357 334 358 204 61 61
3 358 334 370 204 61 61
3 370 334 347 204 61 61
3 358 370 361 204 61 61
3 358 361 374 204 61 61
3 358 374 377 204 61 61
3 377 374 376 204 61 61
3 377 376 356 204 61 61
3 356 376 365 204 61 61
3 356 365 368 204 61 61
3 356 368 369 204 61 61
3 369 368 362 204 61 61
3 362 368 363 204 61 61
3 362 363 380 204 61 61
3 362 380 359 204 61 61
3 359 380 379 204 61 61
3 359 379 378 204 61 61
3 359 378 357 204 61 61
3 359 357 360 204 61 61
3 360 357 358 204 61 61
3 360 358 377 204 61 61
3 360 377 369 204 61 61
3 369 377 356 204 61 61
3 360 369 359 204 61 61
3 359 369 362 204 61 61
