ply
format ascii 1.0
element vertex 750
property float x
property float y
property float z
element face 1500
property list uchar int vertex_indices
property uchar red
property uchar green
property uchar blue
end_header
-0.507659 -0.029288 0.300882
-0.074985 -0.151818 -0.050035
-0.036181 0.991401 -0.023619
-0.015978 0.993497 -0.048333
0.040985 0.992645 -0.018589
-0.07009 0.964236 0.009406
0.026086 0.980811 0.057416
0.081984 0.943356 -0.055047
0.030852 0.921821 0.096355
0.015864 0.961019 -0.083527
0.084299 0.969131 0.011834
-0.061902 0.940455 -0.094877
-0.079883 0.955389 -0.054509
0.046322 0.92026 -0.096593
0.07603 0.93925 0.063837
-0.107353 0.884483 -0.082059
0.109376 0.923454 -0.012971
-0.09475 0.889143 0.037594
0.088477 0.899722 -0.069454
0.109787 0.911802 0.026549
-0.038796 0.911844 0.079528
-0.115028 0.885818 -0.034525
-0.066116 0.882228 -0.122433
-0.014943 0.891072 -0.126132
0.077806 0.873665 0.072519
-0.104076 0.854459 0.018872
0.070383 0.861729 -0.090883
-0.064732 0.878449 0.068804
-0.119661 0.856637 -0.05989
-0.050777 0.850109 -0.1259
-0.091304 0.849418 -0.105971
0.009253 0.870744 -0.124724
-0.076866 0.85584 0.056551
0.085647 0.832316 -0.076334
-0.069078 0.829214 0.054289
-0.049898 0.838138 0.069019
-0.108326 0.809219 -0.120996
0.100124 0.824186 -0.028331
-0.127399 0.823606 -0.026674
0.085725 0.85255 -0.068958
0.043746 0.845156 -0.109783
0.094409 0.808471 0.023793
-0.107462 0.805073 -0.084139
0.025563 0.803819 0.082385
-0.005878 0.817367 -0.14028
0.067977 0.811799 -0.085325
-0.061871 0.794201 -0.124809
0.074683 0.815102 -0.066657
0.080195 0.795408 -0.045732
0.088113 0.806914 -0.083212
0.068713 0.801791 -0.087867
0.066001 0.800161 -0.070113
0.038291 0.774154 -0.110774
0.058198 0.7966 -0.094406
-0.063148 0.805407 0.052705
-0.113652 0.76425 -0.002195
-0.096673 0.779247 -0.111034
0.083283 0.779574 0.005526
-0.12228 0.762872 -0.049298
-0.084034 0.78861 0.040097
0.057541 0.771618 0.05874
0.021075 0.778362 0.073714
-0.024154 0.753568 -0.132516
-0.080395 0.742321 -0.104674
0.03998 0.710802 0.078661
0.075297 0.73263 -0.043551
-0.041955 0.720287 0.073544
0.016325 0.689642 -0.072898
-0.099373 0.715346 -0.066086
0.085587 0.721811 0.028328
0.040726 0.717713 -0.07574
-0.06237 0.709118 -0.104822
0.10118 0.713878 -0.011418
-0.087264 0.700434 -0.01855
0.139258 0.683824 0.012876
-0.051501 0.700263 0.111391
-0.069671 0.695257 0.067268
-0.008944 0.717919 0.088546
0.087706 0.699008 -0.047244
0.08595 0.687568 0.06224
-0.051928 0.665591 -0.027381
-0.074244 0.71143 0.032484
-0.056107 0.680539 -0.068559
-0.017104 0.671997 -0.057994
-0.10889 0.676632 0.119882
0.13275 0.664318 -0.090274
0.049794 0.666592 -0.069008
-0.077028 0.667189 0.02718
0.042959 0.68637 0.096838
0.159264 0.671046 -0.068753
-0.156886 0.653164 0.10871
0.166869 0.671802 -0.026267
0.015272 0.654058 0.146817
-0.065526 0.639452 -0.020876
-0.004279 0.636893 -0.069285
0.064791 0.615299 -0.118797
0.166783 0.64582 -0.112555
0.192202 0.624236 -0.001351
-0.120216 0.643878 0.052036
-0.11797 0.621631 0.010023
-0.116441 0.651013 0.170736
0.161325 0.622856 0.048229
-0.028157 0.677454 0.153583
0.130912 0.641416 -0.131334
-0.042524 0.636404 0.183979
-0.215695 0.620904 0.150369
-0.201098 0.624858 0.084967
-0.16782 0.597302 0.030565
0.189042 0.62806 -0.154339
0.076368 0.623218 0.102681
0.15652 0.567917 0.064888
0.230385 0.59365 -0.144062
-0.062279 0.563583 -0.068622
-0.24295 0.583031 0.115809
0.024981 0.596257 -0.113569
-0.145304 0.61385 0.196681
0.140148 0.595715 -0.190328
0.093581 0.569839 -0.176702
-0.165126 0.547643 0.231499
0.228894 0.604209 -0.085641
-0.101201 0.555734 0.220027
0.184743 0.546354 0.04355
0.074976 0.522257 -0.191954
-0.222966 0.559428 0.065746
0.028028 0.517757 -0.169498
0.238005 0.540929 -0.044295
-0.178279 0.546103 -0.000147
-0.098124 0.5109 0.215784
0.075954 0.51344 0.109129
-0.205612 0.561057 0.20929
0.001025 0.574425 0.186261
-0.246729 0.537492 0.189574
0.219285 0.571391 -0.188814
-0.227318 0.49519 0.043443
0.256846 0.519971 -0.098201
0.034047 0.442053 0.144618
0.234427 0.486357 -0.060999
0.268619 0.51399 -0.144409
0.155547 0.48851 -0.212172
-0.141372 0.526095 0.225612
0.201877 0.492863 0.009369
-0.233635 0.484581 0.222495
-0.205393 0.487456 -0.006374
-0.032561 0.500794 0.194993
0.123851 0.467425 -0.189522
-0.159858 0.436739 0.209545
-0.250906 0.47169 0.101113
-0.083277 0.489821 -0.102261
0.226508 0.484776 -0.085147
-0.157556 0.463129 -0.073742
-0.273716 0.449078 0.123029
0.270543 0.403603 -0.143851
-0.270475 0.486381 0.165538
-0.134414 0.479433 0.199386
0.198596 0.431312 -0.029004
-0.082806 0.436242 0.184988
0.129059 0.445839 -0.170122
-0.033769 0.45183 -0.164248
0.123831 0.439884 0.075059
-0.212594 0.462057 0.080929
-0.218771 0.44179 0.032193
0.277095 0.434186 -0.16989
-0.121132 0.437478 0.180704
-0.199062 0.45228 0.23155
0.066687 0.45626 -0.19396
0.235916 0.431906 -0.103579
0.154201 0.429445 -0.21552
0.226493 0.454165 -0.225155
-0.180796 0.392053 0.121457
-0.105762 0.419435 -0.110575
-0.2059 0.435381 -0.037779
0.020429 0.429817 -0.197599
0.264577 0.460257 -0.204253
0.279055 0.395235 -0.234708
-0.283009 0.444991 0.211054
-0.236827 0.446755 0.096138
0.200508 0.395014 -0.246137
0.156774 0.40041 -0.202927
-0.195456 0.384288 -0.018202
-0.064311 0.402286 -0.150906
0.193858 0.405155 -0.062988
-0.031623 0.433266 0.174208
-0.160385 0.426414 0.150184
0.104106 0.411054 -0.178814
-0.202936 0.375995 0.052892
0.175981 0.375672 -0.095907
-0.327142 0.375737 0.228895
-0.333176 0.368046 0.177817
-0.156178 0.394023 -0.083406
-0.289352 0.37619 0.127521
-0.291845 0.389118 0.230195
-0.124365 0.370565 0.161598
0.180198 0.365131 -0.233162
0.242538 0.368521 -0.142682
-0.152343 0.358209 -0.11667
0.1911 0.331475 -0.190711
0.14883 0.393781 -0.144161
0.291345 0.324088 -0.190473
-0.277799 0.348601 0.241958
-0.318417 0.403762 0.193255
-0.206939 0.317229 0.03662
0.013178 0.372345 -0.183119
0.065858 0.387083 0.094296
0.21014 0.384716 -0.133802
0.169931 0.372344 0.000211
-0.111607 0.30958 -0.18208
-0.225926 0.389887 0.227518
0.265921 0.369737 -0.262003
0.242403 0.346389 -0.26693
0.302245 0.328815 -0.215424
0.078863 0.370227 -0.178686
0.018361 0.305485 0.128555
-0.380284 0.320275 0.231773
-0.058544 0.320336 -0.196883
0.142806 0.306217 -0.133025
0.207323 0.303002 -0.225998
-0.040925 0.340609 0.161345
0.118142 0.324282 0.057476
0.052614 0.286911 0.072578
0.268712 0.312452 -0.17986
-0.351932 0.278465 0.164994
-0.232658 0.343979 0.206146
0.160797 0.289607 -0.038656
-0.216975 0.363171 0.160593
0.231681 0.311292 -0.176006
-0.19309 0.302962 -0.107596
-0.388294 0.301666 0.192092
-0.262407 0.316455 0.147396
-0.017547 0.296837 -0.208966
0.019526 0.224581 0.106105
0.330126 0.272915 -0.245593
0.220416 0.272225 -0.201183
0.299329 0.303109 -0.304571
-0.165005 0.285088 -0.148854
0.109865 0.298581 -0.166824
0.304157 0.325029 -0.280565
-0.208229 0.308698 -0.061136
-0.413349 0.227388 0.217232
0.225784 0.2596 -0.26718
0.048013 0.257775 -0.198173
-0.046847 0.286045 0.156894
-0.267514 0.26114 0.205934
-0.184571 0.314704 0.100745
-0.134087 0.302243 0.141607
-0.289744 0.304183 0.150852
-0.381654 0.239794 0.26987
0.157756 0.292852 -0.102134
-0.291666 0.240595 0.182179
-0.337595 0.259457 0.273048
0.096832 0.238923 0.048028
-0.025524 0.23583 0.147651
0.25712 0.287805 -0.309792
0.105243 0.17391 -0.175571
0.176771 0.226773 -0.09241
-0.199082 0.219157 0.110757
-0.21256 0.254199 0.027723
0.159262 0.165788 -0.008068
-0.396363 0.191673 0.19742
0.350829 0.213465 -0.268373
0.309602 0.219702 -0.212314
0.176768 0.227083 -0.049636
-0.160377 0.197834 0.151728
-0.400708 0.274606 0.23828
0.264853 0.243774 -0.193665
0.142616 0.269797 0.015408
-0.413099 0.210983 0.25997
-0.10518 0.259494 -0.198562
0.299892 0.172693 -0.224401
0.333476 0.245048 -0.303313
-0.041388 0.220704 -0.209753
-0.34322 0.178835 0.199349
-0.298813 0.225663 0.248386
-0.163907 0.206767 -0.152473
0.087257 0.173121 0.059397
-0.109511 0.21543 0.171838
0.288803 0.178429 -0.332064
0.164376 0.208269 -0.130869
-0.35132 0.204719 0.182926
-0.190496 0.185794 -0.117796
-0.335085 0.188596 0.271199
-0.383213 0.186539 0.279564
0.269218 0.151394 -0.313518
0.346052 0.158517 -0.327176
-0.119855 0.171405 -0.179223
0.316728 0.205861 -0.331063
-0.209744 0.162594 0.058279
-0.324002 0.169601 0.233312
0.337495 0.156346 -0.25316
0.028752 0.169953 0.107812
0.245287 0.186776 -0.238522
-0.206011 0.215806 -0.0805
-0.201061 0.13025 -0.067319
-0.031163 0.132364 -0.201645
-0.040268 0.164573 0.154325
0.169747 0.156846 -0.077601
0.132081 0.140715 -0.13923
-0.431259 0.174569 0.22379
-0.012863 0.133971 0.170608
-0.139699 0.121294 -0.155439
0.080939 0.150069 0.096563
0.318411 0.106514 -0.363088
0.130002 0.166786 0.032024
-0.175738 0.131129 0.09565
-0.42836 0.167985 0.261987
0.186968 0.113696 -0.076077
-0.458558 0.106424 0.253784
-0.434487 0.127536 0.271401
-0.128489 0.151628 0.144474
0.344488 0.077248 -0.368345
0.198047 0.1062 -0.025039
0.152039 0.09129 0.089727
-0.375007 0.130371 0.277302
-0.458254 0.084501 0.222764
0.085909 0.110345 -0.158637
-0.079475 0.134034 -0.198468
0.189738 0.104848 0.032712
-0.414003 0.079009 0.223333
-0.371949 0.106667 0.253134
0.366137 0.092477 -0.33654
-0.141815 0.10348 0.15759
-0.085154 0.125504 0.178822
-0.192432 0.058606 0.11161
-0.471974 0.077027 0.248303
0.330501 0.107695 -0.273413
0.034933 0.056976 0.197202
0.356858 0.122217 -0.292711
0.007907 0.084071 -0.167648
0.290735 0.108756 -0.283257
0.295152 0.086738 -0.352917
-0.17459 0.075735 -0.033935
-0.186167 0.10776 -0.106508
-0.431696 0.092278 0.213588
-0.187575 0.103981 0.021437
0.175778 0.09126 -0.111634
0.028537 0.061603 -0.167057
0.362899 0.061919 -0.324305
0.338916 0.063611 -0.308775
-0.077637 0.08862 -0.177022
0.30503 0.05571 -0.369832
-0.02366 0.070758 0.205171
-0.114961 0.090435 -0.156573
-0.421698 0.080852 0.285634
-0.038103 0.062992 -0.156612
-0.156061 0.074498 -0.106702
0.132546 0.084372 -0.152978
-0.397149 0.073956 0.254506
0.190954 0.059424 0.073011
0.080935 0.076202 0.148043
-0.10323 0.057649 0.184613
0.158637 0.050118 0.10431
-0.494739 0.034087 0.219308
-0.452564 0.027589 0.183285
0.297646 0.059116 -0.335214
-0.42203 0.040351 0.25071
-0.143419 0.04682 -0.075139
0.368446 0.051684 -0.357662
-0.407859 0.044456 0.288905
-0.103169 0.039396 -0.119313
0.211092 0.053395 -0.007877
0.359156 0.016931 -0.304524
-0.037495 0.044199 -0.152601
-0.506933 0.019031 0.259324
-0.435669 0.016932 0.201284
0.322083 0.038062 -0.318671
0.21336 -0.001492 0.05181
-0.468637 0.03683 0.298483
-0.485683 0.022273 0.192832
-0.067515 0.019141 -0.152056
0.164362 0.039236 -0.135175
0.395503 -0.001437 -0.320961
-0.1672 0.029082 -0.04578
0.343625 0.000961 -0.341944
0.024328 0.014338 -0.170855
-0.069018 0.008722 0.212501
0.099121 0.010385 0.142846
-0.101352 0.016605 -0.12767
-0.435395 0.025873 0.311941
-0.212081 0.005188 0.032845
-0.164495 0.031246 0.140692
-0.462577 0.001193 0.209759
-0.05215 0.002035 -0.148957
0.27394 0.022629 -0.340345
-0.5094 -0.001142 0.274951
-0.42942 0.00724 0.295179
0.261334 -0.050663 -0.392182
0.287318 -0.004194 -0.338446
-0.133834 0.027662 -0.096756
-0.452525 -0.005995 0.323107
-0.454751 0.005233 0.329485
0.301939 0.008805 -0.390517
0.108805 0.028487 -0.182938
0.348728 -0.043024 -0.39597
0.27 0.000906 -0.369818
-0.481228 -0.009457 0.237393
-0.493962 0.014789 0.207899
0.358369 -0.002961 -0.388139
-0.025165 -0.044265 -0.153705
0.142786 -0.051107 0.117709
-0.529694 -0.033767 0.308466
-0.536405 -0.031426 0.26916
-0.503148 -0.024637 0.241205
-0.111791 -0.045809 -0.110496
0.397449 -0.038098 -0.353246
0.064032 -0.054964 -0.188898
0.181322 -0.000997 0.097521
-0.468138 -0.023397 0.352901
-0.492256 -0.029477 0.17166
-0.470367 -0.020161 0.356389
0.199931 -0.053228 -0.092423
0.281468 -0.053192 -0.377255
0.061427 -0.055083 0.171203
0.421108 -0.047978 -0.316294
0.356444 -0.044485 -0.359919
0.290658 -0.026871 -0.385432
0.375565 -0.045013 -0.38249
0.387128 -0.031337 -0.333103
0.080607 -0.060065 0.119688
0.0999 -0.036259 -0.184273
0.151951 -0.037073 -0.158881
-0.533504 -0.059596 0.269009
0.22069 -0.038081 0.008089
0.420473 -0.069807 -0.318691
0.03863 -0.026225 0.199944
-0.034241 -0.014177 0.222861
-0.523272 -0.014606 0.2464
-0.521942 -0.055726 0.299294
-0.210312 -0.089543 0.094406
-0.200197 -0.035989 0.117619
-0.212544 0.03483 0.07658
0.251992 -0.056904 -0.374006
0.383131 -0.071137 -0.385279
0.390889 -0.060886 -0.362964
0.37943 -0.107322 -0.389085
0.403156 -0.01438 -0.338832
0.189778 -0.081025 0.060501
-0.535475 -0.067768 0.317928
-0.541917 -0.071164 0.259593
-0.18794 -0.049942 -0.019072
-0.540865 -0.054591 0.305345
0.149331 -0.10013 0.071897
0.398426 -0.078446 -0.343246
-0.104996 -0.08936 -0.123122
-0.027193 -0.074688 -0.160272
0.054929 -0.083896 0.142418
0.331645 -0.079949 -0.389297
0.36125 -0.069783 -0.379371
0.013646 -0.113319 0.149073
-0.07354 -0.109527 0.192913
0.056692 -0.092393 0.078588
0.412139 -0.110206 -0.353548
-0.127458 -0.058288 0.185713
-0.014998 -0.126803 -0.15227
0.205925 -0.117163 -0.032342
0.349547 -0.074504 -0.407177
0.359788 -0.104136 -0.398617
-0.007004 -0.091618 0.192449
-0.204996 -0.139495 0.007297
0.035464 -0.113056 -0.18219
0.030029 -0.110951 0.050852
0.027473 -0.110754 0.096286
0.11698 -0.111767 0.067022
0.394913 -0.102977 -0.354603
-0.21687 -0.104477 0.046626
-0.161769 -0.126109 -0.04373
0.389207 -0.106906 -0.373436
0.342381 -0.122838 -0.3992
-0.193872 -0.132985 0.127638
-0.018804 -0.128204 0.177458
-0.109976 -0.161647 0.183779
0.079588 -0.110556 0.063641
-0.088952 -0.111455 -0.118649
0.176697 -0.13233 0.025068
0.376938 -0.127456 -0.377538
0.096184 -0.138115 -0.190378
-0.075316 -0.143496 -0.09336
-0.005096 -0.15175 -0.145887
0.115832 -0.160729 0.056979
0.173434 -0.168981 0.018295
0.030779 -0.128909 0.100743
-0.028 -0.150542 -0.107762
0.046774 -0.167018 -0.186204
-0.142938 -0.16157 -0.044778
0.189274 -0.168223 -0.109753
-0.153132 -0.139664 0.166496
-0.124727 -0.178708 -0.036184
-0.06148 -0.148072 0.187208
0.064837 -0.17779 0.059439
0.196148 -0.191656 -0.045189
-0.196387 -0.205614 0.105913
-0.057314 -0.190884 -0.03597
0.034591 -0.217955 0.044959
-0.002673 -0.147031 0.154096
-0.034423 -0.155887 -0.042502
-0.023891 -0.176748 -0.098935
-0.013577 -0.220564 -0.014824
0.023704 -0.24442 0.120458
-0.195071 -0.222576 0.014917
0.154567 -0.148302 -0.156912
-0.173446 -0.174112 -0.020903
0.078245 -0.240967 0.060495
-0.208764 -0.207099 0.06069
0.1273 -0.228796 0.052239
0.032026 -0.225073 0.081885
-0.043003 -0.282477 -0.009274
-0.006693 -0.271451 -0.035742
0.047363 -0.221635 -0.172957
0.006108 -0.2607 -0.115782
0.109857 -0.23703 -0.173635
-0.149306 -0.277074 0.140631
-0.101649 -0.264011 0.175751
0.168954 -0.247993 0.020236
-0.035982 -0.355666 0.16633
-0.177596 -0.310985 0.103424
0.090846 -0.348078 0.043962
0.042048 -0.303218 0.033908
0.188431 -0.275418 -0.038138
-0.183378 -0.312653 0.07035
-0.060374 -0.255278 0.18113
-0.104612 -0.312288 0.168403
0.04146 -0.321799 -0.137248
-0.154659 -0.325831 0.017162
0.010215 -0.28127 -4.2e-05
0.089721 -0.313116 -0.155796
-0.106097 -0.31166 -0.013251
0.019861 -0.340181 0.109715
-0.158464 -0.353318 0.087248
-0.004247 -0.255883 0.159863
0.081391 -0.35644 -0.13411
0.179078 -0.309305 -0.066712
-0.02557 -0.386282 0.019291
0.004187 -0.338087 0.031655
0.137604 -0.312348 -0.14493
-0.10353 -0.355818 0.000251
0.002704 -0.313628 -0.09933
0.148668 -0.381702 -0.106297
-0.133459 -0.379556 0.137624
0.020387 -0.361399 -0.097658
0.016037 -0.371321 -0.008885
0.159908 -0.416463 -0.001792
-0.010178 -0.426115 0.038083
0.019069 -0.37931 0.074855
-0.01745 -0.415839 0.142541
0.041544 -0.401156 -0.075169
-0.147969 -0.405748 0.060872
-0.099786 -0.416214 0.166148
0.053468 -0.379469 0.033236
0.001643 -0.433659 0.081429
0.177189 -0.421323 -0.055475
-0.119362 -0.382839 0.025199
-0.047328 -0.422496 0.169098
0.114159 -0.418961 -0.122887
0.146741 -0.361445 0.019758
0.03529 -0.441653 -0.026752
0.055014 -0.431845 -0.098946
-0.049467 -0.469162 0.041034
-0.109927 -0.433691 0.034619
0.133834 -0.483564 0.043435
0.127928 -0.423902 0.021393
0.032992 -0.4092 0.007239
-0.132962 -0.444616 0.135401
-0.015039 -0.505538 0.065714
0.145922 -0.452575 -0.099806
0.211893 -0.50105 -0.027065
0.067121 -0.475723 -0.080538
0.167478 -0.445519 -0.080113
-0.127049 -0.472882 0.07157
0.077027 -0.445201 0.018288
0.003741 -0.485514 0.110512
0.063508 -0.505319 0.006528
0.054448 -0.518145 -0.044443
-0.149578 -0.505465 0.12179
-0.031532 -0.515324 0.201511
0.19993 -0.514395 0.012183
-0.133569 -0.521804 0.173258
0.197163 -0.526494 -0.089012
-0.137082 -0.471481 0.091541
0.003009 -0.50749 0.158894
-0.082547 -0.524321 0.210388
-0.129932 -0.551849 0.079447
0.113767 -0.483499 -0.10861
-0.090461 -0.475275 0.049254
0.173462 -0.54074 0.044226
-0.043192 -0.566121 0.05678
0.158495 -0.54406 -0.1137
-0.087422 -0.590452 0.063835
0.133167 -0.602091 0.059268
0.008176 -0.555266 0.168897
0.015369 -0.587806 0.09808
0.114267 -0.590362 -0.104935
0.222295 -0.608934 -0.049217
0.070336 -0.616973 -0.040604
-0.136003 -0.594572 0.169788
-0.004465 -0.60605 0.071652
0.080818 -0.53659 -0.081293
0.223332 -0.581672 -0.003693
0.09831 -0.595573 0.050788
0.198809 -0.588744 -0.093143
0.206989 -0.618145 0.020311
-0.14528 -0.585774 0.108788
-0.058087 -0.568377 0.215484
0.018602 -0.608649 0.142857
-0.090291 -0.629682 0.203033
-0.116093 -0.703726 0.154414
-0.002568 -0.610551 0.183319
-0.050179 -0.705782 0.18621
0.062032 -0.605626 0.007478
0.149711 -0.627409 -0.10666
0.091964 -0.670215 0.026216
0.165156 -0.61537 0.050524
0.173246 -0.675714 -0.089219
-0.133669 -0.676117 0.123545
-0.003088 -0.685909 0.100522
0.126947 -0.698855 -0.088721
-0.117961 -0.666611 0.087373
0.089368 -0.72566 -0.002664
0.197079 -0.697797 -0.060432
0.178757 -0.717327 0.016144
-0.09067 -0.719736 0.074799
-0.033999 -0.671384 0.063836
-0.004802 -0.706322 0.139159
0.133014 -0.726976 0.02848
0.087918 -0.726891 -0.046731
0.142101 -0.761694 -0.085267
-0.018292 -0.72428 0.159615
-0.031009 -0.748536 0.082087
0.095365 -0.779662 -0.035193
-0.102907 -0.793993 0.084696
0.106556 -0.773417 -0.07132
0.150843 -0.798011 0.016797
-0.065254 -0.745007 0.173424
0.17301 -0.755832 -0.069563
-0.033241 -0.80444 0.087589
0.199189 -0.715619 -0.008316
0.14994 -0.809529 -0.08095
-0.108642 -0.803849 0.114144
-0.038635 -0.815703 0.152629
0.17494 -0.785642 -0.027584
-0.076329 -0.794281 0.067689
-0.015612 -0.800954 0.133692
0.1281 -0.788689 0.014402
0.111357 -0.823474 -0.005847
-0.04062 -0.838245 0.061414
0.174542 -0.84389 -0.03886
0.105727 -0.836106 -0.085931
0.088719 -0.836971 -0.025991
0.159161 -0.850016 -0.083701
-0.111949 -0.844285 0.075902
-0.088868 -0.828739 0.141895
-0.019715 -0.893777 0.16523
0.079215 -0.84638 -0.073416
-0.116914 -0.886228 0.123364
-0.134982 -0.863421 0.039462
-0.030082 -0.891284 0.087706
-0.010309 -0.867889 0.141779
0.114263 -0.852157 -0.110863
0.139588 -0.867435 0.024422
-0.096437 -0.852517 0.043238
-0.070193 -0.871682 0.040229
-0.145453 -0.895433 -0.017432
-0.073055 -0.872936 0.147439
-0.133738 -0.879946 0.100431
0.155323 -0.876667 -0.09242
-0.103735 -0.909404 0.004783
0.064709 -0.902762 -0.079346
0.156591 -0.842572 0.008726
0.071318 -0.869708 -0.111178
0.093206 -0.897918 -0.190807
0.087388 -0.895162 -0.030285
-0.173706 -0.88812 0.055616
-0.204349 -0.903455 -0.005226
0.04793 -0.893775 -0.170543
0.182344 -0.91421 -0.009354
-0.21818 -0.905787 0.033219
-0.162611 -0.889541 -0.008559
-0.006342 -0.918192 0.116685
-0.163733 -0.904214 0.112797
0.040316 -0.913505 -0.1451
0.170968 -0.905623 -0.12816
-0.19873 -0.907539 -0.023127
-0.047186 -0.913663 0.06987
-0.198143 -0.908492 0.091049
0.031111 -0.910943 -0.224029
0.163653 -0.921447 -0.168978
0.14853 -0.90669 0.037397
-0.224566 -0.917813 -0.032113
0.15315 -0.900953 -0.172369
0.06605 -0.914395 -0.235246
0.171759 -0.918223 -0.083509
-0.229065 -0.920335 0.052579
-0.149144 -0.922446 0.114351
-0.186336 -0.918769 -0.053959
0.037011 -0.930942 -0.221846
0.118431 -0.929468 -0.003196
-0.13544 -0.923416 -0.021305
0.076 -0.931515 -0.220696
0.029316 -0.922441 -0.196416
-0.185534 0.156092 0.102158
0.32679 -0.039464 -0.374231
-0.180927 0.426403 0.135524
-0.20992 0.424511 0.118418
-0.156031 0.426828 0.178652
-0.471232 -0.014823 0.282446
-0.503776 -0.022283 0.201076
-0.484939 -0.029845 0.187549
-0.004457 0.995102 0.020452
-0.026007 0.95539 0.071287
0.06224 0.796302 -0.08841
-0.015083 0.81882 0.085096
-0.171256 0.642521 0.155264
0.184814 0.413804 -0.118299
0.177583 0.393172 -0.149991
0.155819 0.418416 -0.159717
-0.470981 -0.021136 0.335137
-0.478052 -0.008496 0.30972
-0.50609 -0.028632 0.266595
0.399375 -0.031854 -0.334282
0.320708 -0.040495 -0.387264
0.333814 -0.095132 -0.404601
0.382108 -0.055551 -0.351978
0.269395 -0.018032 -0.360597
0.30033 -0.021903 -0.36535
0.349928 -0.064545 -0.389039
-0.038963 -0.15129 -0.071672
0.014498 -0.253269 0.020468
0.034294 -0.156125 0.050851
0.027306 -0.230923 0.045444
0.034736 -0.245493 0.039268
-0.005838 -0.245389 -0.001634
-0.002735 -0.277572 0.015134
0.021259 -0.272928 0.046964
0.138778 -0.922712 -0.205765
0.152215 -0.928959 -0.07326
0.165012 -0.926067 0.019026
0.052739 -0.929124 -0.139375
0.152732 -0.928534 -0.138112
0.122038 -0.930733 -0.039128
0.099827 -0.927888 -0.106086
0.110716 -0.903086 -0.210852
-0.209775 -0.926838 0.066645
-0.05685 -0.927021 0.091981
-0.206102 -0.921872 -0.026705
-0.150424 -0.926255 0.003562
-0.160035 -0.928599 0.071619
-0.031507 -0.926203 0.102691
-0.205347 -0.918465 0.017446
-0.070039 -0.912472 0.160408
-0.169098 -0.923018 -0.023664
-0.102453 -0.924215 0.050003
-0.023509 -0.926072 0.157098
-0.060709 -0.923266 0.139483
3 254 285 696 40 176 204
3 696 285 302 40 176 204
3 302 285 332 40 176 204
3 332 285 291 40 176 204
3 291 285 290 40 176 204
3 290 285 255 40 176 204
3 255 285 254 40 176 204
3 255 254 200 40 176 204
3 200 254 242 40 176 204
3 242 254 243 40 176 204
3 243 254 261 40 176 204
3 261 254 696 40 176 204
3 261 696 307 40 176 204
3 307 696 302 40 176 204
3 307 302 321 40 176 204
3 321 302 428 40 176 204
3 428 302 332 40 176 204
3 428 332 377 40 176 204
3 377 332 370 40 176 204
3 370 332 329 40 176 204
3 329 332 291 40 176 204
3 329 291 330 40 176 204
3 330 291 278 40 176 204
3 278 291 290 40 176 204
3 278 290 225 40 176 204
3 225 290 236 40 176 204
3 236 290 255 40 176 204
3 236 255 200 40 176 204
3 236 200 184 40 176 204
3 184 200 242 40 176 204
3 184 242 168 40 176 204
3 168 242 191 40 176 204
3 191 242 243 40 176 204
3 191 243 216 40 176 204
3 216 243 240 40 176 204
3 240 243 274 40 176 204
3 274 243 261 40 176 204
3 274 261 307 40 176 204
3 274 307 293 40 176 204
3 293 307 320 40 176 204
3 320 307 319 40 176 204
3 319 307 321 40 176 204
3 319 321 378 40 176 204
3 378 321 427 40 176 204
3 427 321 428 40 176 204
3 427 428 426 242 24 142
3 426 428 462 242 24 142
3 462 428 377 40 176 204
3 462 377 437 40 176 204
3 437 377 370 40 176 204
3 437 370 386 40 176 204
3 386 370 354 40 176 204
3 354 370 329 40 176 204
3 354 329 343 40 176 204
3 343 329 330 40 176 204
3 343 330 340 40 176 204
3 340 330 298 40 176 204
3 298 330 272 40 176 204
3 272 330 278 40 176 204
3 272 278 233 40 176 204
3 233 278 225 40 176 204
3 233 225 194 40 176 204
3 194 225 188 40 176 204
3 188 225 236 40 176 204
3 188 236 178 40 176 204
3 178 236 184 40 176 204
3 178 184 160 40 176 204
3 160 184 159 40 176 204
3 159 184 168 40 176 204
3 159 168 698 40 176 204
3 698 168 182 40 176 204
3 182 168 191 40 176 204
3 182 191 162 40 176 204
3 162 191 155 40 176 204
3 155 191 216 40 176 204
3 155 216 181 40 176 204
3 181 216 135 40 176 204
3 135 216 211 40 176 204
3 211 216 240 40 176 204
3 211 240 250 40 176 204
3 250 240 274 40 176 204
3 250 274 293 40 176 204
3 250 293 288 40 176 204
3 288 293 297 40 176 204
3 297 293 320 40 176 204
3 297 320 339 40 176 204
3 339 320 373 40 176 204
3 373 320 348 40 176 204
3 348 320 319 40 176 204
3 348 319 378 40 176 204
3 348 378 450 40 176 204
3 450 378 427 40 176 204
3 450 427 483 242 24 142
3 483 427 466 242 24 142
3 466 427 426 242 24 142
3 466 426 488 242 24 142
3 488 426 500 242 24 142
3 500 426 462 242 24 142
3 500 462 456 242 24 142
3 456 462 437 242 24 142
3 456 437 463 242 24 142
3 463 437 441 40 176 204
3 441 437 401 40 176 204
3 401 437 386 40 176 204
3 401 386 375 40 176 204
3 375 386 357 40 176 204
3 357 386 354 40 176 204
3 357 354 343 40 176 204
3 357 343 340 40 176 204
3 357 340 337 40 176 204
3 337 340 298 40 176 204
3 337 298 314 40 176 204
3 314 298 283 40 176 204
3 283 298 272 40 176 204
3 283 272 266 40 176 204
3 266 272 205 40 176 204
3 205 272 233 40 176 204
3 205 233 194 40 176 204
3 205 194 179 40 176 204
3 179 194 188 40 176 204
3 179 188 169 40 176 204
3 169 188 170 40 176 204
3 170 188 178 40 176 204
3 170 178 160 40 176 204
3 170 160 142 40 176 204
3 142 160 133 40 176 204
3 133 160 159 40 176 204
3 133 159 123 40 176 204
3 123 159 146 242 221 72
3 146 159 175 242 221 72
3 175 159 699 242 221 72
3 699 159 698 242 221 72
3 699 698 700 242 221 72
3 700 698 182 242 221 72
3 700 182 162 40 176 204
3 700 162 153 242 221 72
3 153 162 155 40 176 204
3 153 155 127 40 176 204
3 127 155 181 40 176 204
3 127 181 143 40 176 204
3 143 181 135 40 176 204
3 143 135 130 40 176 204
3 130 135 128 40 176 204
3 128 135 202 40 176 204
3 202 135 211 40 176 204
3 202 211 218 40 176 204
3 218 211 229 40 176 204
3 229 211 250 40 176 204
3 229 250 288 40 176 204
3 229 288 273 40 176 204
3 273 288 299 40 176 204
3 299 288 297 40 176 204
3 299 297 324 40 176 204
3 324 297 339 40 176 204
3 324 339 423 40 176 204
3 423 339 373 40 176 204
3 423 373 450 40 176 204
3 450 373 348 40 176 204
3 423 450 447 242 24 142
3 447 450 468 242 24 142
3 468 450 483 242 24 142
3 468 483 508 242 24 142
3 508 483 488 242 24 142
3 488 483 466 242 24 142
3 508 488 512 242 24 142
3 512 488 500 242 24 142
3 512 500 516 242 24 142
3 516 500 496 242 24 142
3 496 500 456 242 24 142
3 496 456 498 242 24 142
3 498 456 463 242 24 142
3 498 463 481 242 24 142
3 481 463 470 40 176 204
3 470 463 441 40 176 204
3 470 441 442 40 176 204
3 442 441 401 40 176 204
3 442 401 396 40 176 204
3 396 401 380 40 176 204
3 380 401 375 40 176 204
3 380 375 367 40 176 204
3 367 375 357 40 176 204
3 367 357 360 40 176 204
3 360 357 342 40 176 204
3 342 357 337 40 176 204
3 342 337 326 40 176 204
3 326 337 314 40 176 204
3 326 314 292 40 176 204
3 292 314 269 40 176 204
3 269 314 266 40 176 204
3 266 314 283 40 176 204
3 269 266 228 40 176 204
3 228 266 213 40 176 204
3 213 266 205 40 176 204
3 213 205 179 40 176 204
3 213 179 201 40 176 204
3 201 179 171 40 176 204
3 171 179 157 40 176 204
3 157 179 169 40 176 204
3 157 169 147 40 176 204
3 147 169 149 40 176 204
3 149 169 170 40 176 204
3 149 170 126 40 176 204
3 126 170 142 40 176 204
3 126 142 123 40 176 204
3 123 142 133 40 176 204
3 126 123 107 40 176 204
3 107 123 106 40 176 204
3 106 123 113 242 221 72
3 113 123 152 242 221 72
3 152 123 146 242 221 72
3 152 146 150 242 221 72
3 150 146 175 242 221 72
3 150 175 189 242 221 72
3 189 175 227 242 221 72
3 227 175 699 242 221 72
3 227 699 223 242 221 72
3 223 699 700 242 221 72
3 223 700 221 242 221 72
3 221 700 145 242 221 72
3 145 700 153 242 221 72
3 145 153 139 242 221 72
3 139 153 127 40 176 204
3 139 127 120 40 176 204
3 120 127 143 40 176 204
3 120 143 130 40 176 204
3 120 130 104 40 176 204
3 104 130 92 40 176 204
3 92 130 109 40 176 204
3 109 130 128 40 176 204
3 109 128 110 40 176 204
3 110 128 158 40 176 204
3 158 128 202 40 176 204
3 158 202 217 40 176 204
3 217 202 218 40 176 204
3 217 218 249 40 176 204
3 249 218 229 40 176 204
3 249 229 273 40 176 204
3 249 273 264 40 176 204
3 264 273 301 40 176 204
3 301 273 299 40 176 204
3 301 299 310 40 176 204
3 310 299 347 40 176 204
3 347 299 324 40 176 204
3 347 324 374 40 176 204
3 374 324 422 40 176 204
3 422 324 423 40 176 204
3 422 423 455 40 176 204
3 455 423 447 242 24 142
3 455 447 467 242 24 142
3 467 447 485 242 24 142
3 485 447 468 242 24 142
3 485 468 509 242 24 142
3 509 468 508 242 24 142
3 509 508 518 242 24 142
3 518 508 512 242 24 142
3 518 512 535 242 24 142
3 535 512 525 242 24 142
3 525 512 516 242 24 142
3 525 516 520 242 24 142
3 520 516 496 242 24 142
3 520 496 523 242 24 142
3 523 496 498 242 24 142
3 523 498 484 242 24 142
3 484 498 481 242 24 142
3 484 481 1 242 24 142
3 1 481 474 40 176 204
3 474 481 470 40 176 204
3 474 470 451 40 176 204
3 451 470 442 40 176 204
3 451 442 457 242 24 142
3 457 442 403 242 24 142
3 403 442 396 40 176 204
3 403 396 372 40 176 204
3 372 396 380 40 176 204
3 372 380 367 40 176 204
3 372 367 360 40 176 204
3 372 360 334 40 176 204
3 334 360 342 40 176 204
3 334 342 326 40 176 204
3 334 326 313 40 176 204
3 313 326 252 40 176 204
3 252 326 292 40 176 204
3 252 292 239 40 176 204
3 239 292 269 40 176 204
3 239 269 228 40 176 204
3 239 228 201 40 176 204
3 201 228 213 40 176 204
3 239 201 210 40 176 204
3 210 201 171 40 176 204
3 210 171 183 40 176 204
3 183 171 164 40 176 204
3 164 171 124 40 176 204
3 124 171 157 40 176 204
3 124 157 147 40 176 204
3 124 147 112 40 176 204
3 112 147 149 40 176 204
3 112 149 126 40 176 204
3 112 126 99 40 176 204
3 99 126 107 40 176 204
3 99 107 98 40 176 204
3 98 107 106 40 176 204
3 98 106 90 40 176 204
3 90 106 105 40 176 204
3 105 106 113 242 221 72
3 105 113 131 242 221 72
3 131 113 152 242 221 72
3 131 152 174 242 221 72
3 174 152 199 242 221 72
3 199 152 150 242 221 72
3 199 150 187 242 221 72
3 187 150 189 242 221 72
3 187 189 244 242 221 72
3 244 189 227 242 221 72
3 244 227 241 242 221 72
3 241 227 223 242 221 72
3 241 223 221 242 221 72
3 241 221 271 242 221 72
3 271 221 198 242 221 72
3 198 221 206 242 221 72
3 206 221 145 242 221 72
3 206 145 163 242 221 72
3 163 145 139 242 221 72
3 163 139 118 242 221 72
3 118 139 120 242 221 72
3 118 120 115 242 221 72
3 115 120 104 40 176 204
3 115 104 100 40 176 204
3 100 104 102 40 176 204
3 102 104 92 40 176 204
3 102 92 88 40 176 204
3 88 92 109 40 176 204
3 88 109 101 40 176 204
3 101 109 110 40 176 204
3 101 110 121 40 176 204
3 121 110 158 40 176 204
3 121 158 140 40 176 204
3 140 158 204 40 176 204
3 204 158 217 40 176 204
3 204 217 264 40 176 204
3 264 217 249 40 176 204
3 204 264 222 40 176 204
3 222 264 260 40 176 204
3 260 264 256 40 176 204
3 256 264 301 40 176 204
3 256 301 315 40 176 204
3 315 301 310 40 176 204
3 315 310 346 40 176 204
3 346 310 349 40 176 204
3 349 310 347 40 176 204
3 349 347 374 40 176 204
3 349 374 404 40 176 204
3 404 374 397 40 176 204
3 397 374 416 40 176 204
3 416 374 410 40 176 204
3 410 374 422 40 176 204
3 410 422 455 40 176 204
3 410 455 443 40 176 204
3 443 455 446 40 176 204
3 446 455 467 242 24 142
3 446 467 491 242 24 142
3 491 467 485 242 24 142
3 491 485 526 242 24 142
3 526 485 517 242 24 142
3 517 485 509 242 24 142
3 517 509 518 242 24 142
3 517 518 511 242 24 142
3 511 518 544 242 24 142
3 544 518 535 242 24 142
3 544 535 559 242 24 142
3 559 535 543 242 24 142
3 543 535 525 242 24 142
3 543 525 548 242 24 142
3 548 525 520 242 24 142
3 548 520 532 242 24 142
3 532 520 523 242 24 142
3 532 523 529 242 24 142
3 529 523 503 242 24 142
3 503 523 489 242 24 142
3 489 523 484 242 24 142
3 489 484 1 242 24 142
3 489 1 492 40 176 204
3 492 1 722 40 176 204
3 722 1 474 40 176 204
3 722 474 479 40 176 204
3 479 474 475 242 24 142
3 475 474 451 242 24 142
3 475 451 480 242 24 142
3 480 451 457 242 24 142
3 480 457 473 242 24 142
3 473 457 403 242 24 142
3 473 403 417 242 24 142
3 417 403 372 40 176 204
3 417 372 390 40 176 204
3 390 372 334 40 176 204
3 390 334 313 40 176 204
3 390 313 344 40 176 204
3 344 313 295 40 176 204
3 295 313 252 40 176 204
3 295 252 276 40 176 204
3 276 252 234 40 176 204
3 234 252 239 40 176 204
3 234 239 210 40 176 204
3 234 210 196 40 176 204
3 196 210 183 40 176 204
3 196 183 156 40 176 204
3 156 183 164 40 176 204
3 156 164 144 40 176 204
3 144 164 122 40 176 204
3 122 164 124 40 176 204
3 122 124 117 40 176 204
3 117 124 114 40 176 204
3 114 124 112 40 176 204
3 114 112 94 40 176 204
3 94 112 93 40 176 204
3 93 112 99 40 176 204
3 93 99 87 40 176 204
3 87 99 98 40 176 204
3 87 98 76 40 176 204
3 76 98 84 40 176 204
3 84 98 90 40 176 204
3 84 90 100 40 176 204
3 100 90 708 40 176 204
3 708 90 105 40 176 204
3 708 105 115 242 221 72
3 115 105 129 242 221 72
3 129 105 131 242 221 72
3 129 131 141 242 221 72
3 141 131 174 242 221 72
3 141 174 163 242 221 72
3 163 174 190 242 221 72
3 190 174 186 242 221 72
3 186 174 199 242 221 72
3 186 199 212 242 221 72
3 212 199 226 242 221 72
3 226 199 187 242 221 72
3 226 187 220 127 20 204
3 220 187 244 242 221 72
3 220 244 277 127 20 204
3 277 244 247 127 20 204
3 247 244 241 127 20 204
3 247 241 286 127 20 204
3 286 241 271 127 20 204
3 286 271 279 127 20 204
3 279 271 248 127 20 204
3 248 271 198 127 20 204
3 248 198 212 127 20 204
3 212 198 186 242 221 72
3 186 198 190 242 221 72
3 190 198 163 242 221 72
3 163 198 206 242 221 72
3 248 212 245 127 20 204
3 245 212 262 127 20 204
3 262 212 237 127 20 204
3 237 212 226 127 20 204
3 237 226 257 127 20 204
3 257 226 220 127 20 204
3 257 220 277 127 20 204
3 257 277 331 127 20 204
3 331 277 270 127 20 204
3 270 277 247 127 20 204
3 270 247 286 127 20 204
3 270 286 316 127 20 204
3 316 286 317 127 20 204
3 317 286 311 127 20 204
3 311 286 279 127 20 204
3 311 279 280 127 20 204
3 280 279 248 127 20 204
3 280 248 245 127 20 204
3 280 245 265 127 20 204
3 265 245 262 127 20 204
3 265 262 296 127 20 204
3 296 262 237 127 20 204
3 296 237 257 127 20 204
3 296 257 331 127 20 204
3 296 331 312 127 20 204
3 312 331 351 127 20 204
3 351 331 316 127 20 204
3 316 331 270 127 20 204
3 351 316 362 48 242 105
3 362 316 353 48 242 105
3 353 316 345 48 242 105
3 345 316 317 127 20 204
3 345 317 341 127 20 204
3 341 317 311 127 20 204
3 341 311 306 127 20 204
3 306 311 280 127 20 204
3 306 280 303 127 20 204
3 303 280 265 127 20 204
3 303 265 296 127 20 204
3 303 296 305 127 20 204
3 305 296 312 127 20 204
3 305 312 322 127 20 204
3 322 312 366 48 242 105
3 366 312 351 48 242 105
3 366 351 406 48 242 105
3 406 351 703 48 242 105
3 703 351 379 48 242 105
3 379 351 362 48 242 105
3 379 362 353 48 242 105
3 379 353 701 48 242 105
3 701 353 383 48 242 105
3 383 353 345 48 242 105
3 383 345 356 48 242 105
3 356 345 341 127 20 204
3 356 341 376 48 242 105
3 376 341 365 48 242 105
3 365 341 305 48 242 105
3 305 341 306 127 20 204
3 305 306 303 127 20 204
3 365 305 322 48 242 105
3 365 322 361 48 242 105
3 361 322 350 48 242 105
3 350 322 366 48 242 105
3 350 366 394 48 242 105
3 394 366 406 48 242 105
3 394 406 702 48 242 105
3 702 406 703 48 242 105
3 702 703 379 48 242 105
3 702 379 394 48 242 105
3 394 379 393 48 242 105
3 393 379 701 48 242 105
3 393 701 400 48 242 105
3 400 701 714 48 242 105
3 714 701 0 48 242 105
3 0 701 713 48 242 105
3 713 701 387 48 242 105
3 387 701 383 48 242 105
3 387 383 376 48 242 105
3 376 383 356 48 242 105
3 387 376 388 48 242 105
3 388 376 365 48 242 105
3 388 365 713 48 242 105
3 713 365 382 48 242 105
3 382 365 361 48 242 105
3 382 361 424 48 242 105
3 424 361 350 48 242 105
3 424 350 394 48 242 105
3 424 394 393 48 242 105
3 424 393 400 48 242 105
3 424 400 436 48 242 105
3 436 400 419 48 242 105
3 419 400 714 48 242 105
3 419 714 399 48 242 105
3 399 714 382 48 242 105
3 382 714 438 48 242 105
3 438 714 425 48 242 105
3 425 714 0 48 242 105
3 425 0 435 48 242 105
3 435 0 398 48 242 105
3 398 0 382 48 242 105
3 382 0 713 48 242 105
3 398 382 438 48 242 105
3 398 438 435 48 242 105
3 435 438 425 48 242 105
3 399 382 424 48 242 105
3 399 424 436 48 242 105
3 399 436 419 48 242 105
3 388 713 712 48 242 105
3 712 713 387 48 242 105
3 712 387 405 48 242 105
3 405 387 388 48 242 105
3 405 388 407 48 242 105
3 407 388 712 48 242 105
3 407 712 405 48 242 105
3 141 163 118 242 221 72
3 141 118 129 242 221 72
3 129 118 115 242 221 72
3 708 115 100 40 176 204
3 84 100 102 40 176 204
3 84 102 75 40 176 204
3 75 102 77 40 176 204
3 77 102 88 40 176 204
3 77 88 64 40 176 204
3 64 88 79 40 176 204
3 79 88 101 40 176 204
3 79 101 74 40 176 204
3 74 101 97 40 176 204
3 97 101 121 40 176 204
3 97 121 125 40 176 204
3 125 121 140 40 176 204
3 125 140 136 40 176 204
3 136 140 154 40 176 204
3 154 140 204 40 176 204
3 154 204 180 40 176 204
3 180 204 222 40 176 204
3 180 222 185 40 176 204
3 185 222 246 40 176 204
3 246 222 253 40 176 204
3 253 222 260 40 176 204
3 253 260 294 40 176 204
3 294 260 256 40 176 204
3 294 256 309 40 176 204
3 309 256 315 40 176 204
3 309 315 358 40 176 204
3 358 315 364 40 176 204
3 364 315 346 40 176 204
3 364 346 404 40 176 204
3 404 346 349 40 176 204
3 364 404 434 40 176 204
3 434 404 397 40 176 204
3 434 397 439 40 176 204
3 439 397 416 40 176 204
3 439 416 460 40 176 204
3 460 416 469 40 176 204
3 469 416 448 40 176 204
3 448 416 443 40 176 204
3 443 416 410 40 176 204
3 448 443 459 40 176 204
3 459 443 446 40 176 204
3 459 446 478 242 24 142
3 478 446 491 242 24 142
3 478 491 495 242 24 142
3 495 491 526 242 24 142
3 495 526 524 242 24 142
3 524 526 541 242 24 142
3 541 526 511 242 24 142
3 511 526 517 242 24 142
3 541 511 549 242 24 142
3 549 511 544 242 24 142
3 549 544 571 96 204 61
3 571 544 577 96 204 61
3 577 544 573 96 204 61
3 573 544 559 96 204 61
3 573 559 570 96 204 61
3 570 559 575 96 204 61
3 575 559 543 96 204 61
3 575 543 565 96 204 61
3 565 543 555 242 24 142
3 555 543 548 242 24 142
3 555 548 554 242 24 142
3 554 548 529 242 24 142
3 529 548 532 242 24 142
3 554 529 539 242 24 142
3 539 529 530 242 24 142
3 530 529 503 242 24 142
3 530 503 728 242 24 142
3 728 503 727 242 24 142
3 727 503 494 242 24 142
3 494 503 489 242 24 142
3 494 489 492 40 176 204
3 494 492 504 242 24 142
3 504 492 493 242 24 142
3 493 492 722 40 176 204
3 493 722 479 40 176 204
3 493 479 475 242 24 142
3 493 475 506 242 24 142
3 506 475 505 242 24 142
3 505 475 480 242 24 142
3 505 480 507 242 24 142
3 507 480 473 242 24 142
3 507 473 497 242 24 142
3 497 473 418 242 24 142
3 418 473 417 242 24 142
3 418 417 390 40 176 204
3 418 390 368 40 176 204
3 368 390 344 40 176 204
3 368 344 333 40 176 204
3 333 344 295 40 176 204
3 333 295 304 40 176 204
3 304 295 294 40 176 204
3 294 295 276 40 176 204
3 294 276 253 40 176 204
3 253 276 214 40 176 204
3 214 276 234 40 176 204
3 214 234 196 40 176 204
3 214 196 185 40 176 204
3 185 196 709 40 176 204
3 709 196 711 40 176 204
3 711 196 156 40 176 204
3 711 156 144 40 176 204
3 711 144 177 242 221 72
3 177 144 166 242 221 72
3 166 144 138 242 221 72
3 138 144 122 242 221 72
3 138 122 116 40 176 204
3 116 122 117 40 176 204
3 116 117 95 40 176 204
3 95 117 114 40 176 204
3 95 114 94 40 176 204
3 95 94 86 40 176 204
3 86 94 83 40 176 204
3 83 94 80 40 176 204
3 80 94 93 40 176 204
3 80 93 87 40 176 204
3 80 87 81 40 176 204
3 81 87 76 40 176 204
3 81 76 66 40 176 204
3 66 76 75 40 176 204
3 75 76 84 40 176 204
3 66 75 77 40 176 204
3 66 77 61 204 61 61
3 61 77 64 40 176 204
3 61 64 60 204 61 61
3 60 64 69 204 61 61
3 69 64 79 40 176 204
3 69 79 74 40 176 204
3 69 74 72 40 176 204
3 72 74 91 40 176 204
3 91 74 97 40 176 204
3 91 97 119 40 176 204
3 119 97 125 40 176 204
3 119 125 137 242 221 72
3 137 125 134 242 221 72
3 134 125 136 242 221 72
3 134 136 148 242 221 72
3 148 136 709 242 221 72
3 709 136 180 40 176 204
3 180 136 154 40 176 204
3 709 180 185 40 176 204
3 148 709 165 242 221 72
3 165 709 203 242 221 72
3 203 709 710 242 221 72
3 710 709 711 242 221 72
3 710 711 195 242 221 72
3 195 711 177 242 221 72
3 195 177 192 242 221 72
3 192 177 166 242 221 72
3 192 166 176 242 221 72
3 176 166 138 242 221 72
3 176 138 167 242 221 72
3 167 138 132 242 221 72
3 132 138 116 242 221 72
3 132 116 108 242 221 72
3 108 116 103 40 176 204
3 103 116 95 40 176 204
3 103 95 85 40 176 204
3 85 95 86 40 176 204
3 85 86 78 40 176 204
3 78 86 65 40 176 204
3 65 86 70 204 61 61
3 70 86 67 204 61 61
3 67 86 83 204 61 61
3 67 83 82 204 61 61
3 82 83 80 204 61 61
3 82 80 73 204 61 61
3 73 80 81 204 61 61
3 73 81 55 204 61 61
3 55 81 59 204 61 61
3 59 81 66 204 61 61
3 59 66 54 204 61 61
3 54 66 61 204 61 61
3 54 61 707 204 61 61
3 707 61 43 204 61 61
3 43 61 60 204 61 61
3 43 60 24 204 61 61
3 24 60 41 204 61 61
3 41 60 57 204 61 61
3 57 60 69 204 61 61
3 57 69 65 204 61 61
3 65 69 72 40 176 204
3 65 72 78 40 176 204
3 78 72 85 40 176 204
3 85 72 89 40 176 204
3 89 72 91 40 176 204
3 89 91 119 40 176 204
3 89 119 96 40 176 204
3 96 119 108 40 176 204
3 108 119 111 242 221 72
3 111 119 137 242 221 72
3 111 137 132 242 221 72
3 132 137 172 242 221 72
3 172 137 161 242 221 72
3 161 137 151 242 221 72
3 151 137 134 242 221 72
3 151 134 148 242 221 72
3 151 148 165 242 221 72
3 151 165 193 242 221 72
3 193 165 203 242 221 72
3 193 203 224 242 221 72
3 224 203 195 242 221 72
3 195 203 710 242 221 72
3 224 195 231 242 221 72
3 231 195 215 242 221 72
3 215 195 192 242 221 72
3 215 192 208 242 221 72
3 208 192 176 242 221 72
3 208 176 207 242 221 72
3 207 176 167 242 221 72
3 207 167 173 242 221 72
3 173 167 172 242 221 72
3 172 167 132 242 221 72
3 173 172 161 242 221 72
3 173 161 209 242 221 72
3 209 161 151 242 221 72
3 209 151 197 242 221 72
3 197 151 193 242 221 72
3 197 193 219 242 221 72
3 219 193 224 242 221 72
3 219 224 263 242 221 72
3 263 224 231 242 221 72
3 263 231 289 242 221 72
3 289 231 215 242 221 72
3 289 215 238 127 20 204
3 238 215 251 127 20 204
3 251 215 208 242 221 72
3 251 208 207 242 221 72
3 251 207 232 127 20 204
3 232 207 235 242 221 72
3 235 207 173 242 221 72
3 235 173 209 242 221 72
3 235 209 230 242 221 72
3 230 209 197 242 221 72
3 230 197 219 242 221 72
3 230 219 259 242 221 72
3 259 219 263 242 221 72
3 259 263 267 127 20 204
3 267 263 289 127 20 204
3 267 289 327 127 20 204
3 327 289 281 127 20 204
3 281 289 238 127 20 204
3 281 238 251 127 20 204
3 281 251 275 127 20 204
3 275 251 284 127 20 204
3 284 251 232 127 20 204
3 284 232 268 127 20 204
3 268 232 235 127 20 204
3 268 235 230 127 20 204
3 268 230 258 127 20 204
3 258 230 259 127 20 204
3 258 259 287 127 20 204
3 287 259 267 127 20 204
3 287 267 323 127 20 204
3 323 267 327 127 20 204
3 323 327 336 127 20 204
3 336 327 352 127 20 204
3 352 327 328 127 20 204
3 328 327 281 127 20 204
3 328 281 275 127 20 204
3 328 275 300 127 20 204
3 300 275 284 127 20 204
3 300 284 308 127 20 204
3 308 284 282 127 20 204
3 282 284 268 127 20 204
3 282 268 258 127 20 204
3 282 258 325 127 20 204
3 325 258 287 127 20 204
3 325 287 323 127 20 204
3 325 323 336 127 20 204
3 325 336 335 127 20 204
3 335 336 369 127 20 204
3 369 336 359 48 242 105
3 359 336 363 127 20 204
3 363 336 352 127 20 204
3 363 352 381 127 20 204
3 381 352 392 48 242 105
3 392 352 338 48 242 105
3 338 352 328 127 20 204
3 338 328 300 127 20 204
3 338 300 308 127 20 204
3 338 308 389 48 242 105
3 389 308 395 48 242 105
3 395 308 355 48 242 105
3 355 308 318 127 20 204
3 318 308 282 127 20 204
3 318 282 325 127 20 204
3 318 325 335 127 20 204
3 318 335 355 127 20 204
3 355 335 369 48 242 105
3 355 369 433 48 242 105
3 433 369 411 48 242 105
3 411 369 415 48 242 105
3 415 369 359 48 242 105
3 415 359 371 48 242 105
3 371 359 363 48 242 105
3 371 363 385 48 242 105
3 385 363 381 48 242 105
3 385 381 719 48 242 105
3 719 381 392 48 242 105
3 719 392 429 48 242 105
3 429 392 384 48 242 105
3 384 392 389 48 242 105
3 389 392 338 48 242 105
3 384 389 413 48 242 105
3 413 389 720 48 242 105
3 720 389 716 48 242 105
3 716 389 391 48 242 105
3 391 389 395 48 242 105
3 391 395 414 48 242 105
3 414 395 431 48 242 105
3 431 395 402 48 242 105
3 402 395 433 48 242 105
3 433 395 355 48 242 105
3 402 433 415 48 242 105
3 415 433 715 48 242 105
3 715 433 421 48 242 105
3 421 433 411 48 242 105
3 421 411 415 48 242 105
3 421 415 715 48 242 105
3 402 415 718 48 242 105
3 718 415 412 48 242 105
3 412 415 371 48 242 105
3 412 371 697 48 242 105
3 697 371 385 48 242 105
3 697 385 720 48 242 105
3 720 385 719 48 242 105
3 720 719 409 48 242 105
3 409 719 429 48 242 105
3 409 429 384 48 242 105
3 409 384 413 48 242 105
3 409 413 720 48 242 105
3 697 720 716 48 242 105
3 697 716 444 48 242 105
3 444 716 717 48 242 105
3 717 716 391 48 242 105
3 717 391 453 48 242 105
3 453 391 721 48 242 105
3 721 391 445 48 242 105
3 445 391 414 48 242 105
3 445 414 432 48 242 105
3 432 414 430 48 242 105
3 430 414 431 48 242 105
3 430 431 718 48 242 105
3 718 431 461 48 242 105
3 461 431 449 48 242 105
3 449 431 402 48 242 105
3 449 402 440 48 242 105
3 440 402 718 48 242 105
3 440 718 461 48 242 105
3 440 461 449 48 242 105
3 430 718 445 48 242 105
3 445 718 412 48 242 105
3 445 412 721 48 242 105
3 721 412 697 48 242 105
3 721 697 444 48 242 105
3 721 444 453 48 242 105
3 453 444 454 48 242 105
3 454 444 465 48 242 105
3 465 444 717 48 242 105
3 465 717 453 48 242 105
3 465 453 454 48 242 105
3 430 445 464 48 242 105
3 464 445 472 48 242 105
3 472 445 432 48 242 105
3 472 432 464 48 242 105
3 464 432 430 48 242 105
3 111 132 108 242 221 72
3 96 108 103 40 176 204
3 96 103 85 40 176 204
3 96 85 89 40 176 204
3 57 65 48 204 61 61
3 48 65 51 204 61 61
3 51 65 706 204 61 61
3 706 65 52 204 61 61
3 52 65 70 204 61 61
3 52 70 67 204 61 61
3 52 67 62 204 61 61
3 62 67 71 204 61 61
3 71 67 82 204 61 61
3 71 82 68 204 61 61
3 68 82 73 204 61 61
3 68 73 55 204 61 61
3 68 55 58 204 61 61
3 58 55 38 204 61 61
3 38 55 25 204 61 61
3 25 55 59 204 61 61
3 25 59 34 204 61 61
3 34 59 54 204 61 61
3 34 54 35 204 61 61
3 35 54 707 204 61 61
3 35 707 20 204 61 61
3 20 707 8 204 61 61
3 8 707 43 204 61 61
3 8 43 24 204 61 61
3 8 24 14 204 61 61
3 14 24 19 204 61 61
3 19 24 41 204 61 61
3 19 41 37 204 61 61
3 37 41 48 204 61 61
3 48 41 57 204 61 61
3 37 48 47 204 61 61
3 47 48 51 204 61 61
3 47 51 45 204 61 61
3 45 51 40 204 61 61
3 40 51 50 204 61 61
3 50 51 706 204 61 61
3 50 706 49 204 61 61
3 49 706 45 204 61 61
3 45 706 53 204 61 61
3 53 706 52 204 61 61
3 53 52 40 204 61 61
3 40 52 44 204 61 61
3 44 52 62 204 61 61
3 44 62 46 204 61 61
3 46 62 56 204 61 61
3 56 62 63 204 61 61
3 63 62 71 204 61 61
3 63 71 68 204 61 61
3 63 68 58 204 61 61
3 63 58 56 204 61 61
3 56 58 42 204 61 61
3 42 58 38 204 61 61
3 42 38 28 204 61 61
3 28 38 21 204 61 61
3 21 38 25 204 61 61
3 21 25 17 204 61 61
3 17 25 32 204 61 61
3 32 25 34 204 61 61
3 32 34 35 204 61 61
3 32 35 27 204 61 61
3 27 35 20 204 61 61
3 27 20 17 204 61 61
3 17 20 705 204 61 61
3 705 20 8 204 61 61
3 705 8 6 204 61 61
3 6 8 14 204 61 61
3 6 14 10 204 61 61
3 10 14 19 204 61 61
3 10 19 16 204 61 61
3 16 19 37 204 61 61
3 16 37 18 204 61 61
3 18 37 39 204 61 61
3 39 37 47 204 61 61
3 39 47 49 204 61 61
3 49 47 50 204 61 61
3 50 47 45 204 61 61
3 50 45 53 204 61 61
3 50 53 40 204 61 61
3 39 49 33 204 61 61
3 33 49 45 204 61 61
3 33 45 40 204 61 61
3 33 40 26 204 61 61
3 26 40 31 204 61 61
3 31 40 44 204 61 61
3 31 44 29 204 61 61
3 29 44 46 204 61 61
3 29 46 36 204 61 61
3 36 46 56 204 61 61
3 36 56 42 204 61 61
3 36 42 30 204 61 61
3 30 42 15 204 61 61
3 15 42 28 204 61 61
3 15 28 21 204 61 61
3 15 21 12 204 61 61
3 12 21 5 204 61 61
3 5 21 17 204 61 61
3 5 17 705 204 61 61
3 5 705 704 204 61 61
3 704 705 6 204 61 61
3 704 6 4 204 61 61
3 4 6 10 204 61 61
3 4 10 7 204 61 61
3 7 10 16 204 61 61
3 7 16 18 204 61 61
3 7 18 13 204 61 61
3 13 18 26 204 61 61
3 26 18 39 204 61 61
3 26 39 33 204 61 61
3 13 26 31 204 61 61
3 13 31 23 204 61 61
3 23 31 29 204 61 61
3 23 29 22 204 61 61
3 22 29 30 204 61 61
3 30 29 36 204 61 61
3 22 30 15 204 61 61
3 22 15 11 204 61 61
3 11 15 12 204 61 61
3 11 12 3 204 61 61
3 3 12 2 204 61 61
3 2 12 5 204 61 61
3 2 5 704 204 61 61
3 2 704 3 204 61 61
3 3 704 4 204 61 61
3 3 4 9 204 61 61
3 9 4 7 204 61 61
3 9 7 13 204 61 61
3 9 13 23 204 61 61
3 9 23 11 204 61 61
3 11 23 22 204 61 61
3 9 11 3 204 61 61
3 27 17 32 204 61 61
3 214 185 246 40 176 204
3 214 246 253 40 176 204
3 304 294 309 40 176 204
3 304 309 358 40 176 204
3 304 358 333 40 176 204
3 333 358 368 40 176 204
3 368 358 408 242 24 142
3 408 358 420 242 24 142
3 420 358 364 40 176 204
3 420 364 434 242 24 142
3 420 434 452 242 24 142
3 452 434 471 242 24 142
3 471 434 439 242 24 142
3 471 439 460 242 24 142
3 471 460 476 242 24 142
3 476 460 469 242 24 142
3 476 469 486 242 24 142
3 486 469 724 242 24 142
3 724 469 458 40 176 204
3 458 469 448 40 176 204
3 458 448 459 40 176 204
3 458 459 478 242 24 142
3 458 478 724 242 24 142
3 724 478 502 242 24 142
3 502 478 495 242 24 142
3 502 495 524 242 24 142
3 502 524 729 242 24 142
3 729 524 540 242 24 142
3 540 524 541 242 24 142
3 540 541 546 242 24 142
3 546 541 567 242 24 142
3 567 541 576 96 204 61
3 576 541 571 96 204 61
3 571 541 549 96 204 61
3 576 571 586 96 204 61
3 586 571 603 96 204 61
3 603 571 599 96 204 61
3 599 571 577 96 204 61
3 599 577 601 96 204 61
3 601 577 573 96 204 61
3 601 573 591 96 204 61
3 591 573 570 96 204 61
3 591 570 598 96 204 61
3 598 570 578 96 204 61
3 578 570 575 96 204 61
3 578 575 580 96 204 61
3 580 575 565 96 204 61
3 580 565 555 242 24 142
3 580 555 554 242 24 142
3 580 554 584 96 204 61
3 584 554 582 96 204 61
3 582 554 560 96 204 61
3 560 554 539 96 204 61
3 560 539 546 242 24 142
3 546 539 540 242 24 142
3 540 539 530 242 24 142
3 540 530 729 242 24 142
3 729 530 728 242 24 142
3 729 728 723 242 24 142
3 723 728 727 40 176 204
3 723 727 504 242 24 142
3 504 727 494 242 24 142
3 723 504 521 242 24 142
3 521 504 537 242 24 142
3 537 504 533 242 24 142
3 533 504 506 242 24 142
3 506 504 493 242 24 142
3 533 506 519 242 24 142
3 519 506 505 242 24 142
3 519 505 522 242 24 142
3 522 505 507 242 24 142
3 522 507 531 242 24 142
3 531 507 497 242 24 142
3 531 497 482 242 24 142
3 482 497 408 242 24 142
3 408 497 418 242 24 142
3 408 418 368 242 24 142
3 482 408 452 242 24 142
3 452 408 420 242 24 142
3 482 452 487 242 24 142
3 487 452 477 242 24 142
3 477 452 471 242 24 142
3 477 471 476 242 24 142
3 477 476 501 242 24 142
3 501 476 499 242 24 142
3 499 476 486 242 24 142
3 499 486 490 242 24 142
3 490 486 724 242 24 142
3 490 724 502 242 24 142
3 490 502 725 242 24 142
3 725 502 729 242 24 142
3 725 729 723 242 24 142
3 725 723 726 242 24 142
3 726 723 521 242 24 142
3 726 521 514 242 24 142
3 514 521 537 242 24 142
3 514 537 545 242 24 142
3 545 537 558 242 24 142
3 558 537 552 242 24 142
3 552 537 536 242 24 142
3 536 537 533 242 24 142
3 536 533 519 242 24 142
3 536 519 527 242 24 142
3 527 519 522 242 24 142
3 527 522 531 242 24 142
3 527 531 534 242 24 142
3 534 531 528 242 24 142
3 528 531 482 242 24 142
3 528 482 515 242 24 142
3 515 482 487 242 24 142
3 515 487 510 242 24 142
3 510 487 477 242 24 142
3 510 477 501 242 24 142
3 510 501 551 242 24 142
3 551 501 513 242 24 142
3 513 501 499 242 24 142
3 513 499 514 242 24 142
3 514 499 726 242 24 142
3 726 499 490 242 24 142
3 726 490 725 242 24 142
3 513 514 545 242 24 142
3 513 545 566 242 24 142
3 566 545 558 242 24 142
3 566 558 568 242 24 142
3 568 558 552 242 24 142
3 568 552 569 96 204 61
3 569 552 563 96 204 61
3 563 552 553 96 204 61
3 553 552 542 242 24 142
3 542 552 536 242 24 142
3 542 536 553 242 24 142
3 553 536 527 242 24 142
3 553 527 550 242 24 142
3 550 527 534 242 24 142
3 550 534 561 242 24 142
3 561 534 564 96 204 61
3 564 534 528 242 24 142
3 564 528 547 242 24 142
3 547 528 538 242 24 142
3 538 528 515 242 24 142
3 538 515 551 242 24 142
3 551 515 510 242 24 142
3 538 551 557 242 24 142
3 557 551 566 242 24 142
3 566 551 513 242 24 142
3 557 566 556 242 24 142
3 556 566 568 96 204 61
3 556 568 595 96 204 61
3 595 568 605 96 204 61
3 605 568 569 96 204 61
3 605 569 590 96 204 61
3 590 569 593 96 204 61
3 593 569 563 96 204 61
3 593 563 579 96 204 61
3 579 563 553 96 204 61
3 579 553 550 96 204 61
3 579 550 561 96 204 61
3 579 561 583 96 204 61
3 583 561 574 96 204 61
3 574 561 564 96 204 61
3 574 564 562 96 204 61
3 562 564 547 96 204 61
3 562 547 538 96 204 61
3 562 538 572 96 204 61
3 572 538 556 96 204 61
3 556 538 557 96 204 61
3 572 556 581 96 204 61
3 581 556 585 96 204 61
3 585 556 595 96 204 61
3 585 595 607 96 204 61
3 607 595 605 96 204 61
3 607 605 614 96 204 61
3 614 605 621 96 204 61
3 621 605 590 96 204 61
3 621 590 612 96 204 61
3 612 590 588 96 204 61
3 588 590 593 96 204 61
3 588 593 579 96 204 61
3 588 579 583 96 204 61
3 588 583 606 96 204 61
3 606 583 596 96 204 61
3 596 583 574 96 204 61
3 596 574 589 96 204 61
3 589 574 562 96 204 61
3 589 562 594 96 204 61
3 594 562 572 96 204 61
3 594 572 581 96 204 61
3 594 581 597 96 204 61
3 597 581 608 96 204 61
3 608 581 585 96 204 61
3 608 585 620 96 204 61
3 620 585 607 96 204 61
3 620 607 614 96 204 61
3 620 614 639 96 204 61
3 639 614 625 96 204 61
3 625 614 621 96 204 61
3 625 621 627 96 204 61
3 627 621 612 96 204 61
3 627 612 622 96 204 61
3 622 612 609 96 204 61
3 609 612 606 96 204 61
3 606 612 588 96 204 61
3 609 606 596 96 204 61
3 609 596 615 96 204 61
3 615 596 589 96 204 61
3 615 589 632 96 204 61
3 632 589 594 96 204 61
3 632 594 597 96 204 61
3 632 597 616 96 204 61
3 616 597 608 96 204 61
3 616 608 620 96 204 61
3 616 620 628 96 204 61
3 628 620 639 96 204 61
3 628 639 640 96 204 61
3 640 639 625 96 204 61
3 640 625 644 96 204 61
3 644 625 649 96 204 61
3 649 625 627 96 204 61
3 649 627 643 96 204 61
3 643 627 633 96 204 61
3 633 627 622 96 204 61
3 633 622 630 96 204 61
3 630 622 609 96 204 61
3 630 609 615 96 204 61
3 630 615 632 96 204 61
3 630 632 636 96 204 61
3 636 632 664 96 204 61
3 664 632 628 96 204 61
3 628 632 616 96 204 61
3 664 628 655 56 48 242
3 655 628 640 56 48 242
3 655 640 667 56 48 242
3 667 640 644 96 204 61
3 667 644 649 56 48 242
3 667 649 663 56 48 242
3 663 649 665 56 48 242
3 665 649 643 56 48 242
3 665 643 654 56 48 242
3 654 643 645 56 48 242
3 645 643 633 56 48 242
3 645 633 642 56 48 242
3 642 633 636 56 48 242
3 636 633 630 96 204 61
3 642 636 664 56 48 242
3 642 664 671 56 48 242
3 671 664 683 56 48 242
3 683 664 655 56 48 242
3 683 655 667 56 48 242
3 683 667 692 56 48 242
3 692 667 663 56 48 242
3 692 663 735 56 48 242
3 735 663 736 56 48 242
3 736 663 733 56 48 242
3 733 663 676 56 48 242
3 676 663 665 56 48 242
3 676 665 670 56 48 242
3 670 665 654 56 48 242
3 670 654 666 56 48 242
3 666 654 685 56 48 242
3 685 654 661 56 48 242
3 661 654 645 56 48 242
3 661 645 642 56 48 242
3 661 642 671 56 48 242
3 661 671 687 56 48 242
3 687 671 731 56 48 242
3 731 671 732 56 48 242
3 732 671 683 56 48 242
3 732 683 692 56 48 242
3 732 692 731 56 48 242
3 731 692 735 56 48 242
3 731 735 736 56 48 242
3 731 736 734 56 48 242
3 734 736 694 56 48 242
3 694 736 733 56 48 242
3 694 733 691 56 48 242
3 691 733 676 56 48 242
3 691 676 695 56 48 242
3 695 676 670 56 48 242
3 695 670 681 56 48 242
3 681 670 666 56 48 242
3 681 666 686 56 48 242
3 686 666 737 56 48 242
3 737 666 685 56 48 242
3 737 685 730 56 48 242
3 730 685 682 56 48 242
3 682 685 677 56 48 242
3 677 685 661 56 48 242
3 677 661 687 56 48 242
3 677 687 734 56 48 242
3 734 687 731 56 48 242
3 677 734 682 56 48 242
3 682 734 730 56 48 242
3 730 734 694 56 48 242
3 730 694 737 56 48 242
3 737 694 686 56 48 242
3 686 694 691 56 48 242
3 686 691 681 56 48 242
3 681 691 695 56 48 242
3 560 546 567 96 204 61
3 560 567 587 96 204 61
3 587 567 600 96 204 61
3 600 567 586 96 204 61
3 586 567 576 96 204 61
3 600 586 603 96 204 61
3 600 603 619 96 204 61
3 619 603 623 96 204 61
3 623 603 604 96 204 61
3 604 603 599 96 204 61
3 604 599 601 96 204 61
3 604 601 629 96 204 61
3 629 601 602 96 204 61
3 602 601 591 96 204 61
3 602 591 610 96 204 61
3 610 591 598 96 204 61
3 610 598 613 96 204 61
3 613 598 578 96 204 61
3 613 578 584 96 204 61
3 584 578 580 96 204 61
3 613 584 617 96 204 61
3 617 584 618 96 204 61
3 618 584 582 96 204 61
3 618 582 592 96 204 61
3 592 582 560 96 204 61
3 592 560 587 96 204 61
3 592 587 611 96 204 61
3 611 587 600 96 204 61
3 611 600 619 96 204 61
3 611 619 638 96 204 61
3 638 619 623 96 204 61
3 638 623 635 96 204 61
3 635 623 604 96 204 61
3 635 604 629 96 204 61
3 635 629 647 96 204 61
3 647 629 634 96 204 61
3 634 629 602 96 204 61
3 634 602 610 96 204 61
3 634 610 626 96 204 61
3 626 610 617 96 204 61
3 617 610 613 96 204 61
3 626 617 637 96 204 61
3 637 617 624 96 204 61
3 624 617 618 96 204 61
3 624 618 611 96 204 61
3 611 618 592 96 204 61
3 624 611 638 96 204 61
3 624 638 631 96 204 61
3 631 638 652 96 204 61
3 652 638 653 56 48 242
3 653 638 635 96 204 61
3 653 635 648 56 48 242
3 648 635 659 56 48 242
3 659 635 647 56 48 242
3 659 647 650 56 48 242
3 650 647 634 56 48 242
3 650 634 646 56 48 242
3 646 634 626 96 204 61
3 646 626 656 56 48 242
3 656 626 637 96 204 61
3 656 637 641 96 204 61
3 641 637 631 96 204 61
3 631 637 624 96 204 61
3 641 631 652 96 204 61
3 641 652 657 56 48 242
3 657 652 679 56 48 242
3 679 652 743 56 48 242
3 743 652 674 56 48 242
3 674 652 653 56 48 242
3 674 653 648 56 48 242
3 674 648 748 56 48 242
3 748 648 745 56 48 242
3 745 648 659 56 48 242
3 745 659 650 56 48 242
3 745 650 689 56 48 242
3 689 650 675 56 48 242
3 675 650 660 56 48 242
3 660 650 646 56 48 242
3 660 646 651 56 48 242
3 651 646 656 56 48 242
3 651 656 658 56 48 242
3 658 656 657 56 48 242
3 657 656 641 56 48 242
3 658 657 662 56 48 242
3 662 657 679 56 48 242
3 662 679 747 56 48 242
3 747 679 739 56 48 242
3 739 679 743 56 48 242
3 739 743 749 56 48 242
3 749 743 748 56 48 242
3 748 743 674 56 48 242
3 749 748 745 56 48 242
3 749 745 689 56 48 242
3 749 689 742 56 48 242
3 742 689 738 56 48 242
3 738 689 680 56 48 242
3 680 689 675 56 48 242
3 680 675 668 56 48 242
3 668 675 660 56 48 242
3 668 660 651 56 48 242
3 668 651 673 56 48 242
3 673 651 658 56 48 242
3 673 658 690 56 48 242
3 690 658 693 56 48 242
3 693 658 662 56 48 242
3 693 662 747 56 48 242
3 693 747 741 56 48 242
3 741 747 742 56 48 242
3 742 747 739 56 48 242
3 742 739 749 56 48 242
3 741 742 738 56 48 242
3 741 738 744 56 48 242
3 744 738 688 56 48 242
3 688 738 680 56 48 242
3 688 680 672 56 48 242
3 672 680 668 56 48 242
3 672 668 673 56 48 242
3 672 673 669 56 48 242
3 669 673 678 56 48 242
3 678 673 690 56 48 242
3 678 690 684 56 48 242
3 684 690 740 56 48 242
3 740 690 746 56 48 242
3 746 690 693 56 48 242
3 746 693 741 56 48 242
3 746 741 744 56 48 242
3 746 744 669 56 48 242
3 669 744 672 56 48 242
3 672 744 688 56 48 242
3 746 669 740 56 48 242
3 740 669 684 56 48 242
3 684 669 678 56 48 242
