ply
format ascii 1.0
element vertex 752
property float x
property float y
property float z
element face 1500
property list uchar int vertex_indices
property uchar red
property uchar green
property uchar blue
end_header
-0.460862 -1.16244 7.48576
-0.58938 -0.32395 8.07653
-0.595584 0.050167 8.12513
0.622704 -0.164841 8.12005
-0.734491 -0.849845 7.82006
7.77301 0.390374 4.76392
-0.739793 0.106429 7.80923
0.135029 0.875107 7.71892
-0.686857 -0.822018 7.4973
0.467159 0.798283 7.66329
0.734996 0.124143 7.75983
-0.66504 -0.061858 7.49381
7.60194 0.408261 4.72794
0.667224 0.045185 7.41717
-0.639551 -0.264063 6.91439
-0.509629 0.486362 7.21283
7.22867 0.071177 4.82664
-0.338144 0.647959 7.16067
0.112583 -1.34096 7.14975
7.34757 0.489374 4.76656
0.509136 0.500754 7.18951
7.05202 0.469627 4.77315
7.31422 0.330853 4.8791
6.96807 0.111803 4.69601
6.67212 0.27572 4.84944
6.79891 0.410268 4.72101
0.652889 -0.282823 6.81259
0.124435 -1.38391 6.68053
-0.148612 0.386761 6.47885
6.98103 0.286584 4.62585
-0.405125 0.208559 6.60921
0.542462 -0.205082 6.46506
-0.471353 -0.465654 6.23521
0.516589 -1.0268 6.70055
6.68777 0.123462 4.67324
0.457597 -0.613582 6.26283
6.57963 0.352152 4.57948
6.04345 0.165498 4.88406
-0.533649 -0.082183 6.2176
6.46317 0.466542 4.68401
6.40536 0.076915 4.68503
6.22471 0.176525 4.55275
5.78675 0.067382 4.80357
6.10087 0.409452 4.59939
5.79015 0.091633 4.61361
5.84219 0.303485 4.51364
5.71625 0.482507 4.60528
0.338651 0.750419 5.6241
5.95902 0.33091 4.93872
5.65797 0.495455 4.88222
2.63883 0.445232 5.37136
5.3886 0.385605 4.99748
5.5564 0.252758 4.97036
5.42183 0.569695 4.81449
5.1055 0.015293 4.79414
5.27322 0.252319 4.47154
6.10384 0.49603 4.78027
5.21844 0.534309 4.59053
6.49547 0.413142 4.8542
4.96447 0.16433 4.99277
7.37277 -0.007595 4.74168
-5.60996 0.093632 4.85759
7.3175 0.286205 4.62968
5.03111 0.004329 4.59583
4.85679 0.62957 4.7987
4.93886 0.521112 5.00843
4.94944 0.126509 4.46039
4.76117 0.593523 4.58688
3.03414 -0.112214 4.42001
4.41977 0.669147 4.78629
4.81717 0.453149 4.46938
4.26986 0.285522 4.38846
4.35063 0.025371 4.92134
4.3834 0.59301 5.01432
4.42986 -0.059632 4.67539
4.36021 0.017819 4.49006
1.76265 0.800114 3.84741
-1.79546 0.54363 3.82182
-1.74406 -0.412757 3.75458
4.13013 0.425786 5.0959
3.61246 -0.065243 4.67356
4.33437 0.278684 5.09104
-1.23539 -0.821965 3.59749
3.66682 0.022881 4.922
1.77709 -0.130042 3.68338
3.72606 0.052913 4.44359
4.06867 0.640724 4.55591
-1.47765 0.933877 3.52607
3.49529 0.513536 4.48016
-1.59035 0.629041 3.17285
-1.72475 0.265578 3.57579
3.77363 0.629712 4.9856
3.55186 0.544912 5.07445
3.51973 0.350256 5.11768
1.55915 -0.610683 3.11116
3.32505 0.130811 5.03433
3.36387 -0.029449 4.80785
1.66309 -0.312026 3.01103
3.55903 0.690596 4.78926
3.23396 -0.200039 4.68629
3.10965 -0.046314 4.6258
3.30594 0.135737 5.21765
-1.66137 -0.190765 2.96911
3.15531 -0.050638 4.90181
3.10605 0.32538 5.3212
1.5876 0.662887 3.146
3.17797 0.329102 5.11241
3.18595 -0.094076 5.09268
1.6415 0.087087 2.71748
3.04349 -0.3321 4.51717
3.21481 0.324198 4.47272
3.25285 0.020799 4.54972
3.20344 0.58 5.15768
3.19929 0.633025 4.98013
3.17967 0.630778 4.67971
3.12408 -0.227041 4.92427
2.99089 0.802444 4.86641
3.05973 0.803731 4.58498
3.02272 0.542014 4.53476
2.6085 0.732974 5.14547
2.99022 0.253749 4.42965
3.0164 0.387958 4.14362
3.01514 0.087411 4.15466
-1.50085 -0.639577 2.3294
2.97606 -0.152737 4.14992
2.76241 0.81293 4.33092
-1.03179 1.06895 1.86465
2.89786 0.603474 4.09983
-1.45188 0.831067 2.76936
2.98422 -0.01327 5.30045
2.97007 0.738951 4.2619
1.6198 0.116641 2.05512
2.29057 0.027361 5.48534
-1.2264 0.994987 2.07619
2.65495 0.863892 4.71423
-1.45257 0.784406 2.08623
2.55305 -0.455713 4.54554
1.42083 0.849852 2.44018
2.47563 -0.370032 4.16132
1.95517 -0.577794 4.27234
2.75442 0.225704 4.03441
2.26316 -0.393054 5.0008
2.16948 0.954286 4.29781
1.61168 -0.426772 1.87964
1.49748 -0.658432 2.34293
2.02464 0.580968 3.99728
1.93578 0.096786 3.95299
2.01545 -0.401973 4.08493
-1.52464 -0.640472 1.78211
2.5005 -0.179586 5.30366
2.26604 0.806097 4.1119
-1.61683 0.017912 2.18292
-1.60511 -0.336638 2.06159
2.09638 0.928973 5.1109
1.70237 0.98037 4.09698
1.86384 0.449309 -8.25994
1.59695 0.296272 5.73198
1.86649 0.497479 -6.9943
1.79065 0.599047 0.276239
1.72426 0.771396 -5.27538
1.68739 0.73426 -2.36138
1.52674 0.598214 -7.3175
1.81505 -0.340016 0.301417
1.74446 -0.931896 -8.37457
1.41494 0.731876 -6.77125
1.82592 -1.68266 -8.23733
1.45176 -0.379713 5.55396
1.97981 1.01141 4.89653
1.73118 -0.530932 3.84291
1.61912 0.929175 -3.28254
-1.3561 1.00654 0.989876
-1.57664 0.405574 1.45327
1.78074 -0.191529 5.60201
1.68239 0.651366 -6.60638
1.59102 -1.25576 -8.40024
1.61979 -1.40115 -7.69196
1.7111 0.575038 -7.70878
1.65982 0.790173 3.57567
1.40389 -0.912589 1.25343
1.59531 -0.470486 -2.76994
1.57391 -0.447117 -4.7467
1.62651 1.07608 0.29878
1.54825 -0.817712 1.01982
1.76291 -0.662934 -8.27986
1.56567 -1.62609 -8.38068
1.52856 -0.718096 3.91248
1.36239 0.996122 3.51354
1.41508 0.916349 3.06484
1.51932 0.921498 -0.004748
1.44094 0.898869 -1.73107
1.44399 -0.452437 -5.48124
1.60788 0.744121 -6.00718
1.28291 -0.19827 5.8397
-1.65116 -0.319031 1.27532
1.49983 0.668976 -8.18758
1.28941 -0.816516 2.91803
1.34294 1.00541 -2.57711
-1.71537 -0.02602 0.889399
1.32587 -0.703416 -6.97226
1.6678 -1.92773 -7.76529
1.89452 0.795424 5.36689
1.6559 -0.650203 4.4119
1.30926 0.9732 1.60368
1.41844 -0.778726 -0.854319
1.3632 -0.724911 -2.05472
1.32741 -0.595996 -4.55257
1.47122 1.01809 -4.69126
1.53372 0.893926 5.24201
1.5102 0.675244 1.54895
1.3923 0.815102 -5.90029
1.66614 0.065525 -8.40916
1.47365 -1.10711 0.360447
1.56757 0.507107 -8.38812
1.29591 -0.854078 2.15699
1.36012 -0.916735 -0.007387
1.41013 0.955572 -0.567507
1.56995 1.04206 -4.2492
1.45146 0.940687 -5.26858
1.17626 -0.506165 -5.40906
1.13283 -0.456232 -5.82287
0.915162 1.06994 -0.97568
1.08505 -0.591417 -4.56579
1.18534 0.988052 -4.66848
1.04165 0.517848 -7.31023
0.964671 -0.705176 -7.11215
1.19218 -1.07992 -7.46439
1.06583 -2.21212 -7.83246
1.3498 -2.37651 -8.12382
0.889365 0.419399 -8.33376
0.569351 -0.57453 5.41832
1.00643 -0.933797 2.38065
1.35403 1.04476 0.879642
1.16278 1.26645 0.345067
0.983417 -1.00683 -0.033835
1.13818 -0.957234 -0.73842
1.11178 -0.82644 -2.76331
1.13963 -0.745867 -3.57035
-1.54002 0.816626 0.87741
1.21023 0.632612 -8.16136
1.222 1.01282 3.89132
1.15168 -0.510594 -6.75115
1.08604 -1.25841 0.342222
0.915768 -1.51042 -7.68585
1.02924 1.055 2.46627
1.1501 1.2132 0.20578
1.04994 -0.882964 -1.72211
0.780021 -0.904851 -2.05209
1.32933 1.09332 -3.38833
1.08398 0.703758 -5.96188
0.675209 0.397845 5.86617
1.16509 0.206685 5.87637
1.09884 -0.474849 -8.25836
1.1598 0.684216 -6.88085
1.18366 -2.15612 -8.29491
0.941002 -0.849904 3.92352
1.49327 0.900978 0.982495
0.81306 0.856679 5.29752
0.870011 -0.424087 -4.78046
0.783627 -0.696017 -3.42365
0.736578 -0.461928 5.75419
1.02607 -1.08449 1.29628
0.881071 -0.561132 -4.12258
0.909933 -0.355586 -5.43166
0.8198 -0.842663 -8.27778
0.906803 0.533999 -6.87038
0.947608 0.498746 -7.82204
0.684775 -1.00242 2.15869
0.993492 1.10745 1.06554
1.23349 1.01052 0.027025
1.67588 -0.551196 0.886642
0.777982 -0.782486 7.72819
0.879745 -0.834015 -2.93241
0.795248 -1.92979 -7.86423
0.856663 -1.58762 -8.37654
0.540531 -1.3245 0.517661
1.69439 0.099012 0.964952
0.721267 -0.275189 -4.34595
0.592538 -1.32096 0.264341
0.90203 1.04624 -2.77764
0.625685 -0.808053 -2.57676
1.84827 0.088507 0.334686
-1.80236 -0.375073 0.29986
0.612287 -0.419507 -3.55936
1.69655 -0.837341 0.301035
0.587233 -1.05953 7.73846
0.665383 -0.867254 7.3973
0.73995 0.997141 4.57293
0.48906 -0.932595 -1.63615
0.74188 0.992879 -1.97143
0.451363 -0.767773 -2.1774
-1.73366 0.865173 0.309741
-1.83985 0.109771 0.306672
0.606283 -0.169804 6.06888
0.480604 -0.624526 -2.77338
0.555449 0.555658 7.88266
-0.282925 -0.865992 4.13522
0.414983 -0.946862 3.12544
0.351454 -1.23949 7.56516
0.479822 -0.507237 5.99945
0.682813 1.07945 2.64558
0.066352 1.1451 0.946392
0.326198 1.12905 -0.795302
0.363508 0.857414 -1.97612
0.447757 0.230013 6.167
0.317333 0.479676 8.16574
0.243363 -1.23368 7.95892
0.385883 0.193454 6.46895
0.054546 -1.14553 0.064975
0.937003 1.01512 -1.54397
0.333569 -0.391606 8.2537
0.417986 -0.699402 8.20848
0.429576 1.2315 0.230491
0.319464 0.785056 7.90329
0.310716 0.665727 7.15688
0.264154 -1.14402 6.2647
0.231918 -0.619098 5.68946
0.42563 -1.05287 -0.11613
1.63235 0.702798 -0.065108
-1.61198 0.761717 -0.042701
0.354459 1.28237 0.365997
0.244204 -1.093 -1.06619
0.162578 1.02085 -1.1947
1.64598 -0.072285 -0.057934
0.083666 -1.33704 7.61739
0.19401 -0.771266 5.90662
-0.04113 -1.38279 0.354782
0.048758 0.499406 -1.59226
0.120694 0.025605 -1.70314
0.100702 -0.897878 -1.45969
-0.029185 -1.25754 6.25464
0.197718 0.167869 8.34352
0.235868 0.397553 6.61967
-0.188092 -1.32494 6.58685
0.159394 0.390333 6.22374
-0.015455 1.26556 0.477113
-0.212155 1.04457 0.050484
0.213777 1.07255 0.078295
-0.185265 0.745311 7.97201
-0.010652 0.152028 -1.59401
0.00194 -0.468255 -1.57971
0.053624 -1.04618 5.97252
0.203106 -0.934394 8.1969
0.035305 0.535551 8.22823
-0.153606 -1.32099 7.28814
-0.039382 -1.41522 6.94129
-0.214568 -1.09968 6.13036
-0.115874 -0.650535 5.74817
-0.118947 -0.680729 8.28239
-0.199643 -0.81639 -1.59709
-0.135905 0.829366 5.55983
-0.084485 1.2637 0.224871
0.44048 1.01715 -0.12328
-0.146351 0.060395 8.35949
1.56411 -0.661482 -0.057053
-0.271221 -0.694358 5.96791
-0.18862 0.838807 -1.58528
0.051377 -0.605588 5.35993
-0.244633 -1.05719 -0.153384
-0.255355 -1.09663 -0.972068
-0.341728 -0.933412 -1.54017
-0.499611 -0.765905 8.12945
-0.444708 0.547122 8.0269
-0.539182 -0.482399 5.87699
-0.603375 -0.57682 5.38663
-0.354368 -0.980694 2.6713
-0.444337 1.27319 0.333798
-0.211487 1.01759 -0.102354
-0.663479 1.11067 -0.865796
-0.438535 0.96033 -1.60059
-1.70777 0.590299 -1.13898
-0.325771 0.311091 6.18489
-0.416254 -0.777615 -2.04243
-0.327754 -1.08669 1.71192
-0.645893 -1.33261 0.470642
-0.809725 -1.27871 0.26924
-1.65471 0.666411 -0.54229
-0.520011 -0.262205 6.45783
-1.63105 -0.370393 -0.846587
-0.545933 -0.981459 6.80748
-0.187756 -1.27704 7.9236
-0.368736 0.808049 7.66853
-0.942773 -0.902877 3.01303
-0.780207 -0.909624 -2.10244
-0.605495 -0.68144 -3.04374
-0.615304 0.55922 7.70366
-0.722558 -0.158884 5.99401
-0.882149 -1.0196 -0.038106
-0.61695 -0.827944 -2.50052
-0.745103 -0.522731 -3.84702
1.61939 0.838185 -0.637073
-1.26183 -0.388931 5.63779
-0.763427 -0.944735 -1.57164
-0.806879 1.00968 0.016371
-0.783118 -0.50866 7.85349
-1.02212 -0.977027 -0.86807
-0.663633 0.966474 -2.41745
-1.61564 0.771681 -1.4971
-0.714088 -1.44581 -8.32335
-1.13809 1.0174 3.77729
-1.04785 1.12389 0.941198
-0.850488 -0.795286 -3.18601
1.65509 0.72825 -1.45559
-1.68236 -0.109689 -1.73186
-0.850544 -1.7776 -8.35153
-0.848426 -0.986907 2.17468
-1.15182 1.25243 0.249667
1.7228 0.427611 -0.919865
-0.717755 0.165064 5.97236
-0.894174 0.477405 -6.45429
-0.939599 -0.894852 -7.38015
-1.06463 1.05031 2.90764
-0.709094 1.10443 1.42874
-0.742169 1.25432 0.453281
-1.02967 -0.850119 -2.76891
-0.8276 0.892303 -3.6061
-1.02427 -0.555348 -4.7229
-0.866271 0.275554 -8.38173
1.57262 -0.591774 -0.937369
-0.971927 -0.492451 -8.25474
-1.09305 -0.484241 -6.73071
-0.931285 -2.24744 -7.90349
-1.07353 1.00101 -1.5891
-1.02506 1.08256 -3.09549
-1.03015 0.531602 -7.58347
-1.06501 -0.459742 -5.53106
-1.31168 0.021065 5.85879
-0.958072 -2.02971 -7.76254
-0.573969 0.60449 5.69794
-1.27037 -0.925556 -0.102682
-1.16788 0.92609 -5.03253
-1.15208 0.035391 -8.41251
-1.09151 0.679749 -6.28083
-1.06072 0.643676 -6.94607
-1.3987 -0.223053 5.77128
-1.33386 -0.834271 -0.923764
-1.33858 -0.649405 -3.76455
-1.32493 -0.596464 -4.55581
-1.10793 1.02136 -4.14817
-1.3419 -0.51725 -5.33563
-1.35918 -0.466824 -6.63647
-1.04784 0.567142 -8.24029
-1.14382 -0.763443 4.28418
-1.3061 -0.73973 -2.4096
-0.962111 -1.06976 -8.40169
-1.29466 -0.916557 -7.30744
-0.933031 -1.29172 -7.62324
-1.58005 -0.593948 3.2712
-1.29904 -0.803946 2.64093
-1.34514 -0.87599 1.67969
-1.24758 1.22205 0.417973
-1.16189 -1.12007 0.952074
-1.0774 1.03692 -2.34045
-1.38399 1.01281 -2.76217
-1.2432 1.09381 -3.88811
-1.11285 0.977129 -0.231132
0.047688 0.837695 -1.51471
-1.38969 -0.449175 -5.79311
1.65216 -0.341823 -1.08743
-1.33257 0.744754 -6.3949
-1.46637 -0.582057 -3.52781
-1.36879 -1.16343 0.343081
-1.25516 0.579958 -7.34783
-1.44578 0.669868 -8.18404
-0.951624 0.292275 5.87745
-1.87076 -0.496597 4.88333
-1.51282 -0.736205 -0.126012
-1.32987 -0.780304 -1.56078
-1.37014 0.964738 -5.04457
-1.34897 1.04113 0.091486
-0.087469 0.549278 -1.63928
0.161997 0.678458 -1.69983
-0.197402 -0.570171 -1.71437
-1.74188 -1.03079 -8.38938
-1.39722 -2.2899 -7.93885
-1.5698 -0.799551 0.963127
-1.53702 1.00501 -3.35208
-1.5077 1.13554 0.324978
-1.46663 -0.610745 -6.88326
0.22811 -0.749471 -1.70269
-1.5438 -0.405521 -6.80246
-1.62983 -2.13173 -8.25546
-0.858779 0.852572 5.28712
-1.6673 -0.883408 0.311747
-1.55731 0.861165 -0.337754
-1.40061 0.92635 -1.27641
-1.45874 0.912573 -2.22187
-1.45747 1.06188 -4.32151
-1.4848 0.861219 -5.56511
-1.61286 0.696622 -6.39057
-0.148447 0.00106 -1.77817
1.55839 -0.551046 -1.65829
-1.5819 -0.529589 -1.18072
-1.58074 -1.30541 -7.66419
-1.62543 0.5692 -7.31142
-1.59857 -0.293589 -6.02275
-1.58315 0.011152 -8.3865
-1.7714 0.919538 5.2298
-1.02165 0.990496 4.71622
1.71755 0.497744 -1.50629
-1.63534 0.539786 -8.38578
-1.65652 -0.297697 -5.14306
-1.60137 -0.605194 0.003809
-1.6001 -0.49926 -8.26255
-1.53907 -1.61628 -8.38106
-1.75064 -1.27148 -7.7561
-1.63434 0.997909 4.1213
-1.64149 0.212789 -0.069514
-2.03702 -0.029852 5.54937
-1.69082 -0.652641 4.23987
-1.4874 0.728971 -6.86445
-1.87805 0.85653 4.06832
-1.66327 0.775591 -2.48868
-2.03057 0.987146 4.37068
-1.83751 0.629431 5.49148
0.167972 0.202634 -1.83458
-2.03204 -0.2738 5.38209
-1.96397 0.606126 3.992
1.67257 -0.278793 -2.05754
-1.89196 -0.314308 3.96125
-2.08286 0.069355 3.98743
-1.70984 0.522419 -2.11818
-1.83771 0.256512 5.63802
-2.31488 -0.468152 4.25925
0.299061 0.613548 -2.28914
-1.56829 -0.513658 -2.03755
-1.957 0.982243 5.10773
-0.205245 0.626158 -1.92495
0.505213 0.812902 -2.65048
0.37066 -0.267066 -2.86305
-1.90494 -0.480991 4.08039
0.291081 -0.493973 -2.12058
-1.53865 -0.51779 -2.92844
-0.391872 0.766102 -2.39685
-2.91939 0.376405 4.06265
1.72695 0.365849 -2.16197
0.378407 0.41973 -2.87367
-2.10788 -0.30899 4.06934
-1.668 -0.273045 -3.24836
-2.99066 -0.346348 4.61645
-2.46674 -0.479625 4.43977
-0.647801 0.902295 -2.86323
-2.78727 0.550111 5.278
1.73732 0.719167 -3.23529
-0.356203 0.305072 -2.85168
-1.73335 0.447619 -2.85055
-2.65824 0.205285 5.40475
-2.91416 -0.156078 4.1437
-2.69396 -0.128834 5.28786
-2.60121 0.855475 4.88214
-3.01906 0.786279 4.46869
-3.10728 0.653472 5.09909
-3.00978 -0.222979 4.99877
-2.9628 -0.041016 4.41571
-2.8178 0.756878 4.18595
-2.95462 0.295901 4.41639
-3.02123 0.527225 4.13015
-3.18617 -0.050702 5.15284
-3.05726 -0.254371 4.31454
-3.17048 0.276182 5.30635
-3.0695 -0.010707 4.55974
-3.01543 0.027337 4.19984
-3.20235 0.159594 5.16496
-3.12199 -0.066788 4.83627
-3.2289 0.643744 4.80145
-3.16395 0.783521 4.75775
-3.08306 0.566486 4.57493
-3.16508 -0.215543 4.58427
-0.416887 -0.37982 -3.02435
1.40939 -0.661631 -3.092
1.08517 1.05768 -3.68485
-3.28149 0.429936 5.05719
0.597586 -0.058963 -3.83012
-3.33454 -0.037271 4.83495
-3.40246 0.282757 5.10802
-3.28277 0.224838 4.45446
-0.514156 0.666915 -3.1019
-0.570437 0.227755 -3.75688
0.720819 0.77988 -3.57083
1.72427 -0.072713 -3.12161
-3.59156 0.621823 5.01936
-1.80588 0.060959 -4.24456
-1.78108 0.752582 -4.10689
-1.74039 0.727033 -3.38724
-1.04973 -0.706449 -3.79507
-3.66784 0.557142 4.485
-3.71644 -0.00118 4.46763
-0.560826 -0.343837 -3.55382
1.19143 1.04182 -4.31581
1.4358 -0.598002 -3.83181
-1.5659 -0.468354 -4.43255
-3.577 0.689678 4.72249
-1.70053 -0.283531 -4.21593
-0.839308 0.739131 -4.32614
-4.21949 0.545252 5.06814
-3.82093 0.425206 5.09917
-4.14844 -0.025479 4.51999
-4.15496 0.669379 4.67961
-3.83079 -0.046074 4.83359
0.877589 0.764414 -4.32948
-3.87147 0.22426 5.08357
1.80893 0.705172 -4.04937
1.6261 -0.404059 -3.7085
-1.69775 0.927028 -4.45594
0.657227 0.408522 -3.96772
1.81456 -0.031629 -4.49225
-0.79486 -0.336592 -4.76492
-4.43325 0.127089 5.01345
-4.20109 0.658824 4.9303
-4.07922 0.355784 4.3911
-0.662274 -0.107315 -4.25625
-1.8439 0.535441 -4.79288
-0.724957 0.421686 -4.53028
0.820309 0.518985 -4.93818
-4.59205 -0.033362 4.58099
-4.82953 0.622444 4.86284
1.75637 0.85889 -4.76243
-4.34589 0.125601 4.40912
1.81568 -0.014122 -5.059
-4.90495 0.317568 4.44265
-1.68263 0.890886 -4.94258
-4.60366 -0.003126 4.86967
-4.79887 0.392837 5.06822
-4.67176 0.570237 4.51775
-0.767585 -0.119512 -5.18361
-5.11013 -0.001295 4.67407
-0.834509 0.411641 -5.60047
1.00816 0.732049 -5.36486
-1.81199 0.550406 -5.41428
-5.31992 0.421035 4.99439
-5.02094 0.075554 4.50045
-0.912146 0.597903 -5.51339
-1.80374 -0.034643 -4.77949
-1.68664 0.776377 -5.35459
-0.868913 -0.25981 -5.60953
-5.05618 0.229835 5.01254
1.66623 -0.274804 -5.37909
-5.08406 0.55901 4.58002
1.84458 0.575271 -4.87886
0.769095 0.025951 -5.33226
-5.45415 0.051452 4.59309
1.81737 0.097435 -6.18558
0.864771 0.412879 -6.00762
-5.52753 0.259804 4.48883
-5.43417 0.564096 4.77428
-5.59072 0.387691 4.97584
-1.79783 0.017458 -5.75755
1.65332 -0.270072 -6.1784
-1.83976 0.342075 -6.45796
-5.73056 0.498811 4.63797
-0.804166 0.000684 -5.83423
0.871366 -0.228683 -5.99477
-6.03399 0.060267 4.72309
-6.0467 0.35826 4.55514
1.04746 -0.443583 -6.26515
-6.0124 0.321393 4.92666
1.35052 -0.462984 -5.95909
0.839655 -0.157494 -6.53873
-1.03568 -0.426491 -6.28071
-5.95916 0.470602 4.8504
-1.72559 0.634825 -6.00995
-0.827785 -0.160256 -6.58427
-6.03263 0.161127 4.55708
1.48209 -0.441521 -6.76096
1.79992 0.506776 -5.98052
-6.3899 0.431404 4.82304
-6.71806 0.131506 4.75303
-0.805859 0.191123 -6.5772
0.835531 0.333474 -6.56917
-6.36305 0.10636 4.61724
-6.27078 0.44493 4.6382
-6.70676 0.260923 4.59613
-6.32876 0.195411 4.87062
0.767598 -0.003981 -6.92546
-0.734276 0.303672 -6.91658
0.759454 0.312919 -6.95139
1.72038 -0.282743 -6.92584
-6.73095 0.362241 4.84901
-1.81796 -0.072595 -6.67422
0.926468 -0.390481 -6.89626
0.801541 0.308491 -7.34264
-1.84149 0.51792 -6.86491
1.94209 0.151669 -6.89104
-0.86485 -0.306667 -6.85071
-1.93222 0.207382 -6.97703
-7.19558 0.171188 4.86871
-1.69475 -0.48777 -7.12847
-6.71422 0.437278 4.67032
-0.865837 -0.606345 -7.24172
1.89473 0.124473 -7.40586
-1.81336 -0.206372 -7.3729
-0.779939 0.059074 -7.38326
0.858289 -0.417149 -7.26344
1.6242 -0.745771 -7.22319
1.8489 -0.822131 -7.70942
-6.99723 0.078407 4.66624
0.830598 -0.970347 -7.54437
-7.26708 0.522493 4.70881
-7.10197 0.298206 4.62625
-7.24454 -0.025685 4.76305
-0.765264 -0.863376 -7.62249
-7.37855 0.468851 4.84597
-1.89479 0.331943 -7.54299
-7.36145 0.102987 4.67273
1.87746 -0.214163 -7.79774
1.6423 -0.970714 -7.49454
-1.73156 -0.814748 -7.46034
0.707292 -1.47026 -7.82161
-7.6255 0.310495 4.80826
-7.53044 0.387658 4.70679
-0.748433 0.212556 -7.81037
-7.58777 0.17892 4.74586
0.754069 -0.623811 -7.8856
-1.87563 -1.23754 -8.13
-0.860966 -1.66361 -7.73077
-1.62726 -2.10245 -7.79214
1.8578 0.394068 -7.42025
-0.840802 0.385272 -7.39206
0.763314 0.312351 -7.97673
0.863794 -2.2297 -8.0277
-1.80382 0.527631 -7.93823
-1.86983 -0.157137 -7.92637
-1.88129 -0.733821 -7.94083
-0.683301 -1.22767 -7.809
-1.81516 -1.70813 -7.99921
0.666181 -1.4004 -8.23675
1.91525 0.274345 -8.1444
1.84807 -1.37352 -7.93949
-0.775177 -1.90051 -7.91067
-1.79506 -0.280268 -8.20473
0.849709 -0.515069 -8.17907
-1.84972 -0.692662 -8.17597
1.80841 -1.92965 -8.00599
-1.79797 -2.002 -8.07483
1.66461 -2.22523 -7.92075
-1.05001 -2.31337 -8.19907
-1.66486 -2.29669 -8.07093
-1.86921 0.241863 -8.29204
0.785986 0.081119 -8.18125
1.79522 -0.317989 -8.24672
-0.858589 -2.19883 -8.18178
0.795785 -1.91534 -8.23751
-0.773907 0.323883 -8.20824
-0.764577 -0.607385 -8.05982
1.89316 -0.603318 -8.0489
-1.73365 -1.62838 -8.3086
-0.655519 -1.45718 -8.15773
1.69541 -2.16673 -8.21248
0.989849 -2.27941 -8.20077
0.917581 0.252861 -8.39491
-0.74741 -1.05039 -8.32823
1.85772 -1.14331 -8.27762
0.899142 -1.02569 -8.38983
3 558 561 570 242 24 142
3 570 561 573 204 61 61
3 573 561 572 242 24 142
3 572 561 562 242 221 72
3 562 561 556 242 24 142
3 556 561 558 242 24 142
3 556 558 547 242 24 142
3 547 558 545 242 24 142
3 545 558 541 40 176 204
3 541 558 550 40 176 204
3 550 558 570 242 24 142
3 550 570 563 242 24 142
3 563 570 579 242 24 142
3 579 570 573 204 61 61
3 579 573 594 242 221 72
3 594 573 599 242 221 72
3 599 573 572 204 61 61
3 599 572 597 204 61 61
3 597 572 585 204 61 61
3 585 572 574 204 61 61
3 574 572 559 204 61 61
3 559 572 562 242 24 142
3 559 562 566 242 24 142
3 566 562 556 242 24 142
3 566 556 551 242 24 142
3 551 556 547 242 24 142
3 551 547 515 242 24 142
3 515 547 507 242 24 142
3 507 547 545 242 24 142
3 507 545 521 242 24 142
3 521 545 513 242 24 142
3 513 545 541 242 24 142
3 513 541 525 242 24 142
3 525 541 548 242 24 142
3 548 541 550 40 176 204
3 548 550 564 242 24 142
3 564 550 563 242 24 142
3 564 563 565 242 24 142
3 565 563 590 204 61 61
3 590 563 579 204 61 61
3 590 579 593 204 61 61
3 593 579 594 48 242 105
3 593 594 599 204 61 61
3 593 599 621 204 61 61
3 621 599 606 204 61 61
3 606 599 597 204 61 61
3 606 597 620 204 61 61
3 620 597 595 204 61 61
3 595 597 585 204 61 61
3 595 585 616 204 61 61
3 616 585 608 204 61 61
3 608 585 574 204 61 61
3 608 574 584 204 61 61
3 584 574 565 204 61 61
3 565 574 554 242 24 142
3 554 574 559 242 24 142
3 554 559 552 242 24 142
3 552 559 566 242 24 142
3 552 566 560 242 24 142
3 560 566 557 242 24 142
3 557 566 538 242 24 142
3 538 566 551 242 24 142
3 538 551 464 242 24 142
3 464 551 515 242 24 142
3 464 515 390 242 24 142
3 390 515 433 242 24 142
3 433 515 507 242 24 142
3 433 507 425 242 24 142
3 425 507 521 242 24 142
3 425 521 463 242 24 142
3 463 521 513 242 24 142
3 463 513 427 242 24 142
3 427 513 496 242 24 142
3 496 513 525 242 24 142
3 496 525 497 242 24 142
3 497 525 505 242 24 142
3 505 525 512 242 24 142
3 512 525 548 242 24 142
3 512 548 553 242 24 142
3 553 548 549 242 24 142
3 549 548 564 242 24 142
3 549 564 565 242 24 142
3 549 565 554 242 24 142
3 549 554 555 242 24 142
3 555 554 560 242 24 142
3 560 554 552 242 24 142
3 555 560 533 242 24 142
3 533 560 546 242 24 142
3 546 560 557 242 24 142
3 546 557 539 242 24 142
3 539 557 538 242 24 142
3 539 538 464 242 24 142
3 539 464 508 242 24 142
3 508 464 441 242 24 142
3 441 464 363 242 24 142
3 363 464 390 242 24 142
3 363 390 362 242 24 142
3 362 390 433 242 24 142
3 362 433 385 242 24 142
3 385 433 425 242 24 142
3 385 425 407 242 24 142
3 407 425 463 242 24 142
3 407 463 427 242 24 142
3 407 427 370 242 24 142
3 370 427 333 242 24 142
3 333 427 349 242 24 142
3 349 427 481 242 24 142
3 481 427 496 242 24 142
3 481 496 497 242 24 142
3 481 497 349 242 24 142
3 349 497 286 242 24 142
3 286 497 398 242 24 142
3 398 497 505 242 24 142
3 398 505 87 242 24 142
3 87 505 510 242 24 142
3 510 505 512 242 24 142
3 510 512 553 242 24 142
3 510 553 516 242 24 142
3 516 553 533 242 24 142
3 533 553 555 242 24 142
3 555 553 549 242 24 142
3 516 533 519 242 24 142
3 519 533 546 242 24 142
3 519 546 536 242 24 142
3 536 546 522 242 24 142
3 522 546 539 242 24 142
3 522 539 508 242 24 142
3 522 508 529 242 24 142
3 529 508 518 242 24 142
3 518 508 78 242 24 142
3 78 508 446 242 24 142
3 446 508 82 242 24 142
3 82 508 441 242 24 142
3 82 441 295 242 24 142
3 295 441 363 242 24 142
3 295 363 356 242 24 142
3 356 363 346 242 24 142
3 346 363 362 242 24 142
3 346 362 354 242 24 142
3 354 362 32 242 24 142
3 32 362 38 242 24 142
3 38 362 385 242 24 142
3 38 385 407 242 24 142
3 38 407 370 242 24 142
3 38 370 30 242 24 142
3 30 370 28 242 24 142
3 28 370 333 242 24 142
3 28 333 331 242 24 142
3 331 333 306 242 24 142
3 306 333 303 242 24 142
3 303 333 47 242 24 142
3 47 333 349 242 24 142
3 47 349 256 242 24 142
3 256 349 286 242 24 142
3 256 286 167 242 24 142
3 167 286 239 242 24 142
3 239 286 299 242 24 142
3 299 286 398 242 24 142
3 299 398 410 242 24 142
3 410 398 87 242 24 142
3 410 87 128 242 24 142
3 128 87 89 242 24 142
3 89 87 77 242 24 142
3 77 87 510 242 24 142
3 77 510 516 242 24 142
3 77 516 519 242 24 142
3 77 519 518 242 24 142
3 518 519 536 242 24 142
3 518 536 529 242 24 142
3 529 536 522 242 24 142
3 77 518 78 242 24 142
3 77 78 90 242 24 142
3 90 78 102 242 24 142
3 102 78 446 242 24 142
3 102 446 123 242 24 142
3 123 446 447 242 24 142
3 447 446 82 242 24 142
3 447 82 381 242 24 142
3 381 82 295 242 24 142
3 381 295 364 242 24 142
3 364 295 296 242 24 142
3 296 295 254 242 24 142
3 254 295 229 242 24 142
3 229 295 356 242 24 142
3 229 356 315 242 24 142
3 315 356 346 242 24 142
3 315 346 324 242 24 142
3 324 346 340 242 24 142
3 340 346 345 242 24 142
3 345 346 354 242 24 142
3 345 354 32 242 24 142
3 345 32 378 242 24 142
3 378 32 376 242 24 142
3 376 32 38 242 24 142
3 376 38 30 242 24 142
3 376 30 14 242 24 142
3 14 30 15 242 24 142
3 15 30 17 242 24 142
3 17 30 28 242 24 142
3 17 28 331 242 24 142
3 17 331 313 242 24 142
3 313 331 20 242 24 142
3 20 331 306 242 24 142
3 20 306 26 242 24 142
3 26 306 31 242 24 142
3 31 306 303 242 24 142
3 31 303 292 242 24 142
3 292 303 249 242 24 142
3 249 303 47 242 24 142
3 249 47 256 242 24 142
3 249 256 207 242 24 142
3 207 256 167 242 24 142
3 207 167 153 242 24 142
3 153 167 134 242 24 142
3 134 167 142 242 24 142
3 142 167 154 242 24 142
3 154 167 239 242 24 142
3 154 239 186 242 24 142
3 186 239 299 242 24 142
3 186 299 243 242 24 142
3 243 299 267 242 24 142
3 267 299 411 242 24 142
3 411 299 410 242 24 142
3 411 410 126 242 24 142
3 126 410 133 242 24 142
3 133 410 128 242 24 142
3 133 128 135 242 24 142
3 135 128 151 242 24 142
3 151 128 89 242 24 142
3 151 89 102 242 24 142
3 102 89 90 242 24 142
3 90 89 77 242 24 142
3 151 102 152 242 24 142
3 152 102 123 242 24 142
3 152 123 148 40 176 204
3 148 123 448 40 176 204
3 448 123 447 40 176 204
3 448 447 404 242 24 142
3 404 447 381 242 24 142
3 404 381 364 242 24 142
3 404 364 372 40 176 204
3 372 364 296 40 176 204
3 372 296 266 242 24 142
3 266 296 254 242 24 142
3 266 254 230 242 24 142
3 230 254 195 242 24 142
3 195 254 185 242 24 142
3 185 254 201 242 24 142
3 201 254 229 242 24 142
3 201 229 259 242 24 142
3 259 229 298 242 24 142
3 298 229 315 242 24 142
3 298 315 324 242 24 142
3 298 324 35 242 24 142
3 35 324 314 242 24 142
3 314 324 340 242 24 142
3 314 340 329 242 24 142
3 329 340 345 242 24 142
3 329 345 332 242 24 142
3 332 345 378 242 24 142
3 332 378 344 127 20 204
3 344 378 343 204 61 61
3 343 378 0 96 204 61
3 0 378 8 96 204 61
3 8 378 14 96 204 61
3 14 378 376 242 24 142
3 8 14 11 96 204 61
3 11 14 15 96 204 61
3 11 15 384 96 204 61
3 384 15 17 242 24 142
3 384 17 380 96 204 61
3 380 17 313 242 24 142
3 380 313 7 96 204 61
3 7 313 9 96 204 61
3 9 313 20 96 204 61
3 9 20 13 96 204 61
3 13 20 26 242 24 142
3 13 26 285 96 204 61
3 285 26 33 96 204 61
3 33 26 35 96 204 61
3 35 26 31 242 24 142
3 35 31 298 242 24 142
3 298 31 292 242 24 142
3 298 292 259 242 24 142
3 259 292 192 242 24 142
3 192 292 250 242 24 142
3 250 292 249 242 24 142
3 250 249 156 242 24 142
3 156 249 200 242 24 142
3 200 249 207 242 24 142
3 200 207 153 242 24 142
3 200 153 119 242 24 142
3 119 153 134 242 24 142
3 119 134 116 242 24 142
3 116 134 117 242 24 142
3 117 134 125 242 24 142
3 125 134 142 242 24 142
3 125 142 150 242 24 142
3 150 142 154 242 24 142
3 150 154 145 242 24 142
3 145 154 76 242 24 142
3 76 154 186 242 24 142
3 76 186 177 242 24 142
3 177 186 187 242 24 142
3 187 186 243 242 24 142
3 187 243 137 242 24 142
3 137 243 202 242 24 142
3 202 243 267 242 24 142
3 202 267 231 40 176 204
3 231 267 232 40 176 204
3 232 267 319 40 176 204
3 319 267 300 40 176 204
3 300 267 411 242 24 142
3 300 411 399 242 24 142
3 399 411 126 242 24 142
3 399 126 170 40 176 204
3 170 126 133 242 24 142
3 170 133 135 242 24 142
3 170 135 171 242 24 142
3 171 135 151 242 24 142
3 171 151 193 242 24 142
3 193 151 152 242 24 142
3 193 152 148 40 176 204
3 193 148 474 40 176 204
3 474 148 448 40 176 204
3 474 448 450 40 176 204
3 450 448 404 40 176 204
3 450 404 372 40 176 204
3 450 372 373 40 176 204
3 373 372 325 40 176 204
3 325 372 274 40 176 204
3 274 372 266 40 176 204
3 274 266 260 242 24 142
3 260 266 230 242 24 142
3 260 230 213 242 24 142
3 213 230 195 242 24 142
3 213 195 144 242 24 142
3 144 195 94 242 24 142
3 94 195 185 242 24 142
3 94 185 168 242 24 142
3 168 185 139 242 24 142
3 139 185 201 242 24 142
3 139 201 136 242 24 142
3 136 201 141 242 24 142
3 141 201 166 242 24 142
3 166 201 259 242 24 142
3 166 259 192 242 24 142
3 166 192 172 242 24 142
3 172 192 156 242 24 142
3 156 192 250 242 24 142
3 172 156 132 242 24 142
3 132 156 50 242 24 142
3 50 156 200 242 24 142
3 50 200 119 242 24 142
3 50 119 104 242 24 142
3 104 119 112 242 24 142
3 112 119 116 242 24 142
3 112 116 113 242 24 142
3 113 116 117 242 24 142
3 113 117 114 204 61 61
3 114 117 118 242 24 142
3 118 117 130 242 24 142
3 130 117 125 242 24 142
3 130 125 150 242 24 142
3 130 150 127 242 24 142
3 127 150 140 242 24 142
3 140 150 145 242 24 142
3 140 145 146 242 24 142
3 146 145 76 242 24 142
3 146 76 84 242 24 142
3 84 76 177 242 24 142
3 84 177 108 242 24 142
3 108 177 105 242 24 142
3 105 177 187 242 24 142
3 105 187 137 242 24 142
3 105 137 131 242 24 142
3 131 137 208 40 176 204
3 208 137 202 242 24 142
3 208 202 255 40 176 204
3 255 202 231 40 176 204
3 255 231 181 40 176 204
3 181 231 232 40 176 204
3 181 232 244 40 176 204
3 244 232 311 40 176 204
3 311 232 319 40 176 204
3 311 319 336 40 176 204
3 336 319 350 40 176 204
3 350 319 334 40 176 204
3 334 319 300 40 176 204
3 334 300 412 40 176 204
3 412 300 399 40 176 204
3 412 399 449 40 176 204
3 449 399 170 40 176 204
3 449 170 476 40 176 204
3 476 170 237 40 176 204
3 237 170 171 40 176 204
3 237 171 197 40 176 204
3 197 171 193 40 176 204
3 197 193 474 40 176 204
3 197 474 281 40 176 204
3 281 474 482 40 176 204
3 482 474 460 40 176 204
3 460 474 450 40 176 204
3 460 450 373 40 176 204
3 460 373 374 40 176 204
3 374 373 325 40 176 204
3 374 325 307 40 176 204
3 307 325 277 40 176 204
3 277 325 274 40 176 204
3 277 274 241 40 176 204
3 241 274 260 40 176 204
3 241 260 211 40 176 204
3 211 260 178 40 176 204
3 178 260 213 40 176 204
3 178 213 144 40 176 204
3 178 144 143 40 176 204
3 143 144 97 242 24 142
3 97 144 94 242 24 142
3 97 94 168 242 24 142
3 97 168 84 242 24 142
3 84 168 146 242 24 142
3 146 168 147 242 24 142
3 147 168 139 242 24 142
3 147 139 138 242 24 142
3 138 139 136 242 24 142
3 138 136 109 242 24 142
3 109 136 115 242 24 142
3 115 136 141 242 24 142
3 115 141 149 242 24 142
3 149 141 172 242 24 142
3 172 141 166 242 24 142
3 149 172 132 242 24 142
3 149 132 129 242 24 142
3 129 132 50 242 24 142
3 129 50 104 242 24 142
3 129 104 101 242 24 142
3 101 104 112 242 24 142
3 101 112 106 242 24 142
3 106 112 113 204 61 61
3 106 113 93 204 61 61
3 93 113 92 242 24 142
3 92 113 98 204 61 61
3 98 113 114 204 61 61
3 98 114 88 204 61 61
3 88 114 118 48 242 105
3 88 118 110 40 176 204
3 110 118 120 242 24 142
3 120 118 130 242 24 142
3 120 130 121 242 24 142
3 121 130 127 242 24 142
3 121 127 140 242 24 142
3 121 140 122 242 24 142
3 122 140 124 242 24 142
3 124 140 138 242 24 142
3 138 140 147 242 24 142
3 147 140 146 242 24 142
3 124 138 109 242 24 142
3 124 109 68 242 24 142
3 68 109 99 242 24 142
3 99 109 115 242 24 142
3 99 115 107 242 24 142
3 107 115 129 242 24 142
3 129 115 149 242 24 142
3 107 129 101 242 24 142
3 107 101 106 242 24 142
3 107 106 95 242 24 142
3 95 106 93 242 24 142
3 95 93 81 242 24 142
3 81 93 79 48 242 105
3 79 93 92 242 24 142
3 79 92 91 48 242 105
3 91 92 98 204 61 61
3 91 98 69 204 61 61
3 69 98 86 204 61 61
3 86 98 88 204 61 61
3 86 88 71 48 242 105
3 71 88 85 40 176 204
3 85 88 110 40 176 204
3 85 110 111 48 242 105
3 111 110 120 242 24 142
3 111 120 100 242 24 142
3 100 120 68 242 24 142
3 68 120 122 242 24 142
3 122 120 121 242 24 142
3 68 122 124 242 24 142
3 100 68 99 242 24 142
3 100 99 103 242 24 142
3 103 99 107 242 24 142
3 103 107 95 242 24 142
3 103 95 96 242 24 142
3 96 95 83 242 24 142
3 83 95 81 96 204 61
3 83 81 72 242 24 142
3 72 81 59 242 24 142
3 59 81 65 96 204 61
3 65 81 79 204 61 61
3 65 79 73 204 61 61
3 73 79 91 204 61 61
3 73 91 69 48 242 105
3 73 69 64 48 242 105
3 64 69 67 242 221 72
3 67 69 86 204 61 61
3 67 86 70 204 61 61
3 70 86 71 204 61 61
3 70 71 66 48 242 105
3 66 71 75 48 242 105
3 75 71 85 40 176 204
3 75 85 74 48 242 105
3 74 85 80 242 24 142
3 80 85 111 48 242 105
3 80 111 96 242 24 142
3 96 111 100 242 24 142
3 96 100 103 242 24 142
3 80 96 83 242 24 142
3 80 83 74 242 24 142
3 74 83 72 242 24 142
3 74 72 54 242 24 142
3 54 72 59 48 242 105
3 54 59 42 96 204 61
3 42 59 52 96 204 61
3 52 59 51 127 20 204
3 51 59 65 242 24 142
3 51 65 53 127 20 204
3 53 65 64 96 204 61
3 64 65 73 96 204 61
3 53 64 57 204 61 61
3 57 64 67 204 61 61
3 57 67 70 204 61 61
3 57 70 55 204 61 61
3 55 70 66 96 204 61
3 55 66 63 204 61 61
3 63 66 75 204 61 61
3 63 75 74 204 61 61
3 63 74 54 204 61 61
3 63 54 42 96 204 61
3 63 42 44 204 61 61
3 44 42 41 96 204 61
3 41 42 40 96 204 61
3 40 42 37 96 204 61
3 37 42 52 96 204 61
3 37 52 48 127 20 204
3 48 52 49 127 20 204
3 49 52 51 127 20 204
3 49 51 53 127 20 204
3 49 53 46 96 204 61
3 46 53 57 204 61 61
3 46 57 55 204 61 61
3 46 55 45 96 204 61
3 45 55 44 127 20 204
3 44 55 63 204 61 61
3 45 44 41 127 20 204
3 45 41 43 127 20 204
3 43 41 36 127 20 204
3 36 41 34 96 204 61
3 34 41 40 204 61 61
3 34 40 24 127 20 204
3 24 40 37 127 20 204
3 24 37 48 127 20 204
3 24 48 58 127 20 204
3 58 48 56 127 20 204
3 56 48 49 127 20 204
3 56 49 46 204 61 61
3 56 46 43 204 61 61
3 43 46 45 204 61 61
3 56 43 39 204 61 61
3 39 43 36 127 20 204
3 39 36 25 48 242 105
3 25 36 29 48 242 105
3 29 36 34 48 242 105
3 29 34 23 48 242 105
3 23 34 24 48 242 105
3 23 24 16 48 242 105
3 16 24 22 48 242 105
3 22 24 25 48 242 105
3 25 24 58 48 242 105
3 25 58 39 127 20 204
3 39 58 56 204 61 61
3 22 25 21 48 242 105
3 21 25 29 48 242 105
3 21 29 19 48 242 105
3 19 29 62 48 242 105
3 62 29 23 48 242 105
3 62 23 60 48 242 105
3 60 23 16 48 242 105
3 60 16 22 48 242 105
3 60 22 5 48 242 105
3 5 22 12 48 242 105
3 12 22 19 48 242 105
3 19 22 21 48 242 105
3 12 19 62 48 242 105
3 12 62 60 48 242 105
3 12 60 5 48 242 105
3 97 84 108 242 24 142
3 97 108 143 242 24 142
3 143 108 131 40 176 204
3 131 108 105 40 176 204
3 143 131 275 242 24 142
3 275 131 208 40 176 204
3 275 208 255 40 176 204
3 275 255 158 242 24 142
3 158 255 181 40 176 204
3 158 181 317 40 176 204
3 317 181 188 40 176 204
3 188 181 244 40 176 204
3 188 244 268 40 176 204
3 268 244 311 40 176 204
3 268 311 336 40 176 204
3 268 336 351 40 176 204
3 351 336 335 40 176 204
3 335 336 350 40 176 204
3 335 350 365 40 176 204
3 365 350 334 40 176 204
3 365 334 412 40 176 204
3 365 412 405 40 176 204
3 405 412 449 40 176 204
3 405 449 476 40 176 204
3 405 476 468 40 176 204
3 468 476 318 40 176 204
3 318 476 290 40 176 204
3 290 476 237 40 176 204
3 290 237 197 40 176 204
3 290 197 291 40 176 204
3 291 197 281 40 176 204
3 291 281 506 40 176 204
3 506 281 501 40 176 204
3 501 281 482 40 176 204
3 501 482 465 40 176 204
3 465 482 460 40 176 204
3 465 460 428 40 176 204
3 428 460 386 40 176 204
3 386 460 374 40 176 204
3 386 374 307 40 176 204
3 386 307 357 40 176 204
3 357 307 316 40 176 204
3 316 307 233 40 176 204
3 233 307 277 40 176 204
3 233 277 241 40 176 204
3 233 241 214 40 176 204
3 214 241 211 40 176 204
3 214 211 283 40 176 204
3 283 211 182 40 176 204
3 182 211 178 40 176 204
3 182 178 143 40 176 204
3 182 143 269 40 176 204
3 269 143 275 40 176 204
3 269 275 162 40 176 204
3 162 275 280 40 176 204
3 280 275 158 242 24 142
3 280 158 322 242 24 142
3 322 158 317 242 24 142
3 322 317 406 242 24 142
3 406 317 389 40 176 204
3 389 317 188 40 176 204
3 389 188 215 40 176 204
3 215 188 268 40 176 204
3 215 268 351 40 176 204
3 215 351 220 40 176 204
3 220 351 301 40 176 204
3 301 351 366 40 176 204
3 366 351 335 40 176 204
3 366 335 392 40 176 204
3 392 335 365 40 176 204
3 392 365 405 40 176 204
3 392 405 468 40 176 204
3 392 468 454 40 176 204
3 454 468 483 40 176 204
3 483 468 318 40 176 204
3 483 318 375 40 176 204
3 375 318 506 40 176 204
3 506 318 290 40 176 204
3 506 290 291 40 176 204
3 375 506 369 40 176 204
3 369 506 377 242 24 142
3 377 506 465 242 24 142
3 465 506 501 40 176 204
3 377 465 491 242 24 142
3 491 465 434 242 24 142
3 434 465 428 242 24 142
3 434 428 394 242 24 142
3 394 428 386 40 176 204
3 394 386 358 40 176 204
3 358 386 357 40 176 204
3 358 357 320 40 176 204
3 320 357 316 40 176 204
3 320 316 233 40 176 204
3 320 233 234 40 176 204
3 234 233 214 40 176 204
3 234 214 203 40 176 204
3 203 214 353 40 176 204
3 353 214 283 40 176 204
3 353 283 162 40 176 204
3 162 283 269 40 176 204
3 269 283 182 40 176 204
3 353 162 322 40 176 204
3 322 162 280 40 176 204
3 353 322 457 242 24 142
3 457 322 406 242 24 142
3 457 406 517 242 24 142
3 517 406 498 242 24 142
3 498 406 401 242 24 142
3 401 406 389 40 176 204
3 401 389 215 40 176 204
3 401 215 189 40 176 204
3 189 215 308 242 24 142
3 308 215 220 40 176 204
3 308 220 301 40 176 204
3 308 301 321 40 176 204
3 321 301 367 40 176 204
3 367 301 366 40 176 204
3 367 366 454 40 176 204
3 454 366 392 40 176 204
3 367 454 483 40 176 204
3 367 483 484 242 24 142
3 484 483 396 242 24 142
3 396 483 375 242 24 142
3 396 375 369 242 24 142
3 396 369 520 242 24 142
3 520 369 402 242 24 142
3 402 369 377 242 24 142
3 402 377 491 242 24 142
3 402 491 524 242 24 142
3 524 491 466 242 24 142
3 466 491 434 242 24 142
3 466 434 394 242 24 142
3 466 394 391 242 24 142
3 391 394 358 242 24 142
3 391 358 359 242 24 142
3 359 358 320 40 176 204
3 359 320 328 40 176 204
3 328 320 287 40 176 204
3 287 320 245 242 24 142
3 245 320 234 40 176 204
3 245 234 203 242 24 142
3 245 203 204 242 24 142
3 204 203 490 242 24 142
3 490 203 417 242 24 142
3 417 203 353 242 24 142
3 417 353 457 242 24 142
3 417 457 490 242 24 142
3 490 457 517 242 24 142
3 490 517 179 242 24 142
3 179 517 578 242 24 142
3 578 517 534 242 24 142
3 534 517 498 242 24 142
3 534 498 160 242 24 142
3 160 498 401 242 24 142
3 160 401 189 242 24 142
3 160 189 196 242 24 142
3 196 189 308 242 24 142
3 196 308 288 242 24 142
3 288 308 302 242 24 142
3 302 308 321 242 24 142
3 302 321 455 40 176 204
3 455 321 355 40 176 204
3 355 321 368 242 24 142
3 368 321 367 242 24 142
3 368 367 421 242 24 142
3 421 367 484 242 24 142
3 421 484 485 242 24 142
3 485 484 396 242 24 142
3 485 396 511 242 24 142
3 511 396 520 242 24 142
3 511 520 544 242 24 142
3 544 520 402 242 24 142
3 544 402 537 242 24 142
3 537 402 524 242 24 142
3 537 524 531 242 24 142
3 531 524 442 242 24 142
3 442 524 466 242 24 142
3 442 466 413 242 24 142
3 413 466 382 242 24 142
3 382 466 391 242 24 142
3 382 391 359 242 24 142
3 382 359 371 242 24 142
3 371 359 348 40 176 204
3 348 359 328 40 176 204
3 348 328 339 40 176 204
3 339 328 478 40 176 204
3 478 328 287 40 176 204
3 478 287 289 242 24 142
3 289 287 246 242 24 142
3 246 287 245 242 24 142
3 246 245 235 242 24 142
3 235 245 204 242 24 142
3 235 204 568 242 24 142
3 568 204 179 242 24 142
3 179 204 490 242 24 142
3 568 179 601 242 24 142
3 601 179 578 242 24 142
3 601 578 604 242 24 142
3 604 578 600 242 24 142
3 600 578 542 242 24 142
3 542 578 534 242 24 142
3 542 534 160 242 24 142
3 542 160 169 242 24 142
3 169 160 196 242 24 142
3 169 196 247 242 24 142
3 247 196 278 242 24 142
3 278 196 288 242 24 142
3 278 288 302 242 24 142
3 278 302 527 242 24 142
3 527 302 523 242 24 142
3 523 302 470 242 24 142
3 470 302 455 242 24 142
3 470 455 326 242 24 142
3 326 455 469 40 176 204
3 469 455 355 40 176 204
3 469 355 526 40 176 204
3 526 355 532 40 176 204
3 532 355 368 242 24 142
3 532 368 395 242 24 142
3 395 368 421 242 24 142
3 395 421 451 242 24 142
3 451 421 485 242 24 142
3 451 485 452 242 24 142
3 452 485 511 242 24 142
3 452 511 475 242 24 142
3 475 511 582 242 24 142
3 582 511 544 242 24 142
3 582 544 580 242 24 142
3 580 544 537 242 24 142
3 580 537 591 242 24 142
3 591 537 459 242 24 142
3 459 537 531 242 24 142
3 459 531 442 242 24 142
3 459 442 413 242 24 142
3 459 413 435 242 24 142
3 435 413 583 242 24 142
3 583 413 400 242 24 142
3 400 413 387 242 24 142
3 387 413 382 242 24 142
3 387 382 371 242 24 142
3 387 371 383 242 24 142
3 383 371 567 242 24 142
3 567 371 471 242 24 142
3 471 371 348 40 176 204
3 471 348 339 40 176 204
3 471 339 489 40 176 204
3 489 339 338 40 176 204
3 338 339 327 40 176 204
3 327 339 478 40 176 204
3 327 478 530 242 24 142
3 530 478 289 242 24 142
3 530 289 293 242 24 142
3 293 289 279 242 24 142
3 279 289 246 242 24 142
3 279 246 271 242 24 142
3 271 246 235 242 24 142
3 271 235 236 242 24 142
3 236 235 568 242 24 142
3 236 568 588 242 24 142
3 588 568 601 242 24 142
3 588 601 180 242 24 142
3 180 601 604 242 24 142
3 180 604 617 242 24 142
3 617 604 637 242 24 142
3 637 604 600 242 24 142
3 637 600 615 242 24 142
3 615 600 216 242 24 142
3 216 600 169 242 24 142
3 169 600 542 242 24 142
3 216 169 247 242 24 142
3 216 247 569 242 24 142
3 569 247 278 242 24 142
3 569 278 527 242 24 142
3 569 527 577 242 24 142
3 577 527 535 242 24 142
3 535 527 523 242 24 142
3 535 523 514 242 24 142
3 514 523 470 242 24 142
3 514 470 326 242 24 142
3 514 326 327 242 24 142
3 327 326 338 40 176 204
3 338 326 469 40 176 204
3 338 469 489 40 176 204
3 489 469 526 40 176 204
3 489 526 543 242 24 142
3 543 526 532 242 24 142
3 543 532 575 242 24 142
3 575 532 540 242 24 142
3 540 532 395 242 24 142
3 540 395 422 242 24 142
3 422 395 451 242 24 142
3 422 451 452 242 24 142
3 422 452 475 242 24 142
3 422 475 453 242 24 142
3 453 475 486 242 24 142
3 486 475 602 242 24 142
3 602 475 582 242 24 142
3 602 582 581 242 24 142
3 581 582 610 242 24 142
3 610 582 580 242 24 142
3 610 580 631 242 24 142
3 631 580 591 242 24 142
3 631 591 589 242 24 142
3 589 591 459 242 24 142
3 589 459 435 242 24 142
3 589 435 436 242 24 142
3 436 435 583 242 24 142
3 436 583 415 242 24 142
3 415 583 388 242 24 142
3 388 583 400 242 24 142
3 388 400 383 242 24 142
3 383 400 387 242 24 142
3 388 383 586 242 24 142
3 586 383 567 242 24 142
3 586 567 576 242 24 142
3 576 567 543 242 24 142
3 543 567 489 242 24 142
3 489 567 471 242 24 142
3 576 543 575 242 24 142
3 576 575 592 242 24 142
3 592 575 414 242 24 142
3 414 575 540 242 24 142
3 414 540 422 242 24 142
3 414 422 453 242 24 142
3 414 453 437 242 24 142
3 437 453 486 242 24 142
3 437 486 429 242 24 142
3 429 486 467 242 24 142
3 467 486 619 242 24 142
3 619 486 602 242 24 142
3 619 602 610 242 24 142
3 610 602 581 242 24 142
3 619 610 627 242 24 142
3 627 610 631 242 24 142
3 627 631 645 242 24 142
3 645 631 500 242 24 142
3 500 631 589 242 24 142
3 500 589 438 242 24 142
3 438 589 436 242 24 142
3 438 436 415 242 24 142
3 438 415 424 242 24 142
3 424 415 605 242 24 142
3 605 415 388 242 24 142
3 605 388 609 242 24 142
3 609 388 586 242 24 142
3 609 586 576 242 24 142
3 609 576 611 242 24 142
3 611 576 592 242 24 142
3 611 592 630 242 24 142
3 630 592 429 242 24 142
3 429 592 437 242 24 142
3 437 592 414 242 24 142
3 630 429 431 242 24 142
3 431 429 487 242 24 142
3 487 429 467 242 24 142
3 487 467 619 242 24 142
3 487 619 632 242 24 142
3 632 619 627 242 24 142
3 632 627 659 242 24 142
3 659 627 647 242 24 142
3 647 627 645 242 24 142
3 647 645 677 242 24 142
3 677 645 494 242 24 142
3 494 645 500 242 24 142
3 494 500 438 242 24 142
3 494 438 456 242 24 142
3 456 438 424 242 24 142
3 456 424 439 242 24 142
3 439 424 657 40 176 204
3 657 424 633 242 24 142
3 633 424 605 242 24 142
3 633 605 623 242 24 142
3 623 605 609 242 24 142
3 623 609 611 242 24 142
3 623 611 649 242 24 142
3 649 611 625 242 24 142
3 625 611 630 242 24 142
3 625 630 408 242 24 142
3 408 630 431 242 24 142
3 408 431 432 242 24 142
3 432 431 458 242 24 142
3 458 431 487 242 24 142
3 458 487 488 242 24 142
3 488 487 659 242 24 142
3 659 487 632 242 24 142
3 488 659 680 242 24 142
3 680 659 647 242 24 142
3 680 647 683 242 24 142
3 683 647 677 242 24 142
3 683 677 689 96 204 61
3 689 677 685 96 204 61
3 685 677 479 40 176 204
3 479 677 494 242 24 142
3 479 494 439 40 176 204
3 439 494 456 40 176 204
3 479 439 477 96 204 61
3 477 439 419 40 176 204
3 419 439 657 40 176 204
3 419 657 682 40 176 204
3 682 657 660 40 176 204
3 660 657 633 242 24 142
3 660 633 649 242 24 142
3 649 633 623 242 24 142
3 660 649 666 242 24 142
3 666 649 625 242 24 142
3 666 625 408 242 24 142
3 666 408 673 242 24 142
3 673 408 432 242 24 142
3 673 432 716 242 24 142
3 716 432 461 242 24 142
3 461 432 509 242 24 142
3 509 432 458 242 24 142
3 509 458 488 242 24 142
3 509 488 680 242 24 142
3 509 680 493 242 24 142
3 493 680 701 96 204 61
3 701 680 683 96 204 61
3 701 683 689 96 204 61
3 701 689 720 96 204 61
3 720 689 721 96 204 61
3 721 689 705 96 204 61
3 705 689 685 96 204 61
3 705 685 477 96 204 61
3 477 685 479 96 204 61
3 705 477 444 96 204 61
3 444 477 419 96 204 61
3 444 419 409 96 204 61
3 409 419 687 96 204 61
3 687 419 682 204 61 61
3 687 682 690 204 61 61
3 690 682 673 242 24 142
3 673 682 660 242 24 142
3 673 660 666 242 24 142
3 690 673 716 242 24 142
3 690 716 709 242 24 142
3 709 716 741 204 61 61
3 741 716 440 204 61 61
3 440 716 423 204 61 61
3 423 716 461 204 61 61
3 423 461 440 204 61 61
3 440 461 462 96 204 61
3 462 461 493 242 24 142
3 493 461 509 242 24 142
3 462 493 719 242 24 142
3 719 493 701 96 204 61
3 719 701 736 96 204 61
3 736 701 720 96 204 61
3 736 720 728 96 204 61
3 728 720 721 96 204 61
3 728 721 730 96 204 61
3 730 721 712 96 204 61
3 712 721 705 96 204 61
3 712 705 504 96 204 61
3 504 705 492 96 204 61
3 492 705 444 96 204 61
3 492 444 445 96 204 61
3 445 444 409 96 204 61
3 445 409 699 96 204 61
3 699 409 687 96 204 61
3 699 687 709 96 204 61
3 709 687 690 204 61 61
3 699 709 742 96 204 61
3 742 709 741 204 61 61
3 742 741 416 96 204 61
3 416 741 440 96 204 61
3 416 440 499 96 204 61
3 499 440 462 96 204 61
3 499 462 719 96 204 61
3 499 719 736 96 204 61
3 499 736 495 96 204 61
3 495 736 728 96 204 61
3 495 728 502 96 204 61
3 502 728 730 96 204 61
3 502 730 472 96 204 61
3 472 730 712 96 204 61
3 472 712 744 96 204 61
3 744 712 723 96 204 61
3 723 712 504 96 204 61
3 723 504 714 96 204 61
3 714 504 492 96 204 61
3 714 492 426 96 204 61
3 426 492 713 96 204 61
3 713 492 445 96 204 61
3 713 445 722 96 204 61
3 722 445 699 96 204 61
3 722 699 742 96 204 61
3 722 742 749 96 204 61
3 749 742 418 96 204 61
3 418 742 416 96 204 61
3 418 416 430 96 204 61
3 430 416 499 96 204 61
3 430 499 495 96 204 61
3 430 495 418 96 204 61
3 418 495 502 96 204 61
3 418 502 472 96 204 61
3 418 472 443 96 204 61
3 443 472 503 96 204 61
3 503 472 744 96 204 61
3 503 744 480 96 204 61
3 480 744 732 96 204 61
3 732 744 723 96 204 61
3 732 723 714 96 204 61
3 732 714 735 96 204 61
3 735 714 473 96 204 61
3 473 714 420 96 204 61
3 420 714 426 96 204 61
3 420 426 727 96 204 61
3 727 426 713 96 204 61
3 727 713 722 96 204 61
3 727 722 745 96 204 61
3 745 722 749 96 204 61
3 745 749 397 96 204 61
3 397 749 443 96 204 61
3 443 749 418 96 204 61
3 397 443 403 96 204 61
3 403 443 503 96 204 61
3 403 503 480 96 204 61
3 403 480 734 96 204 61
3 734 480 735 96 204 61
3 735 480 732 96 204 61
3 734 735 473 96 204 61
3 734 473 420 96 204 61
3 734 420 739 96 204 61
3 739 420 727 96 204 61
3 739 727 745 96 204 61
3 739 745 403 96 204 61
3 403 745 397 96 204 61
3 739 403 734 96 204 61
3 514 327 530 242 24 142
3 514 530 528 242 24 142
3 528 530 293 242 24 142
3 528 293 282 242 24 142
3 282 293 258 242 24 142
3 258 293 279 242 24 142
3 258 279 271 242 24 142
3 258 271 236 242 24 142
3 258 236 261 242 24 142
3 261 236 221 242 24 142
3 221 236 205 242 24 142
3 205 236 588 242 24 142
3 205 588 180 242 24 142
3 205 180 190 242 24 142
3 190 180 635 242 24 142
3 635 180 617 242 24 142
3 635 617 640 242 24 142
3 640 617 637 242 24 142
3 640 637 663 242 24 142
3 663 637 159 242 24 142
3 159 637 615 242 24 142
3 159 615 217 242 24 142
3 217 615 206 242 24 142
3 206 615 216 242 24 142
3 206 216 587 242 24 142
3 587 216 569 242 24 142
3 587 569 577 242 24 142
3 587 577 598 242 24 142
3 598 577 603 242 24 142
3 603 577 535 242 24 142
3 603 535 571 242 24 142
3 571 535 528 242 24 142
3 528 535 514 242 24 142
3 571 528 282 242 24 142
3 571 282 276 242 24 142
3 276 282 261 242 24 142
3 261 282 258 242 24 142
3 276 261 257 242 24 142
3 257 261 221 242 24 142
3 257 221 218 242 24 142
3 218 221 205 242 24 142
3 218 205 190 242 24 142
3 218 190 655 242 24 142
3 655 190 646 242 24 142
3 646 190 635 242 24 142
3 646 635 640 242 24 142
3 646 640 675 242 24 142
3 675 640 681 40 176 204
3 681 640 663 40 176 204
3 681 663 157 242 24 142
3 157 663 173 242 24 142
3 173 663 191 242 24 142
3 191 663 159 242 24 142
3 191 159 217 242 24 142
3 191 217 209 242 24 142
3 209 217 248 242 24 142
3 248 217 626 242 24 142
3 626 217 222 242 24 142
3 222 217 206 242 24 142
3 222 206 587 242 24 142
3 222 587 598 242 24 142
3 222 598 626 242 24 142
3 626 598 612 242 24 142
3 612 598 603 242 24 142
3 612 603 638 242 24 142
3 638 603 276 242 24 142
3 276 603 571 242 24 142
3 638 276 257 242 24 142
3 638 257 262 242 24 142
3 262 257 218 242 24 142
3 262 218 219 242 24 142
3 219 218 655 242 24 142
3 219 655 653 242 24 142
3 653 655 240 242 24 142
3 240 655 662 242 24 142
3 662 655 646 242 24 142
3 662 646 675 242 24 142
3 662 675 692 40 176 204
3 692 675 693 96 204 61
3 693 675 688 96 204 61
3 688 675 681 242 24 142
3 688 681 157 242 24 142
3 688 157 715 96 204 61
3 715 157 161 96 204 61
3 161 157 164 242 24 142
3 164 157 173 242 24 142
3 164 173 191 242 24 142
3 164 191 209 242 24 142
3 164 209 248 242 24 142
3 164 248 252 242 24 142
3 252 248 264 242 24 142
3 264 248 667 242 24 142
3 667 248 641 242 24 142
3 641 248 626 242 24 142
3 641 626 612 242 24 142
3 641 612 638 242 24 142
3 641 638 667 242 24 142
3 667 638 650 242 24 142
3 650 638 262 242 24 142
3 650 262 219 242 24 142
3 650 219 653 242 24 142
3 650 653 656 242 24 142
3 656 653 678 242 24 142
3 678 653 240 242 24 142
3 678 240 224 96 204 61
3 224 240 198 96 204 61
3 198 240 662 242 24 142
3 198 662 692 96 204 61
3 198 692 225 96 204 61
3 225 692 704 204 61 61
3 704 692 693 204 61 61
3 704 693 726 96 204 61
3 726 693 743 96 204 61
3 743 693 703 96 204 61
3 703 693 688 96 204 61
3 703 688 725 96 204 61
3 725 688 715 96 204 61
3 725 715 155 96 204 61
3 155 715 176 96 204 61
3 176 715 161 242 24 142
3 176 161 194 96 204 61
3 194 161 238 96 204 61
3 238 161 223 96 204 61
3 223 161 252 40 176 204
3 252 161 164 242 24 142
3 223 252 264 40 176 204
3 223 264 679 96 204 61
3 679 264 674 242 24 142
3 674 264 667 242 24 142
3 674 667 672 242 24 142
3 672 667 656 242 24 142
3 656 667 650 242 24 142
3 672 656 678 242 24 142
3 672 678 691 96 204 61
3 691 678 224 96 204 61
3 691 224 695 96 204 61
3 695 224 225 96 204 61
3 225 224 198 96 204 61
3 695 225 242 96 204 61
3 242 225 175 96 204 61
3 175 225 704 204 61 61
3 175 704 726 96 204 61
3 175 726 199 96 204 61
3 199 726 731 96 204 61
3 731 726 165 96 204 61
3 165 726 750 96 204 61
3 750 726 743 96 204 61
3 750 743 163 96 204 61
3 163 743 183 96 204 61
3 183 743 738 96 204 61
3 738 743 703 96 204 61
3 738 703 725 96 204 61
3 738 725 210 96 204 61
3 210 725 155 96 204 61
3 210 155 212 96 204 61
3 212 155 194 96 204 61
3 194 155 176 96 204 61
3 212 194 238 96 204 61
3 212 238 228 96 204 61
3 228 238 265 96 204 61
3 265 238 223 204 61 61
3 265 223 679 204 61 61
3 265 679 717 96 204 61
3 717 679 711 96 204 61
3 711 679 691 96 204 61
3 691 679 672 96 204 61
3 672 679 674 242 24 142
3 711 691 695 96 204 61
3 711 695 706 96 204 61
3 706 695 242 96 204 61
3 706 242 272 96 204 61
3 272 242 226 96 204 61
3 226 242 199 96 204 61
3 199 242 175 96 204 61
3 226 199 733 96 204 61
3 733 199 731 96 204 61
3 733 731 746 96 204 61
3 746 731 165 96 204 61
3 746 165 184 96 204 61
3 184 165 174 96 204 61
3 174 165 750 96 204 61
3 174 750 163 96 204 61
3 174 163 751 96 204 61
3 751 163 183 96 204 61
3 751 183 251 96 204 61
3 251 183 738 96 204 61
3 251 738 210 96 204 61
3 251 210 748 96 204 61
3 748 210 212 96 204 61
3 748 212 228 96 204 61
3 748 228 737 96 204 61
3 737 228 717 96 204 61
3 717 228 265 204 61 61
3 737 717 711 96 204 61
3 737 711 729 96 204 61
3 729 711 263 96 204 61
3 263 711 724 96 204 61
3 724 711 706 96 204 61
3 724 706 272 96 204 61
3 724 272 740 96 204 61
3 740 272 718 96 204 61
3 718 272 226 96 204 61
3 718 226 227 96 204 61
3 227 226 733 96 204 61
3 227 733 746 96 204 61
3 227 746 253 96 204 61
3 253 746 184 96 204 61
3 253 184 273 96 204 61
3 273 184 751 96 204 61
3 751 184 174 96 204 61
3 273 751 724 96 204 61
3 724 751 263 96 204 61
3 263 751 251 96 204 61
3 263 251 729 96 204 61
3 729 251 748 96 204 61
3 729 748 737 96 204 61
3 273 724 740 96 204 61
3 273 740 253 96 204 61
3 253 740 747 96 204 61
3 747 740 718 96 204 61
3 747 718 227 96 204 61
3 747 227 253 96 204 61
3 33 35 314 242 24 142
3 33 314 27 242 24 142
3 27 314 329 242 24 142
3 27 329 332 242 24 142
3 27 332 344 242 24 142
3 27 344 18 127 20 204
3 18 344 343 204 61 61
3 18 343 323 204 61 61
3 323 343 379 204 61 61
3 379 343 0 96 204 61
3 379 0 4 96 204 61
3 4 0 8 96 204 61
3 4 8 393 204 61 61
3 393 8 11 96 204 61
3 393 11 6 204 61 61
3 6 11 384 96 204 61
3 6 384 361 96 204 61
3 361 384 380 204 61 61
3 361 380 337 204 61 61
3 337 380 7 96 204 61
3 337 7 312 96 204 61
3 312 7 9 96 204 61
3 312 9 294 96 204 61
3 294 9 10 96 204 61
3 10 9 13 96 204 61
3 10 13 270 96 204 61
3 270 13 285 96 204 61
3 270 285 284 96 204 61
3 284 285 297 96 204 61
3 297 285 33 96 204 61
3 297 33 18 96 204 61
3 18 33 27 96 204 61
3 297 18 323 96 204 61
3 297 323 305 204 61 61
3 305 323 379 204 61 61
3 305 379 341 96 204 61
3 341 379 347 96 204 61
3 347 379 360 96 204 61
3 360 379 4 96 204 61
3 360 4 393 204 61 61
3 360 393 1 204 61 61
3 1 393 6 204 61 61
3 1 6 2 96 204 61
3 2 6 361 204 61 61
3 2 361 352 204 61 61
3 352 361 342 96 204 61
3 342 361 337 96 204 61
3 342 337 312 96 204 61
3 342 312 304 204 61 61
3 304 312 294 96 204 61
3 304 294 3 96 204 61
3 3 294 10 96 204 61
3 3 10 270 96 204 61
3 3 270 310 96 204 61
3 310 270 284 96 204 61
3 310 284 341 96 204 61
3 341 284 305 96 204 61
3 305 284 297 96 204 61
3 310 341 347 96 204 61
3 310 347 309 96 204 61
3 309 347 352 96 204 61
3 352 347 1 96 204 61
3 1 347 360 96 204 61
3 352 1 2 96 204 61
3 309 352 330 96 204 61
3 330 352 342 96 204 61
3 330 342 304 96 204 61
3 330 304 3 96 204 61
3 330 3 309 96 204 61
3 309 3 310 96 204 61
3 584 565 590 204 61 61
3 584 590 596 204 61 61
3 596 590 607 204 61 61
3 607 590 593 204 61 61
3 607 593 614 204 61 61
3 614 593 621 96 204 61
3 614 621 628 96 204 61
3 628 621 634 127 20 204
3 634 621 606 204 61 61
3 634 606 620 127 20 204
3 634 620 61 127 20 204
3 61 620 624 127 20 204
3 624 620 613 204 61 61
3 613 620 595 242 221 72
3 613 595 616 48 242 105
3 613 616 629 48 242 105
3 629 616 618 204 61 61
3 618 616 608 204 61 61
3 618 608 622 204 61 61
3 622 608 584 204 61 61
3 622 584 596 204 61 61
3 622 596 614 204 61 61
3 614 596 607 204 61 61
3 622 614 636 204 61 61
3 636 614 643 96 204 61
3 643 614 628 96 204 61
3 643 628 644 96 204 61
3 644 628 634 96 204 61
3 644 634 61 127 20 204
3 644 61 654 127 20 204
3 654 61 671 127 20 204
3 671 61 651 127 20 204
3 651 61 639 127 20 204
3 639 61 624 127 20 204
3 639 624 629 204 61 61
3 629 624 613 204 61 61
3 639 629 642 204 61 61
3 642 629 618 204 61 61
3 642 618 636 127 20 204
3 636 618 622 204 61 61
3 642 636 648 127 20 204
3 648 636 643 127 20 204
3 648 643 658 127 20 204
3 658 643 644 96 204 61
3 658 644 654 96 204 61
3 658 654 664 127 20 204
3 664 654 671 127 20 204
3 664 671 676 48 242 105
3 676 671 665 48 242 105
3 665 671 668 48 242 105
3 668 671 651 204 61 61
3 668 651 661 204 61 61
3 661 651 639 204 61 61
3 661 639 642 127 20 204
3 661 642 652 127 20 204
3 652 642 648 127 20 204
3 652 648 669 127 20 204
3 669 648 658 127 20 204
3 669 658 664 127 20 204
3 669 664 686 127 20 204
3 686 664 676 48 242 105
3 686 676 696 48 242 105
3 696 676 700 48 242 105
3 700 676 684 48 242 105
3 684 676 665 48 242 105
3 684 665 694 48 242 105
3 694 665 670 48 242 105
3 670 665 668 48 242 105
3 670 668 661 48 242 105
3 670 661 652 127 20 204
3 670 652 669 127 20 204
3 670 669 686 127 20 204
3 670 686 697 127 20 204
3 697 686 696 48 242 105
3 697 696 708 48 242 105
3 708 696 700 48 242 105
3 708 700 707 48 242 105
3 707 700 684 48 242 105
3 707 684 710 48 242 105
3 710 684 702 48 242 105
3 702 684 698 48 242 105
3 698 684 694 48 242 105
3 698 694 702 48 242 105
3 702 694 697 48 242 105
3 697 694 670 48 242 105
3 702 697 708 48 242 105
3 702 708 710 48 242 105
3 710 708 707 48 242 105
