ply
format ascii 1.0
element vertex 752
property float x
property float y
property float z
element face 1500
property list uchar int vertex_indices
property uchar red
property uchar green
property uchar blue
end_header
-0.037858 -0.585657 -0.087925
-0.005073 -0.701431 -0.194871
-0.068274 -0.897035 -0.216979
-0.0403 -0.852165 -0.152483
0.038951 -0.313224 -0.152618
0.176834 0.198624 -0.022311
0.247416 0.178839 0.127979
0.239882 0.113368 0.113765
0.032409 0.324587 -0.004222
0.099307 0.062005 -0.083218
0.06694 -0.278955 0.062055
-0.021034 -0.318213 -0.023205
0.16942 0.271493 0.003816
0.154059 0.152211 -0.012133
0.137716 0.165868 -0.051415
0.035226 0.282464 0.038371
0.050435 0.295443 0.00033
-0.02711 -0.52333 0.1782
0.062854 -0.56058 0.129205
0.052841 -0.602796 0.246688
0.171431 -0.587019 0.26181
-0.095294 -0.3907 0.085091
-0.005146 -0.343309 0.17075
-0.142586 0.195466 0.110758
-0.182459 0.203126 0.037666
-0.128454 0.161409 0.075379
-0.140374 0.172649 0.038292
-0.254242 -0.001614 -0.087231
-0.23954 -0.004167 -0.110552
-0.225051 0.011348 -0.11239
-0.065655 -0.201754 0.156637
0.02503 -0.337124 0.057142
0.038793 -0.331607 0.105911
0.051326 -0.274666 0.081663
-0.12695 0.169509 0.046751
-0.113955 0.163281 -1.2e-05
-0.02879 0.294724 0.033355
-0.037206 -0.457899 -0.162571
0.000358 -0.474265 -0.168174
0.035854 -0.433775 -0.150374
0.041088 -0.464592 -0.135902
0.051699 -0.463668 -0.09848
-0.06337 -0.472066 -0.106427
-0.04898 -0.404116 -0.130951
0.020823 -0.478147 -0.15853
0.032754 -0.518744 -0.12756
0.008211 -0.543296 -0.091999
-0.057965 -0.520234 -0.164364
-0.047532 -0.532599 -0.176778
0.016818 -0.560089 -0.107793
-0.011426 -0.557698 -0.086806
-0.060223 -0.517724 -0.097109
-0.050096 -0.539348 -0.08704
0.006103 -0.541232 -0.17362
0.019228 -0.551165 -0.157831
-0.022346 -0.57492 -0.190915
-0.008302 -0.63587 -0.194912
0.011851 -0.651353 -0.18137
0.025644 -0.646989 -0.159167
0.027331 -0.651084 -0.134902
0.019334 -0.651758 -0.111795
-0.009366 -0.650634 -0.090705
-0.053415 -0.690984 -0.100457
-0.069614 -0.632862 -0.14434
0.020254 -0.694906 -0.163438
0.00434 -0.748411 -0.169961
0.019482 -0.700311 -0.131208
-0.009845 -0.709008 -0.102722
-0.081331 -0.78678 -0.162195
-0.100529 -0.869187 -0.177245
-0.088524 -0.839553 -0.196937
-0.058895 -0.803769 -0.205541
-0.044157 -0.819684 -0.203658
0.004618 -0.750878 -0.141118
-0.033486 -0.855519 -0.173723
0.004492 -0.709939 -0.112905
-0.025719 -0.705524 -0.097684
-0.064304 -0.820564 -0.138368
-0.042474 -0.334831 -0.075748
-0.033466 -0.306098 -0.093132
-0.00338 -0.316883 -0.14449
0.075137 -0.33129 -0.137897
0.083639 -0.375477 -0.112233
0.092372 -0.371199 -0.088254
0.041457 -0.458657 -0.064317
-0.045269 -0.405083 -0.0549
-0.021522 -0.438094 -0.03747
0.19605 0.176319 0.017254
0.204036 0.240412 0.057418
0.224452 0.244078 0.009981
0.210625 0.218745 -0.020818
0.191847 0.18833 -0.006106
0.170058 0.229252 0.051709
0.221394 0.229187 -0.009716
0.228285 0.242525 0.035958
0.25102 0.144742 0.067464
0.272183 0.17998 0.072068
0.26552 0.181151 0.124229
0.248453 0.132415 0.104416
0.218991 0.145172 0.083494
0.214422 0.179444 0.104638
0.296041 0.14261 0.110093
0.287307 0.123046 0.14295
0.261312 0.122363 0.152312
0.265456 0.104476 0.081374
0.276134 0.081508 0.145277
0.243583 0.10088 0.137789
0.241637 0.047267 0.070659
0.281198 0.081966 0.081508
0.281577 0.027773 0.116046
0.241052 0.003087 0.116478
0.062061 -0.1362 -0.065414
0.032668 -0.13165 -0.057591
0.002404 -0.061136 -0.052278
0.146444 -0.196015 0.083499
0.126415 -0.166779 0.101703
0.109996 -0.089235 0.082788
0.129699 -0.043295 0.033419
0.115476 0.084776 0.069885
0.12856 0.123937 0.049064
0.13179 -0.19524 -0.068528
0.008789 -0.1735 -0.052637
0.094458 -0.141762 -0.069448
0.052377 -0.162757 -0.074961
0.143272 -0.20582 -0.053044
0.15899 -0.22173 0.011886
0.147782 -0.251438 0.03827
0.161839 -0.199176 0.046563
0.141809 -0.271067 -0.005998
0.098274 -0.35672 -0.059808
0.126942 -0.288841 0.018649
0.074095 -0.372159 -0.028315
0.110572 -0.289965 0.042238
0.042521 -0.366714 -0.005367
0.080668 -0.308554 0.033254
0.035365 -0.297319 0.034768
0.130695 -0.042753 0.008471
0.114077 -0.046275 -0.02318
0.132826 -0.11906 -0.042419
0.066782 -0.054116 -0.05045
0.024063 -0.02029 -0.049706
-0.010601 -0.021672 -0.043337
0.128562 -0.286313 -0.070403
0.112648 -0.26477 -0.105771
0.078807 -0.241059 -0.124766
0.029323 -0.244591 -0.127279
-0.002436 -0.257476 -0.112794
-0.029828 -0.315563 -0.115001
0.000283 -0.313099 0.011626
-0.01361 -0.247985 -0.050853
-0.008039 -0.280585 -0.001225
0.127896 -0.01055 0.005337
0.057739 0.047619 -0.094309
0.067389 0.032179 -0.064165
0.161306 0.208919 -0.038087
0.099415 0.222387 -0.07574
0.141549 0.09395 0.025522
0.15024 0.165761 0.02224
0.166282 0.251812 0.010786
0.185179 0.273555 0.019507
0.149896 0.254386 0.002576
0.109458 0.218488 0.047176
0.129092 0.093745 -0.049801
0.082479 0.094756 -0.101266
0.04996 0.115208 -0.10951
0.020922 0.111489 -0.103732
0.143441 0.210916 -0.045117
0.15448 0.152205 0.006634
0.148329 0.151982 -0.03007
0.070089 0.171502 -0.083337
-0.025317 0.116047 -0.069531
0.114728 0.269952 -0.072508
0.17919 0.269435 -0.050331
0.140249 0.259791 -0.077194
0.080471 0.284618 -0.007143
0.12093 0.292373 -0.046979
0.068083 0.282319 -0.025234
0.052511 0.288232 -0.028779
-0.011182 0.291904 -0.057582
-0.069254 -0.400906 0.053384
-0.069765 -0.461733 0.099542
-0.032905 -0.46538 0.174561
0.03459 -0.437501 0.15685
-0.00654 -0.4956 0.066033
-0.025433 -0.548182 0.097004
-0.042869 -0.54636 0.115659
-0.049582 -0.539663 0.134488
-0.047853 -0.50359 0.158647
0.012081 -0.521718 0.180477
0.025804 -0.518088 0.170915
0.007175 -0.449804 0.051834
0.043443 -0.528452 0.107175
0.019109 -0.59894 0.125698
-0.013335 -0.601642 0.152157
-0.034342 -0.575638 0.167712
-0.013446 -0.56729 0.192011
0.044515 -0.543257 0.206699
0.062067 -0.53604 0.173246
0.041039 -0.590758 0.122469
0.063906 -0.547301 0.142204
0.030509 -0.619323 0.159568
0.00511 -0.602236 0.204261
0.030409 -0.565098 0.222071
0.070132 -0.578595 0.131724
0.067015 -0.638044 0.202624
0.03253 -0.626095 0.205992
0.088335 -0.547901 0.234229
0.098541 -0.541677 0.213413
0.109643 -0.545396 0.190574
0.146561 -0.624761 0.189139
0.12382 -0.568617 0.172709
0.090314 -0.626948 0.176017
0.11121 -0.626349 0.281389
0.102656 -0.587034 0.272168
0.116202 -0.570039 0.262695
0.1891 -0.597786 0.247672
0.148164 -0.564577 0.216145
0.166125 -0.594142 0.202873
0.203284 -0.674785 0.249438
0.202636 -0.692649 0.266323
0.154437 -0.669927 0.243132
0.262105 -0.745096 0.314727
0.23255 -0.718442 0.292873
0.169266 -0.685483 0.27876
0.094819 -0.6482 0.254647
0.199976 -0.682497 0.31702
0.203388 -0.698165 0.311597
0.216419 -0.676435 0.325283
0.236295 -0.665878 0.325121
0.238711 -0.648778 0.274024
0.234319 -0.66713 0.261561
0.277167 -0.686522 0.29803
-0.041848 -0.408124 0.037941
-0.104319 -0.369894 0.119866
-0.099957 -0.388767 0.103041
-0.087206 -0.347633 0.155747
0.047881 -0.440107 0.119675
-0.020036 -0.399386 0.030414
-0.002945 -0.395578 0.03414
0.036467 -0.439342 0.075583
-0.179752 0.137451 0.124503
-0.190629 0.223658 0.077206
-0.168346 0.14375 0.046014
-0.136038 0.167857 0.101955
-0.20174 0.178639 0.093845
-0.194897 0.164017 0.112229
-0.16415 0.117477 0.120162
-0.158523 0.085088 0.104844
-0.197968 0.064861 0.073851
-0.223415 0.083287 0.089447
-0.234513 0.043994 0.110784
-0.215484 0.070363 0.12435
-0.175134 0.080715 0.065229
-0.173504 0.054094 0.118867
-0.167567 0.05638 0.092225
-0.227192 0.063174 0.053323
-0.239377 0.052786 0.059304
-0.233985 0.053026 0.099542
-0.220296 0.011245 0.09541
-0.19372 0.008951 0.091284
-0.18441 0.026691 0.069177
-0.233708 0.002331 0.051897
-0.218916 -0.004275 0.055504
-0.194397 0.003603 0.055328
-0.249799 0.032085 0.037774
-0.212658 -0.004474 0.028683
-0.220167 -0.003009 -0.050572
-0.203954 0.010106 -0.013349
-0.016368 0.326421 0.019977
-0.084588 0.069383 -0.05341
0.05665 -0.169101 0.157193
0.047744 -0.099049 0.134995
0.038108 -0.017129 0.130914
-0.035102 -0.036557 0.142596
-0.039035 0.052909 0.140014
-0.015113 -0.04842 0.148431
0.013496 0.036444 0.138493
-0.095495 -0.122365 0.065851
-0.044968 -0.194693 -0.016713
-0.088458 -0.184045 0.137826
-0.039691 -0.226023 0.16585
-0.025648 -0.186767 0.171786
0.051375 -0.211667 0.159978
0.083927 -0.225632 0.116996
0.027659 -0.346171 0.146267
0.026132 -0.273394 0.145604
0.03575 -0.330584 0.127725
0.035087 -0.327821 0.082603
0.031938 -0.293282 0.053416
0.048495 -0.278784 0.058935
-0.087563 0.012683 0.064509
-0.074296 0.02425 -0.002517
-0.069382 -0.014546 0.110831
-0.094951 -0.124247 0.104417
-0.019931 -0.241077 0.167442
-0.044394 -0.368527 0.175384
-0.047174 -0.293325 0.172909
-0.090148 -0.275212 0.154969
-0.117883 -0.283298 0.11889
-0.112311 -0.239111 0.061599
-0.114043 -0.339075 0.089174
-0.097449 -0.228692 0.038097
-0.088385 -0.281265 0.028587
-0.012097 -0.3229 0.018934
0.004379 -0.33896 0.031956
-0.057586 -0.291077 0.012741
-0.056288 -0.345815 0.023414
-0.04511 -0.223975 -0.00923
-0.012242 -0.288135 0.013471
-0.015544 -0.266387 0.003518
-0.121944 0.088067 0.043292
-0.106968 0.049629 0.039344
-0.11005 0.049702 -0.012483
-0.084929 0.04616 -0.037855
-0.042513 0.028478 -0.031523
-0.164672 0.233009 0.02705
-0.130482 0.25994 0.021695
-0.064244 0.159136 0.125794
-0.092452 0.205635 0.124802
-0.152706 0.237822 0.10578
-0.111231 0.240554 0.117993
-0.089379 0.283485 0.081742
-0.088678 0.098004 0.105608
-0.114553 0.078515 -0.034429
-0.083747 0.107523 -0.056624
-0.139132 0.216848 0.026199
-0.154396 0.194826 0.025767
-0.066397 0.191062 -0.024343
-0.109674 0.173661 0.108521
-0.122625 0.155556 0.077302
-0.122498 0.10937 -0.012672
0.015895 0.182972 -0.065326
-0.148551 0.276198 0.083341
-0.150158 0.287789 0.056888
-0.051293 0.288051 0.01633
-0.062875 0.281765 0.029016
-0.038116 0.313589 -0.047186
-0.032109 0.246957 -0.030575
-0.058452 0.380541 -0.094892
0.033801 0.427626 -0.052533
0.033355 0.395037 -0.045828
-0.011076 0.495287 -0.049862
0.016958 0.498112 -0.010409
0.041118 0.482581 0.006779
0.040714 0.476939 -0.023102
0.019157 0.472524 -0.049359
-0.026678 0.487049 -0.065471
-0.017025 0.416017 -0.086846
0.057891 0.454236 0.021088
0.033784 0.346823 0.000953
0.060864 0.397817 0.016622
0.062101 0.420541 -0.012758
0.050796 0.374088 -0.013517
0.060368 0.451477 -0.002561
-0.064186 0.331802 -0.089744
0.022504 0.404879 -0.05987
-0.009759 0.350923 -0.081111
-0.050616 0.423877 -0.083777
-0.026858 0.489492 0.042099
-0.046638 0.497676 0.015463
-0.005764 0.474366 0.059286
-0.075957 0.475699 0.015873
-0.073382 0.478206 -0.049705
0.045671 0.38947 0.04455
0.009983 0.334275 0.019032
0.017797 0.388792 0.062442
-0.016227 0.403973 0.069449
-0.047867 0.356201 0.021259
-0.070374 0.322648 -0.067094
-0.099654 0.432752 -0.027613
0.000804 0.441214 0.074301
-0.037036 0.463219 0.059388
-0.072263 0.489872 -0.008968
-0.08653 0.39284 0.001565
-0.083726 0.410533 -0.070079
-0.098973 0.396246 -0.033582
-0.058702 0.447642 0.048797
-0.070807 0.33599 -0.009417
-0.045241 0.325993 -0.006512
-0.054725 0.398942 0.043694
-0.009896 0.35967 0.047688
-0.015857 0.507049 0.000873
0.0223 0.489731 0.02922
0.034142 0.447296 0.055552
-0.046807 0.501916 -0.032736
-0.092517 0.349106 -0.060898
-0.231268 0.048402 -0.120666
-0.273844 0.013534 -0.179241
-0.250936 0.032901 -0.11012
-0.203649 0.056463 -0.183759
-0.262028 0.019056 -0.109723
-0.272194 0.004488 -0.128091
-0.257881 -0.003788 -0.142361
-0.208044 0.029334 -0.143846
-0.226021 0.014159 -0.129649
-0.241378 0.028238 -0.219932
-0.26255 0.038708 -0.200998
-0.235908 0.067243 -0.220855
-0.244422 0.077153 -0.195154
-0.235079 0.069463 -0.15983
-0.274098 0.024214 -0.192411
-0.234719 0.073572 -0.208732
-0.23334 0.041445 -0.230921
-0.23126 0.047459 -0.226098
-0.255006 0.060212 -0.196522
-0.225711 0.027916 -0.10228
-0.206468 0.044406 -0.131565
-0.216216 0.059116 -0.155561
-0.247554 0.058237 -0.176722
-0.261817 0.051716 -0.162503
-0.253622 0.049731 -0.209499
-0.232318 0.057975 -0.168205
-0.261517 0.027289 -0.181615
-0.251809 0.045258 -0.184383
-0.251027 0.030275 -0.166794
-0.26555 0.020732 -0.189211
-0.276189 0.022807 -0.156617
0.257786 -0.151664 0.061508
0.262431 -0.122618 0.045302
0.248099 -0.10437 0.094168
0.237125 -0.115008 0.048748
0.213313 -0.096368 0.053327
0.245636 -0.153423 0.068921
0.2661 -0.127689 0.082204
0.232452 -0.175943 0.049274
0.226304 -0.171919 0.032849
0.230676 -0.163103 0.004612
0.239913 -0.152826 0.01398
0.245259 -0.15313 0.006103
0.269287 -0.113586 0.070216
0.230716 -0.16725 0.020915
0.230917 -0.156506 0.02667
0.23743 -0.161176 0.040906
0.232927 -0.160095 0.048383
0.254031 -0.138435 0.059908
0.208842 -0.084619 0.053311
0.216322 -0.110999 0.031084
0.237411 -0.071458 0.040491
0.221811 -0.089778 0.028961
0.211578 -0.076034 0.040445
0.248222 -0.15703 0.029919
0.256762 -0.120984 0.029369
0.253369 -0.110274 0.026215
0.240387 -0.125125 0.009103
0.231215 -0.111827 0.021828
0.246326 -0.133672 0.040868
0.248328 -0.132154 0.045723
0.30337 -0.7664 0.368803
0.318598 -0.757607 0.350445
0.316038 -0.756952 0.337193
0.325311 -0.79707 0.342402
0.311073 -0.785422 0.331192
0.291401 -0.752228 0.312629
0.324946 -0.830527 0.345126
0.318074 -0.82959 0.337827
0.313632 -0.857642 0.34852
0.300676 -0.854777 0.340321
0.300519 -0.811563 0.333482
0.282781 -0.778754 0.323765
0.302341 -0.852065 0.367097
0.290323 -0.865812 0.353608
0.289482 -0.832919 0.347713
0.271571 -0.769261 0.327993
0.296741 -0.869991 0.358075
0.271709 -0.850381 0.385801
0.268967 -0.831821 0.378244
0.267992 -0.828488 0.399174
0.263964 -0.804877 0.371372
0.274396 -0.788984 0.391086
0.270792 -0.778902 0.386592
0.263908 -0.773692 0.366144
0.261714 -0.761426 0.348831
0.283167 -0.739699 0.38418
0.271259 -0.736839 0.373245
0.257191 -0.721525 0.345825
0.29239 -0.709051 0.384545
0.282776 -0.701204 0.377037
0.311292 -0.683342 0.376701
0.289638 -0.672347 0.36167
0.270585 -0.698583 0.355318
0.301914 -0.665713 0.346999
0.325919 -0.686197 0.34066
0.305197 -0.713669 0.322598
0.326457 -0.715872 0.349568
-0.109414 -0.940841 -0.225448
-0.120214 -0.935491 -0.202847
-0.123876 -0.921828 -0.198972
-0.113213 -0.886164 -0.194257
-0.155152 -0.93386 -0.222671
-0.142344 -0.913826 -0.218716
-0.175955 -0.926343 -0.248485
-0.17994 -0.937164 -0.25243
-0.188803 -0.932947 -0.275283
-0.183233 -0.918183 -0.277286
-0.155428 -0.911644 -0.244028
-0.126709 -0.892843 -0.226992
-0.166397 -0.940766 -0.28785
-0.179825 -0.922335 -0.29649
-0.111476 -0.88857 -0.227551
-0.184132 -0.930195 -0.297715
-0.138807 -0.937507 -0.310244
-0.114709 -0.932733 -0.293884
-0.156414 -0.918884 -0.278805
-0.11642 -0.944422 -0.298046
-0.111498 -0.914333 -0.268341
-0.099645 -0.941321 -0.267355
-0.092539 -0.935371 -0.260381
-0.094041 -0.914744 -0.252128
-0.091901 -0.899773 -0.237607
-0.072083 -0.940251 -0.224783
-0.04414 -0.948518 -0.179497
-0.053396 -0.929792 -0.20805
-0.049768 -0.914686 -0.193698
-0.035371 -0.925122 -0.164802
-0.045494 -0.893445 -0.169169
-0.047934 -0.941199 -0.14985
-0.044749 -0.91006 -0.149266
-0.073034 -0.927829 -0.14567
-0.065868 -0.89908 -0.158104
-0.081166 -0.942892 -0.160376
-0.093632 -0.923783 -0.163769
-0.091429 -0.895791 -0.16756
-0.097619 -0.875344 -0.212706
-0.084342 -0.873614 -0.216895
-0.057824 -0.880965 -0.155041
-0.042271 -0.354228 -0.057761
-0.03444 -0.380612 -0.141036
0.07918 -0.358189 -0.127829
0.052124 -0.457551 -0.116387
-0.05704 -0.41062 -0.088707
-0.053626 -0.390846 -0.111555
0.007268 -0.340674 -0.154714
0.038034 -0.363906 -0.15476
0.03474 -0.497643 -0.094295
0.058465 -0.372497 -0.015431
-0.00336 -0.44188 -0.033865
-0.033351 -0.415832 -0.04008
-0.06428 -0.520919 -0.146518
-0.016478 -0.459897 -0.168887
0.001721 -0.503512 -0.065037
-0.029516 -0.544229 -0.080039
-0.067996 -0.550067 -0.127178
-0.037699 -0.538592 -0.183398
0.025127 -0.565386 -0.13802
-0.067144 -0.60975 -0.119432
-0.057217 -0.592333 -0.101483
-0.074265 -0.69519 -0.126956
-0.043568 -0.645608 -0.193161
-0.025323 -0.702892 -0.202859
-0.039283 -0.689489 -0.094554
-0.064882 -0.694921 -0.175643
-0.054377 -0.747223 -0.19926
0.002322 -0.716849 -0.185687
-0.066373 -0.698558 -0.112378
-0.075595 -0.792541 -0.190861
-0.031056 -0.830119 -0.190542
-0.078475 -0.809595 -0.14832
-0.014401 -0.304661 -0.130026
0.028122 -0.290823 -0.146769
0.06764 -0.306579 -0.142461
0.085663 -0.371782 -0.046205
0.027327 -0.356012 0.001471
-0.001389 -0.342166 -0.00327
0.215576 0.24487 0.048659
0.229046 0.175606 0.024794
0.2023 0.167252 0.036828
0.189897 0.176797 0.070454
0.193522 0.229611 0.065397
0.197405 0.205466 -0.02351
0.17203 0.255393 0.042941
0.185841 0.277788 -0.018983
0.160055 0.238617 -0.065676
0.250882 0.205705 0.093012
0.235258 0.17312 0.126967
0.2209 0.154557 0.107983
0.279015 0.136699 0.093453
0.290106 0.161815 0.1207
0.278758 0.158797 0.140433
0.257642 0.154234 0.148449
0.241314 0.139257 0.13942
0.294012 0.093352 0.10051
0.255563 0.086095 0.146098
0.23011 0.010976 0.094211
0.291596 0.081571 0.127313
0.264002 0.029478 0.130788
0.25981 0.036978 0.065445
0.252525 -0.065856 0.059574
0.229569 -0.05104 0.067421
0.236856 -0.050336 0.058978
0.267279 -0.059312 0.076445
0.263124 -0.068757 0.090474
0.249189 -0.070419 0.098493
0.233333 -0.069806 0.092956
0.222267 -0.082466 0.073297
0.007313 0.328584 -0.057149
0.029623 0.335613 -0.033877
-0.024781 0.323465 -0.056343
0.021979 0.061872 -0.098805
0.052477 0.071993 -0.108823
0.101287 -0.082766 -0.047037
0.07483 -0.011379 -0.042917
-0.037269 -0.140192 -0.031792
0.156635 -0.201021 -0.02144
0.114117 -0.212888 0.107679
0.152003 -0.124221 -0.021362
0.165229 -0.160842 0.011295
0.162 -0.163099 0.050094
0.158665 -0.114676 0.014465
0.154349 -0.134255 0.057341
0.122187 -0.050931 0.054838
0.092606 -0.051924 0.091995
0.114824 0.021863 0.075491
0.137944 0.071807 -0.005708
0.100411 0.132649 0.066972
0.118959 -0.158554 -0.067795
0.099892 -0.246827 -0.115655
0.056447 -0.235363 -0.126732
0.027336 -0.189311 -0.080723
-0.016059 -0.214125 -0.035307
0.120502 -0.282028 -0.093574
0.13615 -0.24824 0.068844
0.100661 -0.250441 0.089577
0.145116 -0.260642 -0.022528
0.102758 -0.327098 -0.006948
0.084879 -0.328333 0.011466
0.06644 -0.309978 0.033228
0.108759 -0.012858 -0.021634
0.019987 0.029253 -0.059681
-0.000921 -0.214282 -0.058807
-0.017125 -0.274446 -0.033364
0.118229 0.050458 -0.03471
0.119356 0.229871 -0.075875
0.077986 0.263294 -0.051116
0.134478 0.196046 0.035658
0.026737 0.261769 0.054385
0.099808 0.258868 0.029621
0.153031 0.285907 -0.059601
0.150144 0.285435 -0.029139
0.074401 0.276367 0.020409
0.111639 0.126011 -0.07593
0.082449 0.131484 -0.095806
0.113207 0.179094 -0.076511
0.041641 0.263758 -0.043022
0.277327 -0.715103 0.293171
0.268875 -0.727089 0.295457
0.252266 -0.738579 0.326771
0.255095 -0.691974 0.34207
0.276327 -0.674704 0.321712
-0.101339 -0.349915 0.138699
-0.068391 -0.346263 0.168445
-0.012397 -0.438361 0.179135
0.011616 -0.332584 0.160063
0.043539 -0.436241 0.140268
0.046183 -0.443852 0.099087
0.020788 -0.437557 0.056347
-0.083385 -0.398592 0.068494
-0.069881 -0.468885 0.123857
-0.061138 -0.458487 0.1527
0.015675 -0.457091 0.17537
0.003567 -0.546533 0.188553
0.006583 -0.569806 0.096227
-0.013237 -0.577581 0.109276
-0.036259 -0.574973 0.132186
0.028427 -0.535403 0.173619
0.042034 -0.534874 0.14017
0.045978 -0.549669 0.115988
0.030479 -0.561408 0.096846
0.009239 -0.619447 0.17974
0.087213 -0.636645 0.260543
0.066864 -0.572597 0.24965
0.133268 -0.561109 0.246955
0.145585 -0.614525 0.293019
0.156334 -0.610822 0.190333
0.16617 -0.59668 0.28209
0.259088 -0.661686 0.308859
-0.040074 -0.280237 0.006199
-0.095068 -0.334488 0.048873
-0.025682 -0.324724 0.174723
-0.150616 0.135311 0.056323
-0.152082 0.103674 0.079407
-0.200524 0.190625 0.069381
-0.123064 0.183211 0.094801
-0.159385 0.271431 0.037428
-0.195171 0.086871 0.059856
-0.203651 0.096207 0.061455
-0.194013 0.06175 0.13001
-0.196 0.044481 0.079917
-0.212959 0.05313 0.08077
-0.202535 0.031493 0.125826
-0.177724 0.028006 0.109005
-0.177945 0.035327 0.091929
-0.202389 0.057747 0.044225
-0.203851 0.050439 0.007259
-0.223819 0.057892 -0.022511
-0.245923 0.051568 0.0043
-0.244234 0.013435 0.046658
-0.234432 -0.007266 -0.048125
-0.19866 0.030393 -0.003913
-0.23616 0.037601 -0.101553
-0.259319 -0.004026 -0.124099
0.000317 0.30446 0.030139
-0.068148 0.052534 0.123454
-0.023251 0.063015 -0.062837
-0.125391 0.078489 0.00025
-0.06777 -0.032371 0.010623
-0.067523 -0.104105 -0.001438
-0.086043 -0.135444 0.031556
0.011091 -0.195468 0.175311
-0.022256 -0.13551 0.174413
0.015645 -0.155237 0.175453
-0.078535 -0.114249 0.134632
-0.051785 -0.120584 0.161009
0.007785 -0.061615 0.147419
-0.094832 0.055771 0.086086
-0.048559 0.107952 0.127763
-0.106725 -0.188676 0.111544
-0.117445 -0.229497 0.089497
-0.068584 -0.228375 0.00683
-0.107734 -0.264098 0.136685
0.048384 -0.263678 0.120873
0.006415 -0.25623 0.161399
0.038485 -0.287891 0.123603
0.03923 -0.291223 0.091615
-0.055682 -0.040027 0.129443
-0.076138 -0.034631 0.093895
-0.077612 -0.031525 0.054507
-0.069004 -0.282669 0.167128
-0.121412 -0.284314 0.088192
-0.108861 -0.285446 0.054283
-0.125006 0.205761 0.020622
-0.118617 0.288533 0.033317
-0.052019 0.264682 -0.008257
-0.074824 0.257478 0.008716
-0.120971 0.212073 0.115206
-0.043738 0.22538 0.111669
0.034501 0.193311 0.077033
-0.131685 0.275241 0.094635
-0.02657 0.268715 0.072378
-0.05239 0.283998 0.057706
-0.10407 0.12431 -0.038278
-0.12529 0.135836 0.026797
-0.071931 0.148047 -0.044489
-0.116806 0.299117 0.058645
-0.047488 -0.030082 -0.019162
0.087952 -0.192477 0.132623
0.061609 0.070078 0.103845
-0.004781 0.064322 0.139044
-0.001331 0.13313 0.111533
-0.013685 -0.256408 -0.012212
0.074146 -0.249959 0.097774
0.011607 -0.291395 0.024838
0.007562 0.244998 -0.047789
3 349 8 595 204 61 61
3 595 8 177 204 61 61
3 177 8 16 204 61 61
3 16 8 15 40 176 204
3 15 8 700 204 61 61
3 700 8 364 204 61 61
3 364 8 349 204 61 61
3 364 349 363 204 61 61
3 363 349 350 204 61 61
3 350 349 352 204 61 61
3 352 349 595 204 61 61
3 352 595 340 204 61 61
3 340 595 594 204 61 61
3 594 595 177 204 61 61
3 594 177 642 204 61 61
3 642 177 176 40 176 204
3 176 177 16 40 176 204
3 176 16 174 40 176 204
3 174 16 638 40 176 204
3 638 16 15 40 176 204
3 638 15 634 40 176 204
3 634 15 737 40 176 204
3 737 15 700 40 176 204
3 737 700 36 40 176 204
3 36 700 268 204 61 61
3 268 700 364 204 61 61
3 268 364 380 204 61 61
3 380 364 365 204 61 61
3 365 364 363 204 61 61
3 365 363 383 204 61 61
3 383 363 348 204 61 61
3 348 363 350 204 61 61
3 348 350 351 204 61 61
3 351 350 352 204 61 61
3 351 352 340 204 61 61
3 351 340 339 204 61 61
3 339 340 355 204 61 61
3 355 340 356 204 61 61
3 356 340 594 204 61 61
3 356 594 596 204 61 61
3 596 594 178 204 61 61
3 178 594 751 204 61 61
3 751 594 642 40 176 204
3 751 642 169 40 176 204
3 169 642 632 40 176 204
3 632 642 176 40 176 204
3 632 176 175 40 176 204
3 175 176 174 40 176 204
3 175 174 637 40 176 204
3 637 174 638 40 176 204
3 637 638 635 40 176 204
3 635 638 634 40 176 204
3 635 634 161 40 176 204
3 161 634 735 40 176 204
3 735 634 734 40 176 204
3 734 634 737 40 176 204
3 734 737 321 40 176 204
3 321 737 738 40 176 204
3 738 737 36 40 176 204
3 738 36 335 40 176 204
3 335 36 334 40 176 204
3 334 36 378 204 61 61
3 378 36 268 204 61 61
3 378 268 367 204 61 61
3 367 268 380 204 61 61
3 367 380 379 204 61 61
3 379 380 366 204 61 61
3 366 380 365 204 61 61
3 366 365 370 204 61 61
3 370 365 383 204 61 61
3 370 383 360 204 61 61
3 360 383 382 204 61 61
3 382 383 348 204 61 61
3 382 348 343 204 61 61
3 343 348 353 204 61 61
3 353 348 351 204 61 61
3 353 351 344 204 61 61
3 344 351 339 204 61 61
3 344 339 345 204 61 61
3 345 339 347 204 61 61
3 347 339 355 204 61 61
3 347 355 356 204 61 61
3 347 356 338 204 61 61
3 338 356 354 204 61 61
3 354 356 596 204 61 61
3 354 596 368 204 61 61
3 368 596 336 204 61 61
3 336 596 178 204 61 61
3 336 178 337 204 61 61
3 337 178 751 40 176 204
3 337 751 331 40 176 204
3 331 751 169 40 176 204
3 331 169 165 40 176 204
3 165 169 164 40 176 204
3 164 169 640 40 176 204
3 640 169 641 40 176 204
3 641 169 155 40 176 204
3 155 169 632 40 176 204
3 155 632 171 40 176 204
3 171 632 175 40 176 204
3 171 175 636 40 176 204
3 636 175 637 40 176 204
3 636 637 570 40 176 204
3 570 637 12 40 176 204
3 12 637 160 40 176 204
3 160 637 635 40 176 204
3 160 635 161 40 176 204
3 160 161 633 40 176 204
3 633 161 119 40 176 204
3 119 161 613 40 176 204
3 613 161 735 40 176 204
3 613 735 747 40 176 204
3 747 735 734 40 176 204
3 747 734 317 40 176 204
3 317 734 318 40 176 204
3 318 734 320 40 176 204
3 320 734 321 40 176 204
3 320 321 736 40 176 204
3 736 321 742 40 176 204
3 742 321 738 40 176 204
3 742 738 335 40 176 204
3 742 335 730 40 176 204
3 730 335 732 40 176 204
3 732 335 334 40 176 204
3 732 334 731 40 176 204
3 731 334 378 204 61 61
3 731 378 336 204 61 61
3 336 378 368 204 61 61
3 368 378 377 204 61 61
3 377 378 367 204 61 61
3 377 367 373 204 61 61
3 373 367 379 204 61 61
3 373 379 376 204 61 61
3 376 379 366 204 61 61
3 376 366 370 204 61 61
3 376 370 371 204 61 61
3 371 370 360 204 61 61
3 371 360 358 204 61 61
3 358 360 382 204 61 61
3 358 382 381 204 61 61
3 381 382 342 204 61 61
3 342 382 343 204 61 61
3 342 343 344 204 61 61
3 344 343 353 204 61 61
3 342 344 341 204 61 61
3 341 344 345 204 61 61
3 341 345 347 204 61 61
3 341 347 346 204 61 61
3 346 347 357 204 61 61
3 357 347 338 204 61 61
3 357 338 374 204 61 61
3 374 338 385 204 61 61
3 385 338 354 204 61 61
3 385 354 368 204 61 61
3 385 368 377 204 61 61
3 385 377 373 204 61 61
3 385 373 375 204 61 61
3 375 373 369 204 61 61
3 369 373 376 204 61 61
3 369 376 361 204 61 61
3 361 376 371 204 61 61
3 361 371 358 204 61 61
3 361 358 359 204 61 61
3 359 358 381 204 61 61
3 359 381 384 204 61 61
3 384 381 341 204 61 61
3 341 381 342 204 61 61
3 384 341 346 204 61 61
3 384 346 362 204 61 61
3 362 346 357 204 61 61
3 362 357 374 204 61 61
3 362 374 369 204 61 61
3 369 374 375 204 61 61
3 375 374 385 204 61 61
3 362 369 372 204 61 61
3 372 369 361 204 61 61
3 372 361 359 204 61 61
3 372 359 384 204 61 61
3 372 384 362 204 61 61
3 731 336 337 204 61 61
3 731 337 327 40 176 204
3 327 337 331 40 176 204
3 327 331 741 40 176 204
3 741 331 170 40 176 204
3 170 331 165 40 176 204
3 170 165 597 40 176 204
3 597 165 598 40 176 204
3 598 165 164 40 176 204
3 598 164 163 40 176 204
3 163 164 640 40 176 204
3 163 640 639 40 176 204
3 639 640 641 40 176 204
3 639 641 14 40 176 204
3 14 641 166 40 176 204
3 166 641 631 40 176 204
3 631 641 155 40 176 204
3 631 155 171 40 176 204
3 631 171 173 40 176 204
3 173 171 636 40 176 204
3 173 636 172 40 176 204
3 172 636 570 40 176 204
3 172 570 89 242 221 72
3 89 570 94 242 221 72
3 94 570 159 242 221 72
3 159 570 12 242 221 72
3 159 12 569 242 221 72
3 569 12 158 242 221 72
3 158 12 160 40 176 204
3 158 160 633 40 176 204
3 158 633 87 40 176 204
3 87 633 157 40 176 204
3 157 633 119 40 176 204
3 157 119 156 40 176 204
3 156 119 118 40 176 204
3 118 119 613 40 176 204
3 118 613 745 40 176 204
3 745 613 746 40 176 204
3 746 613 747 40 176 204
3 746 747 714 40 176 204
3 714 747 317 40 176 204
3 714 317 322 40 176 204
3 322 317 328 40 176 204
3 328 317 318 40 176 204
3 328 318 733 40 176 204
3 733 318 320 40 176 204
3 733 320 319 40 176 204
3 319 320 736 40 176 204
3 319 736 332 40 176 204
3 332 736 742 40 176 204
3 332 742 333 40 176 204
3 333 742 730 40 176 204
3 333 730 682 40 176 204
3 682 730 316 40 176 204
3 316 730 732 40 176 204
3 316 732 729 40 176 204
3 729 732 327 40 176 204
3 327 732 731 40 176 204
3 729 327 35 40 176 204
3 35 327 741 40 176 204
3 35 741 739 40 176 204
3 739 741 324 40 176 204
3 324 741 170 40 176 204
3 324 170 269 40 176 204
3 269 170 702 40 176 204
3 702 170 597 40 176 204
3 702 597 627 40 176 204
3 627 597 152 40 176 204
3 152 597 598 40 176 204
3 152 598 9 40 176 204
3 9 598 163 40 176 204
3 9 163 639 40 176 204
3 9 639 162 40 176 204
3 162 639 14 40 176 204
3 162 14 168 40 176 204
3 168 14 154 40 176 204
3 154 14 166 40 176 204
3 154 166 568 40 176 204
3 568 166 571 40 176 204
3 571 166 631 40 176 204
3 571 631 173 40 176 204
3 571 173 172 40 176 204
3 571 172 90 40 176 204
3 90 172 93 242 221 72
3 93 172 89 242 221 72
3 93 89 96 242 221 72
3 96 89 94 242 221 72
3 96 94 572 242 221 72
3 572 94 563 242 221 72
3 563 94 159 242 221 72
3 563 159 569 242 221 72
3 563 569 88 242 221 72
3 88 569 567 242 221 72
3 567 569 92 242 221 72
3 92 569 158 242 221 72
3 92 158 87 242 221 72
3 92 87 566 242 221 72
3 566 87 565 242 221 72
3 565 87 564 242 221 72
3 564 87 91 242 221 72
3 91 87 167 40 176 204
3 167 87 157 40 176 204
3 167 157 156 40 176 204
3 167 156 13 40 176 204
3 13 156 612 40 176 204
3 612 156 151 40 176 204
3 151 156 117 40 176 204
3 117 156 611 40 176 204
3 611 156 118 40 176 204
3 611 118 745 40 176 204
3 611 745 272 40 176 204
3 272 745 276 40 176 204
3 276 745 746 40 176 204
3 276 746 275 40 176 204
3 275 746 274 40 176 204
3 274 746 714 40 176 204
3 274 714 701 40 176 204
3 701 714 322 40 176 204
3 701 322 713 40 176 204
3 713 322 329 40 176 204
3 329 322 328 40 176 204
3 329 328 681 40 176 204
3 681 328 733 40 176 204
3 681 733 23 242 221 72
3 23 733 319 242 221 72
3 23 319 240 242 221 72
3 240 319 245 242 221 72
3 245 319 241 242 221 72
3 241 319 332 242 221 72
3 241 332 333 242 221 72
3 241 333 682 242 221 72
3 241 682 24 242 221 72
3 24 682 315 242 221 72
3 315 682 316 242 221 72
3 315 316 325 242 221 72
3 325 316 729 40 176 204
3 325 729 34 40 176 204
3 34 729 740 40 176 204
3 740 729 35 40 176 204
3 740 35 330 40 176 204
3 330 35 739 40 176 204
3 330 739 323 40 176 204
3 323 739 324 40 176 204
3 323 324 269 40 176 204
3 323 269 313 40 176 204
3 313 269 702 40 176 204
3 313 702 314 40 176 204
3 314 702 627 40 176 204
3 314 627 141 40 176 204
3 141 627 140 40 176 204
3 140 627 153 40 176 204
3 153 627 152 40 176 204
3 153 152 9 40 176 204
3 153 9 630 40 176 204
3 630 9 162 40 176 204
3 630 162 612 40 176 204
3 612 162 168 40 176 204
3 612 168 13 40 176 204
3 13 168 5 40 176 204
3 5 168 154 40 176 204
3 5 154 568 40 176 204
3 5 568 91 40 176 204
3 91 568 564 242 221 72
3 564 568 90 242 221 72
3 90 568 571 40 176 204
3 564 90 93 242 221 72
3 564 93 96 242 221 72
3 564 96 95 242 221 72
3 95 96 575 242 221 72
3 575 96 101 242 221 72
3 101 96 576 242 221 72
3 576 96 572 242 221 72
3 576 572 97 242 221 72
3 97 572 6 242 221 72
3 6 572 88 242 221 72
3 88 572 563 242 221 72
3 6 88 567 242 221 72
3 6 567 573 242 221 72
3 573 567 100 242 221 72
3 100 567 92 242 221 72
3 100 92 566 242 221 72
3 100 566 574 242 221 72
3 574 566 99 242 221 72
3 99 566 565 242 221 72
3 99 565 95 242 221 72
3 95 565 564 242 221 72
3 99 95 98 242 221 72
3 98 95 575 242 221 72
3 98 575 104 242 221 72
3 104 575 108 127 20 204
3 108 575 580 127 20 204
3 580 575 101 127 20 204
3 580 101 583 127 20 204
3 583 101 102 127 20 204
3 102 101 576 242 221 72
3 102 576 577 242 221 72
3 577 576 97 242 221 72
3 577 97 578 242 221 72
3 578 97 6 242 221 72
3 578 6 573 242 221 72
3 578 573 579 242 221 72
3 579 573 100 242 221 72
3 579 100 574 242 221 72
3 579 574 98 242 221 72
3 98 574 99 242 221 72
3 579 98 7 242 221 72
3 7 98 104 127 20 204
3 7 104 107 127 20 204
3 107 104 585 127 20 204
3 585 104 108 127 20 204
3 585 108 586 127 20 204
3 586 108 589 127 20 204
3 589 108 580 127 20 204
3 589 580 583 127 20 204
3 589 583 109 127 20 204
3 109 583 105 127 20 204
3 105 583 102 127 20 204
3 105 102 103 127 20 204
3 103 102 578 242 221 72
3 578 102 577 242 221 72
3 103 578 579 242 221 72
3 103 579 581 127 20 204
3 581 579 106 127 20 204
3 106 579 7 127 20 204
3 106 7 582 127 20 204
3 582 7 107 127 20 204
3 582 107 587 127 20 204
3 587 107 588 127 20 204
3 588 107 585 127 20 204
3 588 585 586 127 20 204
3 588 586 437 48 242 105
3 437 586 442 48 242 105
3 442 586 418 48 242 105
3 418 586 429 48 242 105
3 429 586 589 127 20 204
3 429 589 590 127 20 204
3 590 589 109 127 20 204
3 590 109 584 127 20 204
3 584 109 105 127 20 204
3 584 105 581 127 20 204
3 581 105 103 127 20 204
3 584 581 110 127 20 204
3 110 581 106 127 20 204
3 110 106 582 127 20 204
3 110 582 592 127 20 204
3 592 582 593 127 20 204
3 593 582 587 127 20 204
3 593 587 435 127 20 204
3 435 587 439 127 20 204
3 439 587 588 127 20 204
3 439 588 437 48 242 105
3 439 437 438 48 242 105
3 438 437 443 48 242 105
3 443 437 442 48 242 105
3 443 442 428 48 242 105
3 428 442 427 48 242 105
3 427 442 420 48 242 105
3 420 442 441 48 242 105
3 441 442 418 48 242 105
3 441 418 440 48 242 105
3 440 418 445 48 242 105
3 445 418 446 48 242 105
3 446 418 432 48 242 105
3 432 418 424 48 242 105
3 424 418 434 48 242 105
3 434 418 429 48 242 105
3 434 429 417 48 242 105
3 417 429 423 48 242 105
3 423 429 590 48 242 105
3 423 590 591 48 242 105
3 591 590 584 127 20 204
3 591 584 110 127 20 204
3 591 110 592 127 20 204
3 591 592 419 48 242 105
3 419 592 593 48 242 105
3 419 593 420 48 242 105
3 420 593 421 48 242 105
3 421 593 435 48 242 105
3 421 435 439 48 242 105
3 421 439 436 48 242 105
3 436 439 438 48 242 105
3 436 438 444 48 242 105
3 444 438 443 48 242 105
3 444 443 426 48 242 105
3 426 443 428 48 242 105
3 426 428 427 48 242 105
3 426 427 444 48 242 105
3 444 427 420 48 242 105
3 444 420 436 48 242 105
3 436 420 421 48 242 105
3 419 420 434 48 242 105
3 434 420 446 48 242 105
3 446 420 445 48 242 105
3 445 420 441 48 242 105
3 445 441 430 48 242 105
3 430 441 440 48 242 105
3 430 440 425 48 242 105
3 425 440 445 48 242 105
3 425 445 431 48 242 105
3 431 445 430 48 242 105
3 431 430 425 48 242 105
3 434 446 433 48 242 105
3 433 446 432 48 242 105
3 433 432 424 48 242 105
3 433 424 434 48 242 105
3 419 434 423 48 242 105
3 423 434 422 48 242 105
3 422 434 417 48 242 105
3 422 417 423 48 242 105
3 419 423 591 48 242 105
3 5 91 13 40 176 204
3 13 91 167 40 176 204
3 630 612 151 40 176 204
3 630 151 626 40 176 204
3 626 151 137 40 176 204
3 137 151 136 40 176 204
3 136 151 117 40 176 204
3 136 117 607 40 176 204
3 607 117 608 40 176 204
3 608 117 609 40 176 204
3 609 117 611 40 176 204
3 609 611 610 40 176 204
3 610 611 272 40 176 204
3 610 272 271 40 176 204
3 271 272 712 40 176 204
3 712 272 276 40 176 204
3 712 276 275 40 176 204
3 712 275 708 40 176 204
3 708 275 711 40 176 204
3 711 275 273 40 176 204
3 273 275 274 40 176 204
3 273 274 701 40 176 204
3 273 701 723 40 176 204
3 723 701 292 40 176 204
3 292 701 713 40 176 204
3 292 713 290 40 176 204
3 290 713 311 40 176 204
3 311 713 310 40 176 204
3 310 713 329 40 176 204
3 310 329 740 40 176 204
3 740 329 34 40 176 204
3 34 329 681 40 176 204
3 34 681 25 242 221 72
3 25 681 243 242 221 72
3 243 681 23 242 221 72
3 243 23 246 242 221 72
3 246 23 240 242 221 72
3 246 240 685 242 221 72
3 685 240 251 242 221 72
3 251 240 245 242 221 72
3 251 245 250 242 221 72
3 250 245 244 242 221 72
3 244 245 241 242 221 72
3 244 241 680 242 221 72
3 680 241 24 242 221 72
3 680 24 684 242 221 72
3 684 24 326 242 221 72
3 326 24 315 242 221 72
3 326 315 325 242 221 72
3 326 325 26 242 221 72
3 26 325 34 242 221 72
3 26 34 25 242 221 72
3 26 25 678 242 221 72
3 678 25 679 242 221 72
3 679 25 247 242 221 72
3 247 25 243 242 221 72
3 247 243 246 242 221 72
3 247 246 253 242 221 72
3 253 246 685 242 221 72
3 253 685 688 242 221 72
3 688 685 251 242 221 72
3 688 251 250 242 221 72
3 688 250 258 242 221 72
3 258 250 695 127 20 204
3 695 250 264 127 20 204
3 264 250 257 127 20 204
3 257 250 249 242 221 72
3 249 250 244 242 221 72
3 249 244 680 242 221 72
3 249 680 684 242 221 72
3 249 684 248 242 221 72
3 248 684 683 242 221 72
3 683 684 242 242 221 72
3 242 684 326 242 221 72
3 242 326 26 242 221 72
3 242 26 678 242 221 72
3 242 678 252 242 221 72
3 252 678 679 242 221 72
3 252 679 254 242 221 72
3 254 679 247 242 221 72
3 254 247 253 242 221 72
3 254 253 689 242 221 72
3 689 253 688 242 221 72
3 689 688 259 242 221 72
3 259 688 258 242 221 72
3 259 258 262 127 20 204
3 262 258 261 127 20 204
3 261 258 695 127 20 204
3 261 695 27 127 20 204
3 27 695 264 127 20 204
3 27 264 390 127 20 204
3 390 264 694 127 20 204
3 694 264 256 127 20 204
3 256 264 257 127 20 204
3 256 257 687 127 20 204
3 687 257 249 242 221 72
3 687 249 248 242 221 72
3 687 248 686 242 221 72
3 686 248 254 242 221 72
3 254 248 252 242 221 72
3 252 248 683 242 221 72
3 252 683 242 242 221 72
3 686 254 690 242 221 72
3 690 254 689 242 221 72
3 690 689 263 127 20 204
3 263 689 259 127 20 204
3 263 259 262 127 20 204
3 263 262 265 127 20 204
3 265 262 696 127 20 204
3 696 262 261 127 20 204
3 696 261 27 127 20 204
3 696 27 699 127 20 204
3 699 27 391 127 20 204
3 391 27 390 127 20 204
3 391 390 416 48 242 105
3 416 390 409 48 242 105
3 409 390 388 48 242 105
3 388 390 694 127 20 204
3 388 694 693 127 20 204
3 693 694 255 127 20 204
3 255 694 256 127 20 204
3 255 256 687 127 20 204
3 255 687 686 127 20 204
3 255 686 691 127 20 204
3 691 686 260 127 20 204
3 260 686 690 127 20 204
3 260 690 263 127 20 204
3 260 263 267 127 20 204
3 267 263 266 127 20 204
3 266 263 265 127 20 204
3 266 265 696 127 20 204
3 266 696 28 127 20 204
3 28 696 699 127 20 204
3 28 699 392 48 242 105
3 392 699 391 48 242 105
3 392 391 387 48 242 105
3 387 391 416 48 242 105
3 387 416 400 48 242 105
3 400 416 415 48 242 105
3 415 416 414 48 242 105
3 414 416 412 48 242 105
3 412 416 396 48 242 105
3 396 416 409 48 242 105
3 396 409 414 48 242 105
3 414 409 413 48 242 105
3 413 409 410 48 242 105
3 410 409 404 48 242 105
3 404 409 408 48 242 105
3 408 409 398 48 242 105
3 398 409 386 48 242 105
3 386 409 388 48 242 105
3 386 388 698 48 242 105
3 698 388 693 127 20 204
3 698 693 405 127 20 204
3 405 693 692 127 20 204
3 692 693 691 127 20 204
3 691 693 255 127 20 204
3 692 691 697 127 20 204
3 697 691 260 127 20 204
3 697 260 267 127 20 204
3 697 267 29 127 20 204
3 29 267 266 127 20 204
3 29 266 28 127 20 204
3 29 28 392 48 242 105
3 29 392 394 48 242 105
3 394 392 414 48 242 105
3 414 392 387 48 242 105
3 414 387 415 48 242 105
3 415 387 400 48 242 105
3 394 414 393 48 242 105
3 393 414 411 48 242 105
3 411 414 413 48 242 105
3 411 413 408 48 242 105
3 408 413 403 48 242 105
3 403 413 402 48 242 105
3 402 413 410 48 242 105
3 402 410 404 48 242 105
3 402 404 403 48 242 105
3 403 404 408 48 242 105
3 411 408 397 48 242 105
3 397 408 398 48 242 105
3 397 398 401 48 242 105
3 401 398 399 48 242 105
3 399 398 386 48 242 105
3 399 386 407 48 242 105
3 407 386 406 48 242 105
3 406 386 405 48 242 105
3 405 386 698 48 242 105
3 406 405 393 48 242 105
3 393 405 29 48 242 105
3 29 405 697 127 20 204
3 697 405 692 127 20 204
3 393 29 394 48 242 105
3 406 393 389 48 242 105
3 389 393 407 48 242 105
3 407 393 411 48 242 105
3 407 411 399 48 242 105
3 399 411 401 48 242 105
3 401 411 397 48 242 105
3 389 407 406 48 242 105
3 396 414 395 48 242 105
3 395 414 412 48 242 105
3 395 412 396 48 242 105
3 310 740 703 40 176 204
3 703 740 330 40 176 204
3 703 330 323 40 176 204
3 703 323 312 40 176 204
3 312 323 313 40 176 204
3 312 313 291 40 176 204
3 291 313 314 40 176 204
3 291 314 743 40 176 204
3 743 314 141 40 176 204
3 743 141 113 40 176 204
3 113 141 140 40 176 204
3 113 140 139 40 176 204
3 139 140 600 40 176 204
3 600 140 153 40 176 204
3 600 153 630 40 176 204
3 600 630 626 40 176 204
3 600 626 139 40 176 204
3 139 626 599 40 176 204
3 599 626 137 40 176 204
3 599 137 138 40 176 204
3 138 137 604 40 176 204
3 604 137 136 40 176 204
3 604 136 607 40 176 204
3 604 607 605 40 176 204
3 605 607 606 40 176 204
3 606 607 608 40 176 204
3 606 608 114 40 176 204
3 114 608 115 40 176 204
3 115 608 116 40 176 204
3 116 608 609 40 176 204
3 116 609 610 40 176 204
3 116 610 271 40 176 204
3 116 271 115 40 176 204
3 115 271 744 40 176 204
3 744 271 270 40 176 204
3 270 271 709 40 176 204
3 709 271 712 40 176 204
3 709 712 708 40 176 204
3 709 708 281 40 176 204
3 281 708 30 40 176 204
3 30 708 711 40 176 204
3 30 711 279 40 176 204
3 279 711 710 40 176 204
3 710 711 723 40 176 204
3 723 711 273 40 176 204
3 710 723 724 40 176 204
3 724 723 292 40 176 204
3 724 292 290 40 176 204
3 724 290 725 40 176 204
3 725 290 704 40 176 204
3 704 290 291 40 176 204
3 291 290 311 40 176 204
3 291 311 312 40 176 204
3 312 311 703 40 176 204
3 703 311 310 40 176 204
3 704 291 743 40 176 204
3 704 743 705 40 176 204
3 705 743 601 40 176 204
3 601 743 113 40 176 204
3 601 113 112 40 176 204
3 112 113 139 40 176 204
3 112 139 111 40 176 204
3 111 139 122 40 176 204
3 122 139 599 40 176 204
3 122 599 614 40 176 204
3 614 599 138 40 176 204
3 614 138 120 40 176 204
3 120 138 604 40 176 204
3 120 604 124 40 176 204
3 124 604 602 40 176 204
3 602 604 605 40 176 204
3 602 605 125 40 176 204
3 125 605 127 40 176 204
3 127 605 606 40 176 204
3 127 606 114 40 176 204
3 127 114 620 40 176 204
3 620 114 603 40 176 204
3 603 114 115 40 176 204
3 603 115 744 40 176 204
3 603 744 283 40 176 204
3 283 744 282 40 176 204
3 282 744 270 40 176 204
3 282 270 709 40 176 204
3 282 709 707 40 176 204
3 707 709 281 40 176 204
3 707 281 280 40 176 204
3 280 281 30 40 176 204
3 280 30 726 40 176 204
3 726 30 297 242 24 142
3 297 30 279 48 242 105
3 297 279 718 242 24 142
3 718 279 715 40 176 204
3 715 279 710 40 176 204
3 715 710 293 40 176 204
3 293 710 724 40 176 204
3 293 724 277 40 176 204
3 277 724 725 40 176 204
3 277 725 704 40 176 204
3 277 704 706 40 176 204
3 706 704 705 40 176 204
3 706 705 717 40 176 204
3 717 705 278 40 176 204
3 278 705 601 40 176 204
3 278 601 618 40 176 204
3 618 601 121 40 176 204
3 121 601 112 40 176 204
3 121 112 123 40 176 204
3 123 112 111 40 176 204
3 123 111 122 40 176 204
3 123 122 616 40 176 204
3 616 122 144 242 24 142
3 144 122 615 242 24 142
3 615 122 614 40 176 204
3 615 614 120 40 176 204
3 615 120 143 242 24 142
3 143 120 619 242 24 142
3 619 120 124 242 24 142
3 619 124 142 242 24 142
3 142 124 602 242 24 142
3 142 602 622 242 24 142
3 622 602 125 40 176 204
3 622 125 128 242 24 142
3 128 125 126 40 176 204
3 126 125 127 40 176 204
3 126 127 620 40 176 204
3 126 620 132 40 176 204
3 132 620 621 40 176 204
3 621 620 603 40 176 204
3 621 603 283 40 176 204
3 621 283 749 40 176 204
3 749 283 719 40 176 204
3 719 283 282 40 176 204
3 719 282 285 40 176 204
3 285 282 720 242 24 142
3 720 282 707 40 176 204
3 720 707 294 242 24 142
3 294 707 280 40 176 204
3 294 280 296 242 24 142
3 296 280 726 242 24 142
3 296 726 649 242 24 142
3 649 726 297 242 24 142
3 649 297 235 242 24 142
3 235 297 718 242 24 142
3 235 718 648 242 24 142
3 648 718 298 242 24 142
3 298 718 715 242 24 142
3 298 715 716 242 24 142
3 716 715 277 40 176 204
3 277 715 293 40 176 204
3 716 277 299 40 176 204
3 299 277 301 40 176 204
3 301 277 706 40 176 204
3 301 706 717 40 176 204
3 301 717 302 242 24 142
3 302 717 305 242 24 142
3 305 717 675 242 24 142
3 675 717 307 40 176 204
3 307 717 278 40 176 204
3 307 278 748 40 176 204
3 748 278 618 40 176 204
3 748 618 149 40 176 204
3 149 618 628 40 176 204
3 628 618 121 40 176 204
3 628 121 617 40 176 204
3 617 121 123 40 176 204
3 617 123 145 242 24 142
3 145 123 616 242 24 142
3 145 616 558 242 24 142
3 558 616 4 242 24 142
3 4 616 144 242 24 142
3 4 144 559 242 24 142
3 559 144 615 242 24 142
3 559 615 81 242 24 142
3 81 615 143 242 24 142
3 81 143 619 242 24 142
3 81 619 527 242 24 142
3 527 619 82 242 24 142
3 82 619 142 242 24 142
3 82 142 83 242 24 142
3 83 142 622 242 24 142
3 83 622 129 242 24 142
3 129 622 128 242 24 142
3 129 128 623 242 24 142
3 623 128 130 242 24 142
3 130 128 126 40 176 204
3 130 126 132 40 176 204
3 130 132 624 242 24 142
3 624 132 134 242 24 142
3 134 132 621 40 176 204
3 134 621 10 40 176 204
3 10 621 749 40 176 204
3 10 749 33 40 176 204
3 33 749 719 40 176 204
3 33 719 722 40 176 204
3 722 719 721 242 24 142
3 721 719 285 242 24 142
3 721 285 286 242 24 142
3 286 285 284 242 24 142
3 284 285 651 242 24 142
3 651 285 720 242 24 142
3 651 720 22 242 24 142
3 22 720 677 242 24 142
3 677 720 294 242 24 142
3 677 294 296 242 24 142
3 677 296 295 242 24 142
3 295 296 649 242 24 142
3 295 649 181 242 24 142
3 181 649 657 242 24 142
3 657 649 235 242 24 142
3 657 235 648 242 24 142
3 657 648 233 242 24 142
3 233 648 298 242 24 142
3 233 298 300 242 24 142
3 300 298 727 242 24 142
3 727 298 716 242 24 142
3 727 716 299 242 24 142
3 727 299 728 242 24 142
3 728 299 302 242 24 142
3 302 299 301 242 24 142
3 728 302 676 242 24 142
3 676 302 306 242 24 142
3 306 302 305 242 24 142
3 306 305 675 242 24 142
3 306 675 237 242 24 142
3 237 675 303 242 24 142
3 303 675 308 242 24 142
3 308 675 309 40 176 204
3 309 675 307 40 176 204
3 309 307 748 40 176 204
3 309 748 150 40 176 204
3 150 748 629 242 24 142
3 629 748 149 242 24 142
3 629 149 78 242 24 142
3 78 149 79 242 24 142
3 79 149 628 242 24 142
3 79 628 146 242 24 142
3 146 628 617 242 24 142
3 146 617 145 242 24 142
3 146 145 80 242 24 142
3 80 145 558 242 24 142
3 80 558 531 242 24 142
3 531 558 4 242 24 142
3 531 4 538 242 24 142
3 538 4 532 242 24 142
3 532 4 559 242 24 142
3 532 559 81 242 24 142
3 532 81 39 242 24 142
3 39 81 527 242 24 142
3 39 527 82 242 24 142
3 39 82 40 242 24 142
3 40 82 528 242 24 142
3 528 82 83 242 24 142
3 528 83 41 242 24 142
3 41 83 129 242 24 142
3 41 129 560 242 24 142
3 560 129 623 242 24 142
3 560 623 131 242 24 142
3 131 623 534 242 24 142
3 534 623 624 242 24 142
3 624 623 130 242 24 142
3 534 624 133 242 24 142
3 133 624 625 242 24 142
3 625 624 134 242 24 142
3 625 134 10 40 176 204
3 625 10 289 40 176 204
3 289 10 33 40 176 204
3 289 33 722 40 176 204
3 289 722 288 40 176 204
3 288 722 287 242 24 142
3 287 722 32 242 24 142
3 32 722 721 242 24 142
3 32 721 286 242 24 142
3 32 286 236 242 24 142
3 236 286 652 242 24 142
3 652 286 284 242 24 142
3 652 284 182 242 24 142
3 182 284 651 242 24 142
3 182 651 658 242 24 142
3 658 651 22 242 24 142
3 658 22 650 242 24 142
3 650 22 677 242 24 142
3 650 677 295 242 24 142
3 650 295 181 242 24 142
3 650 181 659 242 24 142
3 659 181 17 242 24 142
3 17 181 187 242 24 142
3 187 181 657 242 24 142
3 187 657 656 242 24 142
3 656 657 233 242 24 142
3 656 233 234 242 24 142
3 234 233 300 242 24 142
3 234 300 21 242 24 142
3 21 300 655 242 24 142
3 655 300 676 242 24 142
3 676 300 728 242 24 142
3 728 300 727 242 24 142
3 655 676 179 242 24 142
3 179 676 306 242 24 142
3 179 306 232 242 24 142
3 232 306 237 242 24 142
3 232 237 183 242 24 142
3 183 237 190 242 24 142
3 190 237 238 242 24 142
3 238 237 303 242 24 142
3 238 303 304 242 24 142
3 304 303 750 242 24 142
3 750 303 308 242 24 142
3 750 308 150 40 176 204
3 150 308 309 40 176 204
3 750 150 148 40 176 204
3 148 150 11 242 24 142
3 11 150 629 242 24 142
3 11 629 525 242 24 142
3 525 629 78 242 24 142
3 525 78 529 242 24 142
3 529 78 530 242 24 142
3 530 78 79 242 24 142
3 530 79 147 242 24 142
3 147 79 146 242 24 142
3 147 146 557 242 24 142
3 557 146 80 242 24 142
3 557 80 526 242 24 142
3 526 80 37 242 24 142
3 37 80 531 242 24 142
3 37 531 538 242 24 142
3 37 538 542 242 24 142
3 542 538 55 242 24 142
3 55 538 38 242 24 142
3 38 538 532 242 24 142
3 38 532 39 242 24 142
3 38 39 44 242 24 142
3 44 39 40 242 24 142
3 44 40 53 242 24 142
3 53 40 54 242 24 142
3 54 40 45 242 24 142
3 45 40 528 242 24 142
3 45 528 41 242 24 142
3 45 41 533 242 24 142
3 533 41 560 242 24 142
3 533 560 84 242 24 142
3 84 560 131 242 24 142
3 84 131 534 242 24 142
3 84 534 539 242 24 142
3 539 534 133 242 24 142
3 539 133 535 242 24 142
3 535 133 561 242 24 142
3 561 133 625 242 24 142
3 561 625 135 242 24 142
3 135 625 289 40 176 204
3 135 289 288 40 176 204
3 135 288 750 40 176 204
3 750 288 31 242 24 142
3 31 288 287 242 24 142
3 31 287 239 242 24 142
3 239 287 653 242 24 142
3 653 287 32 242 24 142
3 653 32 236 242 24 142
3 653 236 191 242 24 142
3 191 236 664 242 24 142
3 664 236 652 242 24 142
3 664 652 189 242 24 142
3 189 652 182 242 24 142
3 189 182 658 242 24 142
3 189 658 188 242 24 142
3 188 658 650 242 24 142
3 188 650 659 242 24 142
3 188 659 663 242 24 142
3 663 659 196 96 204 61
3 196 659 202 96 204 61
3 202 659 195 96 204 61
3 195 659 17 242 24 142
3 195 17 194 242 24 142
3 194 17 187 242 24 142
3 194 187 186 242 24 142
3 186 187 656 242 24 142
3 186 656 185 242 24 142
3 185 656 180 242 24 142
3 180 656 234 242 24 142
3 180 234 21 242 24 142
3 180 21 655 242 24 142
3 180 655 185 242 24 142
3 185 655 184 242 24 142
3 184 655 179 242 24 142
3 184 179 232 242 24 142
3 184 232 183 242 24 142
3 184 183 660 242 24 142
3 660 183 666 242 24 142
3 666 183 190 242 24 142
3 666 190 654 242 24 142
3 654 190 238 242 24 142
3 654 238 304 242 24 142
3 654 304 31 242 24 142
3 31 304 750 242 24 142
3 654 31 239 242 24 142
3 654 239 191 242 24 142
3 191 239 653 242 24 142
3 654 191 666 242 24 142
3 666 191 665 242 24 142
3 665 191 664 242 24 142
3 665 664 199 96 204 61
3 199 664 197 96 204 61
3 197 664 663 242 24 142
3 663 664 189 242 24 142
3 663 189 188 242 24 142
3 197 663 196 96 204 61
3 197 196 207 96 204 61
3 207 196 206 96 204 61
3 206 196 669 96 204 61
3 669 196 202 96 204 61
3 669 202 19 96 204 61
3 19 202 195 96 204 61
3 19 195 201 96 204 61
3 201 195 194 96 204 61
3 201 194 667 96 204 61
3 667 194 193 242 24 142
3 193 194 662 242 24 142
3 662 194 186 242 24 142
3 662 186 185 242 24 142
3 662 185 184 242 24 142
3 662 184 661 242 24 142
3 661 184 660 242 24 142
3 661 660 192 242 24 142
3 192 660 198 96 204 61
3 198 660 666 242 24 142
3 198 666 203 96 204 61
3 203 666 665 96 204 61
3 203 665 18 96 204 61
3 18 665 199 96 204 61
3 18 199 210 96 204 61
3 210 199 208 96 204 61
3 208 199 197 96 204 61
3 208 197 207 96 204 61
3 208 207 216 96 204 61
3 216 207 670 96 204 61
3 670 207 206 96 204 61
3 670 206 214 96 204 61
3 214 206 213 96 204 61
3 213 206 669 96 204 61
3 213 669 19 96 204 61
3 213 19 212 96 204 61
3 212 19 668 96 204 61
3 668 19 201 96 204 61
3 668 201 205 96 204 61
3 205 201 667 96 204 61
3 205 667 204 96 204 61
3 204 667 200 96 204 61
3 200 667 193 96 204 61
3 200 193 192 96 204 61
3 192 193 661 242 24 142
3 661 193 662 242 24 142
3 200 192 211 96 204 61
3 211 192 198 96 204 61
3 211 198 209 96 204 61
3 209 198 203 96 204 61
3 209 203 672 96 204 61
3 672 203 210 96 204 61
3 210 203 18 96 204 61
3 672 210 217 96 204 61
3 217 210 216 96 204 61
3 216 210 208 96 204 61
3 217 216 215 96 204 61
3 215 216 670 96 204 61
3 215 670 20 96 204 61
3 20 670 673 96 204 61
3 673 670 214 96 204 61
3 673 214 213 96 204 61
3 673 213 671 96 204 61
3 671 213 212 96 204 61
3 671 212 227 96 204 61
3 227 212 225 96 204 61
3 225 212 668 96 204 61
3 225 668 226 96 204 61
3 226 668 224 96 204 61
3 224 668 205 96 204 61
3 224 205 223 96 204 61
3 223 205 204 96 204 61
3 223 204 220 96 204 61
3 220 204 211 96 204 61
3 211 204 200 96 204 61
3 220 211 218 96 204 61
3 218 211 209 96 204 61
3 218 209 230 96 204 61
3 230 209 672 96 204 61
3 230 672 217 96 204 61
3 230 217 229 96 204 61
3 229 217 215 96 204 61
3 229 215 674 96 204 61
3 674 215 20 96 204 61
3 674 20 673 96 204 61
3 674 673 228 96 204 61
3 228 673 671 96 204 61
3 228 671 227 96 204 61
3 228 227 646 96 204 61
3 646 227 225 96 204 61
3 646 225 474 96 204 61
3 474 225 226 96 204 61
3 474 226 645 96 204 61
3 645 226 223 96 204 61
3 223 226 224 96 204 61
3 645 223 219 96 204 61
3 219 223 220 96 204 61
3 219 220 218 96 204 61
3 219 218 643 96 204 61
3 643 218 230 96 204 61
3 643 230 231 96 204 61
3 231 230 229 96 204 61
3 231 229 647 96 204 61
3 647 229 674 96 204 61
3 647 674 228 96 204 61
3 647 228 646 96 204 61
3 647 646 479 56 48 242
3 479 646 474 56 48 242
3 479 474 473 56 48 242
3 473 474 471 56 48 242
3 471 474 645 56 48 242
3 471 645 221 56 48 242
3 221 645 222 96 204 61
3 222 645 219 96 204 61
3 222 219 644 96 204 61
3 644 219 643 96 204 61
3 644 643 452 56 48 242
3 452 643 482 56 48 242
3 482 643 231 96 204 61
3 482 231 647 56 48 242
3 482 647 480 56 48 242
3 480 647 479 56 48 242
3 480 479 478 56 48 242
3 478 479 476 56 48 242
3 476 479 473 56 48 242
3 476 473 475 56 48 242
3 475 473 472 56 48 242
3 472 473 470 56 48 242
3 470 473 471 56 48 242
3 470 471 462 56 48 242
3 462 471 221 56 48 242
3 462 221 458 56 48 242
3 458 221 452 56 48 242
3 452 221 644 56 48 242
3 644 221 222 96 204 61
3 458 452 451 56 48 242
3 451 452 449 56 48 242
3 449 452 482 56 48 242
3 449 482 483 56 48 242
3 483 482 481 56 48 242
3 481 482 480 56 48 242
3 481 480 477 56 48 242
3 477 480 478 56 48 242
3 477 478 476 56 48 242
3 477 476 475 56 48 242
3 477 475 483 56 48 242
3 483 475 472 56 48 242
3 483 472 448 56 48 242
3 448 472 447 56 48 242
3 447 472 469 56 48 242
3 469 472 470 56 48 242
3 469 470 467 56 48 242
3 467 470 462 56 48 242
3 467 462 465 56 48 242
3 465 462 461 56 48 242
3 461 462 457 56 48 242
3 457 462 458 56 48 242
3 457 458 451 56 48 242
3 457 451 450 56 48 242
3 450 451 448 56 48 242
3 448 451 449 56 48 242
3 448 449 483 56 48 242
3 450 448 447 56 48 242
3 450 447 468 56 48 242
3 468 447 469 56 48 242
3 468 469 467 56 48 242
3 468 467 466 56 48 242
3 466 467 465 56 48 242
3 466 465 464 56 48 242
3 464 465 460 56 48 242
3 460 465 461 56 48 242
3 460 461 456 56 48 242
3 456 461 457 56 48 242
3 456 457 454 56 48 242
3 454 457 450 56 48 242
3 454 450 453 56 48 242
3 453 450 459 56 48 242
3 459 450 468 56 48 242
3 459 468 466 56 48 242
3 459 466 464 56 48 242
3 459 464 463 56 48 242
3 463 464 460 56 48 242
3 463 460 456 56 48 242
3 463 456 455 56 48 242
3 455 456 454 56 48 242
3 455 454 453 56 48 242
3 455 453 459 56 48 242
3 455 459 463 56 48 242
3 477 483 481 56 48 242
3 135 750 148 40 176 204
3 135 148 562 242 24 142
3 562 148 11 242 24 142
3 562 11 536 242 24 142
3 536 11 85 242 24 142
3 85 11 525 242 24 142
3 85 525 529 242 24 142
3 85 529 42 242 24 142
3 42 529 530 242 24 142
3 42 530 537 242 24 142
3 537 530 43 242 24 142
3 43 530 147 242 24 142
3 43 147 526 242 24 142
3 526 147 557 242 24 142
3 43 526 47 242 24 142
3 47 526 37 242 24 142
3 47 37 48 242 24 142
3 48 37 542 242 24 142
3 48 542 547 96 204 61
3 547 542 55 96 204 61
3 547 55 548 96 204 61
3 548 55 56 96 204 61
3 56 55 53 96 204 61
3 53 55 38 242 24 142
3 53 38 44 242 24 142
3 56 53 57 96 204 61
3 57 53 54 96 204 61
3 57 54 58 96 204 61
3 58 54 543 96 204 61
3 543 54 45 242 24 142
3 543 45 49 242 24 142
3 49 45 533 242 24 142
3 49 533 46 242 24 142
3 46 533 84 242 24 142
3 46 84 539 242 24 142
3 46 539 50 242 24 142
3 50 539 540 242 24 142
3 540 539 535 242 24 142
3 540 535 86 242 24 142
3 86 535 561 242 24 142
3 86 561 562 242 24 142
3 562 561 135 242 24 142
3 86 562 536 242 24 142
3 86 536 52 242 24 142
3 52 536 51 242 24 142
3 51 536 85 242 24 142
3 51 85 42 242 24 142
3 51 42 541 242 24 142
3 541 42 537 242 24 142
3 541 537 63 242 24 142
3 63 537 47 242 24 142
3 47 537 43 242 24 142
3 63 47 550 96 204 61
3 550 47 547 96 204 61
3 547 47 48 96 204 61
3 550 547 551 96 204 61
3 551 547 548 96 204 61
3 551 548 71 96 204 61
3 71 548 72 96 204 61
3 72 548 1 96 204 61
3 1 548 56 96 204 61
3 1 56 57 96 204 61
3 1 57 552 96 204 61
3 552 57 64 96 204 61
3 64 57 58 96 204 61
3 64 58 59 96 204 61
3 59 58 543 96 204 61
3 59 543 60 96 204 61
3 60 543 49 96 204 61
3 60 49 61 96 204 61
3 61 49 50 96 204 61
3 50 49 46 242 24 142
3 61 50 0 96 204 61
3 0 50 540 96 204 61
3 0 540 52 242 24 142
3 52 540 86 242 24 142
3 0 52 545 96 204 61
3 545 52 544 96 204 61
3 544 52 51 242 24 142
3 544 51 541 242 24 142
3 544 541 63 96 204 61
3 544 63 546 96 204 61
3 546 63 68 96 204 61
3 68 63 550 96 204 61
3 68 550 554 96 204 61
3 554 550 551 96 204 61
3 554 551 71 96 204 61
3 554 71 523 96 204 61
3 523 71 2 96 204 61
3 2 71 72 96 204 61
3 2 72 512 96 204 61
3 512 72 555 96 204 61
3 555 72 1 96 204 61
3 555 1 552 96 204 61
3 555 552 65 96 204 61
3 65 552 64 96 204 61
3 65 64 73 96 204 61
3 73 64 66 96 204 61
3 66 64 59 96 204 61
3 66 59 60 96 204 61
3 66 60 75 96 204 61
3 75 60 67 96 204 61
3 67 60 61 96 204 61
3 67 61 76 96 204 61
3 76 61 549 96 204 61
3 549 61 0 96 204 61
3 549 0 62 96 204 61
3 62 0 545 96 204 61
3 62 545 553 96 204 61
3 553 545 546 96 204 61
3 546 545 544 96 204 61
3 553 546 556 96 204 61
3 556 546 68 96 204 61
3 556 68 69 96 204 61
3 69 68 554 96 204 61
3 69 554 70 96 204 61
3 70 554 523 96 204 61
3 70 523 522 56 48 242
3 522 523 508 56 48 242
3 508 523 2 56 48 242
3 508 2 511 56 48 242
3 511 2 512 56 48 242
3 511 512 513 56 48 242
3 513 512 514 56 48 242
3 514 512 74 96 204 61
3 74 512 555 96 204 61
3 74 555 65 96 204 61
3 74 65 73 96 204 61
3 74 73 3 96 204 61
3 3 73 75 96 204 61
3 75 73 66 96 204 61
3 3 75 67 96 204 61
3 3 67 524 96 204 61
3 524 67 76 96 204 61
3 524 76 77 96 204 61
3 77 76 549 96 204 61
3 77 549 62 96 204 61
3 77 62 553 96 204 61
3 77 553 556 96 204 61
3 77 556 521 96 204 61
3 521 556 69 96 204 61
3 521 69 487 96 204 61
3 487 69 70 96 204 61
3 487 70 522 56 48 242
3 487 522 495 56 48 242
3 495 522 498 56 48 242
3 498 522 508 56 48 242
3 498 508 507 56 48 242
3 507 508 511 56 48 242
3 507 511 509 56 48 242
3 509 511 510 56 48 242
3 510 511 513 56 48 242
3 510 513 515 56 48 242
3 515 513 516 56 48 242
3 516 513 514 56 48 242
3 516 514 524 56 48 242
3 524 514 3 96 204 61
3 3 514 74 96 204 61
3 516 524 518 56 48 242
3 518 524 521 56 48 242
3 521 524 77 96 204 61
3 518 521 520 56 48 242
3 520 521 487 56 48 242
3 520 487 486 56 48 242
3 486 487 489 56 48 242
3 489 487 495 56 48 242
3 489 495 494 56 48 242
3 494 495 498 56 48 242
3 494 498 502 56 48 242
3 502 498 504 56 48 242
3 504 498 507 56 48 242
3 504 507 506 56 48 242
3 506 507 509 56 48 242
3 506 509 484 56 48 242
3 484 509 485 56 48 242
3 485 509 519 56 48 242
3 519 509 510 56 48 242
3 519 510 515 56 48 242
3 519 515 517 56 48 242
3 517 515 516 56 48 242
3 517 516 518 56 48 242
3 517 518 520 56 48 242
3 517 520 519 56 48 242
3 519 520 486 56 48 242
3 519 486 485 56 48 242
3 485 486 489 56 48 242
3 485 489 488 56 48 242
3 488 489 494 56 48 242
3 488 494 490 56 48 242
3 490 494 493 56 48 242
3 493 494 502 56 48 242
3 493 502 497 56 48 242
3 497 502 501 56 48 242
3 501 502 504 56 48 242
3 501 504 505 56 48 242
3 505 504 506 56 48 242
3 505 506 484 56 48 242
3 505 484 488 56 48 242
3 488 484 485 56 48 242
3 505 488 496 56 48 242
3 496 488 491 56 48 242
3 491 488 490 56 48 242
3 491 490 492 56 48 242
3 492 490 493 56 48 242
3 492 493 499 56 48 242
3 499 493 497 56 48 242
3 499 497 500 56 48 242
3 500 497 501 56 48 242
3 500 501 503 56 48 242
3 503 501 505 56 48 242
3 503 505 496 56 48 242
3 503 496 500 56 48 242
3 500 496 499 56 48 242
3 499 496 492 56 48 242
3 492 496 491 56 48 242
