ply
format ascii 1.0
element vertex 752
property float x
property float y
property float z
element face 1500
property list uchar int vertex_indices
property uchar red
property uchar green
property uchar blue
end_header
0.157016 -0.119876 -0.962381
-0.129674 -0.008814 0.815324
-0.094999 -0.071108 -0.961607
0.171381 -0.09661 -0.960416
-0.134872 -0.086276 0.71952
-0.121226 0.065449 -0.587037
-0.075036 -0.02972 -0.951867
-0.114445 -0.044389 -0.079985
-0.117357 0.07151 -0.660548
-0.114938 0.045858 -0.208994
-0.087886 0.087753 -0.964574
-0.103991 0.128428 -0.560332
-0.089073 0.127093 -0.681706
-0.104439 0.060793 0.29472
-0.098247 -0.036841 -0.619004
-0.094627 0.13705 -0.601158
-0.097425 -0.132705 -0.561921
-0.077298 -0.054774 -0.870731
-0.09283 -0.041275 -0.739397
-0.082426 0.031792 -0.630559
-0.090964 -0.028686 -0.686936
-0.096821 0.060843 -0.953002
-0.109488 0.080301 0.641158
-0.105747 0.048188 -0.542272
-0.070083 0.031567 -0.774918
-0.094131 0.033637 -0.662519
-0.087613 0.075131 -0.906261
-0.091335 -0.056529 -0.43417
-0.082201 -0.044013 -0.334231
-0.089603 0.11207 -0.326856
-0.081771 -0.090372 0.828815
-0.089128 -0.085358 -0.933587
-0.064924 -0.13128 -0.24127
-0.100413 -0.086875 0.63615
-0.076596 -0.054596 -0.978848
-0.083505 -0.128153 -0.678468
-0.082676 0.027567 0.586557
-0.064083 0.034237 -0.970514
0.053953 0.043706 -0.89011
-0.058611 0.135838 -0.661967
0.077207 0.066237 -0.90958
-0.071828 0.125722 0.481466
-0.089122 -0.113481 -0.451588
-0.077049 -0.02977 -0.49145
-0.080986 0.136645 -0.534765
-0.073485 -0.134723 -0.186648
-0.089316 0.130253 -0.103891
-0.067882 0.162325 0.348454
-0.075829 0.116705 0.792636
-0.070007 -0.044946 -0.841558
-0.063269 0.027285 -0.743246
-0.090281 0.00079 0.858139
-0.070464 -0.025176 -0.722146
-0.059687 0.022488 -0.478626
-0.064624 -0.136075 -0.517386
-0.04037 0.135953 -0.450652
-0.072314 0.037709 -0.390188
-0.079192 -0.128153 -0.066259
-0.08499 -0.251119 0.351562
-0.091493 0.120182 0.707103
-0.08313 -0.116156 0.767039
-0.076913 0.101615 -0.941737
-0.060232 0.030522 -0.904335
-0.066026 -0.079446 -0.852395
-0.05534 0.092631 -0.870969
-0.071714 -0.094919 -0.973536
-0.066179 -0.135825 -0.635909
-0.06826 0.115456 -0.755064
-0.027893 0.134017 -0.580034
-0.022632 0.022724 -0.486489
-0.04532 -0.017135 -0.470109
-0.056178 -0.024567 -0.424252
-0.046659 0.026977 -0.312055
-0.053137 -0.027548 -0.32794
-0.068272 -0.25851 0.167589
-0.065686 0.208891 0.16925
-0.067211 0.26736 0.183955
-0.045038 0.278494 0.22996
-0.074227 0.194828 0.263738
-0.056082 0.269978 0.348044
-0.056054 -0.268962 0.302675
-0.063893 -0.161168 0.341412
-0.067662 -0.108398 0.810179
-0.061209 -0.029912 -0.798226
-0.049247 -0.116048 -0.759392
-0.069877 -0.033206 -0.896908
-0.072783 0.060229 -0.979426
-0.066474 0.078596 0.510432
-0.068649 -0.029027 -0.541334
-0.07282 0.134608 -0.399068
-0.071429 -0.138282 -0.378718
-0.03273 -0.13591 -0.003578
-0.074788 0.120406 -0.043506
-0.04244 0.199951 0.10628
-0.059777 -0.272364 0.195742
-0.032463 0.163128 0.323605
-0.040802 -0.228775 0.459896
-0.084364 -0.118593 0.696342
-0.049946 -0.089034 -0.863191
-0.040945 -0.169349 0.315899
-0.043451 -0.171064 0.486631
-0.052579 0.123405 -0.736362
-0.038288 0.040561 0.871614
-0.081661 0.040459 -0.925117
-0.068558 -0.033012 -0.592139
-0.024255 0.189237 0.144819
-0.016681 -0.026551 -0.49319
-0.04339 0.213216 0.469946
-0.057356 0.14907 -0.28929
-0.038665 -0.279905 0.027798
-0.045025 -0.278704 0.113938
-0.025483 0.288132 0.131857
-0.041634 0.188693 0.204995
-0.061747 0.133609 0.253093
-0.03941 0.082057 0.57684
-0.040884 0.118687 0.65389
-0.025978 0.134033 0.756897
-0.010986 0.110771 -0.973691
-0.003786 -0.109426 -0.974164
-0.016146 -0.037481 -0.793125
0.013843 -0.066039 -0.862635
-0.02995 -0.045942 -0.659771
-0.026654 0.0485 -0.671047
-0.021171 0.094083 0.526661
-0.004794 0.157834 -0.240641
-0.013952 -0.161683 -0.326482
-0.059735 -0.142966 -0.273962
-0.039352 0.126097 0.041444
-0.049452 -0.18857 0.206203
-0.04614 0.175446 0.302786
-0.033705 0.156338 0.323703
-0.044813 -0.073357 0.539719
-0.020631 0.11254 -0.933643
-0.013168 -0.17371 0.492217
-0.034239 0.026245 -0.85019
-0.012071 -0.160416 0.313503
-0.042781 -0.108556 0.507406
-0.04599 -0.041269 -0.981025
-0.024838 -0.123861 -0.668648
-0.071927 0.048216 -0.855014
-0.031826 0.059138 -0.98099
-0.038163 -0.133517 -0.596716
-0.061685 0.032621 -0.544967
-0.038333 -0.132162 -0.482872
-0.031387 0.270718 0.265566
-0.031271 0.022657 -0.402035
-0.016976 0.163214 -0.321215
-0.031404 -0.256457 -0.091066
-0.025364 -0.15934 -0.053699
-0.025464 0.222098 -0.012993
-0.025963 0.284082 -0.030961
-0.013308 0.197421 0.068288
-0.036252 -0.192582 0.128339
-0.013989 0.189559 0.195883
-0.014379 0.248847 0.42218
-0.052153 -0.098611 0.615469
-0.013742 0.107062 0.63346
-0.018646 -0.261965 0.289536
-0.028436 -0.032408 -0.945697
-0.020924 0.10473 -0.778201
-0.0132 -0.093012 0.525104
-0.027247 -0.090796 -0.866396
-0.034831 -0.024875 -0.855712
-0.060728 0.087432 0.842389
-0.046609 0.088561 -0.984619
-0.022056 -0.012176 -0.257733
-0.028182 -0.28034 -0.036954
-0.010013 -0.191957 0.094261
-0.020701 0.122608 0.666134
-0.030177 -0.13192 0.757007
-0.063412 -0.101206 -0.919674
-0.011527 -0.168292 0.322407
-0.001505 -0.080296 -0.831481
-0.004183 0.087438 -0.798608
-0.022757 0.034269 -0.943878
-0.008209 -0.061208 -0.600047
-0.026535 0.119637 0.509884
-0.003753 0.023035 -0.325421
-0.017932 -0.246313 -0.248536
-0.01651 -0.274729 -0.102818
-0.024769 0.162081 -0.068026
-0.011434 -0.284579 -0.021605
0.006653 0.281916 0.094357
-0.03094 -0.277422 0.209348
0.006364 0.165327 0.294576
-0.004086 0.258934 0.368671
-0.017215 0.079811 0.563213
-0.009531 -0.232339 0.45294
0.004353 -0.088972 -0.888093
-0.00271 -0.006003 -0.255119
-0.0138 0.056209 -0.576636
-0.012298 -0.119151 -0.571887
0.034094 0.107208 -0.44804
-0.020655 0.143127 -0.408601
0.011572 -0.034057 -0.373995
0.034384 0.159178 -0.309086
0.010774 0.261803 -0.241633
-0.012392 -0.256941 -0.23622
-0.004553 -0.233385 -0.180319
-0.005603 0.234285 -0.117359
-0.003646 -0.278546 -0.118525
-0.002427 0.285655 -0.048787
0.001103 -0.209585 -0.004038
-0.03382 -0.127308 0.104775
-0.020965 -0.28623 0.08431
-0.016174 0.150679 0.179771
-0.00952 -0.189882 0.176877
-0.017743 -0.177369 0.28299
-0.011977 -0.136797 0.659477
-0.008688 -0.112846 0.831404
0.017488 -0.124162 -0.944679
-0.010987 0.088916 -0.880137
-0.007104 -0.034742 -0.873662
0.013682 0.065356 -0.86851
-0.005849 -0.132049 0.502655
0.010562 -0.047683 -0.854751
0.002903 -0.112976 0.62535
-0.014863 -0.092971 -0.983003
-0.033259 -0.049277 0.871337
0.008273 0.047973 -0.965378
0.002524 0.050862 -0.818596
-0.048756 0.097371 -0.837026
-0.023092 0.22727 0.463844
0.004579 -0.109481 -0.517854
0.031287 0.211523 0.452895
-0.00037 0.281618 -0.119395
0.004892 0.157768 0.239675
0.026334 0.239911 0.384556
-0.00525 -0.095188 0.61566
0.01695 -0.124904 0.681626
0.059343 0.120728 0.73648
0.017454 -0.126368 0.773893
0.004774 -0.282516 -0.172129
0.016953 -0.028891 -0.947374
-0.002198 0.038144 -0.871579
0.016816 -0.174281 0.330377
0.036668 -6.7e-05 -0.251451
-0.071346 0.075244 -0.848924
0.034304 0.107204 -0.980385
0.010842 -0.234507 -0.232478
0.007564 -0.164979 -0.165737
0.000851 0.217455 -0.027895
-0.009247 0.149056 0.051985
0.047209 0.163392 0.086926
-0.020707 -0.147666 0.2024
0.010393 -0.112399 0.658387
0.014113 -0.263861 0.152698
0.008734 -0.044531 -0.965246
-0.007848 0.167451 0.493364
0.023019 -0.236846 -0.293449
0.018555 -0.251687 -0.297812
0.018233 -0.161549 -0.236894
0.010086 0.237075 -0.234948
0.028845 0.241665 -0.203621
0.010184 0.165312 -0.006893
0.00675 -0.224013 -0.082165
0.010577 -0.277277 -0.017508
0.019923 0.195851 0.286508
0.021658 -0.195105 0.286254
0.003714 0.181818 0.309717
0.032549 -0.191325 0.466576
0.038652 -0.021938 -0.259839
0.059181 0.035782 0.871281
-0.023068 0.035397 -0.799955
0.016645 0.055439 -0.859395
0.028612 0.071079 -0.496003
0.01615 -0.118723 -0.435903
0.012876 -0.257416 -0.254188
0.026281 0.018888 -0.264955
0.031317 0.219631 -0.006486
0.028136 0.269237 -0.035846
0.03752 -0.225057 -0.02425
0.031302 0.214042 0.06399
0.020263 -0.157683 0.181389
0.018236 0.078791 0.50805
0.037394 -0.060718 0.543698
0.016813 0.091001 0.600523
-0.004745 0.123662 0.812035
0.037434 -0.107328 -0.979626
0.017669 0.030369 -0.949745
0.004099 0.068586 -0.804571
0.042249 -0.241465 -0.226347
0.067033 -0.165556 -0.211923
0.034757 -0.226845 -0.079205
0.042135 0.23336 -0.077996
0.054125 0.180256 0.317563
0.053794 0.088167 0.59313
-0.087026 0.054681 -0.784545
0.071961 0.068272 -0.972804
0.039893 0.135468 -0.951158
0.044085 -0.245825 -0.277212
0.038544 0.243421 -0.255702
-0.005339 0.232174 -0.161404
0.032964 -0.278746 -0.135697
0.021679 -0.167671 -0.059288
0.043493 -0.241456 -0.055547
0.044279 -0.176789 0.31456
0.044205 -0.195129 0.362592
0.025334 -0.070804 0.504714
0.036241 0.064698 0.547214
0.036771 0.108096 0.663424
0.037286 -0.111555 0.68937
0.054005 0.133944 -0.972978
0.055095 -0.247095 -0.297748
0.059265 0.029886 -0.927811
-0.087951 -0.071478 -0.779509
0.004027 -0.062071 -0.798414
-0.006509 0.058561 -0.7235
-0.078772 0.088639 -0.789651
0.056392 0.089074 -0.910334
0.039188 -0.250712 -0.299178
0.043071 -0.276265 -0.215214
0.061183 -0.236132 -0.213354
0.077428 0.167679 -0.121086
0.037592 0.229557 -0.119829
0.040147 0.276718 -0.101988
0.044669 0.162339 0.022979
0.019672 -0.156915 0.049758
0.075679 -0.148908 -0.956747
0.078754 -0.141059 -0.980578
-0.023635 -0.109564 -0.747936
0.065381 -0.053148 -0.969468
0.056972 0.120043 -0.934207
0.029215 0.285307 -0.142238
0.045827 -0.145226 -0.328296
0.069871 0.065505 -0.266343
0.053876 -0.221547 -0.158025
-0.001817 -0.155193 0.243993
0.066575 0.182175 0.344557
0.073779 0.104704 0.696687
0.051461 0.051523 -0.968378
0.074309 -0.244072 -0.290755
0.057015 -0.184963 0.349704
-0.004809 -0.05677 -0.736872
0.056674 -0.03479 0.475695
0.059751 0.027074 0.521586
0.060684 0.257218 -0.136192
0.051271 -0.161827 -0.265477
0.070241 -0.238301 -0.258555
0.072549 0.262857 -0.240968
0.05654 -0.266544 -0.233168
0.07726 -0.226334 -0.181725
0.068991 0.270308 -0.206461
0.061994 0.1693 -0.207764
0.072037 -0.165056 -0.105174
0.086452 -0.151189 -0.022695
0.078818 -0.033944 -0.951069
0.06048 -0.234343 -0.139378
0.06217 -0.11082 -0.928688
0.085298 -0.088103 0.834337
0.001196 -0.076611 -0.76092
0.068135 -0.027032 -0.242912
0.081276 0.042804 -0.962752
0.071714 -0.256671 -0.263369
0.082026 -0.243959 -0.268109
0.08717 -0.15975 0.24178
0.093212 -0.245332 -0.20715
0.08305 -0.063605 -0.910625
0.056036 -0.044199 -0.891971
0.059842 -0.045849 0.867293
0.077792 0.243268 -0.304215
0.078697 0.151534 -0.252683
0.116991 0.152253 0.111931
0.053279 -0.08581 0.590422
0.0009 0.077675 -0.715815
0.08982 0.14763 0.002699
0.08794 0.229864 -0.208786
0.105553 0.242356 -0.204251
0.06085 -0.156212 0.015862
0.080785 0.162473 0.27729
0.077021 -0.112112 -0.986334
0.097269 -0.221855 -0.198108
0.088456 0.246191 -0.166855
0.097289 -0.000853 -0.217448
0.084505 0.155528 0.193998
0.091555 -0.150742 0.186747
0.106662 0.09213 0.66644
0.091329 0.090585 0.829268
0.11958 -0.154276 -0.963511
0.121786 -0.046398 -0.978623
0.106327 -0.029089 -0.943576
-0.074407 -0.107221 -0.75839
0.135385 -0.096565 -0.981851
-0.094553 0.047758 -0.740741
0.112664 0.135599 -0.098118
0.130885 -0.138745 -0.978062
0.091562 0.032551 -0.932956
0.110606 -0.220363 -0.231941
0.102838 -0.139826 -0.951731
0.075726 -0.034641 -0.915529
-0.007269 0.104639 -0.69056
0.107754 0.222565 -0.2316
0.129793 0.131341 0.229695
0.077715 -0.102675 0.703321
0.001498 -0.080764 -0.707972
0.118447 -0.064474 0.576962
0.119493 -0.044347 0.551417
0.126187 -0.015003 0.535049
0.119751 0.001658 0.846302
0.124358 0.023734 0.5373
0.08576 -0.160701 0.103351
0.105792 -0.090183 0.665883
0.138037 0.088514 0.753309
0.137591 -0.139557 -0.964443
0.145434 -0.042737 -0.963168
-0.101866 0.085692 -0.720417
0.1421 0.073761 0.807122
0.127915 0.09522 0.785087
0.133558 -0.106239 -0.951743
0.145454 -0.043772 -0.947706
0.151119 0.072015 -0.045664
0.139481 -0.088755 -0.046913
0.150037 -0.080141 -0.970645
0.147248 -0.131205 0.057982
0.143668 -0.02592 0.623361
0.168404 -0.078411 -0.955658
0.166026 0.117821 0.061093
0.167322 0.000291 0.633688
0.186243 -0.061951 -0.962856
-0.108691 -0.118919 -0.643736
0.158416 -0.11297 -0.971509
0.174374 -0.09325 -0.972628
0.172615 -0.081735 0.101335
0.176487 -0.071174 -0.97677
0.004619 -0.085289 -0.604584
0.142494 -0.0623 -0.94005
-0.028488 0.125717 -0.672667
-0.1139 -0.083152 -0.68284
0.003714 0.093676 -0.624998
-0.112282 0.108899 -0.664367
3e-06 -0.097572 -0.635256
0.000129 0.074072 -0.634829
-0.119682 -0.060952 -0.595641
-0.122616 -0.101895 -0.583509
-0.007047 0.052877 -0.534946
-0.001481 0.116025 -0.521124
-0.114644 -0.066607 -0.539294
-0.12305 0.100358 -0.577898
-0.106053 -0.105123 -0.512155
0.004739 -0.072133 -0.536163
-0.008591 -0.048734 -0.536434
0.007471 0.083798 -0.52799
-0.098151 -0.039402 -0.538064
-0.102251 0.096757 -0.478831
0.030562 -0.08116 -0.492423
-0.10042 -0.081216 -0.446796
-0.092631 0.046514 -0.492964
-0.097942 0.075813 -0.44476
0.020148 -0.045347 -0.460773
-0.029307 -0.138903 -0.426855
0.034257 -0.097664 -0.456043
-0.093797 0.112289 -0.454367
0.043434 -0.079306 -0.426911
0.040668 -0.117212 -0.380523
0.033763 -0.055581 -0.409987
0.038644 0.064963 -0.434346
-0.095961 -0.064499 -0.351423
0.049472 0.09087 -0.388676
0.024884 0.131302 -0.387615
-0.095553 -0.097988 -0.37525
0.018375 0.044013 -0.410799
0.03826 -0.054276 -0.326883
-0.096203 0.100058 -0.40239
0.050128 0.130339 -0.349258
-0.020546 -0.022239 -0.377739
0.05394 0.08024 -0.344862
-0.091349 0.056261 -0.331351
0.043917 0.255199 -0.304447
0.049861 0.247097 -0.282028
-0.08677 -0.097275 -0.244369
0.056184 -0.086972 -0.349058
-0.009167 0.238623 -0.265828
0.025261 0.240001 -0.299159
0.022596 0.24851 -0.315306
0.079542 -0.115348 -0.297382
-0.086152 0.097256 -0.24677
0.084176 0.250129 -0.284999
0.073162 0.258981 -0.276475
0.046627 -0.262642 -0.274837
0.083476 -0.25174 -0.283559
0.001361 0.249274 -0.271995
0.037495 0.264622 -0.276483
0.05208 0.263044 -0.264865
0.072184 -0.061517 -0.259451
0.014009 0.251711 -0.283695
-0.002125 -0.2423 -0.287312
0.081403 -0.138383 -0.265202
0.075989 0.116748 -0.30731
0.00504 -0.245049 -0.255018
0.011011 -0.245253 -0.271943
0.055855 -0.245436 -0.249766
-0.076621 0.122925 -0.238713
0.073895 0.240808 -0.273333
-0.009049 0.255091 -0.256023
0.004508 0.246469 -0.246828
0.077722 -0.260309 -0.23441
-0.009039 -0.232908 -0.237708
-0.027479 0.01549 -0.254736
-0.082831 0.05904 -0.25106
0.105813 0.124488 -0.210054
0.056502 0.251685 -0.252169
0.048382 0.274326 -0.226983
-0.07342 -0.041258 -0.252685
-0.049751 0.001384 -0.239786
0.059074 0.021772 -0.24907
0.066734 0.238839 -0.242949
0.102927 -0.098378 -0.225974
-0.018515 0.245264 -0.238953
-0.097982 -0.045815 -0.230795
-0.065396 0.036732 -0.253492
0.074418 -0.246621 -0.215992
0.090151 -0.028736 -0.202554
0.07454 0.248255 -0.219203
0.083429 0.033371 -0.21919
0.097493 0.242813 -0.218826
0.084948 -0.230677 -0.206131
-0.106943 -0.100177 -0.198603
0.067223 0.237315 -0.198014
0.076677 0.253781 -0.194888
0.07128 -0.263379 -0.183221
-0.108986 0.097094 -0.197851
0.103489 0.223193 -0.204448
-0.014152 0.240099 -0.20519
0.102978 -0.238262 -0.189611
0.109343 -0.000807 -0.161679
0.079059 0.225098 -0.180368
-0.020773 0.262203 -0.211138
-0.023695 -0.253527 -0.195137
-0.101414 6.1e-05 -0.180648
0.104058 0.089695 -0.213735
-0.011004 -0.233338 -0.156432
0.101566 0.03894 -0.166839
-0.086781 0.130525 -0.174766
0.006028 0.167472 -0.174838
-0.004008 0.281663 -0.176122
0.0624 -0.258007 -0.142574
0.109045 -0.127496 -0.189542
0.111771 -0.05921 -0.135028
-0.122222 0.030381 -0.153232
-0.018711 -0.258 -0.148323
0.134452 -0.053128 -0.099393
-0.123712 -0.040673 -0.167843
-0.021565 0.245063 -0.116592
-0.019616 0.249984 -0.159754
0.095692 -0.155359 -0.110361
-0.100925 -0.115828 -0.144595
0.118394 0.076908 -0.10737
0.061756 0.237904 -0.140158
0.143649 0.036851 -0.088231
0.100556 0.150939 -0.160614
-0.125744 -0.053216 -0.126563
0.053025 -0.25523 -0.095423
-0.125303 0.062277 -0.14199
-0.014902 0.272555 -0.129508
0.119932 -0.115536 -0.092116
-0.110025 0.000883 -0.117687
0.050056 0.254374 -0.083204
-0.024666 -0.238835 -0.08685
0.038792 -0.274056 -0.099518
0.135624 0.096606 -0.043956
-0.032456 0.261531 -0.084915
-0.090294 -0.00169 -0.037824
0.114291 -0.127925 -0.061834
0.158667 -0.029788 -0.056848
-0.110915 0.047835 -0.071196
0.034237 -0.260244 -0.039447
0.094743 -0.142332 0.00592
-0.020878 0.152847 -0.014813
0.04317 0.244222 -0.04691
0.04151 -0.238872 0.009914
0.177394 0.012822 -0.016859
-0.045959 0.238814 -0.004879
0.039215 0.239406 0.036381
-0.036363 -0.232619 -0.033038
-0.058317 -0.090418 0.014563
-0.061997 0.085254 0.013052
0.15266 0.105086 0.000385
-0.035932 -0.214982 0.02219
0.156937 -0.094086 -0.007205
-0.044574 0.265708 -0.012652
-0.055372 -0.222848 0.05003
-0.072301 -0.034456 0.013469
-0.002564 -0.162028 -0.021319
-0.047102 0.27586 0.063489
-0.046961 -0.260277 -0.000191
-0.058317 -0.260999 0.100915
0.187525 0.028277 0.062785
0.112816 0.145955 0.041715
-0.017529 0.288675 0.051953
0.015162 -0.273561 0.084984
0.033181 -0.21502 0.060592
0.166857 -0.109991 0.057692
0.179391 -0.071472 0.043177
0.186265 -0.008569 0.089483
-0.065311 0.050628 0.097216
-0.063855 0.246996 0.116336
-0.04815 -0.206445 0.086182
0.031658 -0.244562 0.081866
-0.063024 0.008674 0.056017
-0.052597 0.217771 0.058027
0.031473 0.227193 0.099304
0.028054 0.260196 0.065305
-0.066005 -0.046412 0.09891
-0.084644 -0.001626 0.188312
0.016817 -0.200797 0.065579
0.013936 0.200154 0.099746
0.022981 -0.212805 0.133212
0.17206 0.064601 0.127644
-0.055159 0.095271 0.112404
0.020709 0.217929 0.145847
0.011418 0.270367 0.154245
-0.053876 -0.093916 0.10878
-0.00204 -0.282703 0.146181
0.138887 -0.135094 0.125311
-0.036881 0.12907 0.123876
-0.069388 -0.228537 0.141544
0.142666 -0.117162 0.174305
0.139097 0.119297 0.190415
0.022574 -0.232916 0.183914
0.136022 0.06395 0.268747
0.025205 0.229869 0.19051
0.01362 -0.210432 0.17145
-0.081076 -0.222757 0.200143
0.129591 -0.127633 0.230413
0.129383 -0.001375 0.287011
-0.074319 0.086099 0.211541
0.012867 0.206019 0.200202
0.143742 -0.076801 0.230051
-0.094994 0.023962 0.212168
0.025902 -0.221813 0.230581
-0.093971 -0.029585 0.211819
0.173114 0.004167 0.15488
0.014095 0.23907 0.24407
-0.003297 -0.254317 0.235384
0.136131 -0.060584 0.276593
0.08505 -0.157631 0.286659
-0.063008 -0.123764 0.23824
-0.085768 0.237195 0.221192
0.114564 0.119483 0.277699
0.027462 0.213603 0.267323
0.028289 -0.200375 0.31108
-0.089085 0.231993 0.281358
-0.081122 0.256058 0.285337
-0.088145 -0.243297 0.277505
0.120324 -0.128847 0.322182
-0.092297 -0.085132 0.296625
0.132443 0.056542 0.321344
0.023831 0.225872 0.330659
-0.079567 -0.190755 0.291467
-0.080843 0.124754 0.32351
-0.091548 0.197823 0.317606
-0.060999 0.145085 0.334184
-0.128855 -0.070195 0.331862
-0.109292 -0.046908 0.299577
-0.126997 0.069781 0.325867
6.8e-05 0.168945 0.32621
0.02886 0.195229 0.328319
-0.114737 0.003707 0.293549
0.032928 0.184457 0.340451
-0.05404 -0.147658 0.335992
-0.080729 -0.126821 0.32809
-0.110158 -0.100593 0.350593
0.121965 0.12692 0.322678
-0.039757 -0.266653 0.357714
0.019789 -0.228446 0.317411
-0.11959 0.001154 0.370338
-0.114819 0.095739 0.351327
-0.092344 0.235264 0.356306
-0.086663 -0.177743 0.358837
0.075921 -0.169006 0.355645
-0.086651 -0.149243 0.37612
0.122035 -0.033285 0.354693
-0.09738 -0.217157 0.324473
-0.08814 0.17286 0.377078
-0.084168 -0.197187 0.38875
0.08756 -0.117469 0.386532
0.075881 0.041818 0.453184
-0.130332 0.047503 0.346708
-0.090355 0.146598 0.376668
0.070557 0.174453 0.365974
-0.078315 -0.243449 0.396102
-0.098751 -0.124437 0.400545
0.074787 -0.038457 0.4559
-0.129228 -0.040285 0.350962
0.04415 0.201537 0.37148
0.049805 -0.18803 0.413678
-0.096748 -0.086928 0.436915
0.021236 -0.243315 0.392504
-0.082636 0.249595 0.378146
0.088168 0.118076 0.386958
-0.055924 0.238972 0.433178
-0.106866 0.018804 0.432487
-0.078395 -0.194324 0.442383
-0.095641 0.131589 0.419153
-0.076752 0.202372 0.439649
0.076363 0.008299 0.450118
0.042243 -0.148246 0.466365
-0.094424 0.097866 0.437203
0.054383 0.105384 0.473944
0.043221 0.155907 0.462096
0.030613 0.195049 0.467944
0.054392 -0.101887 0.47529
-0.097202 -0.066019 0.467739
0.056384 0.039131 0.474948
0.016075 -0.106306 0.500844
-0.095471 0.074523 0.471148
-0.081428 -0.093923 0.487443
0.014586 0.096864 0.50592
0.063354 -0.018159 0.519923
-0.073883 0.016915 0.51942
-0.064644 0.027932 0.558286
-0.06606 -0.054894 0.523127
-0.015276 -0.077467 0.560559
-0.061519 -0.042958 0.555146
-0.046152 0.070342 0.557858
0.111681 0.071723 0.578021
0.146679 -0.006644 0.564044
0.131285 0.041699 0.561628
-0.055543 -0.067584 0.577297
0.139162 0.028851 0.605264
0.133869 0.062965 0.622386
0.135206 -0.060225 0.626362
-0.126253 -0.010285 0.629018
-0.136596 0.051172 0.670105
0.015794 0.110926 0.645061
0.134026 -0.047251 0.676977
0.146998 -0.000679 0.672258
0.135838 0.046346 0.67449
-0.146509 -0.044124 0.703543
-0.010295 0.127519 0.641108
-0.024465 -0.120227 0.656951
-0.086378 0.10768 0.651759
0.018655 0.126191 0.686522
-0.002042 0.125822 0.695295
-0.007931 -0.123465 0.696468
0.136473 -0.07403 0.709083
0.153116 0.022381 0.699063
0.156854 -0.041017 0.722092
-0.14987 0.026281 0.712134
-0.136784 0.081641 0.726162
0.15774 0.022624 0.736519
0.141882 0.076704 0.719292
0.132609 -0.090456 0.75959
-0.146066 0.000707 0.771789
0.174939 0.005755 0.761911
0.16403 -0.043683 0.761344
0.09779 -0.107516 0.766641
0.140637 -0.076083 0.806279
0.164108 0.003144 0.795254
-0.122601 0.068898 0.809256
-0.125654 -0.057888 0.806838
0.002896 0.090654 0.855979
3 743 738 728 204 61 61
3 728 738 722 204 61 61
3 722 738 723 204 61 61
3 723 738 739 204 61 61
3 739 738 743 204 61 61
3 739 743 749 204 61 61
3 749 743 1 204 61 61
3 1 743 750 204 61 61
3 750 743 4 204 61 61
3 4 743 728 204 61 61
3 4 728 33 204 61 61
3 33 728 722 204 61 61
3 33 722 718 204 61 61
3 718 722 36 204 61 61
3 36 722 723 204 61 61
3 36 723 22 204 61 61
3 22 723 739 204 61 61
3 22 739 59 204 61 61
3 59 739 48 204 61 61
3 48 739 749 204 61 61
3 48 749 163 204 61 61
3 163 749 102 204 61 61
3 102 749 51 204 61 61
3 51 749 1 204 61 61
3 51 1 750 204 61 61
3 51 750 30 204 61 61
3 30 750 4 204 61 61
3 30 4 60 204 61 61
3 60 4 97 204 61 61
3 97 4 33 204 61 61
3 97 33 155 204 61 61
3 155 33 718 204 61 61
3 155 718 712 204 61 61
3 712 718 131 204 61 61
3 131 718 713 204 61 61
3 713 718 36 204 61 61
3 713 36 710 204 61 61
3 710 36 714 204 61 61
3 714 36 114 204 61 61
3 114 36 22 204 61 61
3 114 22 731 204 61 61
3 731 22 59 204 61 61
3 731 59 115 204 61 61
3 115 59 116 204 61 61
3 116 59 48 204 61 61
3 116 48 277 204 61 61
3 277 48 751 204 61 61
3 751 48 163 204 61 61
3 751 163 102 204 61 61
3 751 102 262 204 61 61
3 262 102 218 204 61 61
3 218 102 51 204 61 61
3 218 51 30 204 61 61
3 218 30 209 204 61 61
3 209 30 82 204 61 61
3 82 30 60 204 61 61
3 82 60 169 204 61 61
3 169 60 97 204 61 61
3 169 97 730 204 61 61
3 730 97 155 204 61 61
3 730 155 228 204 61 61
3 228 155 712 204 61 61
3 228 712 275 204 61 61
3 275 712 160 204 61 61
3 160 712 131 40 176 204
3 160 131 136 40 176 204
3 136 131 711 40 176 204
3 711 131 713 40 176 204
3 711 713 710 40 176 204
3 711 710 709 40 176 204
3 709 710 714 40 176 204
3 709 714 87 40 176 204
3 87 714 123 40 176 204
3 123 714 186 40 176 204
3 186 714 114 204 61 61
3 186 114 276 204 61 61
3 276 114 156 204 61 61
3 156 114 115 204 61 61
3 115 114 731 204 61 61
3 156 115 168 204 61 61
3 168 115 116 204 61 61
3 168 116 733 204 61 61
3 733 116 230 204 61 61
3 230 116 277 204 61 61
3 230 277 407 204 61 61
3 407 277 377 204 61 61
3 377 277 751 204 61 61
3 377 751 262 204 61 61
3 377 262 406 204 61 61
3 406 262 398 204 61 61
3 398 262 359 204 61 61
3 359 262 218 204 61 61
3 359 218 209 204 61 61
3 359 209 349 204 61 61
3 349 209 231 204 61 61
3 231 209 169 204 61 61
3 169 209 82 204 61 61
3 231 169 301 204 61 61
3 301 169 734 204 61 61
3 734 169 730 204 61 61
3 734 730 208 204 61 61
3 208 730 216 204 61 61
3 216 730 228 204 61 61
3 216 228 363 204 61 61
3 363 228 275 204 61 61
3 363 275 396 204 61 61
3 396 275 708 204 61 61
3 708 275 334 40 176 204
3 334 275 298 40 176 204
3 298 275 160 40 176 204
3 298 160 704 40 176 204
3 704 160 214 40 176 204
3 214 160 136 40 176 204
3 214 136 133 40 176 204
3 133 136 100 40 176 204
3 100 136 706 40 176 204
3 706 136 711 40 176 204
3 706 711 702 40 176 204
3 702 711 709 40 176 204
3 702 709 691 40 176 204
3 691 709 705 40 176 204
3 705 709 87 40 176 204
3 705 87 41 40 176 204
3 41 87 176 40 176 204
3 176 87 123 40 176 204
3 176 123 274 40 176 204
3 274 123 299 40 176 204
3 299 123 186 204 61 61
3 299 186 276 204 61 61
3 299 276 286 204 61 61
3 286 276 724 204 61 61
3 724 276 729 204 61 61
3 729 276 156 204 61 61
3 729 156 168 204 61 61
3 729 168 733 204 61 61
3 729 733 732 204 61 61
3 732 733 230 204 61 61
3 732 230 300 204 61 61
3 300 230 329 204 61 61
3 329 230 741 204 61 61
3 741 230 402 204 61 61
3 402 230 407 204 61 61
3 402 407 406 204 61 61
3 406 407 377 204 61 61
3 402 406 744 204 61 61
3 744 406 748 204 61 61
3 748 406 398 204 61 61
3 748 398 747 204 61 61
3 747 398 359 204 61 61
3 747 359 349 204 61 61
3 747 349 746 204 61 61
3 746 349 231 204 61 61
3 746 231 301 204 61 61
3 746 301 393 204 61 61
3 393 301 401 204 61 61
3 401 301 363 204 61 61
3 363 301 216 204 61 61
3 216 301 245 204 61 61
3 245 301 229 204 61 61
3 229 301 734 204 61 61
3 229 734 208 204 61 61
3 229 208 245 204 61 61
3 245 208 216 204 61 61
3 401 363 395 204 61 61
3 395 363 396 204 61 61
3 395 396 716 204 61 61
3 716 396 397 204 61 61
3 397 396 708 204 61 61
3 397 708 335 40 176 204
3 335 708 334 40 176 204
3 335 334 703 40 176 204
3 703 334 695 40 176 204
3 695 334 682 40 176 204
3 682 334 701 40 176 204
3 701 334 704 40 176 204
3 704 334 298 40 176 204
3 701 704 696 40 176 204
3 696 704 214 40 176 204
3 696 214 260 40 176 204
3 260 214 133 40 176 204
3 260 133 187 40 176 204
3 187 133 96 40 176 204
3 96 133 100 40 176 204
3 96 100 692 40 176 204
3 692 100 706 40 176 204
3 692 706 686 40 176 204
3 686 706 702 40 176 204
3 686 702 691 40 176 204
3 686 691 683 40 176 204
3 683 691 665 40 176 204
3 665 691 677 40 176 204
3 677 691 697 40 176 204
3 697 691 705 40 176 204
3 697 705 41 40 176 204
3 697 41 693 40 176 204
3 693 41 694 40 176 204
3 694 41 107 40 176 204
3 107 41 176 40 176 204
3 107 176 248 40 176 204
3 248 176 707 40 176 204
3 707 176 274 40 176 204
3 707 274 703 40 176 204
3 703 274 335 40 176 204
3 335 274 299 40 176 204
3 335 299 715 204 61 61
3 715 299 286 204 61 61
3 715 286 300 204 61 61
3 300 286 724 204 61 61
3 300 724 732 204 61 61
3 732 724 729 204 61 61
3 715 300 376 204 61 61
3 376 300 329 204 61 61
3 376 329 741 204 61 61
3 376 741 727 204 61 61
3 727 741 736 204 61 61
3 736 741 740 204 61 61
3 740 741 402 204 61 61
3 740 402 744 204 61 61
3 740 744 737 204 61 61
3 737 744 745 204 61 61
3 745 744 748 204 61 61
3 745 748 747 204 61 61
3 745 747 742 204 61 61
3 742 747 746 204 61 61
3 742 746 393 204 61 61
3 742 393 735 204 61 61
3 735 393 401 204 61 61
3 735 401 725 204 61 61
3 725 401 721 204 61 61
3 721 401 395 204 61 61
3 721 395 414 204 61 61
3 414 395 716 204 61 61
3 414 716 719 204 61 61
3 719 716 717 204 61 61
3 717 716 399 204 61 61
3 399 716 397 204 61 61
3 399 397 335 204 61 61
3 399 335 715 204 61 61
3 399 715 717 204 61 61
3 717 715 719 204 61 61
3 719 715 720 204 61 61
3 720 715 376 204 61 61
3 720 376 727 204 61 61
3 720 727 719 204 61 61
3 719 727 417 204 61 61
3 417 727 726 204 61 61
3 726 727 736 204 61 61
3 726 736 737 204 61 61
3 737 736 740 204 61 61
3 726 737 725 204 61 61
3 725 737 735 204 61 61
3 735 737 742 204 61 61
3 742 737 745 204 61 61
3 726 725 414 204 61 61
3 414 725 721 204 61 61
3 726 414 417 204 61 61
3 417 414 719 204 61 61
3 707 703 698 40 176 204
3 698 703 676 40 176 204
3 676 703 695 40 176 204
3 676 695 671 40 176 204
3 671 695 682 40 176 204
3 671 682 675 40 176 204
3 675 682 701 40 176 204
3 675 701 696 40 176 204
3 675 696 685 40 176 204
3 685 696 260 40 176 204
3 685 260 687 40 176 204
3 687 260 187 40 176 204
3 687 187 663 242 221 72
3 663 187 96 242 221 72
3 663 96 680 242 221 72
3 680 96 692 40 176 204
3 680 692 674 40 176 204
3 674 692 670 40 176 204
3 670 692 681 40 176 204
3 681 692 686 40 176 204
3 681 686 661 40 176 204
3 661 686 652 40 176 204
3 652 686 683 40 176 204
3 652 683 653 40 176 204
3 653 683 657 40 176 204
3 657 683 665 40 176 204
3 657 665 677 40 176 204
3 657 677 13 40 176 204
3 13 677 654 40 176 204
3 654 677 666 40 176 204
3 666 677 697 40 176 204
3 666 697 693 40 176 204
3 666 693 678 40 176 204
3 678 693 673 40 176 204
3 673 693 694 40 176 204
3 673 694 667 242 221 72
3 667 694 688 242 221 72
3 688 694 690 242 221 72
3 690 694 107 40 176 204
3 690 107 222 40 176 204
3 222 107 248 40 176 204
3 222 248 700 40 176 204
3 700 248 699 40 176 204
3 699 248 707 40 176 204
3 699 707 698 40 176 204
3 699 698 689 40 176 204
3 689 698 676 40 176 204
3 689 676 662 40 176 204
3 662 676 646 40 176 204
3 646 676 671 40 176 204
3 646 671 624 40 176 204
3 624 671 634 40 176 204
3 634 671 644 40 176 204
3 644 671 675 40 176 204
3 644 675 669 40 176 204
3 669 675 685 40 176 204
3 669 685 297 40 176 204
3 297 685 687 40 176 204
3 297 687 664 242 221 72
3 664 687 157 242 221 72
3 157 687 663 242 221 72
3 157 663 80 242 221 72
3 80 663 58 242 221 72
3 58 663 680 242 221 72
3 58 680 672 242 221 72
3 672 680 674 242 221 72
3 672 674 668 242 221 72
3 668 674 670 242 221 72
3 668 670 81 242 221 72
3 81 670 659 40 176 204
3 659 670 660 40 176 204
3 660 670 661 40 176 204
3 661 670 681 40 176 204
3 660 661 645 40 176 204
3 645 661 652 40 176 204
3 645 652 653 40 176 204
3 645 653 630 40 176 204
3 630 653 657 40 176 204
3 630 657 603 40 176 204
3 603 657 628 40 176 204
3 628 657 13 40 176 204
3 628 13 625 40 176 204
3 625 13 649 40 176 204
3 649 13 654 40 176 204
3 649 654 666 40 176 204
3 649 666 678 40 176 204
3 649 678 651 40 176 204
3 651 678 47 40 176 204
3 47 678 673 40 176 204
3 47 673 650 242 221 72
3 650 673 667 242 221 72
3 650 667 641 242 221 72
3 641 667 642 242 221 72
3 642 667 688 242 221 72
3 642 688 79 242 221 72
3 79 688 690 242 221 72
3 79 690 222 242 221 72
3 79 222 154 242 221 72
3 154 222 224 242 221 72
3 224 222 700 242 221 72
3 224 700 699 40 176 204
3 224 699 679 40 176 204
3 679 699 689 40 176 204
3 679 689 662 40 176 204
3 679 662 328 40 176 204
3 328 662 369 40 176 204
3 369 662 638 40 176 204
3 638 662 619 40 176 204
3 619 662 646 40 176 204
3 619 646 624 40 176 204
3 619 624 631 40 176 204
3 631 624 627 40 176 204
3 627 624 634 40 176 204
3 627 634 623 40 176 204
3 623 634 635 40 176 204
3 635 634 644 40 176 204
3 635 644 669 40 176 204
3 635 669 332 40 176 204
3 332 669 297 40 176 204
3 332 297 296 40 176 204
3 296 297 235 40 176 204
3 235 297 640 242 221 72
3 640 297 664 242 221 72
3 640 664 629 242 221 72
3 629 664 633 242 221 72
3 633 664 157 242 221 72
3 633 157 183 242 221 72
3 183 157 80 242 221 72
3 183 80 94 242 221 72
3 94 80 643 242 221 72
3 643 80 58 242 221 72
3 643 58 672 242 221 72
3 643 672 648 242 221 72
3 648 672 668 242 221 72
3 648 668 81 242 221 72
3 648 81 99 242 221 72
3 99 81 659 242 221 72
3 99 659 135 40 176 204
3 135 659 244 40 176 204
3 244 659 636 40 176 204
3 636 659 660 40 176 204
3 636 660 645 40 176 204
3 636 645 630 40 176 204
3 636 630 611 40 176 204
3 611 630 602 40 176 204
3 602 630 603 40 176 204
3 602 603 598 40 176 204
3 598 603 594 40 176 204
3 594 603 628 40 176 204
3 594 628 625 40 176 204
3 594 625 608 40 176 204
3 608 625 614 40 176 204
3 614 625 113 40 176 204
3 113 625 649 40 176 204
3 113 649 651 40 176 204
3 113 651 130 40 176 204
3 130 651 47 40 176 204
3 130 47 95 40 176 204
3 95 47 129 242 221 72
3 129 47 650 242 221 72
3 129 650 78 242 221 72
3 78 650 641 242 221 72
3 78 641 637 242 221 72
3 637 641 642 242 221 72
3 637 642 76 242 221 72
3 76 642 77 242 221 72
3 77 642 144 242 221 72
3 144 642 79 242 221 72
3 144 79 185 242 221 72
3 185 79 154 242 221 72
3 185 154 227 242 221 72
3 227 154 224 242 221 72
3 227 224 684 242 221 72
3 684 224 679 40 176 204
3 684 679 328 40 176 204
3 684 328 658 40 176 204
3 658 328 285 40 176 204
3 285 328 369 40 176 204
3 285 369 226 40 176 204
3 226 369 374 40 176 204
3 374 369 392 40 176 204
3 392 369 638 40 176 204
3 392 638 619 40 176 204
3 392 619 617 40 176 204
3 617 619 607 40 176 204
3 607 619 631 40 176 204
3 607 631 593 40 176 204
3 593 631 627 40 176 204
3 593 627 422 40 176 204
3 422 627 616 40 176 204
3 616 627 623 40 176 204
3 616 623 375 40 176 204
3 375 623 355 40 176 204
3 355 623 635 40 176 204
3 355 635 327 40 176 204
3 327 635 296 40 176 204
3 296 635 332 40 176 204
3 327 296 135 40 176 204
3 135 296 235 40 176 204
3 135 235 171 242 221 72
3 171 235 258 242 221 72
3 258 235 640 242 221 72
3 258 640 629 242 221 72
3 258 629 621 242 221 72
3 621 629 618 242 221 72
3 618 629 633 242 221 72
3 618 633 246 242 221 72
3 246 633 612 242 221 72
3 612 633 183 242 221 72
3 612 183 94 242 221 72
3 612 94 204 242 221 72
3 204 94 110 242 221 72
3 110 94 74 242 221 72
3 74 94 643 242 221 72
3 74 643 622 242 221 72
3 622 643 648 242 221 72
3 622 648 128 242 221 72
3 128 648 99 242 221 72
3 128 99 207 242 221 72
3 207 99 171 242 221 72
3 171 99 135 242 221 72
3 207 171 258 242 221 72
3 207 258 206 242 221 72
3 206 258 621 242 221 72
3 206 621 606 242 221 72
3 606 621 618 242 221 72
3 606 618 246 242 221 72
3 606 246 597 242 221 72
3 597 246 589 127 20 204
3 589 246 612 242 221 72
3 589 612 204 242 221 72
3 589 204 256 127 20 204
3 256 204 181 127 20 204
3 181 204 109 127 20 204
3 109 204 110 127 20 204
3 109 110 585 127 20 204
3 585 110 74 242 221 72
3 585 74 615 242 221 72
3 615 74 622 242 221 72
3 615 622 128 242 221 72
3 615 128 152 242 221 72
3 152 128 206 242 221 72
3 206 128 207 242 221 72
3 152 206 167 242 221 72
3 167 206 604 242 221 72
3 604 206 606 242 221 72
3 604 606 590 127 20 204
3 590 606 597 127 20 204
3 590 597 569 127 20 204
3 569 597 589 127 20 204
3 569 589 565 127 20 204
3 565 589 256 127 20 204
3 565 256 558 127 20 204
3 558 256 181 127 20 204
3 558 181 293 127 20 204
3 293 181 200 127 20 204
3 200 181 166 127 20 204
3 166 181 109 127 20 204
3 166 109 584 127 20 204
3 584 109 585 127 20 204
3 584 585 580 127 20 204
3 580 585 615 127 20 204
3 580 615 596 127 20 204
3 596 615 152 242 221 72
3 596 152 167 242 221 72
3 596 167 202 127 20 204
3 202 167 604 127 20 204
3 202 604 271 127 20 204
3 271 604 590 127 20 204
3 271 590 569 127 20 204
3 271 569 295 127 20 204
3 295 569 565 127 20 204
3 295 565 551 127 20 204
3 551 565 558 127 20 204
3 551 558 535 127 20 204
3 535 558 293 127 20 204
3 535 293 519 48 242 105
3 519 293 311 48 242 105
3 311 293 232 48 242 105
3 232 293 200 127 20 204
3 232 200 539 127 20 204
3 539 200 179 127 20 204
3 179 200 166 127 20 204
3 179 166 147 127 20 204
3 147 166 584 127 20 204
3 147 584 573 127 20 204
3 573 584 580 127 20 204
3 573 580 577 127 20 204
3 577 580 596 127 20 204
3 577 596 202 127 20 204
3 577 202 573 127 20 204
3 573 202 255 127 20 204
3 255 202 283 127 20 204
3 283 202 271 127 20 204
3 283 271 295 127 20 204
3 283 295 551 127 20 204
3 283 551 347 127 20 204
3 347 551 535 127 20 204
3 347 535 523 48 242 105
3 523 535 519 48 242 105
3 523 519 356 48 242 105
3 356 519 341 48 242 105
3 341 519 510 48 242 105
3 510 519 495 48 242 105
3 495 519 340 48 242 105
3 340 519 311 48 242 105
3 340 311 478 48 242 105
3 478 311 267 48 242 105
3 267 311 232 48 242 105
3 267 232 197 48 242 105
3 197 232 527 48 242 105
3 527 232 539 127 20 204
3 527 539 530 127 20 204
3 530 539 147 127 20 204
3 147 539 179 127 20 204
3 530 147 557 127 20 204
3 557 147 573 127 20 204
3 557 573 255 127 20 204
3 557 255 530 127 20 204
3 530 255 283 127 20 204
3 530 283 198 127 20 204
3 198 283 326 127 20 204
3 326 283 347 48 242 105
3 326 347 341 48 242 105
3 341 347 523 48 242 105
3 341 523 371 48 242 105
3 371 523 387 48 242 105
3 387 523 356 48 242 105
3 387 356 515 48 242 105
3 515 356 341 48 242 105
3 515 341 371 48 242 105
3 515 371 387 48 242 105
3 326 341 312 48 242 105
3 312 341 510 48 242 105
3 312 510 354 48 242 105
3 354 510 495 48 242 105
3 354 495 353 48 242 105
3 353 495 340 48 242 105
3 353 340 490 48 242 105
3 490 340 478 48 242 105
3 490 478 290 48 242 105
3 290 478 303 48 242 105
3 303 478 310 48 242 105
3 310 478 267 48 242 105
3 310 267 250 48 242 105
3 250 267 489 48 242 105
3 489 267 488 48 242 105
3 488 267 197 48 242 105
3 488 197 485 48 242 105
3 485 197 178 48 242 105
3 178 197 527 48 242 105
3 178 527 198 48 242 105
3 198 527 530 48 242 105
3 178 198 496 48 242 105
3 496 198 239 48 242 105
3 239 198 281 48 242 105
3 281 198 312 48 242 105
3 312 198 326 48 242 105
3 281 312 490 48 242 105
3 490 312 338 48 242 105
3 338 312 354 48 242 105
3 338 354 331 48 242 105
3 331 354 479 48 242 105
3 479 354 353 48 242 105
3 479 353 331 48 242 105
3 331 353 338 48 242 105
3 338 353 490 48 242 105
3 281 490 290 48 242 105
3 281 290 239 48 242 105
3 239 290 249 48 242 105
3 249 290 310 48 242 105
3 310 290 303 48 242 105
3 249 310 250 48 242 105
3 249 250 489 48 242 105
3 249 489 239 48 242 105
3 239 489 488 48 242 105
3 239 488 496 48 242 105
3 496 488 485 48 242 105
3 496 485 178 48 242 105
3 327 135 244 40 176 204
3 327 244 273 40 176 204
3 273 244 317 40 176 204
3 317 244 203 40 176 204
3 203 244 636 40 176 204
3 203 636 611 40 176 204
3 203 611 574 40 176 204
3 574 611 581 40 176 204
3 581 611 602 40 176 204
3 581 602 598 40 176 204
3 581 598 561 40 176 204
3 561 598 575 40 176 204
3 575 598 594 40 176 204
3 575 594 608 40 176 204
3 575 608 127 40 176 204
3 127 608 614 40 176 204
3 127 614 242 40 176 204
3 242 614 205 40 176 204
3 205 614 113 40 176 204
3 205 113 226 40 176 204
3 226 113 184 40 176 204
3 184 113 130 40 176 204
3 184 130 95 40 176 204
3 184 95 655 40 176 204
3 655 95 259 242 221 72
3 259 95 129 242 221 72
3 259 129 153 242 221 72
3 153 129 112 242 221 72
3 112 129 78 242 221 72
3 112 78 75 242 221 72
3 75 78 637 242 221 72
3 75 637 595 242 221 72
3 595 637 76 242 221 72
3 595 76 583 242 221 72
3 583 76 111 242 221 72
3 111 76 77 242 221 72
3 111 77 610 242 221 72
3 610 77 144 242 221 72
3 610 144 632 242 221 72
3 632 144 185 242 221 72
3 632 185 647 242 221 72
3 647 185 227 242 221 72
3 647 227 684 242 221 72
3 647 684 658 242 221 72
3 647 658 656 242 221 72
3 656 658 259 242 221 72
3 259 658 655 242 221 72
3 655 658 285 40 176 204
3 655 285 184 40 176 204
3 184 285 226 40 176 204
3 656 259 257 242 221 72
3 257 259 153 242 221 72
3 257 153 626 242 221 72
3 626 153 609 242 221 72
3 609 153 605 242 221 72
3 605 153 105 242 221 72
3 105 153 112 242 221 72
3 105 112 75 242 221 72
3 105 75 93 242 221 72
3 93 75 595 242 221 72
3 93 595 599 127 20 204
3 599 595 571 127 20 204
3 571 595 579 127 20 204
3 579 595 583 127 20 204
3 579 583 150 127 20 204
3 150 583 588 127 20 204
3 588 583 111 127 20 204
3 588 111 182 127 20 204
3 182 111 610 127 20 204
3 182 610 601 127 20 204
3 601 610 609 242 221 72
3 609 610 620 242 221 72
3 620 610 632 242 221 72
3 620 632 639 242 221 72
3 639 632 647 242 221 72
3 639 647 656 242 221 72
3 639 656 257 242 221 72
3 639 257 626 242 221 72
3 639 626 620 242 221 72
3 620 626 609 242 221 72
3 601 609 600 127 20 204
3 600 609 605 242 221 72
3 600 605 272 127 20 204
3 272 605 151 127 20 204
3 151 605 105 242 221 72
3 151 105 93 127 20 204
3 151 93 599 127 20 204
3 151 599 149 127 20 204
3 149 599 571 127 20 204
3 149 571 542 127 20 204
3 542 571 560 127 20 204
3 560 571 579 127 20 204
3 560 579 150 127 20 204
3 560 150 553 127 20 204
3 553 150 225 127 20 204
3 225 150 201 127 20 204
3 201 150 588 127 20 204
3 201 588 270 127 20 204
3 270 588 182 127 20 204
3 270 182 601 127 20 204
3 270 601 568 127 20 204
3 568 601 572 127 20 204
3 572 601 600 127 20 204
3 572 600 272 127 20 204
3 572 272 269 127 20 204
3 269 272 151 127 20 204
3 269 151 241 127 20 204
3 241 151 149 127 20 204
3 241 149 199 127 20 204
3 199 149 542 127 20 204
3 199 542 543 127 20 204
3 543 542 553 127 20 204
3 553 542 560 127 20 204
3 543 553 534 127 20 204
3 534 553 225 127 20 204
3 534 225 323 127 20 204
3 323 225 315 127 20 204
3 315 225 201 127 20 204
3 315 201 270 127 20 204
3 315 270 556 127 20 204
3 556 270 568 127 20 204
3 556 568 284 127 20 204
3 284 568 269 127 20 204
3 269 568 572 127 20 204
3 284 269 241 127 20 204
3 284 241 314 127 20 204
3 314 241 199 127 20 204
3 314 199 292 127 20 204
3 292 199 543 127 20 204
3 292 543 522 48 242 105
3 522 543 526 48 242 105
3 526 543 534 48 242 105
3 526 534 196 48 242 105
3 196 534 501 48 242 105
3 501 534 342 48 242 105
3 342 534 323 48 242 105
3 342 323 372 48 242 105
3 372 323 336 48 242 105
3 336 323 315 127 20 204
3 336 315 556 127 20 204
3 336 556 547 127 20 204
3 547 556 284 127 20 204
3 547 284 314 127 20 204
3 547 314 525 127 20 204
3 525 314 292 48 242 105
3 525 292 253 48 242 105
3 253 292 522 48 242 105
3 253 522 252 48 242 105
3 252 522 471 48 242 105
3 471 522 507 48 242 105
3 507 522 526 48 242 105
3 507 526 493 48 242 105
3 493 526 196 48 242 105
3 493 196 494 48 242 105
3 494 196 484 48 242 105
3 484 196 481 48 242 105
3 481 196 501 48 242 105
3 481 501 482 48 242 105
3 482 501 500 48 242 105
3 500 501 339 48 242 105
3 339 501 342 48 242 105
3 339 342 512 48 242 105
3 512 342 518 48 242 105
3 518 342 372 48 242 105
3 518 372 367 48 242 105
3 367 372 521 48 242 105
3 521 372 525 48 242 105
3 525 372 547 48 242 105
3 547 372 336 48 242 105
3 521 525 366 48 242 105
3 366 525 517 48 242 105
3 517 525 253 48 242 105
3 517 253 291 48 242 105
3 291 253 252 48 242 105
3 291 252 472 48 242 105
3 472 252 484 48 242 105
3 484 252 494 48 242 105
3 494 252 471 48 242 105
3 494 471 480 48 242 105
3 480 471 493 48 242 105
3 493 471 507 48 242 105
3 480 493 494 48 242 105
3 472 484 473 48 242 105
3 473 484 481 48 242 105
3 473 481 467 48 242 105
3 467 481 482 48 242 105
3 467 482 468 48 242 105
3 468 482 500 48 242 105
3 468 500 291 48 242 105
3 291 500 505 48 242 105
3 505 500 492 48 242 105
3 492 500 477 48 242 105
3 477 500 339 48 242 105
3 477 339 476 48 242 105
3 476 339 512 48 242 105
3 476 512 492 48 242 105
3 492 512 505 48 242 105
3 505 512 517 48 242 105
3 517 512 518 48 242 105
3 517 518 366 48 242 105
3 366 518 367 48 242 105
3 366 367 514 48 242 105
3 514 367 391 48 242 105
3 391 367 521 48 242 105
3 391 521 366 48 242 105
3 391 366 514 48 242 105
3 505 517 291 48 242 105
3 476 492 360 48 242 105
3 360 492 477 48 242 105
3 360 477 476 48 242 105
3 468 291 467 48 242 105
3 467 291 472 48 242 105
3 467 472 473 48 242 105
3 205 226 243 40 176 204
3 243 226 374 40 176 204
3 243 374 362 40 176 204
3 362 374 617 40 176 204
3 617 374 392 40 176 204
3 362 617 416 40 176 204
3 416 617 607 40 176 204
3 416 607 586 40 176 204
3 586 607 593 40 176 204
3 586 593 592 40 176 204
3 592 593 422 40 176 204
3 592 422 591 40 176 204
3 591 422 613 40 176 204
3 613 422 616 40 176 204
3 613 616 375 40 176 204
3 613 375 400 40 176 204
3 400 375 273 40 176 204
3 273 375 355 40 176 204
3 273 355 327 40 176 204
3 400 273 317 40 176 204
3 400 317 368 40 176 204
3 368 317 294 40 176 204
3 294 317 582 40 176 204
3 582 317 203 40 176 204
3 582 203 91 40 176 204
3 91 203 574 40 176 204
3 91 574 57 40 176 204
3 57 574 7 40 176 204
3 7 574 561 40 176 204
3 561 574 581 40 176 204
3 7 561 555 40 176 204
3 555 561 564 40 176 204
3 564 561 575 40 176 204
3 564 575 92 40 176 204
3 92 575 567 40 176 204
3 567 575 127 40 176 204
3 567 127 242 40 176 204
3 567 242 254 40 176 204
3 254 242 316 40 176 204
3 316 242 243 40 176 204
3 243 242 205 40 176 204
3 316 243 362 40 176 204
3 316 362 587 40 176 204
3 587 362 416 40 176 204
3 587 416 576 40 176 204
3 576 416 570 40 176 204
3 570 416 586 40 176 204
3 570 586 592 40 176 204
3 570 592 578 40 176 204
3 578 592 591 40 176 204
3 578 591 413 40 176 204
3 413 591 613 40 176 204
3 413 613 400 40 176 204
3 413 400 566 40 176 204
3 566 400 368 40 176 204
3 566 368 345 40 176 204
3 345 368 294 40 176 204
3 345 294 344 40 176 204
3 344 294 282 242 24 142
3 282 294 240 242 24 142
3 240 294 148 242 24 142
3 148 294 582 40 176 204
3 148 582 91 40 176 204
3 148 91 57 40 176 204
3 148 57 45 40 176 204
3 45 57 545 242 24 142
3 545 57 550 40 176 204
3 550 57 7 40 176 204
3 550 7 555 40 176 204
3 550 555 541 40 176 204
3 541 555 528 40 176 204
3 528 555 538 40 176 204
3 538 555 564 40 176 204
3 538 564 552 40 176 204
3 552 564 46 40 176 204
3 46 564 92 40 176 204
3 46 92 180 40 176 204
3 180 92 567 40 176 204
3 180 567 254 40 176 204
3 180 254 533 242 24 142
3 533 254 313 242 24 142
3 313 254 316 40 176 204
3 313 316 365 40 176 204
3 365 316 587 40 176 204
3 365 587 576 40 176 204
3 365 576 559 40 176 204
3 559 576 410 40 176 204
3 410 576 570 40 176 204
3 410 570 548 40 176 204
3 548 570 563 40 176 204
3 563 570 578 40 176 204
3 563 578 540 40 176 204
3 540 578 411 40 176 204
3 411 578 566 40 176 204
3 566 578 413 40 176 204
3 411 566 345 40 176 204
3 411 345 562 40 176 204
3 562 345 544 40 176 204
3 544 345 344 40 176 204
3 544 344 282 242 24 142
3 544 282 536 242 24 142
3 536 282 486 242 24 142
3 486 282 337 242 24 142
3 337 282 251 242 24 142
3 251 282 240 242 24 142
3 251 240 45 242 24 142
3 45 240 148 242 24 142
3 251 45 32 242 24 142
3 32 45 516 242 24 142
3 516 45 545 242 24 142
3 516 545 550 242 24 142
3 516 550 541 242 24 142
3 516 541 508 242 24 142
3 508 541 528 242 24 142
3 508 528 503 242 24 142
3 503 528 509 242 24 142
3 509 528 9 242 24 142
3 9 528 538 242 24 142
3 9 538 552 242 24 142
3 9 552 520 242 24 142
3 520 552 46 242 24 142
3 520 46 532 242 24 142
3 532 46 533 242 24 142
3 533 46 180 242 24 142
3 532 533 124 242 24 142
3 124 533 343 242 24 142
3 343 533 313 242 24 142
3 343 313 549 242 24 142
3 549 313 384 40 176 204
3 384 313 365 40 176 204
3 384 365 559 40 176 204
3 384 559 546 40 176 204
3 546 559 410 40 176 204
3 546 410 548 40 176 204
3 546 548 524 40 176 204
3 524 548 563 40 176 204
3 524 563 540 40 176 204
3 524 540 537 40 176 204
3 537 540 411 40 176 204
3 537 411 554 40 176 204
3 554 411 562 40 176 204
3 554 562 544 40 176 204
3 554 544 536 242 24 142
3 554 536 537 242 24 142
3 537 536 506 242 24 142
3 506 536 486 242 24 142
3 506 486 474 242 24 142
3 474 486 324 242 24 142
3 324 486 337 242 24 142
3 324 337 125 242 24 142
3 125 337 251 242 24 142
3 125 251 126 242 24 142
3 126 251 32 242 24 142
3 126 32 469 242 24 142
3 469 32 516 242 24 142
3 469 516 508 242 24 142
3 469 508 502 242 24 142
3 502 508 503 242 24 142
3 502 503 165 242 24 142
3 165 503 189 242 24 142
3 189 503 497 242 24 142
3 497 503 509 242 24 142
3 497 509 72 242 24 142
3 72 509 466 242 24 142
3 466 509 498 242 24 142
3 498 509 9 242 24 142
3 498 9 475 242 24 142
3 475 9 491 242 24 142
3 491 9 520 242 24 142
3 491 520 532 242 24 142
3 491 532 124 242 24 142
3 491 124 108 242 24 142
3 108 124 146 242 24 142
3 146 124 343 242 24 142
3 146 343 195 242 24 142
3 195 343 361 242 24 142
3 361 343 549 242 24 142
3 361 549 499 242 24 142
3 499 549 546 242 24 142
3 546 549 384 40 176 204
3 499 546 529 242 24 142
3 529 546 531 242 24 142
3 531 546 524 40 176 204
3 531 524 373 40 176 204
3 373 524 511 40 176 204
3 511 524 537 40 176 204
3 511 537 506 242 24 142
3 511 506 483 242 24 142
3 483 506 474 242 24 142
3 483 474 470 242 24 142
3 470 474 453 242 24 142
3 453 474 324 242 24 142
3 453 324 266 242 24 142
3 266 324 125 242 24 142
3 266 125 449 242 24 142
3 449 125 90 242 24 142
3 90 125 126 242 24 142
3 90 126 469 242 24 142
3 90 469 459 242 24 142
3 459 469 456 242 24 142
3 456 469 502 242 24 142
3 456 502 28 242 24 142
3 28 502 73 242 24 142
3 73 502 165 242 24 142
3 73 165 464 242 24 142
3 464 165 189 242 24 142
3 464 189 261 242 24 142
3 261 189 236 242 24 142
3 236 189 268 242 24 142
3 268 189 497 242 24 142
3 268 497 177 242 24 142
3 177 497 72 242 24 142
3 177 72 145 242 24 142
3 145 72 56 242 24 142
3 56 72 466 242 24 142
3 56 466 447 242 24 142
3 447 466 462 242 24 142
3 462 466 29 242 24 142
3 29 466 475 242 24 142
3 475 466 498 242 24 142
3 29 475 491 242 24 142
3 29 491 108 242 24 142
3 29 108 89 242 24 142
3 89 108 146 242 24 142
3 89 146 193 242 24 142
3 193 146 195 242 24 142
3 193 195 458 242 24 142
3 458 195 463 242 24 142
3 463 195 361 242 24 142
3 463 361 487 242 24 142
3 487 361 499 242 24 142
3 487 499 529 242 24 142
3 487 529 325 242 24 142
3 325 529 513 242 24 142
3 513 529 531 242 24 142
3 513 531 373 40 176 204
3 513 373 351 40 176 204
3 351 373 511 40 176 204
3 351 511 483 242 24 142
3 351 483 261 242 24 142
3 261 483 470 242 24 142
3 261 470 461 242 24 142
3 461 470 454 242 24 142
3 454 470 452 242 24 142
3 452 470 453 242 24 142
3 452 453 450 242 24 142
3 450 453 266 242 24 142
3 450 266 223 242 24 142
3 223 266 143 242 24 142
3 143 266 449 242 24 142
3 143 449 54 242 24 142
3 54 449 42 242 24 142
3 42 449 90 242 24 142
3 42 90 459 242 24 142
3 42 459 445 242 24 142
3 445 459 456 242 24 142
3 445 456 27 242 24 142
3 27 456 28 242 24 142
3 27 28 71 242 24 142
3 71 28 73 242 24 142
3 71 73 464 242 24 142
3 71 464 70 242 24 142
3 70 464 106 242 24 142
3 106 464 448 242 24 142
3 448 464 454 242 24 142
3 454 464 194 242 24 142
3 194 464 461 242 24 142
3 461 464 261 242 24 142
3 194 461 454 242 24 142
3 448 454 452 242 24 142
3 448 452 444 242 24 142
3 444 452 450 242 24 142
3 444 450 223 242 24 142
3 444 223 439 96 204 61
3 439 223 424 96 204 61
3 424 223 191 96 204 61
3 191 223 143 96 204 61
3 191 143 141 96 204 61
3 141 143 54 96 204 61
3 141 54 66 96 204 61
3 66 54 16 96 204 61
3 16 54 42 96 204 61
3 16 42 438 96 204 61
3 438 42 445 242 24 142
3 438 445 436 96 204 61
3 436 445 442 96 204 61
3 442 445 43 96 204 61
3 43 445 27 242 24 142
3 43 27 71 242 24 142
3 43 71 70 242 24 142
3 43 70 88 242 24 142
3 88 70 106 242 24 142
3 88 106 440 96 204 61
3 440 106 448 242 24 142
3 440 448 444 242 24 142
3 440 444 439 96 204 61
3 440 439 175 96 204 61
3 175 439 424 96 204 61
3 175 424 394 96 204 61
3 394 424 430 96 204 61
3 430 424 191 96 204 61
3 430 191 138 96 204 61
3 138 191 141 96 204 61
3 138 141 66 96 204 61
3 138 66 84 96 204 61
3 84 66 35 96 204 61
3 35 66 16 96 204 61
3 35 16 419 96 204 61
3 419 16 433 96 204 61
3 433 16 438 96 204 61
3 433 438 436 96 204 61
3 433 436 432 96 204 61
3 432 436 442 96 204 61
3 432 442 14 96 204 61
3 14 442 104 96 204 61
3 104 442 88 96 204 61
3 88 442 43 96 204 61
3 104 88 440 96 204 61
3 104 440 175 96 204 61
3 104 175 121 96 204 61
3 121 175 333 96 204 61
3 333 175 394 96 204 61
3 333 394 350 96 204 61
3 350 394 320 96 204 61
3 320 394 138 96 204 61
3 138 394 430 96 204 61
3 320 138 84 96 204 61
3 320 84 98 96 204 61
3 98 84 381 96 204 61
3 381 84 35 96 204 61
3 381 35 419 96 204 61
3 381 419 427 96 204 61
3 427 419 433 96 204 61
3 427 433 432 96 204 61
3 427 432 18 96 204 61
3 18 432 20 96 204 61
3 20 432 14 96 204 61
3 20 14 104 96 204 61
3 20 104 52 96 204 61
3 52 104 121 96 204 61
3 52 121 119 96 204 61
3 119 121 333 96 204 61
3 119 333 306 96 204 61
3 306 333 350 96 204 61
3 306 350 172 96 204 61
3 172 350 320 96 204 61
3 172 320 161 96 204 61
3 161 320 98 96 204 61
3 161 98 170 56 48 242
3 170 98 31 56 48 242
3 31 98 63 96 204 61
3 63 98 381 96 204 61
3 63 381 305 96 204 61
3 305 381 427 96 204 61
3 305 427 18 96 204 61
3 305 18 49 96 204 61
3 49 18 83 96 204 61
3 83 18 52 96 204 61
3 52 18 20 96 204 61
3 83 52 119 96 204 61
3 83 119 162 96 204 61
3 162 119 215 96 204 61
3 215 119 306 96 204 61
3 215 306 172 96 204 61
3 215 172 120 96 204 61
3 120 172 161 96 204 61
3 120 161 188 56 48 242
3 188 161 170 56 48 242
3 188 170 210 56 48 242
3 210 170 118 56 48 242
3 118 170 65 56 48 242
3 65 170 31 56 48 242
3 65 31 2 56 48 242
3 2 31 17 56 48 242
3 17 31 63 56 48 242
3 17 63 49 96 204 61
3 49 63 305 96 204 61
3 17 49 85 96 204 61
3 85 49 162 96 204 61
3 162 49 83 96 204 61
3 85 162 6 96 204 61
3 6 162 212 56 48 242
3 212 162 215 96 204 61
3 212 215 358 56 48 242
3 358 215 120 56 48 242
3 358 120 188 56 48 242
3 358 188 357 56 48 242
3 357 188 348 56 48 242
3 348 188 210 56 48 242
3 348 210 318 56 48 242
3 318 210 118 56 48 242
3 318 118 319 56 48 242
3 319 118 278 56 48 242
3 278 118 217 56 48 242
3 217 118 65 56 48 242
3 217 65 34 56 48 242
3 34 65 2 56 48 242
3 34 2 6 56 48 242
3 6 2 17 56 48 242
3 6 17 85 56 48 242
3 34 6 137 56 48 242
3 137 6 158 56 48 242
3 158 6 212 56 48 242
3 158 212 233 56 48 242
3 233 212 389 56 48 242
3 389 212 358 56 48 242
3 389 358 357 56 48 242
3 389 357 425 56 48 242
3 425 357 408 56 48 242
3 408 357 388 56 48 242
3 388 357 348 56 48 242
3 388 348 318 56 48 242
3 388 318 378 56 48 242
3 378 318 319 56 48 242
3 378 319 385 56 48 242
3 385 319 370 56 48 242
3 370 319 278 56 48 242
3 370 278 382 56 48 242
3 382 278 321 56 48 242
3 321 278 247 56 48 242
3 247 278 217 56 48 242
3 247 217 137 56 48 242
3 137 217 34 56 48 242
3 247 137 158 56 48 242
3 247 158 233 56 48 242
3 247 233 321 56 48 242
3 321 233 346 56 48 242
3 346 233 389 56 48 242
3 346 389 380 56 48 242
3 380 389 409 56 48 242
3 409 389 425 56 48 242
3 409 425 418 56 48 242
3 418 425 415 56 48 242
3 415 425 412 56 48 242
3 412 425 3 56 48 242
3 3 425 408 56 48 242
3 3 408 0 56 48 242
3 0 408 403 56 48 242
3 403 408 388 56 48 242
3 403 388 378 56 48 242
3 403 378 385 56 48 242
3 403 385 0 56 48 242
3 0 385 420 56 48 242
3 420 385 382 56 48 242
3 382 385 370 56 48 242
3 420 382 421 56 48 242
3 421 382 412 56 48 242
3 412 382 379 56 48 242
3 379 382 321 56 48 242
3 379 321 346 56 48 242
3 379 346 380 56 48 242
3 379 380 404 56 48 242
3 404 380 409 56 48 242
3 404 409 418 56 48 242
3 404 418 423 56 48 242
3 423 418 415 56 48 242
3 423 415 412 56 48 242
3 423 412 379 56 48 242
3 423 379 404 56 48 242
3 421 412 3 56 48 242
3 421 3 420 56 48 242
3 420 3 0 56 48 242
3 351 261 236 242 24 142
3 351 236 504 40 176 204
3 504 236 268 40 176 204
3 504 268 325 242 24 142
3 325 268 177 242 24 142
3 325 177 465 242 24 142
3 465 177 460 242 24 142
3 460 177 145 242 24 142
3 460 145 69 242 24 142
3 69 145 53 242 24 142
3 53 145 56 242 24 142
3 53 56 446 242 24 142
3 446 56 447 242 24 142
3 446 447 443 242 24 142
3 443 447 451 242 24 142
3 451 447 462 242 24 142
3 451 462 89 242 24 142
3 89 462 29 242 24 142
3 451 89 55 242 24 142
3 55 89 193 242 24 142
3 55 193 192 242 24 142
3 192 193 458 242 24 142
3 192 458 457 242 24 142
3 457 458 463 242 24 142
3 457 463 487 242 24 142
3 457 487 465 242 24 142
3 465 487 325 242 24 142
3 457 465 460 242 24 142
3 457 460 455 242 24 142
3 455 460 69 242 24 142
3 455 69 265 242 24 142
3 265 69 434 242 24 142
3 434 69 142 96 204 61
3 142 69 53 96 204 61
3 142 53 23 96 204 61
3 23 53 446 96 204 61
3 23 446 443 96 204 61
3 23 443 437 96 204 61
3 437 443 11 96 204 61
3 11 443 44 96 204 61
3 44 443 451 96 204 61
3 44 451 55 242 24 142
3 44 55 68 96 204 61
3 68 55 435 96 204 61
3 435 55 192 242 24 142
3 435 192 265 242 24 142
3 265 192 455 242 24 142
3 455 192 457 242 24 142
3 435 265 441 96 204 61
3 441 265 434 96 204 61
3 441 434 190 96 204 61
3 190 434 142 96 204 61
3 190 142 19 96 204 61
3 19 142 23 96 204 61
3 19 23 25 96 204 61
3 25 23 5 96 204 61
3 5 23 437 96 204 61
3 5 437 8 96 204 61
3 8 437 429 96 204 61
3 429 437 15 96 204 61
3 15 437 11 96 204 61
3 15 11 44 96 204 61
3 15 44 68 96 204 61
3 15 68 39 96 204 61
3 39 68 426 96 204 61
3 426 68 390 96 204 61
3 390 68 428 96 204 61
3 428 68 435 96 204 61
3 428 435 441 96 204 61
3 428 441 431 96 204 61
3 431 441 190 96 204 61
3 431 190 122 96 204 61
3 122 190 19 96 204 61
3 122 19 50 96 204 61
3 50 19 25 96 204 61
3 50 25 24 96 204 61
3 24 25 383 96 204 61
3 383 25 8 96 204 61
3 8 25 5 96 204 61
3 383 8 405 96 204 61
3 405 8 429 96 204 61
3 405 429 67 96 204 61
3 67 429 12 96 204 61
3 12 429 15 96 204 61
3 12 15 39 96 204 61
3 12 39 101 96 204 61
3 101 39 426 96 204 61
3 101 426 159 96 204 61
3 159 426 390 96 204 61
3 159 390 173 96 204 61
3 173 390 364 96 204 61
3 364 390 428 96 204 61
3 364 428 431 96 204 61
3 364 431 307 96 204 61
3 307 431 122 96 204 61
3 307 122 263 96 204 61
3 263 122 50 96 204 61
3 263 50 24 96 204 61
3 263 24 134 96 204 61
3 134 24 139 96 204 61
3 139 24 287 96 204 61
3 287 24 383 96 204 61
3 287 383 405 96 204 61
3 287 405 308 96 204 61
3 308 405 67 96 204 61
3 308 67 221 96 204 61
3 221 67 101 96 204 61
3 101 67 12 96 204 61
3 221 101 159 96 204 61
3 221 159 211 96 204 61
3 211 159 173 96 204 61
3 211 173 213 96 204 61
3 213 173 280 96 204 61
3 280 173 364 96 204 61
3 280 364 307 96 204 61
3 280 307 220 96 204 61
3 220 307 263 96 204 61
3 220 263 234 96 204 61
3 234 263 134 96 204 61
3 234 134 62 56 48 242
3 62 134 139 56 48 242
3 62 139 103 56 48 242
3 103 139 26 56 48 242
3 26 139 237 56 48 242
3 237 139 287 96 204 61
3 237 287 308 96 204 61
3 237 308 221 96 204 61
3 237 221 64 56 48 242
3 64 221 211 56 48 242
3 64 211 132 56 48 242
3 132 211 289 56 48 242
3 289 211 322 56 48 242
3 322 211 309 56 48 242
3 309 211 213 56 48 242
3 309 213 40 56 48 242
3 40 213 38 56 48 242
3 38 213 264 56 48 242
3 264 213 220 96 204 61
3 220 213 280 96 204 61
3 264 220 234 96 204 61
3 264 234 38 56 48 242
3 38 234 304 56 48 242
3 304 234 279 56 48 242
3 279 234 174 56 48 242
3 174 234 62 56 48 242
3 174 62 37 56 48 242
3 37 62 103 56 48 242
3 37 103 21 56 48 242
3 21 103 26 56 48 242
3 21 26 10 56 48 242
3 10 26 61 56 48 242
3 61 26 64 56 48 242
3 64 26 237 56 48 242
3 61 64 132 56 48 242
3 61 132 117 56 48 242
3 117 132 289 56 48 242
3 117 289 302 56 48 242
3 302 289 322 56 48 242
3 302 322 288 56 48 242
3 288 322 309 56 48 242
3 288 309 40 56 48 242
3 288 40 352 56 48 242
3 352 40 386 56 48 242
3 386 40 38 56 48 242
3 386 38 304 56 48 242
3 386 304 352 56 48 242
3 352 304 330 56 48 242
3 330 304 279 56 48 242
3 330 279 219 56 48 242
3 219 279 174 56 48 242
3 219 174 37 56 48 242
3 219 37 140 56 48 242
3 140 37 86 56 48 242
3 86 37 21 56 48 242
3 86 21 10 56 48 242
3 86 10 164 56 48 242
3 164 10 61 56 48 242
3 164 61 117 56 48 242
3 164 117 238 56 48 242
3 238 117 302 56 48 242
3 238 302 330 56 48 242
3 330 302 288 56 48 242
3 330 288 352 56 48 242
3 238 330 219 56 48 242
3 238 219 140 56 48 242
3 238 140 164 56 48 242
3 164 140 86 56 48 242
3 504 325 513 242 24 142
3 504 513 351 40 176 204
