ply
format ascii 1.0
element vertex 752
property float x
property float y
property float z
element face 1500
property list uchar int vertex_indices
property uchar red
property uchar green
property uchar blue
end_header
-0.018276 -0.51751 0.179404
-0.018904 -0.51696 0.149871
-0.114357 -0.602327 0.212386
-0.058787 -0.708948 0.16571
-0.029888 -0.788489 0.216638
-0.021408 -0.779354 0.224924
-0.198998 0.089184 -0.175942
-0.15768 -0.181464 -0.029314
-0.04483 -0.200351 -0.155183
-0.117385 -0.272267 -0.060687
-0.009534 -0.22433 0.014285
-0.158051 0.286248 -0.024806
0.005583 0.30067 -0.090152
-0.142021 0.226091 -0.035575
-0.136707 0.195505 -0.038475
0.071104 -0.515856 -0.175745
-0.012373 -0.625889 -0.201114
0.058177 -0.72403 -0.232667
0.037376 -0.679844 -0.242919
0.013977 -0.334492 -0.009894
0.194346 0.233752 0.010489
0.244931 0.009184 0.048778
0.004071 -0.29944 -0.083544
0.035559 -0.287583 -0.128874
0.017614 0.048675 0.056489
0.044289 -0.221885 0.028132
0.005812 -0.2205 0.01116
0.002227 0.118865 0.057621
0.144935 0.204438 -0.087488
0.142854 0.243636 0.011221
0.154041 0.232187 -0.069431
0.155436 0.195753 -0.062217
-0.052372 -0.360478 0.164563
-0.129106 -0.308571 0.124566
-0.068514 -0.484311 0.101571
-0.034732 -0.445158 0.077573
-0.018072 -0.428002 0.157992
-0.025307 -0.372025 0.148646
-0.072074 -0.436399 0.19969
-0.114858 -0.437253 0.163199
-0.118949 -0.438243 0.119616
-0.006674 -0.389549 0.113336
-0.009225 -0.411925 0.082222
-0.036016 -0.494625 0.200823
-0.096097 -0.481017 0.207168
-0.076457 -0.515846 0.118961
-0.025428 -0.545511 0.141706
-0.061906 -0.499666 0.217153
-0.111696 -0.51944 0.151083
-0.059961 -0.547717 0.125491
-0.038595 -0.593601 0.222071
-0.101528 -0.537665 0.216779
-0.056013 -0.616803 0.131862
-0.032709 -0.610453 0.141064
-0.013918 -0.650249 0.211804
-0.010888 -0.651511 0.178522
-0.102106 -0.711881 0.208626
-0.096947 -0.705818 0.186234
-0.10041 -0.662153 0.161382
-0.042766 -0.703275 0.166227
-0.031546 -0.739142 0.253391
-0.051906 -0.693493 0.251698
-0.049616 -0.776981 0.27954
-0.040024 -0.834442 0.307139
-0.098733 -0.64803 0.237161
-0.064722 -0.804813 0.286947
-0.080613 -0.764126 0.262538
-0.083865 -0.776602 0.252323
-0.078469 -0.717253 0.174192
-0.064606 -0.80948 0.226903
-0.028862 -0.66617 0.15744
-0.021992 -0.806468 0.277949
-0.015757 -0.829603 0.26592
-0.044513 -0.264374 0.107644
-0.10123 -0.27532 0.13011
-0.15459 -0.300064 0.073028
-0.140387 -0.348315 0.055457
-0.116405 -0.352903 0.020378
-0.120229 0.195916 -0.141917
-0.162166 0.182279 -0.168866
-0.172513 0.264201 -0.046141
-0.151045 0.198191 -0.065198
-0.116993 0.180477 -0.124154
-0.17221 0.209686 -0.150097
-0.135092 0.15113 -0.170954
-0.144243 0.120685 -0.123294
-0.163849 0.108219 -0.12344
-0.196484 0.080037 -0.162049
-0.179265 0.097183 -0.202453
-0.151375 0.140057 -0.184866
-0.17982 0.043943 -0.153749
-0.186378 0.071285 -0.154371
-0.191258 0.110401 -0.185454
-0.179153 0.047783 -0.215791
-0.149153 0.026916 -0.198763
-0.155285 0.035267 -0.16604
-0.140684 0.052864 -0.184403
-0.159917 0.037557 -0.214296
-0.203906 -0.05306 -0.213103
-0.184752 -0.07838 -0.188975
-0.237637 -0.130731 -0.162532
-0.215023 -0.13302 -0.205548
-0.033863 0.374442 0.014205
-0.01093 0.364659 0.033222
-0.111875 -0.092394 -0.004809
-0.088671 -0.065182 0.012896
-0.038322 -0.138891 0.03495
-0.070539 -0.165702 -0.162132
-0.070948 -0.119806 -0.156142
-0.136057 -0.082345 -0.096879
-0.109722 -0.084989 -0.13055
-0.079451 -0.010266 -0.113402
-0.098491 0.039232 -0.096461
-0.068333 0.071387 -0.120149
-0.039259 0.061641 -0.124434
-0.090295 0.136792 -0.115179
-0.150313 -0.147009 -0.073359
-0.143071 -0.087617 -0.062636
-0.077223 -0.116649 0.021342
-0.010955 -0.060849 0.051089
-0.040274 -0.178245 0.039282
-0.018868 -0.191936 0.030255
-0.145751 -0.205856 -0.070634
-0.114386 -0.230291 -0.105074
-0.08304 -0.206325 -0.144517
-0.08966 -0.267526 -0.089785
-0.075636 -0.349262 -0.001025
-0.011925 -0.312201 0.00665
-0.067015 -0.263538 -0.101833
-0.036611 -0.339913 -0.000585
-0.042925 -0.297085 -0.052366
-0.04509 -0.257252 -0.10455
-0.011394 -0.265245 -0.054042
-0.018181 -0.220129 -0.134836
-0.110515 -0.003162 -0.0272
-0.087552 0.008322 0.008869
-0.024989 0.036564 0.054382
-0.142711 -0.250858 -0.047082
-0.148535 -0.285739 -0.003015
-0.164007 -0.240542 0.014737
-0.152827 -0.213429 0.050042
-0.13592 -0.258355 0.102786
-0.11726 -0.21055 0.08557
-0.06508 -0.212323 0.082822
-0.061515 -0.273238 0.125056
-0.002827 -0.276753 -0.010552
-0.007586 -0.294274 0.045002
-0.033612 -0.213732 0.048971
-0.02536 -0.290059 0.100544
-0.003692 -0.249978 -0.00019
-0.116776 0.073692 -0.059791
-0.113022 0.029307 -0.045265
-0.091444 0.133603 0.067124
-0.067646 0.084401 0.040614
-0.048608 0.081759 0.047168
-0.161851 0.23273 -0.046722
-0.111442 0.185659 -0.113761
-0.042854 0.16871 -0.128662
-0.122383 0.254779 -0.110553
-0.140232 0.268175 -0.123478
-0.07145 0.273713 -0.112799
-0.071922 0.307479 -0.092698
-0.130863 0.168912 -0.066922
-0.101156 0.169361 -0.117434
-0.128438 0.293922 -0.013451
-0.108543 0.192817 0.018873
-0.087102 0.166411 0.058825
-0.05711 0.162818 0.069503
-0.177211 0.275407 -0.074323
-0.133316 0.324892 -0.049934
-0.152732 0.314789 -0.062887
0.006802 0.354189 -0.055467
-0.000142 0.328958 -0.076152
-0.086932 0.32181 -0.040983
-0.062835 0.313704 -0.021812
-0.04547 0.301436 -0.000256
0.001367 -0.395905 -0.0423
0.053637 -0.46996 -0.057022
0.105016 -0.440918 -0.102245
0.083167 -0.456236 -0.154415
0.065563 -0.35711 -0.15273
0.004844 -0.535325 -0.108556
0.027871 -0.444786 -0.047513
0.094355 -0.476385 -0.138988
0.01737 -0.516868 -0.178996
-0.006288 -0.393629 -0.114062
0.020485 -0.581787 -0.115295
0.04024 -0.526194 -0.189729
0.07365 -0.557513 -0.108802
0.089465 -0.530089 -0.125358
-0.011607 -0.577923 -0.164992
-0.001841 -0.604829 -0.142961
-0.004342 -0.527158 -0.161134
0.06579 -0.687822 -0.146098
0.082554 -0.652672 -0.150999
0.090442 -0.63304 -0.177938
0.074118 -0.61572 -0.213649
0.009703 -0.61287 -0.221408
-0.004496 -0.623851 -0.21404
-0.009201 -0.748264 -0.181085
0.046134 -0.600371 -0.113876
0.074288 -0.680743 -0.221651
0.008162 -0.728601 -0.242184
0.01264 -0.661091 -0.237148
-0.013426 -0.681352 -0.21972
-0.004417 -0.839645 -0.182984
0.027682 -0.746433 -0.159459
0.016477 -0.871415 -0.182989
0.040198 -0.815903 -0.185117
0.025992 -0.835058 -0.241724
0.007546 -0.860551 -0.247792
0.000403 -0.825423 -0.245494
-0.017324 -0.799592 -0.210995
-0.012778 -0.796882 -0.229479
0.038295 -0.349783 -0.002776
0.11476 -0.374578 -0.034058
0.139483 -0.333133 -0.051032
0.022605 -0.394706 -0.150792
-0.011973 -0.384732 -0.067294
0.155053 0.159914 -0.049746
0.162075 0.179 -0.05973
0.168826 0.211506 -0.06577
0.20778 0.188778 -0.052867
0.165187 0.231082 0.020435
0.146335 0.186126 -0.001669
0.196251 0.159981 0.011344
0.150677 0.16837 -0.002855
0.223439 0.102546 -0.007581
0.192681 0.086618 -0.054004
0.181569 0.110411 0.012297
0.168361 0.056495 -0.022866
0.216217 0.028356 -0.02963
0.194783 0.020599 -0.02944
0.181017 0.013648 -0.011125
0.177575 0.036233 0.010595
0.196177 0.053297 0.022789
0.194067 -0.00477 -0.003713
0.219238 -0.004841 -0.003956
0.192684 -0.014481 0.063333
0.250187 -0.102517 0.113889
0.2208 -0.109021 0.115876
0.219748 -0.083968 0.139883
0.207414 -0.073545 0.109545
0.137241 -0.103428 -0.01721
0.077857 -0.122229 -0.156492
0.113067 -0.123341 -0.138752
0.047547 -0.131451 -0.163552
0.135088 -0.080625 -0.093176
0.111751 -0.08718 -0.128902
0.071631 -0.039909 -0.123868
0.087349 0.017076 -0.106262
0.06177 3.6e-05 -0.117498
0.00042 -0.011331 -0.125856
0.093135 0.130605 -0.115531
0.052328 0.08302 -0.122165
0.130439 0.11586 0.025543
0.145794 -0.096113 -0.053218
0.139418 -0.174306 -0.001123
0.105802 -0.098138 0.014828
0.048849 -0.173853 0.031798
0.007166 -0.157421 0.039316
0.156314 -0.192659 -0.04133
0.118457 -0.165509 -0.134427
0.083806 -0.167492 -0.159012
0.048646 -0.172418 -0.165952
0.004709 -0.192017 -0.151957
0.109924 -0.321722 -0.129291
0.118176 -0.231438 -0.125828
0.074366 -0.290575 -0.141553
0.021161 -0.2816 -0.111473
0.003679 -0.255399 -0.077748
0.032151 -0.232032 -0.13081
-0.00929 -0.24494 -0.096139
0.114205 -0.017392 -0.076741
0.117347 0.017629 -0.043332
0.116499 -0.018834 -0.038446
0.046416 -0.002937 0.045244
0.073104 -0.062112 0.029094
0.143547 -0.198628 -0.096674
0.130916 -0.255002 -0.112183
0.132342 -0.338055 -0.09807
0.150558 -0.260879 -0.081324
0.154965 -0.261964 -0.047104
0.14053 -0.253827 -0.002168
0.124521 -0.320775 -0.009546
0.093904 -0.263209 0.025697
0.119518 -0.276889 0.012736
-0.002586 -0.297137 -0.038534
0.002403 -0.252861 -0.016696
-0.001276 -0.232207 -0.006605
0.144316 0.131354 -0.009225
0.131646 0.090682 -0.053797
0.123479 0.08319 -0.004841
0.089079 0.020745 0.013996
0.091619 0.080684 0.035824
0.18723 0.299514 -0.008841
0.169028 0.296981 0.013722
0.129509 0.303947 0.006935
0.130581 0.263328 0.016669
0.088153 0.271316 -0.103239
0.172067 0.247983 -0.067688
0.170326 0.295748 -0.067224
0.096326 0.140966 0.0761
0.060841 0.16418 0.07459
0.088477 0.220689 0.034737
0.15116 0.161715 -0.059405
0.153161 0.219383 -0.014027
0.137778 0.217113 0.010386
0.142234 0.189996 0.004628
0.121881 0.145948 0.05271
0.094093 0.165858 0.068776
0.003531 0.207559 0.037214
0.194195 0.284841 -0.035099
0.146613 0.330444 -0.011508
0.148586 0.334495 -0.045414
0.033785 0.369955 -0.037529
0.053464 0.340096 -0.050563
0.082666 0.332495 -0.048025
0.07959 0.328341 -0.025636
0.06238 0.337427 -0.016244
0.075752 0.306624 -0.001055
0.003717 0.291807 0.021078
-0.066732 0.470877 -0.003612
-0.033074 0.548057 -0.00094
-0.030779 0.54796 0.031046
-0.031217 0.538244 -0.032809
-0.058542 0.523349 -0.010528
-0.051256 0.521144 0.064294
-0.001502 0.515749 0.092102
0.006374 0.470899 -0.074002
0.002731 0.381066 -0.047369
-0.036163 0.466403 -0.064384
-0.025063 0.443819 -0.06619
-0.025929 0.384568 -0.036784
-0.058549 0.472472 -0.038007
-0.038609 0.423022 -0.04719
-0.047992 0.420934 0.078283
-0.013371 0.35777 0.086682
-0.023607 0.450357 0.085568
-0.059154 0.450293 0.062037
-0.040743 0.509311 -0.054924
-0.01152 0.541462 0.066176
-0.048268 0.380407 0.034309
-0.015476 0.465739 0.100694
-0.064545 0.508222 0.017963
-0.037292 0.380692 -0.013608
-0.061054 0.434822 0.001103
0.069187 0.460523 0.005997
0.028924 0.53978 0.058038
0.036583 0.546667 0.003581
0.040228 0.537071 -0.026034
0.060124 0.52444 -0.005299
0.046724 0.526343 0.05501
0.065892 0.507324 0.01608
0.037349 0.469644 0.090981
0.04454 0.377953 -0.009297
0.039341 0.512703 -0.054211
0.007089 0.441602 -0.072729
0.03838 0.456247 -0.064847
0.039339 0.396756 -0.035534
0.023965 0.397106 0.091541
0.011062 0.356683 0.079512
0.054322 0.443804 0.068204
0.064182 0.497952 -0.03338
0.011947 0.451343 0.085815
0.050542 0.38646 0.040397
-0.00932 0.418816 0.103561
0.058668 0.457563 -0.043959
0.059205 0.426152 0.010337
0.003816 0.555879 0.024261
0.011646 0.554442 -0.004311
0.010714 0.544297 -0.031739
-0.002158 0.513097 -0.063256
0.269444 -0.111659 0.185929
0.263997 -0.161822 0.143675
0.272611 -0.139959 0.163823
0.259337 -0.118434 0.135969
0.248799 -0.133654 0.11806
0.233216 -0.142195 0.129155
0.245146 -0.134679 0.166973
0.23261 -0.11863 0.18345
0.217534 -0.108984 0.140656
0.247824 -0.17869 0.174431
0.248947 -0.188623 0.194124
0.264698 -0.16743 0.197322
0.275742 -0.162251 0.196594
0.281898 -0.150185 0.217728
0.268959 -0.166884 0.231228
0.25268 -0.180198 0.225196
0.27321 -0.156833 0.202684
0.25955 -0.163016 0.209377
0.265575 -0.171425 0.187912
0.250521 -0.173687 0.193287
0.220277 -0.101463 0.182096
0.230993 -0.085004 0.175025
0.243247 -0.099766 0.18778
0.275308 -0.12707 0.178303
0.277414 -0.153901 0.211094
0.262452 -0.121079 0.201443
0.271012 -0.151017 0.213612
0.253224 -0.158077 0.155101
0.254553 -0.176599 0.211197
0.262502 -0.136355 0.191708
0.261294 -0.149006 0.176351
0.265813 -0.17273 0.162087
0.263927 -0.151552 0.154077
-0.230974 -0.212113 -0.212142
-0.255861 -0.173424 -0.158526
-0.231052 -0.217844 -0.220492
-0.224302 -0.184907 -0.152106
-0.256029 -0.1961 -0.197537
-0.247215 -0.162481 -0.201638
-0.208274 -0.146527 -0.193059
-0.236274 -0.192597 -0.178808
-0.217085 -0.172035 -0.169829
-0.225628 -0.250917 -0.19834
-0.242271 -0.191545 -0.218276
-0.233625 -0.253735 -0.18209
-0.260017 -0.255014 -0.161835
-0.269247 -0.239494 -0.168217
-0.233977 -0.262441 -0.173382
-0.257123 -0.23262 -0.180717
-0.243249 -0.240237 -0.175834
-0.236921 -0.23882 -0.191121
-0.228327 -0.236348 -0.192254
-0.229081 -0.230648 -0.202303
-0.216 -0.140319 -0.163554
-0.229234 -0.164752 -0.140541
-0.239576 -0.188471 -0.149958
-0.241579 -0.222606 -0.133003
-0.24543 -0.208325 -0.20631
-0.252969 -0.23645 -0.19037
-0.264493 -0.197829 -0.182191
-0.264274 -0.195413 -0.172699
-0.25795 -0.203366 -0.155235
-0.25893 -0.241417 -0.17304
-0.223913 -0.185119 -0.216207
-0.246403 -0.211226 -0.187274
-0.239121 -0.204934 -0.199999
-0.240108 -0.215744 -0.217792
0.005973 -0.934178 -0.16229
-0.018971 -0.928423 -0.174543
-0.024091 -0.917602 -0.17411
-0.031243 -0.930493 -0.133948
-0.027001 -0.911043 -0.143784
-0.021578 -0.879144 -0.18706
-0.031624 -0.923255 -0.100401
-0.03132 -0.934979 -0.093904
-0.023693 -0.93048 -0.071272
-0.018999 -0.914629 -0.072676
-0.019596 -0.906775 -0.116679
-0.006092 -0.882877 -0.152785
-0.008405 -0.928175 -0.057628
-0.00312 -0.917521 -0.05978
0.02092 -0.936064 -0.079058
0.030328 -0.928802 -0.070234
0.047749 -0.926117 -0.101668
0.003118 -0.912585 -0.090246
0.014008 -0.889953 -0.149338
0.048283 -0.936895 -0.100406
0.03068 -0.905697 -0.126662
0.04106 -0.932923 -0.136081
0.041758 -0.926501 -0.145901
0.032122 -0.903804 -0.155808
0.034262 -0.931458 -0.187889
0.029323 -0.884827 -0.207012
0.031548 -0.936132 -0.223795
0.036936 -0.919845 -0.213687
0.022049 -0.913464 -0.259819
0.016868 -0.885037 -0.246949
0.019492 -0.93834 -0.251968
0.002656 -0.925057 -0.269737
0.003912 -0.885069 -0.26101
-0.020102 -0.918913 -0.25153
-0.005052 -0.883978 -0.248664
-0.014819 -0.937127 -0.243886
-0.024114 -0.917182 -0.221552
-0.024514 -0.873133 -0.213712
-0.04406 -0.905128 0.321594
-0.020615 -0.90069 0.31091
-0.014065 -0.88707 0.311139
-0.015553 -0.837633 0.285731
-0.006185 -0.903358 0.349249
-0.010261 -0.884007 0.340018
-0.019042 -0.84781 0.306195
-0.004597 -0.908848 0.383075
-0.004752 -0.898432 0.383144
-0.012303 -0.906625 0.412096
-0.016625 -0.891246 0.411237
-0.016893 -0.881269 0.367762
-0.027213 -0.858473 0.337522
-0.040245 -0.912562 0.408583
-0.028823 -0.903649 0.426877
-0.065684 -0.90515 0.414221
-0.03206 -0.895224 0.423434
-0.037503 -0.886769 0.390909
-0.08105 -0.900065 0.402665
-0.050592 -0.861601 0.336721
-0.08567 -0.910537 0.387569
-0.072491 -0.887914 0.371066
-0.078546 -0.90475 0.348746
-0.07919 -0.897851 0.339154
-0.070919 -0.877193 0.335071
-0.06209 -0.861304 0.323201
-0.073041 -0.900107 0.297658
-0.074401 -0.882899 0.297372
-0.065318 -0.904876 0.250387
-0.070426 -0.878763 0.260729
-0.061915 -0.883009 0.227967
-0.055118 -0.853185 0.242779
-0.041772 -0.898736 0.22512
-0.042293 -0.868582 0.223128
-0.01854 -0.890808 0.237961
-0.028769 -0.857871 0.248639
-0.022703 -0.901828 0.265002
-0.016548 -0.868 0.272909
-0.057034 -0.838523 0.303124
-0.068353 -0.853566 0.285164
-0.071863 -0.826878 0.250405
-0.039191 -0.836615 0.234139
-0.037428 -0.353858 0.153826
-0.150035 -0.285791 0.089916
-0.152886 -0.314366 0.054936
-0.118503 -0.408343 0.078279
-0.018432 -0.41661 0.068082
-0.003657 -0.380876 0.081853
-0.012488 -0.327188 0.100033
-0.074104 -0.333552 0.156973
-0.114558 -0.302422 0.135135
-0.12232 -0.398507 0.143241
-0.12299 -0.419055 0.128584
-0.084346 -0.466096 0.092634
-0.099394 -0.421419 0.181179
-0.105331 -0.469423 0.112715
-0.052224 -0.442241 0.070503
-0.052419 -0.465622 0.204871
-0.07313 -0.471447 0.212577
-0.112516 -0.513628 0.194132
-0.091061 -0.530058 0.129421
-0.043359 -0.515124 0.122262
-0.02481 -0.504542 0.130516
-0.016205 -0.520767 0.166748
-0.023764 -0.52795 0.193184
-0.085042 -0.517763 0.22185
-0.115856 -0.503692 0.170517
-0.118235 -0.606063 0.178864
-0.104468 -0.616449 0.1497
-0.082654 -0.61613 0.135023
-0.070727 -0.597893 0.234652
-0.090118 -0.608 0.235449
-0.108501 -0.666619 0.22522
-0.114221 -0.655972 0.189173
-0.080012 -0.661701 0.147276
-0.053195 -0.660114 0.143796
-0.017677 -0.649092 0.163166
-0.009335 -0.654575 0.195703
-0.01907 -0.765216 0.245488
-0.071067 -0.729994 0.262741
-0.081945 -0.271197 0.129356
-0.096354 -0.347949 0.003196
-0.055406 -0.343608 -0.004989
-0.021822 -0.326042 -0.000258
-0.007641 -0.300088 0.015797
-0.144791 0.194058 -0.161217
-0.144505 0.176866 -0.081529
-0.131544 0.127222 -0.132137
-0.182481 0.228251 -0.126748
-0.191498 0.205275 -0.11077
-0.180083 0.197656 -0.08206
-0.120594 0.174749 -0.107373
-0.112133 0.235204 -0.122022
-0.125697 0.256696 -0.126679
-0.179676 0.144875 -0.111205
-0.12868 0.115686 -0.160361
-0.167293 0.071681 -0.149154
-0.156266 0.086331 -0.209442
-0.137285 0.079419 -0.193655
-0.145465 0.070589 -0.159688
-0.201594 0.028592 -0.209895
-0.194683 -0.02819 -0.153572
-0.214542 -0.025458 -0.152212
-0.228576 -0.01811 -0.176375
-0.215556 0.021057 -0.19501
-0.177759 -0.032179 -0.166071
-0.218266 -0.108186 -0.160981
-0.22582 -0.018995 -0.162689
-0.248362 -0.141731 -0.180789
-0.186905 -0.05884 -0.20876
-0.206795 -0.129387 -0.175762
-0.23816 -0.13014 -0.202841
-0.034748 0.345461 -0.044622
-0.11254 0.136903 -0.094477
-0.127774 0.162866 -0.005877
-0.114756 0.144489 0.040707
-0.0573 0.136326 0.075058
-0.133349 -0.084294 -0.031993
-0.051231 -0.042291 0.041647
-0.098942 0.059675 -0.000101
-0.130813 -0.171887 -0.113542
-0.103607 -0.162017 -0.146768
-0.037892 -0.168966 -0.16464
-0.130313 -0.107779 -0.11761
-0.054879 -0.051502 -0.13372
-0.102924 -0.007116 -0.096887
-0.05922 -0.002641 -0.12002
-0.113466 -0.002614 -0.068581
-0.147727 -0.143722 -0.016145
-0.121475 -0.139685 0.015591
-0.07936 -0.145718 0.03327
-0.162245 -0.222715 0.029307
-0.137584 -0.205261 0.066066
-0.090368 -0.180256 0.063409
-0.156913 -0.214158 -0.035968
-0.078815 -0.234483 -0.129143
-0.047887 -0.226149 -0.139223
-0.133458 -0.325696 0.012869
-0.08531 -0.305735 -0.046356
-0.060385 -0.304367 -0.050598
-0.027554 -0.277616 -0.062519
-0.159298 -0.259985 0.00049
-0.092675 -0.218881 0.096525
-0.020038 -0.238198 0.037837
-0.124728 0.123091 -0.017568
-0.1064 0.10296 0.017693
-0.135923 0.246392 -0.010356
-0.089171 0.27869 -0.004502
-0.091228 0.223178 -0.120049
-0.118684 0.282096 -0.104265
-0.157773 0.296614 -0.092062
-0.122038 0.321066 -0.077776
-0.071652 0.325114 -0.067026
-0.037527 0.183822 0.052976
-0.05786 0.227476 0.025774
-0.053733 0.331202 -0.02677
0.002975 -0.870416 -0.177834
0.028541 -0.903178 -0.228028
-0.018149 -0.86412 -0.23272
0.065894 -0.366669 -0.005128
0.097633 -0.353234 -0.005455
0.140154 -0.331671 -0.074343
0.092075 -0.320574 -0.140018
0.053922 -0.29356 -0.140082
-0.007453 -0.391183 -0.05284
0.079393 -0.448805 -0.055648
0.10096 -0.43962 -0.076491
0.103383 -0.430636 -0.127898
0.059444 -0.475562 -0.17192
0.034304 -0.476079 -0.173182
-0.011896 -0.391266 -0.088066
-0.006882 -0.531538 -0.127503
0.012762 -0.424209 -0.045723
0.043738 -0.447959 -0.045318
0.068715 -0.505107 -0.079866
0.091362 -0.480666 -0.093463
0.006432 -0.392498 -0.13618
0.034191 -0.593781 -0.113964
0.058107 -0.585931 -0.109687
0.08873 -0.537114 -0.157004
-0.009762 -0.504189 -0.136046
0.084183 -0.623175 -0.201002
0.004721 -0.52654 -0.173634
0.013173 -0.647923 -0.140129
0.060141 -0.605179 -0.221071
0.034891 -0.603249 -0.226337
-0.017677 -0.680748 -0.180318
0.013638 -0.73507 -0.161384
0.074605 -0.709475 -0.167384
0.084651 -0.683007 -0.19309
0.050344 -0.705777 -0.146151
0.070851 -0.736653 -0.20426
0.043484 -0.817194 -0.225388
0.053903 -0.681092 -0.238471
-0.02025 -0.678259 -0.197126
-0.01747 -0.820532 -0.204195
0.001254 -0.794525 -0.178442
0.028072 -0.801279 -0.172526
0.045276 -0.823018 -0.20308
0.000256 -0.319168 -0.022104
0.07984 -0.315516 0.014807
0.137197 -0.31904 -0.02816
0.118889 -0.349678 -0.119154
0.167943 0.161493 0.010903
0.150103 0.139313 -0.025217
0.19051 0.154636 -0.062113
0.213671 0.20146 -0.039571
0.212531 0.226409 -0.018235
0.148374 0.212471 0.012479
0.205175 0.106665 0.010985
0.226881 0.083883 -0.028781
0.214619 0.098135 -0.046486
0.168157 0.086112 -0.041974
0.19339 0.071921 0.011892
0.221576 0.072496 0.005977
0.228085 0.057003 -0.029111
0.202664 0.051682 -0.04813
0.175423 0.05141 -0.038547
0.170478 0.070408 -0.004384
0.233985 0.009812 0.073226
0.234452 0.003659 0.004434
0.21985 0.013043 0.072797
0.242199 0.01718 0.017165
0.20712 -0.008221 -0.005076
0.187997 -0.019912 0.033266
0.205183 -0.000333 0.075675
0.235157 -0.073885 0.140333
0.250197 -0.089963 0.140066
0.232386 -0.10992 0.110128
0.034393 0.373425 0.025906
0.106077 0.112728 0.060147
0.068007 0.127582 0.081017
0.02681 -0.062561 0.049669
0.143314 -0.12668 -0.093863
0.040697 -0.06377 -0.136854
0.09215 -0.017213 -0.106782
0.106811 0.019379 -0.084898
0.113126 0.120564 -0.102309
0.134551 0.130132 -0.080545
0.087635 0.179802 -0.119379
0.042012 0.140967 -0.123373
0.154214 -0.184084 -0.065144
0.15219 -0.196967 -0.018977
0.126436 -0.202749 0.014741
0.077334 -0.128159 0.028837
0.100444 -0.211745 0.026922
0.098008 -0.247033 -0.13554
0.066281 -0.237219 -0.142401
0.033972 -0.252334 -0.12402
0.062032 0.081463 0.049048
0.110983 -0.038137 -0.012834
0.150385 -0.262616 -0.023489
0.049326 -0.27393 0.021753
0.013988 -0.246443 0.006675
0.128864 0.17134 -0.103206
0.119792 0.239251 -0.104015
0.013636 0.212531 -0.114205
0.149004 0.264804 -0.084393
0.138515 0.276046 -0.090492
0.057478 0.310903 -0.082766
0.119306 0.319884 -0.072829
0.14286 0.169549 0.004779
0.1452 0.240396 0.01479
0.115276 0.208206 0.03088
0.047522 0.221782 0.03713
0.1739 0.324032 -0.025182
0.05072 0.320628 0.008393
0.008067 0.341954 0.03398
-0.0007 -0.160141 -0.163805
-0.020574 -0.134865 -0.162493
0.009752 -0.235776 -0.113731
-0.002365 -0.256274 -0.036528
0.031264 0.084249 0.053447
0.002269 0.149566 0.061931
3 355 315 359 204 61 61
3 359 315 330 204 61 61
3 330 315 171 204 61 61
3 171 315 316 40 176 204
3 316 315 319 40 176 204
3 319 315 355 204 61 61
3 319 355 707 204 61 61
3 707 355 368 204 61 61
3 368 355 359 204 61 61
3 368 359 367 204 61 61
3 367 359 358 204 61 61
3 358 359 357 204 61 61
3 357 359 330 204 61 61
3 357 330 333 204 61 61
3 333 330 590 204 61 61
3 590 330 171 204 61 61
3 590 171 172 40 176 204
3 172 171 316 40 176 204
3 172 316 737 40 176 204
3 737 316 317 40 176 204
3 317 316 318 40 176 204
3 318 316 319 40 176 204
3 318 319 320 40 176 204
3 320 319 744 40 176 204
3 744 319 707 204 61 61
3 744 707 745 204 61 61
3 745 707 103 204 61 61
3 103 707 361 204 61 61
3 361 707 365 204 61 61
3 365 707 368 204 61 61
3 365 368 362 204 61 61
3 362 368 347 204 61 61
3 347 368 367 204 61 61
3 347 367 363 204 61 61
3 363 367 356 204 61 61
3 356 367 358 204 61 61
3 356 358 329 204 61 61
3 329 358 357 204 61 61
3 329 357 332 204 61 61
3 332 357 333 204 61 61
3 332 333 335 204 61 61
3 335 333 345 204 61 61
3 345 333 590 204 61 61
3 345 590 633 204 61 61
3 633 590 630 40 176 204
3 630 590 172 40 176 204
3 630 172 161 40 176 204
3 161 172 12 40 176 204
3 12 172 737 40 176 204
3 12 737 299 40 176 204
3 299 737 738 40 176 204
3 738 737 317 40 176 204
3 738 317 314 40 176 204
3 314 317 313 40 176 204
3 313 317 318 40 176 204
3 313 318 297 40 176 204
3 297 318 320 40 176 204
3 297 320 304 40 176 204
3 304 320 321 40 176 204
3 321 320 744 40 176 204
3 321 744 745 40 176 204
3 321 745 175 40 176 204
3 175 745 103 204 61 61
3 175 103 102 204 61 61
3 102 103 342 204 61 61
3 342 103 337 204 61 61
3 337 103 361 204 61 61
3 337 361 360 204 61 61
3 360 361 365 204 61 61
3 360 365 362 204 61 61
3 360 362 364 204 61 61
3 364 362 354 204 61 61
3 354 362 352 204 61 61
3 352 362 353 204 61 61
3 353 362 347 204 61 61
3 353 347 363 204 61 61
3 353 363 351 204 61 61
3 351 363 350 204 61 61
3 350 363 356 204 61 61
3 350 356 371 204 61 61
3 371 356 372 204 61 61
3 372 356 329 204 61 61
3 372 329 331 204 61 61
3 331 329 332 204 61 61
3 331 332 335 204 61 61
3 331 335 334 204 61 61
3 334 335 345 204 61 61
3 334 345 346 204 61 61
3 346 345 102 204 61 61
3 102 345 633 204 61 61
3 102 633 175 204 61 61
3 175 633 174 40 176 204
3 174 633 173 40 176 204
3 173 633 630 40 176 204
3 173 630 169 40 176 204
3 169 630 629 40 176 204
3 629 630 161 40 176 204
3 629 161 628 40 176 204
3 628 161 627 40 176 204
3 627 161 160 40 176 204
3 160 161 12 40 176 204
3 160 12 734 40 176 204
3 734 12 299 40 176 204
3 734 299 717 40 176 204
3 717 299 733 40 176 204
3 733 299 736 40 176 204
3 736 299 738 40 176 204
3 736 738 301 40 176 204
3 301 738 314 40 176 204
3 301 314 743 40 176 204
3 743 314 313 40 176 204
3 743 313 296 40 176 204
3 296 313 297 40 176 204
3 296 297 298 40 176 204
3 298 297 304 40 176 204
3 298 304 741 40 176 204
3 741 304 310 40 176 204
3 310 304 303 40 176 204
3 303 304 742 40 176 204
3 742 304 321 40 176 204
3 742 321 311 40 176 204
3 311 321 632 40 176 204
3 632 321 175 40 176 204
3 632 175 625 40 176 204
3 625 175 174 40 176 204
3 625 174 173 40 176 204
3 625 173 164 40 176 204
3 164 173 169 40 176 204
3 164 169 11 40 176 204
3 11 169 170 40 176 204
3 170 169 629 40 176 204
3 170 629 628 40 176 204
3 170 628 168 40 176 204
3 168 628 566 242 221 72
3 566 628 159 242 221 72
3 159 628 627 242 221 72
3 159 627 571 242 221 72
3 571 627 158 40 176 204
3 158 627 160 40 176 204
3 158 160 626 40 176 204
3 626 160 157 40 176 204
3 157 160 734 40 176 204
3 157 734 718 40 176 204
3 718 734 717 40 176 204
3 718 717 253 40 176 204
3 253 717 732 40 176 204
3 732 717 733 40 176 204
3 732 733 28 40 176 204
3 28 733 735 40 176 204
3 735 733 736 40 176 204
3 735 736 301 40 176 204
3 735 301 300 40 176 204
3 300 301 222 242 221 72
3 222 301 312 242 221 72
3 312 301 743 242 221 72
3 312 743 295 242 221 72
3 295 743 296 40 176 204
3 295 296 20 242 221 72
3 20 296 223 242 221 72
3 223 296 298 40 176 204
3 223 298 29 40 176 204
3 29 298 741 40 176 204
3 29 741 307 40 176 204
3 307 741 308 40 176 204
3 308 741 309 40 176 204
3 309 741 310 40 176 204
3 309 310 302 40 176 204
3 302 310 303 40 176 204
3 302 303 709 40 176 204
3 709 303 751 40 176 204
3 751 303 742 40 176 204
3 751 742 311 40 176 204
3 751 311 631 40 176 204
3 631 311 632 40 176 204
3 631 632 166 40 176 204
3 166 632 165 40 176 204
3 165 632 624 40 176 204
3 624 632 164 40 176 204
3 164 632 625 40 176 204
3 624 164 11 40 176 204
3 624 11 155 40 176 204
3 155 11 80 40 176 204
3 80 11 168 40 176 204
3 168 11 170 40 176 204
3 80 168 567 242 221 72
3 567 168 566 242 221 72
3 567 566 92 242 221 72
3 92 566 83 242 221 72
3 83 566 159 242 221 72
3 83 159 79 242 221 72
3 79 159 563 242 221 72
3 563 159 571 242 221 72
3 563 571 570 242 221 72
3 570 571 158 40 176 204
3 570 158 626 40 176 204
3 570 626 156 40 176 204
3 156 626 163 40 176 204
3 163 626 157 40 176 204
3 163 157 115 40 176 204
3 115 157 113 40 176 204
3 113 157 114 40 176 204
3 114 157 254 40 176 204
3 254 157 718 40 176 204
3 254 718 253 40 176 204
3 254 253 251 40 176 204
3 251 253 250 40 176 204
3 250 253 715 40 176 204
3 715 253 732 40 176 204
3 715 732 716 40 176 204
3 716 732 28 40 176 204
3 716 28 305 40 176 204
3 305 28 31 40 176 204
3 31 28 30 40 176 204
3 30 28 735 40 176 204
3 30 735 300 40 176 204
3 30 300 221 242 221 72
3 221 300 683 242 221 72
3 683 300 222 242 221 72
3 683 222 689 242 221 72
3 689 222 688 242 221 72
3 688 222 684 242 221 72
3 684 222 312 242 221 72
3 684 312 685 242 221 72
3 685 312 295 242 221 72
3 685 295 20 242 221 72
3 685 20 225 242 221 72
3 225 20 223 242 221 72
3 225 223 681 242 221 72
3 681 223 686 242 221 72
3 686 223 740 242 221 72
3 740 223 29 40 176 204
3 740 29 307 40 176 204
3 740 307 306 40 176 204
3 306 307 308 40 176 204
3 306 308 31 40 176 204
3 31 308 739 40 176 204
3 739 308 309 40 176 204
3 739 309 255 40 176 204
3 255 309 708 40 176 204
3 708 309 302 40 176 204
3 708 302 709 40 176 204
3 708 709 727 40 176 204
3 727 709 750 40 176 204
3 750 709 27 40 176 204
3 27 709 751 40 176 204
3 27 751 594 40 176 204
3 594 751 167 40 176 204
3 167 751 631 40 176 204
3 167 631 166 40 176 204
3 167 166 152 40 176 204
3 152 166 593 40 176 204
3 593 166 165 40 176 204
3 593 165 592 40 176 204
3 592 165 14 40 176 204
3 14 165 624 40 176 204
3 14 624 13 40 176 204
3 13 624 155 40 176 204
3 13 155 14 40 176 204
3 14 155 81 40 176 204
3 81 155 572 242 221 72
3 572 155 568 242 221 72
3 568 155 80 242 221 72
3 568 80 567 242 221 72
3 568 567 572 242 221 72
3 572 567 87 242 221 72
3 87 567 6 242 221 72
3 6 567 92 242 221 72
3 6 92 582 242 221 72
3 582 92 578 242 221 72
3 578 92 88 242 221 72
3 88 92 83 242 221 72
3 88 83 79 242 221 72
3 88 79 89 242 221 72
3 89 79 563 242 221 72
3 89 563 84 242 221 72
3 84 563 78 242 221 72
3 78 563 570 242 221 72
3 78 570 156 242 221 72
3 78 156 82 242 221 72
3 82 156 569 242 221 72
3 569 156 163 40 176 204
3 569 163 564 242 221 72
3 564 163 162 40 176 204
3 162 163 591 40 176 204
3 591 163 115 40 176 204
3 591 115 112 40 176 204
3 112 115 113 40 176 204
3 112 113 111 40 176 204
3 111 113 604 40 176 204
3 604 113 114 40 176 204
3 604 114 252 40 176 204
3 252 114 254 40 176 204
3 252 254 251 40 176 204
3 252 251 249 40 176 204
3 249 251 713 40 176 204
3 713 251 250 40 176 204
3 713 250 714 40 176 204
3 714 250 715 40 176 204
3 714 715 716 40 176 204
3 714 716 291 40 176 204
3 291 716 305 40 176 204
3 291 305 290 40 176 204
3 290 305 739 40 176 204
3 739 305 31 40 176 204
3 290 739 255 40 176 204
3 290 255 292 40 176 204
3 292 255 294 40 176 204
3 294 255 708 40 176 204
3 294 708 727 40 176 204
3 294 727 293 40 176 204
3 293 727 276 40 176 204
3 276 727 750 40 176 204
3 276 750 24 40 176 204
3 24 750 136 40 176 204
3 136 750 154 40 176 204
3 154 750 27 40 176 204
3 154 27 594 40 176 204
3 154 594 153 40 176 204
3 153 594 152 40 176 204
3 152 594 167 40 176 204
3 153 152 623 40 176 204
3 623 152 593 40 176 204
3 623 593 622 40 176 204
3 622 593 592 40 176 204
3 622 592 14 40 176 204
3 622 14 162 40 176 204
3 162 14 81 40 176 204
3 162 81 564 40 176 204
3 564 81 572 242 221 72
3 564 572 86 242 221 72
3 86 572 91 242 221 72
3 91 572 87 242 221 72
3 91 87 585 242 221 72
3 585 87 6 127 20 204
3 585 6 581 127 20 204
3 581 6 582 127 20 204
3 581 582 586 127 20 204
3 586 582 589 127 20 204
3 589 582 578 127 20 204
3 589 578 98 127 20 204
3 98 578 93 127 20 204
3 93 578 88 242 221 72
3 93 88 575 242 221 72
3 575 88 89 242 221 72
3 575 89 576 242 221 72
3 576 89 84 242 221 72
3 576 84 573 242 221 72
3 573 84 78 242 221 72
3 573 78 82 242 221 72
3 573 82 565 242 221 72
3 565 82 569 242 221 72
3 565 569 85 242 221 72
3 85 569 564 242 221 72
3 85 564 86 242 221 72
3 85 86 574 242 221 72
3 574 86 91 242 221 72
3 574 91 90 242 221 72
3 90 91 580 242 221 72
3 580 91 585 127 20 204
3 580 585 100 127 20 204
3 100 585 586 127 20 204
3 586 585 581 127 20 204
3 100 586 407 48 242 105
3 407 586 433 48 242 105
3 433 586 432 48 242 105
3 432 586 410 48 242 105
3 410 586 411 48 242 105
3 411 586 589 127 20 204
3 411 589 416 48 242 105
3 416 589 101 48 242 105
3 101 589 98 127 20 204
3 101 98 587 127 20 204
3 587 98 97 127 20 204
3 97 98 93 127 20 204
3 97 93 575 242 221 72
3 97 575 576 242 221 72
3 97 576 94 242 221 72
3 94 576 96 242 221 72
3 96 576 573 242 221 72
3 96 573 577 242 221 72
3 577 573 565 242 221 72
3 577 565 85 242 221 72
3 577 85 574 242 221 72
3 577 574 95 242 221 72
3 95 574 90 242 221 72
3 95 90 579 127 20 204
3 579 90 580 127 20 204
3 579 580 584 127 20 204
3 584 580 100 127 20 204
3 584 100 426 127 20 204
3 426 100 427 48 242 105
3 427 100 407 48 242 105
3 427 407 428 48 242 105
3 428 407 434 48 242 105
3 434 407 433 48 242 105
3 434 433 419 48 242 105
3 419 433 435 48 242 105
3 435 433 413 48 242 105
3 413 433 432 48 242 105
3 413 432 437 48 242 105
3 437 432 421 48 242 105
3 421 432 431 48 242 105
3 431 432 410 48 242 105
3 431 410 437 48 242 105
3 437 410 438 48 242 105
3 438 410 423 48 242 105
3 423 410 415 48 242 105
3 415 410 430 48 242 105
3 430 410 416 48 242 105
3 416 410 411 48 242 105
3 430 416 438 48 242 105
3 438 416 439 48 242 105
3 439 416 408 48 242 105
3 408 416 436 48 242 105
3 436 416 101 48 242 105
3 436 101 412 48 242 105
3 412 101 587 127 20 204
3 412 587 99 127 20 204
3 99 587 94 127 20 204
3 94 587 97 127 20 204
3 99 94 96 127 20 204
3 99 96 95 242 221 72
3 95 96 577 242 221 72
3 99 95 583 127 20 204
3 583 95 579 127 20 204
3 583 579 584 127 20 204
3 583 584 588 127 20 204
3 588 584 426 127 20 204
3 588 426 414 48 242 105
3 414 426 409 48 242 105
3 409 426 427 48 242 105
3 409 427 429 48 242 105
3 429 427 428 48 242 105
3 429 428 409 48 242 105
3 409 428 434 48 242 105
3 409 434 413 48 242 105
3 413 434 435 48 242 105
3 435 434 418 48 242 105
3 418 434 419 48 242 105
3 418 419 435 48 242 105
3 409 413 414 48 242 105
3 414 413 436 48 242 105
3 436 413 438 48 242 105
3 438 413 437 48 242 105
3 436 438 406 48 242 105
3 406 438 439 48 242 105
3 406 439 408 48 242 105
3 406 408 436 48 242 105
3 414 436 412 48 242 105
3 414 412 588 127 20 204
3 588 412 99 127 20 204
3 588 99 583 127 20 204
3 430 438 425 48 242 105
3 425 438 424 48 242 105
3 424 438 423 48 242 105
3 424 423 415 48 242 105
3 424 415 425 48 242 105
3 425 415 430 48 242 105
3 431 437 417 48 242 105
3 417 437 422 48 242 105
3 422 437 421 48 242 105
3 422 421 420 48 242 105
3 420 421 431 48 242 105
3 420 431 417 48 242 105
3 420 417 422 48 242 105
3 622 162 150 40 176 204
3 150 162 591 40 176 204
3 150 591 112 40 176 204
3 150 112 605 40 176 204
3 605 112 603 40 176 204
3 603 112 111 40 176 204
3 603 111 110 40 176 204
3 110 111 108 40 176 204
3 108 111 602 40 176 204
3 602 111 604 40 176 204
3 602 604 252 40 176 204
3 602 252 712 40 176 204
3 712 252 249 40 176 204
3 712 249 244 40 176 204
3 244 249 248 40 176 204
3 248 249 713 40 176 204
3 248 713 247 40 176 204
3 247 713 273 40 176 204
3 273 713 714 40 176 204
3 273 714 274 40 176 204
3 274 714 291 40 176 204
3 274 291 292 40 176 204
3 292 291 290 40 176 204
3 274 292 293 40 176 204
3 293 292 294 40 176 204
3 274 293 275 40 176 204
3 275 293 728 40 176 204
3 728 293 277 40 176 204
3 277 293 276 40 176 204
3 277 276 710 40 176 204
3 710 276 24 40 176 204
3 710 24 136 40 176 204
3 710 136 119 40 176 204
3 119 136 596 40 176 204
3 596 136 154 40 176 204
3 596 154 135 40 176 204
3 135 154 153 40 176 204
3 135 153 597 40 176 204
3 597 153 623 40 176 204
3 597 623 622 40 176 204
3 597 622 151 40 176 204
3 151 622 150 40 176 204
3 151 150 605 40 176 204
3 151 605 134 40 176 204
3 134 605 117 40 176 204
3 117 605 109 40 176 204
3 109 605 603 40 176 204
3 109 603 110 40 176 204
3 109 110 601 40 176 204
3 601 110 599 40 176 204
3 599 110 108 40 176 204
3 599 108 107 40 176 204
3 107 108 747 40 176 204
3 747 108 602 40 176 204
3 747 602 712 40 176 204
3 747 712 246 40 176 204
3 246 712 244 40 176 204
3 246 244 263 40 176 204
3 263 244 245 40 176 204
3 245 244 248 40 176 204
3 245 248 711 40 176 204
3 711 248 247 40 176 204
3 711 247 256 40 176 204
3 256 247 275 40 176 204
3 275 247 273 40 176 204
3 275 273 274 40 176 204
3 256 275 728 40 176 204
3 256 728 243 40 176 204
3 243 728 258 40 176 204
3 258 728 277 40 176 204
3 258 277 722 40 176 204
3 722 277 710 40 176 204
3 722 710 259 40 176 204
3 259 710 260 40 176 204
3 260 710 119 40 176 204
3 260 119 106 40 176 204
3 106 119 596 40 176 204
3 106 596 105 40 176 204
3 105 596 135 40 176 204
3 105 135 104 40 176 204
3 104 135 134 40 176 204
3 134 135 597 40 176 204
3 134 597 151 40 176 204
3 104 134 595 40 176 204
3 595 134 117 40 176 204
3 595 117 606 40 176 204
3 606 117 7 40 176 204
3 7 117 116 40 176 204
3 116 117 109 40 176 204
3 116 109 601 40 176 204
3 116 601 598 40 176 204
3 598 601 599 40 176 204
3 598 599 123 40 176 204
3 123 599 124 40 176 204
3 124 599 107 40 176 204
3 124 107 8 40 176 204
3 8 107 600 40 176 204
3 600 107 747 40 176 204
3 600 747 746 40 176 204
3 746 747 246 40 176 204
3 746 246 264 40 176 204
3 264 246 263 40 176 204
3 264 263 724 40 176 204
3 724 263 267 242 24 142
3 267 263 262 40 176 204
3 262 263 245 40 176 204
3 262 245 711 40 176 204
3 262 711 278 40 176 204
3 278 711 719 40 176 204
3 719 711 256 40 176 204
3 719 256 261 40 176 204
3 261 256 243 40 176 204
3 261 243 720 40 176 204
3 720 243 257 40 176 204
3 257 243 258 40 176 204
3 257 258 721 40 176 204
3 721 258 723 40 176 204
3 723 258 722 40 176 204
3 723 722 259 40 176 204
3 723 259 25 40 176 204
3 25 259 260 40 176 204
3 25 260 26 40 176 204
3 26 260 121 40 176 204
3 121 260 106 40 176 204
3 121 106 120 40 176 204
3 120 106 608 40 176 204
3 608 106 118 40 176 204
3 118 106 105 40 176 204
3 118 105 104 40 176 204
3 118 104 607 40 176 204
3 607 104 606 40 176 204
3 606 104 595 40 176 204
3 607 606 610 242 24 142
3 610 606 140 242 24 142
3 140 606 609 242 24 142
3 609 606 7 40 176 204
3 609 7 139 242 24 142
3 139 7 612 242 24 142
3 612 7 116 40 176 204
3 612 116 122 40 176 204
3 122 116 598 40 176 204
3 122 598 123 40 176 204
3 122 123 137 40 176 204
3 137 123 9 40 176 204
3 9 123 125 40 176 204
3 125 123 613 40 176 204
3 613 123 124 40 176 204
3 613 124 614 40 176 204
3 614 124 8 40 176 204
3 614 8 133 40 176 204
3 133 8 265 40 176 204
3 265 8 600 40 176 204
3 265 600 746 40 176 204
3 265 746 264 40 176 204
3 265 264 725 40 176 204
3 725 264 724 242 24 142
3 725 724 268 242 24 142
3 268 724 640 242 24 142
3 640 724 266 242 24 142
3 266 724 267 242 24 142
3 266 267 279 242 24 142
3 279 267 278 242 24 142
3 278 267 262 40 176 204
3 279 278 281 242 24 142
3 281 278 719 242 24 142
3 281 719 261 40 176 204
3 281 261 282 242 24 142
3 282 261 720 242 24 142
3 282 720 729 242 24 142
3 729 720 283 242 24 142
3 283 720 257 40 176 204
3 283 257 721 40 176 204
3 283 721 286 242 24 142
3 286 721 285 242 24 142
3 285 721 723 40 176 204
3 285 723 25 40 176 204
3 285 25 730 40 176 204
3 730 25 731 40 176 204
3 731 25 26 40 176 204
3 731 26 289 40 176 204
3 289 26 10 40 176 204
3 10 26 121 40 176 204
3 10 121 147 40 176 204
3 147 121 120 40 176 204
3 147 120 143 242 24 142
3 143 120 611 242 24 142
3 611 120 608 40 176 204
3 611 608 607 40 176 204
3 607 608 118 40 176 204
3 611 607 142 242 24 142
3 142 607 610 242 24 142
3 142 610 141 242 24 142
3 141 610 140 242 24 142
3 141 140 521 242 24 142
3 521 140 609 242 24 142
3 521 609 75 242 24 142
3 75 609 139 242 24 142
3 75 139 522 242 24 142
3 522 139 619 242 24 142
3 619 139 612 242 24 142
3 619 612 137 242 24 142
3 137 612 122 40 176 204
3 619 137 138 242 24 142
3 138 137 615 242 24 142
3 615 137 9 242 24 142
3 615 9 77 242 24 142
3 77 9 559 242 24 142
3 559 9 616 242 24 142
3 616 9 125 242 24 142
3 616 125 617 242 24 142
3 617 125 128 242 24 142
3 128 125 613 40 176 204
3 128 613 131 40 176 204
3 131 613 614 40 176 204
3 131 614 133 40 176 204
3 131 133 272 40 176 204
3 272 133 748 40 176 204
3 748 133 265 40 176 204
3 748 265 271 40 176 204
3 271 265 725 40 176 204
3 271 725 726 242 24 142
3 726 725 641 242 24 142
3 641 725 268 242 24 142
3 641 268 180 242 24 142
3 180 268 640 242 24 142
3 180 640 646 242 24 142
3 646 640 179 242 24 142
3 179 640 266 242 24 142
3 179 266 645 242 24 142
3 645 266 680 242 24 142
3 680 266 279 242 24 142
3 680 279 280 242 24 142
3 280 279 281 242 24 142
3 280 281 639 242 24 142
3 639 281 282 242 24 142
3 639 282 216 242 24 142
3 216 282 729 242 24 142
3 216 729 679 242 24 142
3 679 729 283 242 24 142
3 679 283 284 242 24 142
3 284 283 286 242 24 142
3 284 286 638 242 24 142
3 638 286 678 242 24 142
3 678 286 285 242 24 142
3 678 285 730 242 24 142
3 678 730 214 242 24 142
3 214 730 19 242 24 142
3 19 730 731 242 24 142
3 19 731 677 242 24 142
3 677 731 287 242 24 142
3 287 731 288 242 24 142
3 288 731 289 40 176 204
3 288 289 149 40 176 204
3 149 289 10 40 176 204
3 149 10 621 242 24 142
3 621 10 147 242 24 142
3 621 147 148 242 24 142
3 148 147 73 242 24 142
3 73 147 143 242 24 142
3 73 143 144 242 24 142
3 144 143 558 242 24 142
3 558 143 620 242 24 142
3 620 143 611 242 24 142
3 620 611 142 242 24 142
3 620 142 74 242 24 142
3 74 142 141 242 24 142
3 74 141 528 242 24 142
3 528 141 33 242 24 142
3 33 141 521 242 24 142
3 33 521 529 242 24 142
3 529 521 75 242 24 142
3 529 75 522 242 24 142
3 529 522 530 242 24 142
3 530 522 76 242 24 142
3 76 522 138 242 24 142
3 138 522 619 242 24 142
3 76 138 615 242 24 142
3 76 615 523 242 24 142
3 523 615 77 242 24 142
3 523 77 533 242 24 142
3 533 77 531 242 24 142
3 531 77 559 242 24 142
3 531 559 126 242 24 142
3 126 559 616 242 24 142
3 126 616 560 242 24 142
3 560 616 617 242 24 142
3 560 617 129 242 24 142
3 129 617 130 242 24 142
3 130 617 128 242 24 142
3 130 128 131 242 24 142
3 130 131 618 242 24 142
3 618 131 272 40 176 204
3 618 272 132 40 176 204
3 132 272 270 40 176 204
3 270 272 748 40 176 204
3 270 748 726 242 24 142
3 726 748 271 242 24 142
3 270 726 269 242 24 142
3 269 726 23 242 24 142
3 23 726 641 242 24 142
3 23 641 217 242 24 142
3 217 641 647 242 24 142
3 647 641 180 242 24 142
3 647 180 646 242 24 142
3 647 646 187 242 24 142
3 187 646 15 242 24 142
3 15 646 179 242 24 142
3 15 179 657 242 24 142
3 657 179 183 242 24 142
3 183 179 645 242 24 142
3 183 645 178 242 24 142
3 178 645 280 242 24 142
3 280 645 680 242 24 142
3 178 280 639 242 24 142
3 178 639 644 242 24 142
3 644 639 216 242 24 142
3 644 216 215 242 24 142
3 215 216 679 242 24 142
3 215 679 284 242 24 142
3 215 284 638 242 24 142
3 215 638 643 242 24 142
3 643 638 177 242 24 142
3 177 638 637 242 24 142
3 637 638 678 242 24 142
3 637 678 214 242 24 142
3 637 214 651 242 24 142
3 651 214 182 242 24 142
3 182 214 650 242 24 142
3 650 214 19 242 24 142
3 650 19 176 242 24 142
3 176 19 677 242 24 142
3 176 677 642 242 24 142
3 642 677 218 242 24 142
3 218 677 287 242 24 142
3 218 287 648 242 24 142
3 648 287 22 242 24 142
3 22 287 270 242 24 142
3 270 287 749 242 24 142
3 749 287 288 242 24 142
3 749 288 145 40 176 204
3 145 288 149 40 176 204
3 145 149 562 242 24 142
3 562 149 146 242 24 142
3 146 149 621 242 24 142
3 146 621 526 242 24 142
3 526 621 148 242 24 142
3 526 148 37 242 24 142
3 37 148 520 242 24 142
3 520 148 73 242 24 142
3 520 73 144 242 24 142
3 520 144 32 242 24 142
3 32 144 527 242 24 142
3 527 144 558 242 24 142
3 527 558 74 242 24 142
3 74 558 620 242 24 142
3 527 74 38 242 24 142
3 38 74 528 242 24 142
3 38 528 532 242 24 142
3 532 528 33 242 24 142
3 532 33 529 242 24 142
3 532 529 39 242 24 142
3 39 529 530 242 24 142
3 39 530 544 242 24 142
3 544 530 40 242 24 142
3 40 530 76 242 24 142
3 40 76 523 242 24 142
3 40 523 533 242 24 142
3 40 533 48 242 24 142
3 48 533 538 242 24 142
3 538 533 45 242 24 142
3 45 533 531 242 24 142
3 45 531 34 242 24 142
3 34 531 126 242 24 142
3 34 126 534 242 24 142
3 534 126 560 242 24 142
3 534 560 129 242 24 142
3 534 129 35 242 24 142
3 35 129 524 242 24 142
3 524 129 561 242 24 142
3 561 129 130 242 24 142
3 561 130 618 242 24 142
3 561 618 127 242 24 142
3 127 618 132 242 24 142
3 127 132 145 242 24 142
3 145 132 749 40 176 204
3 749 132 270 40 176 204
3 127 145 562 242 24 142
3 127 562 525 242 24 142
3 525 562 146 242 24 142
3 525 146 41 242 24 142
3 41 146 526 242 24 142
3 41 526 36 242 24 142
3 36 526 37 242 24 142
3 36 37 43 242 24 142
3 43 37 535 242 24 142
3 535 37 520 242 24 142
3 535 520 32 242 24 142
3 535 32 38 242 24 142
3 38 32 527 242 24 142
3 535 38 536 242 24 142
3 536 38 44 242 24 142
3 44 38 532 242 24 142
3 44 532 39 242 24 142
3 44 39 537 242 24 142
3 537 39 544 242 24 142
3 537 544 2 96 204 61
3 2 544 545 96 204 61
3 545 544 48 96 204 61
3 48 544 40 242 24 142
3 545 48 546 96 204 61
3 546 48 538 96 204 61
3 546 538 547 96 204 61
3 547 538 49 96 204 61
3 49 538 45 96 204 61
3 49 45 539 242 24 142
3 539 45 34 242 24 142
3 539 34 534 242 24 142
3 539 534 35 242 24 142
3 539 35 540 242 24 142
3 540 35 524 242 24 142
3 540 524 42 242 24 142
3 42 524 127 242 24 142
3 127 524 561 242 24 142
3 42 127 525 242 24 142
3 42 525 541 242 24 142
3 541 525 41 242 24 142
3 541 41 0 242 24 142
3 0 41 36 242 24 142
3 0 36 542 242 24 142
3 542 36 43 242 24 142
3 542 43 50 242 24 142
3 50 43 47 242 24 142
3 47 43 535 242 24 142
3 47 535 536 242 24 142
3 47 536 543 242 24 142
3 543 536 44 242 24 142
3 543 44 51 242 24 142
3 51 44 537 242 24 142
3 51 537 2 96 204 61
3 51 2 64 96 204 61
3 64 2 550 96 204 61
3 550 2 551 96 204 61
3 551 2 545 96 204 61
3 551 545 546 96 204 61
3 551 546 58 96 204 61
3 58 546 552 96 204 61
3 552 546 547 96 204 61
3 552 547 553 96 204 61
3 553 547 52 96 204 61
3 52 547 49 96 204 61
3 52 49 53 96 204 61
3 53 49 539 96 204 61
3 53 539 46 96 204 61
3 46 539 540 242 24 142
3 46 540 1 242 24 142
3 1 540 42 242 24 142
3 1 42 541 242 24 142
3 1 541 55 96 204 61
3 55 541 555 96 204 61
3 555 541 54 96 204 61
3 54 541 0 242 24 142
3 54 0 542 96 204 61
3 54 542 50 96 204 61
3 54 50 60 96 204 61
3 60 50 61 96 204 61
3 61 50 548 96 204 61
3 548 50 47 96 204 61
3 548 47 543 96 204 61
3 548 543 549 96 204 61
3 549 543 51 96 204 61
3 549 51 64 96 204 61
3 549 64 557 96 204 61
3 557 64 66 96 204 61
3 66 64 550 96 204 61
3 66 550 67 96 204 61
3 67 550 56 96 204 61
3 56 550 551 96 204 61
3 56 551 57 96 204 61
3 57 551 58 96 204 61
3 57 58 68 96 204 61
3 68 58 552 96 204 61
3 68 552 3 96 204 61
3 3 552 553 96 204 61
3 3 553 59 96 204 61
3 59 553 70 96 204 61
3 70 553 52 96 204 61
3 70 52 53 96 204 61
3 70 53 554 96 204 61
3 554 53 46 96 204 61
3 554 46 55 96 204 61
3 55 46 1 96 204 61
3 554 55 5 96 204 61
3 5 55 555 96 204 61
3 5 555 556 96 204 61
3 556 555 54 96 204 61
3 556 54 60 96 204 61
3 556 60 71 96 204 61
3 71 60 62 96 204 61
3 62 60 61 96 204 61
3 62 61 557 96 204 61
3 557 61 548 96 204 61
3 557 548 549 96 204 61
3 62 557 65 96 204 61
3 65 557 66 96 204 61
3 65 66 517 96 204 61
3 517 66 67 96 204 61
3 517 67 518 96 204 61
3 518 67 56 96 204 61
3 518 56 57 96 204 61
3 518 57 69 96 204 61
3 69 57 68 96 204 61
3 69 68 519 96 204 61
3 519 68 3 96 204 61
3 519 3 59 96 204 61
3 519 59 4 96 204 61
3 4 59 70 96 204 61
3 4 70 5 96 204 61
3 5 70 554 96 204 61
3 4 5 513 96 204 61
3 513 5 72 96 204 61
3 72 5 556 96 204 61
3 72 556 71 96 204 61
3 72 71 481 96 204 61
3 481 71 484 96 204 61
3 484 71 62 96 204 61
3 484 62 63 96 204 61
3 63 62 516 96 204 61
3 516 62 65 96 204 61
3 516 65 517 96 204 61
3 516 517 503 56 48 242
3 503 517 505 56 48 242
3 505 517 507 56 48 242
3 507 517 518 56 48 242
3 507 518 509 56 48 242
3 509 518 69 96 204 61
3 509 69 519 96 204 61
3 509 519 511 96 204 61
3 511 519 513 96 204 61
3 513 519 4 96 204 61
3 511 513 512 56 48 242
3 512 513 515 56 48 242
3 515 513 72 96 204 61
3 515 72 481 96 204 61
3 515 481 480 56 48 242
3 480 481 484 56 48 242
3 480 484 483 56 48 242
3 483 484 490 56 48 242
3 490 484 63 56 48 242
3 490 63 497 56 48 242
3 497 63 503 56 48 242
3 503 63 516 56 48 242
3 497 503 502 56 48 242
3 502 503 505 56 48 242
3 502 505 504 56 48 242
3 504 505 506 56 48 242
3 506 505 507 56 48 242
3 506 507 508 56 48 242
3 508 507 509 56 48 242
3 508 509 511 56 48 242
3 508 511 510 56 48 242
3 510 511 512 56 48 242
3 510 512 514 56 48 242
3 514 512 480 56 48 242
3 480 512 515 56 48 242
3 514 480 479 56 48 242
3 479 480 483 56 48 242
3 479 483 482 56 48 242
3 482 483 489 56 48 242
3 489 483 490 56 48 242
3 489 490 495 56 48 242
3 495 490 497 56 48 242
3 495 497 499 56 48 242
3 499 497 502 56 48 242
3 499 502 501 56 48 242
3 501 502 504 56 48 242
3 501 504 478 56 48 242
3 478 504 479 56 48 242
3 479 504 514 56 48 242
3 514 504 506 56 48 242
3 514 506 510 56 48 242
3 510 506 508 56 48 242
3 478 479 482 56 48 242
3 478 482 500 56 48 242
3 500 482 491 56 48 242
3 491 482 485 56 48 242
3 485 482 486 56 48 242
3 486 482 489 56 48 242
3 486 489 488 56 48 242
3 488 489 495 56 48 242
3 488 495 494 56 48 242
3 494 495 496 56 48 242
3 496 495 499 56 48 242
3 496 499 498 56 48 242
3 498 499 500 56 48 242
3 500 499 501 56 48 242
3 500 501 478 56 48 242
3 498 500 491 56 48 242
3 498 491 496 56 48 242
3 496 491 493 56 48 242
3 493 491 492 56 48 242
3 492 491 487 56 48 242
3 487 491 485 56 48 242
3 487 485 486 56 48 242
3 487 486 488 56 48 242
3 487 488 492 56 48 242
3 492 488 494 56 48 242
3 492 494 493 56 48 242
3 493 494 496 56 48 242
3 22 270 269 242 24 142
3 22 269 185 242 24 142
3 185 269 654 242 24 142
3 654 269 23 242 24 142
3 654 23 217 242 24 142
3 654 217 184 242 24 142
3 184 217 647 242 24 142
3 184 647 187 242 24 142
3 184 187 663 96 204 61
3 663 187 662 96 204 61
3 662 187 15 96 204 61
3 662 15 196 96 204 61
3 196 15 659 96 204 61
3 659 15 657 96 204 61
3 659 657 195 96 204 61
3 195 657 189 96 204 61
3 189 657 183 242 24 142
3 189 183 178 242 24 142
3 189 178 653 242 24 142
3 653 178 644 242 24 142
3 653 644 643 242 24 142
3 643 644 215 242 24 142
3 653 643 652 242 24 142
3 652 643 177 242 24 142
3 652 177 200 242 24 142
3 200 177 655 242 24 142
3 655 177 651 242 24 142
3 651 177 637 242 24 142
3 655 651 182 242 24 142
3 655 182 186 242 24 142
3 186 182 650 242 24 142
3 186 650 181 242 24 142
3 181 650 176 242 24 142
3 181 176 642 242 24 142
3 181 642 649 242 24 142
3 649 642 218 242 24 142
3 649 218 648 242 24 142
3 649 648 658 242 24 142
3 658 648 185 242 24 142
3 185 648 22 242 24 142
3 658 185 192 242 24 142
3 192 185 654 242 24 142
3 192 654 660 242 24 142
3 660 654 184 242 24 142
3 660 184 198 96 204 61
3 198 184 197 96 204 61
3 197 184 663 96 204 61
3 197 663 203 96 204 61
3 203 663 18 96 204 61
3 18 663 662 96 204 61
3 18 662 671 96 204 61
3 671 662 196 96 204 61
3 671 196 201 96 204 61
3 201 196 659 96 204 61
3 201 659 667 96 204 61
3 667 659 195 96 204 61
3 667 195 194 96 204 61
3 194 195 189 96 204 61
3 194 189 188 96 204 61
3 188 189 653 242 24 142
3 188 653 652 242 24 142
3 188 652 656 242 24 142
3 656 652 200 96 204 61
3 656 200 668 96 204 61
3 668 200 206 96 204 61
3 206 200 665 96 204 61
3 665 200 655 96 204 61
3 665 655 661 96 204 61
3 661 655 186 96 204 61
3 661 186 191 96 204 61
3 191 186 181 242 24 142
3 191 181 649 242 24 142
3 191 649 190 242 24 142
3 190 649 658 242 24 142
3 190 658 192 242 24 142
3 190 192 16 96 204 61
3 16 192 660 96 204 61
3 16 660 198 96 204 61
3 16 198 204 96 204 61
3 204 198 203 96 204 61
3 203 198 197 96 204 61
3 204 203 202 96 204 61
3 202 203 18 96 204 61
3 202 18 211 96 204 61
3 211 18 210 96 204 61
3 210 18 209 96 204 61
3 209 18 671 96 204 61
3 209 671 17 96 204 61
3 17 671 201 96 204 61
3 17 201 670 96 204 61
3 670 201 669 96 204 61
3 669 201 667 96 204 61
3 669 667 666 96 204 61
3 666 667 194 96 204 61
3 666 194 193 96 204 61
3 193 194 188 96 204 61
3 193 188 656 96 204 61
3 193 656 668 96 204 61
3 193 668 208 96 204 61
3 208 668 675 96 204 61
3 675 668 206 96 204 61
3 675 206 674 96 204 61
3 674 206 665 96 204 61
3 674 665 199 96 204 61
3 199 665 661 96 204 61
3 199 661 191 96 204 61
3 199 191 664 96 204 61
3 664 191 190 96 204 61
3 664 190 672 96 204 61
3 672 190 16 96 204 61
3 672 16 204 96 204 61
3 672 204 213 96 204 61
3 213 204 202 96 204 61
3 213 202 211 96 204 61
3 213 211 474 96 204 61
3 474 211 210 96 204 61
3 474 210 472 56 48 242
3 472 210 469 56 48 242
3 469 210 209 96 204 61
3 469 209 635 96 204 61
3 635 209 670 96 204 61
3 670 209 17 96 204 61
3 635 670 465 96 204 61
3 465 670 676 96 204 61
3 676 670 669 96 204 61
3 676 669 666 96 204 61
3 676 666 208 96 204 61
3 208 666 193 96 204 61
3 676 208 465 96 204 61
3 465 208 207 96 204 61
3 207 208 675 96 204 61
3 207 675 674 96 204 61
3 207 674 205 96 204 61
3 205 674 673 96 204 61
3 673 674 199 96 204 61
3 673 199 212 96 204 61
3 212 199 664 96 204 61
3 212 664 672 96 204 61
3 212 672 213 96 204 61
3 212 213 636 96 204 61
3 636 213 474 96 204 61
3 636 474 477 96 204 61
3 477 474 476 56 48 242
3 476 474 473 56 48 242
3 473 474 472 56 48 242
3 473 472 471 56 48 242
3 471 472 468 56 48 242
3 468 472 469 56 48 242
3 468 469 635 56 48 242
3 468 635 467 56 48 242
3 467 635 465 56 48 242
3 467 465 463 56 48 242
3 463 465 207 56 48 242
3 463 207 634 56 48 242
3 634 207 205 56 48 242
3 634 205 445 56 48 242
3 445 205 673 96 204 61
3 445 673 477 96 204 61
3 477 673 212 96 204 61
3 477 212 636 96 204 61
3 445 477 476 56 48 242
3 445 476 442 56 48 242
3 442 476 475 56 48 242
3 475 476 473 56 48 242
3 475 473 471 56 48 242
3 475 471 470 56 48 242
3 470 471 468 56 48 242
3 470 468 467 56 48 242
3 470 467 466 56 48 242
3 466 467 464 56 48 242
3 464 467 463 56 48 242
3 464 463 462 56 48 242
3 462 463 460 56 48 242
3 460 463 458 56 48 242
3 458 463 634 56 48 242
3 458 634 451 56 48 242
3 451 634 445 56 48 242
3 451 445 444 56 48 242
3 444 445 442 56 48 242
3 444 442 441 56 48 242
3 441 442 475 56 48 242
3 441 475 464 56 48 242
3 464 475 466 56 48 242
3 466 475 470 56 48 242
3 441 464 440 56 48 242
3 440 464 462 56 48 242
3 440 462 461 56 48 242
3 461 462 460 56 48 242
3 461 460 456 56 48 242
3 456 460 457 56 48 242
3 457 460 451 56 48 242
3 451 460 458 56 48 242
3 457 451 450 56 48 242
3 450 451 444 56 48 242
3 450 444 443 56 48 242
3 443 444 441 56 48 242
3 443 441 440 56 48 242
3 443 440 461 56 48 242
3 443 461 454 56 48 242
3 454 461 459 56 48 242
3 459 461 456 56 48 242
3 459 456 454 56 48 242
3 454 456 455 56 48 242
3 455 456 453 56 48 242
3 453 456 457 56 48 242
3 453 457 449 56 48 242
3 449 457 450 56 48 242
3 449 450 446 56 48 242
3 446 450 443 56 48 242
3 446 443 447 56 48 242
3 447 443 454 56 48 242
3 447 454 452 56 48 242
3 452 454 455 56 48 242
3 452 455 453 56 48 242
3 452 453 449 56 48 242
3 452 449 448 56 48 242
3 448 449 446 56 48 242
3 448 446 447 56 48 242
3 448 447 452 56 48 242
3 306 31 30 40 176 204
3 306 30 221 242 221 72
3 306 221 220 242 221 72
3 220 221 683 242 221 72
3 220 683 228 242 221 72
3 228 683 689 242 221 72
3 228 689 694 242 221 72
3 694 689 693 242 221 72
3 693 689 688 242 221 72
3 693 688 700 242 221 72
3 700 688 21 127 20 204
3 21 688 692 127 20 204
3 692 688 227 242 221 72
3 227 688 685 242 221 72
3 685 688 684 242 221 72
3 227 685 225 242 221 72
3 227 225 687 242 221 72
3 687 225 229 242 221 72
3 229 225 681 242 221 72
3 229 681 226 242 221 72
3 226 681 224 242 221 72
3 224 681 686 242 221 72
3 224 686 306 242 221 72
3 306 686 740 242 221 72
3 224 306 220 242 221 72
3 224 220 219 242 221 72
3 219 220 690 242 221 72
3 690 220 228 242 221 72
3 690 228 695 242 221 72
3 695 228 694 242 221 72
3 695 694 232 127 20 204
3 232 694 231 127 20 204
3 231 694 693 127 20 204
3 231 693 698 127 20 204
3 698 693 700 127 20 204
3 698 700 239 127 20 204
3 239 700 21 127 20 204
3 239 21 705 127 20 204
3 705 21 697 127 20 204
3 697 21 692 127 20 204
3 697 692 699 127 20 204
3 699 692 235 127 20 204
3 235 692 691 127 20 204
3 691 692 687 242 221 72
3 687 692 227 242 221 72
3 691 687 229 242 221 72
3 691 229 696 242 221 72
3 696 229 226 242 221 72
3 696 226 682 242 221 72
3 682 226 219 242 221 72
3 219 226 224 242 221 72
3 682 219 690 242 221 72
3 682 690 230 242 221 72
3 230 690 695 242 221 72
3 230 695 233 127 20 204
3 233 695 232 127 20 204
3 233 232 236 127 20 204
3 236 232 701 127 20 204
3 701 232 231 127 20 204
3 701 231 237 127 20 204
3 237 231 698 127 20 204
3 237 698 239 127 20 204
3 237 239 706 127 20 204
3 706 239 377 127 20 204
3 377 239 376 127 20 204
3 376 239 705 127 20 204
3 376 705 373 48 242 105
3 373 705 394 48 242 105
3 394 705 704 127 20 204
3 704 705 697 127 20 204
3 704 697 699 127 20 204
3 704 699 703 127 20 204
3 703 699 235 127 20 204
3 703 235 234 127 20 204
3 234 235 691 127 20 204
3 234 691 696 127 20 204
3 234 696 230 127 20 204
3 230 696 682 242 221 72
3 234 230 702 127 20 204
3 702 230 233 127 20 204
3 702 233 236 127 20 204
3 702 236 240 127 20 204
3 240 236 701 127 20 204
3 240 701 706 127 20 204
3 706 701 237 127 20 204
3 240 706 378 127 20 204
3 378 706 377 127 20 204
3 378 377 374 48 242 105
3 374 377 376 48 242 105
3 374 376 375 48 242 105
3 375 376 396 48 242 105
3 396 376 373 48 242 105
3 396 373 397 48 242 105
3 397 373 386 48 242 105
3 386 373 395 48 242 105
3 395 373 394 48 242 105
3 395 394 393 48 242 105
3 393 394 241 127 20 204
3 241 394 704 127 20 204
3 241 704 703 127 20 204
3 241 703 242 127 20 204
3 242 703 238 127 20 204
3 238 703 234 127 20 204
3 238 234 702 127 20 204
3 238 702 242 127 20 204
3 242 702 240 127 20 204
3 242 240 381 127 20 204
3 381 240 378 127 20 204
3 381 378 379 48 242 105
3 379 378 400 48 242 105
3 400 378 374 48 242 105
3 400 374 382 48 242 105
3 382 374 404 48 242 105
3 404 374 405 48 242 105
3 405 374 375 48 242 105
3 405 375 391 48 242 105
3 391 375 403 48 242 105
3 403 375 384 48 242 105
3 384 375 385 48 242 105
3 385 375 396 48 242 105
3 385 396 389 48 242 105
3 389 396 402 48 242 105
3 402 396 397 48 242 105
3 402 397 399 48 242 105
3 399 397 387 48 242 105
3 387 397 386 48 242 105
3 387 386 398 48 242 105
3 398 386 395 48 242 105
3 398 395 380 48 242 105
3 380 395 393 48 242 105
3 380 393 381 48 242 105
3 381 393 241 48 242 105
3 381 241 242 127 20 204
3 380 381 379 48 242 105
3 380 379 398 48 242 105
3 398 379 402 48 242 105
3 402 379 403 48 242 105
3 403 379 400 48 242 105
3 403 400 392 48 242 105
3 392 400 383 48 242 105
3 383 400 405 48 242 105
3 405 400 404 48 242 105
3 404 400 382 48 242 105
3 383 405 391 48 242 105
3 383 391 392 48 242 105
3 392 391 403 48 242 105
3 402 403 384 48 242 105
3 402 384 401 48 242 105
3 401 384 388 48 242 105
3 388 384 385 48 242 105
3 388 385 389 48 242 105
3 388 389 390 48 242 105
3 390 389 402 48 242 105
3 390 402 401 48 242 105
3 390 401 388 48 242 105
3 398 402 399 48 242 105
3 398 399 387 48 242 105
3 346 102 342 204 61 61
3 346 342 336 204 61 61
3 336 342 337 204 61 61
3 336 337 366 204 61 61
3 366 337 360 204 61 61
3 366 360 364 204 61 61
3 366 364 343 204 61 61
3 343 364 354 204 61 61
3 343 354 328 204 61 61
3 328 354 352 204 61 61
3 328 352 348 204 61 61
3 348 352 349 204 61 61
3 349 352 351 204 61 61
3 351 352 353 204 61 61
3 349 351 350 204 61 61
3 349 350 371 204 61 61
3 349 371 370 204 61 61
3 370 371 325 204 61 61
3 325 371 372 204 61 61
3 325 372 340 204 61 61
3 340 372 331 204 61 61
3 340 331 334 204 61 61
3 340 334 326 204 61 61
3 326 334 322 204 61 61
3 322 334 346 204 61 61
3 322 346 339 204 61 61
3 339 346 336 204 61 61
3 339 336 338 204 61 61
3 338 336 366 204 61 61
3 338 366 343 204 61 61
3 338 343 339 204 61 61
3 339 343 327 204 61 61
3 327 343 328 204 61 61
3 327 328 341 204 61 61
3 341 328 348 204 61 61
3 341 348 369 204 61 61
3 369 348 349 204 61 61
3 369 349 370 204 61 61
3 369 370 323 204 61 61
3 323 370 325 204 61 61
3 323 325 326 204 61 61
3 326 325 340 204 61 61
3 323 326 324 204 61 61
3 324 326 327 204 61 61
3 327 326 344 204 61 61
3 344 326 322 204 61 61
3 344 322 339 204 61 61
3 344 339 327 204 61 61
3 324 327 341 204 61 61
3 324 341 369 204 61 61
3 324 369 323 204 61 61
